<?xml version="1.0" standalone="no"?>
<!DOCTYPE svg PUBLIC "-//W3C//DTD SVG 1.1//EN" "http://www.w3.org/Graphics/SVG/1.1/DTD/svg11.dtd" >
<svg xmlns="http://www.w3.org/2000/svg">
<metadata>Generated by IcoMoon</metadata>
<defs>
<font id="icomoon" horiz-adv-x="1024">
<font-face units-per-em="1024" ascent="960" descent="-64" />
<missing-glyph horiz-adv-x="1024" />
<glyph unicode="&#x20;" horiz-adv-x="512" d="" />
<glyph unicode="&#xe900;" glyph-name="bold" horiz-adv-x="939" d="M73.697 952.242h375.129c74.258 0 129.631-3.094 166.119-9.282s69.136-19.098 97.943-38.729c28.807-19.631 52.812-45.771 72.017-78.419s28.807-69.243 28.807-109.786c0-43.957-11.843-84.286-35.528-120.989s-55.8-64.228-96.343-82.58c57.187-16.644 101.144-45.024 131.871-85.14s46.091-87.274 46.091-141.473c0-42.677-9.922-84.18-29.767-124.509s-46.944-72.55-81.299-96.663c-34.355-24.112-76.711-38.943-127.070-44.491-31.581-3.414-107.758-5.548-228.534-6.402h-319.436v938.462zM263.182 796.045v-217.011h124.189c73.831 0 119.708 1.067 137.633 3.201 32.435 3.841 57.934 15.043 76.498 33.608s27.847 42.997 27.847 73.297c0 29.020-8.002 52.599-24.006 70.737s-39.796 29.127-71.377 32.968c-18.778 2.134-72.763 3.201-161.958 3.201h-108.826zM263.182 422.837v-250.939h175.402c68.283 0 111.6 1.92 129.951 5.761 28.167 5.121 51.105 17.604 68.816 37.449s26.566 46.411 26.566 79.699c0 28.167-6.828 52.066-20.485 71.697s-33.394 33.928-59.214 42.89c-25.82 8.962-81.832 13.443-168.040 13.443h-152.996z" />
<glyph unicode="&#xe901;" glyph-name="incline" horiz-adv-x="853" d="M785.082 901.818h-509.688v-100.849h183.544l-201.697-703.116h-183.544v-100.646h509.688v100.646h-183.544l201.697 703.116h183.544z" />
<glyph unicode="&#xe902;" glyph-name="line-through" horiz-adv-x="2048" d="M186.124 423.808l-150.682 27.182c16.939 60.667 46.091 105.576 87.455 134.727s102.818 43.727 184.364 43.727c74.061 0 129.212-8.765 165.455-26.295s61.75-39.788 76.523-66.773c14.773-26.985 22.159-76.522 22.159-148.614l-1.773-193.818c0-55.152 2.659-95.826 7.977-122.023s15.265-54.265 29.841-84.205h-164.273c-4.333 11.030-9.651 27.379-15.955 49.045-2.758 9.849-4.727 16.348-5.909 19.5-28.364-27.576-58.697-48.258-91-62.045s-66.773-20.682-103.409-20.682c-64.606 0-115.523 17.53-152.75 52.591s-55.841 79.379-55.841 132.955c0 35.455 8.47 67.068 25.409 94.841s40.674 49.045 71.205 63.818c30.53 14.773 74.553 27.674 132.068 38.705 77.606 14.576 131.379 28.167 161.318 40.773v16.545c0 31.909-7.879 54.659-23.636 68.25s-45.5 20.386-89.227 20.386c-29.546 0-52.591-5.811-69.136-17.432s-29.939-32.007-40.182-61.159v0zM408.306 289.081c-21.273-7.091-54.954-15.561-101.045-25.409s-76.227-19.5-90.409-28.955c-21.667-15.364-32.5-34.864-32.5-58.5 0-23.243 8.667-43.333 26-60.273s39.394-25.409 66.182-25.409c29.94 0 58.5 9.848 85.682 29.545 20.091 14.97 33.288 33.288 39.591 54.955 4.333 14.182 6.5 41.166 6.5 80.955v33.091zM727.987-12.283v866.273h166.045v-312c51.212 58.303 111.878 87.455 182 87.455 76.425 0 139.651-27.674 189.682-83.023s75.045-134.825 75.045-238.432c0-107.152-25.507-189.682-76.523-247.591s-112.962-86.864-185.841-86.864c-35.849 0-71.204 8.962-106.068 26.886s-64.901 44.416-90.114 79.477v-92.182h-154.227zM892.851 315.081c0-65 10.242-113.060 30.727-144.182 28.758-44.121 66.969-66.182 114.636-66.182 36.637 0 67.856 15.659 93.659 46.977s38.705 80.659 38.705 148.023c0 71.697-13 123.401-39 155.114s-59.288 47.568-99.864 47.568c-39.788 0-72.879-15.462-99.273-46.386s-39.591-77.901-39.591-140.932zM2021.487 429.717l-163.682-29.545c-5.515 32.697-18.023 57.318-37.523 73.864s-44.81 24.818-75.932 24.818c-41.364 0-74.356-14.28-98.977-42.841s-36.932-76.325-36.932-143.295c0-74.455 12.507-127.045 37.523-157.773s58.598-46.091 100.75-46.091c31.515 0 57.318 8.962 77.409 26.886s34.273 48.75 42.545 92.477l163.091-27.773c-16.939-74.849-49.439-131.379-97.5-169.591s-112.469-57.318-193.227-57.318c-91.788 0-164.962 28.954-219.523 86.864s-81.841 138.075-81.841 240.5c0 103.607 27.379 184.265 82.136 241.977s128.818 86.568 222.182 86.568c76.425 0 137.189-16.447 182.295-49.341s77.507-83.022 97.205-150.386zM2.056 323.879h2016.97v-67.232h-2016.97v67.232z" />
<glyph unicode="&#xe903;" glyph-name="text-center" d="M7.758 952.242h1008.485v-100.848h-1008.485v100.848zM7.758 347.152h1008.485v-100.848h-1008.485v100.848zM7.758 649.697h1008.485v-100.848h-1008.485v100.848zM7.758 44.606h1008.485v-100.848h-1008.485v100.848z" />
<glyph unicode="&#xe904;" glyph-name="text-left" horiz-adv-x="1365" d="M77.576 952.242h1210.182v-100.848h-1210.182v100.848zM77.576 347.152h1109.333v-100.848h-1109.333v100.848zM77.576 649.697h756.364v-100.848h-756.364v100.848zM77.576 44.606h756.364v-100.848h-756.364v100.848z" />
<glyph unicode="&#xe905;" glyph-name="text-right" horiz-adv-x="1365" d="M77.576 952.242h1210.182v-100.848h-1210.182v100.848zM178.424 347.152h1109.333v-100.848h-1109.333v100.848zM531.394 649.697h756.364v-100.848h-756.364v100.848zM531.394 44.606h756.364v-100.848h-756.364v100.848z" />
<glyph unicode="&#xe906;" glyph-name="underline" horiz-adv-x="709" d="M633.448 452.010v454.284h-113.943v-453.167c0-86.016-92.719-129.583-174.266-129.583-82.665 0-175.383 42.449-175.383 128.465v454.284h-113.943v-453.167c0-159.744 151.924-242.409 289.327-242.409 134.051 0 288.209 82.665 288.209 241.292zM35.804 78.716h623.705v-93.091h-623.705v93.091z" />
<glyph unicode="&#xe907;" glyph-name="icdelete" d="M384 704h-128v-51.2h563.2v51.2h-128v51.253c0 28.482-22.712 51.147-50.728 51.147h-205.744c-27.638 0-50.728-22.899-50.728-51.147v-51.253zM307.2 601.6h460.8l-35.489-461.036c-2.167-28.147-26.918-50.964-55.193-50.964h-283.551c-28.316 0-52.878 23.33-54.783 50.964l-31.784 461.036zM435.2 755.2h204.8v-51.2h-204.8v51.2z" />
<glyph unicode="&#xe908;" glyph-name="icparenttopic" d="M255.669 652.81c0 28.272 22.851 51.19 51.074 51.19h358.651c28.208 0 51.074-22.718 51.074-51.19v-153.62c0-28.272-22.851-51.19-51.074-51.19h-358.651c-28.208 0-51.074 22.718-51.074 51.19v153.62zM460.469 294.41v-153.62c0-0.121-0.131 0.010-0.126 0.010h358.651c-0.088 0-0.126-0.038-0.126-0.010v153.62c0 0.121 0.131-0.010 0.126-0.010h-358.651c0.088 0 0.126 0.038 0.126 0.010zM204.956 175.806v-0.469h161.419v51.2h-151.569v127.248l29.246-29.289 36.23 36.178-87.199 87.326-90.683-84.315 34.863-37.497 26.343 23.117v-173.499h41.35zM175.923 392.725v0zM409.269 294.41c0 28.272 22.851 51.19 51.074 51.19h358.651c28.208 0 51.074-22.718 51.074-51.19v-153.62c0-28.272-22.851-51.19-51.074-51.19h-358.651c-28.208 0-51.074 22.718-51.074 51.19v153.62z" />
<glyph unicode="&#xe909;" glyph-name="icsubtopic" d="M306.869 652.81v0-153.62c0-0.121-0.131 0.010-0.126 0.010h358.651c-0.088 0-0.126-0.038-0.126-0.010v153.62c0 0.121 0.131-0.010 0.126-0.010h-358.651c0.088 0 0.126 0.038 0.126 0.010v0zM153.756 179.5v-4.163h139.582l-26.22-29.878 37.497-34.863 84.315 90.683-87.326 87.199-36.178-36.23 25.748-25.711h-86.375v169.881h-51.2v-216.919h0.156zM315.175 200.221v2.351l20.097-20.068-19.169 18.775-0.928-1.058zM255.669 652.81c0 28.272 22.851 51.19 51.074 51.19h358.651c28.208 0 51.074-22.718 51.074-51.19v-153.62c0-28.272-22.851-51.19-51.074-51.19h-358.651c-28.208 0-51.074 22.718-51.074 51.19v153.62zM409.269 294.41c0 28.272 22.851 51.19 51.074 51.19h358.651c28.208 0 51.074-22.718 51.074-51.19v-153.62c0-28.272-22.851-51.19-51.074-51.19h-358.651c-28.208 0-51.074 22.718-51.074 51.19v153.62z" />
<glyph unicode="&#xe90a;" glyph-name="ictopicafter" d="M478.232 140.79v0 153.62c0 0.121-0.131-0.010-0.126-0.010h358.651c-0.088 0-0.126 0.038-0.126 0.010v-153.62c0-0.121 0.131 0.010 0.126 0.010h-358.651c0.088 0 0.126-0.038 0.126-0.010v0zM217.163 125.29v-5.009h161.419v51.2h-111.237v388.779l27.908-27.949 36.23 36.178-87.199 87.326-90.683-84.315 34.863-37.497 27.681 24.291v-433.004h1.019zM237.285 590.363l-11.777 11.794 11.552-11.794h0.225zM427.032 140.79c0-28.272 22.851-51.19 51.074-51.19h358.651c28.208 0 51.074 22.718 51.074 51.19v153.62c0 28.272-22.851 51.19-51.074 51.19h-358.651c-28.208 0-51.074-22.718-51.074-51.19v-153.62zM427.032 499.19c0-28.272 22.851-51.19 51.074-51.19h358.651c28.208 0 51.074 22.718 51.074 51.19v153.62c0 28.272-22.851 51.19-51.074 51.19h-358.651c-28.208 0-51.074-22.718-51.074-51.19v-153.62z" />
<glyph unicode="&#xe90b;" glyph-name="ictopicbefore" d="M478.232 704.010v0-153.62c0-0.121-0.131 0.010-0.126 0.010h358.651c-0.088 0-0.126-0.038-0.126-0.010v153.62c0 0.121 0.131-0.010 0.126-0.010h-358.651c0.088 0 0.126 0.038 0.126 0.010v0zM217.163 719.51v5.009h161.419v-51.2h-111.237v-388.779l27.908 27.949 36.23-36.178-87.199-87.326-90.683 84.315 34.863 37.497 27.681-24.291v433.004h1.019zM237.285 254.437l-11.777-11.794 11.552 11.794h0.225zM427.032 704.010c0 28.272 22.851 51.19 51.074 51.19h358.651c28.208 0 51.074-22.718 51.074-51.19v-153.62c0-28.272-22.851-51.19-51.074-51.19h-358.651c-28.208 0-51.074 22.718-51.074 51.19v153.62zM427.032 345.61c0 28.272 22.851 51.19 51.074 51.19h358.651c28.208 0 51.074-22.718 51.074-51.19v-153.62c0-28.272-22.851-51.19-51.074-51.19h-358.651c-28.208 0-51.074 22.718-51.074 51.19v153.62z" />
<glyph unicode="&#xe90c;" glyph-name="icboundary" d="M167.58 252.873v0c0 19.162-7.031 28.581-16.249 35.912-0.983 0.782-0.588 0.54 0.64-0.103 5.326-2.786 14.433-6.723 26.571-11.42 23.583-9.126 57.011-20.545 98.076-33.642 9.963-3.177 20.319-6.435 31.029-9.764 38.183-11.867 79.162-24.112 120.151-36.033 14.353-4.174 27.679-8.009 39.632-11.417 7.154-2.040 12.274-3.488 15.232-4.319 22.776-6.544 62.405-12.082 86.055-12.082h264.683c-0.148 0-0.22-0.072-0.22-0.348v560.365c0-0.232 0.116-0.348 0.22-0.348h-264.683c-23.597 0-64.095-5.344-87.344-11.592-2.631-0.682-7.667-2.007-14.76-3.903-11.878-3.175-25.127-6.781-39.4-10.749-40.744-11.325-81.47-23.254-119.364-35.202-25.362-7.997-48.569-15.73-69.116-23.086-29.637-10.61-53.025-20.188-68.537-28.142-6.737-3.454-11.336-6.287-13.162-7.788 0.716 0.589 1.878 1.784 3.511 4.138 4.118 5.935 7.035 13.75 7.035 23.523v-384zM116.38 252.873c0 21.1 0 344.533 0 384s352.142 130.769 352.142 130.769c27.18 7.307 72.149 13.231 100.194 13.231h264.683c28.156 0 50.98-22.79 50.98-50.852v-560.365c0-28.085-22.935-50.852-50.98-50.852h-264.683c-28.156 0-72.559 6.132-100.194 14.073 0 0-352.142 98.895-352.142 119.996v0zM204.046 504.951c0 16.747 13.764 30.322 30.372 30.322h195.256c16.774 0 30.372-13.66 30.372-30.322v-113.435c0-16.747-13.764-30.322-30.372-30.322h-195.256c-16.774 0-30.372 13.66-30.372 30.322v113.435zM605.431 603.991c0 17.052 13.437 30.875 30.219 30.875h144.362c16.689 0 30.219-14.246 30.219-30.875v-71.37c0-17.052-13.438-30.875-30.219-30.875h-144.362c-16.689 0-30.219 14.246-30.219 30.875v71.37zM605.343 381.322c0 17.052 13.437 30.875 30.219 30.875h144.362c16.689 0 30.219-14.246 30.219-30.875v-71.37c0-17.052-13.437-30.875-30.219-30.875h-144.362c-16.689 0-30.219 14.246-30.219 30.875v71.37zM472.699 473.212h-21.045v-48h21.045v-55.993h-0.086v-48h138.456v48h-90.37v173.332h90.134v48h-138.456v-48h0.321z" />
<glyph unicode="&#xe90d;" glyph-name="icrelationship" d="M484.251 158.923c-11.639-39.655-48.296-68.611-91.717-68.611-52.784 0-95.574 42.79-95.574 95.573s42.79 95.573 95.574 95.573c45.631 0 83.793-31.979 93.298-74.749h241.209v-47.787h-242.789zM678.966 684.576h-382.006v-47.787h382.006v-117.109l191.146 143.36-191.146 143.36v-121.824zM296.96 684.576c-79.176 0-143.36-64.184-143.36-143.36s64.184-143.36 143.36-143.36v47.787c-52.784 0-95.574 42.79-95.574 95.573s42.79 95.573 95.574 95.573v47.787zM727.040 445.643c79.176 0 143.36-64.184 143.36-143.36s-64.184-143.36-143.36-143.36v47.787c52.784 0 95.574 42.79 95.574 95.573s-42.79 95.573-95.574 95.573v47.787zM296.96 445.643h430.080v-47.787h-430.080v47.787z" />
<glyph unicode="&#xe90e;" glyph-name="icsummary" d="M162.966 740.839c0 11.321 9.523 20.498 20.775 20.498h414.381c11.474 0 20.775-8.855 20.775-20.498v-93.966c0-11.321-9.523-20.498-20.775-20.498h-414.381c-11.474 0-20.775 8.855-20.775 20.498v93.966zM162.966 502.228c0 11.321 9.523 20.498 20.775 20.498h414.381c11.474 0 20.775-8.855 20.775-20.498v-93.966c0-11.321-9.523-20.498-20.775-20.498h-414.381c-11.474 0-20.775 8.855-20.775 20.498v93.966zM162.966 263.617c0 11.321 9.523 20.498 20.775 20.498h414.381c11.474 0 20.775-8.855 20.775-20.498v-93.966c0-11.321-9.523-20.498-20.775-20.498h-414.381c-11.474 0-20.775 8.855-20.775 20.498v93.966zM671.914 798.007v-36.504h40.229c35.76 0 54.384-20.115 54.384-60.344v-162.407c0-43.954 19.369-73.754 58.109-88.653-38.739-16.39-58.109-45.444-58.109-88.653v-163.152c0-39.484-18.625-59.599-54.384-59.599h-40.229v-36.504h46.189c28.31 0 50.659 8.94 67.048 26.819 14.9 17.135 23.095 40.229 23.095 70.029v160.917c0 23.095 4.47 40.229 14.9 51.404 10.429 11.92 29.054 18.625 56.619 18.625v40.229c-27.565 0.745-46.935 6.705-57.364 18.625-9.685 11.175-14.155 28.309-14.155 51.404v160.172c0 29.799-8.195 53.639-23.095 70.774-16.39 17.88-38.739 26.819-67.048 26.819h-46.189z" />
<glyph unicode="&#xe90f;" glyph-name="copy" d="M486.4 422.4v102.861c0 13.472-11.462 25.139-25.6 25.139-13.725 0-25.6-11.255-25.6-25.139v-102.861h-102.861c-13.472 0-25.139-11.462-25.139-25.6 0-13.725 11.255-25.6 25.139-25.6h102.861v-102.861c0-13.472 11.462-25.139 25.6-25.139 13.725 0 25.6 11.255 25.6 25.139v102.861h102.861c13.472 0 25.139 11.462 25.139 25.6 0 13.725-11.255 25.6-25.139 25.6h-102.861zM768 243.2h0.236c27.634 0 50.964 22.818 50.964 50.964v410.071c0 27.634-22.818 50.964-50.964 50.964h-410.071c-27.634 0-50.964-22.818-50.964-50.964v-0.236h409.836c28.147 0 50.964-23.33 50.964-50.964v-409.836zM204.8 601.836c0 28.147 23.33 50.964 50.964 50.964h410.071c28.147 0 50.964-23.33 50.964-50.964v-410.071c0-28.147-23.33-50.964-50.964-50.964h-410.071c-28.147 0-50.964 23.33-50.964 50.964v410.071z" />
<glyph unicode="&#xe910;" glyph-name="paste" d="M256 243.2h-0.236c-27.634 0-50.964 22.818-50.964 50.964v410.071c0 27.634 22.818 50.964 50.964 50.964h410.071c27.634 0 50.964-22.818 50.964-50.964v-0.236h-409.836c-28.147 0-50.964-23.33-50.964-50.964v-409.836zM307.2 601.836c0 28.147 23.33 50.964 50.964 50.964h410.071c28.147 0 50.964-23.33 50.964-50.964v-410.071c0-28.147-23.33-50.964-50.964-50.964h-410.071c-28.147 0-50.964 23.33-50.964 50.964v410.071z" />
<glyph unicode="&#xe911;" glyph-name="edit" d="M204.8 704v0l51.2 51.2v-614.4l-51.2 51.2h614.4l-51.2-51.2v614.4l51.2-51.2h-614.4zM204.8 755.2h614.4v-614.4h-614.4v614.4zM525.177 642.196l253.427 253.427 181.019-181.019-253.427-253.427-181.019 181.019zM426.6 445.903l-13.511-97.278 97.278 13.511 326.902 326.902-83.766 83.766-326.902-326.902zM805.652 824.955l-20.833-20.833 83.766-83.766 20.833 20.833-83.766 83.766z" />
<glyph unicode="&#xe912;" glyph-name="ichyperlink" d="M428.525 296.051v0 0c-11.088-11.087-29.273-11.087-40.298 0v0c-11.088 11.088-11.088 29.21 0 40.298l228.483 228.483c11.088 11.088 29.21 11.088 40.298 0 11.090-11.088 11.090-29.21 0-40.298l-228.483-228.484zM513.825 339.094l39.099 39.169c28.98-32.353 27.948-82.535-3.098-113.579l-130.102-130.104c-32.146-32.143-84.669-32.143-116.816 0l-73.999 73.999c-32.147 32.148-32.147 84.669 0 116.817l130.101 130.101c30.288 30.219 78.612 32.009 110.965 5.3l-39.512-39.512c-5.025 2.684-9.981 3.235-13.010 3.235-4.337 0-12.529-1.033-19.481-7.985l-130.101-130.102c-6.952-6.953-7.985-15.145-7.985-19.482s1.033-12.529 7.985-19.482l73.999-73.999c6.952-6.948 15.213-7.982 19.481-7.982 4.337 0 12.528 1.034 19.481 7.982l130.101 130.104c6.952 6.952 7.985 15.213 7.985 19.481 0 3.58-0.757 9.981-5.094 16.039zM824.556 653.335v0 0c33.382-33.306 33.382-87.911 0.072-121.288l-135.081-135.082c-32.305-32.305-84.336-33.306-117.928-3.216l40.596 40.596c6.29-4.503 12.937-5.289 16.653-5.289 4.503 0 13.008 1.072 20.227 8.291l135.080 135.082c7.219 7.219 8.294 15.796 8.294 20.227 0 4.503-1.075 13.008-8.294 20.227l-76.831 76.832c-7.219 7.219-15.795 8.291-20.224 8.291-4.506 0-13.010-1.072-20.229-8.291l-135.082-135.082c-7.219-7.219-8.291-15.796-8.291-20.227 0-3.074 0.572-8.22 3.359-13.509l-41.025-41.025c-27.731 33.663-25.873 83.837 5.503 115.213l135.082 135.082c33.378 33.378 87.91 33.378 121.288 0l76.831-76.832z" />
<glyph unicode="&#xe913;" glyph-name="icimage" d="M453.486 404.116l109.714 146.284 153.6-204.8h-409.6l102.4 102.4 43.886-43.884zM678.4 524.8c-21.207 0-38.4 17.192-38.4 38.4s17.193 38.4 38.4 38.4c21.207 0 38.4-17.192 38.4-38.4s-17.193-38.4-38.4-38.4zM204.8 652.926v-358.654c0-28.221 22.98-51.072 51.326-51.072h511.746c27.991 0 51.328 22.866 51.328 51.072v358.654c0 28.223-22.979 51.074-51.328 51.074h-511.746c-27.992 0-51.326-22.867-51.326-51.074zM256 652.8h512v-358.4h-512v358.4z" />
<glyph unicode="&#xe914;" glyph-name="iclabel" d="M204.8 652.32v-101.441c0-28.98 22.98-51.68 51.326-51.68h511.746c27.991 0 51.328 23.138 51.328 51.68v101.441c0 28.98-22.979 51.68-51.328 51.68h-511.746c-27.992 0-51.326-23.138-51.326-51.68zM204.8 396.319v-101.437c0-28.979 22.98-51.681 51.326-51.681h511.746c27.991 0 51.328 23.137 51.328 51.681v101.437c0 28.979-22.979 51.681-51.328 51.681h-511.746c-27.992 0-51.326-23.137-51.326-51.681zM256 396.8h512v-102.4h-512v102.4zM256 652.8h512v-102.4h-512v102.4z" />
<glyph unicode="&#xe915;" glyph-name="icformat" horiz-adv-x="990" d="M57.555 456.051v0 0c0 0 47.35-28.741 79.108-81.816 31.756-53.077 43.947-102.568 112.621-126.079 68.671-23.513 82.395-136.894 161.218-157.994 83.983-22.514 81.488-84.466 81.488-84.466l189.969 253.215-380.107 394.106-244.296-196.966zM735.677 551.393l64.986-67.361c29.999-31.036 29.999-81.524 0.058-112.56l-74.966-77.761-380.179 394.091 74.92 77.657c29.999 31.094 78.654 31.034 108.655-0.058l64.986-66.531c90.787 107.499 164.563 191.963 179.195 207.245 44.968 46.551 117.95 46.551 162.919-0.119 44.97-46.612 45.084-122.139 0-168.753-14.629-15.28-96.174-91.632-200.574-185.851zM816.887 774.889c14.682-14.682 38.919-14.247 54.139 0.973s15.657 39.46 0.975 54.142c-14.682 14.682-38.924 14.247-54.144-0.973s-15.652-39.46-0.97-54.142z" />
<glyph unicode="&#xe916;" glyph-name="icmarker" horiz-adv-x="883" d="M154.133 960v-587.483h309.749l83.915-85.974h258.952c42.048 0 76.009 34.117 76.009 76.203v435.080c0 42.076-34.237 76.2-76.468 76.2h-260.523l-80.267 85.974h-311.367zM0 960v-950.537c0-20.992 16.945-38.153 37.853-38.153h39.894c20.794 0 37.853 17.080 37.853 38.153v950.537h-115.599zM693.799 572.564l-76.472-41.115 14.604 87.079-61.867 61.67 85.497 12.705 38.238 79.226 38.234-79.226 85.5-12.705-61.867-61.67 14.604-87.079-76.472 41.115z" />
<glyph unicode="&#xe917;" glyph-name="icnote" horiz-adv-x="834" d="M585.523 960h-503.235c-45.359 0-82.288-36.693-82.288-81.954v-822.166c0-45.098 36.841-81.954 82.288-81.954h669.795c45.359 0 82.288 36.693 82.288 81.954v657.601h-248.847v246.519zM626.999 960l207.371-205.433h-207.371v205.433zM189.125 590.222h456.219v-61.63h-456.219v61.63zM189.125 415.604h456.12v-61.63h-456.12v61.63zM189.125 240.989h456.12v-61.63h-456.12v61.63z" />
<glyph unicode="&#xe918;" glyph-name="ictheme" horiz-adv-x="1365" d="M0 854.704v-764.645c0-58.261 46.953-105.296 104.867-105.296h1155.599c57.871 0 104.867 47.143 104.867 105.296v764.645c0 58.261-46.953 105.296-104.867 105.296h-1155.599c-57.871 0-104.867-47.143-104.867-105.296zM105.023 241.406h210.052v-102.658h-210.052v102.658zM420.103 241.406h210.052v-102.658h-210.052v102.658zM735.178 241.406h210.052v-102.658h-210.052v102.658zM1050.258 241.406h210.052v-102.658h-210.052v102.658zM489.101 806.015h76.829l158.852-403.134h-77.405l-38.702 106.715h-164.63l-38.697-106.715h-74.518l158.271 403.134zM1004.939 467.812c0-7.904 1.058-13.551 3.174-16.94 2.121-3.384 6.256-5.081 12.42-5.081h6.934c2.692 0 5.773 0.38 9.24 1.131v-44.603c-2.311-0.756-5.296-1.599-8.953-2.54s-7.412-1.79-11.264-2.545c-3.852-0.751-7.704-1.317-11.552-1.692-3.852-0.375-7.124-0.566-9.821-0.566-13.478 0-24.649 2.638-33.504 7.904-8.855 5.271-14.633 14.492-17.33 27.668-13.093-12.42-29.169-21.455-48.23-27.102-19.066-5.647-37.454-8.47-55.164-8.47-13.483 0-26.38 1.79-38.702 5.364-12.327 3.579-23.206 8.845-32.636 15.809-9.435 6.968-16.945 15.813-22.528 26.541-5.588 10.728-8.377 23.24-8.377 37.547 0 18.066 3.369 32.744 10.108 44.037s15.594 20.139 26.57 26.536c10.976 6.402 23.298 11.010 36.971 13.834 13.668 2.823 27.438 4.988 41.301 6.495 11.937 2.258 23.298 3.857 34.080 4.798s20.314 2.54 28.594 4.798c8.28 2.258 14.824 5.739 19.636 10.445 4.818 4.706 7.222 11.761 7.222 21.172 0 8.285-2.019 15.058-6.066 20.329-4.042 5.266-9.045 9.314-15.019 12.137-5.968 2.823-12.61 4.706-19.929 5.647-7.314 0.941-14.248 1.414-20.792 1.414-18.486 0-33.694-3.764-45.636-11.293-11.937-7.529-18.676-19.198-20.217-35.006h-65.848c1.156 18.817 5.773 34.441 13.863 46.86 8.085 12.425 18.388 22.396 30.9 29.925 12.517 7.529 26.668 12.8 42.457 15.809 15.789 3.013 31.963 4.52 48.523 4.52 14.633 0 29.077-1.507 43.325-4.52 14.248-3.009 27.053-7.904 38.41-14.677 11.362-6.778 20.509-15.526 27.438-26.253 6.934-10.728 10.401-23.81 10.401-39.244v-150.187zM463.687 563.234l62.386 173.334h1.731l61.811-173.334h-125.928zM939.086 549.118v-47.991c0-10.162-2.501-18.729-7.509-25.693s-11.264-12.702-18.773-17.218c-7.509-4.52-15.501-7.719-23.971-9.601-8.475-1.882-16.369-2.823-23.684-2.823-5.778 0-12.225 0.566-19.354 1.697-7.124 1.126-13.668 3.106-19.636 5.929-5.968 2.818-11.074 6.68-15.306 11.571-4.237 4.896-6.359 10.918-6.359 18.066 0 8.285 1.448 15.34 4.335 21.177 2.887 5.832 6.836 10.537 11.839 14.112 5.008 3.579 10.786 6.402 17.33 8.47 6.549 2.072 13.288 3.672 20.217 4.798 14.633 2.638 29.267 4.613 43.9 5.929 14.638 1.317 26.96 5.179 36.971 11.576z" />
</font>
</defs>
</svg>
