<?xml version="1.0" encoding="UTF-8"?>
<svg width="64px" height="64px" viewBox="0 0 64 64" version="1.1" xmlns="http://www.w3.org/2000/svg" xmlns:xlink="http://www.w3.org/1999/xlink">
    <!-- Generator: Sketch 46.2 (44496) - http://www.bohemiancoding.com/sketch -->
    <title>coffee</title>
    <desc>Created with Sketch.</desc>
    <defs>
        <path d="M45.6666667,20 L54.3333333,20 C55.2538079,20 56,20.7461921 56,21.6666667 L56,39.6666667 L56,39.6666667 C56,40.5871412 55.2538079,41.3333333 54.3333333,41.3333333 L45.6666667,41.3333333 C44.7461921,41.3333333 44,40.5871412 44,39.6666667 L44,21.6666667 L44,21.6666667 C44,20.7461921 44.7461921,20 45.6666667,20 L45.6666667,20 Z M44,24.9230769 L44,36.4102564 L50.8571429,36.4102564 L50.8571429,24.9230769 L44,24.9230769 Z" id="path-1"></path>
        <path d="M26.3124281,34.5508952 L7.02090522,34.5508952 C3.0357433,26.4844728 1.13038031,19.1144572 1.30481624,12.4408483 C1.47925218,5.76723947 2.02197243,1.65888052 2.93297698,0.115771484 L30.4003564,0.115771484 C31.3113609,1.65888052 31.8540812,5.76723947 32.0285171,12.4408483 C32.202953,19.1144572 30.29759,26.4844728 26.3124281,34.5508952 Z" id="path-2"></path>
        <rect id="path-4" x="-2.20275879" y="25.1748291" width="36.6666667" height="11.8787879"></rect>
        <ellipse id="path-5" cx="9.97560324" cy="9.98368329" rx="5.83333333" ry="7.31207691"></ellipse>
    </defs>
    <g id="Sticker-size-64*64" stroke="none" stroke-width="1" fill="none" fill-rule="evenodd">
        <g id="coffee">
            <g id="Combined-Shape">
                <use fill="#FFC55D" fill-rule="evenodd" xlink:href="#path-1"></use>
                <path stroke="#2B2B2B" stroke-width="1.66666667" d="M45.6666667,20.8333333 C45.2064294,20.8333333 44.8333333,21.2064294 44.8333333,21.6666667 L44.8333333,39.6666667 C44.8333333,40.126904 45.2064294,40.5 45.6666667,40.5 L54.3333333,40.5 C54.7935706,40.5 55.1666667,40.126904 55.1666667,39.6666667 L55.1666667,21.6666667 C55.1666667,21.2064294 54.7935706,20.8333333 54.3333333,20.8333333 L45.6666667,20.8333333 Z M43.1666667,24.0897436 L51.6904762,24.0897436 L51.6904762,37.2435897 L43.1666667,37.2435897 L43.1666667,24.0897436 Z"></path>
            </g>
            <g id="Rectangle-59" transform="translate(14.666667, 18.666667)">
                <mask id="mask-3" fill="white">
                    <use xlink:href="#path-2"></use>
                </mask>
                <g id="Combined-Shape">
                    <use fill="#FFC55D" fill-rule="evenodd" xlink:href="#path-2"></use>
                    <path stroke="#2B2B2B" stroke-width="1.66666667" d="M26.830211,35.3842285 L6.50312231,35.3842285 L6.27377757,34.9200086 C2.23248221,26.7399657 0.293484793,19.2398509 0.471767434,12.419074 C0.650295416,5.5889107 1.20266787,1.40748509 2.21536868,-0.307882589 L2.45723084,-0.717561849 L30.8761025,-0.717561849 L31.1179646,-0.307882589 C32.1306655,1.40748509 32.6830379,5.5889107 32.8615659,12.419074 C33.0398485,19.2398509 31.1008511,26.7399657 27.0595558,34.9200086 L26.830211,35.3842285 Z"></path>
                </g>
                <g id="Rectangle-60" mask="url(#mask-3)">
                    <use fill="#FFF9ED" fill-rule="evenodd" xlink:href="#path-4"></use>
                    <rect stroke="#2B2B2B" stroke-width="1.66666667" x="-1.36942546" y="26.0081625" width="35" height="10.2121212"></rect>
                </g>
                <rect id="Rectangle-2" fill="#2B2B2B" mask="url(#mask-3)" x="3.33333333" y="31.7590734" width="16.6666667" height="1.6969697"></rect>
                <rect id="Rectangle-3" fill="#2B2B2B" mask="url(#mask-3)" x="5" y="28.365134" width="23.3333333" height="1.6969697"></rect>
                <rect id="Rectangle-4" fill="#2B2B2B" mask="url(#mask-3)" x="21.6666667" y="31.7590734" width="8.33333333" height="1.6969697"></rect>
            </g>
            <path d="M24,12 C21.8456978,10.0858241 22.2004818,8.80458163 22.5632344,8.03778677 C22.925987,7.27099191 23.7151396,6.04478433 21.3333333,4" id="Path-36" stroke="#2B2B2B" stroke-width="1.66666667" stroke-linecap="round" transform="translate(22.666667, 8.000000) rotate(20.000000) translate(-22.666667, -8.000000) "></path>
            <path d="M33.3333333,12 C31.1790312,10.0858241 31.5338151,8.80458163 31.8965677,8.03778677 C32.2593203,7.27099191 33.048473,6.04478433 30.6666667,4" id="Path-36-Copy" stroke="#2B2B2B" stroke-width="1.66666667" stroke-linecap="round" transform="translate(32.000000, 8.000000) rotate(20.000000) translate(-32.000000, -8.000000) "></path>
            <path d="M41.3333333,12 C39.1790312,10.0858241 39.5338151,8.80458163 39.8965677,8.03778677 C40.2593203,7.27099191 41.048473,6.04478433 38.6666667,4" id="Path-36-Copy-2" stroke="#2B2B2B" stroke-width="1.66666667" stroke-linecap="round" transform="translate(40.000000, 8.000000) rotate(20.000000) translate(-40.000000, -8.000000) "></path>
            <g id="coffee-cup" transform="translate(21.333333, 21.333333)">
                <g id="Oval-33" transform="translate(9.975603, 9.983683) rotate(43.000000) translate(-9.975603, -9.983683) ">
                    <use fill="#A17B53" fill-rule="evenodd" xlink:href="#path-5"></use>
                    <ellipse stroke="#2B2B2B" stroke-width="1.66666667" cx="9.97560324" cy="9.98368329" rx="5" ry="6.47874358"></ellipse>
                </g>
                <path d="M7.29376694,15.0147425 C8.39197832,13.8470461 9.33149051,12.5373442 10.0860705,11.12271 C10.2124661,10.8857453 10.3337669,10.6457453 10.4550678,10.4055285 C10.7680217,9.78547425 11.0637398,9.1996748 11.4431436,8.67891599 C12.5361518,7.17831978 14.1396603,6.36326691 15.9921265,6.39719645 C15.7780343,5.87459483 15.4739693,5.39557044 15.0786305,4.97833466 C13.087953,5.21150539 11.4418428,6.1895935 10.257561,7.81517615 C9.80791328,8.43230352 9.47121951,9.09940379 9.14558266,9.74449864 C9.02937669,9.97463415 8.91306233,10.2050949 8.79186992,10.4323035 C8.09821138,11.7327913 7.23468835,12.9363686 6.22504065,14.0097561 C5.62612466,14.6465041 5.32184282,14.8589734 4.86850949,14.9279165 C4.92,14.9849355 4.97170732,15.0417376 5.02655827,15.0965886 C5.38189702,15.4519273 5.78590786,15.7370222 6.22504065,15.9546916 C6.83663957,15.5927403 7.0796748,15.2422764 7.29376694,15.0147425 Z" id="Shape" fill="#2B2B2B" fill-rule="nonzero"></path>
            </g>
            <rect id="Rectangle" x="0" y="0" width="64" height="64"></rect>
        </g>
    </g>
</svg>