<?xml version="1.0" encoding="UTF-8"?>
<svg width="64px" height="64px" viewBox="0 0 64 64" version="1.1" xmlns="http://www.w3.org/2000/svg" xmlns:xlink="http://www.w3.org/1999/xlink">
    <!-- Generator: Sketch 47 (45396) - http://www.bohemiancoding.com/sketch -->
    <title>shy</title>
    <desc>Created with Sketch.</desc>
    <defs></defs>
    <g id="Sticker-size-64*64" stroke="none" stroke-width="1" fill="none" fill-rule="evenodd">
        <g id="shy">
            <circle id="Oval-17" fill="#FBDC67" cx="32" cy="32" r="25"></circle>
            <path d="M7.32825656,36.0615544 C9.26843591,47.937035 19.5758335,57 32,57 C45.8071187,57 57,45.8071187 57,32 C57,29.1793298 56.5328672,26.4677644 55.6717434,23.9384456 C55.8877077,25.2603228 56,26.6170477 56,28 C56,41.8071187 44.8071187,53 31,53 C20.0135514,53 10.6823147,45.9131959 7.32825656,36.0615544 Z" id="Combined-Shape" fill="#F2CC5B"></path>
            <path d="M20.6114954,42.9081736 C23.7850336,44.8497512 27.7278573,46 32,46 C36.932206,46 41.4254694,44.4668569 44.8027634,41.952882" id="Oval-29" stroke="#4C4023" stroke-width="3" stroke-linecap="round"></path>
            <ellipse id="Oval-30" fill="#EB9E9E" opacity="0.5" cx="47" cy="33" rx="7" ry="4"></ellipse>
            <ellipse id="Oval-30-Copy" fill="#EB9E9E" opacity="0.5" cx="17" cy="34" rx="7" ry="4"></ellipse>
            <path d="M36,24.7980121 C38.9475098,22.7677386 42.5681152,21.6918109 47.2971191,25.8236468" id="Path-32" stroke="#4C4023" stroke-width="3" stroke-linecap="round"></path>
            <path d="M16.7000008,24.7980121 C19.6475105,22.7677386 23.268116,21.6918109 27.9971199,25.8236468" id="Path-32-Copy" stroke="#4C4023" stroke-width="3" stroke-linecap="round" transform="translate(22.348560, 24.411823) scale(-1, 1) translate(-22.348560, -24.411823) "></path>
        </g>
    </g>
</svg>