<?xml version="1.0" encoding="UTF-8"?>
<svg width="64px" height="64px" viewBox="0 0 64 64" version="1.1" xmlns="http://www.w3.org/2000/svg" xmlns:xlink="http://www.w3.org/1999/xlink">
    <!-- Generator: Sketch 46.2 (44496) - http://www.bohemiancoding.com/sketch -->
    <title>workcard</title>
    <desc>Created with Sketch.</desc>
    <defs>
        <rect id="path-1" x="0" y="10" width="53.3333333" height="36.6666667" rx="3.33333333"></rect>
        <rect id="path-2" x="7.5" y="17.5" width="16.6666667" height="21.6666667" rx="1.66666667"></rect>
        <path d="M23.3339175,-4.89255717e-15 L29.9995688,-4.89255717e-15 L29.9995688,-5.10702591e-15 C30.9200434,-5.27612079e-15 31.6662355,0.746192084 31.6662355,1.66666667 C31.6662355,1.73063874 31.6625523,1.79455775 31.6552042,1.8581064 L30.3061973,13.5247731 L30.3061973,13.5247731 C30.2089754,14.3655807 29.4969717,15 28.6505619,15 L24.6829244,15 L24.6829244,15 C23.8365146,15 23.1245109,14.3655807 23.027289,13.5247731 L21.6782821,1.8581064 L21.6782821,1.8581064 C21.5725528,0.943724217 22.2280956,0.116760506 23.1424778,0.0110312585 C23.2060264,0.00368318068 23.2699454,-5.53936508e-15 23.3339175,-5.55111512e-15 Z" id="path-3"></path>
    </defs>
    <g id="Sticker-size-64*64" stroke="none" stroke-width="1" fill="none" fill-rule="evenodd">
        <g id="workcard">
            <rect id="Rectangle" x="0" y="0" width="64" height="64"></rect>
            <g id="Group" transform="translate(5.333333, 5.333333)">
                <g id="Rectangle-90">
                    <use fill="#FFFFFF" fill-rule="evenodd" xlink:href="#path-1"></use>
                    <rect stroke="#2B2B2B" stroke-width="1.66666667" x="0.833333333" y="10.8333333" width="51.6666667" height="35" rx="3.33333333"></rect>
                </g>
                <rect id="Rectangle-90" fill="#E9F4F5" x="3.33333333" y="13.3333333" width="46.6666667" height="30" rx="1.66666667"></rect>
                <g id="Rectangle-91">
                    <use fill="#FFC55D" fill-rule="evenodd" xlink:href="#path-2"></use>
                    <rect stroke="#2B2B2B" stroke-width="1.66666667" x="8.33333333" y="18.3333333" width="15" height="20" rx="1.66666667"></rect>
                </g>
                <rect id="Rectangle-92" fill="#2B2B2B" x="28.3333333" y="21.6666667" width="20" height="1.66666667" rx="0.833333333"></rect>
                <rect id="Rectangle-92-Copy" fill="#2B2B2B" x="28.3333333" y="26.6666667" width="16.6666667" height="1.66666667" rx="0.833333333"></rect>
                <rect id="Rectangle-92-Copy-2" fill="#2B2B2B" x="28.3333333" y="31.6666667" width="11.6666667" height="1.66666667" rx="0.833333333"></rect>
                <g id="Rectangle-93">
                    <use fill="#E9F4F5" fill-rule="evenodd" xlink:href="#path-3"></use>
                    <path stroke="#2B2B2B" stroke-width="1.66666667" d="M23.3339175,0.833333333 C23.3019315,0.833333333 23.269972,0.835174924 23.2381976,0.838848963 C22.7810065,0.891713586 22.4532352,1.30519544 22.5060998,1.76238654 L23.8551067,13.4290532 C23.9037176,13.849457 24.2597195,14.1666667 24.6829244,14.1666667 L28.6505619,14.1666667 C29.0737668,14.1666667 29.4297687,13.849457 29.4783796,13.4290532 L30.8273865,1.76238654 C30.8310605,1.73061221 30.8329021,1.6986527 30.8329021,1.66666667 C30.8329021,1.20642938 30.4598061,0.833333333 29.9995688,0.833333333 L23.3339175,0.833333333 Z"></path>
                </g>
                <circle id="Oval-39" fill="#2B2B2B" cx="26.6666667" cy="10" r="1.66666667"></circle>
            </g>
            <path d="M16.014325,37.4530142 C16.014325,40.2574813 15.4978892,40.0175623 20.6666667,39.9646671 C25.8354442,39.9117719 25.3190083,40.5866298 25.3190083,37.7821627 C25.3190083,35.7282066 25.0468714,33.1312338 23.486389,32.3662794 C23.9985501,31.3645976 24.2549505,30.634078 24.2555901,30.1747206 C24.2562778,29.6808215 24.1227486,28.9399543 23.8550026,27.9521189 C23.0336724,27.0992895 22.0280421,26.6708152 20.8381117,26.6666961 C19.6481813,26.662577 18.642551,27.0910512 17.8212208,27.9521189 C17.6000331,28.8897236 17.4890604,29.6305908 17.4883027,30.1747206 C17.4876011,30.6786444 17.7252521,31.408348 18.2012558,32.3638314 C16.736634,33.1073681 16.014325,35.5625391 16.014325,37.4530142 Z" id="Combined-Shape" fill="#FFF9ED"></path>
            <path d="M17.7932729,38.3225972 C18.0752523,38.3283698 18.4179828,38.3273774 18.9614459,38.3204278 C18.8653798,38.3216562 20.2038972,38.302649 20.6496116,38.2980877 C21.2429194,38.292016 21.7945811,38.2946794 22.3780187,38.3042872 C22.6780419,38.3092278 23.5080357,38.3276153 23.6036716,38.3293082 C23.6225257,38.329642 23.641025,38.3299479 23.6591699,38.330228 C23.656014,38.0561373 23.6523417,37.8115948 23.6523417,37.7821627 C23.6523417,35.5773362 23.2683713,34.115552 22.7527844,33.8628094 L21.2307961,33.116725 L22.0024456,31.6075373 C22.4021704,30.8257578 22.5887555,30.2941513 22.588925,30.1724 C22.5892792,29.9180642 22.5161578,29.4643792 22.3640867,28.8434227 C21.9274738,28.4981395 21.434706,28.3354379 20.8323424,28.3333528 C20.2450028,28.3313196 19.7636969,28.4864676 19.3353724,28.8214051 C19.2142394,29.407647 19.1554028,29.8646485 19.1549678,30.1770413 C19.1547113,30.3612429 19.3228785,30.8775977 19.6930516,31.620647 L20.4306319,33.1011938 L18.9557104,33.8499593 C18.3209216,34.1722191 17.6809917,35.8317103 17.6809917,37.4530142 C17.6809917,37.4630577 17.6740167,37.9205386 17.6712448,38.3195128 C17.7101009,38.3206974 17.7507611,38.3217269 17.7932729,38.3225972 Z M23.486389,32.3662794 L23.5479075,32.3977339 C25.0540547,33.2001454 25.3190083,35.7554957 25.3190083,37.7821627 C25.3190083,40.5866298 25.8354442,39.9117719 20.6666667,39.9646671 C15.4978892,40.0175623 16.014325,40.2574813 16.014325,37.4530142 C16.014325,35.5625391 16.736634,33.1073681 18.2012558,32.3638314 C17.7252521,31.408348 17.4876011,30.6786444 17.4883027,30.1747206 C17.4890604,29.6305908 17.6000331,28.8897236 17.8212208,27.9521189 C18.642551,27.0910512 19.6481813,26.662577 20.8381117,26.6666961 C22.0280421,26.6708152 23.0336724,27.0992895 23.8550026,27.9521189 C24.1227486,28.9399543 24.2562778,29.6808215 24.2555901,30.1747206 C24.2550605,30.5550494 24.0792031,31.121264 23.7280179,31.8733643 L23.486389,32.3662794 Z" id="Combined-Shape" fill="#2B2B2B" fill-rule="nonzero"></path>
        </g>
    </g>
</svg>