<?xml version="1.0" encoding="UTF-8"?>
<svg width="64px" height="64px" viewBox="0 0 64 64" version="1.1" xmlns="http://www.w3.org/2000/svg" xmlns:xlink="http://www.w3.org/1999/xlink">
    <!-- Generator: Sketch 46.2 (44496) - http://www.bohemiancoding.com/sketch -->
    <title>sunny</title>
    <desc>Created with Sketch.</desc>
    <defs>
        <circle id="path-1" cx="20.3854167" cy="20.6041667" r="14.0625"></circle>
        <path d="M22.9304784,38.4260087 C27.882871,38.4260087 47.9335301,38.4260087 51.4656354,38.4260087 C52.9933446,34.5460038 50.4341405,31.2021928 46.4396947,31.2021928 C46.4396947,21.9013505 33.119077,18.6283403 29.9495213,28.4430986 C24.8958104,28.4430986 20.9712499,31.6697221 22.9304784,38.4260087 Z" id="path-2"></path>
    </defs>
    <g id="Sticker-size-64*64" stroke="none" stroke-width="1" fill="none" fill-rule="evenodd">
        <g id="sunny">
            <rect id="Rectangle" x="0" y="0" width="64" height="64"></rect>
            <g id="Group" transform="translate(5.333333, 9.333333)">
                <path d="M20.3854167,0.291666667 L20.3854167,0.291666667 C20.8168891,0.291666667 21.1666667,0.641444206 21.1666667,1.07291667 L21.1666667,4.19791667 C21.1666667,4.62938913 20.8168891,4.97916667 20.3854167,4.97916667 C19.9539442,4.97916667 19.6041667,4.62938913 19.6041667,4.19791667 L19.6041667,1.07291667 L19.6041667,1.07291667 C19.6041667,0.641444206 19.9539442,0.291666667 20.3854167,0.291666667 L20.3854167,0.291666667 Z M20.3854167,36.2291667 L20.3854167,36.2291667 C20.8168891,36.2291667 21.1666667,36.5789442 21.1666667,37.0104167 L21.1666667,40.1354167 C21.1666667,40.5668891 20.8168891,40.9166667 20.3854167,40.9166667 C19.9539442,40.9166667 19.6041667,40.5668891 19.6041667,40.1354167 L19.6041667,37.0104167 C19.6041667,36.5789442 19.9539442,36.2291667 20.3854167,36.2291667 L20.3854167,36.2291667 Z" id="Combined-Shape" fill="#2B2B2B" transform="translate(20.385417, 20.604167) rotate(60.000000) translate(-20.385417, -20.604167) "></path>
                <path d="M20.3854167,0.291666667 L20.3854167,0.291666667 C20.8168891,0.291666667 21.1666667,0.641444206 21.1666667,1.07291667 L21.1666667,4.19791667 C21.1666667,4.62938913 20.8168891,4.97916667 20.3854167,4.97916667 C19.9539442,4.97916667 19.6041667,4.62938913 19.6041667,4.19791667 L19.6041667,1.07291667 L19.6041667,1.07291667 C19.6041667,0.641444206 19.9539442,0.291666667 20.3854167,0.291666667 L20.3854167,0.291666667 Z M20.3854167,36.2291667 L20.3854167,36.2291667 C20.8168891,36.2291667 21.1666667,36.5789442 21.1666667,37.0104167 L21.1666667,40.1354167 C21.1666667,40.5668891 20.8168891,40.9166667 20.3854167,40.9166667 C19.9539442,40.9166667 19.6041667,40.5668891 19.6041667,40.1354167 L19.6041667,37.0104167 C19.6041667,36.5789442 19.9539442,36.2291667 20.3854167,36.2291667 L20.3854167,36.2291667 Z" id="Combined-Shape" fill="#2B2B2B" transform="translate(20.385417, 20.604167) rotate(120.000000) translate(-20.385417, -20.604167) "></path>
                <path d="M20.3854167,0.291666667 L20.3854167,0.291666667 C20.8168891,0.291666667 21.1666667,0.641444206 21.1666667,1.07291667 L21.1666667,4.19791667 C21.1666667,4.62938913 20.8168891,4.97916667 20.3854167,4.97916667 C19.9539442,4.97916667 19.6041667,4.62938913 19.6041667,4.19791667 L19.6041667,1.07291667 L19.6041667,1.07291667 C19.6041667,0.641444206 19.9539442,0.291666667 20.3854167,0.291666667 L20.3854167,0.291666667 Z M20.3854167,36.2291667 L20.3854167,36.2291667 C20.8168891,36.2291667 21.1666667,36.5789442 21.1666667,37.0104167 L21.1666667,40.1354167 C21.1666667,40.5668891 20.8168891,40.9166667 20.3854167,40.9166667 C19.9539442,40.9166667 19.6041667,40.5668891 19.6041667,40.1354167 L19.6041667,37.0104167 C19.6041667,36.5789442 19.9539442,36.2291667 20.3854167,36.2291667 L20.3854167,36.2291667 Z" id="Combined-Shape" fill="#2B2B2B" transform="translate(20.385417, 20.604167) rotate(180.000000) translate(-20.385417, -20.604167) "></path>
                <path d="M20.4433057,3.4428066 L20.4433057,3.4428066 C20.8747781,3.4428066 21.2245557,3.79258414 21.2245557,4.2240566 L21.2245557,15.1615566 C21.2245557,15.5930291 20.8747781,15.9428066 20.4433057,15.9428066 C20.0118332,15.9428066 19.6620557,15.5930291 19.6620557,15.1615566 L19.6620557,4.2240566 L19.6620557,4.2240566 C19.6620557,3.79258414 20.0118332,3.4428066 20.4433057,3.4428066 L20.4433057,3.4428066 Z M20.4433057,25.3178066 L20.4433057,25.3178066 C20.8747781,25.3178066 21.2245557,25.6675841 21.2245557,26.0990566 L21.2245557,37.0365566 C21.2245557,37.4680291 20.8747781,37.8178066 20.4433057,37.8178066 C20.0118332,37.8178066 19.6620557,37.4680291 19.6620557,37.0365566 L19.6620557,26.0990566 C19.6620557,25.6675841 20.0118332,25.3178066 20.4433057,25.3178066 L20.4433057,25.3178066 Z" id="Combined-Shape" fill="#2B2B2B" transform="translate(20.443306, 20.630307) rotate(90.000000) translate(-20.443306, -20.630307) "></path>
                <path d="M20.3854167,3.41666667 L20.3854167,3.41666667 C20.8168891,3.41666667 21.1666667,3.76644421 21.1666667,4.19791667 L21.1666667,15.1354167 C21.1666667,15.5668891 20.8168891,15.9166667 20.3854167,15.9166667 C19.9539442,15.9166667 19.6041667,15.5668891 19.6041667,15.1354167 L19.6041667,4.19791667 L19.6041667,4.19791667 C19.6041667,3.76644421 19.9539442,3.41666667 20.3854167,3.41666667 L20.3854167,3.41666667 Z M20.3854167,25.2916667 L20.3854167,25.2916667 C20.8168891,25.2916667 21.1666667,25.6414442 21.1666667,26.0729167 L21.1666667,37.0104167 C21.1666667,37.4418891 20.8168891,37.7916667 20.3854167,37.7916667 C19.9539442,37.7916667 19.6041667,37.4418891 19.6041667,37.0104167 L19.6041667,26.0729167 C19.6041667,25.6414442 19.9539442,25.2916667 20.3854167,25.2916667 L20.3854167,25.2916667 Z" id="Combined-Shape" fill="#2B2B2B" transform="translate(20.385417, 20.604167) rotate(150.000000) translate(-20.385417, -20.604167) "></path>
                <path d="M20.4433057,3.4428066 L20.4433057,3.4428066 C20.8747781,3.4428066 21.2245557,3.79258414 21.2245557,4.2240566 L21.2245557,15.1615566 C21.2245557,15.5930291 20.8747781,15.9428066 20.4433057,15.9428066 C20.0118332,15.9428066 19.6620557,15.5930291 19.6620557,15.1615566 L19.6620557,4.2240566 L19.6620557,4.2240566 C19.6620557,3.79258414 20.0118332,3.4428066 20.4433057,3.4428066 L20.4433057,3.4428066 Z M20.4433057,25.3178066 L20.4433057,25.3178066 C20.8747781,25.3178066 21.2245557,25.6675841 21.2245557,26.0990566 L21.2245557,37.0365566 C21.2245557,37.4680291 20.8747781,37.8178066 20.4433057,37.8178066 C20.0118332,37.8178066 19.6620557,37.4680291 19.6620557,37.0365566 L19.6620557,26.0990566 C19.6620557,25.6675841 20.0118332,25.3178066 20.4433057,25.3178066 L20.4433057,25.3178066 Z" id="Combined-Shape" fill="#2B2B2B" transform="translate(20.443306, 20.630307) rotate(210.000000) translate(-20.443306, -20.630307) "></path>
                <g id="Oval-18" transform="translate(20.385417, 20.604167) rotate(60.000000) translate(-20.385417, -20.604167) ">
                    <use fill="#FFFFFF" fill-rule="evenodd" xlink:href="#path-1"></use>
                    <circle stroke="#2B2B2B" stroke-width="1.5625" cx="20.3854167" cy="20.6041667" r="13.28125"></circle>
                </g>
                <circle id="Oval-18" fill="#FFC55D" transform="translate(20.385417, 20.604167) rotate(60.000000) translate(-20.385417, -20.604167) " cx="20.3854167" cy="20.6041667" r="10.9375"></circle>
                <g id="Path-26">
                    <use fill="#FFFFFF" fill-rule="evenodd" xlink:href="#path-2"></use>
                    <path stroke="#2B2B2B" stroke-width="1.5625" d="M23.5297705,37.6447587 C27.7383634,37.6447587 28.0704643,37.6447587 35.7051015,37.6447587 L36.9114856,37.6447587 L45.8794334,37.6447587 C49.1354994,37.6447587 49.4777667,37.6447587 50.9095127,37.6447587 C51.8205391,34.5705674 49.7939574,31.9834428 46.4396947,31.9834428 L45.6584447,31.9834428 L45.6584447,31.2021928 C45.6584447,22.4759398 33.4925062,20.0142067 30.6929661,28.6831849 L30.518204,29.2243486 L29.9495213,29.2243486 C24.9464167,29.2243486 22.2206917,32.3117778 23.5297705,37.6447587 Z"></path>
                </g>
            </g>
        </g>
    </g>
</svg>