<?xml version="1.0" encoding="UTF-8"?>
<svg width="64px" height="64px" viewBox="0 0 64 64" version="1.1" xmlns="http://www.w3.org/2000/svg" xmlns:xlink="http://www.w3.org/1999/xlink">
    <!-- Generator: Sketch 46.2 (44496) - http://www.bohemiancoding.com/sketch -->
    <title>skateboard</title>
    <desc>Created with Sketch.</desc>
    <defs>
        <rect id="path-1" x="0" y="0.776515152" width="56.9117647" height="15.530303" rx="7.76515152"></rect>
        <rect id="path-2" x="0" y="0" width="6.32352941" height="4.65909091" rx="1.5625"></rect>
        <rect id="path-3" x="0" y="12.4242424" width="6.32352941" height="4.65909091" rx="1.5625"></rect>
        <rect id="path-4" x="0" y="0" width="6.32352941" height="4.65909091" rx="1.5625"></rect>
        <rect id="path-5" x="0" y="12.4242424" width="6.32352941" height="4.65909091" rx="1.5625"></rect>
    </defs>
    <g id="Sticker-size-64*64" stroke="none" stroke-width="1" fill="none" fill-rule="evenodd">
        <g id="skateboard">
            <rect id="Rectangle" x="0" y="0" width="64" height="64"></rect>
            <g id="Group-5" transform="translate(5.333333, 4.000000)">
                <g id="Group-3" transform="translate(27.482632, 28.321803) rotate(45.000000) translate(-27.482632, -28.321803) translate(-1.184035, 18.321803)">
                    <rect id="Combined-Shape" fill="#F0ECFF" x="3.16176471" y="10.094697" width="50.5882353" height="9.31818182" rx="4.65909091"></rect>
                    <g id="Rectangle-39">
                        <use fill="#FFC55D" fill-rule="evenodd" xlink:href="#path-1"></use>
                        <rect stroke="#2B2B2B" stroke-width="1.5625" x="0.78125" y="1.55776515" width="55.3492647" height="13.967803" rx="6.98390152"></rect>
                    </g>
                    <g id="Group" transform="translate(13.121324, 0.000000)">
                        <g id="Rectangle">
                            <use fill="#FFFFFF" fill-rule="evenodd" xlink:href="#path-2"></use>
                            <rect stroke="#2B2B2B" stroke-width="1.5625" x="0.78125" y="0.78125" width="4.76102941" height="3.09659091" rx="1.54829545"></rect>
                        </g>
                        <rect id="Rectangle-2" fill="#2B2B2B" x="2.37132353" y="4.09945401" width="1.58088235" height="8.8063188"></rect>
                        <rect id="Rectangle-2" fill="#2B2B2B" transform="translate(3.161765, 8.541667) rotate(90.000000) translate(-3.161765, -8.541667) " x="2.37132353" y="6.21212121" width="1.58088235" height="4.65909091"></rect>
                        <g id="Rectangle-Copy">
                            <use fill="#FFFFFF" fill-rule="evenodd" xlink:href="#path-3"></use>
                            <rect stroke="#2B2B2B" stroke-width="1.5625" x="0.78125" y="13.2054924" width="4.76102941" height="3.09659091" rx="1.54829545"></rect>
                        </g>
                    </g>
                    <g id="Group" transform="translate(38.415441, 0.000000)">
                        <g id="Rectangle">
                            <use fill="#FFFFFF" fill-rule="evenodd" xlink:href="#path-4"></use>
                            <rect stroke="#2B2B2B" stroke-width="1.5625" x="0.78125" y="0.78125" width="4.76102941" height="3.09659091" rx="1.54829545"></rect>
                        </g>
                        <rect id="Rectangle-2" fill="#2B2B2B" x="2.37132353" y="4.09945401" width="1.58088235" height="8.8063188"></rect>
                        <rect id="Rectangle-2" fill="#2B2B2B" transform="translate(3.161765, 8.541667) rotate(90.000000) translate(-3.161765, -8.541667) " x="2.37132353" y="6.21212121" width="1.58088235" height="4.65909091"></rect>
                        <g id="Rectangle-Copy">
                            <use fill="#FFFFFF" fill-rule="evenodd" xlink:href="#path-5"></use>
                            <rect stroke="#2B2B2B" stroke-width="1.5625" x="0.78125" y="13.2054924" width="4.76102941" height="3.09659091" rx="1.54829545"></rect>
                        </g>
                    </g>
                </g>
                <g id="Group-4" transform="translate(4.584559, 34.102273)">
                    <path d="M12.6838235,7.90452992 L12.6838235,13.650742 L0.766070198,13.9169108 L1.44767133,1.07119658 C1.44767133,1.07119658 8.85558723,2.80500932 8.68777286,2.72462787 C8.5199585,2.64424642 9.49812945,7.06477125 9.49812945,7.06477125 L12.6838235,7.90452992 Z" id="Path-2" fill="#BDF3FB"></path>
                    <path d="M1.88077428,1.96876686 L1.93226228,13.1584325 C8.40250215,13.1733671 13.7912601,13.1883019 18.0985774,13.2032371 C17.2855707,9.84641538 14.2783339,8.31056998 11.522383,8.53293472 C10.4705033,8.61780595 9.65357599,8.29271052 9.11427422,7.65099421 C8.75279693,7.22087162 8.58006906,6.75944579 8.47886112,6.22241783 C8.41489737,5.88301439 8.35089751,4.93627799 8.27775405,3.30205397 L1.88077428,1.96876686 Z M9.80999254,2.02957762 L9.83534752,2.63365542 C9.91492755,4.52963532 9.98653823,5.66867596 10.0374724,5.93894186 C10.1787071,6.68835961 10.4861043,7.05413217 11.3926321,6.9809887 C15.1359564,6.67895744 19.2450451,8.96075889 19.8285719,13.8953153 L19.9316463,14.7669575 L19.038411,14.7637398 C14.4169982,14.747092 8.4513228,14.7304437 1.14144201,14.7137953 L0.354296632,14.7120025 L0.286806721,0.0447126666 L9.80999254,2.02957762 Z" id="Path-2" fill="#2B2B2B" fill-rule="nonzero"></path>
                    <rect id="Rectangle-40" fill="#2B2B2B" x="6.36029412" y="4.65909091" width="2.37132353" height="1.5530303"></rect>
                    <rect id="Rectangle-40-Copy-3" fill="#2B2B2B" transform="translate(8.717453, 8.339955) rotate(-41.000000) translate(-8.717453, -8.339955) " x="7.53179113" y="7.5634402" width="2.37132353" height="1.5530303"></rect>
                    <rect id="Rectangle-40-Copy" fill="#2B2B2B" transform="translate(11.893382, 9.551136) rotate(90.000000) translate(-11.893382, -9.551136) " x="10.7077206" y="8.77462121" width="2.37132353" height="1.5530303"></rect>
                </g>
            </g>
        </g>
    </g>
</svg>