<?xml version="1.0" encoding="UTF-8"?>
<svg width="64px" height="64px" viewBox="0 0 64 64" version="1.1" xmlns="http://www.w3.org/2000/svg" xmlns:xlink="http://www.w3.org/1999/xlink">
    <!-- Generator: Sketch 46.2 (44496) - http://www.bohemiancoding.com/sketch -->
    <title>triangle</title>
    <desc>Created with Sketch.</desc>
    <defs>
        <polygon id="path-1" points="19.4645805 40.0067635 13.2043878 32.7556126 13.2043878 40.0067635"></polygon>
    </defs>
    <g id="Sticker-size-64*64" stroke="none" stroke-width="1" fill="none" fill-rule="evenodd">
        <g id="triangle">
            <rect id="Rectangle" x="0" y="0" width="64" height="64"></rect>
            <g id="set-square" transform="translate(10.666667, 5.333333)">
                <path d="M1.36068027,49.8744864 C1.36068027,50.8370183 2.16102041,51.6125077 3.13292517,51.6125077 L45.1627211,51.6125077 C45.2579365,51.519131 45.2485034,51.50034 45.2293424,51.4724426 L1.50365079,1.22752464 C1.37984127,1.21812915 1.36068027,1.23677559 1.36068027,1.2836085 L1.36068027,49.8744864 Z" id="Shape" stroke="#2B2B2B" stroke-width="1.66666667" fill="#FFC55D" fill-rule="nonzero"></path>
                <g id="Group" transform="translate(22.850823, 48.186214) scale(-1, 1) rotate(-270.000000) translate(-22.850823, -48.186214) translate(19.739712, 34.963992)" fill="#2B2B2B">
                    <path d="M0.979423868,0 L5.83333333,0 L5.83333333,1.95884774 L0.979423868,1.95884774 L0.979423868,1.95884774 C0.438503002,1.95884774 6.62437007e-17,1.52034473 0,0.979423868 L0,0.979423868 L0,0.979423868 C-6.62437007e-17,0.438503002 0.438503002,-1.16567514e-17 0.979423868,-1.11022302e-16 Z" id="Rectangle-65"></path>
                    <path d="M0.979423868,15.6707819 L5.83333333,15.6707819 L5.83333333,17.6296296 L0.979423868,17.6296296 L0.979423868,17.6296296 C0.438503002,17.6296296 6.62437007e-17,17.1911266 0,16.6502058 L0,16.6502058 L0,16.6502058 C-6.62437007e-17,16.1092849 0.438503002,15.6707819 0.979423868,15.6707819 Z" id="Rectangle-65-Copy-4"></path>
                    <path d="M2.92386831,3.91769547 L5.83333333,3.91769547 L5.83333333,5.87654321 L2.92386831,5.87654321 L2.92386831,5.87654321 C2.38294745,5.87654321 1.94444444,5.43804021 1.94444444,4.89711934 L1.94444444,4.89711934 L1.94444444,4.89711934 C1.94444444,4.35619848 2.38294745,3.91769547 2.92386831,3.91769547 Z" id="Rectangle-65-Copy"></path>
                    <path d="M2.92386831,19.5884774 L5.83333333,19.5884774 L5.83333333,21.5473251 L2.92386831,21.5473251 L2.92386831,21.5473251 C2.38294745,21.5473251 1.94444444,21.1088221 1.94444444,20.5679012 L1.94444444,20.5679012 L1.94444444,20.5679012 C1.94444444,20.0269804 2.38294745,19.5884774 2.92386831,19.5884774 Z" id="Rectangle-65-Copy-6"></path>
                    <path d="M2.92386831,7.83539095 L5.83333333,7.83539095 L5.83333333,9.79423868 L2.92386831,9.79423868 L2.92386831,9.79423868 C2.38294745,9.79423868 1.94444444,9.35573568 1.94444444,8.81481481 L1.94444444,8.81481481 L1.94444444,8.81481481 C1.94444444,8.27389395 2.38294745,7.83539095 2.92386831,7.83539095 Z" id="Rectangle-65-Copy-2"></path>
                    <path d="M2.92386831,23.5061728 L5.83333333,23.5061728 L5.83333333,25.4650206 L2.92386831,25.4650206 L2.92386831,25.4650206 C2.38294745,25.4650206 1.94444444,25.0265176 1.94444444,24.4855967 L1.94444444,24.4855967 L1.94444444,24.4855967 C1.94444444,23.9446758 2.38294745,23.5061728 2.92386831,23.5061728 Z" id="Rectangle-65-Copy-7"></path>
                    <path d="M2.92386831,11.7530864 L5.83333333,11.7530864 L5.83333333,13.7119342 L2.92386831,13.7119342 L2.92386831,13.7119342 C2.38294745,13.7119342 1.94444444,13.2734312 1.94444444,12.7325103 L1.94444444,12.7325103 L1.94444444,12.7325103 C1.94444444,12.1915894 2.38294745,11.7530864 2.92386831,11.7530864 Z" id="Rectangle-65-Copy-3"></path>
                </g>
                <g id="Group" transform="translate(4.666667, 30.823045) scale(-1, 1) translate(-4.666667, -30.823045) translate(1.555556, 13.711934)" fill="#2B2B2B">
                    <path d="M0.979423868,0 L5.83333333,0 L5.83333333,1.95884774 L0.979423868,1.95884774 L0.979423868,1.95884774 C0.438503002,1.95884774 6.62437007e-17,1.52034473 0,0.979423868 L0,0.979423868 L0,0.979423868 C-6.62437007e-17,0.438503002 0.438503002,9.93655511e-17 0.979423868,0 Z" id="Rectangle-65"></path>
                    <path d="M0.979423868,31.3415638 L5.83333333,31.3415638 L5.83333333,33.3004115 L0.979423868,33.3004115 L0.979423868,33.3004115 C0.438503002,33.3004115 6.62437007e-17,32.8619085 0,32.3209877 L0,32.3209877 L0,32.3209877 C-6.62437007e-17,31.7800668 0.438503002,31.3415638 0.979423868,31.3415638 Z" id="Rectangle-65-Copy-5"></path>
                    <path d="M0.979423868,15.6707819 L5.83333333,15.6707819 L5.83333333,17.6296296 L0.979423868,17.6296296 L0.979423868,17.6296296 C0.438503002,17.6296296 6.62437007e-17,17.1911266 0,16.6502058 L0,16.6502058 L0,16.6502058 C-6.62437007e-17,16.1092849 0.438503002,15.6707819 0.979423868,15.6707819 Z" id="Rectangle-65-Copy-4"></path>
                    <path d="M2.92386831,3.91769547 L5.83333333,3.91769547 L5.83333333,5.87654321 L2.92386831,5.87654321 L2.92386831,5.87654321 C2.38294745,5.87654321 1.94444444,5.43804021 1.94444444,4.89711934 L1.94444444,4.89711934 L1.94444444,4.89711934 C1.94444444,4.35619848 2.38294745,3.91769547 2.92386831,3.91769547 Z" id="Rectangle-65-Copy"></path>
                    <path d="M2.92386831,19.5884774 L5.83333333,19.5884774 L5.83333333,21.5473251 L2.92386831,21.5473251 L2.92386831,21.5473251 C2.38294745,21.5473251 1.94444444,21.1088221 1.94444444,20.5679012 L1.94444444,20.5679012 L1.94444444,20.5679012 C1.94444444,20.0269804 2.38294745,19.5884774 2.92386831,19.5884774 Z" id="Rectangle-65-Copy-6"></path>
                    <path d="M2.92386831,7.83539095 L5.83333333,7.83539095 L5.83333333,9.79423868 L2.92386831,9.79423868 L2.92386831,9.79423868 C2.38294745,9.79423868 1.94444444,9.35573568 1.94444444,8.81481481 L1.94444444,8.81481481 L1.94444444,8.81481481 C1.94444444,8.27389395 2.38294745,7.83539095 2.92386831,7.83539095 Z" id="Rectangle-65-Copy-2"></path>
                    <path d="M2.92386831,23.5061728 L5.83333333,23.5061728 L5.83333333,25.4650206 L2.92386831,25.4650206 L2.92386831,25.4650206 C2.38294745,25.4650206 1.94444444,25.0265176 1.94444444,24.4855967 L1.94444444,24.4855967 L1.94444444,24.4855967 C1.94444444,23.9446758 2.38294745,23.5061728 2.92386831,23.5061728 Z" id="Rectangle-65-Copy-7"></path>
                    <path d="M2.92386831,11.7530864 L5.83333333,11.7530864 L5.83333333,13.7119342 L2.92386831,13.7119342 L2.92386831,13.7119342 C2.38294745,13.7119342 1.94444444,13.2734312 1.94444444,12.7325103 L1.94444444,12.7325103 L1.94444444,12.7325103 C1.94444444,12.1915894 2.38294745,11.7530864 2.92386831,11.7530864 Z" id="Rectangle-65-Copy-3"></path>
                    <path d="M2.92386831,27.4238683 L5.83333333,27.4238683 L5.83333333,29.382716 L2.92386831,29.382716 L2.92386831,29.382716 C2.38294745,29.382716 1.94444444,28.944213 1.94444444,28.4032922 L1.94444444,28.4032922 L1.94444444,28.4032922 C1.94444444,27.8623713 2.38294745,27.4238683 2.92386831,27.4238683 Z" id="Rectangle-65-Copy-8"></path>
                </g>
                <g id="Shape" fill-rule="nonzero">
                    <use fill="#FFFFFF" fill-rule="evenodd" xlink:href="#path-1"></use>
                    <path stroke="#2B2B2B" stroke-width="1.66666667" d="M21.2849602,40.8400968 L12.3710544,40.8400968 L12.3710544,30.515163 L21.2849602,40.8400968 Z"></path>
                </g>
            </g>
        </g>
    </g>
</svg>