<?xml version="1.0" encoding="UTF-8"?>
<svg width="64px" height="64px" viewBox="0 0 64 64" version="1.1" xmlns="http://www.w3.org/2000/svg" xmlns:xlink="http://www.w3.org/1999/xlink">
    <!-- Generator: Sketch 46.2 (44496) - http://www.bohemiancoding.com/sketch -->
    <title>printer</title>
    <desc>Created with Sketch.</desc>
    <defs>
        <rect id="path-1" x="17.3333333" y="13.3333333" width="30.6666667" height="13.3333333" rx="3.33333333"></rect>
        <rect id="path-2" x="10.6666667" y="22.6666667" width="44" height="24" rx="3.33333333"></rect>
        <rect id="path-3" x="20" y="6.66666667" width="24" height="17.3333333"></rect>
        <rect id="path-4" x="17.3333333" y="37.3333333" width="30.6666667" height="8"></rect>
        <rect id="path-5" x="20" y="37.3333333" width="24" height="14.6666667"></rect>
        <path d="M14,22.6666667 L51.3333333,22.6666667 L51.3333333,22.6666667 C53.1742825,22.6666667 54.6666667,24.1590508 54.6666667,26 L54.6666667,34.6666667 L10.6666667,34.6666667 L10.6666667,26 L10.6666667,26 C10.6666667,24.1590508 12.1590508,22.6666667 14,22.6666667 Z" id="path-6"></path>
    </defs>
    <g id="Sticker-size-64*64" stroke="none" stroke-width="1" fill="none" fill-rule="evenodd">
        <g id="printer">
            <g id="Rectangle-99">
                <use fill="#BDCFD1" fill-rule="evenodd" xlink:href="#path-1"></use>
                <rect stroke="#2B2B2B" stroke-width="1.66666667" x="18.1666667" y="14.1666667" width="29" height="11.6666667" rx="3.33333333"></rect>
            </g>
            <g id="Rectangle-98">
                <use fill="#BDCFD1" fill-rule="evenodd" xlink:href="#path-2"></use>
                <rect stroke="#2B2B2B" stroke-width="1.66666667" x="11.5" y="23.5" width="42.3333333" height="22.3333333" rx="3.33333333"></rect>
            </g>
            <g id="Rectangle-100">
                <use fill="#FFFFFF" fill-rule="evenodd" xlink:href="#path-3"></use>
                <rect stroke="#2B2B2B" stroke-width="1.66666667" x="20.8333333" y="7.5" width="22.3333333" height="15.6666667"></rect>
            </g>
            <rect id="Rectangle" fill="#BDCFD1" x="25.3333333" y="12" width="13.3333333" height="1.33333333" rx="0.666666667"></rect>
            <rect id="Rectangle-Copy" fill="#BDCFD1" x="25.3333333" y="16" width="6.66666667" height="1.33333333" rx="0.666666667"></rect>
            <g id="Rectangle-101">
                <use fill="#8BAEB2" fill-rule="evenodd" xlink:href="#path-4"></use>
                <rect stroke="#2B2B2B" stroke-width="1.66666667" x="18.1666667" y="38.1666667" width="29" height="6.33333333"></rect>
            </g>
            <g id="Rectangle-100-Copy">
                <use fill="#FFFFFF" fill-rule="evenodd" xlink:href="#path-5"></use>
                <rect stroke="#2B2B2B" stroke-width="1.66666667" x="20.8333333" y="38.1666667" width="22.3333333" height="13"></rect>
            </g>
            <g id="Rectangle-102">
                <use fill="#07EBF5" fill-rule="evenodd" xlink:href="#path-6"></use>
                <path stroke="#2B2B2B" stroke-width="1.66666667" d="M11.5,33.8333333 L53.8333333,33.8333333 L53.8333333,26 C53.8333333,24.6192881 52.7140452,23.5 51.3333333,23.5 L14,23.5 C12.6192881,23.5 11.5,24.6192881 11.5,26 L11.5,33.8333333 Z"></path>
            </g>
            <circle id="Oval-42" fill="#2B2B2B" cx="40.6666667" cy="27.3333333" r="2"></circle>
            <circle id="Oval-42-Copy" fill="#2B2B2B" cx="46" cy="27.3333333" r="2"></circle>
            <rect id="Rectangle-Copy-3" fill="#BDCFD1" x="25.3333333" y="42.6666667" width="13.3333333" height="1.33333333" rx="0.666666667"></rect>
            <rect id="Rectangle-Copy-4" fill="#BDCFD1" x="25.3333333" y="45.3333333" width="13.3333333" height="1.33333333" rx="0.666666667"></rect>
            <rect id="Rectangle" x="0" y="0" width="64" height="64"></rect>
        </g>
    </g>
</svg>