<?xml version="1.0" encoding="UTF-8"?>
<svg width="64px" height="64px" viewBox="0 0 64 64" version="1.1" xmlns="http://www.w3.org/2000/svg" xmlns:xlink="http://www.w3.org/1999/xlink">
    <!-- Generator: Sketch 47 (45396) - http://www.bohemiancoding.com/sketch -->
    <title>laugh</title>
    <desc>Created with Sketch.</desc>
    <defs></defs>
    <g id="Sticker-size-64*64" stroke="none" stroke-width="1" fill="none" fill-rule="evenodd">
        <g id="laugh">
            <circle id="Oval-17" fill="#FBDC67" cx="32" cy="32" r="25"></circle>
            <path d="M7.32825656,36.0615544 C9.26843591,47.937035 19.5758335,57 32,57 C45.8071187,57 57,45.8071187 57,32 C57,29.1793298 56.5328672,26.4677644 55.6717434,23.9384456 C55.8877077,25.2603228 56,26.6170477 56,28 C56,41.8071187 44.8071187,53 31,53 C20.0135514,53 10.6823147,45.9131959 7.32825656,36.0615544 Z" id="Combined-Shape" fill="#F2CC5B"></path>
            <path d="M31.7058824,45.8235294 C38.855636,45.8235294 44.7640267,40.5086231 45.6956464,33.6142185 C45.7799782,32.9901255 45.6956464,31.7058824 44.0726103,31.7058824 C38.2144234,31.7058824 26.0042854,31.7058824 19.3333381,31.7058824 C17.709248,31.7058824 17.6294223,32.9550525 17.709248,33.5626597 C18.6183058,40.4821073 24.5383161,45.8235294 31.7058824,45.8235294 Z" id="Oval-2" fill="#4C4023"></path>
            <path d="M40.1774628,43.0002886 C38.2457451,40.428355 35.1700967,38.7647059 31.7058824,38.7647059 C28.241668,38.7647059 25.1660196,40.428355 23.2343019,43.0002886 C25.593984,44.7730378 28.5272554,45.8235294 31.7058824,45.8235294 C34.8845093,45.8235294 37.8177807,44.7730378 40.1774628,43.0002886 Z" id="Combined-Shape" fill="#E74643"></path>
            <path d="M37,25.448649 C37.7105713,23.7028302 39.1364746,21.0352277 42.49646,21.0003156 C45.8564453,20.9654034 47.6326904,23.8357648 47.9929199,25.448649" id="Path-33" stroke="#4C4023" stroke-width="3" stroke-linecap="round"></path>
            <path d="M16,25.448649 C16.7105713,23.7028302 18.1364746,21.0352277 21.49646,21.0003156 C24.8564453,20.9654034 26.6326904,23.8357648 26.9929199,25.448649" id="Path-33-Copy" stroke="#4C4023" stroke-width="3" stroke-linecap="round"></path>
        </g>
    </g>
</svg>