<?xml version="1.0" encoding="UTF-8"?>
<svg width="64px" height="64px" viewBox="0 0 64 64" version="1.1" xmlns="http://www.w3.org/2000/svg" xmlns:xlink="http://www.w3.org/1999/xlink">
    <!-- Generator: Sketch 46.2 (44496) - http://www.bohemiancoding.com/sketch -->
    <title>pen</title>
    <desc>Created with Sketch.</desc>
    <defs>
        <path d="M22.1866667,6.94797897 L26.3913443,1.68102974 L26.3913443,1.68102974 C26.9830225,0.939869658 28.0635015,0.818690677 28.8046615,1.41036891 C28.9046867,1.49022039 28.9954709,1.58100454 29.0753224,1.68102974 L33.28,6.94797897 L33.28,41.8989899 L33.28,41.8989899 C33.28,43.7957254 31.7423921,45.3333333 29.8456566,45.3333333 L25.6210101,45.3333333 L25.6210101,45.3333333 C23.7242746,45.3333333 22.1866667,43.7957254 22.1866667,41.8989899 L22.1866667,6.94797897 Z" id="path-1"></path>
        <path d="M22.1866667,37.0909091 L33.28,37.0909091 L33.28,41.8989899 L33.28,41.8989899 C33.28,43.7957254 31.7423921,45.3333333 29.8456566,45.3333333 L25.6210101,45.3333333 L25.6210101,45.3333333 C23.7242746,45.3333333 22.1866667,43.7957254 22.1866667,41.8989899 L22.1866667,37.0909091 Z" id="path-2"></path>
        <path d="M22.1866667,6.68391383 L26.4119065,1.59236229 L26.4119065,1.59236229 C27.0175365,0.862558423 28.1001196,0.761895621 28.8299235,1.36752563 C28.9116615,1.43535615 28.9869296,1.5106243 29.0547601,1.59236229 L33.28,6.68391383 L33.28,8.24242424 L22.1866667,8.24242424 L22.1866667,6.68391383 Z" id="path-3"></path>
        <rect id="path-4" x="20.8" y="34.3434343" width="13.8666667" height="5.49494949" rx="1.71717172"></rect>
    </defs>
    <g id="Sticker-size-64*64" stroke="none" stroke-width="1" fill="none" fill-rule="evenodd">
        <g id="pen">
            <rect id="Rectangle" x="0" y="0" width="64" height="64"></rect>
            <g id="Group-2" transform="translate(17.333333, 9.333333)">
                <path d="M1.10930473,43.959596 L9.9840286,43.959596 C10.6496496,43.959596 11.0933333,43.5336953 11.0933333,42.8949815 L11.0933333,2.43835182 C11.0933333,1.79954655 10.6495542,1.37373737 9.9840286,1.37373737 L1.10930473,1.37373737 C0.44368376,1.37373737 0,1.79963805 0,2.43835182 L0,42.8949815 C-1.35477556e-15,43.5337868 0.44368376,43.959596 1.10930473,43.959596 Z" id="Shape" stroke="#2B2B2B" stroke-width="1.71717172" fill="#BDF3FB" fill-rule="nonzero"></path>
                <ellipse id="Oval" fill="#2B2B2B" fill-rule="nonzero" cx="5.54666667" cy="5.49494949" rx="1.38666667" ry="1.37373737"></ellipse>
                <g id="Group" transform="translate(2.773333, 9.616162)" fill="#2B2B2B">
                    <path d="M0.848484848,0 L6.93333333,0 L6.93333333,1.6969697 L0.848484848,1.6969697 L0.848484848,1.6969697 C0.379879606,1.6969697 2.65490123e-16,1.31709009 0,0.848484848 L0,0.848484848 L0,0.848484848 C-2.65490123e-16,0.379879606 0.379879606,-1.35963218e-16 0.848484848,-2.22044605e-16 Z" id="Rectangle-65"></path>
                    <path d="M0.848484848,27.1515152 L6.93333333,27.1515152 L6.93333333,28.8484848 L0.848484848,28.8484848 L0.848484848,28.8484848 C0.379879606,28.8484848 5.7387591e-17,28.4686052 0,28 L0,28 L0,28 C-5.7387591e-17,27.5313948 0.379879606,27.1515152 0.848484848,27.1515152 Z" id="Rectangle-65-Copy-5"></path>
                    <path d="M0.848484848,13.5757576 L6.93333333,13.5757576 L6.93333333,15.2727273 L0.848484848,15.2727273 L0.848484848,15.2727273 C0.379879606,15.2727273 5.7387591e-17,14.8928477 0,14.4242424 L0,14.4242424 L0,14.4242424 C-5.7387591e-17,13.9556372 0.379879606,13.5757576 0.848484848,13.5757576 Z" id="Rectangle-65-Copy-4"></path>
                    <path d="M4.31515152,3.39393939 L6.93333333,3.39393939 L6.93333333,5.09090909 L4.31515152,5.09090909 L4.31515152,5.09090909 C3.84654627,5.09090909 3.46666667,4.71102948 3.46666667,4.24242424 L3.46666667,4.24242424 L3.46666667,4.24242424 C3.46666667,3.773819 3.84654627,3.39393939 4.31515152,3.39393939 Z" id="Rectangle-65-Copy"></path>
                    <path d="M4.31515152,16.969697 L6.93333333,16.969697 L6.93333333,18.6666667 L4.31515152,18.6666667 L4.31515152,18.6666667 C3.84654627,18.6666667 3.46666667,18.2867871 3.46666667,17.8181818 L3.46666667,17.8181818 L3.46666667,17.8181818 C3.46666667,17.3495766 3.84654627,16.969697 4.31515152,16.969697 Z" id="Rectangle-65-Copy-6"></path>
                    <path d="M4.31515152,6.78787879 L6.93333333,6.78787879 L6.93333333,8.48484848 L4.31515152,8.48484848 L4.31515152,8.48484848 C3.84654627,8.48484848 3.46666667,8.10496888 3.46666667,7.63636364 L3.46666667,7.63636364 L3.46666667,7.63636364 C3.46666667,7.16775839 3.84654627,6.78787879 4.31515152,6.78787879 Z" id="Rectangle-65-Copy-2"></path>
                    <path d="M4.31515152,20.3636364 L6.93333333,20.3636364 L6.93333333,22.0606061 L4.31515152,22.0606061 L4.31515152,22.0606061 C3.84654627,22.0606061 3.46666667,21.6807265 3.46666667,21.2121212 L3.46666667,21.2121212 L3.46666667,21.2121212 C3.46666667,20.743516 3.84654627,20.3636364 4.31515152,20.3636364 Z" id="Rectangle-65-Copy-7"></path>
                    <path d="M4.31515152,10.1818182 L6.93333333,10.1818182 L6.93333333,11.8787879 L4.31515152,11.8787879 L4.31515152,11.8787879 C3.84654627,11.8787879 3.46666667,11.4989083 3.46666667,11.030303 L3.46666667,11.030303 L3.46666667,11.030303 C3.46666667,10.5616978 3.84654627,10.1818182 4.31515152,10.1818182 Z" id="Rectangle-65-Copy-3"></path>
                    <path d="M4.31515152,23.7575758 L6.93333333,23.7575758 L6.93333333,25.4545455 L4.31515152,25.4545455 L4.31515152,25.4545455 C3.84654627,25.4545455 3.46666667,25.0746658 3.46666667,24.6060606 L3.46666667,24.6060606 L3.46666667,24.6060606 C3.46666667,24.1374554 3.84654627,23.7575758 4.31515152,23.7575758 Z" id="Rectangle-65-Copy-8"></path>
                </g>
                <g id="Rectangle-66">
                    <use fill="#FFC55D" fill-rule="evenodd" xlink:href="#path-1"></use>
                    <path stroke="#2B2B2B" stroke-width="1.71717172" d="M23.0452525,7.24865858 L23.0452525,41.8989899 C23.0452525,43.3215415 24.1984585,44.4747475 25.6210101,44.4747475 L29.8456566,44.4747475 C31.2682082,44.4747475 32.4214141,43.3215415 32.4214141,41.8989899 L32.4214141,7.24865858 L28.4043279,2.21669384 C28.3644021,2.16668124 28.31901,2.12128917 28.2689974,2.08136343 C27.8984174,1.78552431 27.3581779,1.8461138 27.0623388,2.21669384 L23.0452525,7.24865858 Z"></path>
                    <path stroke="#FFFFFF" stroke-width="1.71717172" d="M21.3280808,6.64729937 L25.7203498,1.14536563 C26.6078671,0.0336255139 28.2285855,-0.148142957 29.3403256,0.73937439 C29.4903634,0.859151617 29.6265397,0.995327834 29.7463169,1.14536563 L34.1385859,6.64729937 L34.1385859,41.8989899 C34.1385859,44.2699093 32.2165759,46.1919192 29.8456566,46.1919192 L25.6210101,46.1919192 C23.2500907,46.1919192 21.3280808,44.2699093 21.3280808,41.8989899 L21.3280808,6.64729937 Z"></path>
                </g>
                <g id="Rectangle-66">
                    <use fill="#ED6969" fill-rule="evenodd" xlink:href="#path-2"></use>
                    <path stroke="#2B2B2B" stroke-width="1.71717172" d="M23.0452525,37.9494949 L23.0452525,41.8989899 C23.0452525,43.3215415 24.1984585,44.4747475 25.6210101,44.4747475 L29.8456566,44.4747475 C31.2682082,44.4747475 32.4214141,43.3215415 32.4214141,41.8989899 L32.4214141,37.9494949 L23.0452525,37.9494949 Z"></path>
                </g>
                <g id="Rectangle-66">
                    <use fill="#EFC9AE" fill-rule="evenodd" xlink:href="#path-3"></use>
                    <path stroke="#2B2B2B" stroke-width="1.71717172" d="M23.0452525,6.99376614 L23.0452525,7.38383838 L32.4214141,7.38383838 L32.4214141,6.99376614 L28.3940467,2.14065736 C28.3601315,2.09978836 28.3224974,2.06215429 28.2816284,2.02823903 C27.9167265,1.72542402 27.3754349,1.77575542 27.0726199,2.14065736 L23.0452525,6.99376614 Z"></path>
                </g>
                <rect id="Rectangle-2" fill="#2B2B2B" x="23.5733333" y="37.0909091" width="6.93333333" height="1.37373737"></rect>
                <g id="Rectangle-3">
                    <use fill="#FFC55D" fill-rule="evenodd" xlink:href="#path-4"></use>
                    <rect stroke="#2B2B2B" stroke-width="1.71717172" x="21.6585859" y="35.2020202" width="12.1494949" height="3.77777778" rx="1.71717172"></rect>
                </g>
                <rect id="Rectangle" fill="#2B2B2B" x="23.5733333" y="6.86868687" width="6.93333333" height="1.37373737"></rect>
                <rect id="Rectangle-67" fill="#2B2B2B" x="26.3466667" y="12.3636364" width="1.38666667" height="19.2323232" rx="0.693333333"></rect>
            </g>
        </g>
    </g>
</svg>