<?xml version="1.0" encoding="UTF-8"?>
<svg width="64px" height="64px" viewBox="0 0 64 64" version="1.1" xmlns="http://www.w3.org/2000/svg" xmlns:xlink="http://www.w3.org/1999/xlink">
    <!-- Generator: Sketch 46.2 (44496) - http://www.bohemiancoding.com/sketch -->
    <title>basketball</title>
    <desc>Created with Sketch.</desc>
    <defs>
        <rect id="path-1" x="9.05821087" y="33.6459302" width="40.4210526" height="1.73684211"></rect>
    </defs>
    <g id="Sticker-size-64*64" stroke="none" stroke-width="1" fill="none" fill-rule="evenodd">
        <g id="basketball">
            <rect id="Rectangle" x="0" y="0" width="64" height="64"></rect>
            <circle id="Oval-25" fill="#F89A69" transform="translate(29.324561, 34.681824) rotate(45.000000) translate(-29.324561, -34.681824) " cx="29.3245614" cy="34.6818239" r="16.5789474"></circle>
            <path d="M37.2976669,55.5387702 C40.2288258,52.5484034 42.0361715,48.4523759 42.0361715,43.9342201 C42.0361715,39.4621743 40.2655272,35.4036847 37.3870567,32.4215691 C34.3719966,29.2979458 34.2886655,58.608552 37.2976669,55.5387702 Z" id="Oval-25" fill="#F89A69" transform="translate(38.559523, 43.976311) rotate(45.000000) translate(-38.559523, -43.976311) "></path>
            <path d="M21.585368,13.6831416 C18.5330802,16.6900337 16.6407968,20.8711714 16.6407968,25.4942755 C16.6407968,29.9978556 18.4365003,34.0820268 21.3509687,37.0698503 C24.361952,40.1566179 24.578296,10.7347263 21.585368,13.6831416 Z" id="Oval-25" fill="#F89A69" transform="translate(20.181801, 25.386148) rotate(45.000000) translate(-20.181801, -25.386148) "></path>
            <rect id="Rectangle-2" transform="translate(29.547858, 34.681824) rotate(45.000000) translate(-29.547858, -34.681824) " x="12.337332" y="32.3134028" width="34.4210526" height="4.73684211"></rect>
            <path d="M18.582783,41.2114632 C22.2449904,37.5164665 24.5069809,32.4313799 24.5069809,26.817977 C24.5069809,21.2714687 22.2985812,16.2407599 18.713112,12.5571808" id="Oval-25-Copy" stroke="#FFFFFF" stroke-width="4.6875" transform="translate(21.544882, 26.884322) rotate(45.000000) translate(-21.544882, -26.884322) "></path>
            <path d="M18.582783,41.2114632 C22.2449904,37.5164665 24.5069809,32.4313799 24.5069809,26.817977 C24.5069809,21.2714687 22.2985812,16.2407599 18.713112,12.5571808" id="Oval-25-Copy" stroke="#2B2B2B" stroke-width="1.5625" transform="translate(21.544882, 26.884322) rotate(45.000000) translate(-21.544882, -26.884322) "></path>
            <path d="M34.2135645,56.8422447 C37.8757718,53.147248 40.1377624,48.0621613 40.1377624,42.4487585 C40.1377624,36.9022502 37.9293626,31.8715414 34.3438935,28.1879622" id="Oval-25-Copy" stroke="#FFFFFF" stroke-width="4.6875" transform="translate(37.175663, 42.515103) scale(-1, 1) rotate(-45.000000) translate(-37.175663, -42.515103) "></path>
            <path d="M34.2135645,56.8422447 C37.8757718,53.147248 40.1377624,48.0621613 40.1377624,42.4487585 C40.1377624,36.9022502 37.9293626,31.8715414 34.3438935,28.1879622" id="Oval-25-Copy" stroke="#2B2B2B" stroke-width="1.5625" transform="translate(37.175663, 42.515103) scale(-1, 1) rotate(-45.000000) translate(-37.175663, -42.515103) "></path>
            <g id="Rectangle" transform="translate(29.268737, 34.514351) rotate(135.000000) translate(-29.268737, -34.514351) ">
                <use fill="#2B2B2B" fill-rule="evenodd" xlink:href="#path-1"></use>
                <rect stroke="#FFFFFF" stroke-width="1.5625" x="8.27696087" y="32.8646802" width="41.9835526" height="3.29934211"></rect>
            </g>
            <path d="M29.3245614,53.4550439 C39.7543862,53.4550439 48.2094298,45.0000003 48.2094298,34.5701754 C48.2094298,24.1403506 39.7543862,15.685307 29.3245614,15.685307 C18.8947366,15.685307 10.439693,24.1403506 10.439693,34.5701754 C10.439693,45.0000003 18.8947366,53.4550439 29.3245614,53.4550439 Z M29.3245614,55.0175439 C18.0317917,55.0175439 8.87719298,45.8629452 8.87719298,34.5701754 C8.87719298,23.2774057 18.0317917,14.122807 29.3245614,14.122807 C40.6173312,14.122807 49.7719298,23.2774057 49.7719298,34.5701754 C49.7719298,45.8629452 40.6173312,55.0175439 29.3245614,55.0175439 Z" id="Oval-25" fill="#2B2B2B" fill-rule="nonzero" transform="translate(29.324561, 34.570175) rotate(45.000000) translate(-29.324561, -34.570175) "></path>
            <rect id="Rectangle" fill="#2B2B2B" transform="translate(29.324561, 34.458527) rotate(45.000000) translate(-29.324561, -34.458527) " x="9.11403509" y="33.6690533" width="40.4210526" height="1.57894737"></rect>
            <path d="M45.5282026,13.5188824 L45.54465,13.5188824 L45.54465,13.5188824 C45.9761224,13.5188824 46.3259,13.86866 46.3259,14.3001324 L46.3259,19.0534219 C46.3259,19.4848944 45.9761224,19.8346719 45.54465,19.8346719 L45.5282026,19.8346719 L45.5282026,19.8346719 C45.0967301,19.8346719 44.7469526,19.4848944 44.7469526,19.0534219 L44.7469526,14.3001324 L44.7469526,14.3001324 C44.7469526,13.86866 45.0967301,13.5188824 45.5282026,13.5188824 L45.5282026,13.5188824 Z M51.8439921,11.9399351 L51.8604394,11.9399351 C52.2919119,11.9399351 52.6416894,12.2897126 52.6416894,12.7211851 L52.6416894,19.0534219 C52.6416894,19.4848944 52.2919119,19.8346719 51.8604394,19.8346719 L51.8439921,19.8346719 C51.4125196,19.8346719 51.0627421,19.4848944 51.0627421,19.0534219 L51.0627421,12.7211851 C51.0627421,12.2897126 51.4125196,11.9399351 51.8439921,11.9399351 L51.8439921,11.9399351 Z M51.8439921,7.20309295 L51.8604394,7.20309295 C52.2919119,7.20309295 52.6416894,7.55287049 52.6416894,7.98434295 L52.6416894,9.57973768 C52.6416894,10.0112101 52.2919119,10.3609877 51.8604394,10.3609877 L51.8439921,10.3609877 C51.4125196,10.3609877 51.0627421,10.0112101 51.0627421,9.57973768 L51.0627421,7.98434295 C51.0627421,7.55287049 51.4125196,7.20309295 51.8439921,7.20309295 Z M58.1597815,4.04519821 L58.1762289,4.04519821 L58.1762289,4.04519821 C58.6077014,4.04519821 58.9574789,4.39497575 58.9574789,4.82644821 L58.9574789,19.0534219 C58.9574789,19.4848944 58.6077014,19.8346719 58.1762289,19.8346719 L58.1597815,19.8346719 C57.7283091,19.8346719 57.3785315,19.4848944 57.3785315,19.0534219 L57.3785315,4.82644821 L57.3785315,4.82644821 C57.3785315,4.39497575 57.7283091,4.04519821 58.1597815,4.04519821 L58.1597815,4.04519821 Z" id="Combined-Shape" fill="#2B2B2B" transform="translate(51.852216, 11.939935) rotate(45.000000) translate(-51.852216, -11.939935) "></path>
        </g>
    </g>
</svg>