<?xml version="1.0" encoding="UTF-8"?>
<svg width="64px" height="64px" viewBox="0 0 64 64" version="1.1" xmlns="http://www.w3.org/2000/svg" xmlns:xlink="http://www.w3.org/1999/xlink">
    <!-- Generator: Sketch 46.2 (44496) - http://www.bohemiancoding.com/sketch -->
    <title>calculator</title>
    <desc>Created with Sketch.</desc>
    <defs>
        <rect id="path-1" x="13.3333333" y="9.33333333" width="38.6666667" height="46.6666667" rx="3.33333333"></rect>
        <rect id="path-2" x="18.6666667" y="13.3333333" width="28" height="13.3333333"></rect>
        <rect id="path-3" x="18.6666667" y="30.6666667" width="8" height="8" rx="1.66666667"></rect>
        <rect id="path-4" x="18.6666667" y="40" width="8" height="8" rx="1.66666667"></rect>
        <rect id="path-5" x="29.3333333" y="30.6666667" width="8" height="8" rx="1.66666667"></rect>
        <rect id="path-6" x="38.6666667" y="30.6666667" width="8" height="18.6666667" rx="1.66666667"></rect>
        <rect id="path-7" x="29.3333333" y="40" width="8" height="8" rx="1.66666667"></rect>
    </defs>
    <g id="Sticker-size-64*64" stroke="none" stroke-width="1" fill="none" fill-rule="evenodd">
        <g id="calculator">
            <rect id="Rectangle" x="0" y="0" width="64" height="64"></rect>
            <g id="Rectangle">
                <use fill="#BDF3FB" fill-rule="evenodd" xlink:href="#path-1"></use>
                <rect stroke="#2B2B2B" stroke-width="1.66666667" x="14.1666667" y="10.1666667" width="37" height="45" rx="3.33333333"></rect>
            </g>
            <g id="Rectangle-55">
                <use fill="#F9FBB1" fill-rule="evenodd" xlink:href="#path-2"></use>
                <rect stroke="#2B2B2B" stroke-width="1.66666667" x="19.5" y="14.1666667" width="26.3333333" height="11.6666667"></rect>
            </g>
            <path d="M35.6633333,16.9333331 C36.4300038,16.9333331 37.0133313,17.0916648 37.4133333,17.4083331 C37.8133353,17.7250013 38.0133333,18.1499971 38.0133333,18.6833331 C38.0133333,19.0033347 37.9283342,19.2749986 37.7583333,19.4983331 C37.5883325,19.7216675 37.3866678,19.8899992 37.1533333,20.0033331 C37.293334,20.0566667 37.4233327,20.1233327 37.5433333,20.2033331 C37.6633339,20.2833335 37.7699995,20.3833325 37.8633333,20.5033331 C37.9566671,20.6233337 38.0299997,20.7633323 38.0833333,20.9233331 C38.1366669,21.0833339 38.1633333,21.2699987 38.1633333,21.4833331 C38.1633333,21.7700012 38.1016673,22.0266653 37.9783333,22.2533331 C37.8549994,22.4800009 37.6833344,22.6733323 37.4633333,22.8333331 C37.2433322,22.9933339 36.9816682,23.1149993 36.6783333,23.1983331 C36.3749985,23.2816668 36.0433351,23.3233331 35.6833333,23.3233331 C34.9899965,23.3233331 34.4666684,23.2266674 34.1133333,23.0333331 C33.7599982,22.8399988 33.5833333,22.5933346 33.5833333,22.2933331 C33.5833333,22.1133322 33.6266662,21.9583337 33.7133333,21.8283331 C33.8000004,21.6983324 33.906666,21.5966668 34.0333333,21.5233331 C34.1666673,21.6166669 34.3449989,21.7149992 34.5683333,21.8183331 C34.7916678,21.9216669 35.0833315,21.9733331 35.4433333,21.9733331 C35.783335,21.9733331 36.0349992,21.9133337 36.1983333,21.7933331 C36.3616675,21.6733325 36.4433333,21.5166674 36.4433333,21.3233331 C36.4433333,21.1299988 36.378334,20.9833336 36.2483333,20.8833331 C36.1183327,20.7833326 35.8933349,20.7333331 35.5733333,20.7333331 L34.6333333,20.7333331 C34.5866664,20.6599994 34.5466668,20.5700003 34.5133333,20.4633331 C34.4799998,20.3566659 34.4633333,20.2300005 34.4633333,20.0833331 C34.4633333,19.929999 34.4783332,19.7983336 34.5083333,19.6883331 C34.5383335,19.5783325 34.5799997,19.4866668 34.6333333,19.4133331 L35.5733333,19.4133331 C36.0533357,19.4133331 36.2933333,19.2300016 36.2933333,18.8633331 C36.2933333,18.6899989 36.2166674,18.5500003 36.0633333,18.4433331 C35.9099992,18.3366659 35.6800015,18.2833331 35.3733333,18.2833331 C35.0999986,18.2833331 34.860001,18.3149994 34.6533333,18.3783331 C34.4466656,18.4416667 34.2766673,18.5199993 34.1433333,18.6133331 C34.0299994,18.5333327 33.936667,18.4350003 33.8633333,18.3183331 C33.7899996,18.2016658 33.7533333,18.0633339 33.7533333,17.9033331 C33.7533333,17.5699981 33.9266649,17.3250005 34.2733333,17.1683331 C34.6200017,17.0116656 35.0833304,16.9333331 35.6633333,16.9333331 Z M40.8433333,16.9333331 C41.6100038,16.9333331 42.1933313,17.0916648 42.5933333,17.4083331 C42.9933353,17.7250013 43.1933333,18.1499971 43.1933333,18.6833331 C43.1933333,19.0033347 43.1083342,19.2749986 42.9383333,19.4983331 C42.7683325,19.7216675 42.5666678,19.8899992 42.3333333,20.0033331 C42.473334,20.0566667 42.6033327,20.1233327 42.7233333,20.2033331 C42.8433339,20.2833335 42.9499995,20.3833325 43.0433333,20.5033331 C43.1366671,20.6233337 43.2099997,20.7633323 43.2633333,20.9233331 C43.3166669,21.0833339 43.3433333,21.2699987 43.3433333,21.4833331 C43.3433333,21.7700012 43.2816673,22.0266653 43.1583333,22.2533331 C43.0349994,22.4800009 42.8633344,22.6733323 42.6433333,22.8333331 C42.4233322,22.9933339 42.1616682,23.1149993 41.8583333,23.1983331 C41.5549985,23.2816668 41.2233351,23.3233331 40.8633333,23.3233331 C40.1699965,23.3233331 39.6466684,23.2266674 39.2933333,23.0333331 C38.9399982,22.8399988 38.7633333,22.5933346 38.7633333,22.2933331 C38.7633333,22.1133322 38.8066662,21.9583337 38.8933333,21.8283331 C38.9800004,21.6983324 39.086666,21.5966668 39.2133333,21.5233331 C39.3466673,21.6166669 39.5249989,21.7149992 39.7483333,21.8183331 C39.9716678,21.9216669 40.2633315,21.9733331 40.6233333,21.9733331 C40.963335,21.9733331 41.2149992,21.9133337 41.3783333,21.7933331 C41.5416675,21.6733325 41.6233333,21.5166674 41.6233333,21.3233331 C41.6233333,21.1299988 41.558334,20.9833336 41.4283333,20.8833331 C41.2983327,20.7833326 41.0733349,20.7333331 40.7533333,20.7333331 L39.8133333,20.7333331 C39.7666664,20.6599994 39.7266668,20.5700003 39.6933333,20.4633331 C39.6599998,20.3566659 39.6433333,20.2300005 39.6433333,20.0833331 C39.6433333,19.929999 39.6583332,19.7983336 39.6883333,19.6883331 C39.7183335,19.5783325 39.7599997,19.4866668 39.8133333,19.4133331 L40.7533333,19.4133331 C41.2333357,19.4133331 41.4733333,19.2300016 41.4733333,18.8633331 C41.4733333,18.6899989 41.3966674,18.5500003 41.2433333,18.4433331 C41.0899992,18.3366659 40.8600015,18.2833331 40.5533333,18.2833331 C40.2799986,18.2833331 40.040001,18.3149994 39.8333333,18.3783331 C39.6266656,18.4416667 39.4566673,18.5199993 39.3233333,18.6133331 C39.2099994,18.5333327 39.116667,18.4350003 39.0433333,18.3183331 C38.9699996,18.2016658 38.9333333,18.0633339 38.9333333,17.9033331 C38.9333333,17.5699981 39.1066649,17.3250005 39.4533333,17.1683331 C39.8000017,17.0116656 40.2633304,16.9333331 40.8433333,16.9333331 Z" id="33" fill="#2B2F33" opacity="0.300000012"></path>
            <g id="Rectangle-56">
                <use fill="#F0ECFF" fill-rule="evenodd" xlink:href="#path-3"></use>
                <rect stroke="#2B2B2B" stroke-width="1.66666667" x="19.5" y="31.5" width="6.33333333" height="6.33333333" rx="1.66666667"></rect>
            </g>
            <g id="Rectangle-56-Copy-2">
                <use fill="#F0ECFF" fill-rule="evenodd" xlink:href="#path-4"></use>
                <rect stroke="#2B2B2B" stroke-width="1.66666667" x="19.5" y="40.8333333" width="6.33333333" height="6.33333333" rx="1.66666667"></rect>
            </g>
            <g id="Rectangle-56-Copy">
                <use fill="#F0ECFF" fill-rule="evenodd" xlink:href="#path-5"></use>
                <rect stroke="#2B2B2B" stroke-width="1.66666667" x="30.1666667" y="31.5" width="6.33333333" height="6.33333333" rx="1.66666667"></rect>
            </g>
            <g id="Rectangle-2">
                <use fill="#ED6969" fill-rule="evenodd" xlink:href="#path-6"></use>
                <rect stroke="#2B2B2B" stroke-width="1.66666667" x="39.5" y="31.5" width="6.33333333" height="17" rx="1.66666667"></rect>
            </g>
            <g id="Rectangle-56-Copy-3">
                <use fill="#F0ECFF" fill-rule="evenodd" xlink:href="#path-7"></use>
                <rect stroke="#2B2B2B" stroke-width="1.66666667" x="30.1666667" y="40.8333333" width="6.33333333" height="6.33333333" rx="1.66666667"></rect>
            </g>
            <circle id="Oval-31" fill="#F0ECFF" cx="42.6666667" cy="40" r="2.66666667"></circle>
        </g>
    </g>
</svg>