<?xml version="1.0" encoding="UTF-8"?>
<svg width="64px" height="64px" viewBox="0 0 64 64" version="1.1" xmlns="http://www.w3.org/2000/svg" xmlns:xlink="http://www.w3.org/1999/xlink">
    <!-- Generator: Sketch 47 (45396) - http://www.bohemiancoding.com/sketch -->
    <title>smile through tears</title>
    <desc>Created with Sketch.</desc>
    <defs></defs>
    <g id="Sticker-size-64*64" stroke="none" stroke-width="1" fill="none" fill-rule="evenodd">
        <g id="smile-through-tears">
            <circle id="Oval-17" fill="#FBDC67" cx="32" cy="32" r="25"></circle>
            <path d="M7.32825656,36.0615544 C9.26843591,47.937035 19.5758335,57 32,57 C45.8071187,57 57,45.8071187 57,32 C57,29.1793298 56.5328672,26.4677644 55.6717434,23.9384456 C55.8877077,25.2603228 56,26.6170477 56,28 C56,41.8071187 44.8071187,53 31,53 C20.0135514,53 10.6823147,45.9131959 7.32825656,36.0615544 Z" id="Combined-Shape" fill="#F2CC5B"></path>
            <path d="M31.6081904,48.7273147 C40.0795864,48.7273147 47.0801518,42.4299402 48.1839827,34.2610948 C48.2839034,33.5216374 48.1839827,32 46.260926,32 C39.3198448,32 24.8526449,32 16.9485633,32 C15.0242578,32 14.9296761,33.480081 15.0242578,34.2000054 C16.1013562,42.398523 23.1156891,48.7273147 31.6081904,48.7273147 Z" id="Oval-2" fill="#4C4023"></path>
            <path d="M46.3199356,34 L18.1272607,34 C17.6422993,34 18.6449982,37.4714355 19.4262415,38 C20.2074848,38.5285645 27.9635818,38.5285645 32.2345757,38.5285645 C36.4951529,38.5285645 44.03462,38.3491211 45.0209547,38 C46.0072895,37.6508789 46.8335835,34 46.3199356,34 Z" id="Combined-Shape" fill="#FFFFFF"></path>
            <path d="M8.83682551,42.8330848 C7.26589945,42.9045259 5.75765472,42.3569404 4.59532517,41.2944727 C2.19611035,39.1010161 2.0288953,35.3646648 4.2223519,32.96545 C5.67005661,31.3820656 11.7012836,29.3346058 16.7506331,28 C15.8725108,33.1480434 14.3722472,39.3379203 12.9243478,40.9218887 C11.8614908,42.0840236 10.4098928,42.7628116 8.83682551,42.8330848 Z" id="Shape" fill="#69CDFF" fill-rule="nonzero" transform="translate(9.715633, 35.419644) rotate(-15.000000) translate(-9.715633, -35.419644) "></path>
            <path d="M54.913613,42.8336688 C53.340351,42.7632009 51.8889477,42.084413 50.8262853,40.9222781 C50.5747814,40.64722 50.3219149,40.2306423 50.070995,39.7073897 C50.0361504,39.6157036 49.9958553,39.5265482 49.9479683,39.4422594 C49.791849,39.0942029 49.636703,38.7072139 49.483309,38.2851857 C49.4706559,38.2431386 49.4546936,38.2020649 49.4391206,38.1613804 C48.479824,35.4730918 47.5962511,31.4969164 47,28 C52.0483762,29.3340218 58.0786299,31.3807029 59.5282812,32.9662287 C61.7217378,35.3652488 61.5545228,39.1017947 59.155308,41.2952513 C57.9933678,42.357719 56.4876536,42.9045259 54.913613,42.8336688 Z" id="Path" fill="#69CDFF" transform="translate(54.035000, 35.419892) rotate(-345.000000) translate(-54.035000, -35.419892) "></path>
            <path d="M36,23.2316047 C38.3010254,20.3053352 42.1855469,18.7137825 47.5524902,21.3077766" id="Path-35" stroke="#4C4023" stroke-width="3" stroke-linecap="round"></path>
            <path d="M16.5,23.2316047 C18.8010254,20.3053352 22.6855469,18.7137825 28.0524902,21.3077766" id="Path-35-Copy" stroke="#4C4023" stroke-width="3" stroke-linecap="round" transform="translate(22.276245, 21.615802) scale(-1, 1) translate(-22.276245, -21.615802) "></path>
        </g>
    </g>
</svg>