<?xml version="1.0" encoding="UTF-8"?>
<svg width="64px" height="64px" viewBox="0 0 64 64" version="1.1" xmlns="http://www.w3.org/2000/svg" xmlns:xlink="http://www.w3.org/1999/xlink">
    <!-- Generator: Sketch 46.2 (44496) - http://www.bohemiancoding.com/sketch -->
    <title>email</title>
    <desc>Created with Sketch.</desc>
    <defs>
        <rect id="path-1" x="0" y="0" width="46.6666667" height="30.6666667" rx="3.33333333"></rect>
        <path d="M46.6666667,26.6952316 L46.6666667,27.3333333 L46.6666667,27.3333333 C46.6666667,29.1742825 45.1742825,30.6666667 43.3333333,30.6666667 L3.33333333,30.6666667 C1.49238417,30.6666667 -6.62727169e-16,29.1742825 -8.8817842e-16,27.3333333 L-8.72760966e-16,26.9167291 L23.4942627,10.7483905 L46.6666667,26.6952316 Z" id="path-2"></path>
        <path d="M46.6666667,4.39063735 L46.6666667,3.33333333 C46.6666667,1.49238417 45.1742825,-3.16427031e-15 43.3333333,4.4408921e-16 L43.3333333,0 L3.33333333,0 L3.33333333,-8.8817842e-16 C1.49238417,-5.50001544e-16 2.18637959e-16,1.49238417 4.4408921e-16,3.33333333 L0,3.33333333 L-3.1751815e-17,4.19131811 L23.4942627,18.7407407 L46.6666667,4.39063735 Z" id="path-3"></path>
    </defs>
    <g id="Sticker-size-64*64" stroke="none" stroke-width="1" fill="none" fill-rule="evenodd">
        <g id="email">
            <circle id="Oval-20" fill="#FFF9ED" transform="translate(38.666667, 37.333333) rotate(-360.000000) translate(-38.666667, -37.333333) " cx="38.6666667" cy="37.3333333" r="18.6666667"></circle>
            <circle id="Oval-20-Copy" fill="#FFF9ED" transform="translate(25.333333, 28.000000) rotate(-360.000000) translate(-25.333333, -28.000000) " cx="25.3333333" cy="28" r="21.3333333"></circle>
            <g id="Triangle-+-Triangle-Mask" transform="translate(9.333333, 17.333333)">
                <g id="Mask">
                    <use fill="#F9FBB1" fill-rule="evenodd" xlink:href="#path-1"></use>
                    <rect stroke="#2B2B2B" stroke-width="1.66666667" x="-0.833333333" y="-0.833333333" width="48.3333333" height="32.3333333" rx="3.33333333"></rect>
                </g>
                <g id="Combined-Shape">
                    <use fill="#F9FBB1" fill-rule="evenodd" xlink:href="#path-2"></use>
                    <path stroke="#2B2B2B" stroke-width="1.66666667" d="M47.5,26.2571192 L47.5,27.3333333 C47.5,29.6345198 45.6345198,31.5 43.3333333,31.5 L3.33333333,31.5 C1.03214688,31.5 -0.833333333,29.6345198 -0.833333333,27.3333333 L-0.833333333,26.4786167 L23.4942627,9.73679279 L47.5,26.2571192 Z"></path>
                </g>
                <mask id="mask-4" fill="white">
                    <use xlink:href="#path-3"></use>
                </mask>
                <g id="Combined-Shape">
                    <use fill="#F9FBB1" fill-rule="evenodd" xlink:href="#path-3"></use>
                    <path stroke="#2B2B2B" stroke-width="1.66666667" d="M47.5,4.85476081 L23.4942627,19.7209272 L-0.833333333,4.65544157 L-0.833333333,3.33333333 C-0.833333333,1.03214688 1.03214688,-0.833333333 3.33333333,-0.833333333 L43.3333333,-0.833333333 C45.6345198,-0.833333333 47.5,1.03214688 47.5,3.33333333 L47.5,4.85476081 Z"></path>
                </g>
            </g>
            <rect id="Rectangle" x="0" y="0" width="64" height="64"></rect>
        </g>
    </g>
</svg>