<?xml version="1.0" encoding="UTF-8"?>
<svg width="64px" height="64px" viewBox="0 0 64 64" version="1.1" xmlns="http://www.w3.org/2000/svg" xmlns:xlink="http://www.w3.org/1999/xlink">
    <!-- Generator: Sketch 46.2 (44496) - http://www.bohemiancoding.com/sketch -->
    <title>beach</title>
    <desc>Created with Sketch.</desc>
    <defs>
        <path d="M7.43858702,43.5131415 C7.43858702,43.5131415 17.7076756,30.423953 13.9099369,3.79563528 C20.734671,15.7226995 21.9060181,41.7103198 18.8759762,46.1493285 C15.8459344,50.5883371 7.43858702,43.5131415 7.43858702,43.5131415 Z" id="path-1"></path>
        <path d="M4.04402245,7.53994978 C4.04402245,7.53994978 4.91801072,11.1361317 7.87717576,13.5265141 C7.05564297,9.8966918 8.16582371,4.56458688 10.3019803,0.953878431 C5.79932598,0.953878431 5.44772518,5.28412561 5.44772518,5.28412561" id="path-2"></path>
        <path d="M16.1437216,5.77774516 C9.50672289,6.38250848 1.8861125,13.0547835 0.0163744876,22.9882695 C3.57268472,20.3452015 4.88949817,20.5141682 8.21808879,20.5141682 C11.5466794,20.5141682 14.0215119,11.1391899 16.1437216,5.77774516 Z" id="path-3"></path>
        <path d="M13.1548064,6.83933033 C16.7918467,5.04912386 21.2422801,2.72411089 26.8930016,3.39730192 C32.543723,4.07049295 32.9425169,7.41276042 34.488479,9.62269426 C25.9954511,10.8299272 21.9970297,9.46940091 13.1548064,6.83933033 Z" id="path-4"></path>
        <path d="M15.5744226,7.17726382 C12.7534411,0.469054738 11.664728,-0.454145908 9.22074056,0.209870457 C6.77675307,0.873886822 3.29012961,5.27973288 4.09438352,7.67613621 C3.92635462,5.06441497 10.3764747,4.37707966 15.5744226,7.17726382 Z" id="path-5"></path>
        <path d="M47.9562561,47.914803 C41.2835998,42.7621394 32.995504,39.7188498 24,39.7188498 C14.9825772,39.7188498 6.67601429,42.7769883 0.0515300733,47.914803 C0.298789828,47.914803 47.8227539,47.914803 47.9562561,47.914803 Z" id="path-6"></path>
    </defs>
    <g id="Sticker-size-64*64" stroke="none" stroke-width="1" fill="none" fill-rule="evenodd">
        <g id="beach">
            <rect id="Rectangle" x="0" y="0" width="64" height="64"></rect>
            <g id="Group-8" transform="translate(8.000000, 8.000000)">
                <g id="Group-3" transform="translate(3.294118, 23.799787)" fill="#FFC55D">
                    <path d="M14.1620013,21.944854 C20.0097222,21.944854 24.0350001,20.1087742 24.0350001,14.2330291 C24.0350001,8.357284 19.2944856,3.59405146 13.4467648,3.59405146 C7.59904389,3.59405146 2.85852947,8.357284 2.85852947,14.2330291 C2.85852947,20.1087742 8.31428044,21.944854 14.1620013,21.944854 Z" id="Oval-16" transform="translate(13.446765, 12.769453) rotate(-24.000000) translate(-13.446765, -12.769453) "></path>
                </g>
                <g id="Group-4" transform="translate(12.549020, 0.000000)">
                    <g id="Group-2">
                        <g id="Path-18">
                            <use fill="#F5E0C7" fill-rule="evenodd" xlink:href="#path-1"></use>
                            <path stroke="#2B2B2B" stroke-width="1.5625" d="M8.50335284,43.3607051 C8.5724477,43.4134581 8.64636514,43.4693427 8.72487878,43.5280576 C9.34896031,43.9947645 10.0289585,44.4616885 10.7398534,44.8964769 C11.8551423,45.5785955 12.9388128,46.1150068 13.9412717,46.4503699 C15.9673305,47.1281686 17.4010898,46.9242863 18.2307193,45.7088798 C19.5887273,43.7193993 20.0683758,36.2908639 19.310379,27.8503816 C18.6599737,20.6079579 17.2433994,13.7347349 15.239502,8.50308188 C16.2170974,19.6727633 14.8136391,29.0932818 11.8236228,36.7708342 C11.0083327,38.8642785 10.133061,40.6590105 9.25537355,42.156044 C8.98741525,42.6130888 8.73518609,43.0146107 8.50335284,43.3607051 Z"></path>
                        </g>
                        <g id="Group">
                            <g id="Path-22">
                                <use fill="#6D9D5D" fill-rule="evenodd" xlink:href="#path-2"></use>
                                <path stroke="#2B2B2B" stroke-width="1.5625" d="M4.89087617,7.65774608 C4.97084821,7.91208976 5.0728367,8.19722603 5.19857025,8.50530691 C5.56131563,9.39413025 6.04164945,10.2833282 6.65176713,11.1097196 C6.71132358,11.1903876 6.7718315,11.2700384 6.83329673,11.3486432 C6.74191394,8.35011877 7.51719678,4.82302306 8.90486167,1.91892289 C7.98496854,2.18822807 7.32340943,2.74382246 6.85594744,3.52149514 C6.61364466,3.92459154 6.4416098,4.36218243 6.33013237,4.80020958 C6.26423531,5.05913825 6.23404926,5.25329951 6.22641251,5.34735227 L6.21108705,5.53609771 L4.89087617,7.65774608 Z"></path>
                            </g>
                            <g id="Path-19">
                                <use fill="#8BCB76" fill-rule="evenodd" xlink:href="#path-3"></use>
                                <path stroke="#2B2B2B" stroke-width="1.5625" d="M14.9383457,6.74517593 C9.04898636,7.95295162 3.32746947,13.7063391 1.23194714,21.2133307 C2.32574346,20.546537 3.26347045,20.1590854 4.23046833,19.9525363 C5.14385788,19.7574379 5.81380098,19.7261182 7.67310176,19.7318362 C7.94024239,19.7326488 8.06095481,19.7329182 8.21808879,19.7329182 C9.66844768,19.7329182 11.272221,16.9050017 13.3920863,11.0546177 C13.6327629,10.3904006 14.4663372,8.04471199 14.4283338,8.15102158 C14.6186546,7.61862313 14.7853157,7.15859881 14.9383457,6.74517593 Z"></path>
                            </g>
                            <g id="Path-20">
                                <use fill="#8BCB76" fill-rule="evenodd" xlink:href="#path-4"></use>
                                <path stroke="#2B2B2B" stroke-width="1.5625" d="M15.2975061,6.66025923 C20.7013803,8.25857312 22.0190506,8.58736453 24.4252878,8.95373996 C27.1828385,9.37360663 29.8706225,9.40081152 33.1985259,9.00382525 C33.1490931,8.91392519 33.0973621,8.81859903 33.0426248,8.71675589 C32.8031654,8.26809832 32.6858384,8.04995393 32.5620114,7.82943328 C31.3084106,5.5969254 29.9145849,4.54404869 26.8005819,4.17306617 C22.9385988,3.71297405 19.7032233,4.55231536 15.2975061,6.66025923 Z"></path>
                            </g>
                            <g id="Path-21">
                                <use fill="#8BCB76" fill-rule="evenodd" xlink:href="#path-5"></use>
                                <path stroke="#2B2B2B" stroke-width="1.5625" d="M14.0600043,5.63548502 C12.0625702,1.13506394 11.201212,0.481360163 9.42557575,0.96378962 C7.92611993,1.37118254 6.09814919,3.34690972 5.24244925,5.13933897 C7.34889979,4.27753241 10.8483903,4.42906567 14.0600043,5.63548502 Z"></path>
                            </g>
                        </g>
                        <path d="M11.9902925,34.9452078 C11.9902925,34.9452078 16.1260749,35.6774626 17.0107096,35.833116 C16.8809946,37.1304777 16.6584378,37.7809929 16.6584378,37.7809929 L11.6168293,36.8665092 L11.9902925,34.9452078 Z M14.339529,26.2395241 C14.339529,26.2395241 15.2927688,26.3482217 16.7233972,26.4098125 C16.8888332,27.2377837 16.8820854,28.3603794 16.8820854,28.3603794 L14.2370939,28.1941035 L14.339529,26.2395241 Z M13.4621985,30.6380408 C13.4621985,30.6380408 16.1414001,30.9274803 16.9753582,31.0111941 C17.0930986,31.9103213 16.9745763,32.9595814 16.9745763,32.9595814 L13.2576089,32.5845805 L13.4621985,30.6380408 Z" id="Combined-Shape" fill="#2B2B2B"></path>
                    </g>
                    <path d="M5.57643995,7.19337342 C5.57643995,7.19337342 5.25038297,6.15354495 5.25038297,5.17872862 C5.25038297,4.20391228 4.13721661,6.55531566 4.13721661,6.55531566 C4.13721661,6.55531566 4.00883197,7.02344567 4.00193398,7.19337342 C3.99503599,7.36330116 4.05890012,7.59962706 4.05890012,7.59962706 L4.60531556,7.68628424 L5.57643995,7.19337342 Z" id="Path-24" fill="#2B2B2B"></path>
                </g>
                <g id="Oval-15">
                    <use fill="#BDCFD1" fill-rule="evenodd" xlink:href="#path-6"></use>
                    <path stroke="#2B2B2B" stroke-width="1.5625" d="M45.5481175,47.133553 C39.2226055,42.8351437 31.7917486,40.5000998 24,40.5000998 C16.1966531,40.5000998 8.74870774,42.8427398 2.45266022,47.133553 C4.43376583,47.133553 4.56590888,47.133553 7.60599451,47.133553 L40.4334428,47.133553 C43.1121262,47.133553 44.5925575,47.133553 45.5481175,47.133553 Z"></path>
                </g>
                <g id="Group-6" transform="translate(9.990456, 34.998924) rotate(-10.000000) translate(-9.990456, -34.998924) translate(4.657123, 32.998924)">
                    <g id="Group-7">
                        <rect id="Rectangle-41" fill="#2B2B2B" x="2.82352941" y="1.57614483" width="4.70588235" height="1.57614483" rx="0.78125"></rect>
                        <path d="M5.12576593,1.95224932 C5.12576593,1.95224932 4.96683517,0 3.72679228,0 C2.48674939,0 1.85807292,1.2637634 0,1.48679405" id="Path-25" stroke="#2B2B2B" stroke-width="1.5625" stroke-linecap="round"></path>
                        <path d="M10.3022365,1.95224932 C10.3022365,1.95224932 10.1433058,0 8.90326287,0 C7.66321998,0 7.0345435,1.2637634 5.17647059,1.48679405" id="Path-25" stroke="#2B2B2B" stroke-width="1.5625" stroke-linecap="round" transform="translate(7.739354, 0.976125) scale(-1, 1) translate(-7.739354, -0.976125) "></path>
                    </g>
                </g>
            </g>
        </g>
    </g>
</svg>