<?xml version="1.0" encoding="UTF-8"?>
<svg width="64px" height="64px" viewBox="0 0 64 64" version="1.1" xmlns="http://www.w3.org/2000/svg" xmlns:xlink="http://www.w3.org/1999/xlink">
    <!-- Generator: Sketch 47 (45396) - http://www.bohemiancoding.com/sketch -->
    <title>awkward</title>
    <desc>Created with Sketch.</desc>
    <defs></defs>
    <g id="Sticker-size-64*64" stroke="none" stroke-width="1" fill="none" fill-rule="evenodd">
        <g id="awkward">
            <circle id="Oval-17" fill="#FBDC67" cx="32" cy="32" r="25"></circle>
            <path d="M7.32825656,36.0615544 C9.26843591,47.937035 19.5758335,57 32,57 C45.8071187,57 57,45.8071187 57,32 C57,29.1793298 56.5328672,26.4677644 55.6717434,23.9384456 C55.8877077,25.2603228 56,26.6170477 56,28 C56,41.8071187 44.8071187,53 31,53 C20.0135514,53 10.6823147,45.9131959 7.32825656,36.0615544 Z" id="Combined-Shape" fill="#F2CC5B"></path>
            <path d="M31.6081904,48.7273147 C40.0795864,48.7273147 47.0801518,42.4299402 48.1839827,34.2610948 C48.2839034,33.5216374 48.1839827,32 46.260926,32 C39.3198448,32 24.8526449,32 16.9485633,32 C15.0242578,32 14.9296761,33.480081 15.0242578,34.2000054 C16.1013562,42.398523 23.1156891,48.7273147 31.6081904,48.7273147 Z" id="Oval-2" fill="#4C4023"></path>
            <path d="M46.3199356,34 L18.1272607,34 C17.6422993,34 18.6449982,37.4714355 19.4262415,38 C20.2074848,38.5285645 27.9635818,38.5285645 32.2345757,38.5285645 C36.4951529,38.5285645 44.03462,38.3491211 45.0209547,38 C46.0072895,37.6508789 46.8335835,34 46.3199356,34 Z" id="Combined-Shape" fill="#FFFFFF"></path>
            <path d="M37,24.448649 C37.7105713,22.7028302 39.1364746,20.0352277 42.49646,20.0003156 C45.8564453,19.9654034 47.6326904,22.8357648 47.9929199,24.448649" id="Path-33" stroke="#4C4023" stroke-width="3" stroke-linecap="round"></path>
            <path d="M16,24.448649 C16.7105713,22.7028302 18.1364746,20.0352277 21.49646,20.0003156 C24.8564453,19.9654034 26.6326904,22.8357648 26.9929199,24.448649" id="Path-33-Copy" stroke="#4C4023" stroke-width="3" stroke-linecap="round"></path>
            <path d="M55.5943106,30.401634 C54.0210486,30.3311662 52.5696453,29.6523782 51.5069829,28.4902433 C51.255479,28.2151853 51.0026125,27.7986076 50.7516926,27.2753549 C50.716848,27.1836689 50.6765529,27.0945135 50.6286659,27.0102246 C50.4725466,26.6621682 50.3174006,26.2751792 50.1640066,25.853151 C50.1513536,25.8111039 50.1353912,25.7700301 50.1198183,25.7293456 C49.1605217,23.0410571 48.2769487,19.0648817 47.6806976,15.5679652 C52.7290739,16.9019871 58.7593275,18.9486682 60.2089789,20.5341939 C62.4024355,22.9332141 62.2352204,26.66976 59.8360056,28.8632166 C58.6740654,29.9256843 57.1683513,30.4724911 55.5943106,30.401634 Z" id="Path" fill="#69CDFF" transform="translate(54.715697, 22.987858) rotate(-336.000000) translate(-54.715697, -22.987858) "></path>
        </g>
    </g>
</svg>