<?xml version="1.0" encoding="UTF-8"?>
<svg width="64px" height="64px" viewBox="0 0 64 64" version="1.1" xmlns="http://www.w3.org/2000/svg" xmlns:xlink="http://www.w3.org/1999/xlink">
    <!-- Generator: Sketch 46.2 (44496) - http://www.bohemiancoding.com/sketch -->
    <title>sand clock</title>
    <desc>Created with Sketch.</desc>
    <defs>
        <rect id="path-1" x="14.3894928" y="9.49818841" width="35.2173913" height="4.89130435" rx="2.34375"></rect>
        <rect id="path-2" x="14.3894928" y="49.6068841" width="35.2173913" height="4.89130435" rx="2.34375"></rect>
    </defs>
    <g id="Sticker-size-64*64" stroke="none" stroke-width="1" fill="none" fill-rule="evenodd">
        <g id="sand-clock" transform="translate(32.000000, 32.000000) scale(-1, 1) translate(-32.000000, -32.000000) ">
            <rect id="Rectangle" x="0" y="0" width="64" height="64"></rect>
            <path d="M17.6503623,49.6068841 C24.3507487,49.5712992 39.9414629,49.5712992 46.3460145,49.6068841 C46.3104296,41.4026445 34.2778359,35.9514165 34.2807934,32.0098072 C34.2837508,28.0681978 46.3104296,22.5978721 46.3460145,14.3894928 C40.5828097,14.4250777 25.0401806,14.4250777 17.6503623,14.3894928 C17.6859472,22.6265321 29.7156608,28.0602386 29.7155797,31.9978696 C29.7154986,35.9355005 17.6859472,41.3038472 17.6503623,49.6068841 Z M17.6586604,51.169362 L16.0811156,51.1777402 L16.0878767,49.6001876 C16.1054343,45.5034621 18.2798645,42.1738132 22.6042923,38.0476256 C28.848715,32.0894595 28.1530628,32.8206077 28.1530797,31.9978374 C28.1530967,31.1714633 28.775128,31.8280447 22.6027132,25.9220805 C18.2758116,21.7819626 16.1054528,18.4646433 16.0878769,14.3962429 L16.0810648,12.8194178 L17.6578863,12.8270109 C25.0422848,12.8625697 40.5792788,12.8625697 46.336367,12.8270225 L47.915345,12.8172731 L47.9084998,14.3962664 C47.8909154,18.4524605 45.7229315,21.7654539 41.3948899,25.9156976 C35.2575518,31.8009111 35.8439163,31.1801775 35.8432929,32.0109795 C35.8426709,32.840021 35.2670096,32.2314866 41.3937681,38.094874 C45.7226696,42.2376888 47.890915,45.545868 47.9084998,49.600107 L47.9153443,51.1781277 L46.3373331,51.1693599 C39.9385065,51.1338068 24.3534494,51.1338068 17.6586604,51.169362 Z" id="Oval-2" fill="#2B2B2B" fill-rule="nonzero"></path>
            <path d="M17.6503623,49.6068841 C24.3507487,49.5712992 39.9414629,49.5712992 46.3460145,49.6068841 C46.3104296,41.4026445 34.2778359,35.9514165 34.2807934,32.0098072 C34.2837508,28.0681978 46.3104296,22.5978721 46.3460145,14.3894928 C40.5828097,14.4250777 25.0401806,14.4250777 17.6503623,14.3894928 C17.6859472,22.6265321 29.7156608,28.0602386 29.7155797,31.9978696 C29.7154986,35.9355005 17.6859472,41.3038472 17.6503623,49.6068841 Z" id="Oval-2" fill="#FFFCF8"></path>
            <path d="M31.9981884,36.2373188 C31.5479563,36.2373188 31.182971,35.8723336 31.182971,35.4221014 C31.182971,34.9718693 31.5479563,34.6068841 31.9981884,34.6068841 C32.4484205,34.6068841 32.8134058,34.9718693 32.8134058,35.4221014 C32.8134058,35.8723336 32.4484205,36.2373188 31.9981884,36.2373188 Z M31.9981884,40.1503623 C31.277817,40.1503623 30.6938406,39.5663859 30.6938406,38.8460145 C30.6938406,38.1256431 31.277817,37.5416667 31.9981884,37.5416667 C32.7185598,37.5416667 33.3025362,38.1256431 33.3025362,38.8460145 C33.3025362,39.5663859 32.7185598,40.1503623 31.9981884,40.1503623 Z" id="Combined-Shape" fill="#FFE5B6"></path>
            <path d="M21.6813894,19.7083086 C23.412771,22.825719 29.7178088,28.0500364 30.5799967,28.7303131 C31.4421847,29.4105897 32.7500354,29.3605939 33.4816611,28.7303131 C34.2132869,28.1000322 39.0301549,24.1619908 41.5375853,21.3783101 C36.2924893,21.3783101 36.6111724,22.3463011 34.3075464,22.3463011 C32.0039204,22.3463011 28.2151498,20.1982351 21.6813894,19.7083086 Z" id="Path-3" fill="#FFC55D"></path>
            <path d="M19.2807971,49.6068841 L44.7512455,49.6068841 C44.7512455,49.6068841 44.9880088,45.0014631 39.570316,40.6820847 C35.2187748,40.183799 33.5297462,44.7685211 30.4616151,44.7685211 C27.3934839,44.7685211 28.1861714,42.8133527 22.7586865,42.610026 C19.4893781,45.2889387 19.2807971,49.6068841 19.2807971,49.6068841 Z" id="Path-4" fill="#E3AF51"></path>
            <g id="Rectangle-13">
                <use fill="#FFE5B6" fill-rule="evenodd" xlink:href="#path-1"></use>
                <rect stroke="#2B2B2B" stroke-width="1.5625" x="15.1707428" y="10.2794384" width="33.6548913" height="3.32880435" rx="1.66440217"></rect>
            </g>
            <g id="Rectangle-13-Copy">
                <use fill="#FFE5B6" fill-rule="evenodd" xlink:href="#path-2"></use>
                <rect stroke="#2B2B2B" stroke-width="1.5625" x="15.1707428" y="50.3881341" width="33.6548913" height="3.32880435" rx="1.66440217"></rect>
            </g>
        </g>
    </g>
</svg>