<?xml version="1.0" encoding="UTF-8"?>
<svg width="64px" height="64px" viewBox="0 0 64 64" version="1.1" xmlns="http://www.w3.org/2000/svg" xmlns:xlink="http://www.w3.org/1999/xlink">
    <!-- Generator: Sketch 46.2 (44496) - http://www.bohemiancoding.com/sketch -->
    <title>dumbbell</title>
    <desc>Created with Sketch.</desc>
    <defs>
        <path d="M3.66666667,9.87899701 C5.69171075,9.87899701 7.33333333,9.17620244 7.33333333,8.30926141 C7.33333333,7.97954974 7.33333333,1.44760251 7.33333333,1.44760251 C7.33333333,1.44760251 4.92155381,1.13365539 3.66666667,1.13365539 C2.42011581,1.13365539 -4.75800469e-14,1.44760251 -4.75800469e-14,1.44760251 L-5.68434189e-14,8.30926141 C-5.68434189e-14,9.17620244 1.64162258,9.87899701 3.66666667,9.87899701 Z" id="path-1"></path>
        <ellipse id="path-2" cx="3.66666667" cy="1.53853232" rx="3.66666667" ry="1.53853232"></ellipse>
        <path d="M7.33333333,11.984357 C11.3834215,11.984357 14.6666667,10.608051 14.6666667,8.91029147 C14.6666667,8.26460613 14.6666667,4.01577929 14.6666667,4.01577929 C14.6666667,4.01577929 9.84310762,3.40096618 7.33333333,3.40096618 C4.84023162,3.40096618 -4.75800469e-14,4.01577929 -4.75800469e-14,4.01577929 C-4.75800469e-14,4.01577929 -5.68434189e-14,8.25761714 -5.68434189e-14,8.91029147 C-5.68434189e-14,10.608051 3.28324517,11.984357 7.33333333,11.984357 Z" id="path-3"></path>
        <path d="M7.33333333,6.15412928 C11.3834215,6.15412928 14.6666667,4.77648052 14.6666667,3.07706464 C14.6666667,1.37764877 11.3834215,0 7.33333333,0 C3.28324517,0 0,1.37764877 0,3.07706464 C0,4.77648052 3.28324517,6.15412928 7.33333333,6.15412928 Z" id="path-4"></path>
        <path d="M44.0343065,32.9125834 C52.1344829,32.9125834 58.7009732,30.1935398 58.7009732,26.8394295 C58.7009732,25.5638072 58.7009732,21.0092017 58.7009732,21.0092017 C58.7009732,21.0092017 49.0538551,19.794571 44.0343065,19.794571 C39.0481031,19.794571 29.3676399,21.0092017 29.3676399,21.0092017 L29.3676399,26.8394295 C29.3676399,30.1935398 35.9341302,32.9125834 44.0343065,32.9125834 Z" id="path-5"></path>
        <ellipse id="path-6" cx="39.4059417" cy="29.0257649" rx="14.6666667" ry="6.0731539"></ellipse>
        <path d="M3.66666667,15.2233724 C5.69171075,15.2233724 7.33333333,14.5205779 7.33333333,13.6536368 L7.33333333,1.44760251 C7.33333333,1.44760251 4.92155381,1.13365539 3.66666667,1.13365539 C2.42011581,1.13365539 0,1.44760251 0,1.44760251 L0,13.6536368 C0,14.5205779 1.64162258,15.2233724 3.66666667,15.2233724 Z" id="path-7"></path>
        <ellipse id="path-8" cx="3.66666667" cy="1.53853232" rx="3.66666667" ry="1.53853232"></ellipse>
        <path d="M14.6666667,17.9765355 C22.766843,17.9765355 29.3333333,15.2574919 29.3333333,11.9033816 C29.3333333,10.6277594 29.3333333,6.0731539 29.3333333,6.0731539 C29.3333333,6.0731539 19.6862152,4.85852312 14.6666667,4.85852312 C9.68046324,4.85852312 -5.68434189e-14,6.0731539 -5.68434189e-14,6.0731539 L-5.68434189e-14,11.9033816 C-5.68434189e-14,15.2574919 6.56649034,17.9765355 14.6666667,17.9765355 Z" id="path-9"></path>
        <ellipse id="path-10" cx="14.6666667" cy="6.0731539" rx="14.6666667" ry="6.0731539"></ellipse>
        <path d="M7.33333333,11.0126524 C11.3834215,11.0126524 14.6666667,9.63634638 14.6666667,7.93858685 C14.6666667,7.29290151 14.6666667,3.04407467 14.6666667,3.04407467 C14.6666667,3.04407467 9.84310762,2.42926156 7.33333333,2.42926156 C4.84023162,2.42926156 -4.75800469e-14,3.04407467 -4.75800469e-14,3.04407467 C-4.75800469e-14,3.04407467 -5.68434189e-14,7.28591252 -5.68434189e-14,7.93858685 C-5.68434189e-14,9.63634638 3.28324517,11.0126524 7.33333333,11.0126524 Z" id="path-11"></path>
        <ellipse id="path-12" cx="7.33333333" cy="3.07706464" rx="7.33333333" ry="3.07706464"></ellipse>
        <path d="M3.66666667,8.2594893 C5.69171075,8.2594893 7.33333333,7.55669474 7.33333333,6.6897537 C7.33333333,6.36004204 7.33333333,1.44760251 7.33333333,1.44760251 C7.33333333,1.44760251 4.71824702,0.69103842 3.46335988,0.69103842 C2.21680903,0.69103842 -4.75800469e-14,1.44760251 -4.75800469e-14,1.44760251 L-5.68434189e-14,6.6897537 C-5.68434189e-14,7.55669474 1.64162258,8.2594893 3.66666667,8.2594893 Z" id="path-13"></path>
        <ellipse id="path-14" cx="3.66666667" cy="1.53853232" rx="3.66666667" ry="1.53853232"></ellipse>
    </defs>
    <g id="Sticker-size-64*64" stroke="none" stroke-width="1" fill="none" fill-rule="evenodd">
        <g id="dumbbell">
            <rect id="Rectangle" x="0" y="0" width="64" height="64"></rect>
            <g id="Group-2" transform="translate(52.146870, 20.970857) rotate(-120.000000) translate(-52.146870, -20.970857) translate(47.956394, 15.383555)">
                <g id="Oval-22-Copy">
                    <use fill="#E9F4F5" fill-rule="evenodd" xlink:href="#path-1"></use>
                    <path stroke="#2B2B2B" stroke-width="1.5625" d="M6.55208333,2.1400043 C6.33700535,2.11529427 6.11489736,2.09094358 5.89030789,2.06774383 C5.60425077,2.03819456 5.32731667,2.01190347 5.06455409,1.98972667 C4.49279247,1.94147079 4.01425614,1.91490539 3.66666667,1.91490539 C3.31924599,1.91490539 2.83775739,1.9418312 2.26108206,1.99069074 C2.00165676,2.01267087 1.72835097,2.03863299 1.44604276,2.06775505 C1.22051862,2.09101945 0.997382364,2.1154411 0.78125,2.14022211 L0.78125,8.30926141 C0.78125,8.34323802 0.95393437,8.5180231 1.38141108,8.70103003 C1.96121557,8.94924996 2.7813008,9.09774701 3.66666667,9.09774701 C4.55203253,9.09774701 5.37211776,8.94924996 5.95192225,8.70103003 C6.37939896,8.5180231 6.55208333,8.34323802 6.55208333,8.30926141 L6.55208333,4.75479009 C6.55208333,3.12733027 6.55208333,2.56327899 6.55208333,2.14000442 Z"></path>
                </g>
                <g id="Oval-22-Copy-2">
                    <use fill="#FFD3BD" fill-rule="evenodd" xlink:href="#path-2"></use>
                    <ellipse stroke="#2B2B2B" stroke-width="1.5625" cx="3.66666667" cy="1.53853232" rx="2.88541667" ry="1"></ellipse>
                </g>
            </g>
            <g id="Group" transform="translate(48.251391, 23.515614) rotate(-120.000000) translate(-48.251391, -23.515614) translate(40.568851, 17.229900)">
                <g id="Oval-22-Copy">
                    <use fill="#ED6969" fill-rule="evenodd" xlink:href="#path-3"></use>
                    <path stroke="#2B2B2B" stroke-width="1.5625" d="M13.8854167,4.70772671 C13.8520876,4.70379095 13.8178611,4.69976257 13.782762,4.69564583 C13.1723816,4.62405478 12.5229461,4.55245394 11.8625458,4.48565682 C11.2857298,4.42731394 10.7269736,4.37537283 10.1961704,4.3315071 C9.03224138,4.23531966 8.05530812,4.18221618 7.33333333,4.18221618 C6.6115195,4.18221618 5.62868628,4.23603314 4.45484346,4.33341646 C3.93084912,4.37688762 3.37946975,4.42817356 2.81026644,4.48566759 C2.14890917,4.5524699 1.49806248,4.62407646 0.886011931,4.69567363 C0.850176634,4.69986561 0.815247241,4.70396598 0.78125,4.70797026 C0.78125,4.98350875 0.78125,5.40135643 0.78125,6.21828251 L0.78125,8.91029147 C0.78125,9.99084816 3.67315267,11.203107 7.33333333,11.203107 C10.993514,11.203107 13.8854167,9.99084816 13.8854167,8.91029147 L13.8854167,6.22090338 C13.8854167,5.40188846 13.8854167,4.98357672 13.8854167,4.70772671 Z"></path>
                </g>
                <g id="Oval-22-Copy-2">
                    <use fill="#FFD3BD" fill-rule="evenodd" xlink:href="#path-4"></use>
                    <path stroke="#2B2B2B" stroke-width="1.5625" d="M7.33333333,5.37287928 C10.9936283,5.37287928 13.8854167,4.15948567 13.8854167,3.07706464 C13.8854167,1.99464361 10.9936283,0.78125 7.33333333,0.78125 C3.6730384,0.78125 0.78125,1.99464361 0.78125,3.07706464 C0.78125,4.15948567 3.6730384,5.37287928 7.33333333,5.37287928 Z"></path>
                </g>
            </g>
            <g id="Oval-22" transform="translate(44.034307, 26.353577) rotate(-120.000000) translate(-44.034307, -26.353577) ">
                <use fill="#BDCFD1" fill-rule="evenodd" xlink:href="#path-5"></use>
                <path stroke="#2B2B2B" stroke-width="1.5625" d="M57.9197232,21.7008615 C57.646394,21.6680764 57.3472548,21.6327795 57.0252673,21.5954744 C55.8005612,21.4535814 54.4975829,21.3116787 53.1723003,21.1792659 C52.0140996,21.0635466 50.8918377,20.9604952 49.8251036,20.873415 C47.4774272,20.6817683 45.5042733,20.575821 44.0343065,20.575821 C42.5644902,20.575821 40.5795407,20.6831853 38.2119529,20.8772077 C37.1589668,20.9634993 36.0515755,21.0652459 34.9087119,21.1792764 C33.581561,21.3116943 32.2758043,21.4536025 31.0478004,21.5955016 C30.7241994,21.6328945 30.4235615,21.6682699 30.1488899,21.7011209 L30.1488899,26.8394295 C30.1488899,29.5737255 36.325513,32.1313334 44.0343065,32.1313334 C51.7431,32.1313334 57.9197232,29.5737255 57.9197232,26.8394295 L57.9197232,23.4459573 C57.9197232,22.470475 57.9197232,22.0045517 57.9197232,21.7008615 Z"></path>
            </g>
            <g id="Oval-22" transform="translate(39.405942, 29.025765) rotate(-120.000000) translate(-39.405942, -29.025765) ">
                <use fill="#E9F4F5" fill-rule="evenodd" xlink:href="#path-6"></use>
                <ellipse stroke="#2B2B2B" stroke-width="1.5625" cx="39.4059417" cy="29.0257649" rx="13.8854167" ry="5.2919039"></ellipse>
            </g>
            <g id="Group-2" transform="translate(33.484391, 31.745644) rotate(-120.000000) translate(-33.484391, -31.745644) translate(29.293915, 24.063104)">
                <g id="Oval-22-Copy">
                    <use fill="#E9F4F5" fill-rule="evenodd" xlink:href="#path-7"></use>
                    <path stroke="#2B2B2B" stroke-width="1.5625" d="M6.55208333,2.1400043 C6.33700535,2.11529427 6.11489736,2.09094358 5.89030789,2.06774383 C5.60425077,2.03819456 5.32731667,2.01190347 5.06455409,1.98972667 C4.49279247,1.94147079 4.01425614,1.91490539 3.66666667,1.91490539 C3.31924599,1.91490539 2.83775739,1.9418312 2.26108206,1.99069074 C2.00165676,2.01267087 1.72835097,2.03863299 1.44604276,2.06775505 C1.22051862,2.09101945 0.997382364,2.1154411 0.78125,2.14022211 L0.78125,13.6536368 C0.78125,13.6876135 0.95393437,13.8623985 1.38141108,14.0454055 C1.96121557,14.2936254 2.7813008,14.4421224 3.66666667,14.4421224 C4.55203253,14.4421224 5.37211776,14.2936254 5.95192225,14.0454055 C6.37939896,13.8623985 6.55208333,13.6876135 6.55208333,13.6536368 L6.55208333,2.14000418 Z"></path>
                </g>
                <g id="Oval-22-Copy-2">
                    <use fill="#FFD3BD" fill-rule="evenodd" xlink:href="#path-8"></use>
                    <ellipse stroke="#2B2B2B" stroke-width="1.5625" cx="3.66666667" cy="1.53853232" rx="2.88541667" ry="1"></ellipse>
                </g>
            </g>
            <g id="Group-3" transform="translate(22.373909, 38.859213) rotate(-120.000000) translate(-22.373909, -38.859213) translate(7.707243, 29.779848)">
                <g id="Oval-22">
                    <use fill="#BDCFD1" fill-rule="evenodd" xlink:href="#path-9"></use>
                    <path stroke="#2B2B2B" stroke-width="1.5625" d="M28.5520833,6.76481362 C28.2787542,6.73202853 27.9796149,6.69673169 27.6576274,6.65942658 C26.4329213,6.51753351 25.129943,6.37563088 23.8046604,6.24321801 C22.6464597,6.12749878 21.5241979,6.0244473 20.4574637,5.93736714 C18.1097874,5.74572049 16.1366334,5.63977312 14.6666667,5.63977312 C13.1968503,5.63977312 11.2119008,5.74713744 8.84431304,5.94115983 C7.79132696,6.02745141 6.68393563,6.12919806 5.54107199,6.24322853 C4.21392113,6.37564646 2.90816444,6.51755468 1.68016055,6.65945372 C1.35655949,6.69684666 1.05592161,6.73222209 0.78125,6.76507303 L0.78125,11.9033816 C0.78125,14.6376776 6.95787317,17.1952855 14.6666667,17.1952855 C22.3754602,17.1952855 28.5520833,14.6376776 28.5520833,11.9033816 L28.5520833,8.50990942 C28.5520833,7.53442713 28.5520833,7.06850385 28.5520833,6.76481362 Z"></path>
                </g>
                <g id="Oval-22">
                    <use fill="#E9F4F5" fill-rule="evenodd" xlink:href="#path-10"></use>
                    <ellipse stroke="#2B2B2B" stroke-width="1.5625" cx="14.6666667" cy="6.0731539" rx="13.8854167" ry="5.2919039"></ellipse>
                </g>
            </g>
            <g id="Group" transform="translate(16.790781, 41.679405) rotate(-120.000000) translate(-16.790781, -41.679405) translate(9.108242, 36.092103)">
                <g id="Oval-22-Copy">
                    <use fill="#ED6969" fill-rule="evenodd" xlink:href="#path-11"></use>
                    <path stroke="#2B2B2B" stroke-width="1.5625" d="M13.8854167,3.73602208 C13.8520876,3.73208633 13.8178611,3.72805795 13.782762,3.7239412 C13.1723816,3.65235015 12.5229461,3.58074931 11.8625458,3.51395219 C11.2857298,3.45560931 10.7269736,3.4036682 10.1961704,3.35980247 C9.03224138,3.26361503 8.05530812,3.21051156 7.33333333,3.21051156 C6.6115195,3.21051156 5.62868628,3.26432852 4.45484346,3.36171183 C3.93084912,3.40518299 3.37946975,3.45646894 2.81026644,3.51396297 C2.14890917,3.58076527 1.49806248,3.65237184 0.886011931,3.723969 C0.850176634,3.72816099 0.815247241,3.73226136 0.78125,3.73626564 C0.78125,4.01180412 0.78125,4.42965181 0.78125,5.24657789 L0.78125,7.93858685 C0.78125,9.01914353 3.67315267,10.2314024 7.33333333,10.2314024 C10.993514,10.2314024 13.8854167,9.01914353 13.8854167,7.93858685 L13.8854167,5.24919876 C13.8854167,4.43018383 13.8854167,4.0118721 13.8854167,3.73602208 Z"></path>
                </g>
                <g id="Oval-22-Copy-2">
                    <use fill="#ED6969" fill-rule="evenodd" xlink:href="#path-12"></use>
                    <ellipse stroke="#2B2B2B" stroke-width="1.5625" cx="7.33333333" cy="3.07706464" rx="6.55208333" ry="2.29581464"></ellipse>
                </g>
            </g>
            <g id="Group-2" transform="translate(11.612826, 44.593141) rotate(-120.000000) translate(-11.612826, -44.593141) translate(7.612826, 39.926474)">
                <g id="Oval-22-Copy">
                    <use fill="#E9F4F5" fill-rule="evenodd" xlink:href="#path-13"></use>
                    <path stroke="#2B2B2B" stroke-width="1.5625" d="M6.55208333,2.04398578 C6.27397744,1.97085868 5.98385841,1.89837041 5.69141198,1.83013527 C5.42347261,1.76761825 5.16434282,1.71124556 4.91825705,1.66252521 C4.29909417,1.53994262 3.79339427,1.47228842 3.46335988,1.47228842 C3.1757025,1.47228842 2.77699336,1.52531949 2.30397275,1.62361272 C2.03878631,1.6787182 1.75700394,1.74654437 1.46532582,1.82424388 C1.23156301,1.88651547 1.00147225,1.95239542 0.78125,2.01903438 L0.78125,6.6897537 C0.78125,6.72373031 0.95393437,6.89851539 1.38141108,7.08152232 C1.96121557,7.32974226 2.7813008,7.4782393 3.66666667,7.4782393 C4.55203253,7.4782393 5.37211776,7.32974226 5.95192225,7.08152232 C6.37939896,6.89851539 6.55208333,6.72373031 6.55208333,6.6897537 L6.55208333,3.94503623 C6.55208333,2.80829527 6.55208333,2.35765104 6.55208333,2.04398578 Z"></path>
                </g>
                <g id="Oval-22-Copy-2">
                    <use fill="#FFD3BD" fill-rule="evenodd" xlink:href="#path-14"></use>
                    <ellipse stroke="#2B2B2B" stroke-width="1.5625" cx="3.66666667" cy="1.53853232" rx="2.88541667" ry="1"></ellipse>
                </g>
            </g>
        </g>
    </g>
</svg>