<?xml version="1.0" encoding="UTF-8"?>
<svg width="64px" height="64px" viewBox="0 0 64 64" version="1.1" xmlns="http://www.w3.org/2000/svg" xmlns:xlink="http://www.w3.org/1999/xlink">
    <!-- Generator: Sketch 46.2 (44496) - http://www.bohemiancoding.com/sketch -->
    <title>contact</title>
    <desc>Created with Sketch.</desc>
    <defs>
        <rect id="path-1" x="40" y="18.6666667" width="14.6666667" height="10.6666667" rx="3.33333333"></rect>
        <rect id="path-2" x="40" y="26.6666667" width="14.6666667" height="10.6666667" rx="3.33333333"></rect>
        <rect id="path-3" x="40" y="36" width="14.6666667" height="10.6666667" rx="3.33333333"></rect>
        <rect id="path-4" x="13.3333333" y="10.6666667" width="33.3333333" height="45.3333333" rx="5"></rect>
        <ellipse id="path-5" cx="9.94526316" cy="6.58424466" rx="5.76526316" ry="5.7271018"></ellipse>
        <path d="M19.8894737,23.7394671 C19.8894737,21.8155692 19.8894737,20.2852807 19.8894737,19.1486016 C19.8894737,13.8115325 14.0263158,13.7142857 14.0263158,13.7142857 L5.86315789,13.7142857 C5.86315789,13.7142857 0,13.7791169 0,19.1486016 C0,20.2722366 0,21.8025251 0,23.7394671 L19.8894737,23.7394671 Z" id="path-6"></path>
    </defs>
    <g id="Sticker-size-64*64" stroke="none" stroke-width="1" fill="none" fill-rule="evenodd">
        <g id="contact">
            <rect id="Rectangle" x="0" y="0" width="64" height="64"></rect>
            <g id="Rectangle">
                <use fill="#FFC55D" fill-rule="evenodd" xlink:href="#path-1"></use>
                <rect stroke="#2B2B2B" stroke-width="1.66666667" x="40.8333333" y="19.5" width="13" height="9" rx="3.33333333"></rect>
            </g>
            <g id="Rectangle-Copy">
                <use fill="#8BCB76" fill-rule="evenodd" xlink:href="#path-2"></use>
                <rect stroke="#2B2B2B" stroke-width="1.66666667" x="40.8333333" y="27.5" width="13" height="9" rx="3.33333333"></rect>
            </g>
            <g id="Rectangle-Copy-2">
                <use fill="#BDCFD1" fill-rule="evenodd" xlink:href="#path-3"></use>
                <rect stroke="#2B2B2B" stroke-width="1.66666667" x="40.8333333" y="36.8333333" width="13" height="9" rx="3.33333333"></rect>
            </g>
            <g id="Rectangle-50">
                <use fill="#FFEECF" fill-rule="evenodd" xlink:href="#path-4"></use>
                <rect stroke="#FFFFFF" stroke-width="3.33333333" x="15" y="12.3333333" width="30" height="42" rx="5"></rect>
                <rect stroke="#2B2B2B" stroke-width="1.66666667" x="14.1666667" y="11.5" width="31.6666667" height="43.6666667" rx="5"></rect>
            </g>
            <rect id="Rectangle-2" fill="#2B2B2B" x="21.3333333" y="46.6666667" width="17.3333333" height="1.66666667"></rect>
            <rect id="Rectangle-3" fill="#2B2B2B" x="20" y="42.6666667" width="20" height="1.66666667"></rect>
            <g id="Group" transform="translate(20.000000, 16.000000)" fill-rule="nonzero">
                <g id="Oval">
                    <use fill="#FFC55D" fill-rule="evenodd" xlink:href="#path-5"></use>
                    <ellipse stroke="#2B2B2B" stroke-width="1.66666667" cx="9.94526316" cy="6.58424466" rx="4.93192982" ry="4.89376847"></ellipse>
                </g>
                <g id="Shape">
                    <use fill="#FFC55D" fill-rule="evenodd" xlink:href="#path-6"></use>
                    <path stroke="#2B2B2B" stroke-width="1.66666667" d="M19.0561404,22.5134729 C19.0561404,20.9877609 19.0561404,20.7052062 19.0561404,19.1486016 C19.0561404,17.1579075 18.1589599,15.9180093 16.6023644,15.1837287 C16.0363196,14.9167129 15.4209337,14.7384555 14.8041308,14.6346487 C14.4361754,14.5727225 14.1563989,14.5498912 14.0263158,14.547619 L5.87237182,14.5475681 C5.72874081,14.5491563 5.44926226,14.5705285 5.08165692,14.6307021 C4.46547335,14.7315657 3.85074651,14.9072532 3.28540237,15.1723757 C1.73017802,15.9017103 0.833333333,17.1436237 0.833333333,19.1486016 C0.833333333,20.6945299 0.833333333,20.9751466 0.833333333,22.507659 L19.0561404,22.9061337 L19.0561404,22.5134729 Z"></path>
                </g>
            </g>
        </g>
    </g>
</svg>