<?xml version="1.0" encoding="UTF-8"?>
<svg width="64px" height="64px" viewBox="0 0 64 64" version="1.1" xmlns="http://www.w3.org/2000/svg" xmlns:xlink="http://www.w3.org/1999/xlink">
    <!-- Generator: Sketch 46.2 (44496) - http://www.bohemiancoding.com/sketch -->
    <title>balance</title>
    <desc>Created with Sketch.</desc>
    <defs>
        <path d="M2.48959501,4.88888889 L12.1874276,4.88888889 L12.1874276,4.88889118 C13.1079009,4.88889118 13.854092,5.63508224 13.854092,6.55555556 C13.854092,6.56505218 13.8540108,6.57454863 13.8538485,6.58404387 C13.7735746,11.2796543 11.6064319,13.6274595 7.35242046,13.6274595 C3.1006428,13.6274595 0.924274063,11.2821193 0.823314261,6.59143906 L0.823294939,6.59143947 C0.803487473,5.67116735 1.5334583,4.90908228 2.45373042,4.88927481 C2.46568355,4.88901754 2.47763911,4.88888889 2.48959501,4.88888889 Z" id="path-1"></path>
        <path d="M2.50440503,4.88888889 L12.2000939,4.88888889 L12.2000939,4.8888956 C13.1205648,4.8888956 13.8667539,5.63508468 13.8667539,6.55555556 C13.8667539,6.5622742 13.8667133,6.56899279 13.866632,6.57571095 C13.8116583,11.1211812 11.6629091,13.3939164 7.42038442,13.3939164 C3.18960311,13.3939164 0.995722453,11.1337458 0.838742453,6.61340457 L0.838737681,6.61340474 C0.806791097,5.69348206 1.52663795,4.92183957 2.44656062,4.88989298 C2.46583483,4.88922364 2.4851192,4.88888889 2.50440503,4.88888889 Z" id="path-2"></path>
        <rect id="path-3" x="29.3333333" y="10.6666667" width="6.66666667" height="41.3333333" rx="3.33333333"></rect>
        <path d="M39.7941901,50.2222222 L41.2380952,50.2222222 C43.131643,50.2222222 44.6666667,51.8140987 44.6666667,53.7777778 L44.6666667,57.3333333 L20.6666667,57.3333333 L20.6666667,53.7777778 C20.6666667,51.8140987 22.2016904,50.2222222 24.0952381,50.2222222 L25.4960364,50.2222222 C25.5747035,50.2276906 25.6540811,50.2304688 25.7340844,50.2304688 C27.6185562,50.2304688 29.1558679,48.6890489 29.2376065,46.7556746 C29.5147094,46.6973074 29.8015233,46.6666667 30.0952381,46.6666667 C31.0600432,46.6666667 34.2732902,46.6666667 35.2380952,46.6666667 C35.535935,46.6666667 35.8266787,46.698174 36.1073961,46.7581501 C36.1262045,48.6820688 37.6359553,50.2356771 39.4956113,50.2356771 C39.596222,50.2356771 39.6958085,50.2311297 39.7941901,50.2222222 Z" id="path-4"></path>
    </defs>
    <g id="Sticker-size-64*64" stroke="none" stroke-width="1" fill="none" fill-rule="evenodd">
        <g id="balance">
            <rect id="Rectangle" x="0" y="0" width="64" height="64"></rect>
            <g id="Group" transform="translate(44.000000, 24.000000)">
                <g id="Rectangle-111">
                    <use fill="#BDCFD1" fill-rule="evenodd" xlink:href="#path-1"></use>
                    <path stroke="#2B2B2B" stroke-width="1.66666667" d="M2.48959501,5.72222222 C2.48062807,5.72225438 2.48062807,5.72225438 2.47166251,5.72241518 C2.01152253,5.732319 1.64654101,6.11336053 1.65645464,6.57350697 C1.74802297,10.8278516 3.5726361,12.7941262 7.35242046,12.7941262 C11.1328018,12.7941262 12.9478447,10.8277734 13.0206369,6.56979969 C13.0207383,6.56267797 13.0207383,6.56267797 13.0207586,6.55555556 C13.0207586,6.09531936 12.647663,5.72222337 12.1874276,5.72222222 L2.48959501,5.72222222 Z"></path>
                </g>
                <path d="M1.89798539,6.032534 L6.16773671,1.38560817 L6.16773671,1.38560817 C6.79052172,0.707808577 7.84485386,0.663210439 8.52265345,1.28599545 C8.55724676,1.31778094 8.59048069,1.35101486 8.62226618,1.38560817 L12.8920175,6.032534" id="Path-59" stroke="#2B2B2B" stroke-width="1.66666667"></path>
            </g>
            <g id="Group-Copy" transform="translate(4.000000, 13.333333)">
                <g id="Rectangle-111">
                    <use fill="#BDCFD1" fill-rule="evenodd" xlink:href="#path-2"></use>
                    <path stroke="#2B2B2B" stroke-width="1.66666667" d="M2.50440503,5.72222222 C2.48994098,5.72230591 2.48994098,5.72230591 2.47548274,5.72272427 C2.01552044,5.7386976 1.65559797,6.12451858 1.67157374,6.58448245 C1.81336802,10.6675409 3.65088795,12.560583 7.42038442,12.560583 C11.193472,12.560583 12.983757,10.6669959 13.0333596,6.56563321 C13.0334104,6.56059451 13.0334104,6.56059451 13.0334205,6.55555556 C13.0334205,6.09532148 12.6603257,5.72222558 12.2000939,5.72222222 L2.50440503,5.72222222 Z"></path>
                </g>
                <path d="M1.89798539,6.032534 L6.16773671,1.38560817 L6.16773671,1.38560817 C6.79052172,0.707808577 7.84485386,0.663210439 8.52265345,1.28599545 C8.55724676,1.31778094 8.59048069,1.35101486 8.62226618,1.38560817 L12.8920175,6.032534" id="Path-59" stroke="#2B2B2B" stroke-width="1.66666667"></path>
            </g>
            <g id="Rectangle-112">
                <use fill="#FFF9ED" fill-rule="evenodd" xlink:href="#path-3"></use>
                <rect stroke="#2B2B2B" stroke-width="1.66666667" x="30.1666667" y="11.5" width="5" height="39.6666667" rx="2.5"></rect>
            </g>
            <path d="M12,13.3333333 L52,24" id="Path-58" stroke="#2B2B2B" stroke-width="1.66666667" stroke-linecap="round"></path>
            <g id="Combined-Shape">
                <use fill="#BDCFD1" fill-rule="evenodd" xlink:href="#path-4"></use>
                <path stroke="#2B2B2B" stroke-width="1.66666667" d="M39.8297114,51.0555556 C39.7189079,51.0645114 39.6074792,51.0690104 39.4956113,51.0690104 C37.4183578,51.0690104 35.6981848,49.5272072 35.3416842,47.5015873 C35.3072355,47.50053 35.2727036,47.5 35.2380952,47.5 L30.0952381,47.5 C30.0582974,47.5 30.0214438,47.5006038 29.9846855,47.5018083 C29.5770925,49.5362434 27.8285194,51.0638021 25.7340844,51.0638021 C25.6351022,51.0638021 25.53645,51.0603757 25.4960364,51.0555556 L24.0952381,51.0555556 C22.6688452,51.0555556 21.5,52.2676913 21.5,53.7777778 L21.5,56.5 L43.8333333,56.5 L43.8333333,53.7777778 C43.8333333,52.2676913 42.6644882,51.0555556 41.2380952,51.0555556 L39.8297114,51.0555556 Z"></path>
            </g>
            <rect id="Rectangle-113" fill="#2B2B2B" opacity="0.900000036" x="14" y="56" width="37.3333333" height="1.66666667" rx="0.833333333"></rect>
            <circle id="Oval-48" stroke="#2B2B2B" stroke-width="1.66666667" fill="#FFC300" cx="32" cy="21.3333333" r="5.33333333"></circle>
        </g>
    </g>
</svg>