<?xml version="1.0" encoding="UTF-8"?>
<svg width="64px" height="64px" viewBox="0 0 64 64" version="1.1" xmlns="http://www.w3.org/2000/svg" xmlns:xlink="http://www.w3.org/1999/xlink">
    <!-- Generator: Sketch 46.2 (44496) - http://www.bohemiancoding.com/sketch -->
    <title>customer</title>
    <desc>Created with Sketch.</desc>
    <defs>
        <path d="M15.259375,26.9026658 C11.4320833,26.9026658 8.10583333,24.7460517 6.41833333,21.5760384 C5.27125,19.4210994 5.89390899,16.4693519 7.88203399,15.0621088 C8.26349232,14.7920086 8.65765899,14.4840107 9.04536732,14.1362305 C10.239534,13.0652517 10.9776974,11.9619914 11.371864,11.1343123 C11.7095724,10.4253516 12.4876974,10.025017 13.245614,10.2191123 C19.1420724,11.7291609 23.0652111,14.0603432 24.5102111,15.3105512 C24.8941694,15.6428372 25.2885417,17.1095442 25.2495833,17.6172907 C24.8510417,22.812218 20.530625,26.9026658 15.259375,26.9026658 Z" id="path-1"></path>
        <path d="M22,20 L24,20 L24,28 L22,28 L22,28 C20.1590508,28 18.6666667,26.5076158 18.6666667,24.6666667 L18.6666667,23.3333333 L18.6666667,23.3333333 C18.6666667,21.4923842 20.1590508,20 22,20 Z" id="path-2"></path>
        <path d="M47.3333333,20 L49.3333333,20 L49.3333333,28 L47.3333333,28 L47.3333333,28 C45.4923842,28 44,26.5076158 44,24.6666667 L44,23.3333333 L44,23.3333333 C44,21.4923842 45.4923842,20 47.3333333,20 Z" id="path-3"></path>
    </defs>
    <g id="Sticker-size-64*64" stroke="none" stroke-width="1" fill="none" fill-rule="evenodd">
        <g id="customer">
            <rect id="Rectangle" x="0" y="0" width="64" height="64"></rect>
            <g id="team-3" transform="translate(18.666667, 6.666667)">
                <path d="M26.9495833,11.7969453 C26.491875,5.32438124 21.715625,0.0480051247 15.259375,0.0480051247 C8.803125,0.0480051247 4.026875,5.32438124 3.56916667,11.7969453 C3.29645833,15.6558188 3.56916667,21.8674954 1.89916667,25.2242756 C1.89916667,25.2242756 3.56916667,28.5810559 9.728125,30.2640523 L20.824375,30.259446 C26.9495833,28.5810559 28.6195833,25.2242756 28.6195833,25.2242756 C26.9495833,21.8674954 27.2222917,15.6558188 26.9495833,11.7969453 Z" id="Shape" stroke="#2B2B2B" stroke-width="1.66666667" fill="#AB6F7B" fill-rule="nonzero"></path>
                <path d="M30.2895833,50.4003368 L30.2895833,38.8031971 C30.2895833,36.896164 29.2175,35.1526567 27.52,34.2996426 L27.52,34.2996426 L22.115625,31.5839839 C20.9839583,31.0153078 20.2691667,29.85283 20.2691667,28.5812652 L20.269375,23.5456761 L10.249375,23.5456761 L10.249375,28.5812652 C10.249375,29.8526206 9.53458333,31.014889 8.403125,31.5835651 L2.99854167,34.2994332 C1.30125,35.1524473 0.229166667,36.8957452 0.229166667,38.8029877 L0.229166667,50.4003368" id="Shape" stroke="#2B2B2B" stroke-width="1.66666667" fill="#FFF9ED" fill-rule="nonzero"></path>
                <path d="M30.2895833,50.3356855 L30.2895833,38.8034065 C30.2895833,36.896164 29.2172917,35.1526567 27.52,34.2996426 L22.115625,31.5839839 C21.8045833,31.4277864 21.53375,31.2194533 21.2920833,30.9836914 L19.3754167,33.1277427 C17.1116667,35.6599844 13.4072917,35.6597751 11.1435417,33.1277427 L9.22666667,30.983482 C8.98479167,31.2192439 8.71395833,31.427577 8.40333333,31.5837745 L2.99854167,34.2996426 C1.30145833,35.1524473 0.229375,36.8959546 0.229375,38.8029877 L0.229166667,50.3356855" id="Shape" stroke="#2B2B2B" stroke-width="1.66666667" fill="#ED6969" fill-rule="nonzero" stroke-linecap="round"></path>
                <g id="Shape" fill-rule="nonzero">
                    <use fill="#FFF9ED" fill-rule="evenodd" xlink:href="#path-1"></use>
                    <path stroke="#2B2B2B" stroke-width="1.66666667" d="M15.259375,26.0693324 C20.0655069,26.0693324 24.0511791,22.3440133 24.4186922,17.5535381 C24.4439074,17.2249063 24.0907974,16.0496486 23.9649651,15.9407506 C22.0744521,14.3050865 17.9273856,12.2783128 13.0388768,11.0263942 C12.6842866,10.935587 12.298382,11.1270255 12.1242359,11.4926153 C11.6075211,12.5776234 10.748804,13.7278935 9.60181414,14.7565621 C9.20986529,15.1081461 8.79572266,15.4362365 8.36348448,15.7422926 C6.73903364,16.8921182 6.19147472,19.3763572 7.15393303,21.1844551 C8.74214754,24.1679579 11.8336659,26.0693324 15.259375,26.0693324 Z"></path>
                </g>
                <path d="M7.0877193,43.6129032 L7.0877193,49.9867692" id="Path-2" stroke="#2B2B2B" stroke-width="1.66666667" stroke-linecap="round"></path>
                <path d="M23.9298246,43.6129032 L23.9298246,49.9867692" id="Path-2-Copy" stroke="#2B2B2B" stroke-width="1.66666667" stroke-linecap="round"></path>
            </g>
            <g id="Rectangle-114">
                <use fill="#E9F4F5" fill-rule="evenodd" xlink:href="#path-2"></use>
                <path stroke="#2B2B2B" stroke-width="1.66666667" d="M23.1666667,27.1666667 L23.1666667,20.8333333 L22,20.8333333 C20.6192881,20.8333333 19.5,21.9526215 19.5,23.3333333 L19.5,24.6666667 C19.5,26.0473785 20.6192881,27.1666667 22,27.1666667 L23.1666667,27.1666667 Z"></path>
            </g>
            <g id="Rectangle-114-Copy" transform="translate(46.666667, 24.000000) scale(-1, 1) translate(-46.666667, -24.000000) ">
                <use fill="#E9F4F5" fill-rule="evenodd" xlink:href="#path-3"></use>
                <path stroke="#2B2B2B" stroke-width="1.66666667" d="M48.5,27.1666667 L48.5,20.8333333 L47.3333333,20.8333333 C45.9526215,20.8333333 44.8333333,21.9526215 44.8333333,23.3333333 L44.8333333,24.6666667 C44.8333333,26.0473785 45.9526215,27.1666667 47.3333333,27.1666667 L48.5,27.1666667 Z"></path>
            </g>
            <circle id="Oval-49" fill="#2B2B2B" cx="34" cy="28.6666667" r="2"></circle>
            <path d="M23.3392771,21.3333333 C23.1694514,14.2594547 26.638805,10.7039946 33.7473378,10.6669531 C40.8558706,10.6299116 44.4956469,14.1853717 44.6666667,21.3333333" id="Path-61" stroke="#2B2B2B" stroke-width="1.66666667"></path>
            <path d="M22.6666667,25.3333333 C24.6429606,26.2431838 29.7392838,27.8334456 33.3333333,28" id="Path-60" stroke="#2B2B2B" stroke-width="1.66666667" stroke-linecap="round"></path>
        </g>
    </g>
</svg>