<?xml version="1.0" encoding="UTF-8"?>
<svg width="64px" height="64px" viewBox="0 0 64 64" version="1.1" xmlns="http://www.w3.org/2000/svg" xmlns:xlink="http://www.w3.org/1999/xlink">
    <!-- Generator: Sketch 46.2 (44496) - http://www.bohemiancoding.com/sketch -->
    <title>folder</title>
    <desc>Created with Sketch.</desc>
    <defs>
        <path d="M27.111875,1.87890963 C26.5638151,1.32660444 25.8204297,1.01632889 25.0453255,1.01632889 L2.87546875,1.01632889 C1.66496094,1.01632889 0.68359375,2.00520593 0.68359375,3.22518222 L0.68359375,37.0948178 C0.68359375,38.3147941 1.66496094,39.3036711 2.87546875,39.3036711 L43.7911068,39.3036711 C45.0017057,39.3036711 45.9829818,38.3147022 45.9829818,37.0948178 L45.9829818,7.64298074 C45.9829818,6.42300444 45.0016146,5.43412741 43.7911068,5.43412741 L30.6396745,5.43403556 L27.111875,1.87890963 Z" id="path-1"></path>
    </defs>
    <g id="Sticker-size-64*64" stroke="none" stroke-width="1" fill="none" fill-rule="evenodd">
        <g id="folder">
            <rect id="Rectangle" x="0" y="0" width="64" height="64"></rect>
            <g transform="translate(10.666667, 12.000000)">
                <g id="Shape" fill-rule="nonzero">
                    <use fill="#FFDC64" fill-rule="evenodd" xlink:href="#path-1"></use>
                    <path stroke="#2B2B2B" stroke-width="1.66666667" d="M30.9867397,4.60070465 L43.7911068,4.60079407 C45.4633235,4.60079407 46.8163151,5.96422683 46.8163151,7.64298074 L46.8163151,37.0948178 C46.8163151,38.7735327 45.4633625,40.1370044 43.7911068,40.1370044 L2.87546875,40.1370044 C1.20325202,40.1370044 -0.149739583,38.7735717 -0.149739583,37.0948178 L-0.149739583,3.22518222 C-0.149739583,1.54642831 1.20325202,0.182995556 2.87546875,0.182995556 L25.0453255,0.182995556 C26.0428064,0.182995556 26.9990532,0.582129395 27.7033996,1.29193174 L30.9867397,4.60070465 Z"></path>
                </g>
                <path d="M20.588112,5.43403556 L30.6397656,5.43403556 L27.1119661,1.87890963 C26.5639063,1.32660444 25.8205208,1.01632889 25.0454167,1.01632889 L14.0857682,1.01632889 C14.8608724,1.01632889 15.6042578,1.32660444 16.1523177,1.87890963 L19.0381771,4.78712296 C19.4492448,5.20137481 20.0066927,5.43403556 20.588112,5.43403556 Z" id="Shape" fill="#FFC850" fill-rule="nonzero"></path>
                <path d="M25.0453255,1.01632889 L19.6801172,1.01632889 C20.4552214,1.01632889 21.1986068,1.32660444 21.7466667,1.87890963 L24.632526,4.78703111 C25.0435937,5.20128296 25.6011328,5.43403556 26.1823698,5.43403556 L30.6396745,5.43403556 L27.111875,1.87890963 C26.5638151,1.32660444 25.8204297,1.01632889 25.0453255,1.01632889 Z" id="Shape" fill="#FFAF3C" fill-rule="nonzero"></path>
                <path d="M12.3409017,0.187733459 C15.2292887,0.218451538 16.3694255,1.84194661 17.366333,3.06458984 C18.3632406,4.28723307 19.7505697,4.6380013 21.6666667,4.6380013 C22.9440647,4.6380013 26.4632161,4.6380013 32.2241211,4.6380013" id="Path-2" stroke="#2B2B2B" stroke-width="1.66666667"></path>
            </g>
            <g id="Group" transform="translate(25.333333, 22.666667)" stroke-width="1.66666667" stroke="#2B2B2B">
                <polygon id="Rectangle-85" fill="#FFFFFF" points="0 0 11.1653646 0 14 2.61328125 17.3333333 5.25585937 17.3333333 22.7285156 0 22.7285156"></polygon>
                <polyline id="Path-43" fill="#E9F4F5" points="10.5465495 0.418619792 10.5465495 5.96321615 16.8697917 5.96321615"></polyline>
            </g>
            <rect id="Rectangle" fill="#BDCFD1" x="29.3333333" y="30.6666667" width="6.66666667" height="1.66666667" rx="0.833333333"></rect>
            <rect id="Rectangle-2" fill="#BDCFD1" x="29.3333333" y="36" width="10.6666667" height="1.66666667" rx="0.833333333"></rect>
        </g>
    </g>
</svg>