<?xml version="1.0" encoding="UTF-8"?>
<svg width="64px" height="64px" viewBox="0 0 64 64" version="1.1" xmlns="http://www.w3.org/2000/svg" xmlns:xlink="http://www.w3.org/1999/xlink">
    <!-- Generator: Sketch 46.2 (44496) - http://www.bohemiancoding.com/sketch -->
    <title>flag</title>
    <desc>Created with Sketch.</desc>
    <defs>
        <path d="M1.5625,3.125 L6.25,3.125 L6.25,47.65625 L6.25,47.65625 C6.25,48.9506674 5.20066738,50 3.90625,50 L3.90625,50 L3.90625,50 C2.61183262,50 1.5625,48.9506674 1.5625,47.65625 L1.5625,3.125 Z" id="path-1"></path>
        <polyline id="path-2" points="30.2572632 9.375 42.1875 9.375 42.1875 28.125 15.625 28.125"></polyline>
    </defs>
    <g id="Sticker-size-64*64" stroke="none" stroke-width="1" fill="none" fill-rule="evenodd">
        <g id="flag">
            <g id="Group-2">
                <rect id="Rectangle" x="0" y="0" width="64" height="64"></rect>
                <g id="Group" transform="translate(12.468750, 8.562500)">
                    <g id="Rectangle-9">
                        <use fill="#F5E0C7" fill-rule="evenodd" xlink:href="#path-1"></use>
                        <path stroke="#2B2B2B" stroke-width="1.5625" d="M2.34375,3.90625 L2.34375,47.65625 C2.34375,48.5191949 3.04330508,49.21875 3.90625,49.21875 C4.76919492,49.21875 5.46875,48.5191949 5.46875,47.65625 L5.46875,3.90625 L2.34375,3.90625 Z"></path>
                    </g>
                    <rect id="Rectangle-10" stroke="#2B2B2B" stroke-width="1.5625" x="0.78125" y="0.78125" width="6.25" height="3.125"></rect>
                    <g id="Rectangle-11-Copy">
                        <use fill="#ED6969" fill-rule="evenodd" xlink:href="#path-2"></use>
                        <path stroke="#2B2B2B" stroke-width="1.5625" d="M30.6385741,10.15625 L17.2256662,27.34375 L41.40625,27.34375 L41.40625,10.15625 L30.6385741,10.15625 Z"></path>
                    </g>
                    <polygon id="Rectangle-12-Copy" fill="#FFFFFF" points="31.25 15.15625 40.625 15.15625 40.625 22.65625 27.2499084 22.65625 31.25 20.927002"></polygon>
                    <polygon id="Rectangle-11-Copy" fill="#B35D5D" points="31.25 20.6112671 31.25 21.875 15.625 28.125 15.625 20.6112671"></polygon>
                    <path d="M17.1875,22.1737671 L17.1875,25.817136 L26.2959223,22.1737671 L17.1875,22.1737671 Z M30.6697021,20.4242552 L31.25,21.875 L29.6875,21.875 L29.6875,20.6112671 L30.2021723,20.6112671 L30.7445068,20.6112671 L31.25,20.6112671 L31.25,21.875 L30.5030823,22.1737671 L26.2959223,22.1737671 L30.6697021,20.4242552 Z M31.25,20.6112671 L31.25,21.875 L15.625,28.125 L15.625,20.6112671 L31.25,20.6112671 Z" id="Rectangle-11-Copy" fill="#2B2B2B" fill-rule="nonzero"></path>
                    <rect id="Rectangle-11" fill="#ED6969" x="4.6875" y="3.125" width="26.5625" height="18.75"></rect>
                    <path d="M6.25,4.6875 L6.25,20.3125 L29.6875,20.3125 L29.6875,4.6875 L6.25,4.6875 Z M4.6875,3.125 L31.25,3.125 L31.25,21.875 L4.6875,21.875 L4.6875,3.125 Z" id="Rectangle-11" fill="#2B2B2B" fill-rule="nonzero"></path>
                    <rect id="Rectangle-12" fill="#FFFFFF" x="6.25" y="8.75" width="23.4375" height="7.5"></rect>
                </g>
            </g>
        </g>
    </g>
</svg>