<?xml version="1.0" encoding="UTF-8"?>
<svg width="64px" height="64px" viewBox="0 0 64 64" version="1.1" xmlns="http://www.w3.org/2000/svg" xmlns:xlink="http://www.w3.org/1999/xlink">
    <!-- Generator: Sketch 46.2 (44496) - http://www.bohemiancoding.com/sketch -->
    <title>briefcase</title>
    <desc>Created with Sketch.</desc>
    <defs>
        <rect id="path-1" x="0" y="9.63865885" width="46.6666667" height="31.6946745"></rect>
        <path d="M0,4.96 L46.6666667,4.96 L46.6666667,14.8266667 L46.6666667,14.8266667 C46.6666667,18.508565 43.6818983,21.4933333 40,21.4933333 L6.66666667,21.4933333 L6.66666667,21.4933333 C2.98476833,21.4933333 -1.32545434e-15,18.508565 -1.77635684e-15,14.8266667 L0,4.96 Z" id="path-2"></path>
        <path d="M23.3333333,35.4752802 L23.3333333,35.4752802 C20.4196555,35.4752802 18.0576393,33.1159396 18.0576393,30.2055624 L18.0576393,24.9358446 L28.6090274,24.9358446 L28.6090274,30.2055624 C28.6090274,33.1159396 26.2470111,35.4752802 23.3333333,35.4752802 Z" id="path-3"></path>
        <path d="M23.3333333,13.0781762 C22.0419792,13.0781762 20.9951693,14.1238003 20.9951693,15.4136916 L20.9951693,30.2055624 L23.3333333,32.5410778 L25.6714974,30.2055624 L25.6714974,15.4136916 C25.6714974,14.1238003 24.6246875,13.0781762 23.3333333,13.0781762 Z" id="path-4"></path>
    </defs>
    <g id="Sticker-size-64*64" stroke="none" stroke-width="1" fill="none" fill-rule="evenodd">
        <g id="briefcase">
            <g id="suitcase" transform="translate(9.333333, 9.333333)">
                <path d="M45.9359505,14.6351865 L45.9359505,7.62854919 L0.730716146,7.62854919 L0.730716146,14.6351865 C0.730716146,18.0748664 3.52233073,20.8633186 6.96591146,20.8633186 L39.7007552,20.8633186 C43.1443359,20.8633186 45.9359505,18.0748664 45.9359505,14.6351865 Z" id="Shape" fill="#55606E" fill-rule="nonzero"></path>
                <rect id="Rectangle" stroke="#2B2B2B" stroke-width="1.66666667" x="15.8333333" y="0.833333333" width="15" height="8.25333333" rx="3.33333333"></rect>
                <g id="Rectangle-52-Copy" transform="translate(23.333333, 25.485996) scale(1, -1) translate(-23.333333, -25.485996) ">
                    <use fill="#8497DD" fill-rule="evenodd" xlink:href="#path-1"></use>
                    <rect stroke="#2B2B2B" stroke-width="1.66666667" x="0.833333333" y="10.4719922" width="45" height="30.0280078"></rect>
                </g>
                <g id="Rectangle-52">
                    <use fill="#8497DD" fill-rule="evenodd" xlink:href="#path-2"></use>
                    <path stroke="#2B2B2B" stroke-width="1.66666667" d="M0.833333333,5.79333333 L0.833333333,14.8266667 C0.833333333,18.0483277 3.44500563,20.66 6.66666667,20.66 L40,20.66 C43.221661,20.66 45.8333333,18.0483277 45.8333333,14.8266667 L45.8333333,5.79333333 L0.833333333,5.79333333 Z"></path>
                </g>
                <g id="Shape" fill-rule="nonzero">
                    <use fill="#FFC55D" fill-rule="evenodd" xlink:href="#path-3"></use>
                    <path stroke="#2B2B2B" stroke-width="1.66666667" d="M23.3333333,36.3086135 C19.9596296,36.3086135 17.224306,33.5763885 17.224306,30.2055624 L17.224306,24.1025113 L29.4423607,24.1025113 L29.4423607,30.2055624 C29.4423607,33.5763885 26.7070371,36.3086135 23.3333333,36.3086135 Z"></path>
                </g>
                <g id="Shape" fill-rule="nonzero">
                    <use fill="#FFC55D" fill-rule="evenodd" xlink:href="#path-4"></use>
                    <path stroke="#2B2B2B" stroke-width="1.5625" d="M23.3333333,12.2969262 C25.0559619,12.2969262 26.4527474,13.6921295 26.4527474,15.4136916 L26.4527474,30.5294261 L23.3333333,33.6453066 L20.2139193,30.5294261 L20.2139193,15.4136916 C20.2139193,13.6921295 21.6107048,12.2969262 23.3333333,12.2969262 Z"></path>
                </g>
                <path d="M23.3333333,16.9220852 C23.7368359,16.9220852 24.0640495,16.5953333 24.0640495,16.1921968 L24.0640495,15.4136916 C24.0640495,15.0106461 23.7369271,14.6838032 23.3333333,14.6838032 C22.9298307,14.6838032 22.6026172,15.0105551 22.6026172,15.4136916 L22.6026172,16.1921968 C22.6026172,16.5953333 22.9298307,16.9220852 23.3333333,16.9220852 Z" id="Shape" fill="#000000" fill-rule="nonzero"></path>
                <path d="M22.6026172,26.3129457 C22.6026172,26.7159912 22.9297396,27.0428341 23.3333333,27.0428341 C23.7368359,27.0428341 24.0640495,26.7160822 24.0640495,26.3129457 L24.0640495,25.5344405 C24.0640495,25.131395 23.7369271,24.8045521 23.3333333,24.8045521 C22.9298307,24.8045521 22.6026172,25.131304 22.6026172,25.5344405 L22.6026172,26.3129457 Z" id="Shape" fill="#000000" fill-rule="nonzero"></path>
            </g>
            <rect id="Rectangle" x="0" y="0" width="64" height="64"></rect>
        </g>
    </g>
</svg>