<?xml version="1.0" encoding="UTF-8"?>
<svg width="64px" height="64px" viewBox="0 0 64 64" version="1.1" xmlns="http://www.w3.org/2000/svg" xmlns:xlink="http://www.w3.org/1999/xlink">
    <!-- Generator: Sketch 46.2 (44496) - http://www.bohemiancoding.com/sketch -->
    <title>mouse</title>
    <desc>Created with Sketch.</desc>
    <defs>
        <path d="M28.9958517,47.7016734 L18.3540743,47.7016734 C14.4358867,47.7016734 11.2595216,44.4969327 11.2595216,40.5437424 L11.2595216,22.6488627 C11.2595216,16.7190251 16.0240693,11.911914 21.9014026,11.911914 L25.4487308,11.911914 C31.3260642,11.911914 36.0906119,16.7190251 36.0906119,22.6488627 L36.0906119,40.5437424 C36.0905082,44.4969327 32.9140393,47.7016734 28.9958517,47.7016734 Z" id="path-1"></path>
        <path d="M23.6749112,26.0037014 L23.6749112,26.0037014 C22.6952865,26.0037014 21.9012989,25.2026209 21.9012989,24.2142449 L21.9012989,20.6352271 C21.9012989,19.646851 22.6952865,18.8457705 23.6749112,18.8457705 L23.6749112,18.8457705 C24.6545359,18.8457705 25.4485234,19.646851 25.4485234,20.6352271 L25.4485234,24.2142449 C25.4486271,25.2026209 24.6545359,26.0037014 23.6749112,26.0037014 Z" id="path-2"></path>
    </defs>
    <g id="Sticker-size-64*64" stroke="none" stroke-width="1" fill="none" fill-rule="evenodd">
        <g id="mouse">
            <g id="Group" transform="translate(9.333333, 4.000000)">
                <g id="mouse" transform="translate(0.000000, 3.354839)" fill-rule="nonzero">
                    <g id="Shape">
                        <use fill="#ED6969" fill-rule="evenodd" xlink:href="#path-1"></use>
                        <path stroke="#2B2B2B" stroke-width="1.66666667" d="M28.9958517,48.5350067 L18.3540743,48.5350067 C13.9739822,48.5350067 10.4261882,44.9555191 10.4261882,40.5437424 L10.4261882,22.6488627 C10.4261882,16.2604387 15.5621648,11.0785806 21.9014026,11.0785806 L25.4487308,11.0785806 C31.7879687,11.0785806 36.9239452,16.2604387 36.9239452,22.6488627 L36.9239452,40.5437643 C36.9238295,44.9555294 33.3759383,48.5350067 28.9958517,48.5350067 Z"></path>
                    </g>
                    <path d="M8.14390603,6.95530655 C7.81919664,6.62780104 7.29277541,6.62780104 6.96816973,6.95530655 C6.64346033,7.28302132 6.64346033,7.81404062 6.96816973,8.14165076 L8.741782,9.93110734 C9.07986971,10.2721107 9.65088533,10.2493004 9.96169786,9.8828709 C10.240361,9.55452833 10.2202416,9.05008615 9.9175183,8.74465849 L8.14390603,6.95530655 Z" id="Shape" fill="#2B2B2B"></path>
                    <path d="M4.78158719,3.60046784 C4.4568778,3.27296233 3.93045657,3.27296233 3.60585088,3.60046784 C3.28114149,3.92818261 3.28114149,4.45920191 3.60585088,4.78681205 L5.37946316,6.57626863 C5.71755087,6.91727196 6.28856649,6.89446167 6.59937902,6.5280322 C6.87804211,6.19968962 6.85792278,5.69524744 6.55519946,5.38981978 L4.78158719,3.60046784 Z" id="Shape-Copy-2" fill="#2B2B2B"></path>
                    <path d="M12.5995421,9.39415003 C13.0586569,9.39415003 13.4309682,9.018722 13.4309682,8.55529648 L13.4309682,5.87111161 C13.4309682,5.40779073 13.0587606,5.03225806 12.5995421,5.03225806 C12.1403235,5.03225806 11.7681159,5.4076861 11.7681159,5.87111161 L11.7681159,8.55529648 C11.7681159,9.018722 12.1403235,9.39415003 12.5995421,9.39415003 Z" id="Shape" fill="#2B2B2B"></path>
                    <path d="M12.5995421,4.36189197 C13.0586569,4.36189197 13.4309682,3.98646394 13.4309682,3.52303842 L13.4309682,0.83885355 C13.4309682,0.375532667 13.0587606,0 12.5995421,0 C12.1403235,0 11.7681159,0.375428032 11.7681159,0.83885355 L11.7681159,3.52303842 C11.7681159,3.98646394 12.1403235,4.36189197 12.5995421,4.36189197 Z" id="Shape-Copy" fill="#2B2B2B"></path>
                    <path d="M8.5354265,11.7419355 L5.87490439,11.7419355 C5.41578957,11.7419355 5.04347826,12.1173635 5.04347826,12.580789 C5.04347826,13.0441099 5.41568586,13.4196426 5.87490439,13.4196426 L8.53532279,13.4196426 C8.99443761,13.4196426 9.36674892,13.0442146 9.36674892,12.580789 C9.36685263,12.1173635 8.99454131,11.7419355 8.5354265,11.7419355 Z" id="Shape" fill="#2B2B2B"></path>
                    <path d="M3.49194824,11.7419355 L0.831426125,11.7419355 C0.372311312,11.7419355 0,12.1173635 0,12.580789 C0,13.0441099 0.372207604,13.4196426 0.831426125,13.4196426 L3.49184453,13.4196426 C3.95095935,13.4196426 4.32327066,13.0442146 4.32327066,12.580789 C4.32337436,12.1173635 3.95106305,11.7419355 3.49194824,11.7419355 Z" id="Shape-Copy-3" fill="#2B2B2B"></path>
                </g>
                <rect id="Rectangle-110" fill="#2B2B2B" x="10.0869565" y="28.516129" width="26.8985507" height="1.67741935"></rect>
                <path d="M23.5555225,29.4551726 L23.5555225,10.7383863 L23.5555225,10.7383863 C23.5555225,8.89743709 25.0479067,7.40505292 26.8888559,7.40505292 L34.0712325,7.40505292 L34.0712325,7.40505292 C35.9121816,7.40505292 37.4045658,5.91266876 37.4045658,4.07171959 L37.4045658,0.332944808" id="Path-57" stroke="#2B2B2B" stroke-width="1.66666667" stroke-linecap="round"></path>
                <g id="Shape" fill-rule="nonzero">
                    <use fill="#FFDC64" fill-rule="evenodd" xlink:href="#path-2"></use>
                    <path stroke="#2B2B2B" stroke-width="1.66666667" d="M23.6749112,26.8370348 C22.233382,26.8370348 21.0679656,25.6612073 21.0679656,24.2142449 L21.0679656,20.6352271 C21.0679656,19.1882646 22.233382,18.0124372 23.6749112,18.0124372 C25.1164404,18.0124372 26.2818568,19.1882646 26.2818568,20.6352271 L26.2818568,24.2141574 C26.2820086,25.6611446 25.116483,26.8370348 23.6749112,26.8370348 Z"></path>
                </g>
            </g>
            <rect id="Rectangle" x="0" y="0" width="64" height="64"></rect>
        </g>
    </g>
</svg>