<?xml version="1.0" encoding="UTF-8"?>
<svg width="64px" height="64px" viewBox="0 0 64 64" version="1.1" xmlns="http://www.w3.org/2000/svg" xmlns:xlink="http://www.w3.org/1999/xlink">
    <!-- Generator: Sketch 46.2 (44496) - http://www.bohemiancoding.com/sketch -->
    <title>schoolbag</title>
    <desc>Created with Sketch.</desc>
    <defs>
        <path d="M45.8506944,26.0590278 L45.8506944,44.4618056 C45.8506944,47.0506403 43.7520292,49.1493056 41.1631944,49.1493056 L8.97569444,49.1493056 C6.38685968,49.1493056 4.28819444,47.0506403 4.28819444,44.4618056 L4.28819444,26.0590278 C4.28819444,14.5818603 13.592277,5.27777778 25.0694444,5.27777778 C36.5466119,5.27777778 45.8506944,14.5818603 45.8506944,26.0590278 Z" id="path-1"></path>
        <rect id="path-2" x="11.875" y="27.8732639" width="26.3888889" height="16.6579861" rx="2.34375"></rect>
        <path d="M20.1215278,33.8107639 L30.0173611,33.8107639 L30.0173611,35.7204861 L30.0173611,35.7204861 C30.0173611,38.3093209 27.9186959,40.4079861 25.3298611,40.4079861 L24.8090278,40.4079861 L24.8090278,40.4079861 C22.220193,40.4079861 20.1215278,38.3093209 20.1215278,35.7204861 L20.1215278,33.8107639 Z" id="path-3"></path>
    </defs>
    <g id="Sticker-size-64*64" stroke="none" stroke-width="1" fill="none" fill-rule="evenodd">
        <g id="schoolbag">
            <g id="Group-2">
                <rect id="Rectangle-2" x="0" y="0" width="64" height="64"></rect>
                <g id="Group" transform="translate(6.916667, 7.385417)">
                    <path d="M2.34375,27.7083333 L2.60416667,27.7083333 L2.60416667,27.7083333 C3.89858405,27.7083333 4.94791667,28.757666 4.94791667,30.0520833 L4.94791667,41.8576389 L4.94791667,41.8576389 C4.94791667,43.1520563 3.89858405,44.2013889 2.60416667,44.2013889 L0,44.2013889" id="Rectangle-23" fill="#E9F4F5" transform="translate(2.473958, 35.954861) scale(-1, 1) translate(-2.473958, -35.954861) "></path>
                    <path d="M47.5347222,27.7083333 L47.7951389,27.7083333 L47.7951389,27.7083333 C49.0895563,27.7083333 50.1388889,28.757666 50.1388889,30.0520833 L50.1388889,41.8576389 L50.1388889,41.8576389 C50.1388889,43.1520563 49.0895563,44.2013889 47.7951389,44.2013889 L45.1909722,44.2013889" id="Rectangle-23" fill="#E9F4F5"></path>
                    <path d="M45.4383681,42.5520833 L47.6649306,42.5520833 C48.1203737,42.5520833 48.4895833,42.1828737 48.4895833,41.7274306 L48.4895833,30.1822917 C48.4895833,29.7268485 48.1203737,29.3576389 47.6649306,29.3576389 L47.6649306,27.7083333 C49.03126,27.7083333 50.1388889,28.8159622 50.1388889,30.1822917 L50.1388889,41.7274306 C50.1388889,43.09376 49.03126,44.2013889 47.6649306,44.2013889 L45.1909722,44.2013889 L45.4383681,42.5520833 Z M45.4383681,42.5520833 L47.6649306,42.5520833 C48.1203737,42.5520833 48.4895833,42.1828737 48.4895833,41.7274306 L48.4895833,30.1822917 C48.4895833,29.7268485 48.1203737,29.3576389 47.6649306,29.3576389 L47.6649306,27.7083333 C49.03126,27.7083333 50.1388889,28.8159622 50.1388889,30.1822917 L50.1388889,41.7274306 C50.1388889,43.09376 49.03126,44.2013889 47.6649306,44.2013889 L45.1909722,44.2013889 L45.4383681,42.5520833 Z" id="Rectangle-23" fill="#2B2B2B" fill-rule="nonzero"></path>
                    <path d="M0.247395833,42.5520833 L2.47395833,42.5520833 C2.92940149,42.5520833 3.29861111,42.1828737 3.29861111,41.7274306 L3.29861111,30.1822917 C3.29861111,29.7268485 2.92940149,29.3576389 2.47395833,29.3576389 L2.47395833,27.7083333 C3.84028779,27.7083333 4.94791667,28.8159622 4.94791667,30.1822917 L4.94791667,41.7274306 C4.94791667,43.09376 3.84028779,44.2013889 2.47395833,44.2013889 L0,44.2013889 L0.247395833,42.5520833 Z M0.247395833,42.5520833 L2.47395833,42.5520833 C2.92940149,42.5520833 3.29861111,42.1828737 3.29861111,41.7274306 L3.29861111,30.1822917 C3.29861111,29.7268485 2.92940149,29.3576389 2.47395833,29.3576389 L2.47395833,27.7083333 C3.84028779,27.7083333 4.94791667,28.8159622 4.94791667,30.1822917 L4.94791667,41.7274306 C4.94791667,43.09376 3.84028779,44.2013889 2.47395833,44.2013889 L0,44.2013889 L0.247395833,42.5520833 Z" id="Rectangle-23" fill="#2B2B2B" fill-rule="nonzero" transform="translate(2.473958, 35.954861) scale(-1, 1) translate(-2.473958, -35.954861) "></path>
                    <path d="M21.7876411,6.26215752 C19.9648723,6.49930688 18.7742158,6.81180782 18.4722222,6.59722222 C18.4722222,2.953677 21.4258992,0 25.0694444,0 C28.7129897,0 31.6666667,2.953677 31.6666667,6.59722222 C31.0726262,6.77124776 30.0118928,6.48641983 28.3513698,6.26336878 C28.184023,4.59838825 26.7785233,3.29861111 25.0694444,3.29861111 C23.36078,3.29861111 21.9555476,4.59775791 21.7876411,6.26215752 Z" id="Combined-Shape" fill="#B8D3D5"></path>
                    <g id="Combined-Shape">
                        <use fill="#E9F4F5" fill-rule="evenodd" xlink:href="#path-1"></use>
                        <path stroke="#2B2B2B" stroke-width="1.5625" d="M45.0694444,26.0590278 C45.0694444,15.0133328 36.1151394,6.05902778 25.0694444,6.05902778 C14.0237494,6.05902778 5.06944444,15.0133328 5.06944444,26.0590278 L5.06944444,44.4618056 C5.06944444,46.6191679 6.81833214,48.3680556 8.97569444,48.3680556 L41.1631944,48.3680556 C43.3205567,48.3680556 45.0694444,46.6191679 45.0694444,44.4618056 L45.0694444,26.0590278 Z"></path>
                    </g>
                    <path d="M7.58699505,26.0590278 C7.63141187,16.3960256 15.4784738,8.57638889 25.1519097,8.57638889 C34.8253456,8.57638889 42.6724076,16.3960256 42.7168244,26.0590278 L42.7170139,31.09375 C42.7170139,31.9566949 42.0174588,32.65625 41.1545139,32.65625 L9.14930556,32.65625 L9.14930556,32.65625 C8.28636063,32.65625 7.58680556,31.9566949 7.58680556,31.09375 L7.58680556,26.0590278 Z M25.150657,21.1263535 L28.2588298,22.7604167 L27.6652216,19.2994154 L30.1797862,16.8483207 L26.7047434,16.3433674 L25.150657,13.1944444 L23.5965706,16.3433674 L20.1215278,16.8483207 L22.6360924,19.2994154 L22.0424842,22.7604167 L25.150657,21.1263535 Z" id="Combined-Shape" fill="#ED6969"></path>
                    <g id="Rectangle-24">
                        <use fill="#B8D3D5" fill-rule="evenodd" xlink:href="#path-2"></use>
                        <rect stroke="#2B2B2B" stroke-width="1.5625" x="12.65625" y="28.6545139" width="24.8263889" height="15.0954861" rx="2.34375"></rect>
                    </g>
                    <rect id="Rectangle-25" fill="#2B2B2B" x="11.875" y="33.8107639" width="26.3888889" height="1.64930556"></rect>
                    <g id="Rectangle">
                        <use fill="#FFFFFF" fill-rule="evenodd" xlink:href="#path-3"></use>
                        <path stroke="#2B2B2B" stroke-width="1.5625" d="M20.9027778,34.5920139 L20.9027778,35.7204861 C20.9027778,37.8778484 22.6516655,39.6267361 24.8090278,39.6267361 L25.3298611,39.6267361 C27.4872234,39.6267361 29.2361111,37.8778484 29.2361111,35.7204861 L29.2361111,34.5920139 L20.9027778,34.5920139 Z"></path>
                    </g>
                </g>
            </g>
        </g>
    </g>
</svg>