<?xml version="1.0" encoding="UTF-8"?>
<svg width="64px" height="64px" viewBox="0 0 64 64" version="1.1" xmlns="http://www.w3.org/2000/svg" xmlns:xlink="http://www.w3.org/1999/xlink">
    <!-- Generator: Sketch 46.2 (44496) - http://www.bohemiancoding.com/sketch -->
    <title>inbox</title>
    <desc>Created with Sketch.</desc>
    <defs>
        <path d="M22.39125,1.4425731 L0.730716146,17.8426771 L0.730716146,45.8464068 L45.9360417,45.8464068 L45.9360417,17.8426771 L24.2754167,1.4425731 C23.7184245,1.0208447 22.9482422,1.0208447 22.39125,1.4425731 Z" id="path-1"></path>
        <rect id="path-2" x="3.84826823" y="4.28593892" width="38.9700391" height="24.8922547"></rect>
        <polygon id="path-3" points="45.6172689 18.445638 0.718383789 45.0154622 0.718383789 45.8464068 45.9359505 45.8464068 45.9359505 18.7758382"></polygon>
        <polygon id="path-4" points="1.05204264 18.1736247 45.9359505 45.2256266 45.9359505 45.8464068 0.730716146 45.8464068 0.730716146 18.5190837"></polygon>
    </defs>
    <g id="Sticker-size-64*64" stroke="none" stroke-width="1" fill="none" fill-rule="evenodd">
        <g id="inbox">
            <rect id="Rectangle" x="0" y="0" width="64" height="64"></rect>
            <g id="salary" transform="translate(9.333333, 9.333333)" fill-rule="nonzero">
                <g id="Shape">
                    <use fill="#F6F6F7" fill-rule="evenodd" xlink:href="#path-1"></use>
                    <path stroke="#2B2B2B" stroke-width="1.66666667" d="M21.8882137,0.778194526 C22.7427322,0.131193118 23.9239345,0.131193118 24.778447,0.778189999 L46.769375,17.4283792 L46.769375,46.6797401 L-0.102617188,46.6797401 L-0.102617188,17.4283803 L21.8882183,0.778191017 Z"></path>
                </g>
                <g id="Rectangle-path">
                    <use fill="#F9FBB1" fill-rule="evenodd" xlink:href="#path-2"></use>
                    <rect stroke="#2B2B2B" stroke-width="1.66666667" x="3.0149349" y="3.45260559" width="40.6367057" height="26.5589214"></rect>
                </g>
                <g id="Shape">
                    <use fill="#F6F6F7" fill-rule="evenodd" xlink:href="#path-3"></use>
                    <path stroke="#2B2B2B" stroke-width="1.66666667" d="M45.7595883,17.3931029 L46.7692839,18.4392933 L46.7692839,46.6797401 L-0.114949544,46.6797401 L-0.114949544,44.5402894 L45.7595883,17.3931029 Z"></path>
                </g>
                <g id="Shape">
                    <use fill="#E9F4F5" fill-rule="evenodd" xlink:href="#path-4"></use>
                    <path stroke="#2B2B2B" stroke-width="1.66666667" d="M0.902695138,17.110622 L46.7692839,44.754896 L46.7692839,46.6797401 L-0.102617188,46.6797401 L-0.102617188,18.191436 L0.902695138,17.110622 Z"></path>
                </g>
            </g>
            <path d="M39.0840223,28.5346104 C38.9305424,28.6784487 38.7736463,28.8113561 38.6133333,28.9333333 C38.2044424,29.244446 37.8088908,29.4 37.4266667,29.4 C37.1333319,29.4 36.8644457,29.300001 36.62,29.1 C36.3755543,28.899999 36.1911117,28.6266684 36.0666667,28.28 C35.6044421,29.0266704 35.0222257,29.4 34.32,29.4 C33.7688861,29.4 33.3288905,29.200002 33,28.8 C32.9234962,28.7069549 32.8558904,28.6071767 32.7971825,28.5006652 C32.6104752,28.6359194 32.404748,28.7668086 32.18,28.8933333 C31.579997,29.2311128 30.9377812,29.4 30.2533333,29.4 C29.3199953,29.4 28.5955581,29.1466692 28.08,28.64 C27.9858941,28.5475166 27.900377,28.4488142 27.8234486,28.3438926 C27.6042888,28.5578668 27.3742511,28.7521242 27.1333333,28.9266667 C26.6977756,29.2422238 26.2666688,29.4 25.84,29.4 C25.1644411,29.4 24.6488907,29.0044484 24.2933333,28.2133333 C23.9199981,28.6844468 23.5933347,28.9999992 23.3133333,29.16 C23.0333319,29.3200008 22.7066685,29.4 22.3333333,29.4 C21.7911084,29.4 21.3444462,29.1977798 20.9933333,28.7933333 C20.6422205,28.3888869 20.4666667,27.8622255 20.4666667,27.2133333 C20.4666667,26.5022187 20.6177763,25.8422253 20.92,25.2333333 C21.2222237,24.6244414 21.6377751,24.1266686 22.1666667,23.74 C22.6955582,23.3533314 23.2888856,23.1244448 23.9466667,23.0533333 C24.1155564,21.3288803 24.4377754,19.8555617 24.9133333,18.6333333 C25.3888913,17.411105 26.0133295,16.8 26.7866667,16.8 C27.1688908,16.8 27.4866654,16.9733316 27.74,17.32 C27.9933346,17.6666684 28.12,18.1911076 28.12,18.8933333 C28.12,19.8888939 27.875558,21.0533267 27.3866667,22.3866667 C26.8977753,23.7200067 26.2444485,25.0888819 25.4266667,26.4933333 C25.4622224,27.0088915 25.5399994,27.3777767 25.66,27.6 C25.7800006,27.8222233 25.9333324,27.9333333 26.12,27.9333333 C26.3600012,27.9333333 26.6044432,27.8266677 26.8533333,27.6133333 C26.9915102,27.494896 27.1557128,27.332625 27.3459428,27.1265183 C27.3197587,26.9471598 27.3066667,26.7583205 27.3066667,26.56 C27.3066667,25.9466636 27.4355543,25.3755582 27.6933333,24.8466667 C27.9511124,24.3177751 28.3088866,23.8977793 28.7666667,23.5866667 C29.2244467,23.275554 29.7422193,23.12 30.32,23.12 C30.8355581,23.12 31.2488873,23.2733318 31.56,23.58 C31.8711127,23.8866682 32.0266667,24.3022196 32.0266667,24.8266667 C32.0266667,25.4400031 31.8066689,25.9666645 31.3666667,26.4066667 C30.9266645,26.8466689 30.1822275,27.1955543 29.1333333,27.4533333 C29.3555567,27.8622243 29.7777747,28.0666667 30.4,28.0666667 C30.800002,28.0666667 31.255553,27.9266681 31.7666667,27.6466667 C32.0321996,27.5012008 32.2791376,27.332345 32.5074825,27.1400978 C32.5203134,26.4608503 32.6844844,25.8163792 33,25.2066667 C33.3288905,24.5711079 33.7666639,24.0600019 34.3133333,23.6733333 C34.8600027,23.2866647 35.4399969,23.0933333 36.0533333,23.0933333 C36.2488899,23.0933333 36.3799997,23.1311107 36.4466667,23.2066667 C36.5133337,23.2822226 36.5688887,23.4177768 36.6133333,23.6133333 C36.8000009,23.5777776 36.9955545,23.56 37.2,23.56 C37.6355577,23.56 37.8533333,23.715554 37.8533333,24.0266667 C37.8533333,24.2133343 37.7866673,24.6577743 37.6533333,25.36 C37.4488879,26.3822273 37.3466667,27.0933313 37.3466667,27.4933333 C37.3466667,27.6266673 37.3799997,27.7333329 37.4466667,27.8133333 C37.5133337,27.8933337 37.5999995,27.9333333 37.7066667,27.9333333 C37.8755564,27.9333333 38.0799988,27.8244455 38.32,27.6066667 C38.49413,27.4486598 38.7127097,27.2192982 38.9757427,26.9185779 C38.9971206,25.8512861 39.1607606,24.8339912 39.4666667,23.8666667 C39.5466671,23.6088876 39.6777769,23.4200006 39.86,23.3 C40.0422231,23.1799994 40.2977761,23.12 40.6266667,23.12 C40.8044453,23.12 40.9288885,23.142222 41,23.1866667 C41.0711115,23.2311113 41.1066667,23.3155549 41.1066667,23.44 C41.1066667,23.5822229 41.0400007,23.9022197 40.9066667,24.4 C40.8177773,24.7555573 40.7466669,25.0666653 40.6933333,25.3333333 C40.6399997,25.6000013 40.5955557,25.9288869 40.56,26.32 C40.8533348,25.5555517 41.1822204,24.9333357 41.5466667,24.4533333 C41.9111129,23.9733309 42.2666649,23.6311121 42.6133333,23.4266667 C42.9600017,23.2222212 43.2755541,23.12 43.56,23.12 C43.8177791,23.12 44.0155549,23.1933326 44.1533333,23.34 C44.2911118,23.4866674 44.36,23.7022208 44.36,23.9866667 C44.36,24.1555564 44.3111116,24.4755532 44.2133333,24.9466667 L44.3333333,24.9466667 C44.5288899,24.9466667 44.6955549,25.0155549 44.8333333,25.1533333 C44.9711118,25.2911118 45.04,25.4622212 45.04,25.6666667 C45.04,25.7822228 45.0133336,25.906666 44.96,26.04 C44.8177771,26.3688905 44.6177791,26.6444433 44.36,26.8666667 C44.1022209,27.08889 43.8177793,27.2 43.5066667,27.2 C43.2577765,27.2 43.0466675,27.111112 42.8733333,26.9333333 C42.6999991,26.7555547 42.6133333,26.5155571 42.6133333,26.2133333 C42.6133333,26.0444436 42.6222221,25.8622232 42.64,25.6666667 C42.6577779,25.5244437 42.6666667,25.4266669 42.6666667,25.3733333 C42.6666667,25.3022219 42.6511113,25.2488891 42.62,25.2133333 C42.5888887,25.1777776 42.5511113,25.16 42.5066667,25.16 C42.3822216,25.16 42.2133344,25.3088874 42,25.6066667 C41.7866656,25.9044459 41.5733344,26.2977753 41.36,26.7866667 C41.1466656,27.275558 40.973334,27.7911084 40.84,28.3333333 C40.7422217,28.7600021 40.6311117,29.0444437 40.5066667,29.1866667 C40.3822216,29.3288896 40.1777792,29.4 39.8933333,29.4 C39.5555539,29.4 39.3177785,29.222224 39.18,28.8666667 C39.1430537,28.7713213 39.1110611,28.660636 39.0840223,28.5346104 Z M26.1333333,19.0066667 C25.9644436,19.6066697 25.8200006,20.3911063 25.7,21.36 C25.5799994,22.3288937 25.4933336,23.3422169 25.44,24.4 C26.4355605,22.2311003 26.9333333,20.4888955 26.9333333,19.1733333 C26.9333333,18.8355539 26.9044447,18.5733343 26.8466667,18.3866667 C26.7888886,18.1999991 26.7200004,18.1066667 26.64,18.1066667 C26.4711103,18.1066667 26.3022231,18.4066637 26.1333333,19.0066667 Z M23.3066667,27.8466667 C23.4755564,27.7088882 23.6888876,27.4533352 23.9466667,27.08 C23.8577773,26.5999976 23.8133333,26.0622252 23.8133333,25.4666667 C23.8133333,25.2533323 23.8222221,24.9066691 23.84,24.4266667 C23.3511087,24.5777785 22.9444461,24.9044419 22.62,25.4066667 C22.2955539,25.9088914 22.1333333,26.4666636 22.1333333,27.08 C22.1333333,27.7288921 22.3555533,28.0533333 22.8,28.0533333 C22.9688897,28.0533333 23.1377769,27.9844451 23.3066667,27.8466667 Z M29.26,25 C29.0333322,25.3822241 28.92,25.8444417 28.92,26.3866667 L28.92,26.4133333 C29.4444471,26.2888883 29.8577763,26.1022235 30.16,25.8533333 C30.4622237,25.6044432 30.6133333,25.3155572 30.6133333,24.9866667 C30.6133333,24.8177769 30.5666671,24.6822227 30.4733333,24.58 C30.3799995,24.4777773 30.2533341,24.4266667 30.0933333,24.4266667 C29.7644428,24.4266667 29.4866678,24.6177759 29.26,25 Z M35.36,27.7066667 C35.5377787,27.4755544 35.6666663,27.1688908 35.7466667,26.7866667 L36.24,24.3333333 C35.8666648,24.3422223 35.5222238,24.4822209 35.2066667,24.7533333 C34.8911095,25.0244458 34.6400009,25.38222 34.4533333,25.8266667 C34.2666657,26.2711133 34.1733333,26.7422197 34.1733333,27.24 C34.1733333,27.5155569 34.2288883,27.7199993 34.34,27.8533333 C34.4511117,27.9866673 34.6044435,28.0533333 34.8,28.0533333 C34.9955565,28.0533333 35.1822213,27.9377789 35.36,27.7066667 Z" id="dear" fill="#2B2B2B"></path>
        </g>
    </g>
</svg>