<?xml version="1.0" encoding="UTF-8"?>
<svg width="64px" height="64px" viewBox="0 0 64 64" version="1.1" xmlns="http://www.w3.org/2000/svg" xmlns:xlink="http://www.w3.org/1999/xlink">
    <!-- Generator: Sketch 46.2 (44496) - http://www.bohemiancoding.com/sketch -->
    <title>DNA</title>
    <desc>Created with Sketch.</desc>
    <defs></defs>
    <g id="Sticker-size-64*64" stroke="none" stroke-width="1" fill="none" fill-rule="evenodd">
        <g id="DNA">
            <rect id="Rectangle" x="0" y="0" width="64" height="64"></rect>
            <g id="Group" transform="translate(33.804738, 32.844835) rotate(-45.000000) translate(-33.804738, -32.844835) translate(6.471405, 19.528595)">
                <path d="M42.0941952,12.3524673 C44.5893645,8.67272915 52.0472816,1.47363727 54.1933924,2.76451489 C55.1725578,3.35347917 54.2913887,8.58427158 54.1933924,13.1406925 C54.0766028,18.5709244 54.5802589,23.4288008 53.8764165,23.6543653 C52.5819913,24.0691974 39.5990258,16.0322054 42.0941952,12.3524673 Z" id="Path-51" fill="#07EBF5"></path>
                <path d="M15.343392,13.2947513 C17.643927,9.94835265 20.9591271,4.25925815 26.8802885,3.71395122 C32.8014499,3.16864428 39.0596922,13.7821898 40.2240761,14.8511301 C38.1061979,18.2512793 31.4931222,25.7093703 27.3403527,25.7644211 C23.1875833,25.819472 13.042857,16.64115 15.343392,13.2947513 Z" id="Path-49" fill="#FFC55D"></path>
                <path d="M0.35042735,21.3808976 C0.305391188,10.156634 0.303929393,3.24138632 0.346041966,0.635154665 C0.347470699,0.546734343 0.542818416,0.376109895 0.638233519,0.379288371 C11.6594239,0.746427115 15.7769008,22.1321598 26.1507646,21.7746072 C36.6144394,21.413959 41.6818238,-0.0828777163 51.9511019,0.000240411544" id="Path-48-Copy" stroke="#2B2B2B" stroke-width="1.66666667" stroke-linecap="round" transform="translate(26.133309, 10.889520) scale(1, -1) translate(-26.133309, -10.889520) "></path>
                <path d="M0.35042735,0.374506784 C11.5885994,0.374506784 15.6870899,22.1352553 26.1507646,21.7746072 C36.4787405,21.4186361 41.5494828,0.471133753 51.55417,0.00780166276 C51.6856211,0.00171396188 51.9503414,0.169167254 51.9499815,0.262688606 C51.943365,1.98194296 51.9437385,9.15258248 51.9511019,21.7746072" id="Path-48" stroke="#2B2B2B" stroke-width="1.66666667" stroke-linecap="round"></path>
                <path d="M5.60683761,1.77549858 L5.60683761,19.8709761" id="Path-50" stroke="#2B2B2B" stroke-width="1.66666667"></path>
                <path d="M47.1474938,1.77549858 L47.1474938,19.8709761" id="Path-50-Copy-2" stroke="#2B2B2B" stroke-width="1.66666667"></path>
                <path d="M33.6410256,3.90609687 L33.6410256,18.0923314" id="Path-50-Copy" stroke="#2B2B2B" stroke-width="1.66666667"></path>
                <path d="M26.6324786,-3.55271368e-15 L26.6324786,21.6433286" id="Path-50-Copy" stroke="#2B2B2B" stroke-width="1.66666667"></path>
                <path d="M19.6239316,2.66324786 L19.6239316,18.4651852" id="Path-50-Copy" stroke="#2B2B2B" stroke-width="1.66666667"></path>
            </g>
        </g>
    </g>
</svg>