<?xml version="1.0" encoding="UTF-8"?>
<svg width="64px" height="64px" viewBox="0 0 64 64" version="1.1" xmlns="http://www.w3.org/2000/svg" xmlns:xlink="http://www.w3.org/1999/xlink">
    <!-- Generator: Sketch 46.2 (44496) - http://www.bohemiancoding.com/sketch -->
    <title>global</title>
    <desc>Created with Sketch.</desc>
    <defs>
        <circle id="path-1" cx="22" cy="22" r="22"></circle>
    </defs>
    <g id="Sticker-size-64*64" stroke="none" stroke-width="1" fill="none" fill-rule="evenodd">
        <g id="global">
            <g id="Group" transform="translate(10.666667, 10.666667)">
                <g id="Oval-8">
                    <use fill="#BDF3FB" fill-rule="evenodd" xlink:href="#path-1"></use>
                    <circle stroke="#2B2B2B" stroke-width="1.96969697" cx="22" cy="22" r="21.0151515"></circle>
                </g>
                <path d="M31.2308444,3.67217548 C33.6952975,3.67217548 40.5100285,12.2539438 40.5100285,12.2539438 C40.5100285,12.2539438 44.3577662,20.7376787 43.3600135,22 C42.8803834,22.6068111 43.5034682,23.8696681 41.5228664,24.1784246 C39.3833128,24.5119602 37.8736477,25.675495 35.8400539,24.9508856 C33.1977265,24.0093725 32.1757961,21.8256903 29.4496242,21.1221746 C26.7234523,20.418659 26.6942318,16.2999713 27.7041016,13.970628 C28.7139714,11.6412847 29.6035006,12.5636569 31.2308444,11.1214694 C32.8581881,9.67928185 28.7663912,3.67217548 31.2308444,3.67217548 Z M6.70863058,20.8065469 C10.5101931,18.7077188 14.1389212,21.5946658 19.0379275,21.9010782 C23.9369337,22.2074905 28.6496462,27.6249063 28.6496462,28.9131875 C28.6496462,30.2014688 23.8844118,33.6412956 23.8844118,36.0295938 C23.8844118,38.417892 24.3323018,41.5911549 23.8844118,42.0201322 C23.6613403,42.2337843 16.786239,43.373457 15.725323,42.0201322 C14.6560984,40.6562088 13.0370456,37.2671151 12.2456806,36.0295938 C10.6690999,33.5641675 7.74239174,33.0316833 6.28541917,32.2121019 C4.8284466,31.3925204 2.90706808,22.905375 6.70863058,20.8065469 Z M17.4767127,7.05018029 C15.2841346,9.54783654 10.5523437,16.0140625 8.0375,16.4226563 C5.52265625,16.83125 1.26210937,18.5574219 1.26210937,18.5574219 L2.175,14.0609375 C2.175,14.0609375 3.36869303,12.0836786 5.92773438,8.74257813 C8.52756784,5.34821917 15.7091121,1.92596154 17.9704402,1.48572716 C20.7242162,0.949623248 19.6692909,4.55252404 17.4767127,7.05018029 Z" id="Combined-Shape" fill="#8BCB76"></path>
                <circle id="Oval-8" stroke="#2B2B2B" stroke-width="1.96969697" cx="22" cy="22" r="21.0151515"></circle>
            </g>
            <path d="M57.1990605,42.6666667 C55.4437551,46.6849426 54.3123899,48.3453102 52,48.8693399 C54.8233822,49.579571 55.9737718,52.3921872 56.8103347,54.6666667 C57.5592092,52.4774633 58.9147352,49.7165055 61.3333333,49.1300004 C59.6382854,48.1723642 57.4396951,45.9434544 57.1990605,42.6666667 Z" id="Path-2" fill="#F5BD59"></path>
            <circle id="Oval" fill="#F5BD59" cx="48.6666667" cy="52.6666667" r="2"></circle>
            <circle id="Oval-Copy" fill="#F5BD59" cx="8.66666667" cy="12.6666667" r="2"></circle>
            <rect id="Rectangle" x="0" y="0" width="64" height="64"></rect>
        </g>
    </g>
</svg>