<?xml version="1.0" encoding="UTF-8"?>
<svg width="64px" height="64px" viewBox="0 0 64 64" version="1.1" xmlns="http://www.w3.org/2000/svg" xmlns:xlink="http://www.w3.org/1999/xlink">
    <!-- Generator: Sketch 46.2 (44496) - http://www.bohemiancoding.com/sketch -->
    <title>swim</title>
    <desc>Created with Sketch.</desc>
    <defs>
        <path d="M3.18181818,0 L5.14675325,0 L5.14675325,4.4408921e-16 C6.90402291,1.2128401e-16 8.32857143,1.42454852 8.32857143,3.18181818 L8.32857143,3.18181818 L8.32857143,3.18181818 C8.32857143,4.93908784 6.90402291,6.36363636 5.14675325,6.36363636 L3.18181818,6.36363636 L3.18181818,6.36363636 C1.42454852,6.36363636 2.15203466e-16,4.93908784 0,3.18181818 L0,3.18181818 L0,3.18181818 C-2.15203466e-16,1.42454852 1.42454852,7.66894409e-16 3.18181818,4.4408921e-16 Z" id="path-1"></path>
        <path d="M13.3961039,0 L15.361039,0 L15.361039,4.4408921e-16 C17.1183086,1.2128401e-16 18.5428571,1.42454852 18.5428571,3.18181818 L18.5428571,3.18181818 L18.5428571,3.18181818 C18.5428571,4.93908784 17.1183086,6.36363636 15.361039,6.36363636 L13.3961039,6.36363636 L13.3961039,6.36363636 C11.6388342,6.36363636 10.2142857,4.93908784 10.2142857,3.18181818 L10.2142857,3.18181818 L10.2142857,3.18181818 C10.2142857,1.42454852 11.6388342,-1.2128401e-16 13.3961039,-4.4408921e-16 Z" id="path-2"></path>
    </defs>
    <g id="Sticker-size-64*64" stroke="none" stroke-width="1" fill="none" fill-rule="evenodd">
        <g id="swim">
            <g id="Group-4" transform="translate(2.666667, 12.000000)">
                <g id="Group-2" transform="translate(18.857143, 0.000000)">
                    <path d="M11.9428571,9.04614513 C17.254999,9.04614513 20.5698133,10.4630918 23.5095613,12.5669291 C23.5095613,6.0470436 18.3309715,0.761632069 11.9428571,0.761632069 C5.55474283,0.761632069 0.376152981,6.0470436 0.376152981,12.5669291 C2.33922484,10.5362851 6.63071531,9.04614513 11.9428571,9.04614513 Z" id="Oval-28" fill="#94E8F4" transform="translate(11.942857, 6.664281) rotate(3.000000) translate(-11.942857, -6.664281) "></path>
                    <ellipse id="Oval-28" stroke="#2B2B2B" stroke-width="1.5625" cx="11.9428571" cy="12.4717251" rx="11.5667042" ry="11.7100931"></ellipse>
                </g>
                <path d="M8.01428571,24.7356169 C12.0443457,20.5113553 18.900954,17.5260933 22.9078093,17.663656 C26.9146646,17.8012188 37.0582314,20.5365876 48.8714286,26.2312384 C45.4006746,27.511121 46.576009,30.6420322 44.6010347,34.3059498 C42.6260604,37.9698673 36.4676175,35.0930108 36.4676175,35.0930108 L33.9253627,27.4711726 L29.1124773,24.7356169 L23.4251259,28.6653148 L22.3227204,34.3059498 L16.7381325,36.4318182 L12.8235434,34.3059498 L10.468823,27.4711726 C10.468823,27.4711726 9.99533743,25.1825091 8.01428571,24.7356169 Z" id="Path-28" fill="#FFEECF"></path>
                <path d="M8.17142857,24.7511051 C12.2039833,20.5175979 18.882401,17.5258022 22.8917367,17.663666 C26.9010724,17.8015299 37.0509185,20.5428855 48.8714286,26.25" id="Path-28" stroke="#2B2B2B" stroke-width="1.5625" fill="#FFEECF"></path>
                <g id="Group" transform="translate(31.661905, 30.689394) scale(-1, 1) translate(-31.661905, -30.689394) translate(10.995238, 24.022727)" fill="#FFFFFF">
                    <path d="M11.3230975,5.72727273 C11.3230975,2.56418734 8.78833576,0 5.66154873,0 C2.53476171,0 0,2.56418734 0,5.72727273" id="Oval-26"></path>
                    <path d="M6.60053281,7.40862506 C8.09231035,0.869802263 20.1114332,3.74378575 16.9846462,3.74378575 C13.8578592,3.74378575 11.3230975,6.30797309 11.3230975,9.47105848 C11.3230975,12.6341439 5.10875526,13.9474479 6.60053281,7.40862506 Z" id="Oval-26" transform="translate(11.935419, 7.599166) scale(1, -1) translate(-11.935419, -7.599166) "></path>
                    <path d="M33.9692924,5.72727273 C33.9692924,2.56418734 31.4345307,0 28.3077437,0 C25.1809566,0 22.6461949,2.56418734 22.6461949,5.72727273" id="Oval-26"></path>
                    <path d="M33.9692924,11.4545455 C33.9692924,8.29146007 31.4345307,5.72727273 28.3077437,5.72727273 C25.1809566,5.72727273 22.6461949,8.29146007 22.6461949,11.4545455" id="Oval-26" transform="translate(28.307744, 8.590909) scale(1, -1) translate(-28.307744, -8.590909) "></path>
                    <path d="M30.9093469,6.376728 C32.0302304,3.16082335 42.7576281,5.56042385 39.6308411,5.56042385 C36.5040541,5.56042385 33.9692924,8.12461119 33.9692924,11.2876966 C33.9692924,14.450782 29.7884635,9.59263265 30.9093469,6.376728 Z" id="Oval-26" transform="translate(35.459145, 8.507485) scale(1, -1) translate(-35.459145, -8.507485) "></path>
                </g>
                <g id="Group" transform="translate(0.000000, 24.818182)">
                    <path d="M12.1,5.72727273 C12.1,2.56418734 9.56721087,0 6.44285714,0 C3.31850342,0 0.785714286,2.56418734 0.785714286,5.72727273" id="Oval-26" stroke="#2B2B2B" stroke-width="1.5625"></path>
                    <path d="M23.4142857,11.4545455 C23.4142857,8.29146007 20.8814966,5.72727273 17.7571429,5.72727273 C14.6327891,5.72727273 12.1,8.29146007 12.1,11.4545455" id="Oval-26" stroke="#2B2B2B" stroke-width="1.5625" transform="translate(17.757143, 8.590909) scale(1, -1) translate(-17.757143, -8.590909) "></path>
                    <path d="M34.7285714,5.72727273 C34.7285714,2.56418734 32.1957823,0 29.0714286,0 C25.9470748,0 23.4142857,2.56418734 23.4142857,5.72727273" id="Oval-26" stroke="#2B2B2B" stroke-width="1.5625"></path>
                    <path d="M57.3571429,5.72727273 C57.3571429,2.56418734 54.8243537,0 51.7,0 C48.5756463,0 46.0428571,2.56418734 46.0428571,5.72727273" id="Oval-26" stroke="#2B2B2B" stroke-width="1.5625"></path>
                    <path d="M46.0428571,11.4545455 C46.0428571,8.29146007 43.510068,5.72727273 40.3857143,5.72727273 C37.2613606,5.72727273 34.7285714,8.29146007 34.7285714,11.4545455" id="Oval-26" stroke="#2B2B2B" stroke-width="1.5625" transform="translate(40.385714, 8.590909) scale(1, -1) translate(-40.385714, -8.590909) "></path>
                    <ellipse id="Oval-27" fill="#2B2B2B" cx="0.785714286" cy="5.56818182" rx="1" ry="1"></ellipse>
                    <ellipse id="Oval-27-Copy" fill="#2B2B2B" cx="57.3571429" cy="5.56818182" rx="1" ry="1"></ellipse>
                </g>
                <g id="Group-3" transform="translate(35.849152, 15.276011) rotate(15.000000) translate(-35.849152, -15.276011) translate(26.515818, 11.942678)">
                    <g id="Rectangle-48">
                        <use fill="#BDCFD1" fill-rule="evenodd" xlink:href="#path-1"></use>
                        <path stroke="#2B2B2B" stroke-width="1.5625" d="M3.18181818,0.78125 C1.85602098,0.78125 0.78125,1.85602098 0.78125,3.18181818 C0.78125,4.50761538 1.85602098,5.58238636 3.18181818,5.58238636 L5.14675325,5.58238636 C6.47255044,5.58238636 7.54732143,4.50761538 7.54732143,3.18181818 C7.54732143,1.85602098 6.47255044,0.78125 5.14675325,0.78125 L3.18181818,0.78125 Z"></path>
                    </g>
                    <g id="Rectangle-48-Copy">
                        <use fill="#BDCFD1" fill-rule="evenodd" xlink:href="#path-2"></use>
                        <path stroke="#2B2B2B" stroke-width="1.5625" d="M13.3961039,0.78125 C12.0703067,0.78125 10.9955357,1.85602098 10.9955357,3.18181818 C10.9955357,4.50761538 12.0703067,5.58238636 13.3961039,5.58238636 L15.361039,5.58238636 C16.6868362,5.58238636 17.7616071,4.50761538 17.7616071,3.18181818 C17.7616071,1.85602098 16.6868362,0.78125 15.361039,0.78125 L13.3961039,0.78125 Z"></path>
                    </g>
                    <rect id="Rectangle-49" fill="#2B2B2B" x="7.54285714" y="2.38636364" width="2.98571429" height="1.59090909"></rect>
                </g>
            </g>
            <rect id="Rectangle" x="0" y="0" width="64" height="64"></rect>
        </g>
    </g>
</svg>