<?xml version="1.0" encoding="UTF-8"?>
<svg width="27px" height="17px" viewBox="0 0 27 17" version="1.1" xmlns="http://www.w3.org/2000/svg" xmlns:xlink="http://www.w3.org/1999/xlink">
    <!-- Generator: Sketch 48.1 (47250) - http://www.bohemiancoding.com/sketch -->
    <title>Balance_Map</title>
    <desc>Created with Sketch.</desc>
    <defs>
        <linearGradient x1="50%" y1="0%" x2="50%" y2="100%" id="linearGradient-1">
            <stop stop-color="#FFFFFF" offset="0%"></stop>
            <stop stop-color="#F5F2F6" offset="100%"></stop>
        </linearGradient>
        <rect id="path-2" x="4.625" y="4.46875" width="14" height="6" rx="0.5"></rect>
    </defs>
    <g id="Artboard-3" stroke="none" stroke-width="1" fill="none" fill-rule="evenodd" transform="translate(-127.000000, -30.000000)">
        <g id="Balance_Map" transform="translate(126.000000, 24.000000)">
            <rect id="Rectangle-2" x="0" y="0" width="28" height="28"></rect>
            <g id="Group-9" transform="translate(1.781250, 6.406250)">
                <path d="M15,14 C18.64949,14 21.7659379,12.4014437 23,10.1494622 M22.0561253,4.59712428 C20.511011,3.02823118 17.9269385,2 15,2" id="Oval" stroke="#333333" stroke-width="0.5" stroke-linecap="round" transform="translate(19.000000, 8.000000) scale(-1, 1) translate(-19.000000, -8.000000) "></path>
                <path d="M1,14 C4.64949004,14 7.76593792,12.4014437 9,10.1494622 M8.0561253,4.59712428 C6.51101101,3.02823118 3.92693849,2 1,2" id="Oval-Copy" stroke="#333333" stroke-width="0.5" stroke-linecap="round"></path>
                <circle id="Oval-4" stroke="#919191" stroke-width="0.5" fill="url(#linearGradient-1)" cx="1.5" cy="1.5" r="1.5"></circle>
                <circle id="Oval-4-Copy" stroke="#919191" stroke-width="0.5" fill="url(#linearGradient-1)" cx="1.5" cy="14.5" r="1.5"></circle>
                <circle id="Oval-4-Copy-2" stroke="#919191" stroke-width="0.5" fill="url(#linearGradient-1)" cx="23.5" cy="14.5" r="1.5"></circle>
                <circle id="Oval-4-Copy-3" stroke="#919191" stroke-width="0.5" fill="url(#linearGradient-1)" cx="23.5" cy="1.5" r="1.5"></circle>
                <g id="Rectangle-45-Copy-4">
                    <use fill="#FF9971" fill-rule="evenodd" xlink:href="#path-2"></use>
                    <rect stroke="#E3701C" stroke-width="0.5" x="4.375" y="4.21875" width="14.5" height="6.5" rx="0.5"></rect>
                </g>
                <g id="Group-6-Copy-2" transform="translate(12.500000, 8.500000) scale(-1, -1) translate(-12.500000, -8.500000) translate(0.000000, 6.000000)" fill="#989CA2">
                    <path d="M23,5 L23,3 L25,3.00029853 L23,5 Z M23,1.97215226e-31 L23.5,1.97215226e-31 L23.5,3 L23,3 L23,1.97215226e-31 Z" id="Combined-Shape"></path>
                    <path d="M0,5 L0,3 L2,3.00029853 L0,5 Z M0,-4.4408921e-16 L0.5,-4.4408921e-16 L0.5,3 L0,3 L0,-4.4408921e-16 Z" id="Combined-Shape-Copy" transform="translate(1.000000, 2.500000) scale(-1, -1) translate(-1.000000, -2.500000) "></path>
                </g>
            </g>
        </g>
    </g>
</svg>