<?xml version="1.0" encoding="UTF-8"?>
<svg width="80px" height="33px" viewBox="0 0 80 33" version="1.1" xmlns="http://www.w3.org/2000/svg" xmlns:xlink="http://www.w3.org/1999/xlink">
    <!-- Generator: Sketch 48.1 (47250) - http://www.bohemiancoding.com/sketch -->
    <title>Balance_Map</title>
    <desc>Created with Sketch.</desc>
    <defs></defs>
    <g id="edit-page" stroke="none" stroke-width="1" fill="none" fill-rule="evenodd">
        <g id="Balance_Map" transform="translate(-7.000000, -13.000000)">
            <rect id="Rectangle-4-Copy-4" x="0" y="0" width="94" height="58"></rect>
            <g id="Group-41" transform="translate(6.000000, 13.000000)">
                <g id="Group-2" transform="translate(0.191536, 0.000000)">
                    <g id="Group-6" transform="translate(48.071880, 0.000000)">
                        <path d="M0,16.049421 C4.07704857,3.85292308 14.1793106,3.85292308 14.1793106,3.85292308" id="Path-11" stroke="#072850" stroke-width="0.5"></path>
                        <path d="M0,28.253592 C4.07704857,16.057094 14.1793106,16.057094 14.1793106,16.057094" id="Path-11" stroke="#072850" stroke-width="0.5" transform="translate(7.089655, 22.155343) scale(1, -1) translate(-7.089655, -22.155343) "></path>
                        <g id="Group-Copy-3" transform="translate(13.819747, 24.408342)" fill="#E4E9EC">
                            <rect id="Rectangle-3-Copy" x="7.10542736e-15" y="0" width="18" height="8" rx="0.487457143"></rect>
                        </g>
                        <g id="Group-Copy" transform="translate(13.819747, 0.000000)" fill="#E4E9EC">
                            <rect id="Rectangle-3-Copy" x="7.10542736e-15" y="0" width="18" height="8" rx="0.487457143"></rect>
                        </g>
                    </g>
                    <g id="Group-6" transform="translate(16.749994, 16.500000) scale(-1, 1) translate(-16.749994, -16.500000) translate(0.749994, 0.000000)">
                        <path d="M0,16.049421 C4.07704857,3.85292308 14.1793106,3.85292308 14.1793106,3.85292308" id="Path-11" stroke="#072850" stroke-width="0.5"></path>
                        <path d="M0,28.253592 C4.07704857,16.057094 14.1793106,16.057094 14.1793106,16.057094" id="Path-11" stroke="#072850" stroke-width="0.5" transform="translate(7.089655, 22.155343) scale(1, -1) translate(-7.089655, -22.155343) "></path>
                        <g id="Group-Copy-3" transform="translate(13.819747, 24.408342)" fill="#E4E9EC">
                            <rect id="Rectangle-3-Copy" x="0" y="0" width="18" height="8" rx="0.487457143"></rect>
                        </g>
                        <g id="Group-Copy" transform="translate(13.819747, 0.000000)" fill="#E4E9EC">
                            <rect id="Rectangle-3-Copy" x="0" y="0" width="18" height="8" rx="0.487457143"></rect>
                        </g>
                    </g>
                    <rect id="Rectangle-6" fill="#FF9971" x="26" y="9" width="30" height="14" rx="1"></rect>
                </g>
            </g>
            <g id="Group-6" transform="translate(80.000000, 23.000000)">
                <polygon id="Triangle-2-Copy-3" fill="#758795" transform="translate(2.500000, 11.142857) scale(-1, -1) translate(-2.500000, -11.142857) " points="4 9.28571429 4 13 1 12.9994456"></polygon>
                <path d="M1.5,0 L1.5,11.1428571" id="Path-5-Copy-7" stroke="#758795" stroke-width="0.9"></path>
            </g>
            <g id="Group-6-Copy-2" transform="translate(12.000000, 29.500000) scale(-1, -1) translate(-12.000000, -29.500000) translate(10.000000, 23.000000)">
                <polygon id="Triangle-2-Copy-3" fill="#758795" transform="translate(2.500000, 11.142857) scale(-1, -1) translate(-2.500000, -11.142857) " points="4 9.28571429 4 13 1 12.9994456"></polygon>
                <path d="M1.5,0 L1.5,11.1428571" id="Path-5-Copy-7" stroke="#758795" stroke-width="0.9"></path>
            </g>
        </g>
    </g>
</svg>