<?xml version="1.0" encoding="UTF-8" standalone="no"?>
<svg width="16px" height="16px" viewBox="0 0 16 16" version="1.1" xmlns="http://www.w3.org/2000/svg" xmlns:xlink="http://www.w3.org/1999/xlink">
    <!-- Generator: Sketch 46.2 (44496) - http://www.bohemiancoding.com/sketch -->
    <title>ic_herringbone</title>
    <desc>Created with Sketch.</desc>
    <defs>
        <rect id="path-1" x="3" y="0" width="16" height="16"></rect>
    </defs>
    <g id="icon" stroke="none" stroke-width="1" fill="none" fill-rule="evenodd">
        <g id="图标" transform="translate(-2805.000000, -1290.000000)">
            <g id="Group-43" transform="translate(2802.000000, 1290.000000)">
                <g id="ic_rectangle" opacity="0">
                    <use fill="#F5F5F5" fill-rule="evenodd" xlink:href="#path-1"></use>
                    <rect stroke="#DEDEDE" stroke-width="0.81" x="3.405" y="0.405" width="15.19" height="15.19"></rect>
                </g>
                <rect id="Rectangle-46" fill="#434B54" x="8" y="8" width="11" height="1" rx="0.5"></rect>
                <path d="M2.41421356,10.4926407 C2.13807119,10.4926407 1.91421356,10.7164983 1.91421356,10.9926407 C1.91421356,11.2687831 2.13807119,11.4926407 2.41421356,11.4926407 L8.08578644,11.4926407 L8.08578644,5.82106781 C8.08578644,5.54492544 7.86192881,5.32106781 7.58578644,5.32106781 C7.30964406,5.32106781 7.08578644,5.54492544 7.08578644,5.82106781 L7.08578644,10.4926407 L2.41421356,10.4926407 Z" id="Rectangle-48" fill="#434B54" fill-rule="nonzero" transform="translate(5.000000, 8.406854) rotate(-45.000000) translate(-5.000000, -8.406854) "></path>
                <path d="M5.41421356,10.4926407 C5.13807119,10.4926407 4.91421356,10.7164983 4.91421356,10.9926407 C4.91421356,11.2687831 5.13807119,11.4926407 5.41421356,11.4926407 L11.0857864,11.4926407 L11.0857864,5.82106781 C11.0857864,5.54492544 10.8619288,5.32106781 10.5857864,5.32106781 C10.3096441,5.32106781 10.0857864,5.54492544 10.0857864,5.82106781 L10.0857864,10.4926407 L5.41421356,10.4926407 Z" id="Rectangle-48" fill="#434B54" fill-rule="nonzero" transform="translate(8.000000, 8.406854) rotate(-45.000000) translate(-8.000000, -8.406854) "></path>
                <path d="M8.41421356,10.4926407 C8.13807119,10.4926407 7.91421356,10.7164983 7.91421356,10.9926407 C7.91421356,11.2687831 8.13807119,11.4926407 8.41421356,11.4926407 L14.0857864,11.4926407 L14.0857864,5.82106781 C14.0857864,5.54492544 13.8619288,5.32106781 13.5857864,5.32106781 C13.3096441,5.32106781 13.0857864,5.54492544 13.0857864,5.82106781 L13.0857864,10.4926407 L8.41421356,10.4926407 Z" id="Rectangle-48" fill="#434B54" fill-rule="nonzero" transform="translate(11.000000, 8.406854) rotate(-45.000000) translate(-11.000000, -8.406854) "></path>
            </g>
        </g>
    </g>
</svg>