<?xml version="1.0" encoding="UTF-8"?>
<svg width="16px" height="16px" viewBox="0 0 16 16" version="1.1" xmlns="http://www.w3.org/2000/svg" xmlns:xlink="http://www.w3.org/1999/xlink">
    <!-- Generator: Sketch 47 (45396) - http://www.bohemiancoding.com/sketch -->
    <title>ic_triangle start</title>
    <desc>Created with Sketch.</desc>
    <defs>
        <rect id="path-1" x="0" y="0" width="16" height="16"></rect>
        <path d="M9.98992037,9.33450603 L3.71760662,13.4759229 L3.71760662,13.4759229 C3.25672167,13.7802312 2.63641002,13.6533007 2.33210178,13.1924157 C2.22415444,13.0289259 2.16660781,12.837329 2.16660781,12.6414169 L2.16660781,4.3585831 L2.16660781,4.3585831 C2.16660781,3.80629835 2.61432307,3.3585831 3.16660781,3.3585831 C3.36251993,3.3585831 3.55411678,3.41612972 3.71760662,3.52407707 L9.98992037,7.66549397 L9.98992037,7.66549397 C10.4508053,7.96980221 10.5777358,8.59011385 10.2734276,9.05099881 C10.1990334,9.16367132 10.1025929,9.26011181 9.98992037,9.33450603 Z" id="path-2"></path>
    </defs>
    <g id="Icon" stroke="none" stroke-width="1" fill="none" fill-rule="evenodd">
        <g id="图标" transform="translate(-2777.000000, -1639.000000)">
            <g id="ic-straight-copy-18" transform="translate(2777.000000, 1639.000000)">
                <g id="ic_rectangle" opacity="0">
                    <use fill="#F5F5F5" fill-rule="evenodd" xlink:href="#path-1"></use>
                    <rect stroke="#DEDEDE" stroke-width="0.81" x="0.405" y="0.405" width="15.19" height="15.19"></rect>
                </g>
                <g id="Triangle-2" transform="translate(6.331608, 8.500029) scale(-1, 1) translate(-6.331608, -8.500029) ">
                    <use fill="#434B54" fill-rule="evenodd" xlink:href="#path-2"></use>
                    <path stroke="#434B54" stroke-width="1" d="M9.71442097,8.91725302 C9.77075723,8.88005591 9.81897747,8.83183566 9.85617458,8.7754994 C10.0083287,8.54505693 9.94486344,8.2349011 9.71442097,8.08274698 L3.44210722,3.94133008 C3.36036229,3.88735641 3.26456387,3.8585831 3.16660781,3.8585831 C2.89046544,3.8585831 2.66660781,4.08244072 2.66660781,4.3585831 L2.66660781,12.6414169 C2.66660781,12.739373 2.69538113,12.8351714 2.7493548,12.9169163 C2.90150892,13.1473588 3.21166474,13.210824 3.44210722,13.0586699 L9.71442097,8.91725302 Z"></path>
                </g>
                <rect id="Rectangle-46" fill="#434B54" x="10" y="8" width="6" height="1" rx="0.5"></rect>
            </g>
        </g>
    </g>
</svg>