<?xml version="1.0" encoding="UTF-8"?>
<svg width="110px" height="110px" viewBox="0 0 110 110" version="1.1" xmlns="http://www.w3.org/2000/svg" xmlns:xlink="http://www.w3.org/1999/xlink">
    <!-- Generator: Sketch 48.2 (47327) - http://www.bohemiancoding.com/sketch -->
    <title>blog</title>
    <desc>Created with Sketch.</desc>
    <defs></defs>
    <g id="Artboard-14-Copy" stroke="none" stroke-width="1" fill="none" fill-rule="evenodd" transform="translate(-2770.000000, -3505.000000)">
        <g id="Group-39" transform="translate(2770.000000, 3505.000000)">
            <circle id="Oval-8" fill="#F4F4F7" opacity="0.98999995" cx="55" cy="55" r="51"></circle>
            <g id="Group-70" transform="translate(13.100000, 19.700000)">
                <g id="Group">
                    <path d="M0.00199943308,18.6961718 L9.76679688,0 L74.9332031,0 L84.6690125,18.6406697 L84.7,18.6406494 L84.7,69.3 L0,69.3 L0,18.6961731 Z" id="Combined-Shape" fill="#FFFFFF"></path>
                    <path d="M28.45744,57.72784 C28.5947207,57.8756807 28.66336,58.0393591 28.66336,58.21888 C28.66336,58.419521 28.5841608,58.5963992 28.42576,58.74952 C28.2673592,58.9026408 28.087841,58.9792 27.8872,58.9792 C27.6654389,58.9792 27.4753608,58.884161 27.31696,58.69408 L23.87968,54.36976 L20.42656,58.69408 C20.2681592,58.884161 20.0833611,58.9792 19.87216,58.9792 C19.671519,58.9792 19.4920008,58.9026408 19.3336,58.74952 C19.1751992,58.5963992 19.096,58.419521 19.096,58.21888 C19.096,58.0499192 19.1593594,57.8862408 19.28608,57.72784 L22.92928,53.21344 L19.46032,48.90496 C19.3335994,48.7676793 19.27024,48.604001 19.27024,48.41392 C19.27024,48.213279 19.3467992,48.0364008 19.49992,47.88328 C19.6530408,47.7301592 19.829919,47.6536 20.03056,47.6536 C20.2523211,47.6536 20.4423992,47.748639 20.6008,47.93872 L23.87968,52.07296 L27.15856,47.93872 C27.3064007,47.748639 27.4964788,47.6536 27.7288,47.6536 C27.929441,47.6536 28.1089592,47.7301592 28.26736,47.88328 C28.4257608,48.0364008 28.50496,48.213279 28.50496,48.41392 C28.50496,48.5934409 28.4363207,48.7571193 28.29904,48.90496 L24.83008,53.21344 L28.45744,57.72784 Z M40.27408,47.6536 C40.5064012,47.6536 40.6964793,47.7301592 40.84432,47.88328 C40.9921607,48.0364008 41.06608,48.2343988 41.06608,48.47728 L41.06608,58.20304 C41.06608,58.4459212 41.0000807,58.6359993 40.86808,58.77328 C40.7360793,58.9105607 40.5539212,58.9792 40.3216,58.9792 C40.0998389,58.9792 39.9256006,58.9105607 39.79888,58.77328 C39.6721594,58.6359993 39.6088,58.4459212 39.6088,58.20304 L39.6088,50.83744 L36.50416,56.74576 C36.303519,57.1153618 36.0448016,57.30016 35.728,57.30016 C35.4111984,57.30016 35.152481,57.1153618 34.95184,56.74576 L31.83136,50.9008 L31.83136,58.20304 C31.83136,58.4459212 31.7680006,58.6359993 31.64128,58.77328 C31.5145594,58.9105607 31.3350412,58.9792 31.10272,58.9792 C30.8809589,58.9792 30.7040807,58.9079207 30.57208,58.76536 C30.4400793,58.6227993 30.37408,58.4353612 30.37408,58.20304 L30.37408,48.47728 C30.37408,48.2343988 30.4479993,48.0364008 30.59584,47.88328 C30.7436807,47.7301592 30.9337588,47.6536 31.16608,47.6536 C31.4934416,47.6536 31.757439,47.8436781 31.95808,48.22384 L35.74384,55.46272 L39.49792,48.22384 C39.698561,47.8436781 39.9572784,47.6536 40.27408,47.6536 Z M44.29744,58.9792 C44.0651188,58.9792 43.8724008,58.9158406 43.71928,58.78912 C43.5661592,58.6623994 43.4896,58.4723213 43.4896,58.21888 L43.4896,51.78784 C43.4896,51.5343987 43.5661592,51.3416807 43.71928,51.20968 C43.8724008,51.0776793 44.0651188,51.01168 44.29744,51.01168 C44.5297612,51.01168 44.7198393,51.0776793 44.86768,51.20968 C45.0155207,51.3416807 45.08944,51.5343987 45.08944,51.78784 L45.08944,58.21888 C45.08944,58.4723213 45.0155207,58.6623994 44.86768,58.78912 C44.7198393,58.9158406 44.5297612,58.9792 44.29744,58.9792 Z M44.29744,49.45936 C43.9911985,49.45936 43.7483209,49.3748808 43.5688,49.20592 C43.3892791,49.0369592 43.29952,48.8152014 43.29952,48.54064 C43.29952,48.2660786 43.3892791,48.0469608 43.5688,47.88328 C43.7483209,47.7195992 43.9911985,47.63776 44.29744,47.63776 C44.5931215,47.63776 44.8333591,47.7195992 45.01816,47.88328 C45.2029609,48.0469608 45.29536,48.2660786 45.29536,48.54064 C45.29536,48.8152014 45.2056009,49.0369592 45.02608,49.20592 C44.8465591,49.3748808 44.6036815,49.45936 44.29744,49.45936 Z M51.4888,50.98 C53.3368092,50.98 54.2608,52.0201496 54.2608,54.10048 L54.2608,58.21888 C54.2608,58.4617612 54.1895207,58.6491993 54.04696,58.7812 C53.9043993,58.9132007 53.7064013,58.9792 53.45296,58.9792 C53.2100788,58.9792 53.0173607,58.9105607 52.8748,58.77328 C52.7322393,58.6359993 52.66096,58.4512012 52.66096,58.21888 L52.66096,54.17968 C52.66096,53.5249567 52.5316013,53.0444815 52.27288,52.73824 C52.0141587,52.4319985 51.6102427,52.27888 51.06112,52.27888 C50.4169568,52.27888 49.899522,52.479518 49.5088,52.8808 C49.118078,53.282082 48.92272,53.8206366 48.92272,54.49648 L48.92272,58.21888 C48.92272,58.4512012 48.8514407,58.6359993 48.70888,58.77328 C48.5663193,58.9105607 48.3736012,58.9792 48.13072,58.9792 C47.8878388,58.9792 47.6924807,58.9105607 47.54464,58.77328 C47.3967993,58.6359993 47.32288,58.4512012 47.32288,58.21888 L47.32288,51.772 C47.32288,51.5502389 47.3994392,51.3680807 47.55256,51.22552 C47.7056808,51.0829593 47.8983988,51.01168 48.13072,51.01168 C48.3630412,51.01168 48.5478393,51.0803193 48.68512,51.2176 C48.8224007,51.3548807 48.89104,51.5343989 48.89104,51.75616 L48.89104,52.4056 C49.1444813,51.9409577 49.4982377,51.5872012 49.95232,51.34432 C50.4064023,51.1014388 50.9185571,50.98 51.4888,50.98 Z M62.76688,47.6536 C63.0097612,47.6536 63.2051193,47.7222393 63.35296,47.85952 C63.5008007,47.9968007 63.57472,48.1815988 63.57472,48.41392 L63.57472,58.20304 C63.57472,58.4459212 63.5034407,58.6359993 63.36088,58.77328 C63.2183193,58.9105607 63.0256012,58.9792 62.78272,58.9792 C62.5398388,58.9792 62.3471207,58.9105607 62.20456,58.77328 C62.0619993,58.6359993 61.99072,58.4459212 61.99072,58.20304 L61.99072,57.56944 C61.7583988,58.0340823 61.4204822,58.3904788 60.97696,58.63864 C60.5334378,58.8868012 60.0212829,59.01088 59.44048,59.01088 C58.7751967,59.01088 58.1812026,58.8419217 57.65848,58.504 C57.1357574,58.1660783 56.7292015,57.6908831 56.4388,57.0784 C56.1483985,56.4659169 56.0032,55.763684 56.0032,54.97168 C56.0032,54.169116 56.1483985,53.466883 56.4388,52.86496 C56.7292015,52.263037 57.1331174,51.7984016 57.65056,51.47104 C58.1680026,51.1436784 58.7646366,50.98 59.44048,50.98 C60.0212829,50.98 60.5307978,51.1040788 60.96904,51.35224 C61.4072822,51.6004012 61.7425588,51.9515177 61.97488,52.4056 L61.97488,48.38224 C61.97488,48.1604789 62.0461593,47.9836007 62.18872,47.8516 C62.3312807,47.7195993 62.5239988,47.6536 62.76688,47.6536 Z M59.82064,57.74368 C60.5070434,57.74368 61.0403181,57.5060824 61.42048,57.03088 C61.8006419,56.5556776 61.99072,55.8798444 61.99072,55.00336 C61.99072,54.1268756 61.8032819,53.4510424 61.4284,52.97584 C61.0535181,52.5006376 60.5176035,52.26304 59.82064,52.26304 C59.1236765,52.26304 58.5824819,52.4979977 58.19704,52.96792 C57.8115981,53.4378423 57.61888,54.1057557 57.61888,54.97168 C57.61888,55.8376043 57.814238,56.5160775 58.20496,57.00712 C58.595682,57.4981625 59.1342366,57.74368 59.82064,57.74368 Z" id="XMind" fill="#E1E4E6"></path>
                    <path d="M0.932421875,18.926123 L84.199648,18.926123" id="Path-55" stroke="#E1E4E6" stroke-width="1.1"></path>
                    <rect id="Rectangle-48" fill="#E1E4E6" x="36.3" y="18.3700008" width="12.1" height="18.7"></rect>
                </g>
                <polygon id="Rectangle-48" fill="#E1E4E6" points="38.0975782 0 46.7207361 0 48.3827159 19.4700008 36.3172841 19.4700008"></polygon>
                <g id="ic_Blog" transform="translate(58.400000, 36.300000)">
                    <circle id="Oval-4-Copy-8" stroke="#FFFFFF" stroke-width="1.15076923" fill="#F68634" cx="18.7" cy="18.7" r="18.7"></circle>
                    <path d="M20.792619,24.9263765 C20.792619,25.7747253 20.1048964,26.4624479 19.2565476,26.4624479 C18.4081988,26.4624479 17.7204762,25.7747253 17.7204762,24.9263765 C17.7204762,22.0286198 15.3713802,19.6795238 12.4736235,19.6795238 C11.6252747,19.6795238 10.9375521,18.9918012 10.9375521,18.1434524 C10.9375521,17.2951036 11.6252747,16.607381 12.4736235,16.607381 C17.0680779,16.607381 20.792619,20.3319221 20.792619,24.9263765 Z M29.1408333,24.9263765 C29.1408333,25.7747253 28.4531107,26.4624479 27.6047619,26.4624479 C26.7564131,26.4624479 26.0686905,25.7747253 26.0686905,24.9263765 C26.0686905,17.4180283 19.9819717,11.3313095 12.4736235,11.3313095 C11.6252747,11.3313095 10.9375521,10.6435869 10.9375521,9.7952381 C10.9375521,8.94688927 11.6252747,8.25916667 12.4736235,8.25916667 C21.6786693,8.25916667 29.1408333,15.7213307 29.1408333,24.9263765 Z M24.9667262,24.9263765 C24.9667262,25.7747253 24.2790036,26.4624479 23.4306548,26.4624479 C22.5823059,26.4624479 21.8945833,25.7747253 21.8945833,24.9263765 C21.8945833,19.7233241 17.6766759,15.5054167 12.4736235,15.5054167 C11.6252747,15.5054167 10.9375521,14.8176941 10.9375521,13.9693452 C10.9375521,13.1209964 11.6252747,12.4332738 12.4736235,12.4332738 C19.3733736,12.4332738 24.9667262,18.0266264 24.9667262,24.9263765 Z M12.960844,26.4685755 C11.8272737,26.4685755 10.9083333,25.5393389 10.9083333,24.3930675 C10.9083333,23.2467961 11.8272737,22.3175595 12.960844,22.3175595 C14.0944144,22.3175595 15.0133547,23.2467961 15.0133547,24.3930675 C15.0133547,25.5393389 14.0944144,26.4685755 12.960844,26.4685755 Z" id="Combined-Shape" fill="#FFFFFF" fill-rule="nonzero"></path>
                </g>
            </g>
        </g>
    </g>
</svg>