<?xml version="1.0" encoding="UTF-8" standalone="no"?>
<svg width="16px" height="16px" viewBox="0 0 16 16" version="1.1" xmlns="http://www.w3.org/2000/svg" xmlns:xlink="http://www.w3.org/1999/xlink">
    <!-- Generator: Sketch 46.2 (44496) - http://www.bohemiancoding.com/sketch -->
    <title>ic_ellipse</title>
    <desc>Created with Sketch.</desc>
    <defs></defs>
    <g id="Icon" stroke="none" stroke-width="1" fill="none" fill-rule="evenodd">
        <g id="图标" transform="translate(-2945.000000, -1219.000000)">
            <g id="ic-straight-copy-4" transform="translate(2945.000000, 1219.000000)">
                <rect id="ic_cicle" stroke="#DEDEDE" stroke-width="0.81" opacity="0" x="0.405" y="0.405" width="15.19" height="15.19"></rect>
                <path d="M8.20584175,11.924711 L8.33724903,11.8160212 L8.50768484,11.8102796 C8.94116071,11.7956767 9.59460731,11.7678716 10.4669319,11.7268943 C12.7242963,11.6208945 14.5,9.75985182 14.5,7.5 C14.5,5.1908973 12.715606,3.2743234 10.4123847,3.10958752 C9.25905282,3.02710215 8.4547711,2.99051941 8.0099945,2.99941182 C7.55301357,3.00854823 6.73418046,3.05523654 5.55920586,3.13943541 C3.2718973,3.30337921 1.5,5.20682359 1.5,7.5 C1.5,9.58825407 3.02341129,11.3587401 5.07054201,11.679968 L5.40704127,11.7327702 L5.48107802,12.0652433 C5.54628704,12.3580742 5.59593721,12.6644831 5.63013968,12.9844105 C5.65950901,13.2589954 5.90591254,13.4577818 6.18049735,13.4284124 C6.27135738,13.4186941 6.35781703,13.384263 6.43048367,13.3288595 C7.09327329,12.8235262 7.68510561,12.3554228 8.20584175,11.924711 Z" id="Combined-Shape" stroke="#434B54"></path>
            </g>
        </g>
    </g>
</svg>