<?xml version="1.0" encoding="UTF-8" standalone="no"?>
<svg width="16px" height="16px" viewBox="0 0 16 16" version="1.1" xmlns="http://www.w3.org/2000/svg" xmlns:xlink="http://www.w3.org/1999/xlink">
    <!-- Generator: Sketch 46.2 (44496) - http://www.bohemiancoding.com/sketch -->
    <title>ic_rounded rectangle</title>
    <desc>Created with Sketch.</desc>
    <defs></defs>
    <g id="Icon" stroke="none" stroke-width="1" fill="none" fill-rule="evenodd">
        <g id="图标" transform="translate(-2881.000000, -1219.000000)">
            <g id="ic-straight-copy-44" transform="translate(2881.000000, 1219.000000)">
                <rect id="ic_rounded-rectangle" stroke="#DEDEDE" stroke-width="0.81" opacity="0" x="0.405" y="0.405" width="15.19" height="15.19"></rect>
                <path d="M8.21603996,11.6177234 L8.35567897,11.5 L12,11.5 C13.3807119,11.5 14.5,10.3807119 14.5,9 L14.5,6 C14.5,4.61928813 13.3807119,3.5 12,3.5 L4,3.5 C2.61928813,3.5 1.5,4.61928813 1.5,6 L1.5,9 C1.5,10.3807119 2.61928813,11.5 4,11.5 L5.09443549,11.5 L5.18605048,11.8839528 C5.26367992,12.209293 5.32163626,12.5518008 5.36008236,12.9114036 C5.3894517,13.1859884 5.63585522,13.3847749 5.91044004,13.3554055 C6.00130006,13.3456872 6.08775971,13.3112561 6.16042635,13.2558526 C6.94523889,12.6574848 7.63052638,12.1113438 8.21603996,11.6177234 Z" id="Combined-Shape" stroke="#434B54"></path>
            </g>
        </g>
    </g>
</svg>