<?xml version="1.0" encoding="UTF-8" standalone="no"?>
<svg width="16px" height="16px" viewBox="0 0 16 16" version="1.1" xmlns="http://www.w3.org/2000/svg" xmlns:xlink="http://www.w3.org/1999/xlink">
    <!-- Generator: Sketch 44.1 (41455) - http://www.bohemiancoding.com/sketch -->
    <title>capitalize</title>
    <desc>Created with Sketch.</desc>
    <defs>
        <rect id="path-1" x="0" y="0" width="16" height="16"></rect>
    </defs>
    <g id="Page-1" stroke="none" stroke-width="1" fill="none" fill-rule="evenodd">
        <g id="图标-copy" transform="translate(-483.000000, -1218.000000)">
            <g id="U-Copy" transform="translate(483.000000, 1218.000000)">
                <g id="Rectangle-80" opacity="0">
                    <use fill="#D8D8D8" fill-rule="evenodd" xlink:href="#path-1"></use>
                    <rect stroke="#979797" stroke-width="1" x="0.5" y="0.5" width="15" height="15"></rect>
                </g>
                <path d="M7.76318359,12 L7.05419922,9.90527344 L4.10009766,9.90527344 L3.39111328,12 L2.13964844,12 L4.93798828,4.24951172 L6.23779297,4.24951172 L9.03613281,12 L7.76318359,12 Z M5.56103516,5.53857422 L4.40625,8.93847656 L6.74804688,8.93847656 L5.59326172,5.53857422 L5.56103516,5.53857422 Z M10.9560547,11.1782227 C11.7670898,11.1782227 12.4008789,10.6196289 12.4008789,9.88378906 L12.4008789,9.43798828 L11.0097656,9.52392578 C10.3168945,9.57226562 9.92480469,9.87841797 9.92480469,10.3618164 C9.92480469,10.855957 10.3330078,11.1782227 10.9560547,11.1782227 Z M10.6337891,12.0966797 C9.52734375,12.0966797 8.75390625,11.4091797 8.75390625,10.394043 C8.75390625,9.40576172 9.51123047,8.79882812 10.8540039,8.72363281 L12.4008789,8.63232422 L12.4008789,8.19726562 C12.4008789,7.56884766 11.9765625,7.19287109 11.2675781,7.19287109 C10.5961914,7.19287109 10.1772461,7.51513672 10.0751953,8.02001953 L8.97949219,8.02001953 C9.04394531,6.99951172 9.9140625,6.24755859 11.3105469,6.24755859 C12.6801758,6.24755859 13.5556641,6.97265625 13.5556641,8.10595703 L13.5556641,12 L12.4438477,12 L12.4438477,11.0708008 L12.4169922,11.0708008 C12.0893555,11.6992188 11.375,12.0966797 10.6337891,12.0966797 Z" id="A-a" fill="#434B54"></path>
            </g>
        </g>
    </g>
</svg>