<svg xmlns="http://www.w3.org/2000/svg" width="27" height="27" viewBox="0 0 27 27">
    <defs>
        <linearGradient id="a" x1="95.598%" x2="0%" y1="0%" y2="95.283%">
            <stop offset="0%" stop-color="#FF5B37"/>
            <stop offset="51.586%" stop-color="#FD474C"/>
            <stop offset="100%" stop-color="#FD3460"/>
        </linearGradient>
    </defs>
    <g fill="none" fill-rule="evenodd">
        <rect width="26.631" height="26.631" x=".221" y=".221" fill="url(#a)" rx="2.433"/>
        <path fill="#FFF" d="M20.007 19.651c-1.193.21-1.481.366-1.737-.283l-.23-.706c-1.015-2.77-3.61-3.311-4.26-3.43-.66-.122-4-.57-4.077 2.983-.08.934.09.904-1.444 1.175l-2.523.445c-.477.084-1.382.33-1.442-.007-.771-4.375 5.997-5.057 5.84-5.949-.185-1.043-5.66-1.205-6.388-5.327-.092-.522.806-.611 1.59-.75l3.75-.66c.827-.095.732-.234 1.156.976.954 2.815 2.976 3.358 3.861 3.361 1.247.004 2.823-.333 2.574-1.747-.039-.219-.301-1.109-.32-1.21-.08-.454.933-.494 1.342-.566l2.658-.47c1.565-.292 1.596.084 1.709.724.715 4.055-4.12 3.338-3.957 4.263.14.79 5.785 1.721 6.512 5.844.101.572-.115.54-1.24.74l-3.374.594z"/>
    </g>
</svg>
