<svg xmlns="http://www.w3.org/2000/svg" xmlns:xlink="http://www.w3.org/1999/xlink" width="100" height="76" viewBox="0 0 100 76">
    <defs>
        <linearGradient id="b" x1="100%" x2="0%" y1="40.143%" y2="40.143%">
            <stop offset="0%" stop-color="#FF1832"/>
            <stop offset="100%" stop-color="#FE8E01"/>
        </linearGradient>
        <path id="a" d="M5.016 4.103V1.012C5.016.452 4.563 0 4.004 0H1.012C.452 0 0 .453 0 1.012v3.091c0 .559.453 1.012 1.012 1.012h2.992c.56 0 1.012-.453 1.012-1.012z"/>
    </defs>
    <g fill="none" fill-rule="evenodd" transform="translate(0 -4)">
        <path d="M0 0h100v80H0z"/>
        <path fill="#FFF6ED" d="M33.152 9.99C17.241 13.594 17.927 25.072 8.258 38.255-1.41 51.438-3.374 69.709 10.017 74.636c19.761 7.271 61.874 6.1 71.29 1.363 10.8-5.434 18.103-16.454 18.103-28.984 0-12.53-9.73-13.277-14.91-23.95-3.82-7.872-17.63-3.78-23.44-6.826-5.81-3.045-11.996-9.853-27.908-6.249z"/>
        <ellipse cx="18.5" cy="56" fill="#D1D1D1" rx="8.5" ry="2"/>
        <g transform="translate(5 24)">
            <path fill="#F0B67F" fill-opacity=".297" d="M9.915 5a1.498 1.498 0 0 1 0 1H17.5a1.5 1.5 0 0 1 0 3h-2.585a1.5 1.5 0 0 1-1.415 2h-6a1.5 1.5 0 0 1 0-3h.585a1.498 1.498 0 0 1 0-1H2.5a1.5 1.5 0 0 1 0-3h3.768A1.99 1.99 0 0 1 6 3c0-.383.107-.74.294-1.044A1 1 0 0 1 6 2H2a1 1 0 1 1 0-2h4a1 1 0 0 1 .956 1.294A1.99 1.99 0 0 1 8 1h3a2 2 0 1 1 0 4H9.915zM19.5 5h2a.5.5 0 1 1 0 1h-2a.5.5 0 1 1 0-1z"/>
            <path fill="#E9E9E9" d="M6 20H3a1 1 0 0 0-1 1v4a1 1 0 0 0 1 1h3v2H2a2 2 0 0 1-2-2v-6a2 2 0 0 1 2-2h4v2z"/>
            <path fill="#FFF" d="M19.84 31c-.741 1.141-3.97 2-7.84 2-3.87 0-7.099-.859-7.84-2H4V15h16v16h-.16z"/>
            <path fill="#E9E9E9" d="M13 15h7v15.72c-.272.594-1.004 1.097-2.196 1.51-1.191.413-2.793.677-4.804.793V15z" opacity=".998"/>
            <ellipse cx="12" cy="15" fill="#FFF" rx="8" ry="3"/>
            <path fill="#F0B67F" d="M11.987 17.279c3.314 0 6.987-1.09 6.987-1.873 0-.783-3.673-1.518-6.987-1.518s-7.025.738-7.013 1.518c.012.78 3.7 1.873 7.013 1.873z"/>
        </g>
        <g transform="translate(25 4)">
            <rect width="55.857" height="38.957" x="6.071" fill="#434B54" rx="1.207"/>
            <path fill="#FFF" d="M59.5 28.207v6.35a.76.76 0 0 1-.773.747H9.273a.76.76 0 0 1-.773-.747V3.182a.76.76 0 0 1 .773-.747h49.454a.76.76 0 0 1 .773.747v1.217"/>
            <path fill="#EBDFDF" d="M29.629 4.42h26.229v16.647H29.629z"/>
            <path fill="#FFF3F3" d="M14.086 11.274H44.2v19.584H14.086z"/>
            <path fill="#D1D1D1" d="M6.68 38.957h54.64c1.08 0 2.027.715 2.322 1.752l3.482 12.215A2.414 2.414 0 0 1 64.802 56H3.198a2.414 2.414 0 0 1-2.322-3.076L4.358 40.71a2.414 2.414 0 0 1 2.321-1.752z"/>
            <path fill="#F7F9FA" d="M6.888 38H61.53c1.078 0 2.026.715 2.321 1.752l3.481 12.216a2.414 2.414 0 0 1-2.321 3.075H3.407a2.414 2.414 0 0 1-2.322-3.075l3.482-12.216A2.414 2.414 0 0 1 6.888 38z"/>
            <path fill="#D1D1D1" d="M28.66 47.457h10.775c.5 0 .924.371.99.867l.601 4.548A.997.997 0 0 1 40.038 54H27.925a.998.998 0 0 1-.985-1.157l.735-4.547a.998.998 0 0 1 .984-.839zM10.847 38.822h46.306c.58 0 1.077.412 1.186.982l1.062 5.594a1.207 1.207 0 0 1-1.185 1.432H9.785a1.207 1.207 0 0 1-1.186-1.432l1.063-5.594c.108-.57.606-.982 1.185-.982z"/>
        </g>
        <g opacity=".9" transform="translate(42.971 20.17)">
            <path stroke="#000" stroke-width=".603" d="M9.732 5.523c1.492-4.189 5.188-4.189 5.188-4.189M9.732 5.526c1.492 4.19 5.188 4.19 5.188 4.19"/>
            <rect width="6.595" height="2.836" fill="#FBCFD2" rx=".182" transform="translate(14.789 8.383)"/>
            <rect width="6.595" height="2.836" fill="#FBCFD2" rx=".187" transform="translate(14.789)"/>
            <rect width="10.992" height="4.964" x=".152" y="3.191" fill="#F19593" rx=".374"/>
        </g>
        <path fill="#424A60" fill-rule="nonzero" stroke="#0B1238" stroke-width=".55" d="M64.508 37.29a55.44 55.44 0 0 0 2.813.241c1.522.08 3.926.174 7.214.284.852.044 1.502.849 1.452 1.797-.428 6.894-.735 12.118-.922 15.673a255.49 255.49 0 0 0-.202 5.783c-.05.948-.78 1.68-1.633 1.635-1.422-.183-2.454-.292-3.094-.325-1.588-.083-3.899-.15-6.933-.2-.852-.045-1.502-.85-1.452-1.797.393-6.826.666-11.69.818-14.59.111-2.125.213-4.414.306-6.866.05-.948.78-1.68 1.633-1.636z"/>
        <path fill="#FFF" fill-rule="nonzero" d="M65.756 38.473l.112.429c.098.37.412.634.781.654l5.62.295c.37.018.71-.21.846-.57l.156-.414a.43.43 0 0 1 .423-.285l1.404.074a.44.44 0 0 1 .405.469l-1.17 22.328a.44.44 0 0 1-.452.424l-11.137-.584a.44.44 0 0 1-.405-.469l1.17-22.328a.44.44 0 0 1 .452-.424l1.404.074c.185.01.342.141.39.327z"/>
        <g transform="rotate(3 -872.092 1295.275)">
            <use fill="#FEEFED" xlink:href="#a"/>
            <use fill="url(#b)" xlink:href="#a"/>
        </g>
        <path fill="#FFF" d="M68.782 49.701l-.816-.816a.132.132 0 1 1 .187-.187l.914.914a.133.133 0 0 1 .02.025.169.169 0 0 0 .14.007.133.133 0 0 1 .023-.023l1.005-.813a.132.132 0 0 1 .166.206l-.897.726a.437.437 0 0 1-.382.194.437.437 0 0 1-.36-.233zM68.743 50.444l-.897.726a.132.132 0 1 0 .167.206l1.004-.814a.133.133 0 0 0 .022-.022.169.169 0 0 1 .141.007.133.133 0 0 0 .02.025l.914.914a.132.132 0 0 0 .187-.187l-.816-.817a.437.437 0 0 0-.36-.232.437.437 0 0 0-.382.194z"/>
        <path fill="#EF8B89" d="M76.644 54.354l-.634-.362-.44-.477-.194 4.33 1.268-2.586z"/>
        <path fill="#FACCCF" d="M76.065 44.463c.24-.611.9-.337 1.244 0 .23.225 1.12 2.502 2.672 6.83.83 1.255 1.32 2.143 1.469 2.662.148.519.148 2.95 0 7.292l.474 2.061-4.407 2.031-2.075 2.429-1.219 2.482h-1.927l-5.157-4.203c-2.797-2.16-4.036-3.359-3.718-3.596.319-.237 3.618-.08 9.9.47-.14-.887.055-2 .585-3.338a12.506 12.506 0 0 1 2.16-3.59l.589-2.038c-.405-1.188-.682-2.64-.83-4.353-.223-2.57 0-4.527.24-5.139z"/>
        <path fill="#525D69" d="M82.278 63c.914 0 .419.194 1.729 1.018.874.55 1.332 1.126 1.376 1.73l1.583 1.047 2.582 3.52c-2.218 1.855-4.065 3.27-5.541 4.245-1.476.974-3.757 1.997-6.841 3.069-3.522-4.42-5.161-6.907-4.916-7.46.367-.83 3.002-3.49 4.916-4.726C79.08 64.205 81.364 63 82.278 63z"/>
        <path fill="#FDCFD2" d="M61.645 60.269c-.405-.526-.676-.965-.812-1.32-.136-.354-.176-.885-.12-1.593-.16-.48-.12-.88.12-1.197.24-.318.626-.318 1.156 0 .33.223.464.548.406.974-.133.962-.066.423-.225 1.073-.103.42-.334.6-.354.743-.038.264-.095.703-.17 1.32zM62.535 53.397l-.746-.288-.691-1.002a1.821 1.821 0 0 1-.243-.896c0-.46-.218-.976 0-1.598.218-.622.88-.847 1.337-.78.457.067.633.271.827.667.16.327.236.82.094 1.257-.274.849-.355.834-.516 1.35-.062.201-.083.631-.062 1.29z"/>
        <path fill="#FDCFD2" d="M62.16 53.093c.4.207.6.51.6.909 0 .283.066.786-.182 1.38-.067.16-.253.408-.556.74-.382-.04-.7-.124-.953-.25-.253-.125-.453-.549-.6-1.272-.081-.383.06-.745.426-1.088.365-.342.787-.482 1.266-.42z"/>
        <path fill="#FDE8E5" d="M62.189 53.203c-.43.181-.712.39-.847.625s-.219.537-.252.906c-.299-.278-.38-.579-.244-.902.204-.485.295-.485.644-.629a.883.883 0 0 1 .699 0z"/>
        <path fill="#FDCFD2" d="M62.354 48.91h-.65c-.208-.51-.248-.914-.12-1.213.089-.21.218-.385.407-.589.053-.057.206-.082.458-.074.017.635.017 1.113 0 1.432-.016.32-.047.467-.095.444z"/>
        <path fill="#FDE8E5" d="M78.158 46.418c-.471.083-.845-.008-1.12-.273-.415-.398-.607-1.523-.607-1.818 0-.296.29-.404.739 0 .299.269.628.966.988 2.091zM61.336 56.03c0 .079-.114-.018-.31.29-.13.205-.228.407-.29.607-.108-.058-.13-.187-.07-.388.093-.301.222-.402.36-.51.138-.108.31-.08.31 0z"/>
        <path fill="#EF8B89" d="M62.362 56.612l.13.427c-.02.475-.063.859-.13 1.15-.067.292-.17.501-.307.627l-.295.592v-.5c.193-.2.344-.5.454-.898.109-.398.158-.864.148-1.398zM81.417 60.945c-.926.745-1.785 1.226-2.575 1.445-1.186.329-3.523-.65-4.158-.444-.635.205 1.559 1.07 2.206 1.347.648.275 1.468.207 2.774 0 .87-.138 1.562-.44 2.074-.903l-.32-1.445zM63.04 50.915c-.168.429-.285.723-.35.885a3.576 3.576 0 0 0-.205.626c-.043.179-.064.468-.063.867l.21.178.408-2.556zM73.286 62.937c-.124.385-.418.577-.883.577-.466 0-2.056-.246-4.77-.74l-1.24-.415 6.893.578z"/>
        <path fill="#0B1238" d="M72.365 70.54c-.946 0 2.692-3.68 4.887-5.132 2.194-1.451 3.91-2.27 4.927-2.45.678-.121 1.235.16 1.67.842.184-.012.594.312 1.23.973.636.66 1.304 1.345 2.006 2.053l2.476 3.452-1.522 1.254c-1.21-.437-2.053-1.476-2.527-3.117-.713-2.462-5.314.334-4.002-3.007 1.312-3.34-8.199 5.133-9.145 5.133z"/>
        <g>
            <path fill="#FACCCF" d="M46.715 49.833c.342-.553.823-.846 1.443-.88.62-.034 1.168.38 1.645 1.243l-.549 3.564c-1.46 2.419-2.523 4.103-3.192 5.054-2.025 2.88-3.659 4.647-4.116 4.999-1.024.788-2.67 1.062-3.67 2.484-.667.948-1.231 2.489-1.693 4.624-3.893 1.727-6.743 2.92-8.55 3.58-1.806.66-4.38.938-7.722.836 4.157-5.617 6.427-9 6.81-10.15.575-1.725.418-2.192.81-5.48.393-3.287 1.914-9.167 2.904-11.243.99-2.075 1.851-4.305 2.52-4.66.446-.237.758-.288.936-.152.999-1.046 1.69-1.692 2.074-1.936.575-.365 1.206-.644 1.523-.323.212.215.31.637.294 1.269l3.071-1.134c.629-.033.991.16 1.088.582.096.422-.015.9-.332 1.436l3.405.153c.546.043.906.228 1.08.556.262.492.194.877-.58 1.39-.773.513-1.158-.078-2.379.571-1.22.65-3.21 3.005-3.117 4.403.093 1.398.627 3.045 1.894 3.56 1.267.515 2.312-.668 3.05-1.468.492-.534.943-1.493 1.353-2.878z"/>
            <path fill="#EF8B89" d="M46.715 49.833c.342-.553.823-.846 1.443-.88.62-.034 1.168.38 1.645 1.243l-.549 3.564c-1.46 2.419-2.523 4.103-3.192 5.054-2.025 2.88-3.659 4.647-4.116 4.999-1.024.788-2.67 1.062-3.67 2.484-.667.948-1.231 2.489-1.693 4.624-3.893 1.727-6.743 2.92-8.55 3.58-1.036.378 3.196-6.099 9.177-10.21 1.946-1.338 4.409-1.96 5.16-6.112.393-2.179-3.111-3.62-3.243-6.098-.131-2.478.266-3.123 1.972-4.957 1.242-1.336 2.566-1.609 3.738-2.232.597-.317.416-1.185.577-1.193.604-.031.819.064 1.08.556.262.492.194.877-.58 1.39-.773.513-1.158-.078-2.379.571-1.22.65-3.21 3.005-3.117 4.403.093 1.398.627 3.045 1.894 3.56 1.267.515 2.312-.668 3.05-1.468.492-.534.943-1.493 1.353-2.878z" opacity=".403"/>
            <path fill="#EF8B89" d="M41.993 43.552c-.547.041-1.12.288-1.603.712-.483.425-3.387 4.164-3.43 4.08-.045-.082 1.95-3.02 2.71-3.864.76-.845 1.837-1.294 2.187-1.75.234-.303.382-.563.444-.78.095.496.103.827.025.992-.064.133-.206.6-.333.61zM38.222 42.666c-.882.54-1.542 1.112-1.98 1.714-.656.903-2.586 4.627-2.663 4.482-.077-.144 1.883-4.384 2.39-4.998.506-.613 1.422-1.355 1.776-1.693.236-.226.29-.472.165-.739.165.208.264.394.297.558.032.164.038.39.015.676zM34.266 43.68c.039.171-.63 1.216-1.337 2.522-.895 1.657-1.896 3.65-2.065 3.9-.304.445 1.125-2.563 1.803-3.875.68-1.312 1.51-2.935 1.599-2.547z"/>
            <path fill="#525D69" d="M36.89 71.434c0 1.062-1.536 3.624-4.609 7.685a747.13 747.13 0 0 1-9.31-1.384c-3.002-.466-5.016-.75-6.044-.853l6.044-10.204c.33-.928.907-1.392 1.733-1.392.826 0 3.853.921 9.082 2.764 2.07 1.193 3.104 2.321 3.104 3.384z"/>
            <path fill="#0B1238" d="M37.042 71.227c0 .96-1.97-.031-4.626-1.957-1.757-1.273-5.958-1.793-6.78-1.883-2.063-.225.355 4.345-2.617 4.605-2.973.259-5.088 5.097-5.742 4.712-.654-.385 2.585-4.807 3.438-6.12.569-.876 1.337-2.276 2.304-4.202.689-.921 1.446-1.382 2.272-1.382.827 0 2.665.46 5.514 1.382 4.158 2.167 6.237 3.782 6.237 4.845z"/>
        </g>
    </g>
</svg>
