<svg xmlns="http://www.w3.org/2000/svg" width="94" height="72" viewBox="0 0 94 72">
    <g fill="none" fill-rule="evenodd">
        <path d="M-4-8H96v80H-4z"/>
        <path fill="#FFF6ED" d="M30.135 2.955C14.206 6.562 14.893 18.052 5.215 31.249c-9.68 13.197-4.738 29.347 8.667 34.28 19.782 7.278 54.722 6.712 65.087 3.1 10.614-3.699 14.796-7.08 14.796-19.623 0-12.543-7.044-22.279-12.229-32.962-3.824-7.88-17.648-3.785-23.465-6.834-5.816-3.048-12.008-9.863-27.936-6.255z"/>
        <g transform="translate(8)">
            <rect width="55.857" height="38.957" x="6.071" fill="#434B54" rx="1.207"/>
            <path fill="#FFF" d="M59.5 28.207v6.35a.76.76 0 0 1-.773.747H9.273a.76.76 0 0 1-.773-.747V3.182a.76.76 0 0 1 .773-.747h49.454a.76.76 0 0 1 .773.747v1.217"/>
            <path fill="#EBDFDF" d="M29.629 4.42h26.229v16.647H29.629z"/>
            <path fill="#FFF3F3" d="M14.086 11.274H44.2v19.584H14.086z"/>
            <path fill="#D1D1D1" d="M6.68 38.957h54.64c1.08 0 2.027.715 2.322 1.752l3.482 12.215A2.414 2.414 0 0 1 64.802 56H3.198a2.414 2.414 0 0 1-2.322-3.076L4.358 40.71a2.414 2.414 0 0 1 2.321-1.752z"/>
            <path fill="#F7F9FA" d="M6.888 38H61.53c1.078 0 2.026.715 2.321 1.752l3.481 12.216a2.414 2.414 0 0 1-2.321 3.075H3.407a2.414 2.414 0 0 1-2.322-3.075l3.482-12.216A2.414 2.414 0 0 1 6.888 38z"/>
            <path fill="#D1D1D1" d="M28.66 47.457h10.775c.5 0 .924.371.99.867l.601 4.548A.997.997 0 0 1 40.038 54H27.925a.998.998 0 0 1-.985-1.157l.735-4.547a.998.998 0 0 1 .984-.839zM10.847 38.822h46.306c.58 0 1.077.412 1.186.982l1.062 5.594a1.207 1.207 0 0 1-1.185 1.432H9.785a1.207 1.207 0 0 1-1.186-1.432l1.063-5.594c.108-.57.606-.982 1.185-.982z"/>
        </g>
        <g opacity=".9" transform="translate(25.971 16.17)">
            <path stroke="#000" stroke-width=".603" d="M9.732 5.523c1.492-4.189 5.188-4.189 5.188-4.189M9.732 5.526c1.492 4.19 5.188 4.19 5.188 4.19"/>
            <rect width="6.595" height="2.836" fill="#FBCFD2" rx=".182" transform="translate(14.789 8.383)"/>
            <rect width="6.595" height="2.836" fill="#FBCFD2" rx=".187" transform="translate(14.789)"/>
            <rect width="10.992" height="4.964" x=".152" y="3.191" fill="#F19593" rx=".374"/>
        </g>
        <g>
            <path fill="#FACCCF" d="M45.556 57.042c-.561-.327-1.124-.36-1.687-.099-.564.261-.853.885-.869 1.87l2.157 2.889c2.424 1.45 4.155 2.439 5.191 2.964 3.14 1.592 5.413 2.386 5.981 2.481 1.275.216 2.856-.315 4.407.47 1.034.524 2.256 1.62 3.666 3.289 4.248-.303 7.324-.588 9.23-.853 1.904-.266 4.61-.789 8.118-1.568-6.912-3.888-10.808-6.25-11.686-7.085-1.317-1.252-1.398-1.739-3.288-4.457s-5.992-7.196-7.841-8.564c-1.849-1.368-3.656-2.932-4.414-2.932-.505 0-.804.102-.897.306-1.373-.456-2.286-.7-2.74-.736-.68-.053-1.367-.002-1.497.43-.086.288.026.708.336 1.258l-3.244.441c-.57.266-.8.607-.686 1.024.113.418.435.788.967 1.112l-2.935 1.734c-.462.294-.693.627-.693.998 0 .557.24.866 1.165.955.923.09.985-.612 2.368-.612s4.245 1.146 4.82 2.423c.574 1.278.876 2.984 0 4.033-.878 1.05-2.357.496-3.384.136-.685-.24-1.533-.876-2.545-1.907z"/>
            <path fill="#EF8B89" d="M45.556 57.042c-.561-.327-1.124-.36-1.687-.099-.564.261-.853.885-.869 1.87l2.157 2.889c2.424 1.45 4.155 2.439 5.191 2.964 3.14 1.592 5.413 2.386 5.981 2.481 1.275.216 2.856-.315 4.407.47 1.034.524 2.256 1.62 3.666 3.289 4.248-.303 7.324-.588 9.23-.853 1.092-.153-5.686-3.885-12.896-4.707-2.346-.268-4.813.34-7.425-2.975-1.37-1.739 1.047-4.656 0-6.906s-1.701-2.632-4.068-3.451c-1.724-.596-3.021-.216-4.35-.216-.675 0-.922-.85-1.068-.782-.548.256-.693.44-.693.998 0 .557.24.866 1.165.955.923.09.985-.612 2.368-.612s4.245 1.146 4.82 2.423c.574 1.278.876 2.984 0 4.033-.878 1.05-2.357.496-3.384.136-.685-.24-1.533-.876-2.545-1.907z" opacity=".403"/>
            <path fill="#EF8B89" d="M46.777 49.28c.502-.22 1.122-.271 1.749-.123.626.148 4.945 2.086 4.945 1.992 0-.094-3.141-1.751-4.208-2.14-1.067-.39-2.23-.28-2.752-.518-.35-.158-.602-.319-.758-.481.148.483.296.779.443.888.119.088.464.433.58.382zM49.69 46.728c1.032.063 1.883.257 2.552.584 1.004.489 4.457 2.87 4.457 2.707 0-.164-3.722-2.987-4.457-3.291-.735-.304-1.892-.529-2.363-.662-.314-.088-.479-.28-.493-.574-.048.26-.048.471 0 .632.048.16.15.361.304.604zM53.659 45.765c.046.17 1.127.778 2.364 1.6 1.569 1.042 3.388 2.333 3.655 2.473.477.25-2.197-1.734-3.412-2.574-1.215-.84-2.711-1.883-2.607-1.499z"/>
            <path fill="#525D69" d="M61.179 68.993c0 1.062.559 1.729 1.676 2 5.133-.247 9.1-.567 11.9-.958 2.8-.39 5.497-1.044 8.093-1.96-2.09-1.553-3.701-2.644-4.834-3.273a925.322 925.322 0 0 0-4.503-2.477c-.69-.922-1.447-1.382-2.273-1.382-.826 0-2.244.796-4.254 2.387-3.87 2.713-5.805 4.6-5.805 5.663z"/>
            <path fill="#0B1238" d="M61.179 68.993c0 .959 1.611-1.283 4.268-3.208 1.757-1.274 4.624-2.365 5.446-2.455 2.064-.225 1.953 2.195 4.925 2.455 2.973.259 6.376 2.675 7.03 2.29.654-.385-3.134-2.33-4.834-3.273a925.322 925.322 0 0 0-4.503-2.477c-.69-.922-1.447-1.382-2.273-1.382-.826 0-2.244.796-4.254 2.387-3.87 2.713-5.805 4.6-5.805 5.663z"/>
        </g>
    </g>
</svg>
