<?xml version="1.0" encoding="UTF-8"?>
<svg width="16px" height="16px" viewBox="0 0 16 16" version="1.1" xmlns="http://www.w3.org/2000/svg" xmlns:xlink="http://www.w3.org/1999/xlink">
    <!-- Generator: Sketch 47 (45396) - http://www.bohemiancoding.com/sketch -->
    <title>ic_triangle end</title>
    <desc>Created with Sketch.</desc>
    <defs>
        <rect id="path-1" x="0" y="0" width="16" height="16"></rect>
        <path d="M13.3233126,9.33450603 L7.05099881,13.4759229 L7.05099881,13.4759229 C6.59011385,13.7802312 5.96980221,13.6533007 5.66549397,13.1924157 C5.55754662,13.0289259 5.5,12.837329 5.5,12.6414169 L5.5,4.3585831 L5.5,4.3585831 C5.5,3.80629835 5.94771525,3.3585831 6.5,3.3585831 C6.69591212,3.3585831 6.88750896,3.41612972 7.05099881,3.52407707 L13.3233126,7.66549397 L13.3233126,7.66549397 C13.7841975,7.96980221 13.911128,8.59011385 13.6068198,9.05099881 C13.5324256,9.16367132 13.4359851,9.26011181 13.3233126,9.33450603 Z" id="path-2"></path>
    </defs>
    <g id="Icon" stroke="none" stroke-width="1" fill="none" fill-rule="evenodd">
        <g id="图标" transform="translate(-2777.000000, -1697.000000)">
            <g id="ic-straight-copy-17" transform="translate(2777.000000, 1697.000000)">
                <g id="ic_rectangle" opacity="0">
                    <use fill="#F5F5F5" fill-rule="evenodd" xlink:href="#path-1"></use>
                    <rect stroke="#DEDEDE" stroke-width="0.81" x="0.405" y="0.405" width="15.19" height="15.19"></rect>
                </g>
                <g id="Triangle-2">
                    <use fill="#434B54" fill-rule="evenodd" xlink:href="#path-2"></use>
                    <path stroke="#434B54" stroke-width="1" d="M13.0478132,8.91725302 C13.1041494,8.88005591 13.1523697,8.83183566 13.1895668,8.7754994 C13.3417209,8.54505693 13.2782556,8.2349011 13.0478132,8.08274698 L6.7754994,3.94133008 C6.69375448,3.88735641 6.59795606,3.8585831 6.5,3.8585831 C6.22385763,3.8585831 6,4.08244072 6,4.3585831 L6,12.6414169 C6,12.739373 6.02877331,12.8351714 6.08274698,12.9169163 C6.2349011,13.1473588 6.54505693,13.210824 6.7754994,13.0586699 L13.0478132,8.91725302 Z"></path>
                </g>
                <rect id="Rectangle-46" fill="#434B54" x="0" y="8" width="6" height="1" rx="0.5"></rect>
            </g>
        </g>
    </g>
</svg>