<?xml version="1.0" encoding="UTF-8"?>
<svg width="110px" height="110px" viewBox="0 0 110 110" version="1.1" xmlns="http://www.w3.org/2000/svg" xmlns:xlink="http://www.w3.org/1999/xlink">
    <!-- Generator: Sketch 48.2 (47327) - http://www.bohemiancoding.com/sketch -->
    <title>evernote</title>
    <desc>Created with Sketch.</desc>
    <defs></defs>
    <g id="Artboard-14-Copy" stroke="none" stroke-width="1" fill="none" fill-rule="evenodd" transform="translate(-2611.000000, -3506.000000)">
        <g id="Group-34" transform="translate(2611.000000, 3506.000000)">
            <circle id="Oval-8" fill="#F4F4F7" opacity="0.98999995" cx="55" cy="55" r="51"></circle>
            <g id="Group-70" transform="translate(12.200000, 19.700000)">
                <g id="Group">
                    <path d="M0.00199943308,18.6961718 L9.76679688,0 L74.9332031,0 L84.6690125,18.6406697 L84.7,18.6406494 L84.7,69.3 L0,69.3 L0,18.6961731 Z" id="Combined-Shape" fill="#FFFFFF"></path>
                    <path d="M27.35744,56.72784 C27.4947207,56.8756807 27.56336,57.0393591 27.56336,57.21888 C27.56336,57.419521 27.4841608,57.5963992 27.32576,57.74952 C27.1673592,57.9026408 26.987841,57.9792 26.7872,57.9792 C26.5654389,57.9792 26.3753608,57.884161 26.21696,57.69408 L22.77968,53.36976 L19.32656,57.69408 C19.1681592,57.884161 18.9833611,57.9792 18.77216,57.9792 C18.571519,57.9792 18.3920008,57.9026408 18.2336,57.74952 C18.0751992,57.5963992 17.996,57.419521 17.996,57.21888 C17.996,57.0499192 18.0593594,56.8862408 18.18608,56.72784 L21.82928,52.21344 L18.36032,47.90496 C18.2335994,47.7676793 18.17024,47.604001 18.17024,47.41392 C18.17024,47.213279 18.2467992,47.0364008 18.39992,46.88328 C18.5530408,46.7301592 18.729919,46.6536 18.93056,46.6536 C19.1523211,46.6536 19.3423992,46.748639 19.5008,46.93872 L22.77968,51.07296 L26.05856,46.93872 C26.2064007,46.748639 26.3964788,46.6536 26.6288,46.6536 C26.829441,46.6536 27.0089592,46.7301592 27.16736,46.88328 C27.3257608,47.0364008 27.40496,47.213279 27.40496,47.41392 C27.40496,47.5934409 27.3363207,47.7571193 27.19904,47.90496 L23.73008,52.21344 L27.35744,56.72784 Z M39.17408,46.6536 C39.4064012,46.6536 39.5964793,46.7301592 39.74432,46.88328 C39.8921607,47.0364008 39.96608,47.2343988 39.96608,47.47728 L39.96608,57.20304 C39.96608,57.4459212 39.9000807,57.6359993 39.76808,57.77328 C39.6360793,57.9105607 39.4539212,57.9792 39.2216,57.9792 C38.9998389,57.9792 38.8256006,57.9105607 38.69888,57.77328 C38.5721594,57.6359993 38.5088,57.4459212 38.5088,57.20304 L38.5088,49.83744 L35.40416,55.74576 C35.203519,56.1153618 34.9448016,56.30016 34.628,56.30016 C34.3111984,56.30016 34.052481,56.1153618 33.85184,55.74576 L30.73136,49.9008 L30.73136,57.20304 C30.73136,57.4459212 30.6680006,57.6359993 30.54128,57.77328 C30.4145594,57.9105607 30.2350412,57.9792 30.00272,57.9792 C29.7809589,57.9792 29.6040807,57.9079207 29.47208,57.76536 C29.3400793,57.6227993 29.27408,57.4353612 29.27408,57.20304 L29.27408,47.47728 C29.27408,47.2343988 29.3479993,47.0364008 29.49584,46.88328 C29.6436807,46.7301592 29.8337588,46.6536 30.06608,46.6536 C30.3934416,46.6536 30.657439,46.8436781 30.85808,47.22384 L34.64384,54.46272 L38.39792,47.22384 C38.598561,46.8436781 38.8572784,46.6536 39.17408,46.6536 Z M43.19744,57.9792 C42.9651188,57.9792 42.7724008,57.9158406 42.61928,57.78912 C42.4661592,57.6623994 42.3896,57.4723213 42.3896,57.21888 L42.3896,50.78784 C42.3896,50.5343987 42.4661592,50.3416807 42.61928,50.20968 C42.7724008,50.0776793 42.9651188,50.01168 43.19744,50.01168 C43.4297612,50.01168 43.6198393,50.0776793 43.76768,50.20968 C43.9155207,50.3416807 43.98944,50.5343987 43.98944,50.78784 L43.98944,57.21888 C43.98944,57.4723213 43.9155207,57.6623994 43.76768,57.78912 C43.6198393,57.9158406 43.4297612,57.9792 43.19744,57.9792 Z M43.19744,48.45936 C42.8911985,48.45936 42.6483209,48.3748808 42.4688,48.20592 C42.2892791,48.0369592 42.19952,47.8152014 42.19952,47.54064 C42.19952,47.2660786 42.2892791,47.0469608 42.4688,46.88328 C42.6483209,46.7195992 42.8911985,46.63776 43.19744,46.63776 C43.4931215,46.63776 43.7333591,46.7195992 43.91816,46.88328 C44.1029609,47.0469608 44.19536,47.2660786 44.19536,47.54064 C44.19536,47.8152014 44.1056009,48.0369592 43.92608,48.20592 C43.7465591,48.3748808 43.5036815,48.45936 43.19744,48.45936 Z M50.3888,49.98 C52.2368092,49.98 53.1608,51.0201496 53.1608,53.10048 L53.1608,57.21888 C53.1608,57.4617612 53.0895207,57.6491993 52.94696,57.7812 C52.8043993,57.9132007 52.6064013,57.9792 52.35296,57.9792 C52.1100788,57.9792 51.9173607,57.9105607 51.7748,57.77328 C51.6322393,57.6359993 51.56096,57.4512012 51.56096,57.21888 L51.56096,53.17968 C51.56096,52.5249567 51.4316013,52.0444815 51.17288,51.73824 C50.9141587,51.4319985 50.5102427,51.27888 49.96112,51.27888 C49.3169568,51.27888 48.799522,51.479518 48.4088,51.8808 C48.018078,52.282082 47.82272,52.8206366 47.82272,53.49648 L47.82272,57.21888 C47.82272,57.4512012 47.7514407,57.6359993 47.60888,57.77328 C47.4663193,57.9105607 47.2736012,57.9792 47.03072,57.9792 C46.7878388,57.9792 46.5924807,57.9105607 46.44464,57.77328 C46.2967993,57.6359993 46.22288,57.4512012 46.22288,57.21888 L46.22288,50.772 C46.22288,50.5502389 46.2994392,50.3680807 46.45256,50.22552 C46.6056808,50.0829593 46.7983988,50.01168 47.03072,50.01168 C47.2630412,50.01168 47.4478393,50.0803193 47.58512,50.2176 C47.7224007,50.3548807 47.79104,50.5343989 47.79104,50.75616 L47.79104,51.4056 C48.0444813,50.9409577 48.3982377,50.5872012 48.85232,50.34432 C49.3064023,50.1014388 49.8185571,49.98 50.3888,49.98 Z M61.66688,46.6536 C61.9097612,46.6536 62.1051193,46.7222393 62.25296,46.85952 C62.4008007,46.9968007 62.47472,47.1815988 62.47472,47.41392 L62.47472,57.20304 C62.47472,57.4459212 62.4034407,57.6359993 62.26088,57.77328 C62.1183193,57.9105607 61.9256012,57.9792 61.68272,57.9792 C61.4398388,57.9792 61.2471207,57.9105607 61.10456,57.77328 C60.9619993,57.6359993 60.89072,57.4459212 60.89072,57.20304 L60.89072,56.56944 C60.6583988,57.0340823 60.3204822,57.3904788 59.87696,57.63864 C59.4334378,57.8868012 58.9212829,58.01088 58.34048,58.01088 C57.6751967,58.01088 57.0812026,57.8419217 56.55848,57.504 C56.0357574,57.1660783 55.6292015,56.6908831 55.3388,56.0784 C55.0483985,55.4659169 54.9032,54.763684 54.9032,53.97168 C54.9032,53.169116 55.0483985,52.466883 55.3388,51.86496 C55.6292015,51.263037 56.0331174,50.7984016 56.55056,50.47104 C57.0680026,50.1436784 57.6646366,49.98 58.34048,49.98 C58.9212829,49.98 59.4307978,50.1040788 59.86904,50.35224 C60.3072822,50.6004012 60.6425588,50.9515177 60.87488,51.4056 L60.87488,47.38224 C60.87488,47.1604789 60.9461593,46.9836007 61.08872,46.8516 C61.2312807,46.7195993 61.4239988,46.6536 61.66688,46.6536 Z M58.72064,56.74368 C59.4070434,56.74368 59.9403181,56.5060824 60.32048,56.03088 C60.7006419,55.5556776 60.89072,54.8798444 60.89072,54.00336 C60.89072,53.1268756 60.7032819,52.4510424 60.3284,51.97584 C59.9535181,51.5006376 59.4176035,51.26304 58.72064,51.26304 C58.0236765,51.26304 57.4824819,51.4979977 57.09704,51.96792 C56.7115981,52.4378423 56.51888,53.1057557 56.51888,53.97168 C56.51888,54.8376043 56.714238,55.5160775 57.10496,56.00712 C57.495682,56.4981625 58.0342366,56.74368 58.72064,56.74368 Z" id="XMind" fill="#E1E4E6"></path>
                    <path d="M0.932421875,17.926123 L84.199648,17.926123" id="Path-55" stroke="#E1E4E6" stroke-width="1.1"></path>
                    <rect id="Rectangle-48" fill="#E1E4E6" x="36.3" y="18.3700008" width="12.1" height="18.7"></rect>
                </g>
                <polygon id="Rectangle-48" fill="#E1E4E6" points="37.8508632 0 46.8001298 0 48.3827159 19.4700008 36.3172841 19.4700008"></polygon>
                <g id="Group-8" transform="translate(58.300000, 35.300000)">
                    <ellipse id="Oval-2" stroke="#FFFFFF" stroke-width="0.935" fill="#00C353" cx="18.6948767" cy="18.6883125" rx="18.6948767" ry="18.6883125"></ellipse>
                    <path d="M10.0229204,12.3273086 L10.0243808,12.3273086 L12.2652935,12.3273086 C12.3937101,12.3273086 12.4969593,12.2309633 12.4972027,12.1135369 C12.4972027,12.1128192 12.4699909,10.3431249 12.4699909,9.85099248 L12.4699909,9.84516153 C12.4699909,9.44098676 12.5620438,9.08857291 12.7224428,8.79330241 L12.7990644,8.66067065 C12.7904968,8.66201626 12.7819292,8.66587366 12.7734103,8.67372302 L8.41927121,12.6521376 C8.41075229,12.6585965 8.40539754,12.6669841 8.40296357,12.6755511 C8.49302067,12.6344653 8.61617984,12.5783536 8.63355842,12.5713116 C9.01277183,12.4136964 9.47254984,12.3273086 10.0229204,12.3273086 L10.0229204,12.3273086 Z M27.1041211,12.0838577 C26.9302837,11.1759241 26.3770654,10.7284741 25.8768967,10.5525924 C25.3372734,10.3622858 24.2430058,10.165161 22.8681836,10.0070438 C21.7620796,9.87995628 20.4620307,9.89006762 19.6767915,9.91376898 C19.5825285,9.28389734 19.1297527,8.70843214 18.6231191,8.50922016 C17.273253,7.97907047 15.1876322,8.107132 14.6521445,8.2536073 C14.2266541,8.36965582 13.7556722,8.60745787 13.4935138,8.97392443 C13.3177275,9.21868383 13.203975,9.53232094 13.2031193,9.97040177 C13.2031193,10.2183615 13.2102021,10.8024539 13.216667,11.3214254 C13.2230843,11.8420204 13.230072,12.3076523 13.230072,12.3107599 C13.2298343,12.7742582 12.8448441,13.1514391 12.3677777,13.152042 L10.1791473,13.152042 C9.71230101,13.152042 9.35559448,13.2285728 9.08312089,13.3493987 C8.81021948,13.4703174 8.61694006,13.6333048 8.47010284,13.826116 C8.17775941,14.2090019 8.12703901,14.6815448 8.1282274,15.1637352 C8.1282274,15.1637352 8.13255313,15.5577528 8.2298108,16.320417 C8.31071625,16.910539 8.9665638,21.0329515 9.58951677,22.2867114 C9.83104474,22.7745141 9.99195247,22.9776686 10.466452,23.1926969 C11.523737,23.6343492 13.938779,24.1257232 15.0706473,24.2664471 C16.2004715,24.4074957 16.9096063,24.7040178 17.3322446,23.8394517 C17.3336707,23.8373181 17.4169054,23.6243306 17.5313709,23.3119458 C17.89825,22.2271102 17.9493507,21.2645847 17.9493507,20.5680617 C17.9493507,20.4972359 18.0558303,20.4939891 18.0558303,20.5680617 C18.0558303,21.0598068 17.9595708,22.8000243 19.306775,23.2668622 C19.8386024,23.4509072 20.9419017,23.6149614 22.0629319,23.7432084 C23.0765793,23.8568914 23.8121914,24.2460853 23.8121914,26.7835682 C23.8121914,28.3273567 23.4798706,28.5390455 21.74259,28.5390455 C20.3343027,28.5390455 19.7975792,28.5746207 19.7975792,27.4829669 C19.7975792,26.6006364 20.6919124,26.6931227 21.3547002,26.6931227 C21.6507514,26.6931227 21.4358433,26.4782335 21.4358433,25.9338908 C21.4358433,25.3924239 21.7829001,25.0793897 21.4546674,25.0714584 C19.1626948,25.009909 17.8141122,25.0689073 17.8141122,27.8658064 C17.8141122,30.4049127 18.8099337,30.8763424 22.0628843,30.8763424 C24.613355,30.8763424 25.5123943,30.7948487 26.5655437,27.6065294 C26.773987,26.9771215 27.2779585,25.0562913 27.5829464,21.8312372 C27.7759406,19.791993 27.4013132,13.6372473 27.1041211,12.0838577 L27.1041211,12.0838577 Z M22.7666723,18.774582 C22.4515946,18.7640717 22.1485419,18.7830537 21.8660224,18.8263182 C21.9455404,18.2141377 22.2106639,17.4629221 23.1498133,17.4943625 C24.1894416,17.5284304 24.3351217,18.4650261 24.3388291,19.0993598 C23.9003629,18.9130735 23.3577105,18.7943795 22.7666723,18.774582 L22.7666723,18.774582 Z" id="Shape" fill="#FFFFFF"></path>
                </g>
            </g>
        </g>
    </g>
</svg>