<?xml version="1.0" encoding="UTF-8" standalone="no"?>
<svg width="48px" height="48px" viewBox="0 0 48 48" version="1.1" xmlns="http://www.w3.org/2000/svg" xmlns:xlink="http://www.w3.org/1999/xlink">
    <!-- Generator: Sketch 44 (41411) - http://www.bohemiancoding.com/sketch -->
    <title>ic_twitter</title>
    <desc>Created with Sketch.</desc>
    <defs></defs>
    <g id="Page-1" stroke="none" stroke-width="1" fill="none" fill-rule="evenodd">
        <g id="vana-dialog-share" transform="translate(-379.000000, -238.000000)">
            <g id="popover" transform="translate(267.000000, 208.000000)">
                <g id="Group-5" transform="translate(0.000000, 30.000000)">
                    <g id="Group-10" transform="translate(112.000000, 0.000000)">
                        <g id="Group-38">
                            <circle id="Oval-4-Copy" fill="#32A7E0" cx="24" cy="24" r="24"></circle>
                            <path d="M39,17.6042391 C38.006675,18.0460393 36.9389653,18.3444981 35.8186059,18.4787707 C36.9621852,17.7914357 37.8406258,16.7030424 38.2541287,15.4060664 C37.1837191,16.0426431 35.99829,16.5047467 34.7364513,16.7538007 C33.7261164,15.6743409 32.2864836,15 30.6932215,15 C27.6341368,15 25.1537942,17.4866152 25.1537942,20.55377 C25.1537942,20.9890731 25.202799,21.4130064 25.2971635,21.8194789 C20.6934165,21.5878857 16.6118469,19.3767189 13.8798656,16.0165195 C13.403048,16.8367736 13.1298094,17.7907589 13.1298094,18.808632 C13.1298094,20.7355523 14.1077445,22.4354816 15.594087,23.4314271 C14.6859466,23.4025964 13.8319408,23.1527302 13.0851246,22.7367828 C13.0845846,22.7599286 13.0845846,22.7832098 13.0845846,22.8066263 C13.0845846,25.4974928 14.994015,27.7422278 17.5280874,28.2525179 C17.0632847,28.3794813 16.5739121,28.4472944 16.0686097,28.4472944 C15.7115364,28.4472944 15.3645882,28.4123727 15.0262799,28.3476728 C15.7313813,30.5541022 17.7768911,32.1599594 20.200939,32.2046267 C18.3051435,33.6943489 15.9167354,34.5821454 13.3213734,34.5821454 C12.8742556,34.5821454 12.4333478,34.5558864 12,34.5044513 C14.4514527,36.080395 17.3632532,37 20.4913225,37 C30.6801266,37 36.2518187,28.5370351 36.2518187,21.1976559 C36.2518187,20.9568585 36.2464188,20.7174147 36.2357538,20.4790537 C37.3183134,19.6961578 38.2573687,18.7179438 39,17.6042391 L39,17.6042391 Z" id="Shape-5-Copy" fill="#FFFFFF"></path>
                        </g>
                    </g>
                </g>
            </g>
        </g>
    </g>
</svg>