<?xml version="1.0" encoding="UTF-8"?>
<svg width="36px" height="16px" viewBox="0 0 36 16" version="1.1" xmlns="http://www.w3.org/2000/svg" xmlns:xlink="http://www.w3.org/1999/xlink">
    <!-- Generator: Sketch 46.2 (44496) - http://www.bohemiancoding.com/sketch -->
    <title>first_page_disable</title>
    <desc>Created with Sketch.</desc>
    <defs>
        <path d="M2,0 L36,0 L36,16 L2,16 L2,16 C0.8954305,16 1.3527075e-16,15.1045695 0,14 L0,2 L0,2 C-1.3527075e-16,0.8954305 0.8954305,2.02906125e-16 2,0 Z" id="path-1"></path>
    </defs>
    <g id="dialog" stroke="none" stroke-width="1" fill="none" fill-rule="evenodd">
        <g id="first_page_disable">
            <g id="Rectangle-2">
                <use fill="#FFFFFF" fill-rule="evenodd" xlink:href="#path-1"></use>
                <path stroke="#D1D1D1" stroke-width="0.5" d="M35.75,15.75 L35.75,0.25 L2,0.25 C1.03350169,0.25 0.25,1.03350169 0.25,2 L0.25,14 C0.25,14.9664983 1.03350169,15.75 2,15.75 L35.75,15.75 Z"></path>
            </g>
            <g id="Group-10-Copy" transform="translate(18.500000, 8.500000) rotate(-315.000000) translate(-18.500000, -8.500000) translate(14.000000, 4.000000)" fill="#D1D1D1">
                <path d="M3.5,0 L9,0 L9,1 L4,1 L4,6 L3,6 L3,0 L3.5,0 Z" id="Combined-Shape-Copy-5" transform="translate(6.000000, 3.000000) scale(1, -1) translate(-6.000000, -3.000000) "></path>
                <path d="M0.5,3 L6,3 L6,4 L1,4 L1,9 L0,9 L0,3 L0.5,3 Z" id="Combined-Shape-Copy-6" transform="translate(3.000000, 6.000000) scale(1, -1) translate(-3.000000, -6.000000) "></path>
            </g>
        </g>
    </g>
</svg>