<?xml version="1.0" encoding="UTF-8" standalone="no"?>
<svg width="16px" height="16px" viewBox="0 0 16 16" version="1.1" xmlns="http://www.w3.org/2000/svg" xmlns:xlink="http://www.w3.org/1999/xlink">
    <!-- Generator: Sketch 45.1 (43504) - http://www.bohemiancoding.com/sketch -->
    <title>ic_allnotes</title>
    <desc>Created with Sketch.</desc>
    <defs></defs>
    <g id="修改" stroke="none" stroke-width="1" fill="none" fill-rule="evenodd">
        <g id="notes-Full-functions-Copy" transform="translate(-944.000000, -531.000000)">
            <g id="Group-Copy-4" transform="translate(944.000000, 531.000000)">
                <rect id="ic_allnotes" x="0" y="0" width="16" height="16"></rect>
                <path d="M4,14 L11,14 L11,12.9990201 L12,12.9990201 L12,4 L5,4 L5,5 L4,5 L4,14 Z M3,4.9955775 C3,4.44573523 3.4463114,4 3.99754465,4 L11.0024554,4 C11.553384,4 12,4.44483697 12,4.9955775 L12,14.0044225 C12,14.5542648 11.5536886,15 11.0024554,15 L3.99754465,15 C3.44661595,15 3,14.555163 3,14.0044225 L3,4.9955775 Z" id="Rectangle-6" fill="#434B54" fill-rule="nonzero"></path>
                <path d="M5.5,2.9955775 L5.5,12.0044225 C5.5,12.2784193 5.72215699,12.5 5.99754465,12.5 L13.0024554,12.5 C13.2774174,12.5 13.5,12.2773705 13.5,12.0024554 L13.5,4.99754465 C13.5,4.72274104 13.2768966,4.5 13.0010434,4.5 L11.9989566,4.5 C11.1676289,4.5 10.5,3.82954693 10.5,3 C10.5,2.72060082 10.2808507,2.5 10.009222,2.5 L5.99077797,2.5 C5.72453149,2.5 5.5,2.7244629 5.5,2.9955775 Z" id="Combined-Shape" stroke="#434B54"></path>
                <rect id="Rectangle-12-Copy-2" fill="#E83E26" x="7" y="9" width="5" height="1"></rect>
                <rect id="Rectangle-12-Copy" fill="#E83E26" x="7" y="7" width="5" height="1"></rect>
            </g>
        </g>
    </g>
</svg>