<?xml version="1.0" encoding="UTF-8" standalone="no"?>
<svg width="16px" height="16px" viewBox="0 0 16 16" version="1.1" xmlns="http://www.w3.org/2000/svg" xmlns:xlink="http://www.w3.org/1999/xlink">
    <!-- Generator: Sketch 45.1 (43504) - http://www.bohemiancoding.com/sketch -->
    <title>ic_bold</title>
    <desc>Created with Sketch.</desc>
    <defs></defs>
    <g id="修改" stroke="none" stroke-width="1" fill="none" fill-rule="evenodd">
        <g id="notes-Full-functions-Copy" transform="translate(-464.000000, -531.000000)">
            <g id="Group-Copy-4" transform="translate(464.000000, 531.000000)">
                <rect id="ic_bold" opacity="0.170516304" x="0" y="0" width="16" height="16"></rect>
                <path d="M8.91650391,13.159668 L5,13.159668 L5,4 L8.87841797,4 C10.5415039,4 11.6142578,4.89501953 11.6142578,6.28515625 C11.6142578,7.26904297 10.8842773,8.12597656 9.94482422,8.27832031 L9.94482422,8.32910156 C11.1889648,8.44970703 12.0649414,9.34472656 12.0649414,10.5571289 C12.0649414,12.1694336 10.871582,13.159668 8.91650391,13.159668 Z M6.63769531,5.27587891 L6.63769531,7.859375 L8.21191406,7.859375 C9.35449219,7.859375 9.99560547,7.37695312 9.99560547,6.52636719 C9.99560547,5.7265625 9.44335938,5.27587891 8.47216797,5.27587891 L6.63769531,5.27587891 Z M6.63769531,11.8837891 L8.54199219,11.8837891 C9.74804688,11.8837891 10.3891602,11.3823242 10.3891602,10.4428711 C10.3891602,9.50976562 9.72900391,9.02099609 8.47851562,9.02099609 L6.63769531,9.02099609 L6.63769531,11.8837891 Z" id="B" fill="#434B54"></path>
            </g>
        </g>
    </g>
</svg>