<svg xmlns="http://www.w3.org/2000/svg" width="16" height="16" viewBox="0 0 16 16">
    <g fill="none" fill-rule="evenodd">
        <path d="M0 0h16v16H0z"/>
        <g fill="#434B54" transform="translate(3 3)">
            <rect width="1" height="5" x="1.854" y="5.168" rx=".5" transform="rotate(45 2.354 7.668)"/>
            <rect width="1" height="5" x="7.168" y="-.146" rx=".5" transform="rotate(-135 7.668 2.354)"/>
            <path d="M.145.143A.483.483 0 0 1 .49 0h3.02A.5.5 0 0 1 4 .5c0 .276-.215.5-.49.5H1v2.51A.5.5 0 0 1 .5 4a.492.492 0 0 1-.5-.49V.49C0 .357.057.235.146.147zM9.855.143A.483.483 0 0 0 9.51 0H6.49A.5.5 0 0 0 6 .5c0 .276.215.5.49.5H9v2.51a.5.5 0 0 0 .5.49c.276 0 .5-.215.5-.49V.49a.483.483 0 0 0-.146-.343zM9.855 9.857A.483.483 0 0 1 9.51 10H6.49A.5.5 0 0 1 6 9.5c0-.276.215-.5.49-.5H9V6.49A.5.5 0 0 1 9.5 6c.276 0 .5.215.5.49v3.02a.483.483 0 0 1-.146.343zM.145 9.857c.088.088.21.143.345.143h3.02A.5.5 0 0 0 4 9.5c0-.276-.215-.5-.49-.5H1V6.49A.5.5 0 0 0 .5 6c-.276 0-.5.215-.5.49v3.02c0 .133.057.255.146.343z"/>
        </g>
    </g>
</svg>
