<?xml version="1.0" encoding="UTF-8" standalone="no"?>
<svg width="16px" height="16px" viewBox="0 0 16 16" version="1.1" xmlns="http://www.w3.org/2000/svg" xmlns:xlink="http://www.w3.org/1999/xlink">
    <!-- Generator: Sketch 45.1 (43504) - http://www.bohemiancoding.com/sketch -->
    <title>ic_attachment disable</title>
    <desc>Created with Sketch.</desc>
    <defs></defs>
    <g id="修改" stroke="none" stroke-width="1" fill="none" fill-rule="evenodd" opacity="0.400000006">
        <g id="notes-Full-functions-Copy" transform="translate(-684.000000, -576.000000)">
            <g id="Group-8" transform="translate(366.000000, 576.000000)">
                <g id="Group-Copy-10" transform="translate(318.000000, 0.000000)">
                    <rect id="Rectangle-3" opacity="0.170516304" x="0" y="0" width="16" height="16"></rect>
                    <g id="Group-3-Copy-2" transform="translate(7.577164, 8.000000) rotate(-45.000000) translate(-7.577164, -8.000000) translate(1.077164, 4.500000)">
                        <rect id="Rectangle-9" x="1.79898987" y="0.798989873" width="10" height="6"></rect>
                        <path d="M6.04898987,2.51327559 L6.04898987,1.65864358 C6.04898987,1.17431675 5.71221981,0.798989873 5.29679288,0.798989873 L1.55118687,0.798989873 C1.12740089,0.798989873 0.798989873,1.18386995 0.798989873,1.65864358 L0.798989873,5.93933616 C0.798989873,6.423663 1.13575994,6.79898987 1.55118687,6.79898987 L5.29679288,6.79898987 C5.72057886,6.79898987 6.04898987,6.4141098 6.04898987,5.93933616 L6.04898987,5.08470416 L5.11148987,5.08470416 L5.11148987,5.7275613 L1.73648987,5.7275613 L1.73648987,1.87041844 L5.11148987,1.87041844 L5.11148987,2.51327559 L6.04898987,2.51327559 Z M7.54898987,5.08470416 L7.54898987,5.93933616 C7.54898987,6.423663 7.88575994,6.79898987 8.30118687,6.79898987 L12.0467929,6.79898987 C12.4705789,6.79898987 12.7989899,6.4141098 12.7989899,5.93933616 L12.7989899,1.65864358 C12.7989899,1.17431675 12.4622198,0.798989873 12.0467929,0.798989873 L8.30118687,0.798989873 C7.87740089,0.798989873 7.54898987,1.18386995 7.54898987,1.65864358 L7.54898987,2.51327559 L8.48648987,2.51327559 L8.48648987,1.87041844 L11.8614899,1.87041844 L11.8614899,5.7275613 L8.48648987,5.7275613 L8.48648987,5.08470416 L7.54898987,5.08470416 Z" id="Combined-Shape" fill="#434B54" fill-rule="nonzero"></path>
                        <rect id="Rectangle-11" fill="#434B54" x="4.54898987" y="3.27613221" width="4.5" height="1.07142857"></rect>
                    </g>
                </g>
            </g>
        </g>
    </g>
</svg>