<?xml version="1.0" encoding="UTF-8" standalone="no"?>
<svg width="16px" height="16px" viewBox="0 0 16 16" version="1.1" xmlns="http://www.w3.org/2000/svg" xmlns:xlink="http://www.w3.org/1999/xlink">
    <!-- Generator: Sketch 45.1 (43504) - http://www.bohemiancoding.com/sketch -->
    <title>ic_Small header</title>
    <desc>Created with Sketch.</desc>
    <defs></defs>
    <g id="修改" stroke="none" stroke-width="1" fill="none" fill-rule="evenodd">
        <g id="notes-Full-functions-Copy" transform="translate(-414.000000, -531.000000)">
            <g id="Group-Copy-2" transform="translate(414.000000, 531.000000)">
                <rect id="Rectangle-3" opacity="0.170516304" x="0" y="0" width="16" height="16"></rect>
                <polygon id="Combined-Shape" fill="#363B3F" points="9.74609375 12 9.74609375 3.54492188 8.43359375 3.54492188 8.43359375 7.11914062 4.09179688 7.11914062 4.09179688 3.54492188 2.77929688 3.54492188 2.77929688 12 4.09179688 12 4.09179688 8.25585938 8.43359375 8.25585938 8.43359375 12"></polygon>
                <path d="M12.6640625,9.44921875 L13.3671875,9.44921875 C14.109375,9.44921875 14.5703125,9.82421875 14.5703125,10.4335938 C14.5703125,10.984375 14.078125,11.375 13.390625,11.375 C12.6796875,11.375 12.234375,11.0039062 12.1796875,10.4648438 L11.3398438,10.4648438 C11.3945312,11.4375 12.1757812,12.1054688 13.390625,12.1054688 C14.5664062,12.1054688 15.4609375,11.4296875 15.4609375,10.4453125 C15.4609375,9.65625 14.9140625,9.13671875 14.0664062,9.078125 L14.0664062,9.0625 C14.765625,8.9375 15.2265625,8.43359375 15.2265625,7.73046875 C15.2265625,6.86328125 14.4492188,6.2578125 13.3828125,6.2578125 C12.265625,6.2578125 11.5195312,6.89453125 11.453125,7.8828125 L12.2773438,7.8828125 C12.328125,7.328125 12.734375,6.9765625 13.34375,6.9765625 C14.0117188,6.9765625 14.3710938,7.32421875 14.3710938,7.84765625 C14.3710938,8.37890625 13.953125,8.76171875 13.34375,8.76171875 L12.6640625,8.76171875 L12.6640625,9.44921875 Z" id="3" fill="#E83E26"></path>
            </g>
        </g>
    </g>
</svg>