<?xml version="1.0" encoding="UTF-8" standalone="no"?>
<svg width="16px" height="16px" viewBox="0 0 16 16" version="1.1" xmlns="http://www.w3.org/2000/svg" xmlns:xlink="http://www.w3.org/1999/xlink">
    <!-- Generator: Sketch 45.1 (43504) - http://www.bohemiancoding.com/sketch -->
    <title>ic_Medium header disable</title>
    <desc>Created with Sketch.</desc>
    <defs></defs>
    <g id="修改" stroke="none" stroke-width="1" fill="none" fill-rule="evenodd" opacity="0.400000006">
        <g id="notes-Full-functions-Copy" transform="translate(-390.000000, -576.000000)">
            <g id="Group-8" transform="translate(366.000000, 576.000000)">
                <g id="Group-Copy" transform="translate(24.000000, 0.000000)">
                    <rect id="Rectangle-3" opacity="0.170516304" x="0" y="0" width="16" height="16"></rect>
                    <polygon id="Combined-Shape" fill="#434B54" points="9.74609375 12 9.74609375 3.54492188 8.43359375 3.54492188 8.43359375 7.11914062 4.09179688 7.11914062 4.09179688 3.54492188 2.77929688 3.54492188 2.77929688 12 4.09179688 12 4.09179688 8.25585938 8.43359375 8.25585938 8.43359375 12"></polygon>
                    <path d="M11.390625,8.015625 L11.390625,8.0234375 L12.21875,8.0234375 L12.21875,8.01171875 C12.21875,7.42578125 12.6835938,6.98046875 13.3007812,6.98046875 C13.8867188,6.98046875 14.3398438,7.37890625 14.3398438,7.87890625 C14.3398438,8.3203125 14.1601562,8.6171875 13.4726562,9.33203125 L11.4375,11.40625 L11.4375,12 L15.2929688,12 L15.2929688,11.2617188 L12.6171875,11.2617188 L12.6171875,11.2421875 L14.0273438,9.82421875 C14.8515625,8.98046875 15.203125,8.4921875 15.203125,7.8359375 C15.203125,6.94140625 14.4023438,6.2578125 13.328125,6.2578125 C12.2070312,6.2578125 11.390625,7 11.390625,8.015625 Z" id="2" fill="#434B54"></path>
                </g>
            </g>
        </g>
    </g>
</svg>