<?xml version="1.0" encoding="UTF-8" standalone="no"?>
<svg width="16px" height="16px" viewBox="0 0 16 16" version="1.1" xmlns="http://www.w3.org/2000/svg" xmlns:xlink="http://www.w3.org/1999/xlink">
    <!-- Generator: Sketch 45.1 (43504) - http://www.bohemiancoding.com/sketch -->
    <title>ic_number order</title>
    <desc>Created with Sketch.</desc>
    <defs></defs>
    <g id="修改" stroke="none" stroke-width="1" fill="none" fill-rule="evenodd">
        <g id="notes-Full-functions-Copy" transform="translate(-610.000000, -531.000000)">
            <g id="Group-Copy-9" transform="translate(610.000000, 531.000000)">
                <rect id="ic_number-order" opacity="0.170516304" x="0" y="0" width="16" height="16"></rect>
                <path d="M7,3.5 L12,3.5 L12,4.5 L7,4.5 L7,3.5 Z M7,7.5 L14,7.5 L14,8.5 L7,8.5 L7,7.5 Z M7,11.5 L14,11.5 L14,12.5 L7,12.5 L7,11.5 Z" id="Combined-Shape" fill="#434B54"></path>
                <polygon id="1" fill="#E83E26" points="3.35644531 7 4.23242188 7 4.23242188 2.77246094 3.35351562 2.77246094 2.26074219 3.53125 2.26074219 4.328125 3.33886719 3.58398438 3.35644531 3.58398438"></polygon>
                <path d="M2.24902344,10.0439453 L2.24902344,10.0585938 L3.06933594,10.0585938 L3.06933594,10.0439453 C3.06933594,9.65429688 3.37109375,9.3671875 3.78125,9.3671875 C4.17382812,9.3671875 4.45214844,9.61914062 4.45214844,9.93554688 C4.45214844,10.2285156 4.3203125,10.4423828 3.89257812,10.8701172 L2.29882812,12.4052734 L2.29882812,13 L5.37207031,13 L5.37207031,12.296875 L3.46484375,12.296875 L3.46484375,12.2792969 L4.49609375,11.2861328 C4.96191406,10.8232422 5.31347656,10.4277344 5.31347656,9.90039062 C5.31347656,9.19433594 4.70117188,8.67871094 3.81054688,8.67871094 C2.88769531,8.67871094 2.24902344,9.24414062 2.24902344,10.0439453 Z" id="2" fill="#E83E26"></path>
            </g>
        </g>
    </g>
</svg>