<?xml version="1.0" encoding="UTF-8" standalone="no"?>
<svg width="18px" height="18px" viewBox="0 0 18 18" version="1.1" xmlns="http://www.w3.org/2000/svg" xmlns:xlink="http://www.w3.org/1999/xlink">
    <!-- Generator: Sketch 45.1 (43504) - http://www.bohemiancoding.com/sketch -->
    <title>ic minimize</title>
    <desc>Created with Sketch.</desc>
    <defs></defs>
    <g id="修改" stroke="none" stroke-width="1" fill="none" fill-rule="evenodd">
        <g id="notes-Full-functions-Copy" transform="translate(-906.000000, -530.000000)">
            <g id="Group-6" transform="translate(906.000000, 530.000000)">
                <rect id="Rectangle-41" x="1" y="1" width="16" height="16"></rect>
                <g id="Group-2-Copy" transform="translate(4.000000, 4.000000)" fill="#434B54">
                    <rect id="Combined-Shape" transform="translate(2.353553, 7.667768) rotate(-315.000000) translate(-2.353553, -7.667768) " x="1.85355339" y="5.16776848" width="1" height="5" rx="0.5"></rect>
                    <path d="M0.145010834,6.14334046 C0.232968954,6.05468535 0.354350714,6 0.490478516,6 L3.50952148,6 C3.78040529,6 4,6.23193359 4,6.5 C4,6.77614237 3.78494263,7 3.50952148,7 L1,7 L1,9.50952148 C1,9.78040529 0.768066406,10 0.5,10 C0.223857625,10 0,9.78494263 0,9.50952148 L0,6.49047852 C0,6.35663221 0.0566252814,6.23530784 0.146255594,6.14680882 Z" id="Combined-Shape-Copy-4" transform="translate(2.000000, 8.000000) scale(1, -1) translate(-2.000000, -8.000000) "></path>
                    <rect id="Combined-Shape" x="0" y="0" width="1" height="4" rx="0.5"></rect>
                    <rect id="Rectangle-30" x="0" y="0" width="10" height="1" rx="0.5"></rect>
                    <rect id="Combined-Shape-Copy-2" transform="translate(8.000000, 9.500000) scale(-1, -1) translate(-8.000000, -9.500000) " x="6" y="9" width="4" height="1" rx="0.5"></rect>
                    <rect id="Rectangle-14" x="9" y="0" width="1" height="10" rx="0.5"></rect>
                </g>
            </g>
        </g>
    </g>
</svg>