<?xml version="1.0" encoding="UTF-8" standalone="no"?>
<svg width="17px" height="17px" viewBox="0 0 17 17" version="1.1" xmlns="http://www.w3.org/2000/svg" xmlns:xlink="http://www.w3.org/1999/xlink">
    <!-- Generator: Sketch 45.1 (43504) - http://www.bohemiancoding.com/sketch -->
    <title>ic keys</title>
    <desc>Created with Sketch.</desc>
    <defs></defs>
    <g id="修改" stroke="none" stroke-width="1" fill="none" fill-rule="evenodd">
        <g id="notes-Full-functions-Copy" transform="translate(-999.000000, -530.000000)">
            <g id="Group-7" transform="translate(999.000000, 530.000000)">
                <circle id="Oval-8" stroke="#434B54" cx="9" cy="9" r="6.5"></circle>
                <path d="M9.41266666,4.992 C8.59866666,4.992 7.96066666,5.223 7.48766666,5.685 C7.00366666,6.147 6.77266666,6.785 6.77266666,7.599 L8.02666666,7.599 C8.02666666,7.137 8.11466666,6.774 8.30166666,6.521 C8.51066666,6.213 8.85166666,6.07 9.33566666,6.07 C9.70966666,6.07 10.0066667,6.169 10.2156667,6.378 C10.4136667,6.587 10.5236667,6.873 10.5236667,7.236 C10.5236667,7.511 10.4246667,7.775 10.2266667,8.017 L10.0946667,8.171 C9.37966666,8.809 8.95066666,9.271 8.80766666,9.568 C8.65366666,9.865 8.58766666,10.228 8.58766666,10.646 L8.58766666,10.8 L9.85266666,10.8 L9.85266666,10.646 C9.85266666,10.382 9.90766666,10.151 10.0176667,9.931 C10.1166667,9.733 10.2596667,9.546 10.4576667,9.381 C10.9856667,8.919 11.3046667,8.622 11.4036667,8.512 C11.6676667,8.16 11.8106667,7.709 11.8106667,7.159 C11.8106667,6.488 11.5906667,5.96 11.1506667,5.575 C10.7106667,5.179 10.1276667,4.992 9.41266666,4.992 Z M9.21466666,11.339 C8.97266666,11.339 8.77466666,11.416 8.60966666,11.57 C8.44466666,11.724 8.36766666,11.922 8.36766666,12.164 C8.36766666,12.406 8.44466666,12.604 8.60966666,12.758 C8.77466666,12.912 8.97266666,13 9.21466666,13 C9.45666666,13 9.65466666,12.923 9.81966666,12.769 C9.98466666,12.615 10.0726667,12.406 10.0726667,12.164 C10.0726667,11.922 9.98466666,11.724 9.83066666,11.57 C9.66566666,11.416 9.45666666,11.339 9.21466666,11.339 Z" id="？" fill="#434B54"></path>
            </g>
        </g>
    </g>
</svg>