<svg xmlns="http://www.w3.org/2000/svg" xmlns:xlink="http://www.w3.org/1999/xlink" width="77" height="70" viewBox="0 0 77 70">
    <defs>
        <linearGradient id="b" x1="100%" x2="0%" y1="40.143%" y2="40.143%">
            <stop offset="0%" stop-color="#FF1832"/>
            <stop offset="100%" stop-color="#FE8E01"/>
        </linearGradient>
        <path id="a" d="M9.12 7.341V1.84A1.84 1.84 0 0 0 7.28 0H1.84A1.84 1.84 0 0 0 0 1.84V7.34a1.84 1.84 0 0 0 1.84 1.84h5.44a1.84 1.84 0 0 0 1.84-1.84z"/>
    </defs>
    <g fill="none" fill-rule="evenodd">
        <path d="M-12-7H88v80H-12z"/>
        <path fill="#FFF6ED" d="M0 38.947C0 20.84 33.45 7.493 47.873 5.86 62.295 4.224 71.27 19.448 75.44 34.019c4.17 14.571-.083 20.806-12.071 27.759-11.988 6.953-25.082 10.962-40.231 5.505C7.99 61.825 0 57.055 0 38.947z"/>
        <g transform="rotate(-3 48.389 -661.452)">
            <path fill="#424A60" fill-rule="nonzero" stroke="#0B1238" stroke-width=".821" d="M2.79 0C4.911.113 6.61.17 7.89.17c2.753 0 7.1-.057 13.04-.17 1.54 0 2.79 1.381 2.79 3.085-.121 12.397-.182 21.79-.182 28.18 0 2.18.06 5.64.182 10.383 0 1.704-1.25 3.085-2.79 3.085-2.584-.195-4.455-.292-5.614-.292-2.872 0-7.047.097-12.525.292-1.54 0-2.79-1.38-2.79-3.085A5762.5 5762.5 0 0 0 .096 15.42C.096 11.602.064 7.49 0 3.085 0 1.381 1.25 0 2.79 0z"/>
            <path fill="#FFF" fill-rule="nonzero" d="M5.154 2.005l.242.758a1.563 1.563 0 0 0 1.472 1.1h10.166a1.563 1.563 0 0 0 1.473-1.1l.242-.758a.778.778 0 0 1 .736-.55h2.54c.427.001.773.36.774.802v40.131a.792.792 0 0 1-.774.803H1.878a.792.792 0 0 1-.775-.803V2.258a.792.792 0 0 1 .775-.803h2.54c.334 0 .63.222.736.55z"/>
            <g transform="translate(7.56 17.957)">
                <use fill="#FEEFED" xlink:href="#a"/>
                <use fill="url(#b)" xlink:href="#a"/>
            </g>
            <path fill="#FFF" d="M11.766 21.87l-1.562-1.406a.24.24 0 1 1 .322-.358l1.72 1.549a.242.242 0 0 1 .035.039.31.31 0 0 0 .29 0 .242.242 0 0 1 .034-.04l1.72-1.548a.24.24 0 0 1 .323.358l-1.562 1.406a.794.794 0 0 1-.66.359.794.794 0 0 1-.66-.359zM11.766 23.156l-1.562 1.406a.24.24 0 1 0 .322.358l1.72-1.549a.242.242 0 0 0 .035-.038.31.31 0 0 1 .29 0c.01.014.021.027.034.038l1.72 1.55a.24.24 0 0 0 .323-.359l-1.562-1.406a.794.794 0 0 0-.66-.358.794.794 0 0 0-.66.358z"/>
            <path fill="#000" fill-rule="nonzero" d="M15.09 2.49a.35.35 0 0 1-.25-.102.343.343 0 0 1-.102-.247.364.364 0 0 1 .102-.247.372.372 0 0 1 .5 0 .35.35 0 0 1 0 .494.373.373 0 0 1-.25.101z"/>
            <rect width="3.677" height="1" x="10.113" y="1.818" fill="#000" rx=".5"/>
        </g>
        <path fill="#EF8B89" d="M33.933 31.148l1.145-.65.796-.857.35 7.773-2.29-4.642z"/>
        <path fill="#FACCCF" d="M34.98 13.396c-.435-1.098-1.626-.606-2.248 0-.414.403-2.023 4.49-4.826 12.26-1.501 2.252-2.386 3.844-2.653 4.775-.268.932-.268 5.295 0 13.089l-.857 3.7 7.96 3.645 3.75 4.359 2.2 4.456h3.481l9.317-7.544c5.052-3.877 7.291-6.029 6.716-6.454-.575-.426-6.536-.145-17.884.843.254-1.593-.099-3.59-1.056-5.992a22.419 22.419 0 0 0-3.9-6.443l-1.066-3.659c.731-2.132 1.231-4.736 1.5-7.811.402-4.614 0-8.127-.435-9.224z"/>
        <path fill="#525D69" d="M23.756 46.667c-1.65 0-.757.348-3.124 1.827-1.577.986-2.406 2.021-2.484 3.106l-2.86 1.878-5.924 5.44-.418 1.467c5.72 3.121 9.868 5.226 12.444 6.315 2.577 1.088 7.135 2.128 13.676 3.12 4.98-5.864 7.248-9.293 6.805-10.286-.663-1.49-5.422-6.262-8.88-8.483-3.458-2.221-7.584-4.384-9.235-4.384z"/>
        <path fill="#FDCFD2" d="M61.028 41.764c.732-.943 1.221-1.732 1.467-2.367.247-.636.319-1.59.217-2.86.29-.863.218-1.58-.217-2.15-.434-.57-1.13-.57-2.088 0-.595.401-.839.984-.733 1.749.24 1.726.12.76.406 1.925.185.754.603 1.079.64 1.336.068.472.17 1.261.308 2.367zM59.42 29.43l1.348-.516 1.249-1.798a3.253 3.253 0 0 0 .439-1.608c0-.825.393-1.753 0-2.869-.393-1.116-1.591-1.521-2.416-1.401-.825.12-1.144.488-1.493 1.198-.29.587-.426 1.471-.171 2.256.495 1.524.643 1.496.932 2.424.112.36.15 1.132.112 2.315z"/>
        <path fill="#FDCFD2" d="M60.097 28.884c-.722.372-1.084.916-1.084 1.632 0 .509-.118 1.41.33 2.476.122.29.457.734 1.004 1.33.69-.074 1.264-.224 1.721-.449.458-.225.82-.986 1.085-2.283.146-.687-.11-1.338-.77-1.953-.66-.614-1.422-.865-2.286-.753z"/>
        <path fill="#FDE8E5" d="M60.046 29.083c.776.325 1.286.699 1.53 1.12.243.422.395.965.455 1.628.54-.5.687-1.04.44-1.62-.368-.87-.532-.87-1.162-1.128a1.605 1.605 0 0 0-1.263 0z"/>
        <path fill="#FDCFD2" d="M59.747 21.376h1.174c.376-.914.45-1.64.22-2.176-.163-.378-.397-.692-.738-1.057-.096-.103-.372-.147-.828-.134-.029 1.141-.029 1.998 0 2.571.03.573.087.838.172.796z"/>
        <path fill="#FDE8E5" d="M31.199 16.904c.85.15 1.525-.014 2.024-.49.749-.714 1.095-2.733 1.095-3.264 0-.53-.524-.724-1.334 0-.54.483-1.135 1.734-1.785 3.754zM61.586 34.155c0 .143.206-.032.56.521.237.369.412.732.526 1.09.193-.103.234-.335.123-.695-.166-.541-.4-.722-.648-.916-.25-.194-.561-.143-.561 0z"/>
        <path fill="#EF8B89" d="M59.733 35.2l-.233.767c.034.854.111 1.542.233 2.066.121.523.306.898.555 1.124l.534 1.063v-.898c-.35-.36-.623-.898-.82-1.612-.198-.713-.288-1.55-.27-2.51zM25.31 42.979c1.674 1.336 3.225 2.2 4.653 2.593 2.141.59 6.363-1.166 7.511-.797 1.148.369-2.816 1.922-3.986 2.417-1.17.495-2.652.372-5.01 0-1.573-.248-2.821-.788-3.746-1.62l.579-2.593z"/>
        <path fill="#0B1238" d="M23.346 46.843c-.854 0-1.148.353-.884 1.059 3.931 1.213 6.819 2.513 8.663 3.9 2.008 1.508 5.428 4.438 6.828 6.838.529.907 1.242 1.894.508 3.233-.523.952-9.887 1.493-10.78 3.146-.42.778.091 2.019.2 2.66.27 1.585 7.006 2.229 7.204 2.09.6-.419 6.86-7.954 6.86-9.9 0-1.947-4.207-5.452-8.597-8.448-4.39-2.997-8.722-4.578-10.002-4.578z"/>
        <path fill="#EF8B89" d="M58.509 24.976c.303.769.514 1.298.632 1.587.177.434.256.644.37 1.125.078.32.115.84.114 1.556l-.38.319-.736-4.587zM40 46.553c.223.691.754 1.036 1.595 1.036.842 0 3.714-.442 8.617-1.327l2.238-.745L40 46.553z"/>
    </g>
</svg>
