<?xml version="1.0" standalone="no"?><!DOCTYPE svg PUBLIC "-//W3C//DTD SVG 1.1//EN" "http://www.w3.org/Graphics/SVG/1.1/DTD/svg11.dtd" [<!ENTITY nbsp "&#160;">]><svg id="SvgjsSvg5453" xmlns="http://www.w3.org/2000/svg" version="1.1" width="228.00000000000003" height="140" xmlns:xlink="http://www.w3.org/1999/xlink" style="display: block; background-color: rgb(236, 244, 249);" viewBox="0 0 682.1812838040865 418.8832444411058"><defs><style type="text/css"><![CDATA[

]]></style></defs><g id="SvgjsG5455" data-name="container" transform="scale(1) translate(132.53741924579327 222.54162222055288)"><g id="SvgjsG5463" data-name="sheet"><g id="SvgjsG5464" data-name="matrix-container"></g><g id="SvgjsG5465" data-name="boundary-container"><g id="SvgjsG5623" data-name="boundary-group" class="boundary"><path id="SvgjsPath5624" data-name="boundary-path" stroke="#35455b" fill="#e2e9f1" stroke-width="2" fill-opacity="0.2" stroke-dasharray="9, 3" d="M 341.10546875 52.45000000000001L 401.7861328125 52.45000000000001Q 421.7861328125 52.45000000000001 421.7861328125 72.45000000000002L 421.7861328125 140.35000000000002Q 421.7861328125 160.35000000000002 401.7861328125 160.35000000000002L 341.10546875 160.35000000000002Q 321.10546875 160.35000000000002 321.10546875 140.35000000000002L 321.10546875 72.45000000000002Q 321.10546875 52.45000000000001 341.10546875 52.45000000000001z"></path><g id="SvgjsG5626" data-name="boundary-title-group" transform="translate(316.10546875 47.45000000000001)"><rect id="SvgjsRect5628" data-name="boundary-title-bg" stroke="#35455b" fill="#e2e9f1" stroke-width="2" width="72.3125" height="26.5"></rect><text id="SvgjsText5627" font-family="'Open Sans','Open Sans','Nunito Sans','Microsoft YaHei','Microsoft JhengHei',sans-serif" data-name="boundary-title" style="user-select: none; cursor: default;" fill="#35455b" font-size="12" font-style="italic" font-weight="normal" text-decoration="none" x="10" y="2.40625"><tspan id="SvgjsTspan5717" dy="15.600000000000001" x="10" text-anchor="start">Boundary</tspan></text></g></g></g><g id="SvgjsG5466" data-name="connection-container"><path id="SvgjsPath5480" data-name="connection" stroke-linecap="round"></path><path id="SvgjsPath5490" data-name="connection" stroke-linecap="round" stroke="#35455b" stroke-width="3" d="M 102.6171875 0L 115.6171875 0L 115.6171875 -109.14999999999999Q 115.6171875 -117.14999999999999 123.6171875 -117.14999999999999L 153.6171875 -117.14999999999999" marker-end="none" fill="none"></path><path id="SvgjsPath5500" data-name="connection" stroke-linecap="round" stroke="#35455b" stroke-width="2" d="M 295.10546875 -117.14999999999999L 308.10546875 -117.14999999999999L 308.10546875 -127.25Q 308.10546875 -135.25 316.10546875 -135.25L 322.10546875 -135.25" marker-end="none" fill="none"></path><path id="SvgjsPath5510" data-name="connection" stroke-linecap="round" d="M 369 -157 L 361 -150 L 353 -157" stroke-width="0" fill="#72a6bd" marker-end="none"></path><path id="SvgjsPath5526" data-name="connection" stroke-linecap="round" stroke="#35455b" stroke-width="2" d="M 295.10546875 -117.14999999999999L 308.10546875 -117.14999999999999L 308.10546875 -107.04999999999998Q 308.10546875 -99.04999999999998 316.10546875 -99.04999999999998L 322.10546875 -99.04999999999998" marker-end="none" fill="none"></path><path id="SvgjsPath5542" data-name="connection" stroke-linecap="round" stroke="#35455b" stroke-width="3" d="M 102.6171875 0L 115.6171875 0L 115.6171875 -7.749999999999986Q 115.6171875 -15.749999999999986 123.6171875 -15.749999999999986L 153.6171875 -15.749999999999986" marker-end="none" fill="none"></path><path id="SvgjsPath5552" data-name="connection" stroke-linecap="round" stroke="#35455b" stroke-width="2" d="M 295.10546875 -15.749999999999986L 308.10546875 -15.749999999999986L 308.10546875 -25.849999999999987Q 308.10546875 -33.84999999999999 316.10546875 -33.84999999999999L 322.10546875 -33.84999999999999" marker-end="none" fill="none"></path><path id="SvgjsPath5565" data-name="connection" stroke-linecap="round" stroke="#35455b" stroke-width="2" d="M 295.10546875 -15.749999999999986L 308.10546875 -15.749999999999986L 308.10546875 -5.649999999999984Q 308.10546875 2.3500000000000156 316.10546875 2.3500000000000156L 322.10546875 2.3500000000000156" marker-end="none" fill="none"></path><path id="SvgjsPath5578" data-name="connection" stroke-linecap="round" d="M 392.1399917602539 -56.49999999999998L 402.1399917602539 -56.49999999999998L 402.1399917602539 -23.299999999999976L 412.1399917602539 -23.299999999999976M 402.1399917602539 -23.299999999999976L 402.1399917602539 9.900000000000027L 392.1399917602539 9.900000000000027" stroke="#35455b" stroke-width="2" fill="none" transform="translate(19.646141052246094 7.54999999999999)"></path><path id="SvgjsPath5579" data-name="connection-select-box" opacity="0" class="connection" d="M 392.1399917602539 -56.49999999999998L 402.1399917602539 -56.49999999999998L 402.1399917602539 -23.299999999999976L 412.1399917602539 -23.299999999999976M 402.1399917602539 -23.299999999999976L 402.1399917602539 9.900000000000027L 392.1399917602539 9.900000000000027" stroke="#35455b" stroke-width="7" fill="none" transform="translate(19.646141052246094 7.54999999999999)"></path><path id="SvgjsPath5595" data-name="connection" stroke-linecap="round" stroke="#35455b" stroke-width="3" d="M 102.6171875 0L 115.6171875 0L 115.6171875 109.15000000000002Q 115.6171875 117.15000000000002 123.6171875 117.15000000000002L 153.6171875 117.15000000000002" marker-end="none" fill="none"></path><path id="SvgjsPath5605" data-name="connection" stroke-linecap="round" stroke="#35455b" stroke-width="2" d="M 295.10546875 117.15000000000002L 308.10546875 117.15000000000002L 308.10546875 107.05000000000001Q 308.10546875 99.05000000000001 316.10546875 99.05000000000001L 332.10546875 99.05000000000001" marker-end="none" fill="none"></path><path id="SvgjsPath5618" data-name="connection" stroke-linecap="round" stroke="#35455b" stroke-width="2" d="M 295.10546875 117.15000000000002L 308.10546875 117.15000000000002L 308.10546875 127.25000000000003Q 308.10546875 135.25000000000003 316.10546875 135.25000000000003L 332.10546875 135.25000000000003" marker-end="none" fill="none"></path></g><g id="SvgjsG5467" data-name="branch-container"><g id="SvgjsG5479" data-name="branch" class="branch"><g id="SvgjsG5472" data-name="topic"><g id="SvgjsG5473" data-name="topic-shape-group"><path id="SvgjsPath5476" data-name="topic-shape-fill" fill="#35455b" stroke="none" opacity="1" d="M -97.6171875 -30.6L 97.6171875 -30.6Q 102.6171875 -30.6  102.6171875 -25.6L 102.6171875 25.6Q 102.6171875 30.6  97.6171875 30.6L -97.6171875 30.6Q -102.6171875 30.6  -102.6171875 25.6L -102.6171875 -25.6Q -102.6171875 -30.6  -97.6171875 -30.6"></path><path id="SvgjsPath5477" data-name="topic-shape" fill="none" stroke-width="0" d="M -97.6171875 -30.6L 97.6171875 -30.6Q 102.6171875 -30.6  102.6171875 -25.6L 102.6171875 25.6Q 102.6171875 30.6  97.6171875 30.6L -97.6171875 30.6Q -102.6171875 30.6  -102.6171875 25.6L -102.6171875 -25.6Q -102.6171875 -30.6  -97.6171875 -30.6"></path><g id="SvgjsG5474" data-name="inner-element-group"><g id="SvgjsG5645" data-name="topic-title-text-group"><text id="SvgjsText5644" font-family="'Open Sans','Nunito Sans','Microsoft YaHei','Microsoft JhengHei',sans-serif" font-size="24" font-weight="normal" fill="#ffffff" font-style="normal" text-decoration="none" text-anchor="middle" transform="translate(0 -15.600000000000001)" style="user-select: none; cursor: default;"><tspan id="SvgjsTspan5696" font-family="'Open Sans','Nunito Sans','Microsoft YaHei','Microsoft JhengHei',sans-serif" font-size="24" font-weight="normal" fill="#ffffff" font-style="normal" text-decoration="none" dy="24" x="0" style="white-space: pre;">Central Topic</tspan></text></g></g></g></g></g><g id="SvgjsG5489" data-name="branch" class="branch" transform="translate(223.861328125 -117.14999999999999)"><g id="SvgjsG5482" data-name="topic"><g id="SvgjsG5483" data-name="topic-shape-group"><path id="SvgjsPath5486" data-name="topic-shape-fill" fill="#84a1c9" stroke="none" opacity="1" d="M -66.244140625 -21.700000000000003L 66.244140625 -21.700000000000003Q 71.244140625 -21.700000000000003  71.244140625 -16.700000000000003L 71.244140625 16.700000000000003Q 71.244140625 21.700000000000003  66.244140625 21.700000000000003L -66.244140625 21.700000000000003Q -71.244140625 21.700000000000003  -71.244140625 16.700000000000003L -71.244140625 -16.700000000000003Q -71.244140625 -21.700000000000003  -66.244140625 -21.700000000000003"></path><path id="SvgjsPath5487" data-name="topic-shape" fill="none" stroke-width="0" d="M -66.244140625 -21.700000000000003L 66.244140625 -21.700000000000003Q 71.244140625 -21.700000000000003  71.244140625 -16.700000000000003L 71.244140625 16.700000000000003Q 71.244140625 21.700000000000003  66.244140625 21.700000000000003L -66.244140625 21.700000000000003Q -71.244140625 21.700000000000003  -71.244140625 16.700000000000003L -71.244140625 -16.700000000000003Q -71.244140625 -21.700000000000003  -66.244140625 -21.700000000000003"></path><g id="SvgjsG5484" data-name="inner-element-group"><g id="SvgjsG5532" data-name="topic-title-text-group"><text id="SvgjsText5531" font-family="'Open Sans','Nunito Sans','Microsoft YaHei','Microsoft JhengHei',sans-serif" font-size="18" font-weight="normal" fill="#ffffff" font-style="normal" text-decoration="none" text-anchor="start" transform="translate(-53.244140625 -11.700000000000001)" style="user-select: none; cursor: default;"><tspan id="SvgjsTspan5697" font-family="'Open Sans','Nunito Sans','Microsoft YaHei','Microsoft JhengHei',sans-serif" font-size="18" font-weight="normal" fill="#ffffff" font-style="normal" text-decoration="none" dy="18" x="0" style="white-space: pre;">Main Topic 1</tspan></text></g></g></g><g id="SvgjsG5647" data-name="collapse-extended" class="collapseextend" transform="translate(78.244140625 -6)" style="cursor: pointer; display: none;"><line id="SvgjsLine5648" stroke-width="0" x1="0" y1="6" x2="-7" y2="6" stroke="#35455b"></line><g id="SvgjsG5649"><ellipse id="SvgjsEllipse5650" rx="6" ry="6" cx="6" cy="6" fill="#ecf4f9"></ellipse><ellipse id="SvgjsEllipse5651" rx="6" ry="6" cx="6" cy="6" fill="none" stroke="#35455b"></ellipse><path id="SvgjsPath5652" d="M 2, 6 L 10, 6" stroke="#35455b"></path></g><g id="SvgjsG5653"><ellipse id="SvgjsEllipse5654" rx="8" ry="8" cx="8" cy="8" fill="#ecf4f9"></ellipse><ellipse id="SvgjsEllipse5655" rx="8" ry="8" cx="8" cy="8" fill="none" stroke="#35455b" stroke-width="1"></ellipse><text id="SvgjsText5656" font-family="Helvetica, Arial, sans-serif" fill="#35455b" style="user-select: none; cursor: default;"></text></g><ellipse id="SvgjsEllipse5657" rx="8" ry="8" cx="8" cy="8" fill="none" style="pointer-events: visible;"></ellipse></g></g></g><g id="SvgjsG5499" data-name="branch" class="branch" transform="translate(361.44580078125 -135.25)"><g id="SvgjsG5492" data-name="topic"><g id="SvgjsG5493" data-name="topic-shape-group"><path id="SvgjsPath5496" data-name="topic-shape-fill" opacity="1" d="M -35.34033203125 -15.1L 35.34033203125 -15.1Q 40.34033203125 -15.1  40.34033203125 -10.1L 40.34033203125 10.1Q 40.34033203125 15.1  35.34033203125 15.1L -35.34033203125 15.1Q -40.34033203125 15.1  -40.34033203125 10.1L -40.34033203125 -10.1Q -40.34033203125 -15.1  -35.34033203125 -15.1" fill="#e2e9f1" stroke="none"></path><path id="SvgjsPath5497" data-name="topic-shape" fill="none" stroke-width="0" d="M -35.34033203125 -15.1L 35.34033203125 -15.1Q 40.34033203125 -15.1  40.34033203125 -10.1L 40.34033203125 10.1Q 40.34033203125 15.1  35.34033203125 15.1L -35.34033203125 15.1Q -40.34033203125 15.1  -40.34033203125 10.1L -40.34033203125 -10.1Q -40.34033203125 -15.1  -35.34033203125 -15.1"></path><g id="SvgjsG5494" data-name="inner-element-group"><g id="SvgjsG5516" data-name="topic-title-text-group"><text id="SvgjsText5515" font-family="'Open Sans','Nunito Sans','Microsoft YaHei','Microsoft JhengHei',sans-serif" font-size="14" font-weight="normal" fill="#35455b" font-style="normal" text-decoration="none" text-anchor="start" transform="translate(-34.34033203125 -9.1)" style="user-select: none; cursor: default;"><tspan id="SvgjsTspan5698" font-family="'Open Sans','Nunito Sans','Microsoft YaHei','Microsoft JhengHei',sans-serif" font-size="14" font-weight="normal" fill="#35455b" font-style="normal" text-decoration="none" dy="14" x="0" style="white-space: pre;">Subtopic 1</tspan></text></g></g></g></g></g><g id="SvgjsG5509" data-name="branch" class="branch" transform="translate(361.44580078125 -171.45000000000002)"><g id="SvgjsG5502" data-name="topic"><g id="SvgjsG5503" data-name="topic-shape-group"><path id="SvgjsPath5506" data-name="topic-shape-fill" fill="#72a6bd" stroke="none" opacity="1" d="M -22.8408203125 -15.1L 22.8408203125 -15.1Q 27.8408203125 -15.1  27.8408203125 -10.1L 27.8408203125 10.1Q 27.8408203125 15.1  22.8408203125 15.1L -22.8408203125 15.1Q -27.8408203125 15.1  -27.8408203125 10.1L -27.8408203125 -10.1Q -27.8408203125 -15.1  -22.8408203125 -15.1"></path><path id="SvgjsPath5507" data-name="topic-shape" fill="none" stroke-width="0" d="M -22.8408203125 -15.1L 22.8408203125 -15.1Q 27.8408203125 -15.1  27.8408203125 -10.1L 27.8408203125 10.1Q 27.8408203125 15.1  22.8408203125 15.1L -22.8408203125 15.1Q -27.8408203125 15.1  -27.8408203125 10.1L -27.8408203125 -10.1Q -27.8408203125 -15.1  -22.8408203125 -15.1" clip-path="url(&quot;#SvgjsClipPath5716&quot;)"></path><g id="SvgjsG5504" data-name="inner-element-group"><g id="SvgjsG5513" data-name="topic-title-text-group"><text id="SvgjsText5512" font-family="'Open Sans','Nunito Sans','Microsoft YaHei','Microsoft JhengHei',sans-serif" font-size="14" font-weight="normal" fill="#ffffff" font-style="italic" text-decoration="none" text-anchor="middle" transform="translate(0 -9.1)" style="user-select: none; cursor: default;"><tspan id="SvgjsTspan5701" font-family="'Open Sans','Nunito Sans','Microsoft YaHei','Microsoft JhengHei',sans-serif" font-size="14" font-weight="normal" fill="#ffffff" font-style="italic" text-decoration="none" dy="14" x="0" style="white-space: pre;">Callout</tspan></text></g></g></g></g></g><g id="SvgjsG5525" data-name="branch" class="branch" transform="translate(361.44580078125 -99.04999999999998)"><g id="SvgjsG5518" data-name="topic"><g id="SvgjsG5519" data-name="topic-shape-group"><path id="SvgjsPath5522" data-name="topic-shape-fill" opacity="1" d="M -35.34033203125 -15.1L 35.34033203125 -15.1Q 40.34033203125 -15.1  40.34033203125 -10.1L 40.34033203125 10.1Q 40.34033203125 15.1  35.34033203125 15.1L -35.34033203125 15.1Q -40.34033203125 15.1  -40.34033203125 10.1L -40.34033203125 -10.1Q -40.34033203125 -15.1  -35.34033203125 -15.1" fill="#e2e9f1" stroke="none"></path><path id="SvgjsPath5523" data-name="topic-shape" fill="none" stroke-width="0" d="M -35.34033203125 -15.1L 35.34033203125 -15.1Q 40.34033203125 -15.1  40.34033203125 -10.1L 40.34033203125 10.1Q 40.34033203125 15.1  35.34033203125 15.1L -35.34033203125 15.1Q -40.34033203125 15.1  -40.34033203125 10.1L -40.34033203125 -10.1Q -40.34033203125 -15.1  -35.34033203125 -15.1"></path><g id="SvgjsG5520" data-name="inner-element-group"><g id="SvgjsG5529" data-name="topic-title-text-group"><text id="SvgjsText5528" font-family="'Open Sans','Nunito Sans','Microsoft YaHei','Microsoft JhengHei',sans-serif" font-size="14" font-weight="normal" fill="#35455b" font-style="normal" text-decoration="none" text-anchor="start" transform="translate(-34.34033203125 -9.1)" style="user-select: none; cursor: default;"><tspan id="SvgjsTspan5702" font-family="'Open Sans','Nunito Sans','Microsoft YaHei','Microsoft JhengHei',sans-serif" font-size="14" font-weight="normal" fill="#35455b" font-style="normal" text-decoration="none" dy="14" x="0" style="white-space: pre;">Subtopic 2</tspan></text></g></g></g></g></g><g id="SvgjsG5541" data-name="branch" class="branch" transform="translate(223.861328125 -15.749999999999986)"><g id="SvgjsG5534" data-name="topic"><g id="SvgjsG5535" data-name="topic-shape-group"><path id="SvgjsPath5538" data-name="topic-shape-fill" fill="#84a1c9" stroke="none" opacity="1" d="M -66.244140625 -21.700000000000003L 66.244140625 -21.700000000000003Q 71.244140625 -21.700000000000003  71.244140625 -16.700000000000003L 71.244140625 16.700000000000003Q 71.244140625 21.700000000000003  66.244140625 21.700000000000003L -66.244140625 21.700000000000003Q -71.244140625 21.700000000000003  -71.244140625 16.700000000000003L -71.244140625 -16.700000000000003Q -71.244140625 -21.700000000000003  -66.244140625 -21.700000000000003"></path><path id="SvgjsPath5539" data-name="topic-shape" fill="none" stroke-width="0" d="M -66.244140625 -21.700000000000003L 66.244140625 -21.700000000000003Q 71.244140625 -21.700000000000003  71.244140625 -16.700000000000003L 71.244140625 16.700000000000003Q 71.244140625 21.700000000000003  66.244140625 21.700000000000003L -66.244140625 21.700000000000003Q -71.244140625 21.700000000000003  -71.244140625 16.700000000000003L -71.244140625 -16.700000000000003Q -71.244140625 -21.700000000000003  -66.244140625 -21.700000000000003"></path><g id="SvgjsG5536" data-name="inner-element-group"><g id="SvgjsG5585" data-name="topic-title-text-group"><text id="SvgjsText5584" font-family="'Open Sans','Nunito Sans','Microsoft YaHei','Microsoft JhengHei',sans-serif" font-size="18" font-weight="normal" fill="#ffffff" font-style="normal" text-decoration="none" text-anchor="start" transform="translate(-53.244140625 -11.700000000000001)" style="user-select: none; cursor: default;"><tspan id="SvgjsTspan5703" font-family="'Open Sans','Nunito Sans','Microsoft YaHei','Microsoft JhengHei',sans-serif" font-size="18" font-weight="normal" fill="#ffffff" font-style="normal" text-decoration="none" dy="18" x="0" style="white-space: pre;">Main Topic 2</tspan></text></g></g></g><g id="SvgjsG5658" data-name="collapse-extended" class="collapseextend" transform="translate(78.244140625 -6)" style="cursor: pointer; display: none;"><line id="SvgjsLine5659" stroke-width="0" x1="0" y1="6" x2="-7" y2="6" stroke="#35455b"></line><g id="SvgjsG5660"><ellipse id="SvgjsEllipse5661" rx="6" ry="6" cx="6" cy="6" fill="#ecf4f9"></ellipse><ellipse id="SvgjsEllipse5662" rx="6" ry="6" cx="6" cy="6" fill="none" stroke="#35455b"></ellipse><path id="SvgjsPath5663" d="M 2, 6 L 10, 6" stroke="#35455b"></path></g><g id="SvgjsG5664"><ellipse id="SvgjsEllipse5665" rx="8" ry="8" cx="8" cy="8" fill="#ecf4f9"></ellipse><ellipse id="SvgjsEllipse5666" rx="8" ry="8" cx="8" cy="8" fill="none" stroke="#35455b" stroke-width="1"></ellipse><text id="SvgjsText5667" font-family="Helvetica, Arial, sans-serif" fill="#35455b" style="user-select: none; cursor: default;"></text></g><ellipse id="SvgjsEllipse5668" rx="8" ry="8" cx="8" cy="8" fill="none" style="pointer-events: visible;"></ellipse></g></g></g><g id="SvgjsG5551" data-name="branch" class="branch" transform="translate(361.44580078125 -33.84999999999999)"><g id="SvgjsG5544" data-name="topic"><g id="SvgjsG5545" data-name="topic-shape-group"><path id="SvgjsPath5548" data-name="topic-shape-fill" opacity="1" d="M -35.34033203125 -15.1L 35.34033203125 -15.1Q 40.34033203125 -15.1  40.34033203125 -10.1L 40.34033203125 10.1Q 40.34033203125 15.1  35.34033203125 15.1L -35.34033203125 15.1Q -40.34033203125 15.1  -40.34033203125 10.1L -40.34033203125 -10.1Q -40.34033203125 -15.1  -35.34033203125 -15.1" fill="#e2e9f1" stroke="none"></path><path id="SvgjsPath5549" data-name="topic-shape" fill="none" stroke-width="0" d="M -35.34033203125 -15.1L 35.34033203125 -15.1Q 40.34033203125 -15.1  40.34033203125 -10.1L 40.34033203125 10.1Q 40.34033203125 15.1  35.34033203125 15.1L -35.34033203125 15.1Q -40.34033203125 15.1  -40.34033203125 10.1L -40.34033203125 -10.1Q -40.34033203125 -15.1  -35.34033203125 -15.1"></path><g id="SvgjsG5546" data-name="inner-element-group"><g id="SvgjsG5555" data-name="topic-title-text-group"><text id="SvgjsText5554" font-family="'Open Sans','Nunito Sans','Microsoft YaHei','Microsoft JhengHei',sans-serif" font-size="14" font-weight="normal" fill="#35455b" font-style="normal" text-decoration="none" text-anchor="start" transform="translate(-34.34033203125 -9.1)" style="user-select: none; cursor: default;"><tspan id="SvgjsTspan5704" font-family="'Open Sans','Nunito Sans','Microsoft YaHei','Microsoft JhengHei',sans-serif" font-size="14" font-weight="normal" fill="#35455b" font-style="normal" text-decoration="none" dy="14" x="0" style="white-space: pre;">Subtopic 1</tspan></text></g></g></g></g></g><g id="SvgjsG5564" data-name="branch" class="branch" transform="translate(361.44580078125 2.3500000000000156)"><g id="SvgjsG5557" data-name="topic"><g id="SvgjsG5558" data-name="topic-shape-group"><path id="SvgjsPath5561" data-name="topic-shape-fill" opacity="1" d="M -35.34033203125 -15.1L 35.34033203125 -15.1Q 40.34033203125 -15.1  40.34033203125 -10.1L 40.34033203125 10.1Q 40.34033203125 15.1  35.34033203125 15.1L -35.34033203125 15.1Q -40.34033203125 15.1  -40.34033203125 10.1L -40.34033203125 -10.1Q -40.34033203125 -15.1  -35.34033203125 -15.1" fill="#e2e9f1" stroke="none"></path><path id="SvgjsPath5562" data-name="topic-shape" fill="none" stroke-width="0" d="M -35.34033203125 -15.1L 35.34033203125 -15.1Q 40.34033203125 -15.1  40.34033203125 -10.1L 40.34033203125 10.1Q 40.34033203125 15.1  35.34033203125 15.1L -35.34033203125 15.1Q -40.34033203125 15.1  -40.34033203125 10.1L -40.34033203125 -10.1Q -40.34033203125 -15.1  -35.34033203125 -15.1"></path><g id="SvgjsG5559" data-name="inner-element-group"><g id="SvgjsG5568" data-name="topic-title-text-group"><text id="SvgjsText5567" font-family="'Open Sans','Nunito Sans','Microsoft YaHei','Microsoft JhengHei',sans-serif" font-size="14" font-weight="normal" fill="#35455b" font-style="normal" text-decoration="none" text-anchor="start" transform="translate(-34.34033203125 -9.1)" style="user-select: none; cursor: default;"><tspan id="SvgjsTspan5705" font-family="'Open Sans','Nunito Sans','Microsoft YaHei','Microsoft JhengHei',sans-serif" font-size="14" font-weight="normal" fill="#35455b" font-style="normal" text-decoration="none" dy="14" x="0" style="white-space: pre;">Subtopic 2</tspan></text></g></g></g></g></g><g id="SvgjsG5577" data-name="branch" class="branch" transform="translate(480.7548828125 -15.749999999999986)"><g id="SvgjsG5570" data-name="topic"><g id="SvgjsG5571" data-name="topic-shape-group"><path id="SvgjsPath5574" data-name="topic-shape-fill" fill="#35455b" stroke="none" opacity="1" d="M -33.96875 -16.4L 33.96875 -16.4Q 38.96875 -16.4  38.96875 -11.399999999999999L 38.96875 11.399999999999999Q 38.96875 16.4  33.96875 16.4L -33.96875 16.4Q -38.96875 16.4  -38.96875 11.399999999999999L -38.96875 -11.399999999999999Q -38.96875 -16.4  -33.96875 -16.4"></path><path id="SvgjsPath5575" data-name="topic-shape" fill="none" stroke-width="0" d="M -33.96875 -16.4L 33.96875 -16.4Q 38.96875 -16.4  38.96875 -11.399999999999999L 38.96875 11.399999999999999Q 38.96875 16.4  33.96875 16.4L -33.96875 16.4Q -38.96875 16.4  -38.96875 11.399999999999999L -38.96875 -11.399999999999999Q -38.96875 -16.4  -33.96875 -16.4"></path><g id="SvgjsG5572" data-name="inner-element-group"><g id="SvgjsG5582" data-name="topic-title-text-group"><text id="SvgjsText5581" font-family="'Open Sans','Nunito Sans','Microsoft YaHei','Microsoft JhengHei',sans-serif" font-size="16" font-weight="normal" fill="#ffffff" font-style="italic" text-decoration="none" text-anchor="middle" transform="translate(0 -10.4)" style="user-select: none; cursor: default;"><tspan id="SvgjsTspan5706" font-family="'Open Sans','Nunito Sans','Microsoft YaHei','Microsoft JhengHei',sans-serif" font-size="16" font-weight="normal" fill="#ffffff" font-style="italic" text-decoration="none" dy="16" x="0" style="white-space: pre;">Summary</tspan></text></g></g></g></g></g><g id="SvgjsG5594" data-name="branch" class="branch" transform="translate(223.861328125 117.15000000000002)"><g id="SvgjsG5587" data-name="topic"><g id="SvgjsG5588" data-name="topic-shape-group"><path id="SvgjsPath5591" data-name="topic-shape-fill" fill="#84a1c9" stroke="none" opacity="1" d="M -66.244140625 -21.700000000000003L 66.244140625 -21.700000000000003Q 71.244140625 -21.700000000000003  71.244140625 -16.700000000000003L 71.244140625 16.700000000000003Q 71.244140625 21.700000000000003  66.244140625 21.700000000000003L -66.244140625 21.700000000000003Q -71.244140625 21.700000000000003  -71.244140625 16.700000000000003L -71.244140625 -16.700000000000003Q -71.244140625 -21.700000000000003  -66.244140625 -21.700000000000003"></path><path id="SvgjsPath5592" data-name="topic-shape" fill="none" stroke-width="0" d="M -66.244140625 -21.700000000000003L 66.244140625 -21.700000000000003Q 71.244140625 -21.700000000000003  71.244140625 -16.700000000000003L 71.244140625 16.700000000000003Q 71.244140625 21.700000000000003  66.244140625 21.700000000000003L -66.244140625 21.700000000000003Q -71.244140625 21.700000000000003  -71.244140625 16.700000000000003L -71.244140625 -16.700000000000003Q -71.244140625 -21.700000000000003  -66.244140625 -21.700000000000003"></path><g id="SvgjsG5589" data-name="inner-element-group"><g id="SvgjsG5642" data-name="topic-title-text-group"><text id="SvgjsText5641" font-family="'Open Sans','Nunito Sans','Microsoft YaHei','Microsoft JhengHei',sans-serif" font-size="18" font-weight="normal" fill="#ffffff" font-style="normal" text-decoration="none" text-anchor="start" transform="translate(-53.244140625 -11.700000000000001)" style="user-select: none; cursor: default;"><tspan id="SvgjsTspan5707" font-family="'Open Sans','Nunito Sans','Microsoft YaHei','Microsoft JhengHei',sans-serif" font-size="18" font-weight="normal" fill="#ffffff" font-style="normal" text-decoration="none" dy="18" x="0" style="white-space: pre;">Main Topic 3</tspan></text></g></g></g><g id="SvgjsG5681" data-name="collapse-extended" class="collapseextend" transform="translate(78.244140625 -6)" style="cursor: pointer; display: none;"><line id="SvgjsLine5682" stroke-width="0" x1="0" y1="6" x2="-7" y2="6" stroke="#35455b"></line><g id="SvgjsG5683"><ellipse id="SvgjsEllipse5684" rx="6" ry="6" cx="6" cy="6" fill="#ecf4f9"></ellipse><ellipse id="SvgjsEllipse5685" rx="6" ry="6" cx="6" cy="6" fill="none" stroke="#35455b"></ellipse><path id="SvgjsPath5686" d="M 2, 6 L 10, 6" stroke="#35455b"></path></g><g id="SvgjsG5687"><ellipse id="SvgjsEllipse5688" rx="8" ry="8" cx="8" cy="8" fill="#ecf4f9"></ellipse><ellipse id="SvgjsEllipse5689" rx="8" ry="8" cx="8" cy="8" fill="none" stroke="#35455b" stroke-width="1"></ellipse><text id="SvgjsText5690" font-family="Helvetica, Arial, sans-serif" fill="#35455b" style="user-select: none; cursor: default;"></text></g><ellipse id="SvgjsEllipse5691" rx="8" ry="8" cx="8" cy="8" fill="none" style="pointer-events: visible;"></ellipse></g></g></g><g id="SvgjsG5604" data-name="branch" class="branch" transform="translate(371.44580078125 99.05000000000001)"><g id="SvgjsG5597" data-name="topic"><g id="SvgjsG5598" data-name="topic-shape-group"><path id="SvgjsPath5601" data-name="topic-shape-fill" opacity="1" d="M -35.34033203125 -15.1L 35.34033203125 -15.1Q 40.34033203125 -15.1  40.34033203125 -10.1L 40.34033203125 10.1Q 40.34033203125 15.1  35.34033203125 15.1L -35.34033203125 15.1Q -40.34033203125 15.1  -40.34033203125 10.1L -40.34033203125 -10.1Q -40.34033203125 -15.1  -35.34033203125 -15.1" fill="#e2e9f1" stroke="none"></path><path id="SvgjsPath5602" data-name="topic-shape" fill="none" stroke-width="0" d="M -35.34033203125 -15.1L 35.34033203125 -15.1Q 40.34033203125 -15.1  40.34033203125 -10.1L 40.34033203125 10.1Q 40.34033203125 15.1  35.34033203125 15.1L -35.34033203125 15.1Q -40.34033203125 15.1  -40.34033203125 10.1L -40.34033203125 -10.1Q -40.34033203125 -15.1  -35.34033203125 -15.1"></path><g id="SvgjsG5599" data-name="inner-element-group"><g id="SvgjsG5608" data-name="topic-title-text-group"><text id="SvgjsText5607" font-family="'Open Sans','Nunito Sans','Microsoft YaHei','Microsoft JhengHei',sans-serif" font-size="14" font-weight="normal" fill="#35455b" font-style="normal" text-decoration="none" text-anchor="start" transform="translate(-34.34033203125 -9.1)" style="user-select: none; cursor: default;"><tspan id="SvgjsTspan5708" font-family="'Open Sans','Nunito Sans','Microsoft YaHei','Microsoft JhengHei',sans-serif" font-size="14" font-weight="normal" fill="#35455b" font-style="normal" text-decoration="none" dy="14" x="0" style="white-space: pre;">Subtopic 1</tspan></text></g></g></g></g></g><g id="SvgjsG5617" data-name="branch" class="branch" transform="translate(371.44580078125 135.25000000000003)"><g id="SvgjsG5610" data-name="topic"><g id="SvgjsG5611" data-name="topic-shape-group"><path id="SvgjsPath5614" data-name="topic-shape-fill" opacity="1" d="M -35.34033203125 -15.1L 35.34033203125 -15.1Q 40.34033203125 -15.1  40.34033203125 -10.1L 40.34033203125 10.1Q 40.34033203125 15.1  35.34033203125 15.1L -35.34033203125 15.1Q -40.34033203125 15.1  -40.34033203125 10.1L -40.34033203125 -10.1Q -40.34033203125 -15.1  -35.34033203125 -15.1" fill="#e2e9f1" stroke="none"></path><path id="SvgjsPath5615" data-name="topic-shape" fill="none" stroke-width="0" d="M -35.34033203125 -15.1L 35.34033203125 -15.1Q 40.34033203125 -15.1  40.34033203125 -10.1L 40.34033203125 10.1Q 40.34033203125 15.1  35.34033203125 15.1L -35.34033203125 15.1Q -40.34033203125 15.1  -40.34033203125 10.1L -40.34033203125 -10.1Q -40.34033203125 -15.1  -35.34033203125 -15.1"></path><g id="SvgjsG5612" data-name="inner-element-group"><g id="SvgjsG5621" data-name="topic-title-text-group"><text id="SvgjsText5620" font-family="'Open Sans','Nunito Sans','Microsoft YaHei','Microsoft JhengHei',sans-serif" font-size="14" font-weight="normal" fill="#35455b" font-style="normal" text-decoration="none" text-anchor="start" transform="translate(-34.34033203125 -9.1)" style="user-select: none; cursor: default;"><tspan id="SvgjsTspan5709" font-family="'Open Sans','Nunito Sans','Microsoft YaHei','Microsoft JhengHei',sans-serif" font-size="14" font-weight="normal" fill="#35455b" font-style="normal" text-decoration="none" dy="14" x="0" style="white-space: pre;">Subtopic 2</tspan></text></g></g></g></g></g></g><g id="SvgjsG5468" data-name="relationship-container"></g><g id="SvgjsG5471" data-name="cloneG" opacity="0.5"></g></g></g><defs id="SvgjsDefs5454"><clipPath id="SvgjsClipPath5716"><path id="SvgjsPath5715" d="M -8.44580078125 14.450000000000017 L7.55419921875 14.450000000000017 L7.55419921875 14.450000000000017 L-8.44580078125 14.450000000000017 M -10000 -10000 L10000 -10000 L10000 10000 L-10000 10000" fill="black" clip-rule="evenodd"></path></clipPath></defs></svg>