<?xml version="1.0" standalone="no"?><!DOCTYPE svg PUBLIC "-//W3C//DTD SVG 1.1//EN" "http://www.w3.org/Graphics/SVG/1.1/DTD/svg11.dtd" [<!ENTITY nbsp "&#160;">]><svg id="SvgjsSvg5710" xmlns="http://www.w3.org/2000/svg" version="1.1" width="228" height="139.99999999999997" xmlns:xlink="http://www.w3.org/1999/xlink" style="display: block; background-color: rgb(236, 245, 231);" viewBox="0 0 634.1100135216346 389.36579777644226"><defs><style type="text/css"><![CDATA[

]]></style></defs><g id="SvgjsG5712" data-name="container" transform="scale(1) translate(126.8430926983173 206.48289888822114)"><g id="SvgjsG5718" data-name="sheet"><g id="SvgjsG5719" data-name="matrix-container"></g><g id="SvgjsG5720" data-name="boundary-container"><g id="SvgjsG5878" data-name="boundary-group" class="boundary"><path id="SvgjsPath5879" data-name="boundary-path" stroke="#fbbf3e" fill="#ffffff" stroke-width="2" fill-opacity="0.2" stroke-dasharray="9, 3" d="M 320.8515625 51.34218750000001L 369.55859375 51.34218750000001Q 389.55859375 51.34218750000001 389.55859375 71.34218750000001L 389.55859375 131.0578125Q 389.55859375 151.0578125 369.55859375 151.0578125L 320.8515625 151.0578125Q 300.8515625 151.0578125 300.8515625 131.0578125L 300.8515625 71.34218750000001Q 300.8515625 51.34218750000001 320.8515625 51.34218750000001z"></path><g id="SvgjsG5881" data-name="boundary-title-group" transform="translate(295.8515625 46.34218750000001)"><rect id="SvgjsRect5883" data-name="boundary-title-bg" stroke="#fbbf3e" fill="#ffffff" stroke-width="2" width="72.09375" height="23.515625"></rect><text id="SvgjsText5882" font-family="'Arial','Arial','Nunito Sans','Microsoft YaHei','Microsoft JhengHei',sans-serif" data-name="boundary-title" style="user-select: none; cursor: default;" fill="#333333" font-size="12" font-style="italic" font-weight="normal" text-decoration="none" x="10" y="0.40625"><tspan id="SvgjsTspan5972" dy="15.600000000000001" x="10" text-anchor="start">Boundary</tspan></text></g></g></g><g id="SvgjsG5721" data-name="connection-container"><path id="SvgjsPath5735" data-name="connection" stroke-linecap="round"></path><path id="SvgjsPath5745" data-name="connection" stroke-linecap="round" stroke="#ffffff" stroke-width="3" d="M 99.03125 0L 112.03125 0L 112.03125 -102.45781249999999Q 112.03125 -110.45781249999999 120.03125 -110.45781249999999L 150.03125 -110.45781249999999" marker-end="none" fill="none"></path><path id="SvgjsPath5755" data-name="connection" stroke-linecap="round" stroke="#ffffff" stroke-width="2" d="M 274.8515625 -110.45781249999999L 287.8515625 -110.45781249999999L 287.8515625 -119.25781249999999Q 287.8515625 -127.25781249999999 295.8515625 -127.25781249999999L 301.8515625 -127.25781249999999" marker-end="none" fill="none"></path><path id="SvgjsPath5765" data-name="connection" stroke-linecap="round" d="M 343 -148 L 335 -141 L 327 -148" stroke-width="0" fill="#9b806b" marker-end="none"></path><path id="SvgjsPath5781" data-name="connection" stroke-linecap="round" stroke="#ffffff" stroke-width="2" d="M 274.8515625 -110.45781249999999L 287.8515625 -110.45781249999999L 287.8515625 -101.65781249999999Q 287.8515625 -93.65781249999999 295.8515625 -93.65781249999999L 301.8515625 -93.65781249999999" marker-end="none" fill="none"></path><path id="SvgjsPath5797" data-name="connection" stroke-linecap="round" stroke="#ffffff" stroke-width="3" d="M 99.03125 0L 112.03125 0L 112.03125 -6.257812499999993Q 112.03125 -14.257812499999993 120.03125 -14.257812499999993L 150.03125 -14.257812499999993" marker-end="none" fill="none"></path><path id="SvgjsPath5807" data-name="connection" stroke-linecap="round" stroke="#ffffff" stroke-width="2" d="M 274.8515625 -14.257812499999993L 287.8515625 -14.257812499999993L 287.8515625 -23.057812499999994Q 287.8515625 -31.057812499999994 295.8515625 -31.057812499999994L 301.8515625 -31.057812499999994" marker-end="none" fill="none"></path><path id="SvgjsPath5820" data-name="connection" stroke-linecap="round" stroke="#ffffff" stroke-width="2" d="M 274.8515625 -14.257812499999993L 287.8515625 -14.257812499999993L 287.8515625 -5.457812499999992Q 287.8515625 2.542187500000008 295.8515625 2.542187500000008L 301.8515625 2.542187500000008" marker-end="none" fill="none"></path><path id="SvgjsPath5833" data-name="connection" stroke-linecap="round" d="M 396.1604995727539 -53.89999999999998A 13.333333333333334 30.6 0 1 1 396.1604995727539 7.300000000000026M 409.4938329060872 -23.299999999999976L 416.1604995727539 -23.299999999999976" stroke="#b5d477" stroke-width="2" fill="none" transform="translate(-16.601905822753906 9.042187499999983)"></path><path id="SvgjsPath5834" data-name="connection-select-box" opacity="0" class="connection" d="M 396.1604995727539 -53.89999999999998A 13.333333333333334 30.6 0 1 1 396.1604995727539 7.300000000000026M 409.4938329060872 -23.299999999999976L 416.1604995727539 -23.299999999999976" stroke="#b5d477" stroke-width="7" fill="none" transform="translate(-16.601905822753906 9.042187499999983)"></path><path id="SvgjsPath5850" data-name="connection" stroke-linecap="round" stroke="#ffffff" stroke-width="3" d="M 99.03125 0L 112.03125 0L 112.03125 102.45781250000002Q 112.03125 110.45781250000002 120.03125 110.45781250000002L 150.03125 110.45781250000002" marker-end="none" fill="none"></path><path id="SvgjsPath5860" data-name="connection" stroke-linecap="round" stroke="#ffffff" stroke-width="2" d="M 274.8515625 110.45781250000002L 287.8515625 110.45781250000002L 287.8515625 101.6578125Q 287.8515625 93.6578125 295.8515625 93.6578125L 311.8515625 93.6578125" marker-end="none" fill="none"></path><path id="SvgjsPath5873" data-name="connection" stroke-linecap="round" stroke="#ffffff" stroke-width="2" d="M 274.8515625 110.45781250000002L 287.8515625 110.45781250000002L 287.8515625 119.25781250000001Q 287.8515625 127.25781250000001 295.8515625 127.25781250000001L 311.8515625 127.25781250000001" marker-end="none" fill="none"></path></g><g id="SvgjsG5722" data-name="branch-container"><g id="SvgjsG5734" data-name="branch" class="branch"><g id="SvgjsG5727" data-name="topic"><g id="SvgjsG5728" data-name="topic-shape-group"><path id="SvgjsPath5731" data-name="topic-shape-fill" fill="#ffffff" stroke="none" opacity="1" d="M -94.03125 -30.6L 94.03125 -30.6Q 99.03125 -30.6  99.03125 -25.6L 99.03125 25.6Q 99.03125 30.6  94.03125 30.6L -94.03125 30.6Q -99.03125 30.6  -99.03125 25.6L -99.03125 -25.6Q -99.03125 -30.6  -94.03125 -30.6"></path><path id="SvgjsPath5732" data-name="topic-shape" fill="none" stroke-width="0" d="M -94.03125 -30.6L 94.03125 -30.6Q 99.03125 -30.6  99.03125 -25.6L 99.03125 25.6Q 99.03125 30.6  94.03125 30.6L -94.03125 30.6Q -99.03125 30.6  -99.03125 25.6L -99.03125 -25.6Q -99.03125 -30.6  -94.03125 -30.6"></path><g id="SvgjsG5729" data-name="inner-element-group"><g id="SvgjsG5900" data-name="topic-title-text-group"><text id="SvgjsText5899" font-family="'Arial','Nunito Sans','Microsoft YaHei','Microsoft JhengHei',sans-serif" font-size="24" font-weight="normal" fill="#fbbf3e" font-style="normal" text-decoration="none" text-anchor="middle" transform="translate(0 -15.600000000000001)" style="user-select: none; cursor: default;"><tspan id="SvgjsTspan5951" font-family="'Arial','Nunito Sans','Microsoft YaHei','Microsoft JhengHei',sans-serif" font-size="24" font-weight="normal" fill="#fbbf3e" font-style="normal" text-decoration="none" dy="24" x="0" style="white-space: pre;">Central Topic</tspan></text></g></g></g></g></g><g id="SvgjsG5744" data-name="branch" class="branch" transform="translate(211.94140625 -110.45781249999999)"><g id="SvgjsG5737" data-name="topic"><g id="SvgjsG5738" data-name="topic-shape-group"><path id="SvgjsPath5741" data-name="topic-shape-fill" fill="#ffffff" stroke="none" opacity="1" d="M -57.91015625 -20.4L 57.91015625 -20.4Q 62.91015625 -20.4  62.91015625 -15.399999999999999L 62.91015625 15.399999999999999Q 62.91015625 20.4  57.91015625 20.4L -57.91015625 20.4Q -62.91015625 20.4  -62.91015625 15.399999999999999L -62.91015625 -15.399999999999999Q -62.91015625 -20.4  -57.91015625 -20.4"></path><path id="SvgjsPath5742" data-name="topic-shape" fill="none" stroke-width="0" d="M -57.91015625 -20.4L 57.91015625 -20.4Q 62.91015625 -20.4  62.91015625 -15.399999999999999L 62.91015625 15.399999999999999Q 62.91015625 20.4  57.91015625 20.4L -57.91015625 20.4Q -62.91015625 20.4  -62.91015625 15.399999999999999L -62.91015625 -15.399999999999999Q -62.91015625 -20.4  -57.91015625 -20.4"></path><g id="SvgjsG5739" data-name="inner-element-group"><g id="SvgjsG5787" data-name="topic-title-text-group"><text id="SvgjsText5786" font-family="'Arial','Nunito Sans','Microsoft YaHei','Microsoft JhengHei',sans-serif" font-size="16" font-weight="normal" fill="#fbbf3e" font-style="normal" text-decoration="none" text-anchor="start" transform="translate(-44.91015625 -10.4)" style="user-select: none; cursor: default;"><tspan id="SvgjsTspan5952" font-family="'Arial','Nunito Sans','Microsoft YaHei','Microsoft JhengHei',sans-serif" font-size="16" font-weight="normal" fill="#fbbf3e" font-style="normal" text-decoration="none" dy="16" x="0" style="white-space: pre;">Main Topic 1</tspan></text></g></g></g><g id="SvgjsG5902" data-name="collapse-extended" class="collapseextend" transform="translate(69.91015625 -6)" style="cursor: pointer; display: none;"><line id="SvgjsLine5903" stroke-width="0" x1="0" y1="6" x2="-7" y2="6" stroke="#ffffff"></line><g id="SvgjsG5904"><ellipse id="SvgjsEllipse5905" rx="6" ry="6" cx="6" cy="6" fill="#ecf5e7"></ellipse><ellipse id="SvgjsEllipse5906" rx="6" ry="6" cx="6" cy="6" fill="none" stroke="#ffffff"></ellipse><path id="SvgjsPath5907" d="M 2, 6 L 10, 6" stroke="#ffffff"></path></g><g id="SvgjsG5908"><ellipse id="SvgjsEllipse5909" rx="8" ry="8" cx="8" cy="8" fill="#ecf5e7"></ellipse><ellipse id="SvgjsEllipse5910" rx="8" ry="8" cx="8" cy="8" fill="none" stroke="#ffffff" stroke-width="1"></ellipse><text id="SvgjsText5911" font-family="Helvetica, Arial, sans-serif" fill="#ffffff" style="user-select: none; cursor: default;"></text></g><ellipse id="SvgjsEllipse5912" rx="8" ry="8" cx="8" cy="8" fill="none" style="pointer-events: visible;"></ellipse></g></g></g><g id="SvgjsG5754" data-name="branch" class="branch" transform="translate(335.205078125 -127.25781249999999)"><g id="SvgjsG5747" data-name="topic"><g id="SvgjsG5748" data-name="topic-shape-group"><path id="SvgjsPath5751" data-name="topic-shape-fill" opacity="1" d="M -29.353515625 -13.8L 29.353515625 -13.8Q 34.353515625 -13.8  34.353515625 -8.8L 34.353515625 8.8Q 34.353515625 13.8  29.353515625 13.8L -29.353515625 13.8Q -34.353515625 13.8  -34.353515625 8.8L -34.353515625 -8.8Q -34.353515625 -13.8  -29.353515625 -13.8" fill="#f5faee" stroke="none"></path><path id="SvgjsPath5752" data-name="topic-shape" fill="none" stroke-width="0" d="M -29.353515625 -13.8L 29.353515625 -13.8Q 34.353515625 -13.8  34.353515625 -8.8L 34.353515625 8.8Q 34.353515625 13.8  29.353515625 13.8L -29.353515625 13.8Q -34.353515625 13.8  -34.353515625 8.8L -34.353515625 -8.8Q -34.353515625 -13.8  -29.353515625 -13.8"></path><g id="SvgjsG5749" data-name="inner-element-group"><g id="SvgjsG5771" data-name="topic-title-text-group"><text id="SvgjsText5770" font-family="'Arial','Nunito Sans','Microsoft YaHei','Microsoft JhengHei',sans-serif" font-size="12" font-weight="normal" fill="#16183c" font-style="italic" text-decoration="none" text-anchor="start" transform="translate(-28.353515625 -7.800000000000001)" style="user-select: none; cursor: default;"><tspan id="SvgjsTspan5953" font-family="'Arial','Nunito Sans','Microsoft YaHei','Microsoft JhengHei',sans-serif" font-size="12" font-weight="normal" fill="#16183c" font-style="italic" text-decoration="none" dy="12" x="0" style="white-space: pre;">Subtopic 1</tspan></text></g></g></g></g></g><g id="SvgjsG5764" data-name="branch" class="branch" transform="translate(335.205078125 -160.85781249999997)"><g id="SvgjsG5757" data-name="topic"><g id="SvgjsG5758" data-name="topic-shape-group"><path id="SvgjsPath5761" data-name="topic-shape-fill" fill="#9b806b" stroke="none" opacity="1" d="M -19.6767578125 -13.8L 19.6767578125 -13.8Q 24.6767578125 -13.8  24.6767578125 -8.8L 24.6767578125 8.8Q 24.6767578125 13.8  19.6767578125 13.8L -19.6767578125 13.8Q -24.6767578125 13.8  -24.6767578125 8.8L -24.6767578125 -8.8Q -24.6767578125 -13.8  -19.6767578125 -13.8"></path><path id="SvgjsPath5762" data-name="topic-shape" fill="none" stroke-width="0" d="M -19.6767578125 -13.8L 19.6767578125 -13.8Q 24.6767578125 -13.8  24.6767578125 -8.8L 24.6767578125 8.8Q 24.6767578125 13.8  19.6767578125 13.8L -19.6767578125 13.8Q -24.6767578125 13.8  -24.6767578125 8.8L -24.6767578125 -8.8Q -24.6767578125 -13.8  -19.6767578125 -13.8" clip-path="url(&quot;#SvgjsClipPath5971&quot;)"></path><g id="SvgjsG5759" data-name="inner-element-group"><g id="SvgjsG5768" data-name="topic-title-text-group"><text id="SvgjsText5767" font-family="'Arial','Nunito Sans','Microsoft YaHei','Microsoft JhengHei',sans-serif" font-size="12" font-weight="normal" fill="#ffffff" font-style="italic" text-decoration="none" text-anchor="middle" transform="translate(0 -7.800000000000001)" style="user-select: none; cursor: default;"><tspan id="SvgjsTspan5956" font-family="'Arial','Nunito Sans','Microsoft YaHei','Microsoft JhengHei',sans-serif" font-size="12" font-weight="normal" fill="#ffffff" font-style="italic" text-decoration="none" dy="12" x="0" style="white-space: pre;">Callout</tspan></text></g></g></g></g></g><g id="SvgjsG5780" data-name="branch" class="branch" transform="translate(335.205078125 -93.65781249999999)"><g id="SvgjsG5773" data-name="topic"><g id="SvgjsG5774" data-name="topic-shape-group"><path id="SvgjsPath5777" data-name="topic-shape-fill" opacity="1" d="M -29.353515625 -13.8L 29.353515625 -13.8Q 34.353515625 -13.8  34.353515625 -8.8L 34.353515625 8.8Q 34.353515625 13.8  29.353515625 13.8L -29.353515625 13.8Q -34.353515625 13.8  -34.353515625 8.8L -34.353515625 -8.8Q -34.353515625 -13.8  -29.353515625 -13.8" fill="#f5faee" stroke="none"></path><path id="SvgjsPath5778" data-name="topic-shape" fill="none" stroke-width="0" d="M -29.353515625 -13.8L 29.353515625 -13.8Q 34.353515625 -13.8  34.353515625 -8.8L 34.353515625 8.8Q 34.353515625 13.8  29.353515625 13.8L -29.353515625 13.8Q -34.353515625 13.8  -34.353515625 8.8L -34.353515625 -8.8Q -34.353515625 -13.8  -29.353515625 -13.8"></path><g id="SvgjsG5775" data-name="inner-element-group"><g id="SvgjsG5784" data-name="topic-title-text-group"><text id="SvgjsText5783" font-family="'Arial','Nunito Sans','Microsoft YaHei','Microsoft JhengHei',sans-serif" font-size="12" font-weight="normal" fill="#16183c" font-style="italic" text-decoration="none" text-anchor="start" transform="translate(-28.353515625 -7.800000000000001)" style="user-select: none; cursor: default;"><tspan id="SvgjsTspan5957" font-family="'Arial','Nunito Sans','Microsoft YaHei','Microsoft JhengHei',sans-serif" font-size="12" font-weight="normal" fill="#16183c" font-style="italic" text-decoration="none" dy="12" x="0" style="white-space: pre;">Subtopic 2</tspan></text></g></g></g></g></g><g id="SvgjsG5796" data-name="branch" class="branch" transform="translate(211.94140625 -14.257812499999993)"><g id="SvgjsG5789" data-name="topic"><g id="SvgjsG5790" data-name="topic-shape-group"><path id="SvgjsPath5793" data-name="topic-shape-fill" fill="#ffffff" stroke="none" opacity="1" d="M -57.91015625 -20.4L 57.91015625 -20.4Q 62.91015625 -20.4  62.91015625 -15.399999999999999L 62.91015625 15.399999999999999Q 62.91015625 20.4  57.91015625 20.4L -57.91015625 20.4Q -62.91015625 20.4  -62.91015625 15.399999999999999L -62.91015625 -15.399999999999999Q -62.91015625 -20.4  -57.91015625 -20.4"></path><path id="SvgjsPath5794" data-name="topic-shape" fill="none" stroke-width="0" d="M -57.91015625 -20.4L 57.91015625 -20.4Q 62.91015625 -20.4  62.91015625 -15.399999999999999L 62.91015625 15.399999999999999Q 62.91015625 20.4  57.91015625 20.4L -57.91015625 20.4Q -62.91015625 20.4  -62.91015625 15.399999999999999L -62.91015625 -15.399999999999999Q -62.91015625 -20.4  -57.91015625 -20.4"></path><g id="SvgjsG5791" data-name="inner-element-group"><g id="SvgjsG5840" data-name="topic-title-text-group"><text id="SvgjsText5839" font-family="'Arial','Nunito Sans','Microsoft YaHei','Microsoft JhengHei',sans-serif" font-size="16" font-weight="normal" fill="#fbbf3e" font-style="normal" text-decoration="none" text-anchor="start" transform="translate(-44.91015625 -10.4)" style="user-select: none; cursor: default;"><tspan id="SvgjsTspan5958" font-family="'Arial','Nunito Sans','Microsoft YaHei','Microsoft JhengHei',sans-serif" font-size="16" font-weight="normal" fill="#fbbf3e" font-style="normal" text-decoration="none" dy="16" x="0" style="white-space: pre;">Main Topic 2</tspan></text></g></g></g><g id="SvgjsG5913" data-name="collapse-extended" class="collapseextend" transform="translate(69.91015625 -6)" style="cursor: pointer; display: none;"><line id="SvgjsLine5914" stroke-width="0" x1="0" y1="6" x2="-7" y2="6" stroke="#ffffff"></line><g id="SvgjsG5915"><ellipse id="SvgjsEllipse5916" rx="6" ry="6" cx="6" cy="6" fill="#ecf5e7"></ellipse><ellipse id="SvgjsEllipse5917" rx="6" ry="6" cx="6" cy="6" fill="none" stroke="#ffffff"></ellipse><path id="SvgjsPath5918" d="M 2, 6 L 10, 6" stroke="#ffffff"></path></g><g id="SvgjsG5919"><ellipse id="SvgjsEllipse5920" rx="8" ry="8" cx="8" cy="8" fill="#ecf5e7"></ellipse><ellipse id="SvgjsEllipse5921" rx="8" ry="8" cx="8" cy="8" fill="none" stroke="#ffffff" stroke-width="1"></ellipse><text id="SvgjsText5922" font-family="Helvetica, Arial, sans-serif" fill="#ffffff" style="user-select: none; cursor: default;"></text></g><ellipse id="SvgjsEllipse5923" rx="8" ry="8" cx="8" cy="8" fill="none" style="pointer-events: visible;"></ellipse></g></g></g><g id="SvgjsG5806" data-name="branch" class="branch" transform="translate(335.205078125 -31.057812499999994)"><g id="SvgjsG5799" data-name="topic"><g id="SvgjsG5800" data-name="topic-shape-group"><path id="SvgjsPath5803" data-name="topic-shape-fill" opacity="1" d="M -29.353515625 -13.8L 29.353515625 -13.8Q 34.353515625 -13.8  34.353515625 -8.8L 34.353515625 8.8Q 34.353515625 13.8  29.353515625 13.8L -29.353515625 13.8Q -34.353515625 13.8  -34.353515625 8.8L -34.353515625 -8.8Q -34.353515625 -13.8  -29.353515625 -13.8" fill="#f5faee" stroke="none"></path><path id="SvgjsPath5804" data-name="topic-shape" fill="none" stroke-width="0" d="M -29.353515625 -13.8L 29.353515625 -13.8Q 34.353515625 -13.8  34.353515625 -8.8L 34.353515625 8.8Q 34.353515625 13.8  29.353515625 13.8L -29.353515625 13.8Q -34.353515625 13.8  -34.353515625 8.8L -34.353515625 -8.8Q -34.353515625 -13.8  -29.353515625 -13.8"></path><g id="SvgjsG5801" data-name="inner-element-group"><g id="SvgjsG5810" data-name="topic-title-text-group"><text id="SvgjsText5809" font-family="'Arial','Nunito Sans','Microsoft YaHei','Microsoft JhengHei',sans-serif" font-size="12" font-weight="normal" fill="#16183c" font-style="italic" text-decoration="none" text-anchor="start" transform="translate(-28.353515625 -7.800000000000001)" style="user-select: none; cursor: default;"><tspan id="SvgjsTspan5959" font-family="'Arial','Nunito Sans','Microsoft YaHei','Microsoft JhengHei',sans-serif" font-size="12" font-weight="normal" fill="#16183c" font-style="italic" text-decoration="none" dy="12" x="0" style="white-space: pre;">Subtopic 1</tspan></text></g></g></g></g></g><g id="SvgjsG5819" data-name="branch" class="branch" transform="translate(335.205078125 2.542187500000008)"><g id="SvgjsG5812" data-name="topic"><g id="SvgjsG5813" data-name="topic-shape-group"><path id="SvgjsPath5816" data-name="topic-shape-fill" opacity="1" d="M -29.353515625 -13.8L 29.353515625 -13.8Q 34.353515625 -13.8  34.353515625 -8.8L 34.353515625 8.8Q 34.353515625 13.8  29.353515625 13.8L -29.353515625 13.8Q -34.353515625 13.8  -34.353515625 8.8L -34.353515625 -8.8Q -34.353515625 -13.8  -29.353515625 -13.8" fill="#f5faee" stroke="none"></path><path id="SvgjsPath5817" data-name="topic-shape" fill="none" stroke-width="0" d="M -29.353515625 -13.8L 29.353515625 -13.8Q 34.353515625 -13.8  34.353515625 -8.8L 34.353515625 8.8Q 34.353515625 13.8  29.353515625 13.8L -29.353515625 13.8Q -34.353515625 13.8  -34.353515625 8.8L -34.353515625 -8.8Q -34.353515625 -13.8  -29.353515625 -13.8"></path><g id="SvgjsG5814" data-name="inner-element-group"><g id="SvgjsG5823" data-name="topic-title-text-group"><text id="SvgjsText5822" font-family="'Arial','Nunito Sans','Microsoft YaHei','Microsoft JhengHei',sans-serif" font-size="12" font-weight="normal" fill="#16183c" font-style="italic" text-decoration="none" text-anchor="start" transform="translate(-28.353515625 -7.800000000000001)" style="user-select: none; cursor: default;"><tspan id="SvgjsTspan5960" font-family="'Arial','Nunito Sans','Microsoft YaHei','Microsoft JhengHei',sans-serif" font-size="12" font-weight="normal" fill="#16183c" font-style="italic" text-decoration="none" dy="12" x="0" style="white-space: pre;">Subtopic 2</tspan></text></g></g></g></g></g><g id="SvgjsG5832" data-name="branch" class="branch" transform="translate(444.5068359375 -14.257812499999993)"><g id="SvgjsG5825" data-name="topic"><g id="SvgjsG5826" data-name="topic-shape-group"><path id="SvgjsPath5829" data-name="topic-shape-fill" fill="#b5d477" stroke="none" opacity="1" d="M -29.9482421875 -15.1L 29.9482421875 -15.1Q 34.9482421875 -15.1  34.9482421875 -10.1L 34.9482421875 10.1Q 34.9482421875 15.1  29.9482421875 15.1L -29.9482421875 15.1Q -34.9482421875 15.1  -34.9482421875 10.1L -34.9482421875 -10.1Q -34.9482421875 -15.1  -29.9482421875 -15.1"></path><path id="SvgjsPath5830" data-name="topic-shape" fill="none" stroke-width="0" d="M -29.9482421875 -15.1L 29.9482421875 -15.1Q 34.9482421875 -15.1  34.9482421875 -10.1L 34.9482421875 10.1Q 34.9482421875 15.1  29.9482421875 15.1L -29.9482421875 15.1Q -34.9482421875 15.1  -34.9482421875 10.1L -34.9482421875 -10.1Q -34.9482421875 -15.1  -29.9482421875 -15.1"></path><g id="SvgjsG5827" data-name="inner-element-group"><g id="SvgjsG5837" data-name="topic-title-text-group"><text id="SvgjsText5836" font-family="'Arial','Nunito Sans','Microsoft YaHei','Microsoft JhengHei',sans-serif" font-size="14" font-weight="normal" fill="#ffffff" font-style="italic" text-decoration="none" text-anchor="middle" transform="translate(0 -9.1)" style="user-select: none; cursor: default;"><tspan id="SvgjsTspan5961" font-family="'Arial','Nunito Sans','Microsoft YaHei','Microsoft JhengHei',sans-serif" font-size="14" font-weight="normal" fill="#ffffff" font-style="italic" text-decoration="none" dy="14" x="0" style="white-space: pre;">Summary</tspan></text></g></g></g></g></g><g id="SvgjsG5849" data-name="branch" class="branch" transform="translate(211.94140625 110.45781250000002)"><g id="SvgjsG5842" data-name="topic"><g id="SvgjsG5843" data-name="topic-shape-group"><path id="SvgjsPath5846" data-name="topic-shape-fill" fill="#ffffff" stroke="none" opacity="1" d="M -57.91015625 -20.4L 57.91015625 -20.4Q 62.91015625 -20.4  62.91015625 -15.399999999999999L 62.91015625 15.399999999999999Q 62.91015625 20.4  57.91015625 20.4L -57.91015625 20.4Q -62.91015625 20.4  -62.91015625 15.399999999999999L -62.91015625 -15.399999999999999Q -62.91015625 -20.4  -57.91015625 -20.4"></path><path id="SvgjsPath5847" data-name="topic-shape" fill="none" stroke-width="0" d="M -57.91015625 -20.4L 57.91015625 -20.4Q 62.91015625 -20.4  62.91015625 -15.399999999999999L 62.91015625 15.399999999999999Q 62.91015625 20.4  57.91015625 20.4L -57.91015625 20.4Q -62.91015625 20.4  -62.91015625 15.399999999999999L -62.91015625 -15.399999999999999Q -62.91015625 -20.4  -57.91015625 -20.4"></path><g id="SvgjsG5844" data-name="inner-element-group"><g id="SvgjsG5897" data-name="topic-title-text-group"><text id="SvgjsText5896" font-family="'Arial','Nunito Sans','Microsoft YaHei','Microsoft JhengHei',sans-serif" font-size="16" font-weight="normal" fill="#fbbf3e" font-style="normal" text-decoration="none" text-anchor="start" transform="translate(-44.91015625 -10.4)" style="user-select: none; cursor: default;"><tspan id="SvgjsTspan5962" font-family="'Arial','Nunito Sans','Microsoft YaHei','Microsoft JhengHei',sans-serif" font-size="16" font-weight="normal" fill="#fbbf3e" font-style="normal" text-decoration="none" dy="16" x="0" style="white-space: pre;">Main Topic 3</tspan></text></g></g></g><g id="SvgjsG5936" data-name="collapse-extended" class="collapseextend" transform="translate(69.91015625 -6)" style="cursor: pointer; display: none;"><line id="SvgjsLine5937" stroke-width="0" x1="0" y1="6" x2="-7" y2="6" stroke="#ffffff"></line><g id="SvgjsG5938"><ellipse id="SvgjsEllipse5939" rx="6" ry="6" cx="6" cy="6" fill="#ecf5e7"></ellipse><ellipse id="SvgjsEllipse5940" rx="6" ry="6" cx="6" cy="6" fill="none" stroke="#ffffff"></ellipse><path id="SvgjsPath5941" d="M 2, 6 L 10, 6" stroke="#ffffff"></path></g><g id="SvgjsG5942"><ellipse id="SvgjsEllipse5943" rx="8" ry="8" cx="8" cy="8" fill="#ecf5e7"></ellipse><ellipse id="SvgjsEllipse5944" rx="8" ry="8" cx="8" cy="8" fill="none" stroke="#ffffff" stroke-width="1"></ellipse><text id="SvgjsText5945" font-family="Helvetica, Arial, sans-serif" fill="#ffffff" style="user-select: none; cursor: default;"></text></g><ellipse id="SvgjsEllipse5946" rx="8" ry="8" cx="8" cy="8" fill="none" style="pointer-events: visible;"></ellipse></g></g></g><g id="SvgjsG5859" data-name="branch" class="branch" transform="translate(345.205078125 93.6578125)"><g id="SvgjsG5852" data-name="topic"><g id="SvgjsG5853" data-name="topic-shape-group"><path id="SvgjsPath5856" data-name="topic-shape-fill" opacity="1" d="M -29.353515625 -13.8L 29.353515625 -13.8Q 34.353515625 -13.8  34.353515625 -8.8L 34.353515625 8.8Q 34.353515625 13.8  29.353515625 13.8L -29.353515625 13.8Q -34.353515625 13.8  -34.353515625 8.8L -34.353515625 -8.8Q -34.353515625 -13.8  -29.353515625 -13.8" fill="#f5faee" stroke="none"></path><path id="SvgjsPath5857" data-name="topic-shape" fill="none" stroke-width="0" d="M -29.353515625 -13.8L 29.353515625 -13.8Q 34.353515625 -13.8  34.353515625 -8.8L 34.353515625 8.8Q 34.353515625 13.8  29.353515625 13.8L -29.353515625 13.8Q -34.353515625 13.8  -34.353515625 8.8L -34.353515625 -8.8Q -34.353515625 -13.8  -29.353515625 -13.8"></path><g id="SvgjsG5854" data-name="inner-element-group"><g id="SvgjsG5863" data-name="topic-title-text-group"><text id="SvgjsText5862" font-family="'Arial','Nunito Sans','Microsoft YaHei','Microsoft JhengHei',sans-serif" font-size="12" font-weight="normal" fill="#16183c" font-style="italic" text-decoration="none" text-anchor="start" transform="translate(-28.353515625 -7.800000000000001)" style="user-select: none; cursor: default;"><tspan id="SvgjsTspan5963" font-family="'Arial','Nunito Sans','Microsoft YaHei','Microsoft JhengHei',sans-serif" font-size="12" font-weight="normal" fill="#16183c" font-style="italic" text-decoration="none" dy="12" x="0" style="white-space: pre;">Subtopic 1</tspan></text></g></g></g></g></g><g id="SvgjsG5872" data-name="branch" class="branch" transform="translate(345.205078125 127.25781250000001)"><g id="SvgjsG5865" data-name="topic"><g id="SvgjsG5866" data-name="topic-shape-group"><path id="SvgjsPath5869" data-name="topic-shape-fill" opacity="1" d="M -29.353515625 -13.8L 29.353515625 -13.8Q 34.353515625 -13.8  34.353515625 -8.8L 34.353515625 8.8Q 34.353515625 13.8  29.353515625 13.8L -29.353515625 13.8Q -34.353515625 13.8  -34.353515625 8.8L -34.353515625 -8.8Q -34.353515625 -13.8  -29.353515625 -13.8" fill="#f5faee" stroke="none"></path><path id="SvgjsPath5870" data-name="topic-shape" fill="none" stroke-width="0" d="M -29.353515625 -13.8L 29.353515625 -13.8Q 34.353515625 -13.8  34.353515625 -8.8L 34.353515625 8.8Q 34.353515625 13.8  29.353515625 13.8L -29.353515625 13.8Q -34.353515625 13.8  -34.353515625 8.8L -34.353515625 -8.8Q -34.353515625 -13.8  -29.353515625 -13.8"></path><g id="SvgjsG5867" data-name="inner-element-group"><g id="SvgjsG5876" data-name="topic-title-text-group"><text id="SvgjsText5875" font-family="'Arial','Nunito Sans','Microsoft YaHei','Microsoft JhengHei',sans-serif" font-size="12" font-weight="normal" fill="#16183c" font-style="italic" text-decoration="none" text-anchor="start" transform="translate(-28.353515625 -7.800000000000001)" style="user-select: none; cursor: default;"><tspan id="SvgjsTspan5964" font-family="'Arial','Nunito Sans','Microsoft YaHei','Microsoft JhengHei',sans-serif" font-size="12" font-weight="normal" fill="#16183c" font-style="italic" text-decoration="none" dy="12" x="0" style="white-space: pre;">Subtopic 2</tspan></text></g></g></g></g></g></g><g id="SvgjsG5723" data-name="relationship-container"></g><g id="SvgjsG5726" data-name="cloneG" opacity="0.5"></g></g></g><defs id="SvgjsDefs5711"><clipPath id="SvgjsClipPath5971"><path id="SvgjsPath5970" d="M -8.205078125 12.857812499999966 L7.794921875 12.857812499999966 L7.794921875 12.857812499999966 L-8.205078125 12.857812499999966 M -10000 -10000 L10000 -10000 L10000 10000 L-10000 10000" fill="black" clip-rule="evenodd"></path></clipPath></defs></svg>