<?xml version="1.0" standalone="no"?><!DOCTYPE svg PUBLIC "-//W3C//DTD SVG 1.1//EN" "http://www.w3.org/Graphics/SVG/1.1/DTD/svg11.dtd" [<!ENTITY nbsp "&#160;">]><svg id="SvgjsSvg5965" xmlns="http://www.w3.org/2000/svg" version="1.1" width="228" height="140" xmlns:xlink="http://www.w3.org/1999/xlink" style="display: block; background-color: rgb(84, 87, 83);" viewBox="0 0 697.5638333834135 428.3286696213942"><defs><style type="text/css"><![CDATA[

]]></style></defs><g id="SvgjsG5967" data-name="container" transform="scale(1) translate(138.55730731670673 233.8143348106971)"><g id="SvgjsG5973" data-name="sheet"><g id="SvgjsG5974" data-name="matrix-container"></g><g id="SvgjsG5975" data-name="boundary-container"><g id="SvgjsG6133" data-name="boundary-group" class="boundary"><path id="SvgjsPath6134" data-name="boundary-path" stroke="#3f573a" fill="#adccae" stroke-width="2" fill-opacity="0.2" stroke-dasharray="9, 3" d="M 365.33349609375 48.100000000000016L 414.97412109375 48.100000000000016Q 434.97412109375 48.100000000000016 434.97412109375 68.10000000000002L 434.97412109375 115.50000000000003Q 434.97412109375 135.50000000000003 414.97412109375 135.50000000000003L 365.33349609375 135.50000000000003Q 345.33349609375 135.50000000000003 345.33349609375 115.50000000000003L 345.33349609375 68.10000000000002Q 345.33349609375 48.100000000000016 365.33349609375 48.100000000000016z"></path><g id="SvgjsG6136" data-name="boundary-title-group" transform="translate(340.33349609375 43.100000000000016)"><rect id="SvgjsRect6138" data-name="boundary-title-bg" stroke="#3f573a" fill="#adccae" stroke-width="2" width="63.984375" height="24"></rect><text id="SvgjsText6137" font-family="'Roboto Condensed','Roboto Condensed','Nunito Sans','Microsoft YaHei','Microsoft JhengHei',sans-serif" data-name="boundary-title" style="user-select: none; cursor: default;" fill="#3f573a" font-size="12" font-style="italic" font-weight="normal" text-decoration="none" x="10" y="0.40625"><tspan id="SvgjsTspan6223" dy="15.600000000000001" x="10" text-anchor="start">Boundary</tspan></text></g></g></g><g id="SvgjsG5976" data-name="connection-container"><path id="SvgjsPath5990" data-name="connection" stroke-linecap="round"></path><path id="SvgjsPath6000" data-name="connection" stroke-linecap="round" stroke="#a4a8a3" stroke-width="2" d="M 107.96240234375 0L 120.96240234375 0L 120.96240234375 -102.39999999999999Q 120.96240234375 -110.39999999999999 128.96240234375 -110.39999999999999L 158.96240234375 -110.39999999999999" marker-end="none" fill="none"></path><path id="SvgjsPath6010" data-name="connection" stroke-linecap="round" stroke="#a4a8a3" stroke-width="2" d="M 319.33349609375 -110.39999999999999L 332.33349609375 -110.39999999999999L 332.33349609375 -116.49999999999997Q 332.33349609375 -124.49999999999997 340.33349609375 -124.49999999999997L 345.33349609375 -124.49999999999997" marker-end="none" fill="none"></path><path id="SvgjsPath6020" data-name="connection" stroke-linecap="round" d="M 388 -150 L 380 -143 L 372 -150" stroke-width="0" fill="#ffffff" marker-end="none"></path><path id="SvgjsPath6036" data-name="connection" stroke-linecap="round" stroke="#a4a8a3" stroke-width="2" d="M 319.33349609375 -110.39999999999999L 332.33349609375 -110.39999999999999L 332.33349609375 -104.29999999999998Q 332.33349609375 -96.29999999999998 340.33349609375 -96.29999999999998L 345.33349609375 -96.29999999999998" marker-end="none" fill="none"></path><path id="SvgjsPath6052" data-name="connection" stroke-linecap="round" stroke="#a4a8a3" stroke-width="2" d="M 107.96240234375 0L 120.96240234375 0L 120.96240234375 -6.499999999999986Q 120.96240234375 -14.499999999999986 128.96240234375 -14.499999999999986L 158.96240234375 -14.499999999999986" marker-end="none" fill="none"></path><path id="SvgjsPath6062" data-name="connection" stroke-linecap="round" stroke="#a4a8a3" stroke-width="2" d="M 319.33349609375 -14.499999999999986L 332.33349609375 -14.499999999999986L 332.33349609375 -20.59999999999998Q 332.33349609375 -28.59999999999998 340.33349609375 -28.59999999999998L 345.33349609375 -28.59999999999998" marker-end="none" fill="none"></path><path id="SvgjsPath6075" data-name="connection" stroke-linecap="round" stroke="#a4a8a3" stroke-width="2" d="M 319.33349609375 -14.499999999999986L 332.33349609375 -14.499999999999986L 332.33349609375 -8.399999999999984Q 332.33349609375 -0.39999999999998437 340.33349609375 -0.39999999999998437L 345.33349609375 -0.39999999999998437" marker-end="none" fill="none"></path><path id="SvgjsPath6088" data-name="connection" stroke-linecap="round" d="M 394.3899917602539 -47.49999999999997L 404.3899917602539 -47.49999999999997L 404.3899917602539 -23.299999999999976L 414.3899917602539 -23.299999999999976M 404.3899917602539 -23.299999999999976L 404.3899917602539 0.9000000000000234L 394.3899917602539 0.9000000000000234" stroke="#9bd28f" stroke-width="2" fill="none" transform="translate(30.584129333496094 -0.3000000000000078)"></path><path id="SvgjsPath6089" data-name="connection-select-box" opacity="0" class="connection" d="M 394.3899917602539 -47.49999999999997L 404.3899917602539 -47.49999999999997L 404.3899917602539 -23.299999999999976L 414.3899917602539 -23.299999999999976M 404.3899917602539 -23.299999999999976L 404.3899917602539 0.9000000000000234L 394.3899917602539 0.9000000000000234" stroke="#9bd28f" stroke-width="7" fill="none" transform="translate(30.584129333496094 -0.3000000000000078)"></path><path id="SvgjsPath6105" data-name="connection" stroke-linecap="round" stroke="#a4a8a3" stroke-width="2" d="M 107.96240234375 0L 120.96240234375 0L 120.96240234375 102.40000000000002Q 120.96240234375 110.40000000000002 128.96240234375 110.40000000000002L 158.96240234375 110.40000000000002" marker-end="none" fill="none"></path><path id="SvgjsPath6115" data-name="connection" stroke-linecap="round" stroke="#a4a8a3" stroke-width="2" d="M 319.33349609375 110.40000000000002L 332.33349609375 110.40000000000002L 332.33349609375 104.30000000000001Q 332.33349609375 96.30000000000001 340.33349609375 96.30000000000001L 355.33349609375 96.30000000000001" marker-end="none" fill="none"></path><path id="SvgjsPath6128" data-name="connection" stroke-linecap="round" stroke="#a4a8a3" stroke-width="2" d="M 319.33349609375 110.40000000000002L 332.33349609375 110.40000000000002L 332.33349609375 116.50000000000001Q 332.33349609375 124.50000000000001 340.33349609375 124.50000000000001L 355.33349609375 124.50000000000001" marker-end="none" fill="none"></path></g><g id="SvgjsG5977" data-name="branch-container"><g id="SvgjsG5989" data-name="branch" class="branch"><g id="SvgjsG5982" data-name="topic"><g id="SvgjsG5983" data-name="topic-shape-group"><path id="SvgjsPath5986" data-name="topic-shape-fill" fill="#68a47c" stroke="none" opacity="1" d="M -102.96240234375 -34.5L 102.96240234375 -34.5Q 107.96240234375 -34.5  107.96240234375 -29.5L 107.96240234375 29.5Q 107.96240234375 34.5  102.96240234375 34.5L -102.96240234375 34.5Q -107.96240234375 34.5  -107.96240234375 29.5L -107.96240234375 -29.5Q -107.96240234375 -34.5  -102.96240234375 -34.5"></path><path id="SvgjsPath5987" data-name="topic-shape" fill="none" stroke-width="0" d="M -102.96240234375 -34.5L 102.96240234375 -34.5Q 107.96240234375 -34.5  107.96240234375 -29.5L 107.96240234375 29.5Q 107.96240234375 34.5  102.96240234375 34.5L -102.96240234375 34.5Q -107.96240234375 34.5  -107.96240234375 29.5L -107.96240234375 -29.5Q -107.96240234375 -34.5  -102.96240234375 -34.5"></path><g id="SvgjsG5984" data-name="inner-element-group"><g id="SvgjsG6155" data-name="topic-title-text-group"><text id="SvgjsText6154" font-family="'Roboto Condensed','Nunito Sans','Microsoft YaHei','Microsoft JhengHei',sans-serif" font-size="30" font-weight="700" fill="#ffffff" font-style="normal" text-decoration="none" text-anchor="middle" transform="translate(0 -19.5)" style="user-select: none; cursor: default;"><tspan id="SvgjsTspan6206" font-family="'Roboto Condensed','Nunito Sans','Microsoft YaHei','Microsoft JhengHei',sans-serif" font-size="30" font-weight="700" fill="#ffffff" font-style="normal" text-decoration="none" dy="30" x="0" style="white-space: pre;">Central Topic</tspan></text></g></g></g></g></g><g id="SvgjsG5999" data-name="branch" class="branch" transform="translate(238.64794921875 -110.39999999999999)"><g id="SvgjsG5992" data-name="topic"><g id="SvgjsG5993" data-name="topic-shape-group"><path id="SvgjsPath5996" data-name="topic-shape-fill" fill="#e8e8e8" stroke="none" opacity="0" d="M -74.685546875 -26.6L 74.685546875 -26.6Q 79.685546875 -26.6  79.685546875 -21.6L 79.685546875 21.6Q 79.685546875 26.6  74.685546875 26.6L -74.685546875 26.6Q -79.685546875 26.6  -79.685546875 21.6L -79.685546875 -21.6Q -79.685546875 -26.6  -74.685546875 -26.6"></path><path id="SvgjsPath5997" data-name="topic-shape" fill="none" stroke="#a4a8a3" stroke-width="2" d="M -74.685546875 -26.6L 74.685546875 -26.6Q 79.685546875 -26.6  79.685546875 -21.6L 79.685546875 21.6Q 79.685546875 26.6  74.685546875 26.6L -74.685546875 26.6Q -79.685546875 26.6  -79.685546875 21.6L -79.685546875 -21.6Q -79.685546875 -26.6  -74.685546875 -26.6"></path><g id="SvgjsG5994" data-name="inner-element-group"><g id="SvgjsG6042" data-name="topic-title-text-group"><text id="SvgjsText6041" font-family="'Roboto Condensed','Nunito Sans','Microsoft YaHei','Microsoft JhengHei',sans-serif" font-size="24" font-weight="normal" fill="#ffffff" font-style="normal" text-decoration="none" text-anchor="start" transform="translate(-60.685546875 -15.600000000000001)" style="user-select: none; cursor: default;"><tspan id="SvgjsTspan6207" font-family="'Roboto Condensed','Nunito Sans','Microsoft YaHei','Microsoft JhengHei',sans-serif" font-size="24" font-weight="normal" fill="#ffffff" font-style="normal" text-decoration="none" dy="24" x="0" style="white-space: pre;">Main Topic 1</tspan></text></g></g></g><g id="SvgjsG6157" data-name="collapse-extended" class="collapseextend" transform="translate(87.685546875 -6)" style="cursor: pointer; display: none;"><line id="SvgjsLine6158" stroke-width="0" x1="0" y1="6" x2="-7" y2="6" stroke="#a4a8a3"></line><g id="SvgjsG6159"><ellipse id="SvgjsEllipse6160" rx="6" ry="6" cx="6" cy="6" fill="#545753"></ellipse><ellipse id="SvgjsEllipse6161" rx="6" ry="6" cx="6" cy="6" fill="none" stroke="#a4a8a3"></ellipse><path id="SvgjsPath6162" d="M 2, 6 L 10, 6" stroke="#a4a8a3"></path></g><g id="SvgjsG6163"><ellipse id="SvgjsEllipse6164" rx="8" ry="8" cx="8" cy="8" fill="#545753"></ellipse><ellipse id="SvgjsEllipse6165" rx="8" ry="8" cx="8" cy="8" fill="none" stroke="#a4a8a3" stroke-width="1"></ellipse><text id="SvgjsText6166" font-family="Helvetica, Arial, sans-serif" fill="#a4a8a3" style="user-select: none; cursor: default;"></text></g><ellipse id="SvgjsEllipse6167" rx="8" ry="8" cx="8" cy="8" fill="none" style="pointer-events: visible;"></ellipse></g></g></g><g id="SvgjsG6009" data-name="branch" class="branch" transform="translate(380.15380859375 -134.59999999999997)"><g id="SvgjsG6002" data-name="topic"><g id="SvgjsG6003" data-name="topic-shape-group"><path id="SvgjsPath6006" data-name="topic-shape-fill" opacity="0" d="M -34.8203125 -9.1L 34.8203125 -9.1L 34.8203125 10.1L -34.8203125 10.1z"></path><path id="SvgjsPath6007" data-name="topic-shape" fill="none" stroke="#a4a8a3" stroke-width="2" d="M  -34.8203125 10.1L 34.8203125 10.1z"></path><g id="SvgjsG6004" data-name="inner-element-group"><g id="SvgjsG6026" data-name="topic-title-text-group"><text id="SvgjsText6025" font-family="'Roboto Condensed','Nunito Sans','Microsoft YaHei','Microsoft JhengHei',sans-serif" font-size="14" font-weight="300" fill="#ffffff" font-style="normal" text-decoration="none" text-anchor="start" transform="translate(-28.8203125 -9.1)" style="user-select: none; cursor: default;"><tspan id="SvgjsTspan6208" font-family="'Roboto Condensed','Nunito Sans','Microsoft YaHei','Microsoft JhengHei',sans-serif" font-size="14" font-weight="300" fill="#ffffff" font-style="normal" text-decoration="none" dy="14" x="0" style="white-space: pre;">Subtopic 1</tspan></text></g></g></g></g></g><g id="SvgjsG6019" data-name="branch" class="branch" transform="translate(380.15380859375 -163.49999999999994)"><g id="SvgjsG6012" data-name="topic"><g id="SvgjsG6013" data-name="topic-shape-group"><path id="SvgjsPath6016" data-name="topic-shape-fill" fill="#ffffff" stroke="none" opacity="1" d="M -17.412109375 -13.8L 17.412109375 -13.8Q 22.412109375 -13.8  22.412109375 -8.8L 22.412109375 8.8Q 22.412109375 13.8  17.412109375 13.8L -17.412109375 13.8Q -22.412109375 13.8  -22.412109375 8.8L -22.412109375 -8.8Q -22.412109375 -13.8  -17.412109375 -13.8"></path><path id="SvgjsPath6017" data-name="topic-shape" fill="none" stroke-width="0" d="M -17.412109375 -13.8L 17.412109375 -13.8Q 22.412109375 -13.8  22.412109375 -8.8L 22.412109375 8.8Q 22.412109375 13.8  17.412109375 13.8L -17.412109375 13.8Q -22.412109375 13.8  -22.412109375 8.8L -22.412109375 -8.8Q -22.412109375 -13.8  -17.412109375 -13.8" clip-path="url(&quot;#SvgjsClipPath6222&quot;)"></path><g id="SvgjsG6014" data-name="inner-element-group"><g id="SvgjsG6023" data-name="topic-title-text-group"><text id="SvgjsText6022" font-family="'Roboto Condensed','Nunito Sans','Microsoft YaHei','Microsoft JhengHei',sans-serif" font-size="12" font-weight="normal" fill="#3f573a" font-style="italic" text-decoration="none" text-anchor="middle" transform="translate(0 -7.800000000000001)" style="user-select: none; cursor: default;"><tspan id="SvgjsTspan6211" font-family="'Roboto Condensed','Nunito Sans','Microsoft YaHei','Microsoft JhengHei',sans-serif" font-size="12" font-weight="normal" fill="#3f573a" font-style="italic" text-decoration="none" dy="12" x="0" style="white-space: pre;">Callout</tspan></text></g></g></g></g></g><g id="SvgjsG6035" data-name="branch" class="branch" transform="translate(380.15380859375 -106.39999999999998)"><g id="SvgjsG6028" data-name="topic"><g id="SvgjsG6029" data-name="topic-shape-group"><path id="SvgjsPath6032" data-name="topic-shape-fill" opacity="0" d="M -34.8203125 -9.1L 34.8203125 -9.1L 34.8203125 10.1L -34.8203125 10.1z"></path><path id="SvgjsPath6033" data-name="topic-shape" fill="none" stroke="#a4a8a3" stroke-width="2" d="M  -34.8203125 10.1L 34.8203125 10.1z"></path><g id="SvgjsG6030" data-name="inner-element-group"><g id="SvgjsG6039" data-name="topic-title-text-group"><text id="SvgjsText6038" font-family="'Roboto Condensed','Nunito Sans','Microsoft YaHei','Microsoft JhengHei',sans-serif" font-size="14" font-weight="300" fill="#ffffff" font-style="normal" text-decoration="none" text-anchor="start" transform="translate(-28.8203125 -9.1)" style="user-select: none; cursor: default;"><tspan id="SvgjsTspan6212" font-family="'Roboto Condensed','Nunito Sans','Microsoft YaHei','Microsoft JhengHei',sans-serif" font-size="14" font-weight="300" fill="#ffffff" font-style="normal" text-decoration="none" dy="14" x="0" style="white-space: pre;">Subtopic 2</tspan></text></g></g></g></g></g><g id="SvgjsG6051" data-name="branch" class="branch" transform="translate(238.64794921875 -14.499999999999986)"><g id="SvgjsG6044" data-name="topic"><g id="SvgjsG6045" data-name="topic-shape-group"><path id="SvgjsPath6048" data-name="topic-shape-fill" fill="#e8e8e8" stroke="none" opacity="0" d="M -74.685546875 -26.6L 74.685546875 -26.6Q 79.685546875 -26.6  79.685546875 -21.6L 79.685546875 21.6Q 79.685546875 26.6  74.685546875 26.6L -74.685546875 26.6Q -79.685546875 26.6  -79.685546875 21.6L -79.685546875 -21.6Q -79.685546875 -26.6  -74.685546875 -26.6"></path><path id="SvgjsPath6049" data-name="topic-shape" fill="none" stroke="#a4a8a3" stroke-width="2" d="M -74.685546875 -26.6L 74.685546875 -26.6Q 79.685546875 -26.6  79.685546875 -21.6L 79.685546875 21.6Q 79.685546875 26.6  74.685546875 26.6L -74.685546875 26.6Q -79.685546875 26.6  -79.685546875 21.6L -79.685546875 -21.6Q -79.685546875 -26.6  -74.685546875 -26.6"></path><g id="SvgjsG6046" data-name="inner-element-group"><g id="SvgjsG6095" data-name="topic-title-text-group"><text id="SvgjsText6094" font-family="'Roboto Condensed','Nunito Sans','Microsoft YaHei','Microsoft JhengHei',sans-serif" font-size="24" font-weight="normal" fill="#ffffff" font-style="normal" text-decoration="none" text-anchor="start" transform="translate(-60.685546875 -15.600000000000001)" style="user-select: none; cursor: default;"><tspan id="SvgjsTspan6213" font-family="'Roboto Condensed','Nunito Sans','Microsoft YaHei','Microsoft JhengHei',sans-serif" font-size="24" font-weight="normal" fill="#ffffff" font-style="normal" text-decoration="none" dy="24" x="0" style="white-space: pre;">Main Topic 2</tspan></text></g></g></g><g id="SvgjsG6168" data-name="collapse-extended" class="collapseextend" transform="translate(87.685546875 -6)" style="cursor: pointer; display: none;"><line id="SvgjsLine6169" stroke-width="0" x1="0" y1="6" x2="-7" y2="6" stroke="#a4a8a3"></line><g id="SvgjsG6170"><ellipse id="SvgjsEllipse6171" rx="6" ry="6" cx="6" cy="6" fill="#545753"></ellipse><ellipse id="SvgjsEllipse6172" rx="6" ry="6" cx="6" cy="6" fill="none" stroke="#a4a8a3"></ellipse><path id="SvgjsPath6173" d="M 2, 6 L 10, 6" stroke="#a4a8a3"></path></g><g id="SvgjsG6174"><ellipse id="SvgjsEllipse6175" rx="8" ry="8" cx="8" cy="8" fill="#545753"></ellipse><ellipse id="SvgjsEllipse6176" rx="8" ry="8" cx="8" cy="8" fill="none" stroke="#a4a8a3" stroke-width="1"></ellipse><text id="SvgjsText6177" font-family="Helvetica, Arial, sans-serif" fill="#a4a8a3" style="user-select: none; cursor: default;"></text></g><ellipse id="SvgjsEllipse6178" rx="8" ry="8" cx="8" cy="8" fill="none" style="pointer-events: visible;"></ellipse></g></g></g><g id="SvgjsG6061" data-name="branch" class="branch" transform="translate(380.15380859375 -38.69999999999998)"><g id="SvgjsG6054" data-name="topic"><g id="SvgjsG6055" data-name="topic-shape-group"><path id="SvgjsPath6058" data-name="topic-shape-fill" opacity="0" d="M -34.8203125 -9.1L 34.8203125 -9.1L 34.8203125 10.1L -34.8203125 10.1z"></path><path id="SvgjsPath6059" data-name="topic-shape" fill="none" stroke="#a4a8a3" stroke-width="2" d="M  -34.8203125 10.1L 34.8203125 10.1z"></path><g id="SvgjsG6056" data-name="inner-element-group"><g id="SvgjsG6065" data-name="topic-title-text-group"><text id="SvgjsText6064" font-family="'Roboto Condensed','Nunito Sans','Microsoft YaHei','Microsoft JhengHei',sans-serif" font-size="14" font-weight="300" fill="#ffffff" font-style="normal" text-decoration="none" text-anchor="start" transform="translate(-28.8203125 -9.1)" style="user-select: none; cursor: default;"><tspan id="SvgjsTspan6214" font-family="'Roboto Condensed','Nunito Sans','Microsoft YaHei','Microsoft JhengHei',sans-serif" font-size="14" font-weight="300" fill="#ffffff" font-style="normal" text-decoration="none" dy="14" x="0" style="white-space: pre;">Subtopic 1</tspan></text></g></g></g></g></g><g id="SvgjsG6074" data-name="branch" class="branch" transform="translate(380.15380859375 -10.499999999999984)"><g id="SvgjsG6067" data-name="topic"><g id="SvgjsG6068" data-name="topic-shape-group"><path id="SvgjsPath6071" data-name="topic-shape-fill" opacity="0" d="M -34.8203125 -9.1L 34.8203125 -9.1L 34.8203125 10.1L -34.8203125 10.1z"></path><path id="SvgjsPath6072" data-name="topic-shape" fill="none" stroke="#a4a8a3" stroke-width="2" d="M  -34.8203125 10.1L 34.8203125 10.1z"></path><g id="SvgjsG6069" data-name="inner-element-group"><g id="SvgjsG6078" data-name="topic-title-text-group"><text id="SvgjsText6077" font-family="'Roboto Condensed','Nunito Sans','Microsoft YaHei','Microsoft JhengHei',sans-serif" font-size="14" font-weight="300" fill="#ffffff" font-style="normal" text-decoration="none" text-anchor="start" transform="translate(-28.8203125 -9.1)" style="user-select: none; cursor: default;"><tspan id="SvgjsTspan6215" font-family="'Roboto Condensed','Nunito Sans','Microsoft YaHei','Microsoft JhengHei',sans-serif" font-size="14" font-weight="300" fill="#ffffff" font-style="normal" text-decoration="none" dy="14" x="0" style="white-space: pre;">Subtopic 2</tspan></text></g></g></g></g></g><g id="SvgjsG6087" data-name="branch" class="branch" transform="translate(491.69287109375 -23.599999999999984)"><g id="SvgjsG6080" data-name="topic"><g id="SvgjsG6081" data-name="topic-shape-group"><path id="SvgjsPath6084" data-name="topic-shape-fill" fill="#333333" stroke="none" opacity="0" d="M -30.71875 -17.4L 30.71875 -17.4Q 35.71875 -17.4  35.71875 -12.399999999999999L 35.71875 12.399999999999999Q 35.71875 17.4  30.71875 17.4L -30.71875 17.4Q -35.71875 17.4  -35.71875 12.399999999999999L -35.71875 -12.399999999999999Q -35.71875 -17.4  -30.71875 -17.4"></path><path id="SvgjsPath6085" data-name="topic-shape" fill="none" stroke="#9bd28f" stroke-width="2" d="M -30.71875 -17.4L 30.71875 -17.4Q 35.71875 -17.4  35.71875 -12.399999999999999L 35.71875 12.399999999999999Q 35.71875 17.4  30.71875 17.4L -30.71875 17.4Q -35.71875 17.4  -35.71875 12.399999999999999L -35.71875 -12.399999999999999Q -35.71875 -17.4  -30.71875 -17.4"></path><g id="SvgjsG6082" data-name="inner-element-group"><g id="SvgjsG6092" data-name="topic-title-text-group"><text id="SvgjsText6091" font-family="'Roboto Condensed','Nunito Sans','Microsoft YaHei','Microsoft JhengHei',sans-serif" font-size="16" font-weight="normal" fill="#9bd28f" font-style="normal" text-decoration="none" text-anchor="middle" transform="translate(0 -10.4)" style="user-select: none; cursor: default;"><tspan id="SvgjsTspan6216" font-family="'Roboto Condensed','Nunito Sans','Microsoft YaHei','Microsoft JhengHei',sans-serif" font-size="16" font-weight="normal" fill="#9bd28f" font-style="normal" text-decoration="none" dy="16" x="0" style="white-space: pre;">Summary</tspan></text></g></g></g></g></g><g id="SvgjsG6104" data-name="branch" class="branch" transform="translate(238.64794921875 110.40000000000002)"><g id="SvgjsG6097" data-name="topic"><g id="SvgjsG6098" data-name="topic-shape-group"><path id="SvgjsPath6101" data-name="topic-shape-fill" fill="#e8e8e8" stroke="none" opacity="0" d="M -74.685546875 -26.6L 74.685546875 -26.6Q 79.685546875 -26.6  79.685546875 -21.6L 79.685546875 21.6Q 79.685546875 26.6  74.685546875 26.6L -74.685546875 26.6Q -79.685546875 26.6  -79.685546875 21.6L -79.685546875 -21.6Q -79.685546875 -26.6  -74.685546875 -26.6"></path><path id="SvgjsPath6102" data-name="topic-shape" fill="none" stroke="#a4a8a3" stroke-width="2" d="M -74.685546875 -26.6L 74.685546875 -26.6Q 79.685546875 -26.6  79.685546875 -21.6L 79.685546875 21.6Q 79.685546875 26.6  74.685546875 26.6L -74.685546875 26.6Q -79.685546875 26.6  -79.685546875 21.6L -79.685546875 -21.6Q -79.685546875 -26.6  -74.685546875 -26.6"></path><g id="SvgjsG6099" data-name="inner-element-group"><g id="SvgjsG6152" data-name="topic-title-text-group"><text id="SvgjsText6151" font-family="'Roboto Condensed','Nunito Sans','Microsoft YaHei','Microsoft JhengHei',sans-serif" font-size="24" font-weight="normal" fill="#ffffff" font-style="normal" text-decoration="none" text-anchor="start" transform="translate(-60.685546875 -15.600000000000001)" style="user-select: none; cursor: default;"><tspan id="SvgjsTspan6217" font-family="'Roboto Condensed','Nunito Sans','Microsoft YaHei','Microsoft JhengHei',sans-serif" font-size="24" font-weight="normal" fill="#ffffff" font-style="normal" text-decoration="none" dy="24" x="0" style="white-space: pre;">Main Topic 3</tspan></text></g></g></g><g id="SvgjsG6191" data-name="collapse-extended" class="collapseextend" transform="translate(87.685546875 -6)" style="cursor: pointer; display: none;"><line id="SvgjsLine6192" stroke-width="0" x1="0" y1="6" x2="-7" y2="6" stroke="#a4a8a3"></line><g id="SvgjsG6193"><ellipse id="SvgjsEllipse6194" rx="6" ry="6" cx="6" cy="6" fill="#545753"></ellipse><ellipse id="SvgjsEllipse6195" rx="6" ry="6" cx="6" cy="6" fill="none" stroke="#a4a8a3"></ellipse><path id="SvgjsPath6196" d="M 2, 6 L 10, 6" stroke="#a4a8a3"></path></g><g id="SvgjsG6197"><ellipse id="SvgjsEllipse6198" rx="8" ry="8" cx="8" cy="8" fill="#545753"></ellipse><ellipse id="SvgjsEllipse6199" rx="8" ry="8" cx="8" cy="8" fill="none" stroke="#a4a8a3" stroke-width="1"></ellipse><text id="SvgjsText6200" font-family="Helvetica, Arial, sans-serif" fill="#a4a8a3" style="user-select: none; cursor: default;"></text></g><ellipse id="SvgjsEllipse6201" rx="8" ry="8" cx="8" cy="8" fill="none" style="pointer-events: visible;"></ellipse></g></g></g><g id="SvgjsG6114" data-name="branch" class="branch" transform="translate(390.15380859375 86.20000000000002)"><g id="SvgjsG6107" data-name="topic"><g id="SvgjsG6108" data-name="topic-shape-group"><path id="SvgjsPath6111" data-name="topic-shape-fill" opacity="0" d="M -34.8203125 -9.1L 34.8203125 -9.1L 34.8203125 10.1L -34.8203125 10.1z"></path><path id="SvgjsPath6112" data-name="topic-shape" fill="none" stroke="#a4a8a3" stroke-width="2" d="M  -34.8203125 10.1L 34.8203125 10.1z"></path><g id="SvgjsG6109" data-name="inner-element-group"><g id="SvgjsG6118" data-name="topic-title-text-group"><text id="SvgjsText6117" font-family="'Roboto Condensed','Nunito Sans','Microsoft YaHei','Microsoft JhengHei',sans-serif" font-size="14" font-weight="300" fill="#ffffff" font-style="normal" text-decoration="none" text-anchor="start" transform="translate(-28.8203125 -9.1)" style="user-select: none; cursor: default;"><tspan id="SvgjsTspan6218" font-family="'Roboto Condensed','Nunito Sans','Microsoft YaHei','Microsoft JhengHei',sans-serif" font-size="14" font-weight="300" fill="#ffffff" font-style="normal" text-decoration="none" dy="14" x="0" style="white-space: pre;">Subtopic 1</tspan></text></g></g></g></g></g><g id="SvgjsG6127" data-name="branch" class="branch" transform="translate(390.15380859375 114.40000000000002)"><g id="SvgjsG6120" data-name="topic"><g id="SvgjsG6121" data-name="topic-shape-group"><path id="SvgjsPath6124" data-name="topic-shape-fill" opacity="0" d="M -34.8203125 -9.1L 34.8203125 -9.1L 34.8203125 10.1L -34.8203125 10.1z"></path><path id="SvgjsPath6125" data-name="topic-shape" fill="none" stroke="#a4a8a3" stroke-width="2" d="M  -34.8203125 10.1L 34.8203125 10.1z"></path><g id="SvgjsG6122" data-name="inner-element-group"><g id="SvgjsG6131" data-name="topic-title-text-group"><text id="SvgjsText6130" font-family="'Roboto Condensed','Nunito Sans','Microsoft YaHei','Microsoft JhengHei',sans-serif" font-size="14" font-weight="300" fill="#ffffff" font-style="normal" text-decoration="none" text-anchor="start" transform="translate(-28.8203125 -9.1)" style="user-select: none; cursor: default;"><tspan id="SvgjsTspan6219" font-family="'Roboto Condensed','Nunito Sans','Microsoft YaHei','Microsoft JhengHei',sans-serif" font-size="14" font-weight="300" fill="#ffffff" font-style="normal" text-decoration="none" dy="14" x="0" style="white-space: pre;">Subtopic 2</tspan></text></g></g></g></g></g></g><g id="SvgjsG5978" data-name="relationship-container"></g><g id="SvgjsG5981" data-name="cloneG" opacity="0.5"></g></g></g><defs id="SvgjsDefs5966"><clipPath id="SvgjsClipPath6222"><path id="SvgjsPath6221" d="M -8.15380859375 13.499999999999943 L7.84619140625 13.499999999999943 L7.84619140625 13.499999999999943 L-8.15380859375 13.499999999999943 M -10000 -10000 L10000 -10000 L10000 10000 L-10000 10000" fill="black" clip-rule="evenodd"></path></clipPath></defs></svg>