<?xml version="1.0" standalone="no"?><!DOCTYPE svg PUBLIC "-//W3C//DTD SVG 1.1//EN" "http://www.w3.org/Graphics/SVG/1.1/DTD/svg11.dtd" [<!ENTITY nbsp "&#160;">]><svg id="SvgjsSvg6224" xmlns="http://www.w3.org/2000/svg" version="1.1" width="228.00000000000003" height="140" xmlns:xlink="http://www.w3.org/1999/xlink" style="display: block; background-color: rgb(10, 2, 14);" viewBox="0 0 722.3600323016827 443.5544057992788"><defs><style type="text/css"><![CDATA[

]]></style></defs><g id="SvgjsG6226" data-name="container" transform="scale(1) translate(152.09359036959134 245.7772028996394)"><g id="SvgjsG6228" data-name="sheet"><g id="SvgjsG6229" data-name="matrix-container"></g><g id="SvgjsG6230" data-name="boundary-container"><g id="SvgjsG6388" data-name="boundary-group" class="boundary"><path id="SvgjsPath6389" data-name="boundary-path" stroke="#fef683" fill="#0d143a" stroke-width="2" fill-opacity="0.2" stroke-dasharray="9, 3" d="M 339.125 49.20000000000003L 427.873046875 49.20000000000003L 427.873046875 134.40000000000003L 339.125 134.40000000000003z"></path><g id="SvgjsG6391" data-name="boundary-title-group" transform="translate(334.125 44.20000000000003)"><rect id="SvgjsRect6393" data-name="boundary-title-bg" stroke="#fef683" fill="#0d143a" stroke-width="2" width="72.515625" height="26"></rect><text id="SvgjsText6392" font-family="'Nunito Sans','Microsoft YaHei','Microsoft JhengHei',sans-serif" data-name="boundary-title" style="user-select: none; cursor: default;" fill="#b6d9fe" font-size="12" font-style="italic" font-weight="normal" text-decoration="none" x="10" y="1.40625"><tspan id="SvgjsTspan6482" dy="15.600000000000001" x="10" text-anchor="start">Boundary</tspan></text></g></g></g><g id="SvgjsG6231" data-name="connection-container"><path id="SvgjsPath6245" data-name="connection" stroke-linecap="round"></path><path id="SvgjsPath6255" data-name="connection" stroke-linecap="round" stroke="#b6d9fe" stroke-width="2" d="M 120.4111328125 0L 133.4111328125 0L 133.4111328125 -102.1Q 133.4111328125 -110.1 141.4111328125 -110.1L 171.4111328125 -110.1" marker-end="none" fill="none"></path><path id="SvgjsPath6265" data-name="connection" stroke-linecap="round" stroke="#b6d9fe" stroke-width="2" d="M 313.125 -110.1L 326.125 -110.1L 326.125 -115.39999999999999Q 326.125 -123.39999999999999 334.125 -123.39999999999999L 339.125 -123.39999999999999" marker-end="none" fill="none"></path><path id="SvgjsPath6275" data-name="connection" stroke-linecap="round" d="M 382 -148 L 374 -140 L 366 -148" stroke="#4877b1" stroke-width="2" fill="#0d143a" marker-end="none"></path><path id="SvgjsPath6291" data-name="connection" stroke-linecap="round" stroke="#b6d9fe" stroke-width="2" d="M 313.125 -110.1L 326.125 -110.1L 326.125 -104.8Q 326.125 -96.8 334.125 -96.8L 339.125 -96.8" marker-end="none" fill="none"></path><path id="SvgjsPath6307" data-name="connection" stroke-linecap="round" stroke="#b6d9fe" stroke-width="2" d="M 120.4111328125 0L 133.4111328125 0L 133.4111328125 -7.499999999999975Q 133.4111328125 -15.499999999999975 141.4111328125 -15.499999999999975L 171.4111328125 -15.499999999999975" marker-end="none" fill="none"></path><path id="SvgjsPath6317" data-name="connection" stroke-linecap="round" stroke="#b6d9fe" stroke-width="2" d="M 313.125 -15.499999999999975L 326.125 -15.499999999999975L 326.125 -20.79999999999998Q 326.125 -28.79999999999998 334.125 -28.79999999999998L 339.125 -28.79999999999998" marker-end="none" fill="none"></path><path id="SvgjsPath6330" data-name="connection" stroke-linecap="round" stroke="#b6d9fe" stroke-width="2" d="M 313.125 -15.499999999999975L 326.125 -15.499999999999975L 326.125 -10.199999999999974Q 326.125 -2.1999999999999744 334.125 -2.1999999999999744L 339.125 -2.1999999999999744" marker-end="none" fill="none"></path><path id="SvgjsPath6343" data-name="connection" stroke-linecap="round" d="M 385.7532730102539 -45.39999999999998L 395.7532730102539 -45.39999999999998L 395.7532730102539 -23.299999999999976L 405.7532730102539 -23.299999999999976M 395.7532730102539 -23.299999999999976L 395.7532730102539 -1.1999999999999744L 385.7532730102539 -1.1999999999999744" stroke="#fef683" stroke-width="2" fill="none" transform="translate(32.119773864746094 0)"></path><path id="SvgjsPath6344" data-name="connection-select-box" opacity="0" class="connection" d="M 385.7532730102539 -45.39999999999998L 395.7532730102539 -45.39999999999998L 395.7532730102539 -23.299999999999976L 405.7532730102539 -23.299999999999976M 395.7532730102539 -23.299999999999976L 395.7532730102539 -1.1999999999999744L 385.7532730102539 -1.1999999999999744" stroke="#fef683" stroke-width="7" fill="none" transform="translate(32.119773864746094 0)"></path><path id="SvgjsPath6360" data-name="connection" stroke-linecap="round" stroke="#b6d9fe" stroke-width="2" d="M 120.4111328125 0L 133.4111328125 0L 133.4111328125 102.10000000000002Q 133.4111328125 110.10000000000002 141.4111328125 110.10000000000002L 171.4111328125 110.10000000000002" marker-end="none" fill="none"></path><path id="SvgjsPath6370" data-name="connection" stroke-linecap="round" stroke="#b6d9fe" stroke-width="2" d="M 313.125 110.10000000000002L 326.125 110.10000000000002L 326.125 104.80000000000003Q 326.125 96.80000000000003 334.125 96.80000000000003L 349.125 96.80000000000003" marker-end="none" fill="none"></path><path id="SvgjsPath6383" data-name="connection" stroke-linecap="round" stroke="#b6d9fe" stroke-width="2" d="M 313.125 110.10000000000002L 326.125 110.10000000000002L 326.125 115.40000000000002Q 326.125 123.40000000000002 334.125 123.40000000000002L 349.125 123.40000000000002" marker-end="none" fill="none"></path></g><g id="SvgjsG6232" data-name="branch-container"><g id="SvgjsG6244" data-name="branch" class="branch"><g id="SvgjsG6237" data-name="topic"><g id="SvgjsG6238" data-name="topic-shape-group"><path id="SvgjsPath6241" data-name="topic-shape-fill" fill="#0d143a" stroke="none" opacity="1" d="M -112.9111328125 -37L 112.9111328125 -37Q 117.9111328125 -37  117.9111328125 -32L 117.9111328125 32Q 117.9111328125 37  112.9111328125 37L -112.9111328125 37Q -117.9111328125 37  -117.9111328125 32L -117.9111328125 -32Q -117.9111328125 -37  -112.9111328125 -37"></path><path id="SvgjsPath6242" data-name="topic-shape" fill="none" stroke-width="5" d="M -112.9111328125 -37L 112.9111328125 -37Q 117.9111328125 -37  117.9111328125 -32L 117.9111328125 32Q 117.9111328125 37  112.9111328125 37L -112.9111328125 37Q -117.9111328125 37  -117.9111328125 32L -117.9111328125 -32Q -117.9111328125 -37  -112.9111328125 -37" stroke="#4877b1"></path><g id="SvgjsG6239" data-name="inner-element-group"><g id="SvgjsG6410" data-name="topic-title-text-group"><text id="SvgjsText6409" font-family="'Roboto','Nunito Sans','Microsoft YaHei','Microsoft JhengHei',sans-serif" font-size="30" font-weight="500" fill="#b6d9fe" font-style="italic" text-decoration="none" text-anchor="middle" transform="translate(0 -19.5)" style="user-select: none; cursor: default;"><tspan id="SvgjsTspan6461" font-family="'Roboto','Nunito Sans','Microsoft YaHei','Microsoft JhengHei',sans-serif" font-size="30" font-weight="500" fill="#b6d9fe" font-style="italic" text-decoration="none" dy="30" x="0" style="white-space: pre;">Central Topic</tspan></text></g></g></g></g></g><g id="SvgjsG6254" data-name="branch" class="branch" transform="translate(241.76806640625 -110.1)"><g id="SvgjsG6247" data-name="topic"><g id="SvgjsG6248" data-name="topic-shape-group"><path id="SvgjsPath6251" data-name="topic-shape-fill" fill="#0d143a" stroke="none" opacity="1" d="M -64.85693359375 -23.200000000000003L 64.85693359375 -23.200000000000003Q 69.85693359375 -23.200000000000003  69.85693359375 -18.200000000000003L 69.85693359375 18.200000000000003Q 69.85693359375 23.200000000000003  64.85693359375 23.200000000000003L -64.85693359375 23.200000000000003Q -69.85693359375 23.200000000000003  -69.85693359375 18.200000000000003L -69.85693359375 -18.200000000000003Q -69.85693359375 -23.200000000000003  -64.85693359375 -23.200000000000003"></path><path id="SvgjsPath6252" data-name="topic-shape" fill="none" stroke="#4877b1" stroke-width="3" d="M -64.85693359375 -23.200000000000003L 64.85693359375 -23.200000000000003Q 69.85693359375 -23.200000000000003  69.85693359375 -18.200000000000003L 69.85693359375 18.200000000000003Q 69.85693359375 23.200000000000003  64.85693359375 23.200000000000003L -64.85693359375 23.200000000000003Q -69.85693359375 23.200000000000003  -69.85693359375 18.200000000000003L -69.85693359375 -18.200000000000003Q -69.85693359375 -23.200000000000003  -64.85693359375 -23.200000000000003"></path><g id="SvgjsG6249" data-name="inner-element-group"><g id="SvgjsG6297" data-name="topic-title-text-group"><text id="SvgjsText6296" font-family="'Roboto','Nunito Sans','Microsoft YaHei','Microsoft JhengHei',sans-serif" font-size="18" font-weight="500" fill="#b6d9fe" font-style="italic" text-decoration="none" text-anchor="middle" transform="translate(0 -11.700000000000001)" style="user-select: none; cursor: default;"><tspan id="SvgjsTspan6462" font-family="'Roboto','Nunito Sans','Microsoft YaHei','Microsoft JhengHei',sans-serif" font-size="18" font-weight="500" fill="#b6d9fe" font-style="italic" text-decoration="none" dy="18" x="0" style="white-space: pre;">Main Topic 1</tspan></text></g></g></g><g id="SvgjsG6412" data-name="collapse-extended" class="collapseextend" transform="translate(78.35693359375 -6)" style="cursor: pointer; display: none;"><line id="SvgjsLine6413" stroke-width="0" x1="0" y1="6" x2="-7" y2="6" stroke="#b6d9fe"></line><g id="SvgjsG6414"><ellipse id="SvgjsEllipse6415" rx="6" ry="6" cx="6" cy="6" fill="#0a020e"></ellipse><ellipse id="SvgjsEllipse6416" rx="6" ry="6" cx="6" cy="6" fill="none" stroke="#b6d9fe"></ellipse><path id="SvgjsPath6417" d="M 2, 6 L 10, 6" stroke="#b6d9fe"></path></g><g id="SvgjsG6418"><ellipse id="SvgjsEllipse6419" rx="8" ry="8" cx="8" cy="8" fill="#0a020e"></ellipse><ellipse id="SvgjsEllipse6420" rx="8" ry="8" cx="8" cy="8" fill="none" stroke="#b6d9fe" stroke-width="1"></ellipse><text id="SvgjsText6421" font-family="Helvetica, Arial, sans-serif" fill="#b6d9fe" style="user-select: none; cursor: default;"></text></g><ellipse id="SvgjsEllipse6422" rx="8" ry="8" cx="8" cy="8" fill="none" style="pointer-events: visible;"></ellipse></g></g></g><g id="SvgjsG6264" data-name="branch" class="branch" transform="translate(373.4990234375 -132.2)"><g id="SvgjsG6257" data-name="topic"><g id="SvgjsG6258" data-name="topic-shape-group"><path id="SvgjsPath6261" data-name="topic-shape-fill" opacity="0" d="M -34.3740234375 -7.800000000000001L 34.3740234375 -7.800000000000001L 34.3740234375 8.8L -34.3740234375 8.8z"></path><path id="SvgjsPath6262" data-name="topic-shape" fill="none" stroke="#b6d9fe" stroke-width="2" d="M  -34.3740234375 8.8L 34.3740234375 8.8z"></path><g id="SvgjsG6259" data-name="inner-element-group"><g id="SvgjsG6281" data-name="topic-title-text-group"><text id="SvgjsText6280" font-family="'Roboto','Nunito Sans','Microsoft YaHei','Microsoft JhengHei',sans-serif" font-size="12" font-weight="normal" fill="#b6d9fe" font-style="normal" text-decoration="none" text-anchor="start" transform="translate(-28.3740234375 -7.800000000000001)" style="user-select: none; cursor: default;"><tspan id="SvgjsTspan6463" font-family="'Roboto','Nunito Sans','Microsoft YaHei','Microsoft JhengHei',sans-serif" font-size="12" font-weight="normal" fill="#b6d9fe" font-style="normal" text-decoration="none" dy="12" x="0" style="white-space: pre;">Subtopic 1</tspan></text></g></g></g></g></g><g id="SvgjsG6274" data-name="branch" class="branch" transform="translate(377.15234375 -164.4)"><g id="SvgjsG6267" data-name="topic"><g id="SvgjsG6268" data-name="topic-shape-group"><path id="SvgjsPath6271" data-name="topic-shape-fill" fill="#0d143a" stroke="none" opacity="1" d="M -27.02734375 -17.4L 27.02734375 -17.4Q 32.02734375 -17.4  32.02734375 -12.399999999999999L 32.02734375 12.399999999999999Q 32.02734375 17.4  27.02734375 17.4L -27.02734375 17.4Q -32.02734375 17.4  -32.02734375 12.399999999999999L -32.02734375 -12.399999999999999Q -32.02734375 -17.4  -27.02734375 -17.4"></path><path id="SvgjsPath6272" data-name="topic-shape" fill="none" stroke="#4877b1" stroke-width="2" d="M -27.02734375 -17.4L 27.02734375 -17.4Q 32.02734375 -17.4  32.02734375 -12.399999999999999L 32.02734375 12.399999999999999Q 32.02734375 17.4  27.02734375 17.4L -27.02734375 17.4Q -32.02734375 17.4  -32.02734375 12.399999999999999L -32.02734375 -12.399999999999999Q -32.02734375 -17.4  -27.02734375 -17.4" clip-path="url(&quot;#SvgjsClipPath6481&quot;)"></path><g id="SvgjsG6269" data-name="inner-element-group"><g id="SvgjsG6278" data-name="topic-title-text-group"><text id="SvgjsText6277" font-family="'Roboto','Nunito Sans','Microsoft YaHei','Microsoft JhengHei',sans-serif" font-size="16" font-weight="400" fill="#b6d9fe" font-style="normal" text-decoration="none" text-anchor="middle" transform="translate(0 -10.4)" style="user-select: none; cursor: default;"><tspan id="SvgjsTspan6466" font-family="'Roboto','Nunito Sans','Microsoft YaHei','Microsoft JhengHei',sans-serif" font-size="16" font-weight="400" fill="#b6d9fe" font-style="normal" text-decoration="none" dy="16" x="0" style="white-space: pre;">Callout</tspan></text></g></g></g></g></g><g id="SvgjsG6290" data-name="branch" class="branch" transform="translate(373.4990234375 -105.6)"><g id="SvgjsG6283" data-name="topic"><g id="SvgjsG6284" data-name="topic-shape-group"><path id="SvgjsPath6287" data-name="topic-shape-fill" opacity="0" d="M -34.3740234375 -7.800000000000001L 34.3740234375 -7.800000000000001L 34.3740234375 8.8L -34.3740234375 8.8z"></path><path id="SvgjsPath6288" data-name="topic-shape" fill="none" stroke="#b6d9fe" stroke-width="2" d="M  -34.3740234375 8.8L 34.3740234375 8.8z"></path><g id="SvgjsG6285" data-name="inner-element-group"><g id="SvgjsG6294" data-name="topic-title-text-group"><text id="SvgjsText6293" font-family="'Roboto','Nunito Sans','Microsoft YaHei','Microsoft JhengHei',sans-serif" font-size="12" font-weight="normal" fill="#b6d9fe" font-style="normal" text-decoration="none" text-anchor="start" transform="translate(-28.3740234375 -7.800000000000001)" style="user-select: none; cursor: default;"><tspan id="SvgjsTspan6467" font-family="'Roboto','Nunito Sans','Microsoft YaHei','Microsoft JhengHei',sans-serif" font-size="12" font-weight="normal" fill="#b6d9fe" font-style="normal" text-decoration="none" dy="12" x="0" style="white-space: pre;">Subtopic 2</tspan></text></g></g></g></g></g><g id="SvgjsG6306" data-name="branch" class="branch" transform="translate(241.76806640625 -15.499999999999975)"><g id="SvgjsG6299" data-name="topic"><g id="SvgjsG6300" data-name="topic-shape-group"><path id="SvgjsPath6303" data-name="topic-shape-fill" fill="#0d143a" stroke="none" opacity="1" d="M -64.85693359375 -23.200000000000003L 64.85693359375 -23.200000000000003Q 69.85693359375 -23.200000000000003  69.85693359375 -18.200000000000003L 69.85693359375 18.200000000000003Q 69.85693359375 23.200000000000003  64.85693359375 23.200000000000003L -64.85693359375 23.200000000000003Q -69.85693359375 23.200000000000003  -69.85693359375 18.200000000000003L -69.85693359375 -18.200000000000003Q -69.85693359375 -23.200000000000003  -64.85693359375 -23.200000000000003"></path><path id="SvgjsPath6304" data-name="topic-shape" fill="none" stroke="#4877b1" stroke-width="3" d="M -64.85693359375 -23.200000000000003L 64.85693359375 -23.200000000000003Q 69.85693359375 -23.200000000000003  69.85693359375 -18.200000000000003L 69.85693359375 18.200000000000003Q 69.85693359375 23.200000000000003  64.85693359375 23.200000000000003L -64.85693359375 23.200000000000003Q -69.85693359375 23.200000000000003  -69.85693359375 18.200000000000003L -69.85693359375 -18.200000000000003Q -69.85693359375 -23.200000000000003  -64.85693359375 -23.200000000000003"></path><g id="SvgjsG6301" data-name="inner-element-group"><g id="SvgjsG6350" data-name="topic-title-text-group"><text id="SvgjsText6349" font-family="'Roboto','Nunito Sans','Microsoft YaHei','Microsoft JhengHei',sans-serif" font-size="18" font-weight="500" fill="#b6d9fe" font-style="italic" text-decoration="none" text-anchor="middle" transform="translate(0 -11.700000000000001)" style="user-select: none; cursor: default;"><tspan id="SvgjsTspan6468" font-family="'Roboto','Nunito Sans','Microsoft YaHei','Microsoft JhengHei',sans-serif" font-size="18" font-weight="500" fill="#b6d9fe" font-style="italic" text-decoration="none" dy="18" x="0" style="white-space: pre;">Main Topic 2</tspan></text></g></g></g><g id="SvgjsG6423" data-name="collapse-extended" class="collapseextend" transform="translate(78.35693359375 -6)" style="cursor: pointer; display: none;"><line id="SvgjsLine6424" stroke-width="0" x1="0" y1="6" x2="-7" y2="6" stroke="#b6d9fe"></line><g id="SvgjsG6425"><ellipse id="SvgjsEllipse6426" rx="6" ry="6" cx="6" cy="6" fill="#0a020e"></ellipse><ellipse id="SvgjsEllipse6427" rx="6" ry="6" cx="6" cy="6" fill="none" stroke="#b6d9fe"></ellipse><path id="SvgjsPath6428" d="M 2, 6 L 10, 6" stroke="#b6d9fe"></path></g><g id="SvgjsG6429"><ellipse id="SvgjsEllipse6430" rx="8" ry="8" cx="8" cy="8" fill="#0a020e"></ellipse><ellipse id="SvgjsEllipse6431" rx="8" ry="8" cx="8" cy="8" fill="none" stroke="#b6d9fe" stroke-width="1"></ellipse><text id="SvgjsText6432" font-family="Helvetica, Arial, sans-serif" fill="#b6d9fe" style="user-select: none; cursor: default;"></text></g><ellipse id="SvgjsEllipse6433" rx="8" ry="8" cx="8" cy="8" fill="none" style="pointer-events: visible;"></ellipse></g></g></g><g id="SvgjsG6316" data-name="branch" class="branch" transform="translate(373.4990234375 -37.59999999999998)"><g id="SvgjsG6309" data-name="topic"><g id="SvgjsG6310" data-name="topic-shape-group"><path id="SvgjsPath6313" data-name="topic-shape-fill" opacity="0" d="M -34.3740234375 -7.800000000000001L 34.3740234375 -7.800000000000001L 34.3740234375 8.8L -34.3740234375 8.8z"></path><path id="SvgjsPath6314" data-name="topic-shape" fill="none" stroke="#b6d9fe" stroke-width="2" d="M  -34.3740234375 8.8L 34.3740234375 8.8z"></path><g id="SvgjsG6311" data-name="inner-element-group"><g id="SvgjsG6320" data-name="topic-title-text-group"><text id="SvgjsText6319" font-family="'Roboto','Nunito Sans','Microsoft YaHei','Microsoft JhengHei',sans-serif" font-size="12" font-weight="normal" fill="#b6d9fe" font-style="normal" text-decoration="none" text-anchor="start" transform="translate(-28.3740234375 -7.800000000000001)" style="user-select: none; cursor: default;"><tspan id="SvgjsTspan6469" font-family="'Roboto','Nunito Sans','Microsoft YaHei','Microsoft JhengHei',sans-serif" font-size="12" font-weight="normal" fill="#b6d9fe" font-style="normal" text-decoration="none" dy="12" x="0" style="white-space: pre;">Subtopic 1</tspan></text></g></g></g></g></g><g id="SvgjsG6329" data-name="branch" class="branch" transform="translate(373.4990234375 -10.999999999999975)"><g id="SvgjsG6322" data-name="topic"><g id="SvgjsG6323" data-name="topic-shape-group"><path id="SvgjsPath6326" data-name="topic-shape-fill" opacity="0" d="M -34.3740234375 -7.800000000000001L 34.3740234375 -7.800000000000001L 34.3740234375 8.8L -34.3740234375 8.8z"></path><path id="SvgjsPath6327" data-name="topic-shape" fill="none" stroke="#b6d9fe" stroke-width="2" d="M  -34.3740234375 8.8L 34.3740234375 8.8z"></path><g id="SvgjsG6324" data-name="inner-element-group"><g id="SvgjsG6333" data-name="topic-title-text-group"><text id="SvgjsText6332" font-family="'Roboto','Nunito Sans','Microsoft YaHei','Microsoft JhengHei',sans-serif" font-size="12" font-weight="normal" fill="#b6d9fe" font-style="normal" text-decoration="none" text-anchor="start" transform="translate(-28.3740234375 -7.800000000000001)" style="user-select: none; cursor: default;"><tspan id="SvgjsTspan6470" font-family="'Roboto','Nunito Sans','Microsoft YaHei','Microsoft JhengHei',sans-serif" font-size="12" font-weight="normal" fill="#b6d9fe" font-style="normal" text-decoration="none" dy="12" x="0" style="white-space: pre;">Subtopic 2</tspan></text></g></g></g></g></g><g id="SvgjsG6342" data-name="branch" class="branch" transform="translate(493.228515625 -23.299999999999976)"><g id="SvgjsG6335" data-name="topic"><g id="SvgjsG6336" data-name="topic-shape-group"><path id="SvgjsPath6339" data-name="topic-shape-fill" fill="#333333" stroke="none" opacity="0" d="M -39.35546875 -18.700000000000003L 39.35546875 -18.700000000000003Q 44.35546875 -18.700000000000003  44.35546875 -13.700000000000003L 44.35546875 13.700000000000003Q 44.35546875 18.700000000000003  39.35546875 18.700000000000003L -39.35546875 18.700000000000003Q -44.35546875 18.700000000000003  -44.35546875 13.700000000000003L -44.35546875 -13.700000000000003Q -44.35546875 -18.700000000000003  -39.35546875 -18.700000000000003"></path><path id="SvgjsPath6340" data-name="topic-shape" fill="none" stroke="#fef683" stroke-width="2" d="M -39.35546875 -18.700000000000003L 39.35546875 -18.700000000000003Q 44.35546875 -18.700000000000003  44.35546875 -13.700000000000003L 44.35546875 13.700000000000003Q 44.35546875 18.700000000000003  39.35546875 18.700000000000003L -39.35546875 18.700000000000003Q -44.35546875 18.700000000000003  -44.35546875 13.700000000000003L -44.35546875 -13.700000000000003Q -44.35546875 -18.700000000000003  -39.35546875 -18.700000000000003"></path><g id="SvgjsG6337" data-name="inner-element-group"><g id="SvgjsG6347" data-name="topic-title-text-group"><text id="SvgjsText6346" font-family="'Roboto','Nunito Sans','Microsoft YaHei','Microsoft JhengHei',sans-serif" font-size="18" font-weight="400" fill="#fef683" font-style="normal" text-decoration="none" text-anchor="middle" transform="translate(0 -11.700000000000001)" style="user-select: none; cursor: default;"><tspan id="SvgjsTspan6471" font-family="'Roboto','Nunito Sans','Microsoft YaHei','Microsoft JhengHei',sans-serif" font-size="18" font-weight="400" fill="#fef683" font-style="normal" text-decoration="none" dy="18" x="0" style="white-space: pre;">Summary</tspan></text></g></g></g></g></g><g id="SvgjsG6359" data-name="branch" class="branch" transform="translate(241.76806640625 110.10000000000002)"><g id="SvgjsG6352" data-name="topic"><g id="SvgjsG6353" data-name="topic-shape-group"><path id="SvgjsPath6356" data-name="topic-shape-fill" fill="#0d143a" stroke="none" opacity="1" d="M -64.85693359375 -23.200000000000003L 64.85693359375 -23.200000000000003Q 69.85693359375 -23.200000000000003  69.85693359375 -18.200000000000003L 69.85693359375 18.200000000000003Q 69.85693359375 23.200000000000003  64.85693359375 23.200000000000003L -64.85693359375 23.200000000000003Q -69.85693359375 23.200000000000003  -69.85693359375 18.200000000000003L -69.85693359375 -18.200000000000003Q -69.85693359375 -23.200000000000003  -64.85693359375 -23.200000000000003"></path><path id="SvgjsPath6357" data-name="topic-shape" fill="none" stroke="#4877b1" stroke-width="3" d="M -64.85693359375 -23.200000000000003L 64.85693359375 -23.200000000000003Q 69.85693359375 -23.200000000000003  69.85693359375 -18.200000000000003L 69.85693359375 18.200000000000003Q 69.85693359375 23.200000000000003  64.85693359375 23.200000000000003L -64.85693359375 23.200000000000003Q -69.85693359375 23.200000000000003  -69.85693359375 18.200000000000003L -69.85693359375 -18.200000000000003Q -69.85693359375 -23.200000000000003  -64.85693359375 -23.200000000000003"></path><g id="SvgjsG6354" data-name="inner-element-group"><g id="SvgjsG6407" data-name="topic-title-text-group"><text id="SvgjsText6406" font-family="'Roboto','Nunito Sans','Microsoft YaHei','Microsoft JhengHei',sans-serif" font-size="18" font-weight="500" fill="#b6d9fe" font-style="italic" text-decoration="none" text-anchor="middle" transform="translate(0 -11.700000000000001)" style="user-select: none; cursor: default;"><tspan id="SvgjsTspan6472" font-family="'Roboto','Nunito Sans','Microsoft YaHei','Microsoft JhengHei',sans-serif" font-size="18" font-weight="500" fill="#b6d9fe" font-style="italic" text-decoration="none" dy="18" x="0" style="white-space: pre;">Main Topic 3</tspan></text></g></g></g><g id="SvgjsG6446" data-name="collapse-extended" class="collapseextend" transform="translate(78.35693359375 -6)" style="cursor: pointer; display: none;"><line id="SvgjsLine6447" stroke-width="0" x1="0" y1="6" x2="-7" y2="6" stroke="#b6d9fe"></line><g id="SvgjsG6448"><ellipse id="SvgjsEllipse6449" rx="6" ry="6" cx="6" cy="6" fill="#0a020e"></ellipse><ellipse id="SvgjsEllipse6450" rx="6" ry="6" cx="6" cy="6" fill="none" stroke="#b6d9fe"></ellipse><path id="SvgjsPath6451" d="M 2, 6 L 10, 6" stroke="#b6d9fe"></path></g><g id="SvgjsG6452"><ellipse id="SvgjsEllipse6453" rx="8" ry="8" cx="8" cy="8" fill="#0a020e"></ellipse><ellipse id="SvgjsEllipse6454" rx="8" ry="8" cx="8" cy="8" fill="none" stroke="#b6d9fe" stroke-width="1"></ellipse><text id="SvgjsText6455" font-family="Helvetica, Arial, sans-serif" fill="#b6d9fe" style="user-select: none; cursor: default;"></text></g><ellipse id="SvgjsEllipse6456" rx="8" ry="8" cx="8" cy="8" fill="none" style="pointer-events: visible;"></ellipse></g></g></g><g id="SvgjsG6369" data-name="branch" class="branch" transform="translate(383.4990234375 88.00000000000003)"><g id="SvgjsG6362" data-name="topic"><g id="SvgjsG6363" data-name="topic-shape-group"><path id="SvgjsPath6366" data-name="topic-shape-fill" opacity="0" d="M -34.3740234375 -7.800000000000001L 34.3740234375 -7.800000000000001L 34.3740234375 8.8L -34.3740234375 8.8z"></path><path id="SvgjsPath6367" data-name="topic-shape" fill="none" stroke="#b6d9fe" stroke-width="2" d="M  -34.3740234375 8.8L 34.3740234375 8.8z"></path><g id="SvgjsG6364" data-name="inner-element-group"><g id="SvgjsG6373" data-name="topic-title-text-group"><text id="SvgjsText6372" font-family="'Roboto','Nunito Sans','Microsoft YaHei','Microsoft JhengHei',sans-serif" font-size="12" font-weight="normal" fill="#b6d9fe" font-style="normal" text-decoration="none" text-anchor="start" transform="translate(-28.3740234375 -7.800000000000001)" style="user-select: none; cursor: default;"><tspan id="SvgjsTspan6473" font-family="'Roboto','Nunito Sans','Microsoft YaHei','Microsoft JhengHei',sans-serif" font-size="12" font-weight="normal" fill="#b6d9fe" font-style="normal" text-decoration="none" dy="12" x="0" style="white-space: pre;">Subtopic 1</tspan></text></g></g></g></g></g><g id="SvgjsG6382" data-name="branch" class="branch" transform="translate(383.4990234375 114.60000000000002)"><g id="SvgjsG6375" data-name="topic"><g id="SvgjsG6376" data-name="topic-shape-group"><path id="SvgjsPath6379" data-name="topic-shape-fill" opacity="0" d="M -34.3740234375 -7.800000000000001L 34.3740234375 -7.800000000000001L 34.3740234375 8.8L -34.3740234375 8.8z"></path><path id="SvgjsPath6380" data-name="topic-shape" fill="none" stroke="#b6d9fe" stroke-width="2" d="M  -34.3740234375 8.8L 34.3740234375 8.8z"></path><g id="SvgjsG6377" data-name="inner-element-group"><g id="SvgjsG6386" data-name="topic-title-text-group"><text id="SvgjsText6385" font-family="'Roboto','Nunito Sans','Microsoft YaHei','Microsoft JhengHei',sans-serif" font-size="12" font-weight="normal" fill="#b6d9fe" font-style="normal" text-decoration="none" text-anchor="start" transform="translate(-28.3740234375 -7.800000000000001)" style="user-select: none; cursor: default;"><tspan id="SvgjsTspan6474" font-family="'Roboto','Nunito Sans','Microsoft YaHei','Microsoft JhengHei',sans-serif" font-size="12" font-weight="normal" fill="#b6d9fe" font-style="normal" text-decoration="none" dy="12" x="0" style="white-space: pre;">Subtopic 2</tspan></text></g></g></g></g></g></g><g id="SvgjsG6233" data-name="relationship-container"></g><g id="SvgjsG6236" data-name="cloneG" opacity="0.5"></g></g></g><defs id="SvgjsDefs6225"><clipPath id="SvgjsClipPath6481"><path id="SvgjsPath6480" d="M -11.15234375 16.400000000000006 L4.84765625 16.400000000000006 L4.84765625 18.400000000000006 L-11.15234375 18.400000000000006 M -10000 -10000 L10000 -10000 L10000 10000 L-10000 10000" fill="black" clip-rule="evenodd"></path></clipPath></defs></svg>