<svg xmlns="http://www.w3.org/2000/svg" xmlns:xlink="http://www.w3.org/1999/xlink" width="87" height="65" viewBox="0 0 87 65">
    <defs>
        <path id="a" d="M22 63.5h30V65H22z"/>
    </defs>
    <g fill="none" fill-rule="evenodd">
        <path stroke="#D1D1D1" stroke-width="1.5" d="M27.75 51.75v12.5h18.5v-12.5h-18.5z"/>
        <g>
            <use fill="#FFF" xlink:href="#a"/>
            <path stroke="#D1D1D1" d="M22.5 64v.5h29V64h-29z"/>
        </g>
        <path stroke="#D1D1D1" stroke-width="1.5" d="M73.25 50V2c0-.69-.56-1.25-1.25-1.25H2C1.31.75.75 1.31.75 2v48c0 .69.56 1.25 1.25 1.25h70c.69 0 1.25-.56 1.25-1.25z"/>
        <path stroke="#D1D1D1" stroke-width="1.5" d="M.75 40.639v9.25c0 .69.56 1.25 1.25 1.25h70c.69 0 1.25-.56 1.25-1.25v-9.25H.75z"/>
        <g fill="#D1D1D1" fill-rule="nonzero">
            <path d="M86.144 30.89c-.891-.372-1.273-.866-1.236-1.603.038-.86-.44-1.491-.667-1.74.137-.535.538-2.386 0-3.994-.578-1.72-2.343-4.348-4.165-6.932-.745-1.06-.78-2.214-.821-3.55-.04-1.273-.084-2.717-.78-4.321C77.718 7.002 76.2 6 74.308 6c-1.125 0-2.28.359-3.169.984-1.82 1.282-1.58 4.076-1.42 5.925.022.253.042.492.054.696.106 1.811.01 2.766-.116 3.056-.082.19-.483.729-.908 1.3-.44.59-.938 1.26-1.347 1.884-.487.751-.88 1.899-1.261 3.009-.279.812-.542 1.579-.798 2.037a2.825 2.825 0 0 0-.264 2.084c-.183.13-.449.387-.673.87-.27.59-.82.906-1.962 1.13-.525.11-.887.335-1.076.67-.276.487-.126 1.099.011 1.517.202.614.076 1.004-.153 1.71-.053.163-.113.348-.173.551-.096.321-.061.614.102.868.431.673 1.69.91 2.986 1.067.774.093 1.621.41 2.44.715.803.299 1.633.608 2.387.702.115.015.228.023.338.023a1.984 1.984 0 0 0 1.817-1.088c.409-.086 1.82-.358 3.274-.395 1.452-.042 2.857.25 3.255.341.125.245.455.803.98 1.09.29.161.692.254 1.104.254.44 0 1.277-.106 1.94-.817.66-.715 2.31-1.627 3.516-2.292.269-.149.52-.288.741-.414.677-.382 1.047-.93 1.014-1.5-.028-.475-.336-.891-.803-1.087zm-14.99-.137c-.084-.606-.848-1.207-1.732-1.902-.724-.57-1.543-1.214-1.77-1.76-.466-1.126-.098-3.107.543-4.127.317-.51.576-1.285.827-2.034.27-.808.55-1.644.862-2.01.496-.572.953-1.684 1.034-2.56.464.452 1.183 1.025 1.848 1.025.102 0 .202-.014.297-.041.454-.134 1.123-.528 1.77-.91.557-.328 1.245-.733 1.503-.77.444.65 3.022 6.47 3.285 8.339a9.012 9.012 0 0 1-.122 3.18 2.248 2.248 0 0 0-.307-.023c-.718 0-.908.4-.958.639-.127.62-.14 2.604-.142 3.05-.26.336-1.572 1.92-3.457 2.206-.768.113-1.485.171-2.131.171-.552 0-.905-.043-1.051-.066l-.947-1.106c.373-.188.747-.585.648-1.301zm1.202-18.233a1.5 1.5 0 0 0-.087.042 1.836 1.836 0 0 0-.02-.199c-.103-.607-.498-1.048-.938-1.048a.65.65 0 0 0-.102.008c-.262.045-.467.246-.58.53.1-.624.446-1.087.857-1.087.484 0 .892.665.892 1.451 0 .1-.007.198-.022.303zm3.754.468c.044-.143.068-.299.068-.46 0-.713-.443-1.272-1.009-1.272-.553 0-1.003.57-1.003 1.272 0 .047.002.095.007.143l-.086-.033a1.98 1.98 0 0 1-.096-.612c0-.852.534-1.546 1.19-1.546.657 0 1.191.694 1.191 1.546 0 .355-.096.693-.262.962zm-.484 1.66c-.01.043-.03.062-.252.18-.112.06-.252.134-.427.242l-.117.073c-.47.29-1.57.971-1.87 1.011-.202.028-.328-.052-.61-.248a8.799 8.799 0 0 0-.204-.138c-.508-.34-.836-.716-.873-.863.166-.13.577-.458.788-.652.427-.405.857-.677 1.07-.677.011 0 .021 0 .032.002.25.045.867.297 1.317.48.208.085.388.158.515.204.398.14.606.319.631.385zm3.581 18.942c.225-1.035.484-2.442.442-3.272-.01-.189-.026-.394-.042-.593-.03-.37-.073-.922-.028-1.085a.192.192 0 0 1 .03-.012c.002.475.103 1.421.845 1.751.22.099.473.149.75.149.743 0 1.568-.372 1.906-.717a3.53 3.53 0 0 0 .483-.648.797.797 0 0 1 .033.306c-.044.7.29 1.628.923 1.97l.093.05c.226.12.826.442.835.595 0 0-.005.017-.038.05-.15.14-.68.415-1.191.682-.908.472-1.936 1.008-2.398 1.504-.651.699-1.387 1.168-1.831 1.168a.472.472 0 0 1-.146-.021c-.482-.154-.88-.864-.666-1.877zM62.76 30.95c-.049-.235-.088-.42-.046-.6.03-.133.674-.276.95-.337.386-.085.786-.174 1.048-.336.354-.219.545-.622.714-.978.123-.257.249-.523.4-.61a.083.083 0 0 1 .045-.011c.282 0 .873.604 1.213 1.145.087.136.247.409.432.725.553.945 1.311 2.24 1.707 2.673.357.39.934 1.14.792 1.783-.104.5-.657.905-.788.995a.792.792 0 0 1-.175.016c-.758 0-2.257-.643-3.063-.989l-.12-.05c-.45-.193-1.184-.314-1.894-.432-.566-.093-1.34-.22-1.468-.336-.104-.12.017-.506.123-.848.077-.245.156-.499.2-.764.06-.424-.012-.769-.07-1.046z"/>
        </g>
    </g>
</svg>
