<?xml version="1.0" encoding="UTF-8"?>
<svg width="60px" height="33px" viewBox="0 0 60 33" version="1.1" xmlns="http://www.w3.org/2000/svg" xmlns:xlink="http://www.w3.org/1999/xlink">
    <!-- Generator: Sketch 48.1 (47250) - http://www.bohemiancoding.com/sketch -->
    <title>Logic_Chart_Left</title>
    <desc>Created with Sketch.</desc>
    <defs></defs>
    <g id="edit-page" stroke="none" stroke-width="1" fill="none" fill-rule="evenodd">
        <g id="Logic_Chart_Left" transform="translate(30.000000, 16.000000) scale(-1, 1) translate(-30.000000, -16.000000) translate(-17.000000, -13.000000)">
            <rect id="Rectangle-4-Copy-4" x="0" y="0" width="94" height="58"></rect>
            <g id="Group-2" transform="translate(17.000000, 13.000000)">
                <path d="M43.6354454,28.8444444 L35.5266518,28.8444444 C34.6869587,28.8444444 34.006253,28.2016613 34.006253,27.4087481 L34.006253,5.87330317 C34.006253,5.08038998 34.6869587,4.43760684 35.5266518,4.43760684 L43.6354454,4.43760684" id="Rectangle-26" stroke="#072850" stroke-width="0.5"></path>
                <rect id="Rectangle-3-Copy" fill="#E4E9EC" x="41.6994709" y="24.4068376" width="18" height="8" rx="0.5"></rect>
                <rect id="Rectangle-3-Copy-4" fill="#E4E9EC" x="41.8109668" y="12.2034188" width="18" height="8" rx="0.5"></rect>
                <rect id="Rectangle-3-Copy-5" fill="#E4E9EC" x="42" y="0" width="18" height="8" rx="0.5"></rect>
                <rect id="Rectangle-6" fill="#FF9971" x="0" y="10" width="30" height="14" rx="1"></rect>
                <polyline id="Rectangle-28" stroke="#072850" stroke-width="0.5" transform="translate(36.000000, 17.250000) rotate(90.000000) translate(-36.000000, -17.250000) " points="35.75 23.25 35.75 11.25 35.75 11.25"></polyline>
            </g>
        </g>
    </g>
</svg>