<?xml version="1.0" encoding="UTF-8" standalone="no"?>
<svg width="16px" height="16px" viewBox="0 0 16 16" version="1.1" xmlns="http://www.w3.org/2000/svg" xmlns:xlink="http://www.w3.org/1999/xlink">
    <!-- Generator: Sketch 44.1 (41455) - http://www.bohemiancoding.com/sketch -->
    <title>lowercase</title>
    <desc>Created with Sketch.</desc>
    <defs>
        <rect id="path-1" x="0" y="0" width="16" height="16"></rect>
    </defs>
    <g id="Page-1" stroke="none" stroke-width="1" fill="none" fill-rule="evenodd">
        <g id="图标-copy" transform="translate(-547.000000, -1218.000000)">
            <g id="Group-28" transform="translate(547.000000, 1218.000000)">
                <g id="Rectangle-80" opacity="0">
                    <use fill="#D8D8D8" fill-rule="evenodd" xlink:href="#path-1"></use>
                    <rect stroke="#979797" stroke-width="1" x="0.5" y="0.5" width="15" height="15"></rect>
                </g>
                <path d="M5.55126953,11.1782227 C6.36230469,11.1782227 6.99609375,10.6196289 6.99609375,9.88378906 L6.99609375,9.43798828 L5.60498047,9.52392578 C4.91210938,9.57226562 4.52001953,9.87841797 4.52001953,10.3618164 C4.52001953,10.855957 4.92822266,11.1782227 5.55126953,11.1782227 Z M5.22900391,12.0966797 C4.12255859,12.0966797 3.34912109,11.4091797 3.34912109,10.394043 C3.34912109,9.40576172 4.10644531,8.79882812 5.44921875,8.72363281 L6.99609375,8.63232422 L6.99609375,8.19726562 C6.99609375,7.56884766 6.57177734,7.19287109 5.86279297,7.19287109 C5.19140625,7.19287109 4.77246094,7.51513672 4.67041016,8.02001953 L3.57470703,8.02001953 C3.63916016,6.99951172 4.50927734,6.24755859 5.90576172,6.24755859 C7.27539062,6.24755859 8.15087891,6.97265625 8.15087891,8.10595703 L8.15087891,12 L7.0390625,12 L7.0390625,11.0708008 L7.01220703,11.0708008 C6.68457031,11.6992188 5.97021484,12.0966797 5.22900391,12.0966797 Z M10.4790039,11.1782227 C11.2900391,11.1782227 11.9238281,10.6196289 11.9238281,9.88378906 L11.9238281,9.43798828 L10.5327148,9.52392578 C9.83984375,9.57226562 9.44775391,9.87841797 9.44775391,10.3618164 C9.44775391,10.855957 9.85595703,11.1782227 10.4790039,11.1782227 Z M10.1567383,12.0966797 C9.05029297,12.0966797 8.27685547,11.4091797 8.27685547,10.394043 C8.27685547,9.40576172 9.03417969,8.79882812 10.3769531,8.72363281 L11.9238281,8.63232422 L11.9238281,8.19726562 C11.9238281,7.56884766 11.4995117,7.19287109 10.7905273,7.19287109 C10.1191406,7.19287109 9.70019531,7.51513672 9.59814453,8.02001953 L8.50244141,8.02001953 C8.56689453,6.99951172 9.43701172,6.24755859 10.8334961,6.24755859 C12.203125,6.24755859 13.0786133,6.97265625 13.0786133,8.10595703 L13.0786133,12 L11.9667969,12 L11.9667969,11.0708008 L11.9399414,11.0708008 C11.6123047,11.6992188 10.8979492,12.0966797 10.1567383,12.0966797 Z" id="a-a" fill="#434B54"></path>
            </g>
        </g>
    </g>
</svg>