<?xml version="1.0" standalone="no"?><!DOCTYPE svg PUBLIC "-//W3C//DTD SVG 1.1//EN" "http://www.w3.org/Graphics/SVG/1.1/DTD/svg11.dtd" [<!ENTITY nbsp "&#160;">]><svg id="SvgjsSvg1384" xmlns="http://www.w3.org/2000/svg" version="1.1" width="228" height="140" xmlns:xlink="http://www.w3.org/1999/xlink" style="display: block; background-color: rgb(255, 255, 255);" viewBox="0 0 916.1660149395294 562.5580793488339"><defs><style type="text/css"><![CDATA[

]]></style></defs><g id="SvgjsG1386" data-name="container" transform="scale(1) translate(481.5711856110413 279.52903967441694)"><g id="SvgjsG1394" data-name="sheet"><g id="SvgjsG1395" data-name="matrix-container"></g><g id="SvgjsG1396" data-name="boundary-container"><g id="SvgjsG1582" data-name="boundary-group" class="boundary"><path id="SvgjsPath1583" data-name="boundary-path" stroke="#2a7ac2" fill="#d5e9fc" stroke-width="2" fill-opacity="0.2" stroke-dasharray="9, 3" d="M -394.412109375 23.5L -184.88671875 23.5Q -164.88671875 23.5 -164.88671875 43.5L -164.88671875 72.8Q -164.88671875 92.8 -184.88671875 92.8L -394.412109375 92.8Q -414.412109375 92.8 -414.412109375 72.8L -414.412109375 43.5Q -414.412109375 23.5 -394.412109375 23.5z"></path><g id="SvgjsG1585" data-name="boundary-title-group" transform="translate(-419.412109375 18.5)" style="display: none;"><rect id="SvgjsRect1587" data-name="boundary-title-bg" stroke="#2a7ac2" fill="#d5e9fc" stroke-width="2"></rect><text id="SvgjsText1586" font-family="Helvetica, Arial, sans-serif" data-name="boundary-title" style="user-select: none; cursor: default;"></text></g></g></g><g id="SvgjsG1397" data-name="connection-container"><path id="SvgjsPath1411" data-name="connection" stroke-linecap="round"></path><path id="SvgjsPath1421" data-name="connection" stroke-linecap="round" stroke="#333333" stroke-width="2" d="M 76.59114583333333 0L 76.59114583333333 0Q 94.45026041666667 -61.400000000000006 165.88671875 -61.400000000000006" fill="none" marker-end="none" clip-path="url(&quot;#SvgjsClipPath1668&quot;)"></path><path id="SvgjsPath1431" data-name="connection" stroke-linecap="round" stroke="#232323" stroke-width="1" d="M 297.54296875 -61.400000000000006L 310.54296875 -61.400000000000006L 310.54296875 -65.2Q 310.54296875 -73.2 318.54296875 -73.2L 323.54296875 -73.2" marker-end="none" fill="none"></path><path id="SvgjsPath1444" data-name="connection" stroke-linecap="round" stroke="#232323" stroke-width="1" d="M 297.54296875 -61.400000000000006L 310.54296875 -61.400000000000006L 310.54296875 -57.60000000000001Q 310.54296875 -49.60000000000001 318.54296875 -49.60000000000001L 323.54296875 -49.60000000000001" marker-end="none" fill="none"></path><path id="SvgjsPath1460" data-name="connection" stroke-linecap="round" stroke="#333333" stroke-width="2" d="M 76.59114583333333 0L 76.59114583333333 0Q 94.45026041666667 61.400000000000006 165.88671875 61.400000000000006" fill="none" marker-end="none" clip-path="url(&quot;#SvgjsClipPath1668&quot;)"></path><path id="SvgjsPath1470" data-name="connection" stroke-linecap="round" stroke="#232323" stroke-width="1" d="M 297.54296875 61.400000000000006L 310.54296875 61.400000000000006L 310.54296875 57.60000000000001Q 310.54296875 49.60000000000001 318.54296875 49.60000000000001L 323.54296875 49.60000000000001" marker-end="none" fill="none"></path><path id="SvgjsPath1480" data-name="connection" stroke-linecap="round" d="M 366 25 L 359 33 L 350 25" stroke="none" stroke-width="1" fill="#333333" marker-end="none"></path><path id="SvgjsPath1496" data-name="connection" stroke-linecap="round" stroke="#232323" stroke-width="1" d="M 297.54296875 61.400000000000006L 310.54296875 61.400000000000006L 310.54296875 65.2Q 310.54296875 73.2 318.54296875 73.2L 323.54296875 73.2" marker-end="none" fill="none"></path><path id="SvgjsPath1512" data-name="connection" stroke-linecap="round" stroke="#333333" stroke-width="2" d="M -76.59114583333333 0L -76.59114583333333 0Q -96.45026041666667 61.400000000000006 -175.88671875 61.400000000000006" fill="none" marker-end="none" clip-path="url(&quot;#SvgjsClipPath1668&quot;)"></path><path id="SvgjsPath1522" data-name="connection" stroke-linecap="round" stroke="#232323" stroke-width="1" d="M -307.54296875 61.400000000000006L -320.54296875 61.400000000000006L -320.54296875 57.60000000000001Q -320.54296875 49.60000000000001 -328.54296875 49.60000000000001L -333.54296875 49.60000000000001" marker-end="none" fill="none"></path><path id="SvgjsPath1535" data-name="connection" stroke-linecap="round" stroke="#232323" stroke-width="1" d="M -307.54296875 61.400000000000006L -320.54296875 61.400000000000006L -320.54296875 65.2Q -320.54296875 73.2 -328.54296875 73.2L -333.54296875 73.2" marker-end="none" fill="none"></path><path id="SvgjsPath1551" data-name="connection" stroke-linecap="round" stroke="#333333" stroke-width="2" d="M -76.59114583333333 0L -76.59114583333333 0Q -94.45026041666667 -61.400000000000006 -165.88671875 -61.400000000000006" fill="none" marker-end="none" clip-path="url(&quot;#SvgjsClipPath1668&quot;)"></path><path id="SvgjsPath1561" data-name="connection" stroke-linecap="round" stroke="#232323" stroke-width="1" d="M -297.54296875 -61.400000000000006L -310.54296875 -61.400000000000006L -310.54296875 -65.2Q -310.54296875 -73.2 -318.54296875 -73.2L -323.54296875 -73.2" marker-end="none" fill="none"></path><path id="SvgjsPath1574" data-name="connection" stroke-linecap="round" stroke="#232323" stroke-width="1" d="M -297.54296875 -61.400000000000006L -310.54296875 -61.400000000000006L -310.54296875 -57.60000000000001Q -310.54296875 -49.60000000000001 -318.54296875 -49.60000000000001L -323.54296875 -49.60000000000001" marker-end="none" fill="none"></path></g><g id="SvgjsG1398" data-name="branch-container"><g id="SvgjsG1410" data-name="branch" class="branch"><g id="SvgjsG1403" data-name="topic"><g id="SvgjsG1404" data-name="topic-shape-group"><path id="SvgjsPath1407" data-name="topic-shape-fill" fill="#2a7ac2" stroke="none" opacity="1" d="M -109.88671875 -33.2L 109.88671875 -33.2Q 114.88671875 -33.2  114.88671875 -28.200000000000003L 114.88671875 28.200000000000003Q 114.88671875 33.2  109.88671875 33.2L -109.88671875 33.2Q -114.88671875 33.2  -114.88671875 28.200000000000003L -114.88671875 -28.200000000000003Q -114.88671875 -33.2  -109.88671875 -33.2"></path><path id="SvgjsPath1408" data-name="topic-shape" fill="none" stroke-width="0" d="M -109.88671875 -33.2L 109.88671875 -33.2Q 114.88671875 -33.2  114.88671875 -28.200000000000003L 114.88671875 28.200000000000003Q 114.88671875 33.2  109.88671875 33.2L -109.88671875 33.2Q -114.88671875 33.2  -114.88671875 28.200000000000003L -114.88671875 -28.200000000000003Q -114.88671875 -33.2  -109.88671875 -33.2"></path><g id="SvgjsG1405" data-name="inner-element-group"><g id="SvgjsG1601" data-name="topic-title-text-group"><text id="SvgjsText1600" font-family="'Open Sans','Nunito Sans','Microsoft YaHei','Microsoft JhengHei',sans-serif" font-size="28" font-weight="normal" fill="#ffffff" font-style="normal" text-decoration="none" text-anchor="middle" transform="translate(0 -18.2)" style="user-select: none; cursor: default;"><tspan id="SvgjsTspan1676" font-family="'Open Sans','Nunito Sans','Microsoft YaHei','Microsoft JhengHei',sans-serif" font-size="28" font-weight="normal" fill="#ffffff" font-style="normal" text-decoration="none" dy="28" x="0" style="white-space: pre;">Central Topic</tspan></text></g></g></g></g></g><g id="SvgjsG1420" data-name="branch" class="branch" transform="translate(231.21484375 -61.400000000000006)"><g id="SvgjsG1413" data-name="topic"><g id="SvgjsG1414" data-name="topic-shape-group"><path id="SvgjsPath1417" data-name="topic-shape-fill" fill="#e8e8e8" stroke="none" opacity="1" d="M -60.828125 -20.9L 60.828125 -20.9Q 65.828125 -20.9  65.828125 -15.899999999999999L 65.828125 15.899999999999999Q 65.828125 20.9  60.828125 20.9L -60.828125 20.9Q -65.828125 20.9  -65.828125 15.899999999999999L -65.828125 -15.899999999999999Q -65.828125 -20.9  -60.828125 -20.9"></path><path id="SvgjsPath1418" data-name="topic-shape" fill="none" stroke="#333333" stroke-width="1" d="M -60.828125 -20.9L 60.828125 -20.9Q 65.828125 -20.9  65.828125 -15.899999999999999L 65.828125 15.899999999999999Q 65.828125 20.9  60.828125 20.9L -60.828125 20.9Q -65.828125 20.9  -65.828125 15.899999999999999L -65.828125 -15.899999999999999Q -65.828125 -20.9  -60.828125 -20.9"></path><g id="SvgjsG1415" data-name="inner-element-group"><g id="SvgjsG1450" data-name="topic-title-text-group"><text id="SvgjsText1449" font-family="'Open Sans','Nunito Sans','Microsoft YaHei','Microsoft JhengHei',sans-serif" font-size="16" font-weight="normal" fill="#333333" font-style="normal" text-decoration="none" text-anchor="start" transform="translate(-47.328125 -10.4)" style="user-select: none; cursor: default;"><tspan id="SvgjsTspan1677" font-family="'Open Sans','Nunito Sans','Microsoft YaHei','Microsoft JhengHei',sans-serif" font-size="16" font-weight="normal" fill="#333333" font-style="normal" text-decoration="none" dy="16" x="0" style="white-space: pre;">Main Topic 1</tspan></text></g></g></g><g id="SvgjsG1623" data-name="collapse-extended" class="collapseextend" transform="translate(73.328125 -6)" style="cursor: pointer; display: none;"><line id="SvgjsLine1624" stroke-width="0" x1="0" y1="6" x2="-7" y2="6" stroke="#333333"></line><g id="SvgjsG1625"><ellipse id="SvgjsEllipse1626" rx="6" ry="6" cx="6" cy="6" fill="#ffffff"></ellipse><ellipse id="SvgjsEllipse1627" rx="6" ry="6" cx="6" cy="6" fill="none" stroke="#333333"></ellipse><path id="SvgjsPath1628" d="M 2, 6 L 10, 6" stroke="#333333"></path></g><g id="SvgjsG1629"><ellipse id="SvgjsEllipse1630" rx="8" ry="8" cx="8" cy="8" fill="#ffffff"></ellipse><ellipse id="SvgjsEllipse1631" rx="8" ry="8" cx="8" cy="8" fill="none" stroke="#333333" stroke-width="1"></ellipse><text id="SvgjsText1632" font-family="Helvetica, Arial, sans-serif" fill="#333333" style="user-select: none; cursor: default;"></text></g><ellipse id="SvgjsEllipse1633" rx="8" ry="8" cx="8" cy="8" fill="none" style="pointer-events: visible;"></ellipse></g></g></g><g id="SvgjsG1430" data-name="branch" class="branch" transform="translate(358.9775390625 -81.5)"><g id="SvgjsG1423" data-name="topic"><g id="SvgjsG1424" data-name="topic-shape-group"><path id="SvgjsPath1427" data-name="topic-shape-fill" opacity="0" d="M -35.4345703125 -7.800000000000001L 35.4345703125 -7.800000000000001L 35.4345703125 8.3L -35.4345703125 8.3z"></path><path id="SvgjsPath1428" data-name="topic-shape" fill="none" stroke="#232323" stroke-width="1" d="M  -35.4345703125 8.3L 35.4345703125 8.3z"></path><g id="SvgjsG1425" data-name="inner-element-group"><g id="SvgjsG1434" data-name="topic-title-text-group"><text id="SvgjsText1433" font-family="'Open Sans','Nunito Sans','Microsoft YaHei','Microsoft JhengHei',sans-serif" font-size="12" font-weight="normal" fill="#0a0e16" font-style="normal" text-decoration="none" text-anchor="start" transform="translate(-29.4345703125 -7.800000000000001)" style="user-select: none; cursor: default;"><tspan id="SvgjsTspan1678" font-family="'Open Sans','Nunito Sans','Microsoft YaHei','Microsoft JhengHei',sans-serif" font-size="12" font-weight="normal" fill="#0a0e16" font-style="normal" text-decoration="none" dy="12" x="0" style="white-space: pre;">Subtopic 1</tspan></text></g></g></g></g></g><g id="SvgjsG1443" data-name="branch" class="branch" transform="translate(358.9775390625 -57.900000000000006)"><g id="SvgjsG1436" data-name="topic"><g id="SvgjsG1437" data-name="topic-shape-group"><path id="SvgjsPath1440" data-name="topic-shape-fill" opacity="0" d="M -35.4345703125 -7.800000000000001L 35.4345703125 -7.800000000000001L 35.4345703125 8.3L -35.4345703125 8.3z"></path><path id="SvgjsPath1441" data-name="topic-shape" fill="none" stroke="#232323" stroke-width="1" d="M  -35.4345703125 8.3L 35.4345703125 8.3z"></path><g id="SvgjsG1438" data-name="inner-element-group"><g id="SvgjsG1447" data-name="topic-title-text-group"><text id="SvgjsText1446" font-family="'Open Sans','Nunito Sans','Microsoft YaHei','Microsoft JhengHei',sans-serif" font-size="12" font-weight="normal" fill="#0a0e16" font-style="normal" text-decoration="none" text-anchor="start" transform="translate(-29.4345703125 -7.800000000000001)" style="user-select: none; cursor: default;"><tspan id="SvgjsTspan1679" font-family="'Open Sans','Nunito Sans','Microsoft YaHei','Microsoft JhengHei',sans-serif" font-size="12" font-weight="normal" fill="#0a0e16" font-style="normal" text-decoration="none" dy="12" x="0" style="white-space: pre;">Subtopic 2</tspan></text></g></g></g></g></g><g id="SvgjsG1459" data-name="branch" class="branch" transform="translate(231.21484375 61.400000000000006)"><g id="SvgjsG1452" data-name="topic"><g id="SvgjsG1453" data-name="topic-shape-group"><path id="SvgjsPath1456" data-name="topic-shape-fill" fill="#e8e8e8" stroke="none" opacity="1" d="M -60.828125 -20.9L 60.828125 -20.9Q 65.828125 -20.9  65.828125 -15.899999999999999L 65.828125 15.899999999999999Q 65.828125 20.9  60.828125 20.9L -60.828125 20.9Q -65.828125 20.9  -65.828125 15.899999999999999L -65.828125 -15.899999999999999Q -65.828125 -20.9  -60.828125 -20.9"></path><path id="SvgjsPath1457" data-name="topic-shape" fill="none" stroke="#333333" stroke-width="1" d="M -60.828125 -20.9L 60.828125 -20.9Q 65.828125 -20.9  65.828125 -15.899999999999999L 65.828125 15.899999999999999Q 65.828125 20.9  60.828125 20.9L -60.828125 20.9Q -65.828125 20.9  -65.828125 15.899999999999999L -65.828125 -15.899999999999999Q -65.828125 -20.9  -60.828125 -20.9"></path><g id="SvgjsG1454" data-name="inner-element-group"><g id="SvgjsG1502" data-name="topic-title-text-group"><text id="SvgjsText1501" font-family="'Open Sans','Nunito Sans','Microsoft YaHei','Microsoft JhengHei',sans-serif" font-size="16" font-weight="normal" fill="#333333" font-style="normal" text-decoration="none" text-anchor="start" transform="translate(-47.328125 -10.4)" style="user-select: none; cursor: default;"><tspan id="SvgjsTspan1680" font-family="'Open Sans','Nunito Sans','Microsoft YaHei','Microsoft JhengHei',sans-serif" font-size="16" font-weight="normal" fill="#333333" font-style="normal" text-decoration="none" dy="16" x="0" style="white-space: pre;">Main Topic 2</tspan></text></g></g></g><g id="SvgjsG1634" data-name="collapse-extended" class="collapseextend" transform="translate(73.328125 -6)" style="cursor: pointer; display: none;"><line id="SvgjsLine1635" stroke-width="0" x1="0" y1="6" x2="-7" y2="6" stroke="#333333"></line><g id="SvgjsG1636"><ellipse id="SvgjsEllipse1637" rx="6" ry="6" cx="6" cy="6" fill="#ffffff"></ellipse><ellipse id="SvgjsEllipse1638" rx="6" ry="6" cx="6" cy="6" fill="none" stroke="#333333"></ellipse><path id="SvgjsPath1639" d="M 2, 6 L 10, 6" stroke="#333333"></path></g><g id="SvgjsG1640"><ellipse id="SvgjsEllipse1641" rx="8" ry="8" cx="8" cy="8" fill="#ffffff"></ellipse><ellipse id="SvgjsEllipse1642" rx="8" ry="8" cx="8" cy="8" fill="none" stroke="#333333" stroke-width="1"></ellipse><text id="SvgjsText1643" font-family="Helvetica, Arial, sans-serif" fill="#333333" style="user-select: none; cursor: default;"></text></g><ellipse id="SvgjsEllipse1644" rx="8" ry="8" cx="8" cy="8" fill="none" style="pointer-events: visible;"></ellipse></g></g></g><g id="SvgjsG1469" data-name="branch" class="branch" transform="translate(358.9775390625 41.300000000000004)"><g id="SvgjsG1462" data-name="topic"><g id="SvgjsG1463" data-name="topic-shape-group"><path id="SvgjsPath1466" data-name="topic-shape-fill" opacity="0" d="M -35.4345703125 -7.800000000000001L 35.4345703125 -7.800000000000001L 35.4345703125 8.3L -35.4345703125 8.3z"></path><path id="SvgjsPath1467" data-name="topic-shape" fill="none" stroke="#232323" stroke-width="1" d="M  -35.4345703125 8.3L 35.4345703125 8.3z"></path><g id="SvgjsG1464" data-name="inner-element-group"><g id="SvgjsG1486" data-name="topic-title-text-group"><text id="SvgjsText1485" font-family="'Open Sans','Nunito Sans','Microsoft YaHei','Microsoft JhengHei',sans-serif" font-size="12" font-weight="normal" fill="#0a0e16" font-style="normal" text-decoration="none" text-anchor="start" transform="translate(-29.4345703125 -7.800000000000001)" style="user-select: none; cursor: default;"><tspan id="SvgjsTspan1681" font-family="'Open Sans','Nunito Sans','Microsoft YaHei','Microsoft JhengHei',sans-serif" font-size="12" font-weight="normal" fill="#0a0e16" font-style="normal" text-decoration="none" dy="12" x="0" style="white-space: pre;">Subtopic 1</tspan></text></g></g></g></g></g><g id="SvgjsG1479" data-name="branch" class="branch" transform="translate(358.9775390625 12.699999999999996)"><g id="SvgjsG1472" data-name="topic"><g id="SvgjsG1473" data-name="topic-shape-group"><path id="SvgjsPath1476" data-name="topic-shape-fill" fill="#333333" stroke="none" opacity="1" d="M -20.220703125 -14.3L 20.220703125 -14.3Q 25.220703125 -14.3  25.220703125 -9.3L 25.220703125 9.3Q 25.220703125 14.3  20.220703125 14.3L -20.220703125 14.3Q -25.220703125 14.3  -25.220703125 9.3L -25.220703125 -9.3Q -25.220703125 -14.3  -20.220703125 -14.3"></path><path id="SvgjsPath1477" data-name="topic-shape" fill="none" stroke="none" stroke-width="1" d="M -20.220703125 -14.3L 20.220703125 -14.3Q 25.220703125 -14.3  25.220703125 -9.3L 25.220703125 9.3Q 25.220703125 14.3  20.220703125 14.3L -20.220703125 14.3Q -25.220703125 14.3  -25.220703125 9.3L -25.220703125 -9.3Q -25.220703125 -14.3  -20.220703125 -14.3" clip-path="url(&quot;#SvgjsClipPath1704&quot;)"></path><g id="SvgjsG1474" data-name="inner-element-group"><g id="SvgjsG1483" data-name="topic-title-text-group"><text id="SvgjsText1482" font-family="'Open Sans','Nunito Sans','Microsoft YaHei','Microsoft JhengHei',sans-serif" font-size="12" font-weight="normal" fill="#ffffff" font-style="italic" text-decoration="none" text-anchor="middle" transform="translate(0 -7.800000000000001)" style="user-select: none; cursor: default;"><tspan id="SvgjsTspan1684" font-family="'Open Sans','Nunito Sans','Microsoft YaHei','Microsoft JhengHei',sans-serif" font-size="12" font-weight="normal" fill="#ffffff" font-style="italic" text-decoration="none" dy="12" x="0" style="white-space: pre;">Callout</tspan></text></g></g></g></g></g><g id="SvgjsG1495" data-name="branch" class="branch" transform="translate(358.9775390625 64.9)"><g id="SvgjsG1488" data-name="topic"><g id="SvgjsG1489" data-name="topic-shape-group"><path id="SvgjsPath1492" data-name="topic-shape-fill" opacity="0" d="M -35.4345703125 -7.800000000000001L 35.4345703125 -7.800000000000001L 35.4345703125 8.3L -35.4345703125 8.3z"></path><path id="SvgjsPath1493" data-name="topic-shape" fill="none" stroke="#232323" stroke-width="1" d="M  -35.4345703125 8.3L 35.4345703125 8.3z"></path><g id="SvgjsG1490" data-name="inner-element-group"><g id="SvgjsG1499" data-name="topic-title-text-group"><text id="SvgjsText1498" font-family="'Open Sans','Nunito Sans','Microsoft YaHei','Microsoft JhengHei',sans-serif" font-size="12" font-weight="normal" fill="#0a0e16" font-style="normal" text-decoration="none" text-anchor="start" transform="translate(-29.4345703125 -7.800000000000001)" style="user-select: none; cursor: default;"><tspan id="SvgjsTspan1685" font-family="'Open Sans','Nunito Sans','Microsoft YaHei','Microsoft JhengHei',sans-serif" font-size="12" font-weight="normal" fill="#0a0e16" font-style="normal" text-decoration="none" dy="12" x="0" style="white-space: pre;">Subtopic 2</tspan></text></g></g></g></g></g><g id="SvgjsG1511" data-name="branch" class="branch" transform="translate(-241.21484375 61.400000000000006)"><g id="SvgjsG1504" data-name="topic"><g id="SvgjsG1505" data-name="topic-shape-group"><path id="SvgjsPath1508" data-name="topic-shape-fill" fill="#e8e8e8" stroke="none" opacity="1" d="M -60.828125 -20.9L 60.828125 -20.9Q 65.828125 -20.9  65.828125 -15.899999999999999L 65.828125 15.899999999999999Q 65.828125 20.9  60.828125 20.9L -60.828125 20.9Q -65.828125 20.9  -65.828125 15.899999999999999L -65.828125 -15.899999999999999Q -65.828125 -20.9  -60.828125 -20.9"></path><path id="SvgjsPath1509" data-name="topic-shape" fill="none" stroke="#333333" stroke-width="1" d="M -60.828125 -20.9L 60.828125 -20.9Q 65.828125 -20.9  65.828125 -15.899999999999999L 65.828125 15.899999999999999Q 65.828125 20.9  60.828125 20.9L -60.828125 20.9Q -65.828125 20.9  -65.828125 15.899999999999999L -65.828125 -15.899999999999999Q -65.828125 -20.9  -60.828125 -20.9"></path><g id="SvgjsG1506" data-name="inner-element-group"><g id="SvgjsG1541" data-name="topic-title-text-group"><text id="SvgjsText1540" font-family="'Open Sans','Nunito Sans','Microsoft YaHei','Microsoft JhengHei',sans-serif" font-size="16" font-weight="normal" fill="#333333" font-style="normal" text-decoration="none" text-anchor="start" transform="translate(-47.328125 -10.4)" style="user-select: none; cursor: default;"><tspan id="SvgjsTspan1686" font-family="'Open Sans','Nunito Sans','Microsoft YaHei','Microsoft JhengHei',sans-serif" font-size="16" font-weight="normal" fill="#333333" font-style="normal" text-decoration="none" dy="16" x="0" style="white-space: pre;">Main Topic 4</tspan></text></g></g></g><g id="SvgjsG1645" data-name="collapse-extended" class="collapseextend" transform="translate(-85.328125 -6)" style="cursor: pointer; display: none;"><line id="SvgjsLine1646" stroke-width="0" x1="12" y1="6" x2="19" y2="6" stroke="#333333"></line><g id="SvgjsG1647"><ellipse id="SvgjsEllipse1648" rx="6" ry="6" cx="6" cy="6" fill="#ffffff"></ellipse><ellipse id="SvgjsEllipse1649" rx="6" ry="6" cx="6" cy="6" fill="none" stroke="#333333"></ellipse><path id="SvgjsPath1650" d="M 2, 6 L 10, 6" stroke="#333333"></path></g><g id="SvgjsG1651"><ellipse id="SvgjsEllipse1652" rx="8" ry="8" cx="8" cy="8" fill="#ffffff"></ellipse><ellipse id="SvgjsEllipse1653" rx="8" ry="8" cx="8" cy="8" fill="none" stroke="#333333" stroke-width="1"></ellipse><text id="SvgjsText1654" font-family="Helvetica, Arial, sans-serif" fill="#333333" style="user-select: none; cursor: default;"></text></g><ellipse id="SvgjsEllipse1655" rx="8" ry="8" cx="8" cy="8" fill="none" style="pointer-events: visible;"></ellipse></g></g></g><g id="SvgjsG1521" data-name="branch" class="branch" transform="translate(-368.9775390625 41.300000000000004)"><g id="SvgjsG1514" data-name="topic"><g id="SvgjsG1515" data-name="topic-shape-group"><path id="SvgjsPath1518" data-name="topic-shape-fill" opacity="0" d="M -35.4345703125 -7.800000000000001L 35.4345703125 -7.800000000000001L 35.4345703125 8.3L -35.4345703125 8.3z"></path><path id="SvgjsPath1519" data-name="topic-shape" fill="none" stroke="#232323" stroke-width="1" d="M  -35.4345703125 8.3L 35.4345703125 8.3z"></path><g id="SvgjsG1516" data-name="inner-element-group"><g id="SvgjsG1525" data-name="topic-title-text-group"><text id="SvgjsText1524" font-family="'Open Sans','Nunito Sans','Microsoft YaHei','Microsoft JhengHei',sans-serif" font-size="12" font-weight="normal" fill="#0a0e16" font-style="normal" text-decoration="none" text-anchor="start" transform="translate(-29.4345703125 -7.800000000000001)" style="user-select: none; cursor: default;"><tspan id="SvgjsTspan1687" font-family="'Open Sans','Nunito Sans','Microsoft YaHei','Microsoft JhengHei',sans-serif" font-size="12" font-weight="normal" fill="#0a0e16" font-style="normal" text-decoration="none" dy="12" x="0" style="white-space: pre;">Subtopic 1</tspan></text></g></g></g></g></g><g id="SvgjsG1534" data-name="branch" class="branch" transform="translate(-368.9775390625 64.9)"><g id="SvgjsG1527" data-name="topic"><g id="SvgjsG1528" data-name="topic-shape-group"><path id="SvgjsPath1531" data-name="topic-shape-fill" opacity="0" d="M -35.4345703125 -7.800000000000001L 35.4345703125 -7.800000000000001L 35.4345703125 8.3L -35.4345703125 8.3z"></path><path id="SvgjsPath1532" data-name="topic-shape" fill="none" stroke="#232323" stroke-width="1" d="M  -35.4345703125 8.3L 35.4345703125 8.3z"></path><g id="SvgjsG1529" data-name="inner-element-group"><g id="SvgjsG1538" data-name="topic-title-text-group"><text id="SvgjsText1537" font-family="'Open Sans','Nunito Sans','Microsoft YaHei','Microsoft JhengHei',sans-serif" font-size="12" font-weight="normal" fill="#0a0e16" font-style="normal" text-decoration="none" text-anchor="start" transform="translate(-29.4345703125 -7.800000000000001)" style="user-select: none; cursor: default;"><tspan id="SvgjsTspan1688" font-family="'Open Sans','Nunito Sans','Microsoft YaHei','Microsoft JhengHei',sans-serif" font-size="12" font-weight="normal" fill="#0a0e16" font-style="normal" text-decoration="none" dy="12" x="0" style="white-space: pre;">Subtopic 2</tspan></text></g></g></g></g></g><g id="SvgjsG1550" data-name="branch" class="branch" transform="translate(-231.21484375 -61.400000000000006)"><g id="SvgjsG1543" data-name="topic"><g id="SvgjsG1544" data-name="topic-shape-group"><path id="SvgjsPath1547" data-name="topic-shape-fill" fill="#e8e8e8" stroke="none" opacity="1" d="M -60.828125 -20.9L 60.828125 -20.9Q 65.828125 -20.9  65.828125 -15.899999999999999L 65.828125 15.899999999999999Q 65.828125 20.9  60.828125 20.9L -60.828125 20.9Q -65.828125 20.9  -65.828125 15.899999999999999L -65.828125 -15.899999999999999Q -65.828125 -20.9  -60.828125 -20.9"></path><path id="SvgjsPath1548" data-name="topic-shape" fill="none" stroke="#333333" stroke-width="1" d="M -60.828125 -20.9L 60.828125 -20.9Q 65.828125 -20.9  65.828125 -15.899999999999999L 65.828125 15.899999999999999Q 65.828125 20.9  60.828125 20.9L -60.828125 20.9Q -65.828125 20.9  -65.828125 15.899999999999999L -65.828125 -15.899999999999999Q -65.828125 -20.9  -60.828125 -20.9"></path><g id="SvgjsG1545" data-name="inner-element-group"><g id="SvgjsG1580" data-name="topic-title-text-group"><text id="SvgjsText1579" font-family="'Open Sans','Nunito Sans','Microsoft YaHei','Microsoft JhengHei',sans-serif" font-size="16" font-weight="normal" fill="#333333" font-style="normal" text-decoration="none" text-anchor="start" transform="translate(-47.328125 -10.4)" style="user-select: none; cursor: default;"><tspan id="SvgjsTspan1689" font-family="'Open Sans','Nunito Sans','Microsoft YaHei','Microsoft JhengHei',sans-serif" font-size="16" font-weight="normal" fill="#333333" font-style="normal" text-decoration="none" dy="16" x="0" style="white-space: pre;">Main Topic 3</tspan></text></g></g></g><g id="SvgjsG1656" data-name="collapse-extended" class="collapseextend" transform="translate(-85.328125 -6)" style="cursor: pointer; display: none;"><line id="SvgjsLine1657" stroke-width="0" x1="12" y1="6" x2="19" y2="6" stroke="#333333"></line><g id="SvgjsG1658"><ellipse id="SvgjsEllipse1659" rx="6" ry="6" cx="6" cy="6" fill="#ffffff"></ellipse><ellipse id="SvgjsEllipse1660" rx="6" ry="6" cx="6" cy="6" fill="none" stroke="#333333"></ellipse><path id="SvgjsPath1661" d="M 2, 6 L 10, 6" stroke="#333333"></path></g><g id="SvgjsG1662"><ellipse id="SvgjsEllipse1663" rx="8" ry="8" cx="8" cy="8" fill="#ffffff"></ellipse><ellipse id="SvgjsEllipse1664" rx="8" ry="8" cx="8" cy="8" fill="none" stroke="#333333" stroke-width="1"></ellipse><text id="SvgjsText1665" font-family="Helvetica, Arial, sans-serif" fill="#333333" style="user-select: none; cursor: default;"></text></g><ellipse id="SvgjsEllipse1666" rx="8" ry="8" cx="8" cy="8" fill="none" style="pointer-events: visible;"></ellipse></g></g></g><g id="SvgjsG1560" data-name="branch" class="branch" transform="translate(-358.9775390625 -81.5)"><g id="SvgjsG1553" data-name="topic"><g id="SvgjsG1554" data-name="topic-shape-group"><path id="SvgjsPath1557" data-name="topic-shape-fill" opacity="0" d="M -35.4345703125 -7.800000000000001L 35.4345703125 -7.800000000000001L 35.4345703125 8.3L -35.4345703125 8.3z"></path><path id="SvgjsPath1558" data-name="topic-shape" fill="none" stroke="#232323" stroke-width="1" d="M  -35.4345703125 8.3L 35.4345703125 8.3z"></path><g id="SvgjsG1555" data-name="inner-element-group"><g id="SvgjsG1564" data-name="topic-title-text-group"><text id="SvgjsText1563" font-family="'Open Sans','Nunito Sans','Microsoft YaHei','Microsoft JhengHei',sans-serif" font-size="12" font-weight="normal" fill="#0a0e16" font-style="normal" text-decoration="none" text-anchor="start" transform="translate(-29.4345703125 -7.800000000000001)" style="user-select: none; cursor: default;"><tspan id="SvgjsTspan1690" font-family="'Open Sans','Nunito Sans','Microsoft YaHei','Microsoft JhengHei',sans-serif" font-size="12" font-weight="normal" fill="#0a0e16" font-style="normal" text-decoration="none" dy="12" x="0" style="white-space: pre;">Subtopic 1</tspan></text></g></g></g></g></g><g id="SvgjsG1573" data-name="branch" class="branch" transform="translate(-358.9775390625 -57.900000000000006)"><g id="SvgjsG1566" data-name="topic"><g id="SvgjsG1567" data-name="topic-shape-group"><path id="SvgjsPath1570" data-name="topic-shape-fill" opacity="0" d="M -35.4345703125 -7.800000000000001L 35.4345703125 -7.800000000000001L 35.4345703125 8.3L -35.4345703125 8.3z"></path><path id="SvgjsPath1571" data-name="topic-shape" fill="none" stroke="#232323" stroke-width="1" d="M  -35.4345703125 8.3L 35.4345703125 8.3z"></path><g id="SvgjsG1568" data-name="inner-element-group"><g id="SvgjsG1577" data-name="topic-title-text-group"><text id="SvgjsText1576" font-family="'Open Sans','Nunito Sans','Microsoft YaHei','Microsoft JhengHei',sans-serif" font-size="12" font-weight="normal" fill="#0a0e16" font-style="normal" text-decoration="none" text-anchor="start" transform="translate(-29.4345703125 -7.800000000000001)" style="user-select: none; cursor: default;"><tspan id="SvgjsTspan1691" font-family="'Open Sans','Nunito Sans','Microsoft YaHei','Microsoft JhengHei',sans-serif" font-size="12" font-weight="normal" fill="#0a0e16" font-style="normal" text-decoration="none" dy="12" x="0" style="white-space: pre;">Subtopic 2</tspan></text></g></g></g></g></g></g><g id="SvgjsG1399" data-name="relationship-container"><g id="SvgjsG1602" data-name="relationship" class="relationship"><path id="SvgjsPath1603" data-name="relationship-path" clip-path="url(&quot;#SvgjsClipPath1621&quot;)" style="fill: none;" stroke-dasharray="9, 3" stroke="#2a7ac2" stroke-width="2" marker-start="url(#SvgjsMarker1692)" marker-end="url(#SvgjsMarker1694)" d="M -403.88068594232914 33.38999670480897C -452.19164457143046 22.49432524386124  -450.8145129826399 -59.596373189395635  -402.1330757663787 -71.22512876244545"></path><path id="SvgjsPath1605" data-name="relationship-shadow-action-path" stroke="none" stroke-width="12" style="stroke-opacity: 0; stroke: none; fill: none;" d="M -403.88068594232914 33.38999670480897C -452.19164457143046 22.49432524386124  -450.8145129826399 -59.596373189395635  -402.1330757663787 -71.22512876244545"></path><text id="SvgjsText1606" font-family="'Open Sans','Open Sans','Nunito Sans','Microsoft YaHei','Microsoft JhengHei',sans-serif" data-name="relationship-title" style="user-select: none; cursor: default; pointer-events: none; display: none;" font-size="12" font-weight="normal" font-style="italic" text-decoration="none" fill="#333333" x="-439.3673400878906" y="-118.12769317626953"><tspan id="SvgjsTspan1706" style="white-space: pre;">Relationship</tspan></text></g></g><g id="SvgjsG1402" data-name="cloneG" opacity="0.5"></g></g></g><defs id="SvgjsDefs1385"><rect id="SvgjsRect1618" width="450.0585632324219" height="504.61512756347656" fill="white" x="-652.191650390625" y="-271.2251281738281"></rect><rect id="SvgjsRect1619" width="0" height="0" fill="black" style="display: none;"></rect><clipPath id="SvgjsClipPath1621" style="display: none;"><path id="SvgjsPath1620" d="M -652.191650390625 -271.2251281738281 L-202.13308715820312 -271.2251281738281 L-202.13308715820312 233.38998413085938 L-652.191650390625 233.38998413085938 M 0 0 L0 0 L0 0 L0 0" fill="black" clip-rule="evenodd"></path></clipPath><clipPath id="SvgjsClipPath1668"><path id="SvgjsPath1667" d="M -109.88671875 -33.2L 109.88671875 -33.2Q 114.88671875 -33.2  114.88671875 -28.200000000000003L 114.88671875 28.200000000000003Q 114.88671875 33.2  109.88671875 33.2L -109.88671875 33.2Q -114.88671875 33.2  -114.88671875 28.200000000000003L -114.88671875 -28.200000000000003Q -114.88671875 -33.2  -109.88671875 -33.2 M -10000 -10000 L10000 -10000 L10000 10000 L-10000 10000" fill="black" clip-rule="evenodd" transform="translate(0 0) "></path></clipPath><marker id="SvgjsMarker1671" markerWidth="8" markerHeight="8" refX="5" refY="4" viewBox="0 0 8 8" orient="auto"><path id="SvgjsPath1672" d="" stroke="#2a7ac2" stroke-width="1" stroke-dasharray="none" fill="none"></path></marker><marker id="SvgjsMarker1673" markerWidth="8" markerHeight="8" refX="2" refY="4" viewBox="0 0 8 8" orient="auto"><path id="SvgjsPath1674" d="M 2 2 L 6 4 L 2 6" stroke-width="0" stroke-dasharray="none" stroke="#2a7ac2" fill="#2a7ac2"></path></marker><marker id="SvgjsMarker1692" markerWidth="8" markerHeight="8" refX="5" refY="4" viewBox="0 0 8 8" orient="auto"><path id="SvgjsPath1693" d="" stroke="#2a7ac2" stroke-width="1" stroke-dasharray="none" fill="none"></path></marker><marker id="SvgjsMarker1694" markerWidth="8" markerHeight="8" refX="2" refY="4" viewBox="0 0 8 8" orient="auto"><path id="SvgjsPath1695" d="M 2 2 L 6 4 L 2 6" stroke-width="0" stroke-dasharray="none" stroke="#2a7ac2" fill="#2a7ac2"></path></marker><clipPath id="SvgjsClipPath1704"><path id="SvgjsPath1703" d="M -8.9775390625 12.300000000000004 L7.0224609375 12.300000000000004 L7.0224609375 13.300000000000004 L-8.9775390625 13.300000000000004 M -10000 -10000 L10000 -10000 L10000 10000 L-10000 10000" fill="black" clip-rule="evenodd"></path></clipPath></defs></svg>