<?xml version="1.0" standalone="no"?><!DOCTYPE svg PUBLIC "-//W3C//DTD SVG 1.1//EN" "http://www.w3.org/Graphics/SVG/1.1/DTD/svg11.dtd" [<!ENTITY nbsp "&#160;">]><svg id="SvgjsSvg1697" xmlns="http://www.w3.org/2000/svg" version="1.1" width="228" height="140" xmlns:xlink="http://www.w3.org/1999/xlink" style="display: block; background-color: rgb(245, 250, 255);" viewBox="0 0 828.178168463498 508.5304543196917"><defs><style type="text/css"><![CDATA[

]]></style></defs><g id="SvgjsG1699" data-name="container" transform="scale(1) translate(438.45368567726996 252.44022715984588)"><g id="SvgjsG1707" data-name="sheet"><g id="SvgjsG1708" data-name="matrix-container"></g><g id="SvgjsG1709" data-name="boundary-container"><g id="SvgjsG1895" data-name="boundary-group" class="boundary"><path id="SvgjsPath1896" data-name="boundary-path" stroke="#f78a4a" fill="#fce7d9" stroke-width="2" fill-opacity="0.2" stroke-dasharray="9, 3" d="M -353.40087890625 23.64999999999999L -162.61328125 23.64999999999999Q -142.61328125 23.64999999999999 -142.61328125 43.64999999999999L -142.61328125 68.2Q -142.61328125 88.2 -162.61328125 88.2L -353.40087890625 88.2Q -373.40087890625 88.2 -373.40087890625 68.2L -373.40087890625 43.64999999999999Q -373.40087890625 23.64999999999999 -353.40087890625 23.64999999999999z"></path><g id="SvgjsG1898" data-name="boundary-title-group" transform="translate(-378.40087890625 18.64999999999999)" style="display: none;"><rect id="SvgjsRect1900" data-name="boundary-title-bg" stroke="#f78a4a" fill="#fce7d9" stroke-width="2"></rect><text id="SvgjsText1899" font-family="Helvetica, Arial, sans-serif" data-name="boundary-title" style="user-select: none; cursor: default;"></text></g></g></g><g id="SvgjsG1710" data-name="connection-container"><path id="SvgjsPath1724" data-name="connection" stroke-linecap="round"></path><path id="SvgjsPath1734" data-name="connection" stroke-linecap="round" stroke-width="0" d="M 61.7421875 0L 63.2421875 0L 63.2421875 -51.099999999999994Q 63.2421875 -58.599999999999994 70.7421875 -58.599999999999994L 143.61328125 -58.599999999999994L 143.61328125 -59.599999999999994L 68.7421875 -59.599999999999994Q 60.2421875 -59.599999999999994 60.2421875 -51.099999999999994L 60.2421875 0L 61.7421875 0" fill="#8793a5" marker-end="none" clip-path="url(&quot;#SvgjsClipPath1981&quot;)"></path><path id="SvgjsPath1744" data-name="connection" stroke-linecap="round" stroke="#8793a5" stroke-width="1" d="M 261.4375 -59.099999999999994L 274.4375 -59.099999999999994L 274.4375 -61.75Q 274.4375 -69.75 282.4375 -69.75L 287.4375 -69.75" marker-end="none" fill="none"></path><path id="SvgjsPath1757" data-name="connection" stroke-linecap="round" stroke="#8793a5" stroke-width="1" d="M 261.4375 -59.099999999999994L 274.4375 -59.099999999999994L 274.4375 -56.449999999999996Q 274.4375 -48.449999999999996 282.4375 -48.449999999999996L 287.4375 -48.449999999999996" marker-end="none" fill="none"></path><path id="SvgjsPath1773" data-name="connection" stroke-linecap="round" stroke-width="0" d="M 61.7421875 0L 63.2421875 0L 63.2421875 51.099999999999994Q 63.2421875 58.599999999999994 70.7421875 58.599999999999994L 143.61328125 58.599999999999994L 143.61328125 59.599999999999994L 68.7421875 59.599999999999994Q 60.2421875 59.599999999999994 60.2421875 51.099999999999994L 60.2421875 0L 61.7421875 0" fill="#8793a5" marker-end="none" clip-path="url(&quot;#SvgjsClipPath1981&quot;)"></path><path id="SvgjsPath1783" data-name="connection" stroke-linecap="round" stroke="#8793a5" stroke-width="1" d="M 261.4375 59.099999999999994L 274.4375 59.099999999999994L 274.4375 56.44999999999999Q 274.4375 48.44999999999999 282.4375 48.44999999999999L 287.4375 48.44999999999999" marker-end="none" fill="none"></path><path id="SvgjsPath1793" data-name="connection" stroke-linecap="round" d="M 328 26 L 320 33 L 312 26" stroke-width="0" fill="#f78a4a" marker-end="none"></path><path id="SvgjsPath1809" data-name="connection" stroke-linecap="round" stroke="#8793a5" stroke-width="1" d="M 261.4375 59.099999999999994L 274.4375 59.099999999999994L 274.4375 61.749999999999986Q 274.4375 69.74999999999999 282.4375 69.74999999999999L 287.4375 69.74999999999999" marker-end="none" fill="none"></path><path id="SvgjsPath1825" data-name="connection" stroke-linecap="round" stroke-width="0" d="M -61.7421875 0L -63.2421875 0L -63.2421875 51.099999999999994Q -63.2421875 58.599999999999994 -70.7421875 58.599999999999994L -153.61328125 58.599999999999994L -153.61328125 59.599999999999994L -68.7421875 59.599999999999994Q -60.2421875 59.599999999999994 -60.2421875 51.099999999999994L -60.2421875 0L -61.7421875 0" fill="#8793a5" marker-end="none" clip-path="url(&quot;#SvgjsClipPath1981&quot;)"></path><path id="SvgjsPath1835" data-name="connection" stroke-linecap="round" stroke="#8793a5" stroke-width="1" d="M -271.4375 59.099999999999994L -284.4375 59.099999999999994L -284.4375 56.44999999999999Q -284.4375 48.44999999999999 -292.4375 48.44999999999999L -297.4375 48.44999999999999" marker-end="none" fill="none"></path><path id="SvgjsPath1848" data-name="connection" stroke-linecap="round" stroke="#8793a5" stroke-width="1" d="M -271.4375 59.099999999999994L -284.4375 59.099999999999994L -284.4375 61.75Q -284.4375 69.75 -292.4375 69.75L -297.4375 69.75" marker-end="none" fill="none"></path><path id="SvgjsPath1864" data-name="connection" stroke-linecap="round" stroke-width="0" d="M -61.7421875 0L -63.2421875 0L -63.2421875 -51.099999999999994Q -63.2421875 -58.599999999999994 -70.7421875 -58.599999999999994L -143.61328125 -58.599999999999994L -143.61328125 -59.599999999999994L -68.7421875 -59.599999999999994Q -60.2421875 -59.599999999999994 -60.2421875 -51.099999999999994L -60.2421875 0L -61.7421875 0" fill="#8793a5" marker-end="none" clip-path="url(&quot;#SvgjsClipPath1981&quot;)"></path><path id="SvgjsPath1874" data-name="connection" stroke-linecap="round" stroke="#8793a5" stroke-width="1" d="M -261.4375 -59.099999999999994L -274.4375 -59.099999999999994L -274.4375 -61.75Q -274.4375 -69.75 -282.4375 -69.75L -287.4375 -69.75" marker-end="none" fill="none"></path><path id="SvgjsPath1887" data-name="connection" stroke-linecap="round" stroke="#8793a5" stroke-width="1" d="M -261.4375 -59.099999999999994L -274.4375 -59.099999999999994L -274.4375 -56.449999999999996Q -274.4375 -48.449999999999996 -282.4375 -48.449999999999996L -287.4375 -48.449999999999996" marker-end="none" fill="none"></path></g><g id="SvgjsG1711" data-name="branch-container"><g id="SvgjsG1723" data-name="branch" class="branch"><g id="SvgjsG1716" data-name="topic"><g id="SvgjsG1717" data-name="topic-shape-group"><path id="SvgjsPath1720" data-name="topic-shape-fill" fill="#5a729a" stroke="none" opacity="1" d="M -87.61328125 -28L 87.61328125 -28Q 92.61328125 -28  92.61328125 -23L 92.61328125 23Q 92.61328125 28  87.61328125 28L -87.61328125 28Q -92.61328125 28  -92.61328125 23L -92.61328125 -23Q -92.61328125 -28  -87.61328125 -28"></path><path id="SvgjsPath1721" data-name="topic-shape" fill="none" stroke-width="0" d="M -87.61328125 -28L 87.61328125 -28Q 92.61328125 -28  92.61328125 -23L 92.61328125 23Q 92.61328125 28  87.61328125 28L -87.61328125 28Q -92.61328125 28  -92.61328125 23L -92.61328125 -23Q -92.61328125 -28  -87.61328125 -28"></path><g id="SvgjsG1718" data-name="inner-element-group"><g id="SvgjsG1914" data-name="topic-title-text-group"><text id="SvgjsText1913" font-family="'Open Sans','Nunito Sans','Microsoft YaHei','Microsoft JhengHei',sans-serif" font-size="20" font-weight="600" fill="#ffffff" font-style="normal" text-decoration="none" text-anchor="middle" transform="translate(0 -13)" style="user-select: none; cursor: default;"><tspan id="SvgjsTspan1989" font-family="'Open Sans','Nunito Sans','Microsoft YaHei','Microsoft JhengHei',sans-serif" font-size="20" font-weight="600" fill="#ffffff" font-style="normal" text-decoration="none" dy="20" x="0" style="white-space: pre;">Central Topic</tspan></text></g></g></g></g></g><g id="SvgjsG1733" data-name="branch" class="branch" transform="translate(202.025390625 -59.099999999999994)"><g id="SvgjsG1726" data-name="topic"><g id="SvgjsG1727" data-name="topic-shape-group"><path id="SvgjsPath1730" data-name="topic-shape-fill" fill="#96d2e7" stroke="none" opacity="1" d="M -54.412109375 -19.1L 54.412109375 -19.1Q 59.412109375 -19.1  59.412109375 -14.100000000000001L 59.412109375 14.100000000000001Q 59.412109375 19.1  54.412109375 19.1L -54.412109375 19.1Q -59.412109375 19.1  -59.412109375 14.100000000000001L -59.412109375 -14.100000000000001Q -59.412109375 -19.1  -54.412109375 -19.1"></path><path id="SvgjsPath1731" data-name="topic-shape" fill="none" stroke-width="0" d="M -54.412109375 -19.1L 54.412109375 -19.1Q 59.412109375 -19.1  59.412109375 -14.100000000000001L 59.412109375 14.100000000000001Q 59.412109375 19.1  54.412109375 19.1L -54.412109375 19.1Q -59.412109375 19.1  -59.412109375 14.100000000000001L -59.412109375 -14.100000000000001Q -59.412109375 -19.1  -54.412109375 -19.1"></path><g id="SvgjsG1728" data-name="inner-element-group"><g id="SvgjsG1763" data-name="topic-title-text-group"><text id="SvgjsText1762" font-family="'Open Sans','Nunito Sans','Microsoft YaHei','Microsoft JhengHei',sans-serif" font-size="14" font-weight="normal" fill="#434b54" font-style="normal" text-decoration="none" text-anchor="start" transform="translate(-41.412109375 -9.1)" style="user-select: none; cursor: default;"><tspan id="SvgjsTspan1990" font-family="'Open Sans','Nunito Sans','Microsoft YaHei','Microsoft JhengHei',sans-serif" font-size="14" font-weight="normal" fill="#434b54" font-style="normal" text-decoration="none" dy="14" x="0" style="white-space: pre;">Main Topic 1</tspan></text></g></g></g><g id="SvgjsG1936" data-name="collapse-extended" class="collapseextend" transform="translate(66.412109375 -6)" style="cursor: pointer; display: none;"><line id="SvgjsLine1937" stroke-width="0" x1="0" y1="6" x2="-7" y2="6" stroke="#8793a5"></line><g id="SvgjsG1938"><ellipse id="SvgjsEllipse1939" rx="6" ry="6" cx="6" cy="6" fill="#f5faff"></ellipse><ellipse id="SvgjsEllipse1940" rx="6" ry="6" cx="6" cy="6" fill="none" stroke="#8793a5"></ellipse><path id="SvgjsPath1941" d="M 2, 6 L 10, 6" stroke="#8793a5"></path></g><g id="SvgjsG1942"><ellipse id="SvgjsEllipse1943" rx="8" ry="8" cx="8" cy="8" fill="#f5faff"></ellipse><ellipse id="SvgjsEllipse1944" rx="8" ry="8" cx="8" cy="8" fill="none" stroke="#8793a5" stroke-width="1"></ellipse><text id="SvgjsText1945" font-family="Helvetica, Arial, sans-serif" fill="#8793a5" style="user-select: none; cursor: default;"></text></g><ellipse id="SvgjsEllipse1946" rx="8" ry="8" cx="8" cy="8" fill="none" style="pointer-events: visible;"></ellipse></g></g></g><g id="SvgjsG1743" data-name="branch" class="branch" transform="translate(320.419189453125 -77.4)"><g id="SvgjsG1736" data-name="topic"><g id="SvgjsG1737" data-name="topic-shape-group"><path id="SvgjsPath1740" data-name="topic-shape-fill" opacity="0" d="M -32.981689453125 -7.15L 32.981689453125 -7.15L 32.981689453125 7.65L -32.981689453125 7.65z"></path><path id="SvgjsPath1741" data-name="topic-shape" fill="none" stroke="#8793a5" stroke-width="1" d="M  -32.981689453125 7.65L 32.981689453125 7.65z"></path><g id="SvgjsG1738" data-name="inner-element-group"><g id="SvgjsG1747" data-name="topic-title-text-group"><text id="SvgjsText1746" font-family="'Open Sans','Nunito Sans','Microsoft YaHei','Microsoft JhengHei',sans-serif" font-size="11" font-weight="normal" fill="#434b54" font-style="normal" text-decoration="none" text-anchor="start" transform="translate(-26.981689453125 -7.15)" style="user-select: none; cursor: default;"><tspan id="SvgjsTspan1991" font-family="'Open Sans','Nunito Sans','Microsoft YaHei','Microsoft JhengHei',sans-serif" font-size="11" font-weight="normal" fill="#434b54" font-style="normal" text-decoration="none" dy="11" x="0" style="white-space: pre;">Subtopic 1</tspan></text></g></g></g></g></g><g id="SvgjsG1756" data-name="branch" class="branch" transform="translate(320.419189453125 -56.099999999999994)"><g id="SvgjsG1749" data-name="topic"><g id="SvgjsG1750" data-name="topic-shape-group"><path id="SvgjsPath1753" data-name="topic-shape-fill" opacity="0" d="M -32.981689453125 -7.15L 32.981689453125 -7.15L 32.981689453125 7.65L -32.981689453125 7.65z"></path><path id="SvgjsPath1754" data-name="topic-shape" fill="none" stroke="#8793a5" stroke-width="1" d="M  -32.981689453125 7.65L 32.981689453125 7.65z"></path><g id="SvgjsG1751" data-name="inner-element-group"><g id="SvgjsG1760" data-name="topic-title-text-group"><text id="SvgjsText1759" font-family="'Open Sans','Nunito Sans','Microsoft YaHei','Microsoft JhengHei',sans-serif" font-size="11" font-weight="normal" fill="#434b54" font-style="normal" text-decoration="none" text-anchor="start" transform="translate(-26.981689453125 -7.15)" style="user-select: none; cursor: default;"><tspan id="SvgjsTspan1992" font-family="'Open Sans','Nunito Sans','Microsoft YaHei','Microsoft JhengHei',sans-serif" font-size="11" font-weight="normal" fill="#434b54" font-style="normal" text-decoration="none" dy="11" x="0" style="white-space: pre;">Subtopic 2</tspan></text></g></g></g></g></g><g id="SvgjsG1772" data-name="branch" class="branch" transform="translate(202.025390625 59.099999999999994)"><g id="SvgjsG1765" data-name="topic"><g id="SvgjsG1766" data-name="topic-shape-group"><path id="SvgjsPath1769" data-name="topic-shape-fill" fill="#96d2e7" stroke="none" opacity="1" d="M -54.412109375 -19.1L 54.412109375 -19.1Q 59.412109375 -19.1  59.412109375 -14.100000000000001L 59.412109375 14.100000000000001Q 59.412109375 19.1  54.412109375 19.1L -54.412109375 19.1Q -59.412109375 19.1  -59.412109375 14.100000000000001L -59.412109375 -14.100000000000001Q -59.412109375 -19.1  -54.412109375 -19.1"></path><path id="SvgjsPath1770" data-name="topic-shape" fill="none" stroke-width="0" d="M -54.412109375 -19.1L 54.412109375 -19.1Q 59.412109375 -19.1  59.412109375 -14.100000000000001L 59.412109375 14.100000000000001Q 59.412109375 19.1  54.412109375 19.1L -54.412109375 19.1Q -59.412109375 19.1  -59.412109375 14.100000000000001L -59.412109375 -14.100000000000001Q -59.412109375 -19.1  -54.412109375 -19.1"></path><g id="SvgjsG1767" data-name="inner-element-group"><g id="SvgjsG1815" data-name="topic-title-text-group"><text id="SvgjsText1814" font-family="'Open Sans','Nunito Sans','Microsoft YaHei','Microsoft JhengHei',sans-serif" font-size="14" font-weight="normal" fill="#434b54" font-style="normal" text-decoration="none" text-anchor="start" transform="translate(-41.412109375 -9.1)" style="user-select: none; cursor: default;"><tspan id="SvgjsTspan1993" font-family="'Open Sans','Nunito Sans','Microsoft YaHei','Microsoft JhengHei',sans-serif" font-size="14" font-weight="normal" fill="#434b54" font-style="normal" text-decoration="none" dy="14" x="0" style="white-space: pre;">Main Topic 2</tspan></text></g></g></g><g id="SvgjsG1947" data-name="collapse-extended" class="collapseextend" transform="translate(66.412109375 -6)" style="cursor: pointer; display: none;"><line id="SvgjsLine1948" stroke-width="0" x1="0" y1="6" x2="-7" y2="6" stroke="#8793a5"></line><g id="SvgjsG1949"><ellipse id="SvgjsEllipse1950" rx="6" ry="6" cx="6" cy="6" fill="#f5faff"></ellipse><ellipse id="SvgjsEllipse1951" rx="6" ry="6" cx="6" cy="6" fill="none" stroke="#8793a5"></ellipse><path id="SvgjsPath1952" d="M 2, 6 L 10, 6" stroke="#8793a5"></path></g><g id="SvgjsG1953"><ellipse id="SvgjsEllipse1954" rx="8" ry="8" cx="8" cy="8" fill="#f5faff"></ellipse><ellipse id="SvgjsEllipse1955" rx="8" ry="8" cx="8" cy="8" fill="none" stroke="#8793a5" stroke-width="1"></ellipse><text id="SvgjsText1956" font-family="Helvetica, Arial, sans-serif" fill="#8793a5" style="user-select: none; cursor: default;"></text></g><ellipse id="SvgjsEllipse1957" rx="8" ry="8" cx="8" cy="8" fill="none" style="pointer-events: visible;"></ellipse></g></g></g><g id="SvgjsG1782" data-name="branch" class="branch" transform="translate(320.419189453125 40.79999999999999)"><g id="SvgjsG1775" data-name="topic"><g id="SvgjsG1776" data-name="topic-shape-group"><path id="SvgjsPath1779" data-name="topic-shape-fill" opacity="0" d="M -32.981689453125 -7.15L 32.981689453125 -7.15L 32.981689453125 7.65L -32.981689453125 7.65z"></path><path id="SvgjsPath1780" data-name="topic-shape" fill="none" stroke="#8793a5" stroke-width="1" d="M  -32.981689453125 7.65L 32.981689453125 7.65z"></path><g id="SvgjsG1777" data-name="inner-element-group"><g id="SvgjsG1799" data-name="topic-title-text-group"><text id="SvgjsText1798" font-family="'Open Sans','Nunito Sans','Microsoft YaHei','Microsoft JhengHei',sans-serif" font-size="11" font-weight="normal" fill="#434b54" font-style="normal" text-decoration="none" text-anchor="start" transform="translate(-26.981689453125 -7.15)" style="user-select: none; cursor: default;"><tspan id="SvgjsTspan1994" font-family="'Open Sans','Nunito Sans','Microsoft YaHei','Microsoft JhengHei',sans-serif" font-size="11" font-weight="normal" fill="#434b54" font-style="normal" text-decoration="none" dy="11" x="0" style="white-space: pre;">Subtopic 1</tspan></text></g></g></g></g></g><g id="SvgjsG1792" data-name="branch" class="branch" transform="translate(320.419189453125 14.499999999999993)"><g id="SvgjsG1785" data-name="topic"><g id="SvgjsG1786" data-name="topic-shape-group"><path id="SvgjsPath1789" data-name="topic-shape-fill" fill="#f78a4a" stroke="none" opacity="1" d="M -18.9501953125 -13.15L 18.9501953125 -13.15Q 23.9501953125 -13.15  23.9501953125 -8.15L 23.9501953125 8.15Q 23.9501953125 13.15  18.9501953125 13.15L -18.9501953125 13.15Q -23.9501953125 13.15  -23.9501953125 8.15L -23.9501953125 -8.15Q -23.9501953125 -13.15  -18.9501953125 -13.15"></path><path id="SvgjsPath1790" data-name="topic-shape" fill="none" stroke-width="0" d="M -18.9501953125 -13.15L 18.9501953125 -13.15Q 23.9501953125 -13.15  23.9501953125 -8.15L 23.9501953125 8.15Q 23.9501953125 13.15  18.9501953125 13.15L -18.9501953125 13.15Q -23.9501953125 13.15  -23.9501953125 8.15L -23.9501953125 -8.15Q -23.9501953125 -13.15  -18.9501953125 -13.15" clip-path="url(&quot;#SvgjsClipPath2017&quot;)"></path><g id="SvgjsG1787" data-name="inner-element-group"><g id="SvgjsG1796" data-name="topic-title-text-group"><text id="SvgjsText1795" font-family="'Open Sans','Nunito Sans','Microsoft YaHei','Microsoft JhengHei',sans-serif" font-size="11" font-weight="normal" fill="#ffffff" font-style="normal" text-decoration="none" text-anchor="middle" transform="translate(0 -7.15)" style="user-select: none; cursor: default;"><tspan id="SvgjsTspan1997" font-family="'Open Sans','Nunito Sans','Microsoft YaHei','Microsoft JhengHei',sans-serif" font-size="11" font-weight="normal" fill="#ffffff" font-style="normal" text-decoration="none" dy="11" x="0" style="white-space: pre;">Callout</tspan></text></g></g></g></g></g><g id="SvgjsG1808" data-name="branch" class="branch" transform="translate(320.419189453125 62.09999999999999)"><g id="SvgjsG1801" data-name="topic"><g id="SvgjsG1802" data-name="topic-shape-group"><path id="SvgjsPath1805" data-name="topic-shape-fill" opacity="0" d="M -32.981689453125 -7.15L 32.981689453125 -7.15L 32.981689453125 7.65L -32.981689453125 7.65z"></path><path id="SvgjsPath1806" data-name="topic-shape" fill="none" stroke="#8793a5" stroke-width="1" d="M  -32.981689453125 7.65L 32.981689453125 7.65z"></path><g id="SvgjsG1803" data-name="inner-element-group"><g id="SvgjsG1812" data-name="topic-title-text-group"><text id="SvgjsText1811" font-family="'Open Sans','Nunito Sans','Microsoft YaHei','Microsoft JhengHei',sans-serif" font-size="11" font-weight="normal" fill="#434b54" font-style="normal" text-decoration="none" text-anchor="start" transform="translate(-26.981689453125 -7.15)" style="user-select: none; cursor: default;"><tspan id="SvgjsTspan1998" font-family="'Open Sans','Nunito Sans','Microsoft YaHei','Microsoft JhengHei',sans-serif" font-size="11" font-weight="normal" fill="#434b54" font-style="normal" text-decoration="none" dy="11" x="0" style="white-space: pre;">Subtopic 2</tspan></text></g></g></g></g></g><g id="SvgjsG1824" data-name="branch" class="branch" transform="translate(-212.025390625 59.099999999999994)"><g id="SvgjsG1817" data-name="topic"><g id="SvgjsG1818" data-name="topic-shape-group"><path id="SvgjsPath1821" data-name="topic-shape-fill" fill="#96d2e7" stroke="none" opacity="1" d="M -54.412109375 -19.1L 54.412109375 -19.1Q 59.412109375 -19.1  59.412109375 -14.100000000000001L 59.412109375 14.100000000000001Q 59.412109375 19.1  54.412109375 19.1L -54.412109375 19.1Q -59.412109375 19.1  -59.412109375 14.100000000000001L -59.412109375 -14.100000000000001Q -59.412109375 -19.1  -54.412109375 -19.1"></path><path id="SvgjsPath1822" data-name="topic-shape" fill="none" stroke-width="0" d="M -54.412109375 -19.1L 54.412109375 -19.1Q 59.412109375 -19.1  59.412109375 -14.100000000000001L 59.412109375 14.100000000000001Q 59.412109375 19.1  54.412109375 19.1L -54.412109375 19.1Q -59.412109375 19.1  -59.412109375 14.100000000000001L -59.412109375 -14.100000000000001Q -59.412109375 -19.1  -54.412109375 -19.1"></path><g id="SvgjsG1819" data-name="inner-element-group"><g id="SvgjsG1854" data-name="topic-title-text-group"><text id="SvgjsText1853" font-family="'Open Sans','Nunito Sans','Microsoft YaHei','Microsoft JhengHei',sans-serif" font-size="14" font-weight="normal" fill="#434b54" font-style="normal" text-decoration="none" text-anchor="start" transform="translate(-41.412109375 -9.1)" style="user-select: none; cursor: default;"><tspan id="SvgjsTspan1999" font-family="'Open Sans','Nunito Sans','Microsoft YaHei','Microsoft JhengHei',sans-serif" font-size="14" font-weight="normal" fill="#434b54" font-style="normal" text-decoration="none" dy="14" x="0" style="white-space: pre;">Main Topic 4</tspan></text></g></g></g><g id="SvgjsG1958" data-name="collapse-extended" class="collapseextend" transform="translate(-78.412109375 -6)" style="cursor: pointer; display: none;"><line id="SvgjsLine1959" stroke-width="0" x1="12" y1="6" x2="19" y2="6" stroke="#8793a5"></line><g id="SvgjsG1960"><ellipse id="SvgjsEllipse1961" rx="6" ry="6" cx="6" cy="6" fill="#f5faff"></ellipse><ellipse id="SvgjsEllipse1962" rx="6" ry="6" cx="6" cy="6" fill="none" stroke="#8793a5"></ellipse><path id="SvgjsPath1963" d="M 2, 6 L 10, 6" stroke="#8793a5"></path></g><g id="SvgjsG1964"><ellipse id="SvgjsEllipse1965" rx="8" ry="8" cx="8" cy="8" fill="#f5faff"></ellipse><ellipse id="SvgjsEllipse1966" rx="8" ry="8" cx="8" cy="8" fill="none" stroke="#8793a5" stroke-width="1"></ellipse><text id="SvgjsText1967" font-family="Helvetica, Arial, sans-serif" fill="#8793a5" style="user-select: none; cursor: default;"></text></g><ellipse id="SvgjsEllipse1968" rx="8" ry="8" cx="8" cy="8" fill="none" style="pointer-events: visible;"></ellipse></g></g></g><g id="SvgjsG1834" data-name="branch" class="branch" transform="translate(-330.419189453125 40.79999999999999)"><g id="SvgjsG1827" data-name="topic"><g id="SvgjsG1828" data-name="topic-shape-group"><path id="SvgjsPath1831" data-name="topic-shape-fill" opacity="0" d="M -32.981689453125 -7.15L 32.981689453125 -7.15L 32.981689453125 7.65L -32.981689453125 7.65z"></path><path id="SvgjsPath1832" data-name="topic-shape" fill="none" stroke="#8793a5" stroke-width="1" d="M  -32.981689453125 7.65L 32.981689453125 7.65z"></path><g id="SvgjsG1829" data-name="inner-element-group"><g id="SvgjsG1838" data-name="topic-title-text-group"><text id="SvgjsText1837" font-family="'Open Sans','Nunito Sans','Microsoft YaHei','Microsoft JhengHei',sans-serif" font-size="11" font-weight="normal" fill="#434b54" font-style="normal" text-decoration="none" text-anchor="start" transform="translate(-26.981689453125 -7.15)" style="user-select: none; cursor: default;"><tspan id="SvgjsTspan2000" font-family="'Open Sans','Nunito Sans','Microsoft YaHei','Microsoft JhengHei',sans-serif" font-size="11" font-weight="normal" fill="#434b54" font-style="normal" text-decoration="none" dy="11" x="0" style="white-space: pre;">Subtopic 1</tspan></text></g></g></g></g></g><g id="SvgjsG1847" data-name="branch" class="branch" transform="translate(-330.419189453125 62.099999999999994)"><g id="SvgjsG1840" data-name="topic"><g id="SvgjsG1841" data-name="topic-shape-group"><path id="SvgjsPath1844" data-name="topic-shape-fill" opacity="0" d="M -32.981689453125 -7.15L 32.981689453125 -7.15L 32.981689453125 7.65L -32.981689453125 7.65z"></path><path id="SvgjsPath1845" data-name="topic-shape" fill="none" stroke="#8793a5" stroke-width="1" d="M  -32.981689453125 7.65L 32.981689453125 7.65z"></path><g id="SvgjsG1842" data-name="inner-element-group"><g id="SvgjsG1851" data-name="topic-title-text-group"><text id="SvgjsText1850" font-family="'Open Sans','Nunito Sans','Microsoft YaHei','Microsoft JhengHei',sans-serif" font-size="11" font-weight="normal" fill="#434b54" font-style="normal" text-decoration="none" text-anchor="start" transform="translate(-26.981689453125 -7.15)" style="user-select: none; cursor: default;"><tspan id="SvgjsTspan2001" font-family="'Open Sans','Nunito Sans','Microsoft YaHei','Microsoft JhengHei',sans-serif" font-size="11" font-weight="normal" fill="#434b54" font-style="normal" text-decoration="none" dy="11" x="0" style="white-space: pre;">Subtopic 2</tspan></text></g></g></g></g></g><g id="SvgjsG1863" data-name="branch" class="branch" transform="translate(-202.025390625 -59.099999999999994)"><g id="SvgjsG1856" data-name="topic"><g id="SvgjsG1857" data-name="topic-shape-group"><path id="SvgjsPath1860" data-name="topic-shape-fill" fill="#96d2e7" stroke="none" opacity="1" d="M -54.412109375 -19.1L 54.412109375 -19.1Q 59.412109375 -19.1  59.412109375 -14.100000000000001L 59.412109375 14.100000000000001Q 59.412109375 19.1  54.412109375 19.1L -54.412109375 19.1Q -59.412109375 19.1  -59.412109375 14.100000000000001L -59.412109375 -14.100000000000001Q -59.412109375 -19.1  -54.412109375 -19.1"></path><path id="SvgjsPath1861" data-name="topic-shape" fill="none" stroke-width="0" d="M -54.412109375 -19.1L 54.412109375 -19.1Q 59.412109375 -19.1  59.412109375 -14.100000000000001L 59.412109375 14.100000000000001Q 59.412109375 19.1  54.412109375 19.1L -54.412109375 19.1Q -59.412109375 19.1  -59.412109375 14.100000000000001L -59.412109375 -14.100000000000001Q -59.412109375 -19.1  -54.412109375 -19.1"></path><g id="SvgjsG1858" data-name="inner-element-group"><g id="SvgjsG1893" data-name="topic-title-text-group"><text id="SvgjsText1892" font-family="'Open Sans','Nunito Sans','Microsoft YaHei','Microsoft JhengHei',sans-serif" font-size="14" font-weight="normal" fill="#434b54" font-style="normal" text-decoration="none" text-anchor="start" transform="translate(-41.412109375 -9.1)" style="user-select: none; cursor: default;"><tspan id="SvgjsTspan2002" font-family="'Open Sans','Nunito Sans','Microsoft YaHei','Microsoft JhengHei',sans-serif" font-size="14" font-weight="normal" fill="#434b54" font-style="normal" text-decoration="none" dy="14" x="0" style="white-space: pre;">Main Topic 3</tspan></text></g></g></g><g id="SvgjsG1969" data-name="collapse-extended" class="collapseextend" transform="translate(-78.412109375 -6)" style="cursor: pointer; display: none;"><line id="SvgjsLine1970" stroke-width="0" x1="12" y1="6" x2="19" y2="6" stroke="#8793a5"></line><g id="SvgjsG1971"><ellipse id="SvgjsEllipse1972" rx="6" ry="6" cx="6" cy="6" fill="#f5faff"></ellipse><ellipse id="SvgjsEllipse1973" rx="6" ry="6" cx="6" cy="6" fill="none" stroke="#8793a5"></ellipse><path id="SvgjsPath1974" d="M 2, 6 L 10, 6" stroke="#8793a5"></path></g><g id="SvgjsG1975"><ellipse id="SvgjsEllipse1976" rx="8" ry="8" cx="8" cy="8" fill="#f5faff"></ellipse><ellipse id="SvgjsEllipse1977" rx="8" ry="8" cx="8" cy="8" fill="none" stroke="#8793a5" stroke-width="1"></ellipse><text id="SvgjsText1978" font-family="Helvetica, Arial, sans-serif" fill="#8793a5" style="user-select: none; cursor: default;"></text></g><ellipse id="SvgjsEllipse1979" rx="8" ry="8" cx="8" cy="8" fill="none" style="pointer-events: visible;"></ellipse></g></g></g><g id="SvgjsG1873" data-name="branch" class="branch" transform="translate(-320.419189453125 -77.4)"><g id="SvgjsG1866" data-name="topic"><g id="SvgjsG1867" data-name="topic-shape-group"><path id="SvgjsPath1870" data-name="topic-shape-fill" opacity="0" d="M -32.981689453125 -7.15L 32.981689453125 -7.15L 32.981689453125 7.65L -32.981689453125 7.65z"></path><path id="SvgjsPath1871" data-name="topic-shape" fill="none" stroke="#8793a5" stroke-width="1" d="M  -32.981689453125 7.65L 32.981689453125 7.65z"></path><g id="SvgjsG1868" data-name="inner-element-group"><g id="SvgjsG1877" data-name="topic-title-text-group"><text id="SvgjsText1876" font-family="'Open Sans','Nunito Sans','Microsoft YaHei','Microsoft JhengHei',sans-serif" font-size="11" font-weight="normal" fill="#434b54" font-style="normal" text-decoration="none" text-anchor="start" transform="translate(-26.981689453125 -7.15)" style="user-select: none; cursor: default;"><tspan id="SvgjsTspan2003" font-family="'Open Sans','Nunito Sans','Microsoft YaHei','Microsoft JhengHei',sans-serif" font-size="11" font-weight="normal" fill="#434b54" font-style="normal" text-decoration="none" dy="11" x="0" style="white-space: pre;">Subtopic 1</tspan></text></g></g></g></g></g><g id="SvgjsG1886" data-name="branch" class="branch" transform="translate(-320.419189453125 -56.099999999999994)"><g id="SvgjsG1879" data-name="topic"><g id="SvgjsG1880" data-name="topic-shape-group"><path id="SvgjsPath1883" data-name="topic-shape-fill" opacity="0" d="M -32.981689453125 -7.15L 32.981689453125 -7.15L 32.981689453125 7.65L -32.981689453125 7.65z"></path><path id="SvgjsPath1884" data-name="topic-shape" fill="none" stroke="#8793a5" stroke-width="1" d="M  -32.981689453125 7.65L 32.981689453125 7.65z"></path><g id="SvgjsG1881" data-name="inner-element-group"><g id="SvgjsG1890" data-name="topic-title-text-group"><text id="SvgjsText1889" font-family="'Open Sans','Nunito Sans','Microsoft YaHei','Microsoft JhengHei',sans-serif" font-size="11" font-weight="normal" fill="#434b54" font-style="normal" text-decoration="none" text-anchor="start" transform="translate(-26.981689453125 -7.15)" style="user-select: none; cursor: default;"><tspan id="SvgjsTspan2004" font-family="'Open Sans','Nunito Sans','Microsoft YaHei','Microsoft JhengHei',sans-serif" font-size="11" font-weight="normal" fill="#434b54" font-style="normal" text-decoration="none" dy="11" x="0" style="white-space: pre;">Subtopic 2</tspan></text></g></g></g></g></g></g><g id="SvgjsG1712" data-name="relationship-container"><g id="SvgjsG1915" data-name="relationship" class="relationship"><path id="SvgjsPath1916" data-name="relationship-path" clip-path="url(&quot;#SvgjsClipPath1934&quot;)" style="fill: none;" stroke-dasharray="" stroke="#f78a4a" stroke-width="2" marker-start="url(#SvgjsMarker2005)" marker-end="url(#SvgjsMarker2007)" d="M -362.31127904376996 33.540257569690326C -413.63329496205546 21.994325243861226  -412.2561633732649 -55.49637318939564  -361.008491357234 -67.77023176873207"></path><path id="SvgjsPath1918" data-name="relationship-shadow-action-path" stroke="none" stroke-width="12" style="stroke-opacity: 0; stroke: none; fill: none;" d="M -362.31127904376996 33.540257569690326C -413.63329496205546 21.994325243861226  -412.2561633732649 -55.49637318939564  -361.008491357234 -67.77023176873207"></path><text id="SvgjsText1919" font-family="'Open Sans','Open Sans','Nunito Sans','Microsoft YaHei','Microsoft JhengHei',sans-serif" data-name="relationship-title" style="user-select: none; cursor: default; pointer-events: none; display: none;" font-size="12" font-weight="normal" font-style="italic" text-decoration="none" fill="#434b54" x="-400.115234375" y="-108.42900276184082"><tspan id="SvgjsTspan2019" style="white-space: pre;">Relationship</tspan></text></g></g><g id="SvgjsG1715" data-name="cloneG" opacity="0.5"></g></g></g><defs id="SvgjsDefs1698"><rect id="SvgjsRect1931" width="452.62481689453125" height="501.31048583984375" fill="white" x="-613.63330078125" y="-267.7702331542969"></rect><rect id="SvgjsRect1932" width="0" height="0" fill="black" style="display: none;"></rect><clipPath id="SvgjsClipPath1934" style="display: none;"><path id="SvgjsPath1933" d="M -613.63330078125 -267.7702331542969 L-161.00848388671875 -267.7702331542969 L-161.00848388671875 233.54025268554688 L-613.63330078125 233.54025268554688 M 0 0 L0 0 L0 0 L0 0" fill="black" clip-rule="evenodd"></path></clipPath><clipPath id="SvgjsClipPath1981"><path id="SvgjsPath1980" d="M -87.61328125 -28L 87.61328125 -28Q 92.61328125 -28  92.61328125 -23L 92.61328125 23Q 92.61328125 28  87.61328125 28L -87.61328125 28Q -92.61328125 28  -92.61328125 23L -92.61328125 -23Q -92.61328125 -28  -87.61328125 -28 M -10000 -10000 L10000 -10000 L10000 10000 L-10000 10000" fill="black" clip-rule="evenodd" transform="translate(0 0) "></path></clipPath><marker id="SvgjsMarker1984" markerWidth="8" markerHeight="8" refX="5" refY="4" viewBox="0 0 8 8" orient="auto"><path id="SvgjsPath1985" d="" stroke="#2a7ac2" stroke-width="1" stroke-dasharray="none" fill="none"></path></marker><marker id="SvgjsMarker1986" markerWidth="8" markerHeight="8" refX="2" refY="4" viewBox="0 0 8 8" orient="auto"><path id="SvgjsPath1987" d="M 2 2 L 6 4 L 2 6" stroke-width="0" stroke-dasharray="none" stroke="#2a7ac2" fill="#2a7ac2"></path></marker><marker id="SvgjsMarker2005" markerWidth="8" markerHeight="8" refX="5" refY="4" viewBox="0 0 8 8" orient="auto"><path id="SvgjsPath2006" d="" stroke="#f78a4a" stroke-width="1" stroke-dasharray="none" fill="none"></path></marker><marker id="SvgjsMarker2007" markerWidth="8" markerHeight="8" refX="2" refY="4" viewBox="0 0 8 8" orient="auto"><path id="SvgjsPath2008" d="M 2 2 L 6 4 L 2 6" stroke-width="0" stroke-dasharray="none" stroke="#f78a4a" fill="#f78a4a"></path></marker><clipPath id="SvgjsClipPath2017"><path id="SvgjsPath2016" d="M -8.419189453125 11.500000000000007 L7.580810546875 11.500000000000007 L7.580810546875 11.500000000000007 L-8.419189453125 11.500000000000007 M -10000 -10000 L10000 -10000 L10000 10000 L-10000 10000" fill="black" clip-rule="evenodd"></path></clipPath></defs></svg>