<?xml version="1.0" standalone="no"?><!DOCTYPE svg PUBLIC "-//W3C//DTD SVG 1.1//EN" "http://www.w3.org/Graphics/SVG/1.1/DTD/svg11.dtd" [<!ENTITY nbsp "&#160;">]><svg id="SvgjsSvg2010" xmlns="http://www.w3.org/2000/svg" version="1.1" width="228" height="140" xmlns:xlink="http://www.w3.org/1999/xlink" style="display: block; background-color: rgb(255, 255, 255);" viewBox="0 0 1044.6336496981326 641.4417147269235"><defs><style type="text/css"><![CDATA[

]]></style></defs><g id="SvgjsG2012" data-name="container" transform="scale(1) translate(543.5445719215302 319.2708573634618)"><g id="SvgjsG2020" data-name="sheet"><g id="SvgjsG2021" data-name="matrix-container"></g><g id="SvgjsG2022" data-name="boundary-container"><g id="SvgjsG2208" data-name="boundary-group" class="boundary"><path id="SvgjsPath2209" data-name="boundary-path" stroke="#fb5151" fill="#fcdbda" stroke-width="2" fill-opacity="0.2" stroke-dasharray="9, 3" d="M -455.4518051147461 17.200000000000003L -182.45995330810547 17.200000000000003Q -162.45995330810547 17.200000000000003 -162.45995330810547 37.2L -162.45995330810547 92.2Q -162.45995330810547 112.2 -182.45995330810547 112.2L -455.4518051147461 112.2Q -475.4518051147461 112.2 -475.4518051147461 92.2L -475.4518051147461 37.2Q -475.4518051147461 17.200000000000003 -455.4518051147461 17.200000000000003z"></path><g id="SvgjsG2211" data-name="boundary-title-group" transform="translate(-480.4518051147461 12.200000000000003)" style="display: none;"><rect id="SvgjsRect2213" data-name="boundary-title-bg" stroke="#fb5151" fill="#fcdbda" stroke-width="2"></rect><text id="SvgjsText2212" font-family="Helvetica, Arial, sans-serif" data-name="boundary-title" style="user-select: none; cursor: default;"></text></g></g></g><g id="SvgjsG2023" data-name="connection-container"><path id="SvgjsPath2037" data-name="connection" stroke-linecap="round"></path><path id="SvgjsPath2047" data-name="connection" stroke-linecap="round" stroke="#434b54" stroke-width="3" d="M 74.97330220540364 0L 74.97330220540364 0Q 92.670632425944 -71.80000000000001 163.45995330810547 -71.80000000000001" fill="none" marker-end="none" clip-path="url(&quot;#SvgjsClipPath2294&quot;)"></path><path id="SvgjsPath2057" data-name="connection" stroke-linecap="round" stroke="#434b54" stroke-width="1" d="M 313.21585845947266 -71.80000000000001L 326.21585845947266 -71.80000000000001Q 334.21585845947266 -92.80000000000001 366.21585845947266 -92.80000000000001" marker-end="none" fill="none"></path><path id="SvgjsPath2070" data-name="connection" stroke-linecap="round" stroke="#434b54" stroke-width="1" d="M 313.21585845947266 -71.80000000000001L 326.21585845947266 -71.80000000000001Q 334.21585845947266 -50.80000000000001 366.21585845947266 -50.80000000000001" marker-end="none" fill="none"></path><path id="SvgjsPath2086" data-name="connection" stroke-linecap="round" stroke="#434b54" stroke-width="3" d="M 74.97330220540364 0L 74.97330220540364 0Q 92.670632425944 71.80000000000001 163.45995330810547 71.80000000000001" fill="none" marker-end="none" clip-path="url(&quot;#SvgjsClipPath2294&quot;)"></path><path id="SvgjsPath2096" data-name="connection" stroke-linecap="round" stroke="#434b54" stroke-width="1" d="M 316.9598617553711 71.80000000000001L 329.9598617553711 71.80000000000001Q 337.9598617553711 50.80000000000001 369.9598617553711 50.80000000000001" marker-end="none" fill="none"></path><path id="SvgjsPath2106" data-name="connection" stroke-linecap="round" d="M 418 27 L 410 33 L 402 27" stroke-width="0" fill="#fb5151" marker-end="none"></path><path id="SvgjsPath2122" data-name="connection" stroke-linecap="round" stroke="#434b54" stroke-width="1" d="M 316.9598617553711 71.80000000000001L 329.9598617553711 71.80000000000001Q 337.9598617553711 92.80000000000001 369.9598617553711 92.80000000000001" marker-end="none" fill="none"></path><path id="SvgjsPath2138" data-name="connection" stroke-linecap="round" stroke="#434b54" stroke-width="3" d="M -74.97330220540364 0L -74.97330220540364 0Q -94.670632425944 64.7 -173.45995330810547 64.7" fill="none" marker-end="none" clip-path="url(&quot;#SvgjsClipPath2294&quot;)"></path><path id="SvgjsPath2148" data-name="connection" stroke-linecap="round" stroke="#434b54" stroke-width="1" d="M -327.13985443115234 64.7L -340.13985443115234 64.7Q -348.13985443115234 43.7 -380.13985443115234 43.7" marker-end="none" fill="none"></path><path id="SvgjsPath2161" data-name="connection" stroke-linecap="round" stroke="#434b54" stroke-width="1" d="M -327.13985443115234 64.7L -340.13985443115234 64.7Q -348.13985443115234 85.7 -380.13985443115234 85.7" marker-end="none" fill="none"></path><path id="SvgjsPath2177" data-name="connection" stroke-linecap="round" stroke="#434b54" stroke-width="3" d="M -74.97330220540364 0L -74.97330220540364 0Q -92.670632425944 -64.7 -163.45995330810547 -64.7" fill="none" marker-end="none" clip-path="url(&quot;#SvgjsClipPath2294&quot;)"></path><path id="SvgjsPath2187" data-name="connection" stroke-linecap="round" stroke="#434b54" stroke-width="1" d="M -317.0138626098633 -64.7L -330.0138626098633 -64.7Q -338.0138626098633 -85.7 -370.0138626098633 -85.7" marker-end="none" fill="none"></path><path id="SvgjsPath2200" data-name="connection" stroke-linecap="round" stroke="#434b54" stroke-width="1" d="M -317.0138626098633 -64.7L -330.0138626098633 -64.7Q -338.0138626098633 -43.7 -370.0138626098633 -43.7" marker-end="none" fill="none"></path></g><g id="SvgjsG2024" data-name="branch-container"><g id="SvgjsG2036" data-name="branch" class="branch"><g id="SvgjsG2029" data-name="topic"><g id="SvgjsG2030" data-name="topic-shape-group"><path id="SvgjsPath2033" data-name="topic-shape-fill" fill="#2a7ac2" stroke="none" opacity="0" d="M -105.95995330810547 -32.1L 105.95995330810547 -32.1Q 110.95995330810547 -32.1  110.95995330810547 -27.1L 110.95995330810547 27.1Q 110.95995330810547 32.1  105.95995330810547 32.1L -105.95995330810547 32.1Q -110.95995330810547 32.1  -110.95995330810547 27.1L -110.95995330810547 -27.1Q -110.95995330810547 -32.1  -105.95995330810547 -32.1"></path><path id="SvgjsPath2034" data-name="topic-shape" fill="none" stroke-width="3" d="M -105.95995330810547 -32.1L 105.95995330810547 -32.1Q 110.95995330810547 -32.1  110.95995330810547 -27.1L 110.95995330810547 27.1Q 110.95995330810547 32.1  105.95995330810547 32.1L -105.95995330810547 32.1Q -110.95995330810547 32.1  -110.95995330810547 27.1L -110.95995330810547 -27.1Q -110.95995330810547 -32.1  -105.95995330810547 -32.1" stroke="#434b54"></path><g id="SvgjsG2031" data-name="inner-element-group"><g id="SvgjsG2227" data-name="topic-title-text-group"><text id="SvgjsText2226" font-family="'Montserrat','Nunito Sans','Microsoft YaHei','Microsoft JhengHei',sans-serif" font-size="24" font-weight="700" fill="#434b54" font-style="normal" text-decoration="none" text-anchor="middle" transform="translate(0 -15.600000000000001)" style="user-select: none; cursor: default;"><tspan id="SvgjsTspan2302" font-family="'Montserrat','Nunito Sans','Microsoft YaHei','Microsoft JhengHei',sans-serif" font-size="24" font-weight="700" fill="#434b54" font-style="normal" text-decoration="none" dy="24" x="0" style="white-space: pre;">Central Topic</tspan></text></g></g></g></g></g><g id="SvgjsG2046" data-name="branch" class="branch" transform="translate(237.83790588378906 -71.80000000000001)"><g id="SvgjsG2039" data-name="topic"><g id="SvgjsG2040" data-name="topic-shape-group"><path id="SvgjsPath2043" data-name="topic-shape-fill" fill="#e8e8e8" stroke="none" opacity="0" d="M -68.8779525756836 -23.200000000000003L 68.8779525756836 -23.200000000000003Q 73.8779525756836 -23.200000000000003  73.8779525756836 -18.200000000000003L 73.8779525756836 18.200000000000003Q 73.8779525756836 23.200000000000003  68.8779525756836 23.200000000000003L -68.8779525756836 23.200000000000003Q -73.8779525756836 23.200000000000003  -73.8779525756836 18.200000000000003L -73.8779525756836 -18.200000000000003Q -73.8779525756836 -23.200000000000003  -68.8779525756836 -23.200000000000003"></path><path id="SvgjsPath2044" data-name="topic-shape" fill="none" stroke="#434b54" stroke-width="3" d="M -68.8779525756836 -23.200000000000003L 68.8779525756836 -23.200000000000003Q 73.8779525756836 -23.200000000000003  73.8779525756836 -18.200000000000003L 73.8779525756836 18.200000000000003Q 73.8779525756836 23.200000000000003  68.8779525756836 23.200000000000003L -68.8779525756836 23.200000000000003Q -73.8779525756836 23.200000000000003  -73.8779525756836 18.200000000000003L -73.8779525756836 -18.200000000000003Q -73.8779525756836 -23.200000000000003  -68.8779525756836 -23.200000000000003"></path><g id="SvgjsG2041" data-name="inner-element-group"><g id="SvgjsG2076" data-name="topic-title-text-group"><text id="SvgjsText2075" font-family="'Montserrat','Nunito Sans','Microsoft YaHei','Microsoft JhengHei',sans-serif" font-size="18" font-weight="500" fill="#434b54" font-style="normal" text-decoration="none" text-anchor="middle" transform="translate(0 -11.700000000000001)" style="user-select: none; cursor: default;"><tspan id="SvgjsTspan2303" font-family="'Montserrat','Nunito Sans','Microsoft YaHei','Microsoft JhengHei',sans-serif" font-size="18" font-weight="500" fill="#434b54" font-style="normal" text-decoration="none" dy="18" x="0" style="white-space: pre;">Main Topic 1</tspan></text></g></g></g><g id="SvgjsG2249" data-name="collapse-extended" class="collapseextend" transform="translate(82.3779525756836 -6)" style="cursor: pointer; display: none;"><line id="SvgjsLine2250" stroke-width="0" x1="0" y1="6" x2="-7" y2="6" stroke="#434b54"></line><g id="SvgjsG2251"><ellipse id="SvgjsEllipse2252" rx="6" ry="6" cx="6" cy="6" fill="#ffffff"></ellipse><ellipse id="SvgjsEllipse2253" rx="6" ry="6" cx="6" cy="6" fill="none" stroke="#434b54"></ellipse><path id="SvgjsPath2254" d="M 2, 6 L 10, 6" stroke="#434b54"></path></g><g id="SvgjsG2255"><ellipse id="SvgjsEllipse2256" rx="8" ry="8" cx="8" cy="8" fill="#ffffff"></ellipse><ellipse id="SvgjsEllipse2257" rx="8" ry="8" cx="8" cy="8" fill="none" stroke="#434b54" stroke-width="1"></ellipse><text id="SvgjsText2258" font-family="Helvetica, Arial, sans-serif" fill="#434b54" style="user-select: none; cursor: default;"></text></g><ellipse id="SvgjsEllipse2259" rx="8" ry="8" cx="8" cy="8" fill="none" style="pointer-events: visible;"></ellipse></g></g></g><g id="SvgjsG2056" data-name="branch" class="branch" transform="translate(406.90882873535156 -92.80000000000001)"><g id="SvgjsG2049" data-name="topic"><g id="SvgjsG2050" data-name="topic-shape-group"><path id="SvgjsPath2053" data-name="topic-shape-fill" opacity="0" d="M -41.692970275878906 -6Q -41.692970275878906 -11 -36.858402361595225 -12.275520710211607Q 0 -22 36.858402361595225 -12.275520710211607Q 41.692970275878906 -11 41.692970275878906 -6L 41.692970275878906 6Q 41.692970275878906 11 36.858402361595225 12.275520710211607Q 0 22 -36.858402361595225 12.275520710211607Q -41.692970275878906 11 -41.692970275878906 6Z"></path><path id="SvgjsPath2054" data-name="topic-shape" fill="none" stroke-width="0" d="M -41.692970275878906 -6Q -41.692970275878906 -11 -36.858402361595225 -12.275520710211607Q 0 -22 36.858402361595225 -12.275520710211607Q 41.692970275878906 -11 41.692970275878906 -6L 41.692970275878906 6Q 41.692970275878906 11 36.858402361595225 12.275520710211607Q 0 22 -36.858402361595225 12.275520710211607Q -41.692970275878906 11 -41.692970275878906 6Z"></path><g id="SvgjsG2051" data-name="inner-element-group"><g id="SvgjsG2060" data-name="topic-title-text-group"><text id="SvgjsText2059" font-family="'Montserrat','Nunito Sans','Microsoft YaHei','Microsoft JhengHei',sans-serif" font-size="14" font-weight="normal" fill="#434b54" font-style="normal" text-decoration="none" text-anchor="start" transform="translate(-35.692970275878906 -9.1)" style="user-select: none; cursor: default;"><tspan id="SvgjsTspan2304" font-family="'Montserrat','Nunito Sans','Microsoft YaHei','Microsoft JhengHei',sans-serif" font-size="14" font-weight="normal" fill="#434b54" font-style="normal" text-decoration="none" dy="14" x="0" style="white-space: pre;">Subtopic 1</tspan></text></g></g></g></g></g><g id="SvgjsG2069" data-name="branch" class="branch" transform="translate(408.37183380126953 -50.80000000000001)"><g id="SvgjsG2062" data-name="topic"><g id="SvgjsG2063" data-name="topic-shape-group"><path id="SvgjsPath2066" data-name="topic-shape-fill" opacity="0" d="M -43.155975341796875 -6Q -43.155975341796875 -11 -38.31088808133336 -12.2349613105252Q 0 -22 38.31088808133336 -12.2349613105252Q 43.155975341796875 -11 43.155975341796875 -6L 43.155975341796875 6Q 43.155975341796875 11 38.31088808133336 12.2349613105252Q 0 22 -38.31088808133336 12.2349613105252Q -43.155975341796875 11 -43.155975341796875 6Z"></path><path id="SvgjsPath2067" data-name="topic-shape" fill="none" stroke-width="0" d="M -43.155975341796875 -6Q -43.155975341796875 -11 -38.31088808133336 -12.2349613105252Q 0 -22 38.31088808133336 -12.2349613105252Q 43.155975341796875 -11 43.155975341796875 -6L 43.155975341796875 6Q 43.155975341796875 11 38.31088808133336 12.2349613105252Q 0 22 -38.31088808133336 12.2349613105252Q -43.155975341796875 11 -43.155975341796875 6Z"></path><g id="SvgjsG2064" data-name="inner-element-group"><g id="SvgjsG2073" data-name="topic-title-text-group"><text id="SvgjsText2072" font-family="'Montserrat','Nunito Sans','Microsoft YaHei','Microsoft JhengHei',sans-serif" font-size="14" font-weight="normal" fill="#434b54" font-style="normal" text-decoration="none" text-anchor="start" transform="translate(-37.155975341796875 -9.1)" style="user-select: none; cursor: default;"><tspan id="SvgjsTspan2305" font-family="'Montserrat','Nunito Sans','Microsoft YaHei','Microsoft JhengHei',sans-serif" font-size="14" font-weight="normal" fill="#434b54" font-style="normal" text-decoration="none" dy="14" x="0" style="white-space: pre;">Subtopic 2</tspan></text></g></g></g></g></g><g id="SvgjsG2085" data-name="branch" class="branch" transform="translate(239.70990753173828 71.80000000000001)"><g id="SvgjsG2078" data-name="topic"><g id="SvgjsG2079" data-name="topic-shape-group"><path id="SvgjsPath2082" data-name="topic-shape-fill" fill="#e8e8e8" stroke="none" opacity="0" d="M -70.74995422363281 -23.200000000000003L 70.74995422363281 -23.200000000000003Q 75.74995422363281 -23.200000000000003  75.74995422363281 -18.200000000000003L 75.74995422363281 18.200000000000003Q 75.74995422363281 23.200000000000003  70.74995422363281 23.200000000000003L -70.74995422363281 23.200000000000003Q -75.74995422363281 23.200000000000003  -75.74995422363281 18.200000000000003L -75.74995422363281 -18.200000000000003Q -75.74995422363281 -23.200000000000003  -70.74995422363281 -23.200000000000003"></path><path id="SvgjsPath2083" data-name="topic-shape" fill="none" stroke="#434b54" stroke-width="3" d="M -70.74995422363281 -23.200000000000003L 70.74995422363281 -23.200000000000003Q 75.74995422363281 -23.200000000000003  75.74995422363281 -18.200000000000003L 75.74995422363281 18.200000000000003Q 75.74995422363281 23.200000000000003  70.74995422363281 23.200000000000003L -70.74995422363281 23.200000000000003Q -75.74995422363281 23.200000000000003  -75.74995422363281 18.200000000000003L -75.74995422363281 -18.200000000000003Q -75.74995422363281 -23.200000000000003  -70.74995422363281 -23.200000000000003"></path><g id="SvgjsG2080" data-name="inner-element-group"><g id="SvgjsG2128" data-name="topic-title-text-group"><text id="SvgjsText2127" font-family="'Montserrat','Nunito Sans','Microsoft YaHei','Microsoft JhengHei',sans-serif" font-size="18" font-weight="500" fill="#434b54" font-style="normal" text-decoration="none" text-anchor="middle" transform="translate(0 -11.700000000000001)" style="user-select: none; cursor: default;"><tspan id="SvgjsTspan2306" font-family="'Montserrat','Nunito Sans','Microsoft YaHei','Microsoft JhengHei',sans-serif" font-size="18" font-weight="500" fill="#434b54" font-style="normal" text-decoration="none" dy="18" x="0" style="white-space: pre;">Main Topic 2</tspan></text></g></g></g><g id="SvgjsG2260" data-name="collapse-extended" class="collapseextend" transform="translate(84.24995422363281 -6)" style="cursor: pointer; display: none;"><line id="SvgjsLine2261" stroke-width="0" x1="0" y1="6" x2="-7" y2="6" stroke="#434b54"></line><g id="SvgjsG2262"><ellipse id="SvgjsEllipse2263" rx="6" ry="6" cx="6" cy="6" fill="#ffffff"></ellipse><ellipse id="SvgjsEllipse2264" rx="6" ry="6" cx="6" cy="6" fill="none" stroke="#434b54"></ellipse><path id="SvgjsPath2265" d="M 2, 6 L 10, 6" stroke="#434b54"></path></g><g id="SvgjsG2266"><ellipse id="SvgjsEllipse2267" rx="8" ry="8" cx="8" cy="8" fill="#ffffff"></ellipse><ellipse id="SvgjsEllipse2268" rx="8" ry="8" cx="8" cy="8" fill="none" stroke="#434b54" stroke-width="1"></ellipse><text id="SvgjsText2269" font-family="Helvetica, Arial, sans-serif" fill="#434b54" style="user-select: none; cursor: default;"></text></g><ellipse id="SvgjsEllipse2270" rx="8" ry="8" cx="8" cy="8" fill="none" style="pointer-events: visible;"></ellipse></g></g></g><g id="SvgjsG2095" data-name="branch" class="branch" transform="translate(410.65283203125 50.80000000000001)"><g id="SvgjsG2088" data-name="topic"><g id="SvgjsG2089" data-name="topic-shape-group"><path id="SvgjsPath2092" data-name="topic-shape-fill" opacity="0" d="M -41.692970275878906 -6Q -41.692970275878906 -11 -36.858402361595225 -12.275520710211607Q 0 -22 36.858402361595225 -12.275520710211607Q 41.692970275878906 -11 41.692970275878906 -6L 41.692970275878906 6Q 41.692970275878906 11 36.858402361595225 12.275520710211607Q 0 22 -36.858402361595225 12.275520710211607Q -41.692970275878906 11 -41.692970275878906 6Z"></path><path id="SvgjsPath2093" data-name="topic-shape" fill="none" stroke-width="0" d="M -41.692970275878906 -6Q -41.692970275878906 -11 -36.858402361595225 -12.275520710211607Q 0 -22 36.858402361595225 -12.275520710211607Q 41.692970275878906 -11 41.692970275878906 -6L 41.692970275878906 6Q 41.692970275878906 11 36.858402361595225 12.275520710211607Q 0 22 -36.858402361595225 12.275520710211607Q -41.692970275878906 11 -41.692970275878906 6Z"></path><g id="SvgjsG2090" data-name="inner-element-group"><g id="SvgjsG2112" data-name="topic-title-text-group"><text id="SvgjsText2111" font-family="'Montserrat','Nunito Sans','Microsoft YaHei','Microsoft JhengHei',sans-serif" font-size="14" font-weight="normal" fill="#434b54" font-style="normal" text-decoration="none" text-anchor="start" transform="translate(-35.692970275878906 -9.1)" style="user-select: none; cursor: default;"><tspan id="SvgjsTspan2307" font-family="'Montserrat','Nunito Sans','Microsoft YaHei','Microsoft JhengHei',sans-serif" font-size="14" font-weight="normal" fill="#434b54" font-style="normal" text-decoration="none" dy="14" x="0" style="white-space: pre;">Subtopic 1</tspan></text></g></g></g></g></g><g id="SvgjsG2105" data-name="branch" class="branch" transform="translate(410.65283203125 14.500000000000007)"><g id="SvgjsG2098" data-name="topic"><g id="SvgjsG2099" data-name="topic-shape-group"><path id="SvgjsPath2102" data-name="topic-shape-fill" fill="#fb5151" stroke="none" opacity="1" d="M -22.869972229003906 -13.8L 22.869972229003906 -13.8Q 27.869972229003906 -13.8  27.869972229003906 -8.8L 27.869972229003906 8.8Q 27.869972229003906 13.8  22.869972229003906 13.8L -22.869972229003906 13.8Q -27.869972229003906 13.8  -27.869972229003906 8.8L -27.869972229003906 -8.8Q -27.869972229003906 -13.8  -22.869972229003906 -13.8"></path><path id="SvgjsPath2103" data-name="topic-shape" fill="none" stroke-width="0" d="M -22.869972229003906 -13.8L 22.869972229003906 -13.8Q 27.869972229003906 -13.8  27.869972229003906 -8.8L 27.869972229003906 8.8Q 27.869972229003906 13.8  22.869972229003906 13.8L -22.869972229003906 13.8Q -27.869972229003906 13.8  -27.869972229003906 8.8L -27.869972229003906 -8.8Q -27.869972229003906 -13.8  -22.869972229003906 -13.8" clip-path="url(&quot;#SvgjsClipPath2330&quot;)"></path><g id="SvgjsG2100" data-name="inner-element-group"><g id="SvgjsG2109" data-name="topic-title-text-group"><text id="SvgjsText2108" font-family="'Montserrat','Nunito Sans','Microsoft YaHei','Microsoft JhengHei',sans-serif" font-size="12" font-weight="normal" fill="#ffffff" font-style="italic" text-decoration="none" text-anchor="middle" transform="translate(0 -7.800000000000001)" style="user-select: none; cursor: default;"><tspan id="SvgjsTspan2310" font-family="'Montserrat','Nunito Sans','Microsoft YaHei','Microsoft JhengHei',sans-serif" font-size="12" font-weight="normal" fill="#ffffff" font-style="italic" text-decoration="none" dy="12" x="0" style="white-space: pre;">Callout</tspan></text></g></g></g></g></g><g id="SvgjsG2121" data-name="branch" class="branch" transform="translate(412.11583709716797 92.80000000000001)"><g id="SvgjsG2114" data-name="topic"><g id="SvgjsG2115" data-name="topic-shape-group"><path id="SvgjsPath2118" data-name="topic-shape-fill" opacity="0" d="M -43.155975341796875 -6Q -43.155975341796875 -11 -38.31088808133336 -12.2349613105252Q 0 -22 38.31088808133336 -12.2349613105252Q 43.155975341796875 -11 43.155975341796875 -6L 43.155975341796875 6Q 43.155975341796875 11 38.31088808133336 12.2349613105252Q 0 22 -38.31088808133336 12.2349613105252Q -43.155975341796875 11 -43.155975341796875 6Z"></path><path id="SvgjsPath2119" data-name="topic-shape" fill="none" stroke-width="0" d="M -43.155975341796875 -6Q -43.155975341796875 -11 -38.31088808133336 -12.2349613105252Q 0 -22 38.31088808133336 -12.2349613105252Q 43.155975341796875 -11 43.155975341796875 -6L 43.155975341796875 6Q 43.155975341796875 11 38.31088808133336 12.2349613105252Q 0 22 -38.31088808133336 12.2349613105252Q -43.155975341796875 11 -43.155975341796875 6Z"></path><g id="SvgjsG2116" data-name="inner-element-group"><g id="SvgjsG2125" data-name="topic-title-text-group"><text id="SvgjsText2124" font-family="'Montserrat','Nunito Sans','Microsoft YaHei','Microsoft JhengHei',sans-serif" font-size="14" font-weight="normal" fill="#434b54" font-style="normal" text-decoration="none" text-anchor="start" transform="translate(-37.155975341796875 -9.1)" style="user-select: none; cursor: default;"><tspan id="SvgjsTspan2311" font-family="'Montserrat','Nunito Sans','Microsoft YaHei','Microsoft JhengHei',sans-serif" font-size="14" font-weight="normal" fill="#434b54" font-style="normal" text-decoration="none" dy="14" x="0" style="white-space: pre;">Subtopic 2</tspan></text></g></g></g></g></g><g id="SvgjsG2137" data-name="branch" class="branch" transform="translate(-249.7999038696289 64.7)"><g id="SvgjsG2130" data-name="topic"><g id="SvgjsG2131" data-name="topic-shape-group"><path id="SvgjsPath2134" data-name="topic-shape-fill" fill="#e8e8e8" stroke="none" opacity="0" d="M -70.83995056152344 -23.200000000000003L 70.83995056152344 -23.200000000000003Q 75.83995056152344 -23.200000000000003  75.83995056152344 -18.200000000000003L 75.83995056152344 18.200000000000003Q 75.83995056152344 23.200000000000003  70.83995056152344 23.200000000000003L -70.83995056152344 23.200000000000003Q -75.83995056152344 23.200000000000003  -75.83995056152344 18.200000000000003L -75.83995056152344 -18.200000000000003Q -75.83995056152344 -23.200000000000003  -70.83995056152344 -23.200000000000003"></path><path id="SvgjsPath2135" data-name="topic-shape" fill="none" stroke="#434b54" stroke-width="3" d="M -70.83995056152344 -23.200000000000003L 70.83995056152344 -23.200000000000003Q 75.83995056152344 -23.200000000000003  75.83995056152344 -18.200000000000003L 75.83995056152344 18.200000000000003Q 75.83995056152344 23.200000000000003  70.83995056152344 23.200000000000003L -70.83995056152344 23.200000000000003Q -75.83995056152344 23.200000000000003  -75.83995056152344 18.200000000000003L -75.83995056152344 -18.200000000000003Q -75.83995056152344 -23.200000000000003  -70.83995056152344 -23.200000000000003"></path><g id="SvgjsG2132" data-name="inner-element-group"><g id="SvgjsG2167" data-name="topic-title-text-group"><text id="SvgjsText2166" font-family="'Montserrat','Nunito Sans','Microsoft YaHei','Microsoft JhengHei',sans-serif" font-size="18" font-weight="500" fill="#434b54" font-style="normal" text-decoration="none" text-anchor="middle" transform="translate(0 -11.700000000000001)" style="user-select: none; cursor: default;"><tspan id="SvgjsTspan2312" font-family="'Montserrat','Nunito Sans','Microsoft YaHei','Microsoft JhengHei',sans-serif" font-size="18" font-weight="500" fill="#434b54" font-style="normal" text-decoration="none" dy="18" x="0" style="white-space: pre;">Main Topic 4</tspan></text></g></g></g><g id="SvgjsG2271" data-name="collapse-extended" class="collapseextend" transform="translate(-96.33995056152344 -6)" style="cursor: pointer; display: none;"><line id="SvgjsLine2272" stroke-width="0" x1="12" y1="6" x2="19" y2="6" stroke="#434b54"></line><g id="SvgjsG2273"><ellipse id="SvgjsEllipse2274" rx="6" ry="6" cx="6" cy="6" fill="#ffffff"></ellipse><ellipse id="SvgjsEllipse2275" rx="6" ry="6" cx="6" cy="6" fill="none" stroke="#434b54"></ellipse><path id="SvgjsPath2276" d="M 2, 6 L 10, 6" stroke="#434b54"></path></g><g id="SvgjsG2277"><ellipse id="SvgjsEllipse2278" rx="8" ry="8" cx="8" cy="8" fill="#ffffff"></ellipse><ellipse id="SvgjsEllipse2279" rx="8" ry="8" cx="8" cy="8" fill="none" stroke="#434b54" stroke-width="1"></ellipse><text id="SvgjsText2280" font-family="Helvetica, Arial, sans-serif" fill="#434b54" style="user-select: none; cursor: default;"></text></g><ellipse id="SvgjsEllipse2281" rx="8" ry="8" cx="8" cy="8" fill="none" style="pointer-events: visible;"></ellipse></g></g></g><g id="SvgjsG2147" data-name="branch" class="branch" transform="translate(-420.83282470703125 43.7)"><g id="SvgjsG2140" data-name="topic"><g id="SvgjsG2141" data-name="topic-shape-group"><path id="SvgjsPath2144" data-name="topic-shape-fill" opacity="0" d="M -41.692970275878906 -6Q -41.692970275878906 -11 -36.858402361595225 -12.275520710211607Q 0 -22 36.858402361595225 -12.275520710211607Q 41.692970275878906 -11 41.692970275878906 -6L 41.692970275878906 6Q 41.692970275878906 11 36.858402361595225 12.275520710211607Q 0 22 -36.858402361595225 12.275520710211607Q -41.692970275878906 11 -41.692970275878906 6Z"></path><path id="SvgjsPath2145" data-name="topic-shape" fill="none" stroke-width="0" d="M -41.692970275878906 -6Q -41.692970275878906 -11 -36.858402361595225 -12.275520710211607Q 0 -22 36.858402361595225 -12.275520710211607Q 41.692970275878906 -11 41.692970275878906 -6L 41.692970275878906 6Q 41.692970275878906 11 36.858402361595225 12.275520710211607Q 0 22 -36.858402361595225 12.275520710211607Q -41.692970275878906 11 -41.692970275878906 6Z"></path><g id="SvgjsG2142" data-name="inner-element-group"><g id="SvgjsG2151" data-name="topic-title-text-group"><text id="SvgjsText2150" font-family="'Montserrat','Nunito Sans','Microsoft YaHei','Microsoft JhengHei',sans-serif" font-size="14" font-weight="normal" fill="#434b54" font-style="normal" text-decoration="none" text-anchor="start" transform="translate(-35.692970275878906 -9.1)" style="user-select: none; cursor: default;"><tspan id="SvgjsTspan2313" font-family="'Montserrat','Nunito Sans','Microsoft YaHei','Microsoft JhengHei',sans-serif" font-size="14" font-weight="normal" fill="#434b54" font-style="normal" text-decoration="none" dy="14" x="0" style="white-space: pre;">Subtopic 1</tspan></text></g></g></g></g></g><g id="SvgjsG2160" data-name="branch" class="branch" transform="translate(-422.2958297729492 85.7)"><g id="SvgjsG2153" data-name="topic"><g id="SvgjsG2154" data-name="topic-shape-group"><path id="SvgjsPath2157" data-name="topic-shape-fill" opacity="0" d="M -43.155975341796875 -6Q -43.155975341796875 -11 -38.31088808133336 -12.2349613105252Q 0 -22 38.31088808133336 -12.2349613105252Q 43.155975341796875 -11 43.155975341796875 -6L 43.155975341796875 6Q 43.155975341796875 11 38.31088808133336 12.2349613105252Q 0 22 -38.31088808133336 12.2349613105252Q -43.155975341796875 11 -43.155975341796875 6Z"></path><path id="SvgjsPath2158" data-name="topic-shape" fill="none" stroke-width="0" d="M -43.155975341796875 -6Q -43.155975341796875 -11 -38.31088808133336 -12.2349613105252Q 0 -22 38.31088808133336 -12.2349613105252Q 43.155975341796875 -11 43.155975341796875 -6L 43.155975341796875 6Q 43.155975341796875 11 38.31088808133336 12.2349613105252Q 0 22 -38.31088808133336 12.2349613105252Q -43.155975341796875 11 -43.155975341796875 6Z"></path><g id="SvgjsG2155" data-name="inner-element-group"><g id="SvgjsG2164" data-name="topic-title-text-group"><text id="SvgjsText2163" font-family="'Montserrat','Nunito Sans','Microsoft YaHei','Microsoft JhengHei',sans-serif" font-size="14" font-weight="normal" fill="#434b54" font-style="normal" text-decoration="none" text-anchor="start" transform="translate(-37.155975341796875 -9.1)" style="user-select: none; cursor: default;"><tspan id="SvgjsTspan2314" font-family="'Montserrat','Nunito Sans','Microsoft YaHei','Microsoft JhengHei',sans-serif" font-size="14" font-weight="normal" fill="#434b54" font-style="normal" text-decoration="none" dy="14" x="0" style="white-space: pre;">Subtopic 2</tspan></text></g></g></g></g></g><g id="SvgjsG2176" data-name="branch" class="branch" transform="translate(-239.73690795898438 -64.7)"><g id="SvgjsG2169" data-name="topic"><g id="SvgjsG2170" data-name="topic-shape-group"><path id="SvgjsPath2173" data-name="topic-shape-fill" fill="#e8e8e8" stroke="none" opacity="0" d="M -70.7769546508789 -23.200000000000003L 70.7769546508789 -23.200000000000003Q 75.7769546508789 -23.200000000000003  75.7769546508789 -18.200000000000003L 75.7769546508789 18.200000000000003Q 75.7769546508789 23.200000000000003  70.7769546508789 23.200000000000003L -70.7769546508789 23.200000000000003Q -75.7769546508789 23.200000000000003  -75.7769546508789 18.200000000000003L -75.7769546508789 -18.200000000000003Q -75.7769546508789 -23.200000000000003  -70.7769546508789 -23.200000000000003"></path><path id="SvgjsPath2174" data-name="topic-shape" fill="none" stroke="#434b54" stroke-width="3" d="M -70.7769546508789 -23.200000000000003L 70.7769546508789 -23.200000000000003Q 75.7769546508789 -23.200000000000003  75.7769546508789 -18.200000000000003L 75.7769546508789 18.200000000000003Q 75.7769546508789 23.200000000000003  70.7769546508789 23.200000000000003L -70.7769546508789 23.200000000000003Q -75.7769546508789 23.200000000000003  -75.7769546508789 18.200000000000003L -75.7769546508789 -18.200000000000003Q -75.7769546508789 -23.200000000000003  -70.7769546508789 -23.200000000000003"></path><g id="SvgjsG2171" data-name="inner-element-group"><g id="SvgjsG2206" data-name="topic-title-text-group"><text id="SvgjsText2205" font-family="'Montserrat','Nunito Sans','Microsoft YaHei','Microsoft JhengHei',sans-serif" font-size="18" font-weight="500" fill="#434b54" font-style="normal" text-decoration="none" text-anchor="middle" transform="translate(0 -11.700000000000001)" style="user-select: none; cursor: default;"><tspan id="SvgjsTspan2315" font-family="'Montserrat','Nunito Sans','Microsoft YaHei','Microsoft JhengHei',sans-serif" font-size="18" font-weight="500" fill="#434b54" font-style="normal" text-decoration="none" dy="18" x="0" style="white-space: pre;">Main Topic 3</tspan></text></g></g></g><g id="SvgjsG2282" data-name="collapse-extended" class="collapseextend" transform="translate(-96.2769546508789 -6)" style="cursor: pointer; display: none;"><line id="SvgjsLine2283" stroke-width="0" x1="12" y1="6" x2="19" y2="6" stroke="#434b54"></line><g id="SvgjsG2284"><ellipse id="SvgjsEllipse2285" rx="6" ry="6" cx="6" cy="6" fill="#ffffff"></ellipse><ellipse id="SvgjsEllipse2286" rx="6" ry="6" cx="6" cy="6" fill="none" stroke="#434b54"></ellipse><path id="SvgjsPath2287" d="M 2, 6 L 10, 6" stroke="#434b54"></path></g><g id="SvgjsG2288"><ellipse id="SvgjsEllipse2289" rx="8" ry="8" cx="8" cy="8" fill="#ffffff"></ellipse><ellipse id="SvgjsEllipse2290" rx="8" ry="8" cx="8" cy="8" fill="none" stroke="#434b54" stroke-width="1"></ellipse><text id="SvgjsText2291" font-family="Helvetica, Arial, sans-serif" fill="#434b54" style="user-select: none; cursor: default;"></text></g><ellipse id="SvgjsEllipse2292" rx="8" ry="8" cx="8" cy="8" fill="none" style="pointer-events: visible;"></ellipse></g></g></g><g id="SvgjsG2186" data-name="branch" class="branch" transform="translate(-410.7068328857422 -85.7)"><g id="SvgjsG2179" data-name="topic"><g id="SvgjsG2180" data-name="topic-shape-group"><path id="SvgjsPath2183" data-name="topic-shape-fill" opacity="0" d="M -41.692970275878906 -6Q -41.692970275878906 -11 -36.858402361595225 -12.275520710211607Q 0 -22 36.858402361595225 -12.275520710211607Q 41.692970275878906 -11 41.692970275878906 -6L 41.692970275878906 6Q 41.692970275878906 11 36.858402361595225 12.275520710211607Q 0 22 -36.858402361595225 12.275520710211607Q -41.692970275878906 11 -41.692970275878906 6Z"></path><path id="SvgjsPath2184" data-name="topic-shape" fill="none" stroke-width="0" d="M -41.692970275878906 -6Q -41.692970275878906 -11 -36.858402361595225 -12.275520710211607Q 0 -22 36.858402361595225 -12.275520710211607Q 41.692970275878906 -11 41.692970275878906 -6L 41.692970275878906 6Q 41.692970275878906 11 36.858402361595225 12.275520710211607Q 0 22 -36.858402361595225 12.275520710211607Q -41.692970275878906 11 -41.692970275878906 6Z"></path><g id="SvgjsG2181" data-name="inner-element-group"><g id="SvgjsG2190" data-name="topic-title-text-group"><text id="SvgjsText2189" font-family="'Montserrat','Nunito Sans','Microsoft YaHei','Microsoft JhengHei',sans-serif" font-size="14" font-weight="normal" fill="#434b54" font-style="normal" text-decoration="none" text-anchor="start" transform="translate(-35.692970275878906 -9.1)" style="user-select: none; cursor: default;"><tspan id="SvgjsTspan2316" font-family="'Montserrat','Nunito Sans','Microsoft YaHei','Microsoft JhengHei',sans-serif" font-size="14" font-weight="normal" fill="#434b54" font-style="normal" text-decoration="none" dy="14" x="0" style="white-space: pre;">Subtopic 1</tspan></text></g></g></g></g></g><g id="SvgjsG2199" data-name="branch" class="branch" transform="translate(-412.16983795166016 -43.7)"><g id="SvgjsG2192" data-name="topic"><g id="SvgjsG2193" data-name="topic-shape-group"><path id="SvgjsPath2196" data-name="topic-shape-fill" opacity="0" d="M -43.155975341796875 -6Q -43.155975341796875 -11 -38.31088808133336 -12.2349613105252Q 0 -22 38.31088808133336 -12.2349613105252Q 43.155975341796875 -11 43.155975341796875 -6L 43.155975341796875 6Q 43.155975341796875 11 38.31088808133336 12.2349613105252Q 0 22 -38.31088808133336 12.2349613105252Q -43.155975341796875 11 -43.155975341796875 6Z"></path><path id="SvgjsPath2197" data-name="topic-shape" fill="none" stroke-width="0" d="M -43.155975341796875 -6Q -43.155975341796875 -11 -38.31088808133336 -12.2349613105252Q 0 -22 38.31088808133336 -12.2349613105252Q 43.155975341796875 -11 43.155975341796875 -6L 43.155975341796875 6Q 43.155975341796875 11 38.31088808133336 12.2349613105252Q 0 22 -38.31088808133336 12.2349613105252Q -43.155975341796875 11 -43.155975341796875 6Z"></path><g id="SvgjsG2194" data-name="inner-element-group"><g id="SvgjsG2203" data-name="topic-title-text-group"><text id="SvgjsText2202" font-family="'Montserrat','Nunito Sans','Microsoft YaHei','Microsoft JhengHei',sans-serif" font-size="14" font-weight="normal" fill="#434b54" font-style="normal" text-decoration="none" text-anchor="start" transform="translate(-37.155975341796875 -9.1)" style="user-select: none; cursor: default;"><tspan id="SvgjsTspan2317" font-family="'Montserrat','Nunito Sans','Microsoft YaHei','Microsoft JhengHei',sans-serif" font-size="14" font-weight="normal" fill="#434b54" font-style="normal" text-decoration="none" dy="14" x="0" style="white-space: pre;">Subtopic 2</tspan></text></g></g></g></g></g></g><g id="SvgjsG2025" data-name="relationship-container"><g id="SvgjsG2228" data-name="relationship" class="relationship"><path id="SvgjsPath2229" data-name="relationship-path" clip-path="url(&quot;#SvgjsClipPath2247&quot;)" style="fill: none;" stroke-dasharray="3, 3" stroke="#fb5151" stroke-width="3" marker-start="url(#SvgjsMarker2318)" marker-end="url(#SvgjsMarker2320)" d="M -473.41278327097405 31.616816721176747C -504.0469302159617 24.89432524386124  -502.54380680588207 -63.79637318939564  -463.14657805688034 -73.24429351859416"></path><path id="SvgjsPath2231" data-name="relationship-shadow-action-path" stroke="none" stroke-width="13" style="stroke-opacity: 0; stroke: none; fill: none;" d="M -473.41278327097405 31.616816721176747C -504.0469302159617 24.89432524386124  -502.54380680588207 -63.79637318939564  -463.14657805688034 -73.24429351859416"></path><text id="SvgjsText2232" font-family="'Montserrat','Montserrat','Nunito Sans','Microsoft YaHei','Microsoft JhengHei',sans-serif" data-name="relationship-title" style="user-select: none; cursor: default; pointer-events: none; display: none;" font-size="12" font-weight="normal" font-style="italic" text-decoration="none" fill="#434b54" x="-494.2942810058594" y="-143.93936920166016"><tspan id="SvgjsTspan2332" style="white-space: pre;">Relationship</tspan></text></g></g><g id="SvgjsG2028" data-name="cloneG" opacity="0.5"></g></g></g><defs id="SvgjsDefs2011"><rect id="SvgjsRect2244" width="440.9003601074219" height="504.8611145019531" fill="white" x="-704.0469360351562" y="-273.2442932128906"></rect><rect id="SvgjsRect2245" width="0" height="0" fill="black" style="display: none;"></rect><clipPath id="SvgjsClipPath2247" style="display: none;"><path id="SvgjsPath2246" d="M -704.0469360351562 -273.2442932128906 L-263.1465759277344 -273.2442932128906 L-263.1465759277344 231.6168212890625 L-704.0469360351562 231.6168212890625 M 0 0 L0 0 L0 0 L0 0" fill="black" clip-rule="evenodd"></path></clipPath><clipPath id="SvgjsClipPath2294"><path id="SvgjsPath2293" d="M -105.95995330810547 -32.1L 105.95995330810547 -32.1Q 110.95995330810547 -32.1  110.95995330810547 -27.1L 110.95995330810547 27.1Q 110.95995330810547 32.1  105.95995330810547 32.1L -105.95995330810547 32.1Q -110.95995330810547 32.1  -110.95995330810547 27.1L -110.95995330810547 -27.1Q -110.95995330810547 -32.1  -105.95995330810547 -32.1 M -10000 -10000 L10000 -10000 L10000 10000 L-10000 10000" fill="black" clip-rule="evenodd" transform="translate(0 0) "></path></clipPath><marker id="SvgjsMarker2297" markerWidth="8" markerHeight="8" refX="5" refY="4" viewBox="0 0 8 8" orient="auto"><path id="SvgjsPath2298" d="" stroke="#2a7ac2" stroke-width="1" stroke-dasharray="none" fill="none"></path></marker><marker id="SvgjsMarker2299" markerWidth="8" markerHeight="8" refX="2" refY="4" viewBox="0 0 8 8" orient="auto"><path id="SvgjsPath2300" d="M 2 2 L 6 4 L 2 6" stroke-width="0" stroke-dasharray="none" stroke="#2a7ac2" fill="#2a7ac2"></path></marker><marker id="SvgjsMarker2318" markerWidth="8" markerHeight="8" refX="6" refY="4" viewBox="0 0 8 8" orient="auto"><path id="SvgjsPath2319" d="M 4 2 A 2 2 0 1 1 4 6 A 2 2 0 1 1 4 2 Z" stroke-width="0" stroke-dasharray="none" stroke="#fb5151" fill="#fb5151"></path></marker><marker id="SvgjsMarker2320" markerWidth="8" markerHeight="8" refX="2" refY="4" viewBox="0 0 8 8" orient="auto"><path id="SvgjsPath2321" d="M 2 2 L 6 4 L 2 6" stroke-width="0" stroke-dasharray="none" stroke="#fb5151" fill="#fb5151"></path></marker><clipPath id="SvgjsClipPath2330"><path id="SvgjsPath2329" d="M -8.65283203125 12.499999999999993 L7.34716796875 12.499999999999993 L7.34716796875 12.499999999999993 L-8.65283203125 12.499999999999993 M -10000 -10000 L10000 -10000 L10000 10000 L-10000 10000" fill="black" clip-rule="evenodd"></path></clipPath></defs></svg>