<?xml version="1.0" standalone="no"?><!DOCTYPE svg PUBLIC "-//W3C//DTD SVG 1.1//EN" "http://www.w3.org/Graphics/SVG/1.1/DTD/svg11.dtd" [<!ENTITY nbsp "&#160;">]><svg id="SvgjsSvg2323" xmlns="http://www.w3.org/2000/svg" version="1.1" width="228" height="139.99999999999997" xmlns:xlink="http://www.w3.org/1999/xlink" style="display: block; background-color: rgb(255, 255, 255);" viewBox="0 0 998.680360155625 613.2247825516995"><defs><style type="text/css"><![CDATA[

]]></style></defs><g id="SvgjsG2325" data-name="container" transform="scale(1) translate(523.6617930983607 305.11239127584975)"><g id="SvgjsG2333" data-name="sheet"><g id="SvgjsG2334" data-name="matrix-container"></g><g id="SvgjsG2335" data-name="boundary-container"><g id="SvgjsG2521" data-name="boundary-group" class="boundary"><path id="SvgjsPath2522" data-name="boundary-path" stroke="#8793a5" fill="#f3f7fc" stroke-width="3" fill-opacity="0.2" stroke-dasharray="3, 3" d="M -431.216796875 23L -191.05859375 23Q -171.05859375 23 -171.05859375 43L -171.05859375 74.8Q -171.05859375 94.8 -191.05859375 94.8L -431.216796875 94.8Q -451.216796875 94.8 -451.216796875 74.8L -451.216796875 43Q -451.216796875 23 -431.216796875 23z"></path><g id="SvgjsG2524" data-name="boundary-title-group" transform="translate(-456.216796875 18)" style="display: none;"><rect id="SvgjsRect2526" data-name="boundary-title-bg" stroke="#8793a5" fill="#f3f7fc" stroke-width="3"></rect><text id="SvgjsText2525" font-family="Helvetica, Arial, sans-serif" data-name="boundary-title" style="user-select: none; cursor: default;"></text></g></g></g><g id="SvgjsG2336" data-name="connection-container"><path id="SvgjsPath2350" data-name="connection" stroke-linecap="round"></path><path id="SvgjsPath2360" data-name="connection" stroke-linecap="round" stroke-width="0" d="M 80.70572916666666 0L 83.24390823187187 3.71586423769141Q 113.69486309298298 -61.161378587436204 172.90465343840174 -61.161378587436204L 171.21253406159826 -63.63862141256381Q 108.61850496257256 -63.63862141256381 78.16755010146144 -3.71586423769141L 80.70572916666666 0 Z" fill="#fd6d5a" marker-end="none" clip-path="url(&quot;#SvgjsClipPath2607&quot;)"></path><path id="SvgjsPath2370" data-name="connection" stroke-linecap="round" stroke="#fd6d5a" stroke-width="2" d="M 308.34765625 -62.400000000000006L 321.34765625 -62.400000000000006Q 329.14765625 -75.2 360.34765625 -75.2" marker-end="none" fill="none"></path><path id="SvgjsPath2383" data-name="connection" stroke-linecap="round" stroke="#fd6d5a" stroke-width="2" d="M 308.34765625 -62.400000000000006L 321.34765625 -62.400000000000006Q 329.14765625 -49.60000000000001 360.34765625 -49.60000000000001" marker-end="none" fill="none"></path><path id="SvgjsPath2399" data-name="connection" stroke-linecap="round" stroke-width="0" d="M 80.70572916666666 0L 78.16755010146144 3.71586423769141Q 108.61850496257256 63.63862141256381 171.21253406159826 63.63862141256381L 172.90465343840174 61.161378587436204Q 113.69486309298298 61.161378587436204 83.24390823187187 -3.71586423769141L 80.70572916666666 0 Z" fill="#feb40b" marker-end="none" clip-path="url(&quot;#SvgjsClipPath2607&quot;)"></path><path id="SvgjsPath2409" data-name="connection" stroke-linecap="round" stroke="#feb40b" stroke-width="2" d="M 308.34765625 62.400000000000006L 321.34765625 62.400000000000006Q 329.14765625 49.60000000000001 360.34765625 49.60000000000001" marker-end="none" fill="none"></path><path id="SvgjsPath2419" data-name="connection" stroke-linecap="round" d="M 403 25 L 395 32 L 387 25" stroke-width="0" fill="#8793a5" marker-end="none"></path><path id="SvgjsPath2435" data-name="connection" stroke-linecap="round" stroke="#feb40b" stroke-width="2" d="M 308.34765625 62.400000000000006L 321.34765625 62.400000000000006Q 329.14765625 75.2 360.34765625 75.2" marker-end="none" fill="none"></path><path id="SvgjsPath2451" data-name="connection" stroke-linecap="round" stroke-width="0" d="M -80.70572916666666 0L -83.06496297819997 -3.8319728368711075Q -116.84925117264443 61.12267572104297 -182.8450050205111 61.12267572104297L -181.2721824794889 63.677324278957045Q -112.1307835495778 63.677324278957045 -78.34649535513334 3.8319728368711075L -80.70572916666666 0 Z" fill="#6dc354" marker-end="none" clip-path="url(&quot;#SvgjsClipPath2607&quot;)"></path><path id="SvgjsPath2461" data-name="connection" stroke-linecap="round" stroke="#6dc354" stroke-width="2" d="M -318.34765625 62.400000000000006L -331.34765625 62.400000000000006Q -339.14765625 49.60000000000001 -370.34765625 49.60000000000001" marker-end="none" fill="none"></path><path id="SvgjsPath2474" data-name="connection" stroke-linecap="round" stroke="#6dc354" stroke-width="2" d="M -318.34765625 62.400000000000006L -331.34765625 62.400000000000006Q -339.14765625 75.2 -370.34765625 75.2" marker-end="none" fill="none"></path><path id="SvgjsPath2490" data-name="connection" stroke-linecap="round" stroke-width="0" d="M -80.70572916666666 0L -78.16755010146144 -3.71586423769141Q -108.61850496257256 -63.63862141256381 -171.21253406159826 -63.63862141256381L -172.90465343840174 -61.161378587436204Q -113.69486309298298 -61.161378587436204 -83.24390823187187 3.71586423769141L -80.70572916666666 0 Z" fill="#518cd8" marker-end="none" clip-path="url(&quot;#SvgjsClipPath2607&quot;)"></path><path id="SvgjsPath2500" data-name="connection" stroke-linecap="round" stroke="#518cd8" stroke-width="2" d="M -308.34765625 -62.400000000000006L -321.34765625 -62.400000000000006Q -329.14765625 -75.2 -360.34765625 -75.2" marker-end="none" fill="none"></path><path id="SvgjsPath2513" data-name="connection" stroke-linecap="round" stroke="#518cd8" stroke-width="2" d="M -308.34765625 -62.400000000000006L -321.34765625 -62.400000000000006Q -329.14765625 -49.60000000000001 -360.34765625 -49.60000000000001" marker-end="none" fill="none"></path></g><g id="SvgjsG2337" data-name="branch-container"><g id="SvgjsG2349" data-name="branch" class="branch"><g id="SvgjsG2342" data-name="topic"><g id="SvgjsG2343" data-name="topic-shape-group"><path id="SvgjsPath2346" data-name="topic-shape-fill" fill="#ffffff" stroke="none" opacity="1" d="M -114.55859375 -34.7L 114.55859375 -34.7Q 119.55859375 -34.7  119.55859375 -29.700000000000003L 119.55859375 29.700000000000003Q 119.55859375 34.7  114.55859375 34.7L -114.55859375 34.7Q -119.55859375 34.7  -119.55859375 29.700000000000003L -119.55859375 -29.700000000000003Q -119.55859375 -34.7  -114.55859375 -34.7"></path><path id="SvgjsPath2347" data-name="topic-shape" fill="none" stroke-width="3" d="M -114.55859375 -34.7L 114.55859375 -34.7Q 119.55859375 -34.7  119.55859375 -29.700000000000003L 119.55859375 29.700000000000003Q 119.55859375 34.7  114.55859375 34.7L -114.55859375 34.7Q -119.55859375 34.7  -119.55859375 29.700000000000003L -119.55859375 -29.700000000000003Q -119.55859375 -34.7  -114.55859375 -34.7" stroke="#8793a5"></path><g id="SvgjsG2344" data-name="inner-element-group"><g id="SvgjsG2540" data-name="topic-title-text-group"><text id="SvgjsText2539" font-family="'Open Sans','Nunito Sans','Microsoft YaHei','Microsoft JhengHei',sans-serif" font-size="28" font-weight="600" fill="#434b54" font-style="normal" text-decoration="none" text-anchor="middle" transform="translate(0 -18.2)" style="user-select: none; cursor: default;"><tspan id="SvgjsTspan2615" font-family="'Open Sans','Nunito Sans','Microsoft YaHei','Microsoft JhengHei',sans-serif" font-size="28" font-weight="600" fill="#434b54" font-style="normal" text-decoration="none" dy="28" x="0" style="white-space: pre;">Central Topic</tspan></text></g></g></g></g></g><g id="SvgjsG2359" data-name="branch" class="branch" transform="translate(239.703125 -62.400000000000006)"><g id="SvgjsG2352" data-name="topic"><g id="SvgjsG2353" data-name="topic-shape-group"><path id="SvgjsPath2356" data-name="topic-shape-fill" fill="#ffffff" stroke="none" opacity="1" d="M -62.64453125 -21.4L 62.64453125 -21.4Q 67.64453125 -21.4  67.64453125 -16.4L 67.64453125 16.4Q 67.64453125 21.4  62.64453125 21.4L -62.64453125 21.4Q -67.64453125 21.4  -67.64453125 16.4L -67.64453125 -16.4Q -67.64453125 -21.4  -62.64453125 -21.4"></path><path id="SvgjsPath2357" data-name="topic-shape" fill="none" stroke="#fd6d5a" stroke-width="2" d="M -62.64453125 -21.4L 62.64453125 -21.4Q 67.64453125 -21.4  67.64453125 -16.4L 67.64453125 16.4Q 67.64453125 21.4  62.64453125 21.4L -62.64453125 21.4Q -67.64453125 21.4  -67.64453125 16.4L -67.64453125 -16.4Q -67.64453125 -21.4  -62.64453125 -21.4"></path><g id="SvgjsG2354" data-name="inner-element-group"><g id="SvgjsG2389" data-name="topic-title-text-group"><text id="SvgjsText2388" font-family="'Open Sans','Nunito Sans','Microsoft YaHei','Microsoft JhengHei',sans-serif" font-size="16" font-weight="600" fill="#434b54" font-style="normal" text-decoration="none" text-anchor="start" transform="translate(-48.64453125 -10.4)" style="user-select: none; cursor: default;"><tspan id="SvgjsTspan2616" font-family="'Open Sans','Nunito Sans','Microsoft YaHei','Microsoft JhengHei',sans-serif" font-size="16" font-weight="600" fill="#434b54" font-style="normal" text-decoration="none" dy="16" x="0" style="white-space: pre;">Main Topic 1</tspan></text></g></g></g><g id="SvgjsG2562" data-name="collapse-extended" class="collapseextend" transform="translate(75.64453125 -6)" style="cursor: pointer; display: none;"><line id="SvgjsLine2563" stroke-width="0" x1="0" y1="6" x2="-7" y2="6" stroke="#fd6d5a"></line><g id="SvgjsG2564"><ellipse id="SvgjsEllipse2565" rx="6" ry="6" cx="6" cy="6" fill="#ffffff"></ellipse><ellipse id="SvgjsEllipse2566" rx="6" ry="6" cx="6" cy="6" fill="none" stroke="#fd6d5a"></ellipse><path id="SvgjsPath2567" d="M 2, 6 L 10, 6" stroke="#fd6d5a"></path></g><g id="SvgjsG2568"><ellipse id="SvgjsEllipse2569" rx="8" ry="8" cx="8" cy="8" fill="#ffffff"></ellipse><ellipse id="SvgjsEllipse2570" rx="8" ry="8" cx="8" cy="8" fill="none" stroke="#fd6d5a" stroke-width="1"></ellipse><text id="SvgjsText2571" font-family="Helvetica, Arial, sans-serif" fill="#fd6d5a" style="user-select: none; cursor: default;"></text></g><ellipse id="SvgjsEllipse2572" rx="8" ry="8" cx="8" cy="8" fill="none" style="pointer-events: visible;"></ellipse></g></g></g><g id="SvgjsG2369" data-name="branch" class="branch" transform="translate(395.7822265625 -84)"><g id="SvgjsG2362" data-name="topic"><g id="SvgjsG2363" data-name="topic-shape-group"><path id="SvgjsPath2366" data-name="topic-shape-fill" opacity="0" d="M -35.4345703125 -7.800000000000001L 35.4345703125 -7.800000000000001L 35.4345703125 8.8L -35.4345703125 8.8z"></path><path id="SvgjsPath2367" data-name="topic-shape" fill="none" stroke="#fd6d5a" stroke-width="2" d="M  -35.4345703125 8.8L 35.4345703125 8.8z"></path><g id="SvgjsG2364" data-name="inner-element-group"><g id="SvgjsG2373" data-name="topic-title-text-group"><text id="SvgjsText2372" font-family="'Open Sans','Nunito Sans','Microsoft YaHei','Microsoft JhengHei',sans-serif" font-size="12" font-weight="normal" fill="#434b54" font-style="normal" text-decoration="none" text-anchor="start" transform="translate(-29.4345703125 -7.800000000000001)" style="user-select: none; cursor: default;"><tspan id="SvgjsTspan2617" font-family="'Open Sans','Nunito Sans','Microsoft YaHei','Microsoft JhengHei',sans-serif" font-size="12" font-weight="normal" fill="#434b54" font-style="normal" text-decoration="none" dy="12" x="0" style="white-space: pre;">Subtopic 1</tspan></text></g></g></g></g></g><g id="SvgjsG2382" data-name="branch" class="branch" transform="translate(395.7822265625 -58.400000000000006)"><g id="SvgjsG2375" data-name="topic"><g id="SvgjsG2376" data-name="topic-shape-group"><path id="SvgjsPath2379" data-name="topic-shape-fill" opacity="0" d="M -35.4345703125 -7.800000000000001L 35.4345703125 -7.800000000000001L 35.4345703125 8.8L -35.4345703125 8.8z"></path><path id="SvgjsPath2380" data-name="topic-shape" fill="none" stroke="#fd6d5a" stroke-width="2" d="M  -35.4345703125 8.8L 35.4345703125 8.8z"></path><g id="SvgjsG2377" data-name="inner-element-group"><g id="SvgjsG2386" data-name="topic-title-text-group"><text id="SvgjsText2385" font-family="'Open Sans','Nunito Sans','Microsoft YaHei','Microsoft JhengHei',sans-serif" font-size="12" font-weight="normal" fill="#434b54" font-style="normal" text-decoration="none" text-anchor="start" transform="translate(-29.4345703125 -7.800000000000001)" style="user-select: none; cursor: default;"><tspan id="SvgjsTspan2618" font-family="'Open Sans','Nunito Sans','Microsoft YaHei','Microsoft JhengHei',sans-serif" font-size="12" font-weight="normal" fill="#434b54" font-style="normal" text-decoration="none" dy="12" x="0" style="white-space: pre;">Subtopic 2</tspan></text></g></g></g></g></g><g id="SvgjsG2398" data-name="branch" class="branch" transform="translate(239.703125 62.400000000000006)"><g id="SvgjsG2391" data-name="topic"><g id="SvgjsG2392" data-name="topic-shape-group"><path id="SvgjsPath2395" data-name="topic-shape-fill" fill="#ffffff" stroke="none" opacity="1" d="M -62.64453125 -21.4L 62.64453125 -21.4Q 67.64453125 -21.4  67.64453125 -16.4L 67.64453125 16.4Q 67.64453125 21.4  62.64453125 21.4L -62.64453125 21.4Q -67.64453125 21.4  -67.64453125 16.4L -67.64453125 -16.4Q -67.64453125 -21.4  -62.64453125 -21.4"></path><path id="SvgjsPath2396" data-name="topic-shape" fill="none" stroke="#feb40b" stroke-width="2" d="M -62.64453125 -21.4L 62.64453125 -21.4Q 67.64453125 -21.4  67.64453125 -16.4L 67.64453125 16.4Q 67.64453125 21.4  62.64453125 21.4L -62.64453125 21.4Q -67.64453125 21.4  -67.64453125 16.4L -67.64453125 -16.4Q -67.64453125 -21.4  -62.64453125 -21.4"></path><g id="SvgjsG2393" data-name="inner-element-group"><g id="SvgjsG2441" data-name="topic-title-text-group"><text id="SvgjsText2440" font-family="'Open Sans','Nunito Sans','Microsoft YaHei','Microsoft JhengHei',sans-serif" font-size="16" font-weight="600" fill="#434b54" font-style="normal" text-decoration="none" text-anchor="start" transform="translate(-48.64453125 -10.4)" style="user-select: none; cursor: default;"><tspan id="SvgjsTspan2619" font-family="'Open Sans','Nunito Sans','Microsoft YaHei','Microsoft JhengHei',sans-serif" font-size="16" font-weight="600" fill="#434b54" font-style="normal" text-decoration="none" dy="16" x="0" style="white-space: pre;">Main Topic 2</tspan></text></g></g></g><g id="SvgjsG2573" data-name="collapse-extended" class="collapseextend" transform="translate(75.64453125 -6)" style="cursor: pointer; display: none;"><line id="SvgjsLine2574" stroke-width="0" x1="0" y1="6" x2="-7" y2="6" stroke="#feb40b"></line><g id="SvgjsG2575"><ellipse id="SvgjsEllipse2576" rx="6" ry="6" cx="6" cy="6" fill="#ffffff"></ellipse><ellipse id="SvgjsEllipse2577" rx="6" ry="6" cx="6" cy="6" fill="none" stroke="#feb40b"></ellipse><path id="SvgjsPath2578" d="M 2, 6 L 10, 6" stroke="#feb40b"></path></g><g id="SvgjsG2579"><ellipse id="SvgjsEllipse2580" rx="8" ry="8" cx="8" cy="8" fill="#ffffff"></ellipse><ellipse id="SvgjsEllipse2581" rx="8" ry="8" cx="8" cy="8" fill="none" stroke="#feb40b" stroke-width="1"></ellipse><text id="SvgjsText2582" font-family="Helvetica, Arial, sans-serif" fill="#feb40b" style="user-select: none; cursor: default;"></text></g><ellipse id="SvgjsEllipse2583" rx="8" ry="8" cx="8" cy="8" fill="none" style="pointer-events: visible;"></ellipse></g></g></g><g id="SvgjsG2408" data-name="branch" class="branch" transform="translate(395.7822265625 40.800000000000004)"><g id="SvgjsG2401" data-name="topic"><g id="SvgjsG2402" data-name="topic-shape-group"><path id="SvgjsPath2405" data-name="topic-shape-fill" opacity="0" d="M -35.4345703125 -7.800000000000001L 35.4345703125 -7.800000000000001L 35.4345703125 8.8L -35.4345703125 8.8z"></path><path id="SvgjsPath2406" data-name="topic-shape" fill="none" stroke="#feb40b" stroke-width="2" d="M  -35.4345703125 8.8L 35.4345703125 8.8z"></path><g id="SvgjsG2403" data-name="inner-element-group"><g id="SvgjsG2425" data-name="topic-title-text-group"><text id="SvgjsText2424" font-family="'Open Sans','Nunito Sans','Microsoft YaHei','Microsoft JhengHei',sans-serif" font-size="12" font-weight="normal" fill="#434b54" font-style="normal" text-decoration="none" text-anchor="start" transform="translate(-29.4345703125 -7.800000000000001)" style="user-select: none; cursor: default;"><tspan id="SvgjsTspan2620" font-family="'Open Sans','Nunito Sans','Microsoft YaHei','Microsoft JhengHei',sans-serif" font-size="12" font-weight="normal" fill="#434b54" font-style="normal" text-decoration="none" dy="12" x="0" style="white-space: pre;">Subtopic 1</tspan></text></g></g></g></g></g><g id="SvgjsG2418" data-name="branch" class="branch" transform="translate(395.7822265625 13.199999999999996)"><g id="SvgjsG2411" data-name="topic"><g id="SvgjsG2412" data-name="topic-shape-group"><path id="SvgjsPath2415" data-name="topic-shape-fill" fill="#8793a5" stroke="none" opacity="1" d="M -20.58203125 -13.8L 20.58203125 -13.8Q 25.58203125 -13.8  25.58203125 -8.8L 25.58203125 8.8Q 25.58203125 13.8  20.58203125 13.8L -20.58203125 13.8Q -25.58203125 13.8  -25.58203125 8.8L -25.58203125 -8.8Q -25.58203125 -13.8  -20.58203125 -13.8"></path><path id="SvgjsPath2416" data-name="topic-shape" fill="none" stroke-width="0" d="M -20.58203125 -13.8L 20.58203125 -13.8Q 25.58203125 -13.8  25.58203125 -8.8L 25.58203125 8.8Q 25.58203125 13.8  20.58203125 13.8L -20.58203125 13.8Q -25.58203125 13.8  -25.58203125 8.8L -25.58203125 -8.8Q -25.58203125 -13.8  -20.58203125 -13.8" clip-path="url(&quot;#SvgjsClipPath2639&quot;)"></path><g id="SvgjsG2413" data-name="inner-element-group"><g id="SvgjsG2422" data-name="topic-title-text-group"><text id="SvgjsText2421" font-family="'Open Sans','Nunito Sans','Microsoft YaHei','Microsoft JhengHei',sans-serif" font-size="12" font-weight="400" fill="#ffffff" font-style="normal" text-decoration="none" text-anchor="middle" transform="translate(0 -7.800000000000001)" style="user-select: none; cursor: default;"><tspan id="SvgjsTspan2623" font-family="'Open Sans','Nunito Sans','Microsoft YaHei','Microsoft JhengHei',sans-serif" font-size="12" font-weight="400" fill="#ffffff" font-style="normal" text-decoration="none" dy="12" x="0" style="white-space: pre;">Callout</tspan></text></g></g></g></g></g><g id="SvgjsG2434" data-name="branch" class="branch" transform="translate(395.7822265625 66.4)"><g id="SvgjsG2427" data-name="topic"><g id="SvgjsG2428" data-name="topic-shape-group"><path id="SvgjsPath2431" data-name="topic-shape-fill" opacity="0" d="M -35.4345703125 -7.800000000000001L 35.4345703125 -7.800000000000001L 35.4345703125 8.8L -35.4345703125 8.8z"></path><path id="SvgjsPath2432" data-name="topic-shape" fill="none" stroke="#feb40b" stroke-width="2" d="M  -35.4345703125 8.8L 35.4345703125 8.8z"></path><g id="SvgjsG2429" data-name="inner-element-group"><g id="SvgjsG2438" data-name="topic-title-text-group"><text id="SvgjsText2437" font-family="'Open Sans','Nunito Sans','Microsoft YaHei','Microsoft JhengHei',sans-serif" font-size="12" font-weight="normal" fill="#434b54" font-style="normal" text-decoration="none" text-anchor="start" transform="translate(-29.4345703125 -7.800000000000001)" style="user-select: none; cursor: default;"><tspan id="SvgjsTspan2624" font-family="'Open Sans','Nunito Sans','Microsoft YaHei','Microsoft JhengHei',sans-serif" font-size="12" font-weight="normal" fill="#434b54" font-style="normal" text-decoration="none" dy="12" x="0" style="white-space: pre;">Subtopic 2</tspan></text></g></g></g></g></g><g id="SvgjsG2450" data-name="branch" class="branch" transform="translate(-249.703125 62.400000000000006)"><g id="SvgjsG2443" data-name="topic"><g id="SvgjsG2444" data-name="topic-shape-group"><path id="SvgjsPath2447" data-name="topic-shape-fill" fill="#ffffff" stroke="none" opacity="1" d="M -62.64453125 -21.4L 62.64453125 -21.4Q 67.64453125 -21.4  67.64453125 -16.4L 67.64453125 16.4Q 67.64453125 21.4  62.64453125 21.4L -62.64453125 21.4Q -67.64453125 21.4  -67.64453125 16.4L -67.64453125 -16.4Q -67.64453125 -21.4  -62.64453125 -21.4"></path><path id="SvgjsPath2448" data-name="topic-shape" fill="none" stroke="#6dc354" stroke-width="2" d="M -62.64453125 -21.4L 62.64453125 -21.4Q 67.64453125 -21.4  67.64453125 -16.4L 67.64453125 16.4Q 67.64453125 21.4  62.64453125 21.4L -62.64453125 21.4Q -67.64453125 21.4  -67.64453125 16.4L -67.64453125 -16.4Q -67.64453125 -21.4  -62.64453125 -21.4"></path><g id="SvgjsG2445" data-name="inner-element-group"><g id="SvgjsG2480" data-name="topic-title-text-group"><text id="SvgjsText2479" font-family="'Open Sans','Nunito Sans','Microsoft YaHei','Microsoft JhengHei',sans-serif" font-size="16" font-weight="600" fill="#434b54" font-style="normal" text-decoration="none" text-anchor="start" transform="translate(-48.64453125 -10.4)" style="user-select: none; cursor: default;"><tspan id="SvgjsTspan2625" font-family="'Open Sans','Nunito Sans','Microsoft YaHei','Microsoft JhengHei',sans-serif" font-size="16" font-weight="600" fill="#434b54" font-style="normal" text-decoration="none" dy="16" x="0" style="white-space: pre;">Main Topic 4</tspan></text></g></g></g><g id="SvgjsG2584" data-name="collapse-extended" class="collapseextend" transform="translate(-87.64453125 -6)" style="cursor: pointer; display: none;"><line id="SvgjsLine2585" stroke-width="0" x1="12" y1="6" x2="19" y2="6" stroke="#6dc354"></line><g id="SvgjsG2586"><ellipse id="SvgjsEllipse2587" rx="6" ry="6" cx="6" cy="6" fill="#ffffff"></ellipse><ellipse id="SvgjsEllipse2588" rx="6" ry="6" cx="6" cy="6" fill="none" stroke="#6dc354"></ellipse><path id="SvgjsPath2589" d="M 2, 6 L 10, 6" stroke="#6dc354"></path></g><g id="SvgjsG2590"><ellipse id="SvgjsEllipse2591" rx="8" ry="8" cx="8" cy="8" fill="#ffffff"></ellipse><ellipse id="SvgjsEllipse2592" rx="8" ry="8" cx="8" cy="8" fill="none" stroke="#6dc354" stroke-width="1"></ellipse><text id="SvgjsText2593" font-family="Helvetica, Arial, sans-serif" fill="#6dc354" style="user-select: none; cursor: default;"></text></g><ellipse id="SvgjsEllipse2594" rx="8" ry="8" cx="8" cy="8" fill="none" style="pointer-events: visible;"></ellipse></g></g></g><g id="SvgjsG2460" data-name="branch" class="branch" transform="translate(-405.7822265625 40.800000000000004)"><g id="SvgjsG2453" data-name="topic"><g id="SvgjsG2454" data-name="topic-shape-group"><path id="SvgjsPath2457" data-name="topic-shape-fill" opacity="0" d="M -35.4345703125 -7.800000000000001L 35.4345703125 -7.800000000000001L 35.4345703125 8.8L -35.4345703125 8.8z"></path><path id="SvgjsPath2458" data-name="topic-shape" fill="none" stroke="#6dc354" stroke-width="2" d="M  -35.4345703125 8.8L 35.4345703125 8.8z"></path><g id="SvgjsG2455" data-name="inner-element-group"><g id="SvgjsG2464" data-name="topic-title-text-group"><text id="SvgjsText2463" font-family="'Open Sans','Nunito Sans','Microsoft YaHei','Microsoft JhengHei',sans-serif" font-size="12" font-weight="normal" fill="#434b54" font-style="normal" text-decoration="none" text-anchor="start" transform="translate(-29.4345703125 -7.800000000000001)" style="user-select: none; cursor: default;"><tspan id="SvgjsTspan2626" font-family="'Open Sans','Nunito Sans','Microsoft YaHei','Microsoft JhengHei',sans-serif" font-size="12" font-weight="normal" fill="#434b54" font-style="normal" text-decoration="none" dy="12" x="0" style="white-space: pre;">Subtopic 1</tspan></text></g></g></g></g></g><g id="SvgjsG2473" data-name="branch" class="branch" transform="translate(-405.7822265625 66.4)"><g id="SvgjsG2466" data-name="topic"><g id="SvgjsG2467" data-name="topic-shape-group"><path id="SvgjsPath2470" data-name="topic-shape-fill" opacity="0" d="M -35.4345703125 -7.800000000000001L 35.4345703125 -7.800000000000001L 35.4345703125 8.8L -35.4345703125 8.8z"></path><path id="SvgjsPath2471" data-name="topic-shape" fill="none" stroke="#6dc354" stroke-width="2" d="M  -35.4345703125 8.8L 35.4345703125 8.8z"></path><g id="SvgjsG2468" data-name="inner-element-group"><g id="SvgjsG2477" data-name="topic-title-text-group"><text id="SvgjsText2476" font-family="'Open Sans','Nunito Sans','Microsoft YaHei','Microsoft JhengHei',sans-serif" font-size="12" font-weight="normal" fill="#434b54" font-style="normal" text-decoration="none" text-anchor="start" transform="translate(-29.4345703125 -7.800000000000001)" style="user-select: none; cursor: default;"><tspan id="SvgjsTspan2627" font-family="'Open Sans','Nunito Sans','Microsoft YaHei','Microsoft JhengHei',sans-serif" font-size="12" font-weight="normal" fill="#434b54" font-style="normal" text-decoration="none" dy="12" x="0" style="white-space: pre;">Subtopic 2</tspan></text></g></g></g></g></g><g id="SvgjsG2489" data-name="branch" class="branch" transform="translate(-239.703125 -62.400000000000006)"><g id="SvgjsG2482" data-name="topic"><g id="SvgjsG2483" data-name="topic-shape-group"><path id="SvgjsPath2486" data-name="topic-shape-fill" fill="#ffffff" stroke="none" opacity="1" d="M -62.64453125 -21.4L 62.64453125 -21.4Q 67.64453125 -21.4  67.64453125 -16.4L 67.64453125 16.4Q 67.64453125 21.4  62.64453125 21.4L -62.64453125 21.4Q -67.64453125 21.4  -67.64453125 16.4L -67.64453125 -16.4Q -67.64453125 -21.4  -62.64453125 -21.4"></path><path id="SvgjsPath2487" data-name="topic-shape" fill="none" stroke="#518cd8" stroke-width="2" d="M -62.64453125 -21.4L 62.64453125 -21.4Q 67.64453125 -21.4  67.64453125 -16.4L 67.64453125 16.4Q 67.64453125 21.4  62.64453125 21.4L -62.64453125 21.4Q -67.64453125 21.4  -67.64453125 16.4L -67.64453125 -16.4Q -67.64453125 -21.4  -62.64453125 -21.4"></path><g id="SvgjsG2484" data-name="inner-element-group"><g id="SvgjsG2519" data-name="topic-title-text-group"><text id="SvgjsText2518" font-family="'Open Sans','Nunito Sans','Microsoft YaHei','Microsoft JhengHei',sans-serif" font-size="16" font-weight="600" fill="#434b54" font-style="normal" text-decoration="none" text-anchor="start" transform="translate(-48.64453125 -10.4)" style="user-select: none; cursor: default;"><tspan id="SvgjsTspan2628" font-family="'Open Sans','Nunito Sans','Microsoft YaHei','Microsoft JhengHei',sans-serif" font-size="16" font-weight="600" fill="#434b54" font-style="normal" text-decoration="none" dy="16" x="0" style="white-space: pre;">Main Topic 3</tspan></text></g></g></g><g id="SvgjsG2595" data-name="collapse-extended" class="collapseextend" transform="translate(-87.64453125 -6)" style="cursor: pointer; display: none;"><line id="SvgjsLine2596" stroke-width="0" x1="12" y1="6" x2="19" y2="6" stroke="#518cd8"></line><g id="SvgjsG2597"><ellipse id="SvgjsEllipse2598" rx="6" ry="6" cx="6" cy="6" fill="#ffffff"></ellipse><ellipse id="SvgjsEllipse2599" rx="6" ry="6" cx="6" cy="6" fill="none" stroke="#518cd8"></ellipse><path id="SvgjsPath2600" d="M 2, 6 L 10, 6" stroke="#518cd8"></path></g><g id="SvgjsG2601"><ellipse id="SvgjsEllipse2602" rx="8" ry="8" cx="8" cy="8" fill="#ffffff"></ellipse><ellipse id="SvgjsEllipse2603" rx="8" ry="8" cx="8" cy="8" fill="none" stroke="#518cd8" stroke-width="1"></ellipse><text id="SvgjsText2604" font-family="Helvetica, Arial, sans-serif" fill="#518cd8" style="user-select: none; cursor: default;"></text></g><ellipse id="SvgjsEllipse2605" rx="8" ry="8" cx="8" cy="8" fill="none" style="pointer-events: visible;"></ellipse></g></g></g><g id="SvgjsG2499" data-name="branch" class="branch" transform="translate(-395.7822265625 -84)"><g id="SvgjsG2492" data-name="topic"><g id="SvgjsG2493" data-name="topic-shape-group"><path id="SvgjsPath2496" data-name="topic-shape-fill" opacity="0" d="M -35.4345703125 -7.800000000000001L 35.4345703125 -7.800000000000001L 35.4345703125 8.8L -35.4345703125 8.8z"></path><path id="SvgjsPath2497" data-name="topic-shape" fill="none" stroke="#518cd8" stroke-width="2" d="M  -35.4345703125 8.8L 35.4345703125 8.8z"></path><g id="SvgjsG2494" data-name="inner-element-group"><g id="SvgjsG2503" data-name="topic-title-text-group"><text id="SvgjsText2502" font-family="'Open Sans','Nunito Sans','Microsoft YaHei','Microsoft JhengHei',sans-serif" font-size="12" font-weight="normal" fill="#434b54" font-style="normal" text-decoration="none" text-anchor="start" transform="translate(-29.4345703125 -7.800000000000001)" style="user-select: none; cursor: default;"><tspan id="SvgjsTspan2629" font-family="'Open Sans','Nunito Sans','Microsoft YaHei','Microsoft JhengHei',sans-serif" font-size="12" font-weight="normal" fill="#434b54" font-style="normal" text-decoration="none" dy="12" x="0" style="white-space: pre;">Subtopic 1</tspan></text></g></g></g></g></g><g id="SvgjsG2512" data-name="branch" class="branch" transform="translate(-395.7822265625 -58.400000000000006)"><g id="SvgjsG2505" data-name="topic"><g id="SvgjsG2506" data-name="topic-shape-group"><path id="SvgjsPath2509" data-name="topic-shape-fill" opacity="0" d="M -35.4345703125 -7.800000000000001L 35.4345703125 -7.800000000000001L 35.4345703125 8.8L -35.4345703125 8.8z"></path><path id="SvgjsPath2510" data-name="topic-shape" fill="none" stroke="#518cd8" stroke-width="2" d="M  -35.4345703125 8.8L 35.4345703125 8.8z"></path><g id="SvgjsG2507" data-name="inner-element-group"><g id="SvgjsG2516" data-name="topic-title-text-group"><text id="SvgjsText2515" font-family="'Open Sans','Nunito Sans','Microsoft YaHei','Microsoft JhengHei',sans-serif" font-size="12" font-weight="normal" fill="#434b54" font-style="normal" text-decoration="none" text-anchor="start" transform="translate(-29.4345703125 -7.800000000000001)" style="user-select: none; cursor: default;"><tspan id="SvgjsTspan2630" font-family="'Open Sans','Nunito Sans','Microsoft YaHei','Microsoft JhengHei',sans-serif" font-size="12" font-weight="normal" fill="#434b54" font-style="normal" text-decoration="none" dy="12" x="0" style="white-space: pre;">Subtopic 2</tspan></text></g></g></g></g></g></g><g id="SvgjsG2338" data-name="relationship-container"><g id="SvgjsG2541" data-name="relationship" class="relationship"><path id="SvgjsPath2542" data-name="relationship-path" clip-path="url(&quot;#SvgjsClipPath2560&quot;)" style="fill: none;" stroke-dasharray="3, 3" stroke="#8793a5" stroke-width="3" marker-start="url(#SvgjsMarker2631)" marker-end="url(#SvgjsMarker2633)" d="M -441.16726897157434 32.78001873557548C -488.99633207143046 21.99432524386124  -487.6192004826399 -62.096373189395635  -443.85230742387466 -72.68443311431894"></path><path id="SvgjsPath2544" data-name="relationship-shadow-action-path" stroke="none" stroke-width="13" style="stroke-opacity: 0; stroke: none; fill: none;" d="M -441.16726897157434 32.78001873557548C -488.99633207143046 21.99432524386124  -487.6192004826399 -62.096373189395635  -443.85230742387466 -72.68443311431894"></path><text id="SvgjsText2545" font-family="'Open Sans','Open Sans','Nunito Sans','Microsoft YaHei','Microsoft JhengHei',sans-serif" data-name="relationship-title" style="user-select: none; cursor: default; pointer-events: none; display: none;" font-size="12" font-weight="400" font-style="normal" text-decoration="none" fill="#434b54" x="-476.8453369140625" y="-121.85507392883301"><tspan id="SvgjsTspan2641" style="white-space: pre;">Relationship</tspan></text></g></g><g id="SvgjsG2341" data-name="cloneG" opacity="0.5"></g></g></g><defs id="SvgjsDefs2324"><rect id="SvgjsRect2557" width="447.8290710449219" height="505.4644470214844" fill="white" x="-688.996337890625" y="-272.68443298339844"></rect><rect id="SvgjsRect2558" width="0" height="0" fill="black" style="display: none;"></rect><clipPath id="SvgjsClipPath2560" style="display: none;"><path id="SvgjsPath2559" d="M -688.996337890625 -272.6844482421875 L-241.16726684570312 -272.6844482421875 L-241.16726684570312 232.77999877929688 L-688.996337890625 232.77999877929688 M 0 0 L0 0 L0 0 L0 0" fill="black" clip-rule="evenodd"></path></clipPath><clipPath id="SvgjsClipPath2607"><path id="SvgjsPath2606" d="M -114.55859375 -34.7L 114.55859375 -34.7Q 119.55859375 -34.7  119.55859375 -29.700000000000003L 119.55859375 29.700000000000003Q 119.55859375 34.7  114.55859375 34.7L -114.55859375 34.7Q -119.55859375 34.7  -119.55859375 29.700000000000003L -119.55859375 -29.700000000000003Q -119.55859375 -34.7  -114.55859375 -34.7 M -10000 -10000 L10000 -10000 L10000 10000 L-10000 10000" fill="black" clip-rule="evenodd" transform="translate(0 0) "></path></clipPath><marker id="SvgjsMarker2610" markerWidth="8" markerHeight="8" refX="5" refY="4" viewBox="0 0 8 8" orient="auto"><path id="SvgjsPath2611" d="" stroke="#2a7ac2" stroke-width="1" stroke-dasharray="none" fill="none"></path></marker><marker id="SvgjsMarker2612" markerWidth="8" markerHeight="8" refX="2" refY="4" viewBox="0 0 8 8" orient="auto"><path id="SvgjsPath2613" d="M 2 2 L 6 4 L 2 6" stroke-width="0" stroke-dasharray="none" stroke="#2a7ac2" fill="#2a7ac2"></path></marker><marker id="SvgjsMarker2631" markerWidth="8" markerHeight="8" refX="5" refY="4" viewBox="0 0 8 8" orient="auto"><path id="SvgjsPath2632" d="" stroke="#8793a5" stroke-width="1" stroke-dasharray="none" fill="none"></path></marker><marker id="SvgjsMarker2633" markerWidth="8" markerHeight="8" refX="2" refY="4" viewBox="0 0 8 8" orient="auto"><path id="SvgjsPath2634" d="M 2 2 L 6 4 L 2 6" stroke-width="0" stroke-dasharray="none" stroke="#8793a5" fill="#8793a5"></path></marker><clipPath id="SvgjsClipPath2639"><path id="SvgjsPath2638" d="M -8.7822265625 11.800000000000004 L7.2177734375 11.800000000000004 L7.2177734375 11.800000000000004 L-8.7822265625 11.800000000000004 M -10000 -10000 L10000 -10000 L10000 10000 L-10000 10000" fill="black" clip-rule="evenodd"></path></clipPath></defs></svg>