<?xml version="1.0" standalone="no"?><!DOCTYPE svg PUBLIC "-//W3C//DTD SVG 1.1//EN" "http://www.w3.org/Graphics/SVG/1.1/DTD/svg11.dtd" [<!ENTITY nbsp "&#160;">]><svg id="SvgjsSvg2642" xmlns="http://www.w3.org/2000/svg" version="1.1" width="228" height="140" xmlns:xlink="http://www.w3.org/1999/xlink" style="display: block; background-color: rgb(239, 248, 250);" viewBox="0 0 954.3325324224945 585.9936602594264"><defs><style type="text/css"><![CDATA[

]]></style></defs><g id="SvgjsG2644" data-name="container" transform="scale(1) translate(501.64404766519453 292.89683012971324)"><g id="SvgjsG2646" data-name="sheet"><g id="SvgjsG2647" data-name="matrix-container"></g><g id="SvgjsG2648" data-name="boundary-container"><g id="SvgjsG2834" data-name="boundary-group" class="boundary"><path id="SvgjsPath2835" data-name="boundary-path" stroke="#6eb5e2" fill="#e3f2fc" stroke-width="1" fill-opacity="0.2" stroke-dasharray="9, 3" d="M -410.9157943725586 14.5L -168.45995330810547 14.5Q -148.45995330810547 14.5 -148.45995330810547 34.5L -148.45995330810547 86.5Q -148.45995330810547 106.5 -168.45995330810547 106.5L -410.9157943725586 106.5Q -430.9157943725586 106.5 -430.9157943725586 86.5L -430.9157943725586 34.5Q -430.9157943725586 14.5 -410.9157943725586 14.5z"></path><g id="SvgjsG2837" data-name="boundary-title-group" transform="translate(-435.9157943725586 9.5)" style="display: none;"><rect id="SvgjsRect2839" data-name="boundary-title-bg" stroke="#6eb5e2" fill="#e3f2fc" stroke-width="1"></rect><text id="SvgjsText2838" font-family="Helvetica, Arial, sans-serif" data-name="boundary-title" style="user-select: none; cursor: default;"></text></g></g></g><g id="SvgjsG2649" data-name="connection-container"><path id="SvgjsPath2663" data-name="connection" stroke-linecap="round"></path><path id="SvgjsPath2673" data-name="connection" stroke-linecap="round" stroke="#a7b7c7" stroke-width="1" d="M 72.97330220540364 0L 72.97330220540364 0L 123.96440294053819 -70.30000000000001L 149.45995330810547 -70.30000000000001" fill="none" marker-end="none" clip-path="url(&quot;#SvgjsClipPath2920&quot;)"></path><path id="SvgjsPath2683" data-name="connection" stroke-linecap="round" stroke="#a7b7c7" stroke-width="1" d="M 269.66385650634766 -70.30000000000001L 282.66385650634766 -70.30000000000001L 322.66385650634766 -89.80000000000001" marker-end="none" fill="none"></path><path id="SvgjsPath2696" data-name="connection" stroke-linecap="round" stroke="#a7b7c7" stroke-width="1" d="M 269.66385650634766 -70.30000000000001L 282.66385650634766 -70.30000000000001L 322.66385650634766 -50.80000000000001" marker-end="none" fill="none"></path><path id="SvgjsPath2712" data-name="connection" stroke-linecap="round" stroke="#a7b7c7" stroke-width="1" d="M 72.97330220540364 0L 72.97330220540364 0L 123.96440294053819 70.30000000000001L 149.45995330810547 70.30000000000001" fill="none" marker-end="none" clip-path="url(&quot;#SvgjsClipPath2920&quot;)"></path><path id="SvgjsPath2722" data-name="connection" stroke-linecap="round" stroke="#a7b7c7" stroke-width="1" d="M 272.5198440551758 70.30000000000001L 285.5198440551758 70.30000000000001L 325.5198440551758 50.80000000000001" marker-end="none" fill="none"></path><path id="SvgjsPath2732" data-name="connection" stroke-linecap="round" d="M 374 27 L 366 33 L 358 27" stroke-width="0" fill="#ffffff" marker-end="none"></path><path id="SvgjsPath2748" data-name="connection" stroke-linecap="round" stroke="#a7b7c7" stroke-width="1" d="M 272.5198440551758 70.30000000000001L 285.5198440551758 70.30000000000001L 325.5198440551758 89.80000000000001" marker-end="none" fill="none"></path><path id="SvgjsPath2764" data-name="connection" stroke-linecap="round" stroke="#a7b7c7" stroke-width="1" d="M -72.97330220540364 0L -72.97330220540364 0L -130.63106960720486 60.5L -159.45995330810547 60.5" fill="none" marker-end="none" clip-path="url(&quot;#SvgjsClipPath2920&quot;)"></path><path id="SvgjsPath2774" data-name="connection" stroke-linecap="round" stroke="#a7b7c7" stroke-width="1" d="M -282.60384368896484 60.5L -295.60384368896484 60.5L -335.60384368896484 41" marker-end="none" fill="none"></path><path id="SvgjsPath2787" data-name="connection" stroke-linecap="round" stroke="#a7b7c7" stroke-width="1" d="M -282.60384368896484 60.5L -295.60384368896484 60.5L -335.60384368896484 80" marker-end="none" fill="none"></path><path id="SvgjsPath2803" data-name="connection" stroke-linecap="round" stroke="#a7b7c7" stroke-width="1" d="M -72.97330220540364 0L -72.97330220540364 0L -123.96440294053819 -60.5L -149.45995330810547 -60.5" fill="none" marker-end="none" clip-path="url(&quot;#SvgjsClipPath2920&quot;)"></path><path id="SvgjsPath2813" data-name="connection" stroke-linecap="round" stroke="#a7b7c7" stroke-width="1" d="M -272.53385162353516 -60.5L -285.53385162353516 -60.5L -325.53385162353516 -80" marker-end="none" fill="none"></path><path id="SvgjsPath2826" data-name="connection" stroke-linecap="round" stroke="#a7b7c7" stroke-width="1" d="M -272.53385162353516 -60.5L -285.53385162353516 -60.5L -325.53385162353516 -41" marker-end="none" fill="none"></path></g><g id="SvgjsG2650" data-name="branch-container"><g id="SvgjsG2662" data-name="branch" class="branch"><g id="SvgjsG2655" data-name="topic"><g id="SvgjsG2656" data-name="topic-shape-group"><path id="SvgjsPath2659" data-name="topic-shape-fill" fill="#ffffff" stroke="none" opacity="1" d="M -109.45995330810547 -17Q -109.45995330810547 -22 -104.55798232943899 -22.985231203480485Q 0 -44 104.55798232943899 -22.985231203480485Q 109.45995330810547 -22 109.45995330810547 -17L 109.45995330810547 17Q 109.45995330810547 22 104.55798232943899 22.985231203480485Q 0 44 -104.55798232943899 22.985231203480485Q -109.45995330810547 22 -109.45995330810547 17Z"></path><path id="SvgjsPath2660" data-name="topic-shape" fill="none" stroke-width="0" d="M -109.45995330810547 -17Q -109.45995330810547 -22 -104.55798232943899 -22.985231203480485Q 0 -44 104.55798232943899 -22.985231203480485Q 109.45995330810547 -22 109.45995330810547 -17L 109.45995330810547 17Q 109.45995330810547 22 104.55798232943899 22.985231203480485Q 0 44 -104.55798232943899 22.985231203480485Q -109.45995330810547 22 -109.45995330810547 17Z"></path><g id="SvgjsG2657" data-name="inner-element-group"><g id="SvgjsG2853" data-name="topic-title-text-group"><text id="SvgjsText2852" font-family="'Montserrat','Nunito Sans','Microsoft YaHei','Microsoft JhengHei',sans-serif" font-size="24" font-weight="700" fill="#44556e" font-style="normal" text-decoration="none" text-anchor="middle" transform="translate(0 -15.600000000000001)" style="user-select: none; cursor: default;"><tspan id="SvgjsTspan2928" font-family="'Montserrat','Nunito Sans','Microsoft YaHei','Microsoft JhengHei',sans-serif" font-size="24" font-weight="700" fill="#44556e" font-style="normal" text-decoration="none" dy="24" x="0" style="white-space: pre;">Central Topic</tspan></text></g></g></g></g></g><g id="SvgjsG2672" data-name="branch" class="branch" transform="translate(209.06190490722656 -70.30000000000001)"><g id="SvgjsG2665" data-name="topic"><g id="SvgjsG2666" data-name="topic-shape-group"><path id="SvgjsPath2669" data-name="topic-shape-fill" fill="#ffffff" stroke="none" opacity="1" d="M -60.601951599121094 -8.666666666666668Q -60.601951599121094 -13.666666666666668 -55.72444165559779 -14.76661973422517Q 0 -27.333333333333336 55.72444165559779 -14.76661973422517Q 60.601951599121094 -13.666666666666668 60.601951599121094 -8.666666666666668L 60.601951599121094 8.666666666666668Q 60.601951599121094 13.666666666666668 55.72444165559779 14.76661973422517Q 0 27.333333333333336 -55.72444165559779 14.76661973422517Q -60.601951599121094 13.666666666666668 -60.601951599121094 8.666666666666668Z"></path><path id="SvgjsPath2670" data-name="topic-shape" fill="none" stroke-width="0" d="M -60.601951599121094 -8.666666666666668Q -60.601951599121094 -13.666666666666668 -55.72444165559779 -14.76661973422517Q 0 -27.333333333333336 55.72444165559779 -14.76661973422517Q 60.601951599121094 -13.666666666666668 60.601951599121094 -8.666666666666668L 60.601951599121094 8.666666666666668Q 60.601951599121094 13.666666666666668 55.72444165559779 14.76661973422517Q 0 27.333333333333336 -55.72444165559779 14.76661973422517Q -60.601951599121094 13.666666666666668 -60.601951599121094 8.666666666666668Z"></path><g id="SvgjsG2667" data-name="inner-element-group"><g id="SvgjsG2702" data-name="topic-title-text-group"><text id="SvgjsText2701" font-family="'Montserrat','Nunito Sans','Microsoft YaHei','Microsoft JhengHei',sans-serif" font-size="14" font-weight="600" fill="#44556e" font-style="normal" text-decoration="none" text-anchor="start" transform="translate(-42.601951599121094 -9.1)" style="user-select: none; cursor: default;"><tspan id="SvgjsTspan2929" font-family="'Montserrat','Nunito Sans','Microsoft YaHei','Microsoft JhengHei',sans-serif" font-size="14" font-weight="600" fill="#44556e" font-style="normal" text-decoration="none" dy="14" x="0" style="white-space: pre;">Main Topic 1</tspan></text></g></g></g><g id="SvgjsG2875" data-name="collapse-extended" class="collapseextend" transform="translate(67.6019515991211 -6)" style="cursor: pointer; display: none;"><line id="SvgjsLine2876" stroke-width="0" x1="0" y1="6" x2="-7" y2="6" stroke="#a7b7c7"></line><g id="SvgjsG2877"><ellipse id="SvgjsEllipse2878" rx="6" ry="6" cx="6" cy="6" fill="#eff8fa"></ellipse><ellipse id="SvgjsEllipse2879" rx="6" ry="6" cx="6" cy="6" fill="none" stroke="#a7b7c7"></ellipse><path id="SvgjsPath2880" d="M 2, 6 L 10, 6" stroke="#a7b7c7"></path></g><g id="SvgjsG2881"><ellipse id="SvgjsEllipse2882" rx="8" ry="8" cx="8" cy="8" fill="#eff8fa"></ellipse><ellipse id="SvgjsEllipse2883" rx="8" ry="8" cx="8" cy="8" fill="none" stroke="#a7b7c7" stroke-width="1"></ellipse><text id="SvgjsText2884" font-family="Helvetica, Arial, sans-serif" fill="#a7b7c7" style="user-select: none; cursor: default;"></text></g><ellipse id="SvgjsEllipse2885" rx="8" ry="8" cx="8" cy="8" fill="none" style="pointer-events: visible;"></ellipse></g></g></g><g id="SvgjsG2682" data-name="branch" class="branch" transform="translate(363.35682678222656 -89.80000000000001)"><g id="SvgjsG2675" data-name="topic"><g id="SvgjsG2676" data-name="topic-shape-group"><path id="SvgjsPath2679" data-name="topic-shape-fill" opacity="0" d="M -41.692970275878906 -6Q -41.692970275878906 -11 -36.858402361595225 -12.275520710211607Q 0 -22 36.858402361595225 -12.275520710211607Q 41.692970275878906 -11 41.692970275878906 -6L 41.692970275878906 6Q 41.692970275878906 11 36.858402361595225 12.275520710211607Q 0 22 -36.858402361595225 12.275520710211607Q -41.692970275878906 11 -41.692970275878906 6Z"></path><path id="SvgjsPath2680" data-name="topic-shape" fill="none" stroke-width="0" d="M -41.692970275878906 -6Q -41.692970275878906 -11 -36.858402361595225 -12.275520710211607Q 0 -22 36.858402361595225 -12.275520710211607Q 41.692970275878906 -11 41.692970275878906 -6L 41.692970275878906 6Q 41.692970275878906 11 36.858402361595225 12.275520710211607Q 0 22 -36.858402361595225 12.275520710211607Q -41.692970275878906 11 -41.692970275878906 6Z"></path><g id="SvgjsG2677" data-name="inner-element-group"><g id="SvgjsG2686" data-name="topic-title-text-group"><text id="SvgjsText2685" font-family="'Montserrat','Nunito Sans','Microsoft YaHei','Microsoft JhengHei',sans-serif" font-size="14" font-weight="normal" fill="#44556e" font-style="normal" text-decoration="none" text-anchor="start" transform="translate(-35.692970275878906 -9.1)" style="user-select: none; cursor: default;"><tspan id="SvgjsTspan2930" font-family="'Montserrat','Nunito Sans','Microsoft YaHei','Microsoft JhengHei',sans-serif" font-size="14" font-weight="normal" fill="#44556e" font-style="normal" text-decoration="none" dy="14" x="0" style="white-space: pre;">Subtopic 1</tspan></text></g></g></g></g></g><g id="SvgjsG2695" data-name="branch" class="branch" transform="translate(364.81983184814453 -50.80000000000001)"><g id="SvgjsG2688" data-name="topic"><g id="SvgjsG2689" data-name="topic-shape-group"><path id="SvgjsPath2692" data-name="topic-shape-fill" opacity="0" d="M -43.155975341796875 -6Q -43.155975341796875 -11 -38.31088808133336 -12.2349613105252Q 0 -22 38.31088808133336 -12.2349613105252Q 43.155975341796875 -11 43.155975341796875 -6L 43.155975341796875 6Q 43.155975341796875 11 38.31088808133336 12.2349613105252Q 0 22 -38.31088808133336 12.2349613105252Q -43.155975341796875 11 -43.155975341796875 6Z"></path><path id="SvgjsPath2693" data-name="topic-shape" fill="none" stroke-width="0" d="M -43.155975341796875 -6Q -43.155975341796875 -11 -38.31088808133336 -12.2349613105252Q 0 -22 38.31088808133336 -12.2349613105252Q 43.155975341796875 -11 43.155975341796875 -6L 43.155975341796875 6Q 43.155975341796875 11 38.31088808133336 12.2349613105252Q 0 22 -38.31088808133336 12.2349613105252Q -43.155975341796875 11 -43.155975341796875 6Z"></path><g id="SvgjsG2690" data-name="inner-element-group"><g id="SvgjsG2699" data-name="topic-title-text-group"><text id="SvgjsText2698" font-family="'Montserrat','Nunito Sans','Microsoft YaHei','Microsoft JhengHei',sans-serif" font-size="14" font-weight="normal" fill="#44556e" font-style="normal" text-decoration="none" text-anchor="start" transform="translate(-37.155975341796875 -9.1)" style="user-select: none; cursor: default;"><tspan id="SvgjsTspan2931" font-family="'Montserrat','Nunito Sans','Microsoft YaHei','Microsoft JhengHei',sans-serif" font-size="14" font-weight="normal" fill="#44556e" font-style="normal" text-decoration="none" dy="14" x="0" style="white-space: pre;">Subtopic 2</tspan></text></g></g></g></g></g><g id="SvgjsG2711" data-name="branch" class="branch" transform="translate(210.48989868164062 70.30000000000001)"><g id="SvgjsG2704" data-name="topic"><g id="SvgjsG2705" data-name="topic-shape-group"><path id="SvgjsPath2708" data-name="topic-shape-fill" fill="#ffffff" stroke="none" opacity="1" d="M -62.029945373535156 -8.666666666666668Q -62.029945373535156 -13.666666666666668 -57.14705494296778 -14.742483120841593Q 0 -27.333333333333336 57.14705494296778 -14.742483120841593Q 62.029945373535156 -13.666666666666668 62.029945373535156 -8.666666666666668L 62.029945373535156 8.666666666666668Q 62.029945373535156 13.666666666666668 57.14705494296778 14.742483120841593Q 0 27.333333333333336 -57.14705494296778 14.742483120841593Q -62.029945373535156 13.666666666666668 -62.029945373535156 8.666666666666668Z"></path><path id="SvgjsPath2709" data-name="topic-shape" fill="none" stroke-width="0" d="M -62.029945373535156 -8.666666666666668Q -62.029945373535156 -13.666666666666668 -57.14705494296778 -14.742483120841593Q 0 -27.333333333333336 57.14705494296778 -14.742483120841593Q 62.029945373535156 -13.666666666666668 62.029945373535156 -8.666666666666668L 62.029945373535156 8.666666666666668Q 62.029945373535156 13.666666666666668 57.14705494296778 14.742483120841593Q 0 27.333333333333336 -57.14705494296778 14.742483120841593Q -62.029945373535156 13.666666666666668 -62.029945373535156 8.666666666666668Z"></path><g id="SvgjsG2706" data-name="inner-element-group"><g id="SvgjsG2754" data-name="topic-title-text-group"><text id="SvgjsText2753" font-family="'Montserrat','Nunito Sans','Microsoft YaHei','Microsoft JhengHei',sans-serif" font-size="14" font-weight="600" fill="#44556e" font-style="normal" text-decoration="none" text-anchor="start" transform="translate(-44.029945373535156 -9.1)" style="user-select: none; cursor: default;"><tspan id="SvgjsTspan2932" font-family="'Montserrat','Nunito Sans','Microsoft YaHei','Microsoft JhengHei',sans-serif" font-size="14" font-weight="600" fill="#44556e" font-style="normal" text-decoration="none" dy="14" x="0" style="white-space: pre;">Main Topic 2</tspan></text></g></g></g><g id="SvgjsG2886" data-name="collapse-extended" class="collapseextend" transform="translate(69.02994537353516 -6)" style="cursor: pointer; display: none;"><line id="SvgjsLine2887" stroke-width="0" x1="0" y1="6" x2="-7" y2="6" stroke="#a7b7c7"></line><g id="SvgjsG2888"><ellipse id="SvgjsEllipse2889" rx="6" ry="6" cx="6" cy="6" fill="#eff8fa"></ellipse><ellipse id="SvgjsEllipse2890" rx="6" ry="6" cx="6" cy="6" fill="none" stroke="#a7b7c7"></ellipse><path id="SvgjsPath2891" d="M 2, 6 L 10, 6" stroke="#a7b7c7"></path></g><g id="SvgjsG2892"><ellipse id="SvgjsEllipse2893" rx="8" ry="8" cx="8" cy="8" fill="#eff8fa"></ellipse><ellipse id="SvgjsEllipse2894" rx="8" ry="8" cx="8" cy="8" fill="none" stroke="#a7b7c7" stroke-width="1"></ellipse><text id="SvgjsText2895" font-family="Helvetica, Arial, sans-serif" fill="#a7b7c7" style="user-select: none; cursor: default;"></text></g><ellipse id="SvgjsEllipse2896" rx="8" ry="8" cx="8" cy="8" fill="none" style="pointer-events: visible;"></ellipse></g></g></g><g id="SvgjsG2721" data-name="branch" class="branch" transform="translate(366.2128143310547 50.80000000000001)"><g id="SvgjsG2714" data-name="topic"><g id="SvgjsG2715" data-name="topic-shape-group"><path id="SvgjsPath2718" data-name="topic-shape-fill" opacity="0" d="M -41.692970275878906 -6Q -41.692970275878906 -11 -36.858402361595225 -12.275520710211607Q 0 -22 36.858402361595225 -12.275520710211607Q 41.692970275878906 -11 41.692970275878906 -6L 41.692970275878906 6Q 41.692970275878906 11 36.858402361595225 12.275520710211607Q 0 22 -36.858402361595225 12.275520710211607Q -41.692970275878906 11 -41.692970275878906 6Z"></path><path id="SvgjsPath2719" data-name="topic-shape" fill="none" stroke-width="0" d="M -41.692970275878906 -6Q -41.692970275878906 -11 -36.858402361595225 -12.275520710211607Q 0 -22 36.858402361595225 -12.275520710211607Q 41.692970275878906 -11 41.692970275878906 -6L 41.692970275878906 6Q 41.692970275878906 11 36.858402361595225 12.275520710211607Q 0 22 -36.858402361595225 12.275520710211607Q -41.692970275878906 11 -41.692970275878906 6Z"></path><g id="SvgjsG2716" data-name="inner-element-group"><g id="SvgjsG2738" data-name="topic-title-text-group"><text id="SvgjsText2737" font-family="'Montserrat','Nunito Sans','Microsoft YaHei','Microsoft JhengHei',sans-serif" font-size="14" font-weight="normal" fill="#44556e" font-style="normal" text-decoration="none" text-anchor="start" transform="translate(-35.692970275878906 -9.1)" style="user-select: none; cursor: default;"><tspan id="SvgjsTspan2933" font-family="'Montserrat','Nunito Sans','Microsoft YaHei','Microsoft JhengHei',sans-serif" font-size="14" font-weight="normal" fill="#44556e" font-style="normal" text-decoration="none" dy="14" x="0" style="white-space: pre;">Subtopic 1</tspan></text></g></g></g></g></g><g id="SvgjsG2731" data-name="branch" class="branch" transform="translate(366.2128143310547 14.500000000000007)"><g id="SvgjsG2724" data-name="topic"><g id="SvgjsG2725" data-name="topic-shape-group"><path id="SvgjsPath2728" data-name="topic-shape-fill" fill="#ffffff" stroke="none" opacity="1" d="M -22.869972229003906 -13.8L 22.869972229003906 -13.8Q 27.869972229003906 -13.8  27.869972229003906 -8.8L 27.869972229003906 8.8Q 27.869972229003906 13.8  22.869972229003906 13.8L -22.869972229003906 13.8Q -27.869972229003906 13.8  -27.869972229003906 8.8L -27.869972229003906 -8.8Q -27.869972229003906 -13.8  -22.869972229003906 -13.8"></path><path id="SvgjsPath2729" data-name="topic-shape" fill="none" stroke-width="0" d="M -22.869972229003906 -13.8L 22.869972229003906 -13.8Q 27.869972229003906 -13.8  27.869972229003906 -8.8L 27.869972229003906 8.8Q 27.869972229003906 13.8  22.869972229003906 13.8L -22.869972229003906 13.8Q -27.869972229003906 13.8  -27.869972229003906 8.8L -27.869972229003906 -8.8Q -27.869972229003906 -13.8  -22.869972229003906 -13.8" clip-path="url(&quot;#SvgjsClipPath2952&quot;)"></path><g id="SvgjsG2726" data-name="inner-element-group"><g id="SvgjsG2735" data-name="topic-title-text-group"><text id="SvgjsText2734" font-family="'Montserrat','Nunito Sans','Microsoft YaHei','Microsoft JhengHei',sans-serif" font-size="12" font-weight="normal" fill="#44556e" font-style="italic" text-decoration="none" text-anchor="middle" transform="translate(0 -7.800000000000001)" style="user-select: none; cursor: default;"><tspan id="SvgjsTspan2936" font-family="'Montserrat','Nunito Sans','Microsoft YaHei','Microsoft JhengHei',sans-serif" font-size="12" font-weight="normal" fill="#44556e" font-style="italic" text-decoration="none" dy="12" x="0" style="white-space: pre;">Callout</tspan></text></g></g></g></g></g><g id="SvgjsG2747" data-name="branch" class="branch" transform="translate(367.67581939697266 89.80000000000001)"><g id="SvgjsG2740" data-name="topic"><g id="SvgjsG2741" data-name="topic-shape-group"><path id="SvgjsPath2744" data-name="topic-shape-fill" opacity="0" d="M -43.155975341796875 -6Q -43.155975341796875 -11 -38.31088808133336 -12.2349613105252Q 0 -22 38.31088808133336 -12.2349613105252Q 43.155975341796875 -11 43.155975341796875 -6L 43.155975341796875 6Q 43.155975341796875 11 38.31088808133336 12.2349613105252Q 0 22 -38.31088808133336 12.2349613105252Q -43.155975341796875 11 -43.155975341796875 6Z"></path><path id="SvgjsPath2745" data-name="topic-shape" fill="none" stroke-width="0" d="M -43.155975341796875 -6Q -43.155975341796875 -11 -38.31088808133336 -12.2349613105252Q 0 -22 38.31088808133336 -12.2349613105252Q 43.155975341796875 -11 43.155975341796875 -6L 43.155975341796875 6Q 43.155975341796875 11 38.31088808133336 12.2349613105252Q 0 22 -38.31088808133336 12.2349613105252Q -43.155975341796875 11 -43.155975341796875 6Z"></path><g id="SvgjsG2742" data-name="inner-element-group"><g id="SvgjsG2751" data-name="topic-title-text-group"><text id="SvgjsText2750" font-family="'Montserrat','Nunito Sans','Microsoft YaHei','Microsoft JhengHei',sans-serif" font-size="14" font-weight="normal" fill="#44556e" font-style="normal" text-decoration="none" text-anchor="start" transform="translate(-37.155975341796875 -9.1)" style="user-select: none; cursor: default;"><tspan id="SvgjsTspan2937" font-family="'Montserrat','Nunito Sans','Microsoft YaHei','Microsoft JhengHei',sans-serif" font-size="14" font-weight="normal" fill="#44556e" font-style="normal" text-decoration="none" dy="14" x="0" style="white-space: pre;">Subtopic 2</tspan></text></g></g></g></g></g><g id="SvgjsG2763" data-name="branch" class="branch" transform="translate(-220.53189849853516 60.5)"><g id="SvgjsG2756" data-name="topic"><g id="SvgjsG2757" data-name="topic-shape-group"><path id="SvgjsPath2760" data-name="topic-shape-fill" fill="#ffffff" stroke="none" opacity="1" d="M -62.07194519042969 -8.666666666666668Q -62.07194519042969 -13.666666666666668 -57.18890184882895 -14.741788856954216Q 0 -27.333333333333336 57.18890184882895 -14.741788856954216Q 62.07194519042969 -13.666666666666668 62.07194519042969 -8.666666666666668L 62.07194519042969 8.666666666666668Q 62.07194519042969 13.666666666666668 57.18890184882895 14.741788856954216Q 0 27.333333333333336 -57.18890184882895 14.741788856954216Q -62.07194519042969 13.666666666666668 -62.07194519042969 8.666666666666668Z"></path><path id="SvgjsPath2761" data-name="topic-shape" fill="none" stroke-width="0" d="M -62.07194519042969 -8.666666666666668Q -62.07194519042969 -13.666666666666668 -57.18890184882895 -14.741788856954216Q 0 -27.333333333333336 57.18890184882895 -14.741788856954216Q 62.07194519042969 -13.666666666666668 62.07194519042969 -8.666666666666668L 62.07194519042969 8.666666666666668Q 62.07194519042969 13.666666666666668 57.18890184882895 14.741788856954216Q 0 27.333333333333336 -57.18890184882895 14.741788856954216Q -62.07194519042969 13.666666666666668 -62.07194519042969 8.666666666666668Z"></path><g id="SvgjsG2758" data-name="inner-element-group"><g id="SvgjsG2793" data-name="topic-title-text-group"><text id="SvgjsText2792" font-family="'Montserrat','Nunito Sans','Microsoft YaHei','Microsoft JhengHei',sans-serif" font-size="14" font-weight="600" fill="#44556e" font-style="normal" text-decoration="none" text-anchor="start" transform="translate(-44.07194519042969 -9.1)" style="user-select: none; cursor: default;"><tspan id="SvgjsTspan2938" font-family="'Montserrat','Nunito Sans','Microsoft YaHei','Microsoft JhengHei',sans-serif" font-size="14" font-weight="600" fill="#44556e" font-style="normal" text-decoration="none" dy="14" x="0" style="white-space: pre;">Main Topic 4</tspan></text></g></g></g><g id="SvgjsG2897" data-name="collapse-extended" class="collapseextend" transform="translate(-81.07194519042969 -6)" style="cursor: pointer; display: none;"><line id="SvgjsLine2898" stroke-width="0" x1="12" y1="6" x2="19" y2="6" stroke="#a7b7c7"></line><g id="SvgjsG2899"><ellipse id="SvgjsEllipse2900" rx="6" ry="6" cx="6" cy="6" fill="#eff8fa"></ellipse><ellipse id="SvgjsEllipse2901" rx="6" ry="6" cx="6" cy="6" fill="none" stroke="#a7b7c7"></ellipse><path id="SvgjsPath2902" d="M 2, 6 L 10, 6" stroke="#a7b7c7"></path></g><g id="SvgjsG2903"><ellipse id="SvgjsEllipse2904" rx="8" ry="8" cx="8" cy="8" fill="#eff8fa"></ellipse><ellipse id="SvgjsEllipse2905" rx="8" ry="8" cx="8" cy="8" fill="none" stroke="#a7b7c7" stroke-width="1"></ellipse><text id="SvgjsText2906" font-family="Helvetica, Arial, sans-serif" fill="#a7b7c7" style="user-select: none; cursor: default;"></text></g><ellipse id="SvgjsEllipse2907" rx="8" ry="8" cx="8" cy="8" fill="none" style="pointer-events: visible;"></ellipse></g></g></g><g id="SvgjsG2773" data-name="branch" class="branch" transform="translate(-376.29681396484375 41)"><g id="SvgjsG2766" data-name="topic"><g id="SvgjsG2767" data-name="topic-shape-group"><path id="SvgjsPath2770" data-name="topic-shape-fill" opacity="0" d="M -41.692970275878906 -6Q -41.692970275878906 -11 -36.858402361595225 -12.275520710211607Q 0 -22 36.858402361595225 -12.275520710211607Q 41.692970275878906 -11 41.692970275878906 -6L 41.692970275878906 6Q 41.692970275878906 11 36.858402361595225 12.275520710211607Q 0 22 -36.858402361595225 12.275520710211607Q -41.692970275878906 11 -41.692970275878906 6Z"></path><path id="SvgjsPath2771" data-name="topic-shape" fill="none" stroke-width="0" d="M -41.692970275878906 -6Q -41.692970275878906 -11 -36.858402361595225 -12.275520710211607Q 0 -22 36.858402361595225 -12.275520710211607Q 41.692970275878906 -11 41.692970275878906 -6L 41.692970275878906 6Q 41.692970275878906 11 36.858402361595225 12.275520710211607Q 0 22 -36.858402361595225 12.275520710211607Q -41.692970275878906 11 -41.692970275878906 6Z"></path><g id="SvgjsG2768" data-name="inner-element-group"><g id="SvgjsG2777" data-name="topic-title-text-group"><text id="SvgjsText2776" font-family="'Montserrat','Nunito Sans','Microsoft YaHei','Microsoft JhengHei',sans-serif" font-size="14" font-weight="normal" fill="#44556e" font-style="normal" text-decoration="none" text-anchor="start" transform="translate(-35.692970275878906 -9.1)" style="user-select: none; cursor: default;"><tspan id="SvgjsTspan2939" font-family="'Montserrat','Nunito Sans','Microsoft YaHei','Microsoft JhengHei',sans-serif" font-size="14" font-weight="normal" fill="#44556e" font-style="normal" text-decoration="none" dy="14" x="0" style="white-space: pre;">Subtopic 1</tspan></text></g></g></g></g></g><g id="SvgjsG2786" data-name="branch" class="branch" transform="translate(-377.7598190307617 80)"><g id="SvgjsG2779" data-name="topic"><g id="SvgjsG2780" data-name="topic-shape-group"><path id="SvgjsPath2783" data-name="topic-shape-fill" opacity="0" d="M -43.155975341796875 -6Q -43.155975341796875 -11 -38.31088808133336 -12.2349613105252Q 0 -22 38.31088808133336 -12.2349613105252Q 43.155975341796875 -11 43.155975341796875 -6L 43.155975341796875 6Q 43.155975341796875 11 38.31088808133336 12.2349613105252Q 0 22 -38.31088808133336 12.2349613105252Q -43.155975341796875 11 -43.155975341796875 6Z"></path><path id="SvgjsPath2784" data-name="topic-shape" fill="none" stroke-width="0" d="M -43.155975341796875 -6Q -43.155975341796875 -11 -38.31088808133336 -12.2349613105252Q 0 -22 38.31088808133336 -12.2349613105252Q 43.155975341796875 -11 43.155975341796875 -6L 43.155975341796875 6Q 43.155975341796875 11 38.31088808133336 12.2349613105252Q 0 22 -38.31088808133336 12.2349613105252Q -43.155975341796875 11 -43.155975341796875 6Z"></path><g id="SvgjsG2781" data-name="inner-element-group"><g id="SvgjsG2790" data-name="topic-title-text-group"><text id="SvgjsText2789" font-family="'Montserrat','Nunito Sans','Microsoft YaHei','Microsoft JhengHei',sans-serif" font-size="14" font-weight="normal" fill="#44556e" font-style="normal" text-decoration="none" text-anchor="start" transform="translate(-37.155975341796875 -9.1)" style="user-select: none; cursor: default;"><tspan id="SvgjsTspan2940" font-family="'Montserrat','Nunito Sans','Microsoft YaHei','Microsoft JhengHei',sans-serif" font-size="14" font-weight="normal" fill="#44556e" font-style="normal" text-decoration="none" dy="14" x="0" style="white-space: pre;">Subtopic 2</tspan></text></g></g></g></g></g><g id="SvgjsG2802" data-name="branch" class="branch" transform="translate(-210.4969024658203 -60.5)"><g id="SvgjsG2795" data-name="topic"><g id="SvgjsG2796" data-name="topic-shape-group"><path id="SvgjsPath2799" data-name="topic-shape-fill" fill="#ffffff" stroke="none" opacity="1" d="M -62.036949157714844 -8.666666666666668Q -62.036949157714844 -13.666666666666668 -57.15403320750728 -14.742367286359984Q 0 -27.333333333333336 57.15403320750728 -14.742367286359984Q 62.036949157714844 -13.666666666666668 62.036949157714844 -8.666666666666668L 62.036949157714844 8.666666666666668Q 62.036949157714844 13.666666666666668 57.15403320750728 14.742367286359984Q 0 27.333333333333336 -57.15403320750728 14.742367286359984Q -62.036949157714844 13.666666666666668 -62.036949157714844 8.666666666666668Z"></path><path id="SvgjsPath2800" data-name="topic-shape" fill="none" stroke-width="0" d="M -62.036949157714844 -8.666666666666668Q -62.036949157714844 -13.666666666666668 -57.15403320750728 -14.742367286359984Q 0 -27.333333333333336 57.15403320750728 -14.742367286359984Q 62.036949157714844 -13.666666666666668 62.036949157714844 -8.666666666666668L 62.036949157714844 8.666666666666668Q 62.036949157714844 13.666666666666668 57.15403320750728 14.742367286359984Q 0 27.333333333333336 -57.15403320750728 14.742367286359984Q -62.036949157714844 13.666666666666668 -62.036949157714844 8.666666666666668Z"></path><g id="SvgjsG2797" data-name="inner-element-group"><g id="SvgjsG2832" data-name="topic-title-text-group"><text id="SvgjsText2831" font-family="'Montserrat','Nunito Sans','Microsoft YaHei','Microsoft JhengHei',sans-serif" font-size="14" font-weight="600" fill="#44556e" font-style="normal" text-decoration="none" text-anchor="start" transform="translate(-44.036949157714844 -9.1)" style="user-select: none; cursor: default;"><tspan id="SvgjsTspan2941" font-family="'Montserrat','Nunito Sans','Microsoft YaHei','Microsoft JhengHei',sans-serif" font-size="14" font-weight="600" fill="#44556e" font-style="normal" text-decoration="none" dy="14" x="0" style="white-space: pre;">Main Topic 3</tspan></text></g></g></g><g id="SvgjsG2908" data-name="collapse-extended" class="collapseextend" transform="translate(-81.03694915771484 -6)" style="cursor: pointer; display: none;"><line id="SvgjsLine2909" stroke-width="0" x1="12" y1="6" x2="19" y2="6" stroke="#a7b7c7"></line><g id="SvgjsG2910"><ellipse id="SvgjsEllipse2911" rx="6" ry="6" cx="6" cy="6" fill="#eff8fa"></ellipse><ellipse id="SvgjsEllipse2912" rx="6" ry="6" cx="6" cy="6" fill="none" stroke="#a7b7c7"></ellipse><path id="SvgjsPath2913" d="M 2, 6 L 10, 6" stroke="#a7b7c7"></path></g><g id="SvgjsG2914"><ellipse id="SvgjsEllipse2915" rx="8" ry="8" cx="8" cy="8" fill="#eff8fa"></ellipse><ellipse id="SvgjsEllipse2916" rx="8" ry="8" cx="8" cy="8" fill="none" stroke="#a7b7c7" stroke-width="1"></ellipse><text id="SvgjsText2917" font-family="Helvetica, Arial, sans-serif" fill="#a7b7c7" style="user-select: none; cursor: default;"></text></g><ellipse id="SvgjsEllipse2918" rx="8" ry="8" cx="8" cy="8" fill="none" style="pointer-events: visible;"></ellipse></g></g></g><g id="SvgjsG2812" data-name="branch" class="branch" transform="translate(-366.22682189941406 -80)"><g id="SvgjsG2805" data-name="topic"><g id="SvgjsG2806" data-name="topic-shape-group"><path id="SvgjsPath2809" data-name="topic-shape-fill" opacity="0" d="M -41.692970275878906 -6Q -41.692970275878906 -11 -36.858402361595225 -12.275520710211607Q 0 -22 36.858402361595225 -12.275520710211607Q 41.692970275878906 -11 41.692970275878906 -6L 41.692970275878906 6Q 41.692970275878906 11 36.858402361595225 12.275520710211607Q 0 22 -36.858402361595225 12.275520710211607Q -41.692970275878906 11 -41.692970275878906 6Z"></path><path id="SvgjsPath2810" data-name="topic-shape" fill="none" stroke-width="0" d="M -41.692970275878906 -6Q -41.692970275878906 -11 -36.858402361595225 -12.275520710211607Q 0 -22 36.858402361595225 -12.275520710211607Q 41.692970275878906 -11 41.692970275878906 -6L 41.692970275878906 6Q 41.692970275878906 11 36.858402361595225 12.275520710211607Q 0 22 -36.858402361595225 12.275520710211607Q -41.692970275878906 11 -41.692970275878906 6Z"></path><g id="SvgjsG2807" data-name="inner-element-group"><g id="SvgjsG2816" data-name="topic-title-text-group"><text id="SvgjsText2815" font-family="'Montserrat','Nunito Sans','Microsoft YaHei','Microsoft JhengHei',sans-serif" font-size="14" font-weight="normal" fill="#44556e" font-style="normal" text-decoration="none" text-anchor="start" transform="translate(-35.692970275878906 -9.1)" style="user-select: none; cursor: default;"><tspan id="SvgjsTspan2942" font-family="'Montserrat','Nunito Sans','Microsoft YaHei','Microsoft JhengHei',sans-serif" font-size="14" font-weight="normal" fill="#44556e" font-style="normal" text-decoration="none" dy="14" x="0" style="white-space: pre;">Subtopic 1</tspan></text></g></g></g></g></g><g id="SvgjsG2825" data-name="branch" class="branch" transform="translate(-367.68982696533203 -41)"><g id="SvgjsG2818" data-name="topic"><g id="SvgjsG2819" data-name="topic-shape-group"><path id="SvgjsPath2822" data-name="topic-shape-fill" opacity="0" d="M -43.155975341796875 -6Q -43.155975341796875 -11 -38.31088808133336 -12.2349613105252Q 0 -22 38.31088808133336 -12.2349613105252Q 43.155975341796875 -11 43.155975341796875 -6L 43.155975341796875 6Q 43.155975341796875 11 38.31088808133336 12.2349613105252Q 0 22 -38.31088808133336 12.2349613105252Q -43.155975341796875 11 -43.155975341796875 6Z"></path><path id="SvgjsPath2823" data-name="topic-shape" fill="none" stroke-width="0" d="M -43.155975341796875 -6Q -43.155975341796875 -11 -38.31088808133336 -12.2349613105252Q 0 -22 38.31088808133336 -12.2349613105252Q 43.155975341796875 -11 43.155975341796875 -6L 43.155975341796875 6Q 43.155975341796875 11 38.31088808133336 12.2349613105252Q 0 22 -38.31088808133336 12.2349613105252Q -43.155975341796875 11 -43.155975341796875 6Z"></path><g id="SvgjsG2820" data-name="inner-element-group"><g id="SvgjsG2829" data-name="topic-title-text-group"><text id="SvgjsText2828" font-family="'Montserrat','Nunito Sans','Microsoft YaHei','Microsoft JhengHei',sans-serif" font-size="14" font-weight="normal" fill="#44556e" font-style="normal" text-decoration="none" text-anchor="start" transform="translate(-37.155975341796875 -9.1)" style="user-select: none; cursor: default;"><tspan id="SvgjsTspan2943" font-family="'Montserrat','Nunito Sans','Microsoft YaHei','Microsoft JhengHei',sans-serif" font-size="14" font-weight="normal" fill="#44556e" font-style="normal" text-decoration="none" dy="14" x="0" style="white-space: pre;">Subtopic 2</tspan></text></g></g></g></g></g></g><g id="SvgjsG2651" data-name="relationship-container"><g id="SvgjsG2854" data-name="relationship" class="relationship"><path id="SvgjsPath2855" data-name="relationship-path" clip-path="url(&quot;#SvgjsClipPath2873&quot;)" style="fill: none;" stroke-dasharray="" stroke="#6eb5e2" stroke-width="1" marker-start="url(#SvgjsMarker2944)" marker-end="url(#SvgjsMarker2946)" d="M -417.1556739807129 31.488945960998535L -458.7873576466641 31.488945960998535L -458.7873576466641 -69.40989275632012L -410.887136533283 -69.40989275632012"></path><path id="SvgjsPath2857" data-name="relationship-shadow-action-path" stroke="none" stroke-width="11" style="stroke-opacity: 0; stroke: none; fill: none;" d="M -417.1556739807129 31.488945960998535L -458.7873576466641 31.488945960998535L -458.7873576466641 -69.40989275632012L -410.887136533283 -69.40989275632012"></path><text id="SvgjsText2858" font-family="'Montserrat','Montserrat','Nunito Sans','Microsoft YaHei','Microsoft JhengHei',sans-serif" data-name="relationship-title" style="user-select: none; cursor: default; pointer-events: none; display: none;" font-size="12" font-weight="400" font-style="italic" text-decoration="none" fill="#44556e" x="-458.787353515625" y="-139.3780117034912"><tspan id="SvgjsTspan2954" style="white-space: pre;">Relationship</tspan></text></g></g><g id="SvgjsG2654" data-name="cloneG" opacity="0.5"></g></g></g><defs id="SvgjsDefs2643"><rect id="SvgjsRect2870" width="447.90020751953125" height="500.8988342285156" fill="white" x="-658.787353515625" y="-269.4098892211914"></rect><rect id="SvgjsRect2871" width="0" height="0" fill="black" style="display: none;"></rect><clipPath id="SvgjsClipPath2873" style="display: none;"><path id="SvgjsPath2872" d="M -658.787353515625 -269.4098815917969 L-210.88714599609375 -269.4098815917969 L-210.88714599609375 231.48895263671875 L-658.787353515625 231.48895263671875 M 0 0 L0 0 L0 0 L0 0" fill="black" clip-rule="evenodd"></path></clipPath><clipPath id="SvgjsClipPath2920"><path id="SvgjsPath2919" d="M -109.45995330810547 -17Q -109.45995330810547 -22 -104.55798232943899 -22.985231203480485Q 0 -44 104.55798232943899 -22.985231203480485Q 109.45995330810547 -22 109.45995330810547 -17L 109.45995330810547 17Q 109.45995330810547 22 104.55798232943899 22.985231203480485Q 0 44 -104.55798232943899 22.985231203480485Q -109.45995330810547 22 -109.45995330810547 17Z M -10000 -10000 L10000 -10000 L10000 10000 L-10000 10000" fill="black" clip-rule="evenodd" transform="translate(0 0) "></path></clipPath><marker id="SvgjsMarker2923" markerWidth="8" markerHeight="8" refX="5" refY="4" viewBox="0 0 8 8" orient="auto"><path id="SvgjsPath2924" d="" stroke="#2a7ac2" stroke-width="1" stroke-dasharray="none" fill="none"></path></marker><marker id="SvgjsMarker2925" markerWidth="8" markerHeight="8" refX="2" refY="4" viewBox="0 0 8 8" orient="auto"><path id="SvgjsPath2926" d="M 2 2 L 6 4 L 2 6" stroke-width="0" stroke-dasharray="none" stroke="#2a7ac2" fill="#2a7ac2"></path></marker><marker id="SvgjsMarker2944" markerWidth="8" markerHeight="8" refX="5" refY="4" viewBox="0 0 8 8" orient="auto"><path id="SvgjsPath2945" d="" stroke="#6eb5e2" stroke-width="1" stroke-dasharray="none" fill="none"></path></marker><marker id="SvgjsMarker2946" markerWidth="8" markerHeight="8" refX="2" refY="4" viewBox="0 0 8 8" orient="auto"><path id="SvgjsPath2947" d="M 2 2 L 6 4 L 2 6" stroke-width="0" stroke-dasharray="none" stroke="#6eb5e2" fill="#6eb5e2"></path></marker><clipPath id="SvgjsClipPath2952"><path id="SvgjsPath2951" d="M -8.212814331054688 12.499999999999993 L7.7871856689453125 12.499999999999993 L7.7871856689453125 12.499999999999993 L-8.212814331054688 12.499999999999993 M -10000 -10000 L10000 -10000 L10000 10000 L-10000 10000" fill="black" clip-rule="evenodd"></path></clipPath></defs></svg>