<?xml version="1.0" standalone="no"?><!DOCTYPE svg PUBLIC "-//W3C//DTD SVG 1.1//EN" "http://www.w3.org/Graphics/SVG/1.1/DTD/svg11.dtd" [<!ENTITY nbsp "&#160;">]><svg id="SvgjsSvg2955" xmlns="http://www.w3.org/2000/svg" version="1.1" width="227.99999999999997" height="139.99999999999997" xmlns:xlink="http://www.w3.org/1999/xlink" style="display: block; background-color: rgb(241, 236, 230);" viewBox="0 0 1003.7728639734325 616.3517585801778"><defs><style type="text/css"><![CDATA[

]]></style></defs><g id="SvgjsG2957" data-name="container" transform="scale(1) translate(523.3018946450757 303.2567481539105)"><g id="SvgjsG2959" data-name="sheet"><g id="SvgjsG2960" data-name="matrix-container"></g><g id="SvgjsG2961" data-name="boundary-container"><g id="SvgjsG3147" data-name="boundary-group" class="boundary"><path id="SvgjsPath3148" data-name="boundary-path" stroke="#f67939" fill="#fce3d6" stroke-width="2" fill-opacity="0.2" stroke-dasharray="9, 3" d="M -434.9640728369746 30.08086886382158L -191.878125 30.08086886382158Q -171.878125 30.08086886382158 -171.878125 50.08086886382158L -171.878125 166.74103545079612Q -171.878125 186.74103545079612 -191.878125 186.74103545079612L -434.9640728369746 186.74103545079612Q -454.9640728369746 186.74103545079612 -454.9640728369746 166.74103545079612L -454.9640728369746 50.08086886382158Q -454.9640728369746 30.08086886382158 -434.9640728369746 30.08086886382158z"></path><g id="SvgjsG3150" data-name="boundary-title-group" transform="translate(-459.9640728369746 25.08086886382158)" style="display: none;"><rect id="SvgjsRect3152" data-name="boundary-title-bg" stroke="#f67939" fill="#fce3d6" stroke-width="2"></rect><text id="SvgjsText3151" font-family="Helvetica, Arial, sans-serif" data-name="boundary-title" style="user-select: none; cursor: default;"></text></g></g></g><g id="SvgjsG2962" data-name="connection-container"><path id="SvgjsPath2976" data-name="connection" stroke-linecap="round"></path><path id="SvgjsPath2986" data-name="connection" stroke-linecap="round" stroke="#ffffff" stroke-width="3" d="M 70.83673156071471 0L 70.83673156071471 0Q 91.24501024857177 -108.29221181903051 172.878125 -108.29221181903051" fill="none" marker-end="none" clip-path="url(&quot;#SvgjsClipPath3233&quot;)"></path><path id="SvgjsPath2996" data-name="connection" stroke-linecap="round" stroke="#ffffff" stroke-width="2" d="M 306.90503481063496 -108.29221181903051L 319.90503481063496 -108.29221181903051Q 327.90503481063496 -127.3922118190305 359.90503481063496 -127.3922118190305" marker-end="none" fill="none"></path><path id="SvgjsPath3009" data-name="connection" stroke-linecap="round" stroke="#ffffff" stroke-width="2" d="M 306.90503481063496 -108.29221181903051L 319.90503481063496 -108.29221181903051Q 327.90503481063496 -89.19221181903052 359.90503481063496 -89.19221181903052" marker-end="none" fill="none"></path><path id="SvgjsPath3025" data-name="connection" stroke-linecap="round" stroke="#ffffff" stroke-width="3" d="M 70.83673156071471 0L 70.83673156071471 0Q 91.24501024857177 108.29221181903051 172.878125 108.29221181903051" fill="none" marker-end="none" clip-path="url(&quot;#SvgjsClipPath3233&quot;)"></path><path id="SvgjsPath3035" data-name="connection" stroke-linecap="round" stroke="#ffffff" stroke-width="2" d="M 310.0200624654871 108.29221181903051L 323.0200624654871 108.29221181903051Q 331.0200624654871 89.1922118190305 363.0200624654871 89.1922118190305" marker-end="none" fill="none"></path><path id="SvgjsPath3045" data-name="connection" stroke-linecap="round" d="M 406 67 L 398 74 L 390 67" stroke-width="0" fill="#6078a0" marker-end="none"></path><path id="SvgjsPath3061" data-name="connection" stroke-linecap="round" stroke="#ffffff" stroke-width="2" d="M 310.0200624654871 108.29221181903051L 323.0200624654871 108.29221181903051Q 331.0200624654871 127.3922118190305 363.0200624654871 127.3922118190305" marker-end="none" fill="none"></path><path id="SvgjsPath3077" data-name="connection" stroke-linecap="round" stroke="#ffffff" stroke-width="3" d="M -70.70696890308533 0L -70.70696890308533 0Q -93.14120012246826 108.41095215730886 -182.878125 108.41095215730886" fill="none" marker-end="none" clip-path="url(&quot;#SvgjsClipPath3233&quot;)"></path><path id="SvgjsPath3087" data-name="connection" stroke-linecap="round" stroke="#ffffff" stroke-width="2" d="M -318.5382915869746 108.41095215730886L -331.5382915869746 108.41095215730886Q -339.5382915869746 89.31095215730886 -371.5382915869746 89.31095215730886" marker-end="none" fill="none"></path><path id="SvgjsPath3100" data-name="connection" stroke-linecap="round" stroke="#ffffff" stroke-width="2" d="M -318.5382915869746 108.41095215730886L -331.5382915869746 108.41095215730886Q -339.5382915869746 127.51095215730885 -371.5382915869746 127.51095215730885" marker-end="none" fill="none"></path><path id="SvgjsPath3116" data-name="connection" stroke-linecap="round" stroke="#ffffff" stroke-width="3" d="M -70.70696890308533 0L -70.70696890308533 0Q -91.14120012246826 -108.41095215730886 -172.878125 -108.41095215730886" fill="none" marker-end="none" clip-path="url(&quot;#SvgjsClipPath3233&quot;)"></path><path id="SvgjsPath3126" data-name="connection" stroke-linecap="round" stroke="#ffffff" stroke-width="2" d="M -308.86176704226085 -108.41095215730886L -321.86176704226085 -108.41095215730886Q -329.86176704226085 -127.51095215730885 -361.86176704226085 -127.51095215730885" marker-end="none" fill="none"></path><path id="SvgjsPath3139" data-name="connection" stroke-linecap="round" stroke="#ffffff" stroke-width="2" d="M -308.86176704226085 -108.41095215730886L -321.86176704226085 -108.41095215730886Q -329.86176704226085 -89.31095215730886 -361.86176704226085 -89.31095215730886" marker-end="none" fill="none"></path></g><g id="SvgjsG2963" data-name="branch-container"><g id="SvgjsG2975" data-name="branch" class="branch"><g id="SvgjsG2968" data-name="topic"><g id="SvgjsG2969" data-name="topic-shape-group"><path id="SvgjsPath2972" data-name="topic-shape-fill" fill="#6078a0" stroke="none" opacity="1" d="M -86.078125 -35.8
        C -133.81145833333332 -35.8 -133.81145833333332 35.8 -86.078125 35.8
        L 86.07812500000003 35.8
        C 133.81145833333335 35.8 133.81145833333335 -35.8 86.07812500000003 -35.8
        L -86.078125 -35.8"></path><path id="SvgjsPath2973" data-name="topic-shape" fill="none" stroke-width="0" d="M -86.078125 -35.8
        C -133.81145833333332 -35.8 -133.81145833333332 35.8 -86.078125 35.8
        L 86.07812500000003 35.8
        C 133.81145833333335 35.8 133.81145833333335 -35.8 86.07812500000003 -35.8
        L -86.078125 -35.8"></path><g id="SvgjsG2970" data-name="inner-element-group"><g id="SvgjsG3166" data-name="topic-title-text-group"><text id="SvgjsText3165" font-family="'Indie Flower','Nunito Sans','Microsoft YaHei','Microsoft JhengHei',sans-serif" font-size="32" font-weight="700" fill="#ffffff" font-style="normal" text-decoration="none" text-anchor="middle" transform="translate(0 -20.8)" style="user-select: none; cursor: default;"><tspan id="SvgjsTspan3241" font-family="'Indie Flower','Nunito Sans','Microsoft YaHei','Microsoft JhengHei',sans-serif" font-size="32" font-weight="700" fill="#ffffff" font-style="normal" text-decoration="none" dy="32" x="0" style="white-space: pre;">Central Topic</tspan></text></g></g></g></g></g><g id="SvgjsG2985" data-name="branch" class="branch" transform="translate(239.39157990531749 -108.29221181903051)"><g id="SvgjsG2978" data-name="topic"><g id="SvgjsG2979" data-name="topic-shape-group"><path id="SvgjsPath2982" data-name="topic-shape-fill" fill="#ffffff" stroke="none" opacity="1" d="M 0 0 m -66.51345490531747 0 a 66.51345490531747 , 66.51345490531747 0 1 , 0 133.02690981063495 , 0 a 66.51345490531747 , 66.51345490531747 0 1 , 0 -133.02690981063495 , 0 z"></path><path id="SvgjsPath2983" data-name="topic-shape" fill="none" stroke="#ffffff" stroke-width="2" d="M 0 0 m -66.51345490531747 0 a 66.51345490531747 , 66.51345490531747 0 1 , 0 133.02690981063495 , 0 a 66.51345490531747 , 66.51345490531747 0 1 , 0 -133.02690981063495 , 0 z"></path><g id="SvgjsG2980" data-name="inner-element-group"><g id="SvgjsG3015" data-name="topic-title-text-group"><text id="SvgjsText3014" font-family="'Indie Flower','Nunito Sans','Microsoft YaHei','Microsoft JhengHei',sans-serif" font-size="18" font-weight="normal" fill="#6078a0" font-style="normal" text-decoration="none" text-anchor="start" transform="translate(-44.6044921875 -11.700000000000001)" style="user-select: none; cursor: default;"><tspan id="SvgjsTspan3242" font-family="'Indie Flower','Nunito Sans','Microsoft YaHei','Microsoft JhengHei',sans-serif" font-size="18" font-weight="normal" fill="#6078a0" font-style="normal" text-decoration="none" dy="18" x="0" style="white-space: pre;">Main Topic 1</tspan></text></g></g></g><g id="SvgjsG3188" data-name="collapse-extended" class="collapseextend" transform="translate(74.51345490531747 -6)" style="cursor: pointer; display: none;"><line id="SvgjsLine3189" stroke-width="0" x1="0" y1="6" x2="-7" y2="6" stroke="#ffffff"></line><g id="SvgjsG3190"><ellipse id="SvgjsEllipse3191" rx="6" ry="6" cx="6" cy="6" fill="#f1ece6"></ellipse><ellipse id="SvgjsEllipse3192" rx="6" ry="6" cx="6" cy="6" fill="none" stroke="#ffffff"></ellipse><path id="SvgjsPath3193" d="M 2, 6 L 10, 6" stroke="#ffffff"></path></g><g id="SvgjsG3194"><ellipse id="SvgjsEllipse3195" rx="8" ry="8" cx="8" cy="8" fill="#f1ece6"></ellipse><ellipse id="SvgjsEllipse3196" rx="8" ry="8" cx="8" cy="8" fill="none" stroke="#ffffff" stroke-width="1"></ellipse><text id="SvgjsText3197" font-family="Helvetica, Arial, sans-serif" fill="#ffffff" style="user-select: none; cursor: default;"></text></g><ellipse id="SvgjsEllipse3198" rx="8" ry="8" cx="8" cy="8" fill="none" style="pointer-events: visible;"></ellipse></g></g></g><g id="SvgjsG2995" data-name="branch" class="branch" transform="translate(394.86694887313496 -127.3922118190305)"><g id="SvgjsG2988" data-name="topic"><g id="SvgjsG2989" data-name="topic-shape-group"><path id="SvgjsPath2992" data-name="topic-shape-fill" opacity="0" d="M -30.9619140625 -15.1L 30.9619140625 -15.1Q 35.9619140625 -15.1  35.9619140625 -10.1L 35.9619140625 10.1Q 35.9619140625 15.1  30.9619140625 15.1L -30.9619140625 15.1Q -35.9619140625 15.1  -35.9619140625 10.1L -35.9619140625 -10.1Q -35.9619140625 -15.1  -30.9619140625 -15.1"></path><path id="SvgjsPath2993" data-name="topic-shape" fill="none" stroke-width="0" d="M -30.9619140625 -15.1L 30.9619140625 -15.1Q 35.9619140625 -15.1  35.9619140625 -10.1L 35.9619140625 10.1Q 35.9619140625 15.1  30.9619140625 15.1L -30.9619140625 15.1Q -35.9619140625 15.1  -35.9619140625 10.1L -35.9619140625 -10.1Q -35.9619140625 -15.1  -30.9619140625 -15.1"></path><g id="SvgjsG2990" data-name="inner-element-group"><g id="SvgjsG2999" data-name="topic-title-text-group"><text id="SvgjsText2998" font-family="'Indie Flower','Nunito Sans','Microsoft YaHei','Microsoft JhengHei',sans-serif" font-size="14" font-weight="normal" fill="#6078a0" font-style="normal" text-decoration="none" text-anchor="start" transform="translate(-29.9619140625 -9.1)" style="user-select: none; cursor: default;"><tspan id="SvgjsTspan3243" font-family="'Indie Flower','Nunito Sans','Microsoft YaHei','Microsoft JhengHei',sans-serif" font-size="14" font-weight="normal" fill="#6078a0" font-style="normal" text-decoration="none" dy="14" x="0" style="white-space: pre;">Subtopic 1</tspan></text></g></g></g></g></g><g id="SvgjsG3008" data-name="branch" class="branch" transform="translate(396.11792543563496 -89.19221181903052)"><g id="SvgjsG3001" data-name="topic"><g id="SvgjsG3002" data-name="topic-shape-group"><path id="SvgjsPath3005" data-name="topic-shape-fill" opacity="0" d="M -32.212890625 -15.1L 32.212890625 -15.1Q 37.212890625 -15.1  37.212890625 -10.1L 37.212890625 10.1Q 37.212890625 15.1  32.212890625 15.1L -32.212890625 15.1Q -37.212890625 15.1  -37.212890625 10.1L -37.212890625 -10.1Q -37.212890625 -15.1  -32.212890625 -15.1"></path><path id="SvgjsPath3006" data-name="topic-shape" fill="none" stroke-width="0" d="M -32.212890625 -15.1L 32.212890625 -15.1Q 37.212890625 -15.1  37.212890625 -10.1L 37.212890625 10.1Q 37.212890625 15.1  32.212890625 15.1L -32.212890625 15.1Q -37.212890625 15.1  -37.212890625 10.1L -37.212890625 -10.1Q -37.212890625 -15.1  -32.212890625 -15.1"></path><g id="SvgjsG3003" data-name="inner-element-group"><g id="SvgjsG3012" data-name="topic-title-text-group"><text id="SvgjsText3011" font-family="'Indie Flower','Nunito Sans','Microsoft YaHei','Microsoft JhengHei',sans-serif" font-size="14" font-weight="normal" fill="#6078a0" font-style="normal" text-decoration="none" text-anchor="start" transform="translate(-31.212890625 -9.1)" style="user-select: none; cursor: default;"><tspan id="SvgjsTspan3244" font-family="'Indie Flower','Nunito Sans','Microsoft YaHei','Microsoft JhengHei',sans-serif" font-size="14" font-weight="normal" fill="#6078a0" font-style="normal" text-decoration="none" dy="14" x="0" style="white-space: pre;">Subtopic 2</tspan></text></g></g></g></g></g><g id="SvgjsG3024" data-name="branch" class="branch" transform="translate(240.94909373274356 108.29221181903051)"><g id="SvgjsG3017" data-name="topic"><g id="SvgjsG3018" data-name="topic-shape-group"><path id="SvgjsPath3021" data-name="topic-shape-fill" fill="#ffffff" stroke="none" opacity="1" d="M 0 0 m -68.07096873274355 0 a 68.07096873274355 , 68.07096873274355 0 1 , 0 136.1419374654871 , 0 a 68.07096873274355 , 68.07096873274355 0 1 , 0 -136.1419374654871 , 0 z"></path><path id="SvgjsPath3022" data-name="topic-shape" fill="none" stroke="#ffffff" stroke-width="2" d="M 0 0 m -68.07096873274355 0 a 68.07096873274355 , 68.07096873274355 0 1 , 0 136.1419374654871 , 0 a 68.07096873274355 , 68.07096873274355 0 1 , 0 -136.1419374654871 , 0 z"></path><g id="SvgjsG3019" data-name="inner-element-group"><g id="SvgjsG3067" data-name="topic-title-text-group"><text id="SvgjsText3066" font-family="'Indie Flower','Nunito Sans','Microsoft YaHei','Microsoft JhengHei',sans-serif" font-size="18" font-weight="normal" fill="#6078a0" font-style="normal" text-decoration="none" text-anchor="start" transform="translate(-46.212890625 -11.700000000000001)" style="user-select: none; cursor: default;"><tspan id="SvgjsTspan3245" font-family="'Indie Flower','Nunito Sans','Microsoft YaHei','Microsoft JhengHei',sans-serif" font-size="18" font-weight="normal" fill="#6078a0" font-style="normal" text-decoration="none" dy="18" x="0" style="white-space: pre;">Main Topic 2</tspan></text></g></g></g><g id="SvgjsG3199" data-name="collapse-extended" class="collapseextend" transform="translate(76.07096873274355 -6)" style="cursor: pointer; display: none;"><line id="SvgjsLine3200" stroke-width="0" x1="0" y1="6" x2="-7" y2="6" stroke="#ffffff"></line><g id="SvgjsG3201"><ellipse id="SvgjsEllipse3202" rx="6" ry="6" cx="6" cy="6" fill="#f1ece6"></ellipse><ellipse id="SvgjsEllipse3203" rx="6" ry="6" cx="6" cy="6" fill="none" stroke="#ffffff"></ellipse><path id="SvgjsPath3204" d="M 2, 6 L 10, 6" stroke="#ffffff"></path></g><g id="SvgjsG3205"><ellipse id="SvgjsEllipse3206" rx="8" ry="8" cx="8" cy="8" fill="#f1ece6"></ellipse><ellipse id="SvgjsEllipse3207" rx="8" ry="8" cx="8" cy="8" fill="none" stroke="#ffffff" stroke-width="1"></ellipse><text id="SvgjsText3208" font-family="Helvetica, Arial, sans-serif" fill="#ffffff" style="user-select: none; cursor: default;"></text></g><ellipse id="SvgjsEllipse3209" rx="8" ry="8" cx="8" cy="8" fill="none" style="pointer-events: visible;"></ellipse></g></g></g><g id="SvgjsG3034" data-name="branch" class="branch" transform="translate(397.9819765279871 89.1922118190305)"><g id="SvgjsG3027" data-name="topic"><g id="SvgjsG3028" data-name="topic-shape-group"><path id="SvgjsPath3031" data-name="topic-shape-fill" opacity="0" d="M -30.9619140625 -15.1L 30.9619140625 -15.1Q 35.9619140625 -15.1  35.9619140625 -10.1L 35.9619140625 10.1Q 35.9619140625 15.1  30.9619140625 15.1L -30.9619140625 15.1Q -35.9619140625 15.1  -35.9619140625 10.1L -35.9619140625 -10.1Q -35.9619140625 -15.1  -30.9619140625 -15.1"></path><path id="SvgjsPath3032" data-name="topic-shape" fill="none" stroke-width="0" d="M -30.9619140625 -15.1L 30.9619140625 -15.1Q 35.9619140625 -15.1  35.9619140625 -10.1L 35.9619140625 10.1Q 35.9619140625 15.1  30.9619140625 15.1L -30.9619140625 15.1Q -35.9619140625 15.1  -35.9619140625 10.1L -35.9619140625 -10.1Q -35.9619140625 -15.1  -30.9619140625 -15.1"></path><g id="SvgjsG3029" data-name="inner-element-group"><g id="SvgjsG3051" data-name="topic-title-text-group"><text id="SvgjsText3050" font-family="'Indie Flower','Nunito Sans','Microsoft YaHei','Microsoft JhengHei',sans-serif" font-size="14" font-weight="normal" fill="#6078a0" font-style="normal" text-decoration="none" text-anchor="start" transform="translate(-29.9619140625 -9.1)" style="user-select: none; cursor: default;"><tspan id="SvgjsTspan3246" font-family="'Indie Flower','Nunito Sans','Microsoft YaHei','Microsoft JhengHei',sans-serif" font-size="14" font-weight="normal" fill="#6078a0" font-style="normal" text-decoration="none" dy="14" x="0" style="white-space: pre;">Subtopic 1</tspan></text></g></g></g></g></g><g id="SvgjsG3044" data-name="branch" class="branch" transform="translate(397.9819765279871 54.2922118190305)"><g id="SvgjsG3037" data-name="topic"><g id="SvgjsG3038" data-name="topic-shape-group"><path id="SvgjsPath3041" data-name="topic-shape-fill" fill="#6078a0" stroke="none" opacity="1" d="M -16.474609375 -13.8L 16.474609375 -13.8Q 21.474609375 -13.8  21.474609375 -8.8L 21.474609375 8.8Q 21.474609375 13.8  16.474609375 13.8L -16.474609375 13.8Q -21.474609375 13.8  -21.474609375 8.8L -21.474609375 -8.8Q -21.474609375 -13.8  -16.474609375 -13.8"></path><path id="SvgjsPath3042" data-name="topic-shape" fill="none" stroke-width="0" d="M -16.474609375 -13.8L 16.474609375 -13.8Q 21.474609375 -13.8  21.474609375 -8.8L 21.474609375 8.8Q 21.474609375 13.8  16.474609375 13.8L -16.474609375 13.8Q -21.474609375 13.8  -21.474609375 8.8L -21.474609375 -8.8Q -21.474609375 -13.8  -16.474609375 -13.8" clip-path="url(&quot;#SvgjsClipPath3265&quot;)"></path><g id="SvgjsG3039" data-name="inner-element-group"><g id="SvgjsG3048" data-name="topic-title-text-group"><text id="SvgjsText3047" font-family="'Indie Flower','Nunito Sans','Microsoft YaHei','Microsoft JhengHei',sans-serif" font-size="12" font-weight="normal" fill="#ffffff" font-style="italic" text-decoration="none" text-anchor="middle" transform="translate(0 -7.800000000000001)" style="user-select: none; cursor: default;"><tspan id="SvgjsTspan3249" font-family="'Indie Flower','Nunito Sans','Microsoft YaHei','Microsoft JhengHei',sans-serif" font-size="12" font-weight="normal" fill="#ffffff" font-style="italic" text-decoration="none" dy="12" x="0" style="white-space: pre;">Callout</tspan></text></g></g></g></g></g><g id="SvgjsG3060" data-name="branch" class="branch" transform="translate(399.2329530904871 127.3922118190305)"><g id="SvgjsG3053" data-name="topic"><g id="SvgjsG3054" data-name="topic-shape-group"><path id="SvgjsPath3057" data-name="topic-shape-fill" opacity="0" d="M -32.212890625 -15.1L 32.212890625 -15.1Q 37.212890625 -15.1  37.212890625 -10.1L 37.212890625 10.1Q 37.212890625 15.1  32.212890625 15.1L -32.212890625 15.1Q -37.212890625 15.1  -37.212890625 10.1L -37.212890625 -10.1Q -37.212890625 -15.1  -32.212890625 -15.1"></path><path id="SvgjsPath3058" data-name="topic-shape" fill="none" stroke-width="0" d="M -32.212890625 -15.1L 32.212890625 -15.1Q 37.212890625 -15.1  37.212890625 -10.1L 37.212890625 10.1Q 37.212890625 15.1  32.212890625 15.1L -32.212890625 15.1Q -37.212890625 15.1  -37.212890625 10.1L -37.212890625 -10.1Q -37.212890625 -15.1  -32.212890625 -15.1"></path><g id="SvgjsG3055" data-name="inner-element-group"><g id="SvgjsG3064" data-name="topic-title-text-group"><text id="SvgjsText3063" font-family="'Indie Flower','Nunito Sans','Microsoft YaHei','Microsoft JhengHei',sans-serif" font-size="14" font-weight="normal" fill="#6078a0" font-style="normal" text-decoration="none" text-anchor="start" transform="translate(-31.212890625 -9.1)" style="user-select: none; cursor: default;"><tspan id="SvgjsTspan3250" font-family="'Indie Flower','Nunito Sans','Microsoft YaHei','Microsoft JhengHei',sans-serif" font-size="14" font-weight="normal" fill="#6078a0" font-style="normal" text-decoration="none" dy="14" x="0" style="white-space: pre;">Subtopic 2</tspan></text></g></g></g></g></g><g id="SvgjsG3076" data-name="branch" class="branch" transform="translate(-250.2082082934873 108.41095215730886)"><g id="SvgjsG3069" data-name="topic"><g id="SvgjsG3070" data-name="topic-shape-group"><path id="SvgjsPath3073" data-name="topic-shape-fill" fill="#ffffff" stroke="none" opacity="1" d="M 0 0 m -67.33008329348729 0 a 67.33008329348729 , 67.33008329348729 0 1 , 0 134.66016658697458 , 0 a 67.33008329348729 , 67.33008329348729 0 1 , 0 -134.66016658697458 , 0 z"></path><path id="SvgjsPath3074" data-name="topic-shape" fill="none" stroke="#ffffff" stroke-width="2" d="M 0 0 m -67.33008329348729 0 a 67.33008329348729 , 67.33008329348729 0 1 , 0 134.66016658697458 , 0 a 67.33008329348729 , 67.33008329348729 0 1 , 0 -134.66016658697458 , 0 z"></path><g id="SvgjsG3071" data-name="inner-element-group"><g id="SvgjsG3106" data-name="topic-title-text-group"><text id="SvgjsText3105" font-family="'Indie Flower','Nunito Sans','Microsoft YaHei','Microsoft JhengHei',sans-serif" font-size="18" font-weight="normal" fill="#6078a0" font-style="normal" text-decoration="none" text-anchor="start" transform="translate(-45.4482421875 -11.700000000000001)" style="user-select: none; cursor: default;"><tspan id="SvgjsTspan3251" font-family="'Indie Flower','Nunito Sans','Microsoft YaHei','Microsoft JhengHei',sans-serif" font-size="18" font-weight="normal" fill="#6078a0" font-style="normal" text-decoration="none" dy="18" x="0" style="white-space: pre;">Main Topic 4</tspan></text></g></g></g><g id="SvgjsG3210" data-name="collapse-extended" class="collapseextend" transform="translate(-87.33008329348729 -6)" style="cursor: pointer; display: none;"><line id="SvgjsLine3211" stroke-width="0" x1="12" y1="6" x2="19" y2="6" stroke="#ffffff"></line><g id="SvgjsG3212"><ellipse id="SvgjsEllipse3213" rx="6" ry="6" cx="6" cy="6" fill="#f1ece6"></ellipse><ellipse id="SvgjsEllipse3214" rx="6" ry="6" cx="6" cy="6" fill="none" stroke="#ffffff"></ellipse><path id="SvgjsPath3215" d="M 2, 6 L 10, 6" stroke="#ffffff"></path></g><g id="SvgjsG3216"><ellipse id="SvgjsEllipse3217" rx="8" ry="8" cx="8" cy="8" fill="#f1ece6"></ellipse><ellipse id="SvgjsEllipse3218" rx="8" ry="8" cx="8" cy="8" fill="none" stroke="#ffffff" stroke-width="1"></ellipse><text id="SvgjsText3219" font-family="Helvetica, Arial, sans-serif" fill="#ffffff" style="user-select: none; cursor: default;"></text></g><ellipse id="SvgjsEllipse3220" rx="8" ry="8" cx="8" cy="8" fill="none" style="pointer-events: visible;"></ellipse></g></g></g><g id="SvgjsG3086" data-name="branch" class="branch" transform="translate(-406.5002056494746 89.31095215730886)"><g id="SvgjsG3079" data-name="topic"><g id="SvgjsG3080" data-name="topic-shape-group"><path id="SvgjsPath3083" data-name="topic-shape-fill" opacity="0" d="M -30.9619140625 -15.1L 30.9619140625 -15.1Q 35.9619140625 -15.1  35.9619140625 -10.1L 35.9619140625 10.1Q 35.9619140625 15.1  30.9619140625 15.1L -30.9619140625 15.1Q -35.9619140625 15.1  -35.9619140625 10.1L -35.9619140625 -10.1Q -35.9619140625 -15.1  -30.9619140625 -15.1"></path><path id="SvgjsPath3084" data-name="topic-shape" fill="none" stroke-width="0" d="M -30.9619140625 -15.1L 30.9619140625 -15.1Q 35.9619140625 -15.1  35.9619140625 -10.1L 35.9619140625 10.1Q 35.9619140625 15.1  30.9619140625 15.1L -30.9619140625 15.1Q -35.9619140625 15.1  -35.9619140625 10.1L -35.9619140625 -10.1Q -35.9619140625 -15.1  -30.9619140625 -15.1"></path><g id="SvgjsG3081" data-name="inner-element-group"><g id="SvgjsG3090" data-name="topic-title-text-group"><text id="SvgjsText3089" font-family="'Indie Flower','Nunito Sans','Microsoft YaHei','Microsoft JhengHei',sans-serif" font-size="14" font-weight="normal" fill="#6078a0" font-style="normal" text-decoration="none" text-anchor="start" transform="translate(-29.9619140625 -9.1)" style="user-select: none; cursor: default;"><tspan id="SvgjsTspan3252" font-family="'Indie Flower','Nunito Sans','Microsoft YaHei','Microsoft JhengHei',sans-serif" font-size="14" font-weight="normal" fill="#6078a0" font-style="normal" text-decoration="none" dy="14" x="0" style="white-space: pre;">Subtopic 1</tspan></text></g></g></g></g></g><g id="SvgjsG3099" data-name="branch" class="branch" transform="translate(-407.7511822119746 127.51095215730885)"><g id="SvgjsG3092" data-name="topic"><g id="SvgjsG3093" data-name="topic-shape-group"><path id="SvgjsPath3096" data-name="topic-shape-fill" opacity="0" d="M -32.212890625 -15.1L 32.212890625 -15.1Q 37.212890625 -15.1  37.212890625 -10.1L 37.212890625 10.1Q 37.212890625 15.1  32.212890625 15.1L -32.212890625 15.1Q -37.212890625 15.1  -37.212890625 10.1L -37.212890625 -10.1Q -37.212890625 -15.1  -32.212890625 -15.1"></path><path id="SvgjsPath3097" data-name="topic-shape" fill="none" stroke-width="0" d="M -32.212890625 -15.1L 32.212890625 -15.1Q 37.212890625 -15.1  37.212890625 -10.1L 37.212890625 10.1Q 37.212890625 15.1  32.212890625 15.1L -32.212890625 15.1Q -37.212890625 15.1  -37.212890625 10.1L -37.212890625 -10.1Q -37.212890625 -15.1  -32.212890625 -15.1"></path><g id="SvgjsG3094" data-name="inner-element-group"><g id="SvgjsG3103" data-name="topic-title-text-group"><text id="SvgjsText3102" font-family="'Indie Flower','Nunito Sans','Microsoft YaHei','Microsoft JhengHei',sans-serif" font-size="14" font-weight="normal" fill="#6078a0" font-style="normal" text-decoration="none" text-anchor="start" transform="translate(-31.212890625 -9.1)" style="user-select: none; cursor: default;"><tspan id="SvgjsTspan3253" font-family="'Indie Flower','Nunito Sans','Microsoft YaHei','Microsoft JhengHei',sans-serif" font-size="14" font-weight="normal" fill="#6078a0" font-style="normal" text-decoration="none" dy="14" x="0" style="white-space: pre;">Subtopic 2</tspan></text></g></g></g></g></g><g id="SvgjsG3115" data-name="branch" class="branch" transform="translate(-240.36994602113043 -108.41095215730886)"><g id="SvgjsG3108" data-name="topic"><g id="SvgjsG3109" data-name="topic-shape-group"><path id="SvgjsPath3112" data-name="topic-shape-fill" fill="#ffffff" stroke="none" opacity="1" d="M 0 0 m -67.49182102113042 0 a 67.49182102113042 , 67.49182102113042 0 1 , 0 134.98364204226084 , 0 a 67.49182102113042 , 67.49182102113042 0 1 , 0 -134.98364204226084 , 0 z"></path><path id="SvgjsPath3113" data-name="topic-shape" fill="none" stroke="#ffffff" stroke-width="2" d="M 0 0 m -67.49182102113042 0 a 67.49182102113042 , 67.49182102113042 0 1 , 0 134.98364204226084 , 0 a 67.49182102113042 , 67.49182102113042 0 1 , 0 -134.98364204226084 , 0 z"></path><g id="SvgjsG3110" data-name="inner-element-group"><g id="SvgjsG3145" data-name="topic-title-text-group"><text id="SvgjsText3144" font-family="'Indie Flower','Nunito Sans','Microsoft YaHei','Microsoft JhengHei',sans-serif" font-size="18" font-weight="normal" fill="#6078a0" font-style="normal" text-decoration="none" text-anchor="start" transform="translate(-45.615234375 -11.700000000000001)" style="user-select: none; cursor: default;"><tspan id="SvgjsTspan3254" font-family="'Indie Flower','Nunito Sans','Microsoft YaHei','Microsoft JhengHei',sans-serif" font-size="18" font-weight="normal" fill="#6078a0" font-style="normal" text-decoration="none" dy="18" x="0" style="white-space: pre;">Main Topic 3</tspan></text></g></g></g><g id="SvgjsG3221" data-name="collapse-extended" class="collapseextend" transform="translate(-87.49182102113042 -6)" style="cursor: pointer; display: none;"><line id="SvgjsLine3222" stroke-width="0" x1="12" y1="6" x2="19" y2="6" stroke="#ffffff"></line><g id="SvgjsG3223"><ellipse id="SvgjsEllipse3224" rx="6" ry="6" cx="6" cy="6" fill="#f1ece6"></ellipse><ellipse id="SvgjsEllipse3225" rx="6" ry="6" cx="6" cy="6" fill="none" stroke="#ffffff"></ellipse><path id="SvgjsPath3226" d="M 2, 6 L 10, 6" stroke="#ffffff"></path></g><g id="SvgjsG3227"><ellipse id="SvgjsEllipse3228" rx="8" ry="8" cx="8" cy="8" fill="#f1ece6"></ellipse><ellipse id="SvgjsEllipse3229" rx="8" ry="8" cx="8" cy="8" fill="none" stroke="#ffffff" stroke-width="1"></ellipse><text id="SvgjsText3230" font-family="Helvetica, Arial, sans-serif" fill="#ffffff" style="user-select: none; cursor: default;"></text></g><ellipse id="SvgjsEllipse3231" rx="8" ry="8" cx="8" cy="8" fill="none" style="pointer-events: visible;"></ellipse></g></g></g><g id="SvgjsG3125" data-name="branch" class="branch" transform="translate(-396.82368110476085 -127.51095215730885)"><g id="SvgjsG3118" data-name="topic"><g id="SvgjsG3119" data-name="topic-shape-group"><path id="SvgjsPath3122" data-name="topic-shape-fill" opacity="0" d="M -30.9619140625 -15.1L 30.9619140625 -15.1Q 35.9619140625 -15.1  35.9619140625 -10.1L 35.9619140625 10.1Q 35.9619140625 15.1  30.9619140625 15.1L -30.9619140625 15.1Q -35.9619140625 15.1  -35.9619140625 10.1L -35.9619140625 -10.1Q -35.9619140625 -15.1  -30.9619140625 -15.1"></path><path id="SvgjsPath3123" data-name="topic-shape" fill="none" stroke-width="0" d="M -30.9619140625 -15.1L 30.9619140625 -15.1Q 35.9619140625 -15.1  35.9619140625 -10.1L 35.9619140625 10.1Q 35.9619140625 15.1  30.9619140625 15.1L -30.9619140625 15.1Q -35.9619140625 15.1  -35.9619140625 10.1L -35.9619140625 -10.1Q -35.9619140625 -15.1  -30.9619140625 -15.1"></path><g id="SvgjsG3120" data-name="inner-element-group"><g id="SvgjsG3129" data-name="topic-title-text-group"><text id="SvgjsText3128" font-family="'Indie Flower','Nunito Sans','Microsoft YaHei','Microsoft JhengHei',sans-serif" font-size="14" font-weight="normal" fill="#6078a0" font-style="normal" text-decoration="none" text-anchor="start" transform="translate(-29.9619140625 -9.1)" style="user-select: none; cursor: default;"><tspan id="SvgjsTspan3255" font-family="'Indie Flower','Nunito Sans','Microsoft YaHei','Microsoft JhengHei',sans-serif" font-size="14" font-weight="normal" fill="#6078a0" font-style="normal" text-decoration="none" dy="14" x="0" style="white-space: pre;">Subtopic 1</tspan></text></g></g></g></g></g><g id="SvgjsG3138" data-name="branch" class="branch" transform="translate(-398.07465766726085 -89.31095215730886)"><g id="SvgjsG3131" data-name="topic"><g id="SvgjsG3132" data-name="topic-shape-group"><path id="SvgjsPath3135" data-name="topic-shape-fill" opacity="0" d="M -32.212890625 -15.1L 32.212890625 -15.1Q 37.212890625 -15.1  37.212890625 -10.1L 37.212890625 10.1Q 37.212890625 15.1  32.212890625 15.1L -32.212890625 15.1Q -37.212890625 15.1  -37.212890625 10.1L -37.212890625 -10.1Q -37.212890625 -15.1  -32.212890625 -15.1"></path><path id="SvgjsPath3136" data-name="topic-shape" fill="none" stroke-width="0" d="M -32.212890625 -15.1L 32.212890625 -15.1Q 37.212890625 -15.1  37.212890625 -10.1L 37.212890625 10.1Q 37.212890625 15.1  32.212890625 15.1L -32.212890625 15.1Q -37.212890625 15.1  -37.212890625 10.1L -37.212890625 -10.1Q -37.212890625 -15.1  -32.212890625 -15.1"></path><g id="SvgjsG3133" data-name="inner-element-group"><g id="SvgjsG3142" data-name="topic-title-text-group"><text id="SvgjsText3141" font-family="'Indie Flower','Nunito Sans','Microsoft YaHei','Microsoft JhengHei',sans-serif" font-size="14" font-weight="normal" fill="#6078a0" font-style="normal" text-decoration="none" text-anchor="start" transform="translate(-31.212890625 -9.1)" style="user-select: none; cursor: default;"><tspan id="SvgjsTspan3256" font-family="'Indie Flower','Nunito Sans','Microsoft YaHei','Microsoft JhengHei',sans-serif" font-size="14" font-weight="normal" fill="#6078a0" font-style="normal" text-decoration="none" dy="14" x="0" style="white-space: pre;">Subtopic 2</tspan></text></g></g></g></g></g></g><g id="SvgjsG2964" data-name="relationship-container"><g id="SvgjsG3167" data-name="relationship" class="relationship"><path id="SvgjsPath3168" data-name="relationship-path" clip-path="url(&quot;#SvgjsClipPath3186&quot;)" style="fill: none;" stroke-dasharray="9, 3" stroke="#f67939" stroke-width="2" marker-start="url(#SvgjsMarker3257)" marker-end="url(#SvgjsMarker3259)" d="M -442.4621197119746 81.46830651216726C -489.71431115840505 70.5052774011701  -488.66065502490073 -105.60732534670449  -440.55834488451137 -117.3238058069864"></path><path id="SvgjsPath3170" data-name="relationship-shadow-action-path" stroke="none" stroke-width="12" style="stroke-opacity: 0; stroke: none; fill: none;" d="M -442.4621197119746 81.46830651216726C -489.71431115840505 70.5052774011701  -488.66065502490073 -105.60732534670449  -440.55834488451137 -117.3238058069864"></path><text id="SvgjsText3171" font-family="'Indie Flower','Indie Flower','Nunito Sans','Microsoft YaHei','Microsoft JhengHei',sans-serif" data-name="relationship-title" style="user-select: none; cursor: default; pointer-events: none; display: none;" font-size="12" font-weight="normal" font-style="italic" text-decoration="none" fill="#6078a0" x="-477.26287841796875" y="-113.57389640808105"><tspan id="SvgjsTspan3267" style="white-space: pre;">Relationship</tspan></text></g></g><g id="SvgjsG2967" data-name="cloneG" opacity="0.5"></g></g></g><defs id="SvgjsDefs2956"><rect id="SvgjsRect3183" width="449.1559753417969" height="598.7921142578125" fill="white" x="-689.7143249511719" y="-317.3238067626953"></rect><rect id="SvgjsRect3184" width="0" height="0" fill="black" style="display: none;"></rect><clipPath id="SvgjsClipPath3186" style="display: none;"><path id="SvgjsPath3185" d="M -689.71435546875 -317.32379150390625 L-240.55838012695312 -317.32379150390625 L-240.55838012695312 281.46832275390625 L-689.71435546875 281.46832275390625 M 0 0 L0 0 L0 0 L0 0" fill="black" clip-rule="evenodd"></path></clipPath><clipPath id="SvgjsClipPath3233"><path id="SvgjsPath3232" d="M -86.078125 -35.8
        C -133.81145833333332 -35.8 -133.81145833333332 35.8 -86.078125 35.8
        L 86.07812500000003 35.8
        C 133.81145833333335 35.8 133.81145833333335 -35.8 86.07812500000003 -35.8
        L -86.078125 -35.8 M -10000 -10000 L10000 -10000 L10000 10000 L-10000 10000" fill="black" clip-rule="evenodd" transform="translate(0 0) "></path></clipPath><marker id="SvgjsMarker3236" markerWidth="8" markerHeight="8" refX="5" refY="4" viewBox="0 0 8 8" orient="auto"><path id="SvgjsPath3237" d="" stroke="#2a7ac2" stroke-width="1" stroke-dasharray="none" fill="none"></path></marker><marker id="SvgjsMarker3238" markerWidth="8" markerHeight="8" refX="2" refY="4" viewBox="0 0 8 8" orient="auto"><path id="SvgjsPath3239" d="M 2 2 L 6 4 L 2 6" stroke-width="0" stroke-dasharray="none" stroke="#2a7ac2" fill="#2a7ac2"></path></marker><marker id="SvgjsMarker3257" markerWidth="8" markerHeight="8" refX="5" refY="4" viewBox="0 0 8 8" orient="auto"><path id="SvgjsPath3258" d="" stroke="#f67939" stroke-width="1" stroke-dasharray="none" fill="none"></path></marker><marker id="SvgjsMarker3259" markerWidth="8" markerHeight="8" refX="2" refY="4" viewBox="0 0 8 8" orient="auto"><path id="SvgjsPath3260" d="M 2 2 L 6 4 L 2 6" stroke-width="0" stroke-dasharray="none" stroke="#f67939" fill="#f67939"></path></marker><clipPath id="SvgjsClipPath3265"><path id="SvgjsPath3264" d="M -7.981976527987115 12.707788180969501 L8.018023472012885 12.707788180969501 L8.018023472012885 12.707788180969501 L-7.981976527987115 12.707788180969501 M -10000 -10000 L10000 -10000 L10000 10000 L-10000 10000" fill="black" clip-rule="evenodd"></path></clipPath></defs></svg>