<?xml version="1.0" standalone="no"?><!DOCTYPE svg PUBLIC "-//W3C//DTD SVG 1.1//EN" "http://www.w3.org/Graphics/SVG/1.1/DTD/svg11.dtd" [<!ENTITY nbsp "&#160;">]><svg id="SvgjsSvg3888" xmlns="http://www.w3.org/2000/svg" version="1.1" width="228" height="140" xmlns:xlink="http://www.w3.org/1999/xlink" style="display: block; background-color: rgb(81, 164, 180);" viewBox="0 0 947.8503651634776 582.0133821179248"><defs><style type="text/css"><![CDATA[

]]></style></defs><g id="SvgjsG3890" data-name="container" transform="scale(1) translate(498.14020912003764 290.05669105896243)"><g id="SvgjsG3898" data-name="sheet"><g id="SvgjsG3899" data-name="matrix-container"></g><g id="SvgjsG3900" data-name="boundary-container"><g id="SvgjsG4086" data-name="boundary-group" class="boundary"><path id="SvgjsPath4087" data-name="boundary-path" stroke="#ffffff" fill="#ffffff" stroke-width="2" fill-opacity="0.2" stroke-dasharray="9, 3" d="M -408.1377716064453 18.5L -183.7279510498047 18.5Q -163.7279510498047 18.5 -163.7279510498047 38.5L -163.7279510498047 84.9Q -163.7279510498047 104.9 -183.7279510498047 104.9L -408.1377716064453 104.9Q -428.1377716064453 104.9 -428.1377716064453 84.9L -428.1377716064453 38.5Q -428.1377716064453 18.5 -408.1377716064453 18.5z"></path><g id="SvgjsG4089" data-name="boundary-title-group" transform="translate(-433.1377716064453 13.5)" style="display: none;"><rect id="SvgjsRect4091" data-name="boundary-title-bg" stroke="#ffffff" fill="#ffffff" stroke-width="2"></rect><text id="SvgjsText4090" font-family="Helvetica, Arial, sans-serif" data-name="boundary-title" style="user-select: none; cursor: default;"></text></g></g></g><g id="SvgjsG3901" data-name="connection-container"><path id="SvgjsPath3915" data-name="connection" stroke-linecap="round"></path><path id="SvgjsPath3925" data-name="connection" stroke-linecap="round" stroke="#dee3ec" stroke-width="1" d="M 75.81863403320312 0L 75.81863403320312 0L 164.7279510498047 -69.80000000000001" fill="none" marker-end="none" clip-path="url(&quot;#SvgjsClipPath4172&quot;)"></path><path id="SvgjsPath3935" data-name="connection" stroke-linecap="round" stroke="#dee3ec" stroke-width="1" d="M 302.86785888671875 -69.80000000000001L 315.86785888671875 -69.80000000000001L 315.86785888671875 -79.9Q 315.86785888671875 -87.9 323.86785888671875 -87.9L 329.86785888671875 -87.9" marker-end="none" fill="none"></path><path id="SvgjsPath3948" data-name="connection" stroke-linecap="round" stroke="#dee3ec" stroke-width="1" d="M 302.86785888671875 -69.80000000000001L 315.86785888671875 -69.80000000000001L 315.86785888671875 -59.70000000000001Q 315.86785888671875 -51.70000000000001 323.86785888671875 -51.70000000000001L 329.86785888671875 -51.70000000000001" marker-end="none" fill="none"></path><path id="SvgjsPath3964" data-name="connection" stroke-linecap="round" stroke="#dee3ec" stroke-width="1" d="M 75.81863403320312 0L 75.81863403320312 0L 164.7279510498047 69.80000000000001" fill="none" marker-end="none" clip-path="url(&quot;#SvgjsClipPath4172&quot;)"></path><path id="SvgjsPath3974" data-name="connection" stroke-linecap="round" stroke="#dee3ec" stroke-width="1" d="M 302.86785888671875 69.80000000000001L 315.86785888671875 69.80000000000001L 315.86785888671875 59.70000000000001Q 315.86785888671875 51.70000000000001 323.86785888671875 51.70000000000001L 329.86785888671875 51.70000000000001" marker-end="none" fill="none"></path><path id="SvgjsPath3984" data-name="connection" stroke-linecap="round" d="M 376 29 L 368 36 L 360 29" stroke="#dee3ec" stroke-width="1" fill="#ffffff" marker-end="none"></path><path id="SvgjsPath4000" data-name="connection" stroke-linecap="round" stroke="#dee3ec" stroke-width="1" d="M 302.86785888671875 69.80000000000001L 315.86785888671875 69.80000000000001L 315.86785888671875 79.9Q 315.86785888671875 87.9 323.86785888671875 87.9L 329.86785888671875 87.9" marker-end="none" fill="none"></path><path id="SvgjsPath4016" data-name="connection" stroke-linecap="round" stroke="#dee3ec" stroke-width="1" d="M -75.81863403320312 0L -75.81863403320312 0L -174.7279510498047 61.7" fill="none" marker-end="none" clip-path="url(&quot;#SvgjsClipPath4172&quot;)"></path><path id="SvgjsPath4026" data-name="connection" stroke-linecap="round" stroke="#dee3ec" stroke-width="1" d="M -312.86785888671875 61.7L -325.86785888671875 61.7L -325.86785888671875 51.6Q -325.86785888671875 43.6 -333.86785888671875 43.6L -339.86785888671875 43.6" marker-end="none" fill="none"></path><path id="SvgjsPath4039" data-name="connection" stroke-linecap="round" stroke="#dee3ec" stroke-width="1" d="M -312.86785888671875 61.7L -325.86785888671875 61.7L -325.86785888671875 71.80000000000001Q -325.86785888671875 79.80000000000001 -333.86785888671875 79.80000000000001L -339.86785888671875 79.80000000000001" marker-end="none" fill="none"></path><path id="SvgjsPath4055" data-name="connection" stroke-linecap="round" stroke="#dee3ec" stroke-width="1" d="M -75.81863403320312 0L -75.81863403320312 0L -164.7279510498047 -61.7" fill="none" marker-end="none" clip-path="url(&quot;#SvgjsClipPath4172&quot;)"></path><path id="SvgjsPath4065" data-name="connection" stroke-linecap="round" stroke="#dee3ec" stroke-width="1" d="M -302.86785888671875 -61.7L -315.86785888671875 -61.7L -315.86785888671875 -71.80000000000001Q -315.86785888671875 -79.80000000000001 -323.86785888671875 -79.80000000000001L -329.86785888671875 -79.80000000000001" marker-end="none" fill="none"></path><path id="SvgjsPath4078" data-name="connection" stroke-linecap="round" stroke="#dee3ec" stroke-width="1" d="M -302.86785888671875 -61.7L -315.86785888671875 -61.7L -315.86785888671875 -51.6Q -315.86785888671875 -43.6 -323.86785888671875 -43.6L -329.86785888671875 -43.6" marker-end="none" fill="none"></path></g><g id="SvgjsG3902" data-name="branch-container"><g id="SvgjsG3914" data-name="branch" class="branch"><g id="SvgjsG3907" data-name="topic"><g id="SvgjsG3908" data-name="topic-shape-group"><path id="SvgjsPath3911" data-name="topic-shape-fill" fill="#ffffff" stroke="none" opacity="1" d="M -113.72795104980469 -19Q -113.72795104980469 -24 -108.83569936288349 -25.032411464396205Q 0 -48 108.83569936288349 -25.032411464396205Q 113.72795104980469 -24 113.72795104980469 -19L 113.72795104980469 19Q 113.72795104980469 24 108.83569936288349 25.032411464396205Q 0 48 -108.83569936288349 25.032411464396205Q -113.72795104980469 24 -113.72795104980469 19Z"></path><path id="SvgjsPath3912" data-name="topic-shape" fill="none" stroke-width="0" d="M -113.72795104980469 -19Q -113.72795104980469 -24 -108.83569936288349 -25.032411464396205Q 0 -48 108.83569936288349 -25.032411464396205Q 113.72795104980469 -24 113.72795104980469 -19L 113.72795104980469 19Q 113.72795104980469 24 108.83569936288349 25.032411464396205Q 0 48 -108.83569936288349 25.032411464396205Q -113.72795104980469 24 -113.72795104980469 19Z"></path><g id="SvgjsG3909" data-name="inner-element-group"><g id="SvgjsG4105" data-name="topic-title-text-group"><text id="SvgjsText4104" font-family="'Nunito','Nunito Sans','Microsoft YaHei','Microsoft JhengHei',sans-serif" font-size="28" font-weight="700" fill="#333e4a" font-style="normal" text-decoration="none" text-anchor="middle" transform="translate(0 -18.2)" style="user-select: none; cursor: default;"><tspan id="SvgjsTspan4180" font-family="'Nunito','Nunito Sans','Microsoft YaHei','Microsoft JhengHei',sans-serif" font-size="28" font-weight="700" fill="#333e4a" font-style="normal" text-decoration="none" dy="28" x="0" style="white-space: pre;">Central Topic</tspan></text></g></g></g></g></g><g id="SvgjsG3924" data-name="branch" class="branch" transform="translate(233.29790496826172 -69.80000000000001)"><g id="SvgjsG3917" data-name="topic"><g id="SvgjsG3918" data-name="topic-shape-group"><path id="SvgjsPath3921" data-name="topic-shape-fill" fill="#ffe6be" stroke="none" opacity="1" d="M -64.56995391845703 -21.700000000000003L 64.56995391845703 -21.700000000000003Q 69.56995391845703 -21.700000000000003  69.56995391845703 -16.700000000000003L 69.56995391845703 16.700000000000003Q 69.56995391845703 21.700000000000003  64.56995391845703 21.700000000000003L -64.56995391845703 21.700000000000003Q -69.56995391845703 21.700000000000003  -69.56995391845703 16.700000000000003L -69.56995391845703 -16.700000000000003Q -69.56995391845703 -21.700000000000003  -64.56995391845703 -21.700000000000003"></path><path id="SvgjsPath3922" data-name="topic-shape" fill="none" stroke-width="0" d="M -64.56995391845703 -21.700000000000003L 64.56995391845703 -21.700000000000003Q 69.56995391845703 -21.700000000000003  69.56995391845703 -16.700000000000003L 69.56995391845703 16.700000000000003Q 69.56995391845703 21.700000000000003  64.56995391845703 21.700000000000003L -64.56995391845703 21.700000000000003Q -69.56995391845703 21.700000000000003  -69.56995391845703 16.700000000000003L -69.56995391845703 -16.700000000000003Q -69.56995391845703 -21.700000000000003  -64.56995391845703 -21.700000000000003"></path><g id="SvgjsG3919" data-name="inner-element-group"><g id="SvgjsG3954" data-name="topic-title-text-group"><text id="SvgjsText3953" font-family="'Nunito','Nunito Sans','Microsoft YaHei','Microsoft JhengHei',sans-serif" font-size="18" font-weight="600" fill="#333333" font-style="normal" text-decoration="none" text-anchor="start" transform="translate(-51.56995391845703 -11.700000000000001)" style="user-select: none; cursor: default;"><tspan id="SvgjsTspan4181" font-family="'Nunito','Nunito Sans','Microsoft YaHei','Microsoft JhengHei',sans-serif" font-size="18" font-weight="600" fill="#333333" font-style="normal" text-decoration="none" dy="18" x="0" style="white-space: pre;">Main Topic 1</tspan></text></g></g></g><g id="SvgjsG4127" data-name="collapse-extended" class="collapseextend" transform="translate(76.56995391845703 -6)" style="cursor: pointer; display: none;"><line id="SvgjsLine4128" stroke-width="0" x1="0" y1="6" x2="-7" y2="6" stroke="#dee3ec"></line><g id="SvgjsG4129"><ellipse id="SvgjsEllipse4130" rx="6" ry="6" cx="6" cy="6" fill="#51a4b4"></ellipse><ellipse id="SvgjsEllipse4131" rx="6" ry="6" cx="6" cy="6" fill="none" stroke="#dee3ec"></ellipse><path id="SvgjsPath4132" d="M 2, 6 L 10, 6" stroke="#dee3ec"></path></g><g id="SvgjsG4133"><ellipse id="SvgjsEllipse4134" rx="8" ry="8" cx="8" cy="8" fill="#51a4b4"></ellipse><ellipse id="SvgjsEllipse4135" rx="8" ry="8" cx="8" cy="8" fill="none" stroke="#dee3ec" stroke-width="1"></ellipse><text id="SvgjsText4136" font-family="Helvetica, Arial, sans-serif" fill="#dee3ec" style="user-select: none; cursor: default;"></text></g><ellipse id="SvgjsEllipse4137" rx="8" ry="8" cx="8" cy="8" fill="none" style="pointer-events: visible;"></ellipse></g></g></g><g id="SvgjsG3934" data-name="branch" class="branch" transform="translate(368.50281524658203 -87.9)"><g id="SvgjsG3927" data-name="topic"><g id="SvgjsG3928" data-name="topic-shape-group"><path id="SvgjsPath3931" data-name="topic-shape-fill" opacity="0" d="M -34.63495635986328 -15.1L 34.63495635986328 -15.1Q 39.63495635986328 -15.1  39.63495635986328 -10.1L 39.63495635986328 10.1Q 39.63495635986328 15.1  34.63495635986328 15.1L -34.63495635986328 15.1Q -39.63495635986328 15.1  -39.63495635986328 10.1L -39.63495635986328 -10.1Q -39.63495635986328 -15.1  -34.63495635986328 -15.1"></path><path id="SvgjsPath3932" data-name="topic-shape" fill="none" stroke-width="0" d="M -34.63495635986328 -15.1L 34.63495635986328 -15.1Q 39.63495635986328 -15.1  39.63495635986328 -10.1L 39.63495635986328 10.1Q 39.63495635986328 15.1  34.63495635986328 15.1L -34.63495635986328 15.1Q -39.63495635986328 15.1  -39.63495635986328 10.1L -39.63495635986328 -10.1Q -39.63495635986328 -15.1  -34.63495635986328 -15.1"></path><g id="SvgjsG3929" data-name="inner-element-group"><g id="SvgjsG3938" data-name="topic-title-text-group"><text id="SvgjsText3937" font-family="'Nunito','Nunito Sans','Microsoft YaHei','Microsoft JhengHei',sans-serif" font-size="14" font-weight="normal" fill="#ffffff" font-style="normal" text-decoration="none" text-anchor="start" transform="translate(-33.63495635986328 -9.1)" style="user-select: none; cursor: default;"><tspan id="SvgjsTspan4182" font-family="'Nunito','Nunito Sans','Microsoft YaHei','Microsoft JhengHei',sans-serif" font-size="14" font-weight="normal" fill="#ffffff" font-style="normal" text-decoration="none" dy="14" x="0" style="white-space: pre;">Subtopic 1</tspan></text></g></g></g></g></g><g id="SvgjsG3947" data-name="branch" class="branch" transform="translate(368.50281524658203 -51.70000000000001)"><g id="SvgjsG3940" data-name="topic"><g id="SvgjsG3941" data-name="topic-shape-group"><path id="SvgjsPath3944" data-name="topic-shape-fill" opacity="0" d="M -34.63495635986328 -15.1L 34.63495635986328 -15.1Q 39.63495635986328 -15.1  39.63495635986328 -10.1L 39.63495635986328 10.1Q 39.63495635986328 15.1  34.63495635986328 15.1L -34.63495635986328 15.1Q -39.63495635986328 15.1  -39.63495635986328 10.1L -39.63495635986328 -10.1Q -39.63495635986328 -15.1  -34.63495635986328 -15.1"></path><path id="SvgjsPath3945" data-name="topic-shape" fill="none" stroke-width="0" d="M -34.63495635986328 -15.1L 34.63495635986328 -15.1Q 39.63495635986328 -15.1  39.63495635986328 -10.1L 39.63495635986328 10.1Q 39.63495635986328 15.1  34.63495635986328 15.1L -34.63495635986328 15.1Q -39.63495635986328 15.1  -39.63495635986328 10.1L -39.63495635986328 -10.1Q -39.63495635986328 -15.1  -34.63495635986328 -15.1"></path><g id="SvgjsG3942" data-name="inner-element-group"><g id="SvgjsG3951" data-name="topic-title-text-group"><text id="SvgjsText3950" font-family="'Nunito','Nunito Sans','Microsoft YaHei','Microsoft JhengHei',sans-serif" font-size="14" font-weight="normal" fill="#ffffff" font-style="normal" text-decoration="none" text-anchor="start" transform="translate(-33.63495635986328 -9.1)" style="user-select: none; cursor: default;"><tspan id="SvgjsTspan4183" font-family="'Nunito','Nunito Sans','Microsoft YaHei','Microsoft JhengHei',sans-serif" font-size="14" font-weight="normal" fill="#ffffff" font-style="normal" text-decoration="none" dy="14" x="0" style="white-space: pre;">Subtopic 2</tspan></text></g></g></g></g></g><g id="SvgjsG3963" data-name="branch" class="branch" transform="translate(233.29790496826172 69.80000000000001)"><g id="SvgjsG3956" data-name="topic"><g id="SvgjsG3957" data-name="topic-shape-group"><path id="SvgjsPath3960" data-name="topic-shape-fill" fill="#ffe6be" stroke="none" opacity="1" d="M -64.56995391845703 -21.700000000000003L 64.56995391845703 -21.700000000000003Q 69.56995391845703 -21.700000000000003  69.56995391845703 -16.700000000000003L 69.56995391845703 16.700000000000003Q 69.56995391845703 21.700000000000003  64.56995391845703 21.700000000000003L -64.56995391845703 21.700000000000003Q -69.56995391845703 21.700000000000003  -69.56995391845703 16.700000000000003L -69.56995391845703 -16.700000000000003Q -69.56995391845703 -21.700000000000003  -64.56995391845703 -21.700000000000003"></path><path id="SvgjsPath3961" data-name="topic-shape" fill="none" stroke-width="0" d="M -64.56995391845703 -21.700000000000003L 64.56995391845703 -21.700000000000003Q 69.56995391845703 -21.700000000000003  69.56995391845703 -16.700000000000003L 69.56995391845703 16.700000000000003Q 69.56995391845703 21.700000000000003  64.56995391845703 21.700000000000003L -64.56995391845703 21.700000000000003Q -69.56995391845703 21.700000000000003  -69.56995391845703 16.700000000000003L -69.56995391845703 -16.700000000000003Q -69.56995391845703 -21.700000000000003  -64.56995391845703 -21.700000000000003"></path><g id="SvgjsG3958" data-name="inner-element-group"><g id="SvgjsG4006" data-name="topic-title-text-group"><text id="SvgjsText4005" font-family="'Nunito','Nunito Sans','Microsoft YaHei','Microsoft JhengHei',sans-serif" font-size="18" font-weight="600" fill="#333333" font-style="normal" text-decoration="none" text-anchor="start" transform="translate(-51.56995391845703 -11.700000000000001)" style="user-select: none; cursor: default;"><tspan id="SvgjsTspan4184" font-family="'Nunito','Nunito Sans','Microsoft YaHei','Microsoft JhengHei',sans-serif" font-size="18" font-weight="600" fill="#333333" font-style="normal" text-decoration="none" dy="18" x="0" style="white-space: pre;">Main Topic 2</tspan></text></g></g></g><g id="SvgjsG4138" data-name="collapse-extended" class="collapseextend" transform="translate(76.56995391845703 -6)" style="cursor: pointer; display: none;"><line id="SvgjsLine4139" stroke-width="0" x1="0" y1="6" x2="-7" y2="6" stroke="#dee3ec"></line><g id="SvgjsG4140"><ellipse id="SvgjsEllipse4141" rx="6" ry="6" cx="6" cy="6" fill="#51a4b4"></ellipse><ellipse id="SvgjsEllipse4142" rx="6" ry="6" cx="6" cy="6" fill="none" stroke="#dee3ec"></ellipse><path id="SvgjsPath4143" d="M 2, 6 L 10, 6" stroke="#dee3ec"></path></g><g id="SvgjsG4144"><ellipse id="SvgjsEllipse4145" rx="8" ry="8" cx="8" cy="8" fill="#51a4b4"></ellipse><ellipse id="SvgjsEllipse4146" rx="8" ry="8" cx="8" cy="8" fill="none" stroke="#dee3ec" stroke-width="1"></ellipse><text id="SvgjsText4147" font-family="Helvetica, Arial, sans-serif" fill="#dee3ec" style="user-select: none; cursor: default;"></text></g><ellipse id="SvgjsEllipse4148" rx="8" ry="8" cx="8" cy="8" fill="none" style="pointer-events: visible;"></ellipse></g></g></g><g id="SvgjsG3973" data-name="branch" class="branch" transform="translate(368.50281524658203 51.70000000000001)"><g id="SvgjsG3966" data-name="topic"><g id="SvgjsG3967" data-name="topic-shape-group"><path id="SvgjsPath3970" data-name="topic-shape-fill" opacity="0" d="M -34.63495635986328 -15.1L 34.63495635986328 -15.1Q 39.63495635986328 -15.1  39.63495635986328 -10.1L 39.63495635986328 10.1Q 39.63495635986328 15.1  34.63495635986328 15.1L -34.63495635986328 15.1Q -39.63495635986328 15.1  -39.63495635986328 10.1L -39.63495635986328 -10.1Q -39.63495635986328 -15.1  -34.63495635986328 -15.1"></path><path id="SvgjsPath3971" data-name="topic-shape" fill="none" stroke-width="0" d="M -34.63495635986328 -15.1L 34.63495635986328 -15.1Q 39.63495635986328 -15.1  39.63495635986328 -10.1L 39.63495635986328 10.1Q 39.63495635986328 15.1  34.63495635986328 15.1L -34.63495635986328 15.1Q -39.63495635986328 15.1  -39.63495635986328 10.1L -39.63495635986328 -10.1Q -39.63495635986328 -15.1  -34.63495635986328 -15.1"></path><g id="SvgjsG3968" data-name="inner-element-group"><g id="SvgjsG3990" data-name="topic-title-text-group"><text id="SvgjsText3989" font-family="'Nunito','Nunito Sans','Microsoft YaHei','Microsoft JhengHei',sans-serif" font-size="14" font-weight="normal" fill="#ffffff" font-style="normal" text-decoration="none" text-anchor="start" transform="translate(-33.63495635986328 -9.1)" style="user-select: none; cursor: default;"><tspan id="SvgjsTspan4185" font-family="'Nunito','Nunito Sans','Microsoft YaHei','Microsoft JhengHei',sans-serif" font-size="14" font-weight="normal" fill="#ffffff" font-style="normal" text-decoration="none" dy="14" x="0" style="white-space: pre;">Subtopic 1</tspan></text></g></g></g></g></g><g id="SvgjsG3983" data-name="branch" class="branch" transform="translate(368.50281524658203 14.500000000000007)"><g id="SvgjsG3976" data-name="topic"><g id="SvgjsG3977" data-name="topic-shape-group"><path id="SvgjsPath3980" data-name="topic-shape-fill" fill="#ffffff" stroke="none" opacity="1" d="M -23.3189697265625 -15.600000000000001L 23.3189697265625 -15.600000000000001Q 28.3189697265625 -15.600000000000001  28.3189697265625 -10.600000000000001L 28.3189697265625 10.600000000000001Q 28.3189697265625 15.600000000000001  23.3189697265625 15.600000000000001L -23.3189697265625 15.600000000000001Q -28.3189697265625 15.600000000000001  -28.3189697265625 10.600000000000001L -28.3189697265625 -10.600000000000001Q -28.3189697265625 -15.600000000000001  -23.3189697265625 -15.600000000000001"></path><path id="SvgjsPath3981" data-name="topic-shape" fill="none" stroke="#dee3ec" stroke-width="1" d="M -23.3189697265625 -15.600000000000001L 23.3189697265625 -15.600000000000001Q 28.3189697265625 -15.600000000000001  28.3189697265625 -10.600000000000001L 28.3189697265625 10.600000000000001Q 28.3189697265625 15.600000000000001  23.3189697265625 15.600000000000001L -23.3189697265625 15.600000000000001Q -28.3189697265625 15.600000000000001  -28.3189697265625 10.600000000000001L -28.3189697265625 -10.600000000000001Q -28.3189697265625 -15.600000000000001  -23.3189697265625 -15.600000000000001" clip-path="url(&quot;#SvgjsClipPath4208&quot;)"></path><g id="SvgjsG3978" data-name="inner-element-group"><g id="SvgjsG3987" data-name="topic-title-text-group"><text id="SvgjsText3986" font-family="'Nunito','Nunito Sans','Microsoft YaHei','Microsoft JhengHei',sans-serif" font-size="14" font-weight="normal" fill="#333e4a" font-style="italic" text-decoration="none" text-anchor="middle" transform="translate(0 -9.1)" style="user-select: none; cursor: default;"><tspan id="SvgjsTspan4188" font-family="'Nunito','Nunito Sans','Microsoft YaHei','Microsoft JhengHei',sans-serif" font-size="14" font-weight="normal" fill="#333e4a" font-style="italic" text-decoration="none" dy="14" x="0" style="white-space: pre;">Callout</tspan></text></g></g></g></g></g><g id="SvgjsG3999" data-name="branch" class="branch" transform="translate(368.50281524658203 87.9)"><g id="SvgjsG3992" data-name="topic"><g id="SvgjsG3993" data-name="topic-shape-group"><path id="SvgjsPath3996" data-name="topic-shape-fill" opacity="0" d="M -34.63495635986328 -15.1L 34.63495635986328 -15.1Q 39.63495635986328 -15.1  39.63495635986328 -10.1L 39.63495635986328 10.1Q 39.63495635986328 15.1  34.63495635986328 15.1L -34.63495635986328 15.1Q -39.63495635986328 15.1  -39.63495635986328 10.1L -39.63495635986328 -10.1Q -39.63495635986328 -15.1  -34.63495635986328 -15.1"></path><path id="SvgjsPath3997" data-name="topic-shape" fill="none" stroke-width="0" d="M -34.63495635986328 -15.1L 34.63495635986328 -15.1Q 39.63495635986328 -15.1  39.63495635986328 -10.1L 39.63495635986328 10.1Q 39.63495635986328 15.1  34.63495635986328 15.1L -34.63495635986328 15.1Q -39.63495635986328 15.1  -39.63495635986328 10.1L -39.63495635986328 -10.1Q -39.63495635986328 -15.1  -34.63495635986328 -15.1"></path><g id="SvgjsG3994" data-name="inner-element-group"><g id="SvgjsG4003" data-name="topic-title-text-group"><text id="SvgjsText4002" font-family="'Nunito','Nunito Sans','Microsoft YaHei','Microsoft JhengHei',sans-serif" font-size="14" font-weight="normal" fill="#ffffff" font-style="normal" text-decoration="none" text-anchor="start" transform="translate(-33.63495635986328 -9.1)" style="user-select: none; cursor: default;"><tspan id="SvgjsTspan4189" font-family="'Nunito','Nunito Sans','Microsoft YaHei','Microsoft JhengHei',sans-serif" font-size="14" font-weight="normal" fill="#ffffff" font-style="normal" text-decoration="none" dy="14" x="0" style="white-space: pre;">Subtopic 2</tspan></text></g></g></g></g></g><g id="SvgjsG4015" data-name="branch" class="branch" transform="translate(-243.29790496826172 61.7)"><g id="SvgjsG4008" data-name="topic"><g id="SvgjsG4009" data-name="topic-shape-group"><path id="SvgjsPath4012" data-name="topic-shape-fill" fill="#ffe6be" stroke="none" opacity="1" d="M -64.56995391845703 -21.700000000000003L 64.56995391845703 -21.700000000000003Q 69.56995391845703 -21.700000000000003  69.56995391845703 -16.700000000000003L 69.56995391845703 16.700000000000003Q 69.56995391845703 21.700000000000003  64.56995391845703 21.700000000000003L -64.56995391845703 21.700000000000003Q -69.56995391845703 21.700000000000003  -69.56995391845703 16.700000000000003L -69.56995391845703 -16.700000000000003Q -69.56995391845703 -21.700000000000003  -64.56995391845703 -21.700000000000003"></path><path id="SvgjsPath4013" data-name="topic-shape" fill="none" stroke-width="0" d="M -64.56995391845703 -21.700000000000003L 64.56995391845703 -21.700000000000003Q 69.56995391845703 -21.700000000000003  69.56995391845703 -16.700000000000003L 69.56995391845703 16.700000000000003Q 69.56995391845703 21.700000000000003  64.56995391845703 21.700000000000003L -64.56995391845703 21.700000000000003Q -69.56995391845703 21.700000000000003  -69.56995391845703 16.700000000000003L -69.56995391845703 -16.700000000000003Q -69.56995391845703 -21.700000000000003  -64.56995391845703 -21.700000000000003"></path><g id="SvgjsG4010" data-name="inner-element-group"><g id="SvgjsG4045" data-name="topic-title-text-group"><text id="SvgjsText4044" font-family="'Nunito','Nunito Sans','Microsoft YaHei','Microsoft JhengHei',sans-serif" font-size="18" font-weight="600" fill="#333333" font-style="normal" text-decoration="none" text-anchor="start" transform="translate(-51.56995391845703 -11.700000000000001)" style="user-select: none; cursor: default;"><tspan id="SvgjsTspan4190" font-family="'Nunito','Nunito Sans','Microsoft YaHei','Microsoft JhengHei',sans-serif" font-size="18" font-weight="600" fill="#333333" font-style="normal" text-decoration="none" dy="18" x="0" style="white-space: pre;">Main Topic 4</tspan></text></g></g></g><g id="SvgjsG4149" data-name="collapse-extended" class="collapseextend" transform="translate(-88.56995391845703 -6)" style="cursor: pointer; display: none;"><line id="SvgjsLine4150" stroke-width="0" x1="12" y1="6" x2="19" y2="6" stroke="#dee3ec"></line><g id="SvgjsG4151"><ellipse id="SvgjsEllipse4152" rx="6" ry="6" cx="6" cy="6" fill="#51a4b4"></ellipse><ellipse id="SvgjsEllipse4153" rx="6" ry="6" cx="6" cy="6" fill="none" stroke="#dee3ec"></ellipse><path id="SvgjsPath4154" d="M 2, 6 L 10, 6" stroke="#dee3ec"></path></g><g id="SvgjsG4155"><ellipse id="SvgjsEllipse4156" rx="8" ry="8" cx="8" cy="8" fill="#51a4b4"></ellipse><ellipse id="SvgjsEllipse4157" rx="8" ry="8" cx="8" cy="8" fill="none" stroke="#dee3ec" stroke-width="1"></ellipse><text id="SvgjsText4158" font-family="Helvetica, Arial, sans-serif" fill="#dee3ec" style="user-select: none; cursor: default;"></text></g><ellipse id="SvgjsEllipse4159" rx="8" ry="8" cx="8" cy="8" fill="none" style="pointer-events: visible;"></ellipse></g></g></g><g id="SvgjsG4025" data-name="branch" class="branch" transform="translate(-378.50281524658203 43.6)"><g id="SvgjsG4018" data-name="topic"><g id="SvgjsG4019" data-name="topic-shape-group"><path id="SvgjsPath4022" data-name="topic-shape-fill" opacity="0" d="M -34.63495635986328 -15.1L 34.63495635986328 -15.1Q 39.63495635986328 -15.1  39.63495635986328 -10.1L 39.63495635986328 10.1Q 39.63495635986328 15.1  34.63495635986328 15.1L -34.63495635986328 15.1Q -39.63495635986328 15.1  -39.63495635986328 10.1L -39.63495635986328 -10.1Q -39.63495635986328 -15.1  -34.63495635986328 -15.1"></path><path id="SvgjsPath4023" data-name="topic-shape" fill="none" stroke-width="0" d="M -34.63495635986328 -15.1L 34.63495635986328 -15.1Q 39.63495635986328 -15.1  39.63495635986328 -10.1L 39.63495635986328 10.1Q 39.63495635986328 15.1  34.63495635986328 15.1L -34.63495635986328 15.1Q -39.63495635986328 15.1  -39.63495635986328 10.1L -39.63495635986328 -10.1Q -39.63495635986328 -15.1  -34.63495635986328 -15.1"></path><g id="SvgjsG4020" data-name="inner-element-group"><g id="SvgjsG4029" data-name="topic-title-text-group"><text id="SvgjsText4028" font-family="'Nunito','Nunito Sans','Microsoft YaHei','Microsoft JhengHei',sans-serif" font-size="14" font-weight="normal" fill="#ffffff" font-style="normal" text-decoration="none" text-anchor="start" transform="translate(-33.63495635986328 -9.1)" style="user-select: none; cursor: default;"><tspan id="SvgjsTspan4191" font-family="'Nunito','Nunito Sans','Microsoft YaHei','Microsoft JhengHei',sans-serif" font-size="14" font-weight="normal" fill="#ffffff" font-style="normal" text-decoration="none" dy="14" x="0" style="white-space: pre;">Subtopic 1</tspan></text></g></g></g></g></g><g id="SvgjsG4038" data-name="branch" class="branch" transform="translate(-378.50281524658203 79.80000000000001)"><g id="SvgjsG4031" data-name="topic"><g id="SvgjsG4032" data-name="topic-shape-group"><path id="SvgjsPath4035" data-name="topic-shape-fill" opacity="0" d="M -34.63495635986328 -15.1L 34.63495635986328 -15.1Q 39.63495635986328 -15.1  39.63495635986328 -10.1L 39.63495635986328 10.1Q 39.63495635986328 15.1  34.63495635986328 15.1L -34.63495635986328 15.1Q -39.63495635986328 15.1  -39.63495635986328 10.1L -39.63495635986328 -10.1Q -39.63495635986328 -15.1  -34.63495635986328 -15.1"></path><path id="SvgjsPath4036" data-name="topic-shape" fill="none" stroke-width="0" d="M -34.63495635986328 -15.1L 34.63495635986328 -15.1Q 39.63495635986328 -15.1  39.63495635986328 -10.1L 39.63495635986328 10.1Q 39.63495635986328 15.1  34.63495635986328 15.1L -34.63495635986328 15.1Q -39.63495635986328 15.1  -39.63495635986328 10.1L -39.63495635986328 -10.1Q -39.63495635986328 -15.1  -34.63495635986328 -15.1"></path><g id="SvgjsG4033" data-name="inner-element-group"><g id="SvgjsG4042" data-name="topic-title-text-group"><text id="SvgjsText4041" font-family="'Nunito','Nunito Sans','Microsoft YaHei','Microsoft JhengHei',sans-serif" font-size="14" font-weight="normal" fill="#ffffff" font-style="normal" text-decoration="none" text-anchor="start" transform="translate(-33.63495635986328 -9.1)" style="user-select: none; cursor: default;"><tspan id="SvgjsTspan4192" font-family="'Nunito','Nunito Sans','Microsoft YaHei','Microsoft JhengHei',sans-serif" font-size="14" font-weight="normal" fill="#ffffff" font-style="normal" text-decoration="none" dy="14" x="0" style="white-space: pre;">Subtopic 2</tspan></text></g></g></g></g></g><g id="SvgjsG4054" data-name="branch" class="branch" transform="translate(-233.29790496826172 -61.7)"><g id="SvgjsG4047" data-name="topic"><g id="SvgjsG4048" data-name="topic-shape-group"><path id="SvgjsPath4051" data-name="topic-shape-fill" fill="#ffe6be" stroke="none" opacity="1" d="M -64.56995391845703 -21.700000000000003L 64.56995391845703 -21.700000000000003Q 69.56995391845703 -21.700000000000003  69.56995391845703 -16.700000000000003L 69.56995391845703 16.700000000000003Q 69.56995391845703 21.700000000000003  64.56995391845703 21.700000000000003L -64.56995391845703 21.700000000000003Q -69.56995391845703 21.700000000000003  -69.56995391845703 16.700000000000003L -69.56995391845703 -16.700000000000003Q -69.56995391845703 -21.700000000000003  -64.56995391845703 -21.700000000000003"></path><path id="SvgjsPath4052" data-name="topic-shape" fill="none" stroke-width="0" d="M -64.56995391845703 -21.700000000000003L 64.56995391845703 -21.700000000000003Q 69.56995391845703 -21.700000000000003  69.56995391845703 -16.700000000000003L 69.56995391845703 16.700000000000003Q 69.56995391845703 21.700000000000003  64.56995391845703 21.700000000000003L -64.56995391845703 21.700000000000003Q -69.56995391845703 21.700000000000003  -69.56995391845703 16.700000000000003L -69.56995391845703 -16.700000000000003Q -69.56995391845703 -21.700000000000003  -64.56995391845703 -21.700000000000003"></path><g id="SvgjsG4049" data-name="inner-element-group"><g id="SvgjsG4084" data-name="topic-title-text-group"><text id="SvgjsText4083" font-family="'Nunito','Nunito Sans','Microsoft YaHei','Microsoft JhengHei',sans-serif" font-size="18" font-weight="600" fill="#333333" font-style="normal" text-decoration="none" text-anchor="start" transform="translate(-51.56995391845703 -11.700000000000001)" style="user-select: none; cursor: default;"><tspan id="SvgjsTspan4193" font-family="'Nunito','Nunito Sans','Microsoft YaHei','Microsoft JhengHei',sans-serif" font-size="18" font-weight="600" fill="#333333" font-style="normal" text-decoration="none" dy="18" x="0" style="white-space: pre;">Main Topic 3</tspan></text></g></g></g><g id="SvgjsG4160" data-name="collapse-extended" class="collapseextend" transform="translate(-88.56995391845703 -6)" style="cursor: pointer; display: none;"><line id="SvgjsLine4161" stroke-width="0" x1="12" y1="6" x2="19" y2="6" stroke="#dee3ec"></line><g id="SvgjsG4162"><ellipse id="SvgjsEllipse4163" rx="6" ry="6" cx="6" cy="6" fill="#51a4b4"></ellipse><ellipse id="SvgjsEllipse4164" rx="6" ry="6" cx="6" cy="6" fill="none" stroke="#dee3ec"></ellipse><path id="SvgjsPath4165" d="M 2, 6 L 10, 6" stroke="#dee3ec"></path></g><g id="SvgjsG4166"><ellipse id="SvgjsEllipse4167" rx="8" ry="8" cx="8" cy="8" fill="#51a4b4"></ellipse><ellipse id="SvgjsEllipse4168" rx="8" ry="8" cx="8" cy="8" fill="none" stroke="#dee3ec" stroke-width="1"></ellipse><text id="SvgjsText4169" font-family="Helvetica, Arial, sans-serif" fill="#dee3ec" style="user-select: none; cursor: default;"></text></g><ellipse id="SvgjsEllipse4170" rx="8" ry="8" cx="8" cy="8" fill="none" style="pointer-events: visible;"></ellipse></g></g></g><g id="SvgjsG4064" data-name="branch" class="branch" transform="translate(-368.50281524658203 -79.80000000000001)"><g id="SvgjsG4057" data-name="topic"><g id="SvgjsG4058" data-name="topic-shape-group"><path id="SvgjsPath4061" data-name="topic-shape-fill" opacity="0" d="M -34.63495635986328 -15.1L 34.63495635986328 -15.1Q 39.63495635986328 -15.1  39.63495635986328 -10.1L 39.63495635986328 10.1Q 39.63495635986328 15.1  34.63495635986328 15.1L -34.63495635986328 15.1Q -39.63495635986328 15.1  -39.63495635986328 10.1L -39.63495635986328 -10.1Q -39.63495635986328 -15.1  -34.63495635986328 -15.1"></path><path id="SvgjsPath4062" data-name="topic-shape" fill="none" stroke-width="0" d="M -34.63495635986328 -15.1L 34.63495635986328 -15.1Q 39.63495635986328 -15.1  39.63495635986328 -10.1L 39.63495635986328 10.1Q 39.63495635986328 15.1  34.63495635986328 15.1L -34.63495635986328 15.1Q -39.63495635986328 15.1  -39.63495635986328 10.1L -39.63495635986328 -10.1Q -39.63495635986328 -15.1  -34.63495635986328 -15.1"></path><g id="SvgjsG4059" data-name="inner-element-group"><g id="SvgjsG4068" data-name="topic-title-text-group"><text id="SvgjsText4067" font-family="'Nunito','Nunito Sans','Microsoft YaHei','Microsoft JhengHei',sans-serif" font-size="14" font-weight="normal" fill="#ffffff" font-style="normal" text-decoration="none" text-anchor="start" transform="translate(-33.63495635986328 -9.1)" style="user-select: none; cursor: default;"><tspan id="SvgjsTspan4194" font-family="'Nunito','Nunito Sans','Microsoft YaHei','Microsoft JhengHei',sans-serif" font-size="14" font-weight="normal" fill="#ffffff" font-style="normal" text-decoration="none" dy="14" x="0" style="white-space: pre;">Subtopic 1</tspan></text></g></g></g></g></g><g id="SvgjsG4077" data-name="branch" class="branch" transform="translate(-368.50281524658203 -43.6)"><g id="SvgjsG4070" data-name="topic"><g id="SvgjsG4071" data-name="topic-shape-group"><path id="SvgjsPath4074" data-name="topic-shape-fill" opacity="0" d="M -34.63495635986328 -15.1L 34.63495635986328 -15.1Q 39.63495635986328 -15.1  39.63495635986328 -10.1L 39.63495635986328 10.1Q 39.63495635986328 15.1  34.63495635986328 15.1L -34.63495635986328 15.1Q -39.63495635986328 15.1  -39.63495635986328 10.1L -39.63495635986328 -10.1Q -39.63495635986328 -15.1  -34.63495635986328 -15.1"></path><path id="SvgjsPath4075" data-name="topic-shape" fill="none" stroke-width="0" d="M -34.63495635986328 -15.1L 34.63495635986328 -15.1Q 39.63495635986328 -15.1  39.63495635986328 -10.1L 39.63495635986328 10.1Q 39.63495635986328 15.1  34.63495635986328 15.1L -34.63495635986328 15.1Q -39.63495635986328 15.1  -39.63495635986328 10.1L -39.63495635986328 -10.1Q -39.63495635986328 -15.1  -34.63495635986328 -15.1"></path><g id="SvgjsG4072" data-name="inner-element-group"><g id="SvgjsG4081" data-name="topic-title-text-group"><text id="SvgjsText4080" font-family="'Nunito','Nunito Sans','Microsoft YaHei','Microsoft JhengHei',sans-serif" font-size="14" font-weight="normal" fill="#ffffff" font-style="normal" text-decoration="none" text-anchor="start" transform="translate(-33.63495635986328 -9.1)" style="user-select: none; cursor: default;"><tspan id="SvgjsTspan4195" font-family="'Nunito','Nunito Sans','Microsoft YaHei','Microsoft JhengHei',sans-serif" font-size="14" font-weight="normal" fill="#ffffff" font-style="normal" text-decoration="none" dy="14" x="0" style="white-space: pre;">Subtopic 2</tspan></text></g></g></g></g></g></g><g id="SvgjsG3903" data-name="relationship-container"><g id="SvgjsG4106" data-name="relationship" class="relationship"><path id="SvgjsPath4107" data-name="relationship-path" clip-path="url(&quot;#SvgjsClipPath4125&quot;)" style="fill: none;" stroke-dasharray="9, 3" stroke="#ffffff" stroke-width="5" marker-start="url(#SvgjsMarker4196)" marker-end="url(#SvgjsMarker4198)" d="M -418.1377716064453 34.880553817749025C -461.7169207555125 24.794325243861238  -460.3397891667219 -57.896373189395646  -427.5916714504042 -65.71014611975795"></path><path id="SvgjsPath4109" data-name="relationship-shadow-action-path" stroke="none" stroke-width="15" style="stroke-opacity: 0; stroke: none; fill: none;" d="M -418.1377716064453 34.880553817749025C -461.7169207555125 24.794325243861238  -460.3397891667219 -57.896373189395646  -427.5916714504042 -65.71014611975795"></path><text id="SvgjsText4110" font-family="'Nunito','Nunito','Nunito Sans','Microsoft YaHei','Microsoft JhengHei',sans-serif" data-name="relationship-title" style="user-select: none; cursor: default; pointer-events: none; display: none;" font-size="14" font-weight="400" font-style="normal" text-decoration="none" fill="#ffffff" x="-451.2772521972656" y="-94.57937526702881"><tspan id="SvgjsTspan4210" style="white-space: pre;">Relationship</tspan></text></g></g><g id="SvgjsG3906" data-name="cloneG" opacity="0.5"></g></g></g><defs id="SvgjsDefs3889"><rect id="SvgjsRect4122" width="443.57916259765625" height="500.5906982421875" fill="white" x="-661.7169189453125" y="-265.71014404296875"></rect><rect id="SvgjsRect4123" width="0" height="0" fill="black" style="display: none;"></rect><clipPath id="SvgjsClipPath4125" style="display: none;"><path id="SvgjsPath4124" d="M -661.7169189453125 -265.71014404296875 L-218.13775634765625 -265.71014404296875 L-218.13775634765625 234.88055419921875 L-661.7169189453125 234.88055419921875 M 0 0 L0 0 L0 0 L0 0" fill="black" clip-rule="evenodd"></path></clipPath><clipPath id="SvgjsClipPath4172"><path id="SvgjsPath4171" d="M -113.72795104980469 -19Q -113.72795104980469 -24 -108.83569936288349 -25.032411464396205Q 0 -48 108.83569936288349 -25.032411464396205Q 113.72795104980469 -24 113.72795104980469 -19L 113.72795104980469 19Q 113.72795104980469 24 108.83569936288349 25.032411464396205Q 0 48 -108.83569936288349 25.032411464396205Q -113.72795104980469 24 -113.72795104980469 19Z M -10000 -10000 L10000 -10000 L10000 10000 L-10000 10000" fill="black" clip-rule="evenodd" transform="translate(0 0) "></path></clipPath><marker id="SvgjsMarker4175" markerWidth="8" markerHeight="8" refX="5" refY="4" viewBox="0 0 8 8" orient="auto"><path id="SvgjsPath4176" d="" stroke="#2a7ac2" stroke-width="1" stroke-dasharray="none" fill="none"></path></marker><marker id="SvgjsMarker4177" markerWidth="8" markerHeight="8" refX="2" refY="4" viewBox="0 0 8 8" orient="auto"><path id="SvgjsPath4178" d="M 2 2 L 6 4 L 2 6" stroke-width="0" stroke-dasharray="none" stroke="#2a7ac2" fill="#2a7ac2"></path></marker><marker id="SvgjsMarker4196" markerWidth="8" markerHeight="8" refX="5" refY="4" viewBox="0 0 8 8" orient="auto"><path id="SvgjsPath4197" d="" stroke="#ffffff" stroke-width="1" stroke-dasharray="none" fill="none"></path></marker><marker id="SvgjsMarker4198" markerWidth="8" markerHeight="8" refX="2" refY="4" viewBox="0 0 8 8" orient="auto"><path id="SvgjsPath4199" d="M 2 2 L 6 4 L 2 6" stroke-width="0" stroke-dasharray="none" stroke="#ffffff" fill="#ffffff"></path></marker><clipPath id="SvgjsClipPath4208"><path id="SvgjsPath4207" d="M -8.502815246582031 14.499999999999993 L7.497184753417969 14.499999999999993 L7.497184753417969 15.499999999999993 L-8.502815246582031 15.499999999999993 M -10000 -10000 L10000 -10000 L10000 10000 L-10000 10000" fill="black" clip-rule="evenodd"></path></clipPath></defs></svg>