<?xml version="1.0" standalone="no"?><!DOCTYPE svg PUBLIC "-//W3C//DTD SVG 1.1//EN" "http://www.w3.org/Graphics/SVG/1.1/DTD/svg11.dtd" [<!ENTITY nbsp "&#160;">]><svg id="SvgjsSvg4201" xmlns="http://www.w3.org/2000/svg" version="1.1" width="228" height="140" xmlns:xlink="http://www.w3.org/1999/xlink" style="display: block; background-color: rgb(4, 55, 66);" viewBox="0 0 952.6388133038711 584.9536572918507"><defs><style type="text/css"><![CDATA[

]]></style></defs><g id="SvgjsG4203" data-name="container" transform="scale(1) translate(500.24410452409603 289.47682864592537)"><g id="SvgjsG4211" data-name="sheet"><g id="SvgjsG4212" data-name="matrix-container"></g><g id="SvgjsG4213" data-name="boundary-container"><g id="SvgjsG4399" data-name="boundary-group" class="boundary"><path id="SvgjsPath4400" data-name="boundary-path" stroke="#3fc6b4" fill="#3fc6b4" stroke-width="2" fill-opacity="0.2" stroke-dasharray="9, 3" d="M -410.6123046875 20.300000000000004L -206.4423828125 20.300000000000004Q -186.4423828125 20.300000000000004 -186.4423828125 40.300000000000004L -186.4423828125 82.5Q -186.4423828125 102.5 -206.4423828125 102.5L -410.6123046875 102.5Q -430.6123046875 102.5 -430.6123046875 82.5L -430.6123046875 40.300000000000004Q -430.6123046875 20.300000000000004 -410.6123046875 20.300000000000004z"></path><g id="SvgjsG4402" data-name="boundary-title-group" transform="translate(-435.6123046875 15.300000000000004)" style="display: none;"><rect id="SvgjsRect4404" data-name="boundary-title-bg" stroke="#3fc6b4" fill="#3fc6b4" stroke-width="2"></rect><text id="SvgjsText4403" font-family="Helvetica, Arial, sans-serif" data-name="boundary-title" style="user-select: none; cursor: default;"></text></g></g></g><g id="SvgjsG4214" data-name="connection-container"><path id="SvgjsPath4228" data-name="connection" stroke-linecap="round"></path><path id="SvgjsPath4238" data-name="connection" stroke-linecap="round" stroke="#257e7a" stroke-width="2" d="M 90.96158854166666 0L 90.96158854166666 0Q 110.25774739583332 -65.4 187.4423828125 -65.4" fill="none" marker-end="none" clip-path="url(&quot;#SvgjsClipPath4485&quot;)"></path><path id="SvgjsPath4248" data-name="connection" stroke-linecap="round" stroke="#257e7a" stroke-width="1" d="M 315.8642578125 -65.4L 328.8642578125 -65.4L 328.8642578125 -74.7Q 328.8642578125 -82.7 336.8642578125 -82.7L 342.8642578125 -82.7" marker-end="none" fill="none"></path><path id="SvgjsPath4261" data-name="connection" stroke-linecap="round" stroke="#257e7a" stroke-width="1" d="M 315.8642578125 -65.4L 328.8642578125 -65.4L 328.8642578125 -56.10000000000001Q 328.8642578125 -48.10000000000001 336.8642578125 -48.10000000000001L 342.8642578125 -48.10000000000001" marker-end="none" fill="none"></path><path id="SvgjsPath4277" data-name="connection" stroke-linecap="round" stroke="#257e7a" stroke-width="2" d="M 90.96158854166666 0L 90.96158854166666 0Q 110.25774739583332 65.4 187.4423828125 65.4" fill="none" marker-end="none" clip-path="url(&quot;#SvgjsClipPath4485&quot;)"></path><path id="SvgjsPath4287" data-name="connection" stroke-linecap="round" stroke="#257e7a" stroke-width="1" d="M 315.8642578125 65.4L 328.8642578125 65.4L 328.8642578125 56.099999999999994Q 328.8642578125 48.099999999999994 336.8642578125 48.099999999999994L 342.8642578125 48.099999999999994" marker-end="none" fill="none"></path><path id="SvgjsPath4297" data-name="connection" stroke-linecap="round" d="M 384 27 L 376 34 L 368 27" stroke-width="0" fill="#3fc6b4" marker-end="none"></path><path id="SvgjsPath4313" data-name="connection" stroke-linecap="round" stroke="#257e7a" stroke-width="1" d="M 315.8642578125 65.4L 328.8642578125 65.4L 328.8642578125 74.69999999999999Q 328.8642578125 82.69999999999999 336.8642578125 82.69999999999999L 342.8642578125 82.69999999999999" marker-end="none" fill="none"></path><path id="SvgjsPath4329" data-name="connection" stroke-linecap="round" stroke="#257e7a" stroke-width="2" d="M -90.96158854166666 0L -90.96158854166666 0Q -112.25774739583332 61.400000000000006 -197.4423828125 61.400000000000006" fill="none" marker-end="none" clip-path="url(&quot;#SvgjsClipPath4485&quot;)"></path><path id="SvgjsPath4339" data-name="connection" stroke-linecap="round" stroke="#257e7a" stroke-width="1" d="M -325.8642578125 61.400000000000006L -338.8642578125 61.400000000000006L -338.8642578125 52.10000000000001Q -338.8642578125 44.10000000000001 -346.8642578125 44.10000000000001L -352.8642578125 44.10000000000001" marker-end="none" fill="none"></path><path id="SvgjsPath4352" data-name="connection" stroke-linecap="round" stroke="#257e7a" stroke-width="1" d="M -325.8642578125 61.400000000000006L -338.8642578125 61.400000000000006L -338.8642578125 70.7Q -338.8642578125 78.7 -346.8642578125 78.7L -352.8642578125 78.7" marker-end="none" fill="none"></path><path id="SvgjsPath4368" data-name="connection" stroke-linecap="round" stroke="#257e7a" stroke-width="2" d="M -90.96158854166666 0L -90.96158854166666 0Q -110.25774739583332 -61.400000000000006 -187.4423828125 -61.400000000000006" fill="none" marker-end="none" clip-path="url(&quot;#SvgjsClipPath4485&quot;)"></path><path id="SvgjsPath4378" data-name="connection" stroke-linecap="round" stroke="#257e7a" stroke-width="1" d="M -315.8642578125 -61.400000000000006L -328.8642578125 -61.400000000000006L -328.8642578125 -70.7Q -328.8642578125 -78.7 -336.8642578125 -78.7L -342.8642578125 -78.7" marker-end="none" fill="none"></path><path id="SvgjsPath4391" data-name="connection" stroke-linecap="round" stroke="#257e7a" stroke-width="1" d="M -315.8642578125 -61.400000000000006L -328.8642578125 -61.400000000000006L -328.8642578125 -52.10000000000001Q -328.8642578125 -44.10000000000001 -336.8642578125 -44.10000000000001L -342.8642578125 -44.10000000000001" marker-end="none" fill="none"></path></g><g id="SvgjsG4215" data-name="branch-container"><g id="SvgjsG4227" data-name="branch" class="branch"><g id="SvgjsG4220" data-name="topic"><g id="SvgjsG4221" data-name="topic-shape-group"><path id="SvgjsPath4224" data-name="topic-shape-fill" fill="#2a7ac2" stroke="none" opacity="0" d="M -130.4423828125 -39.400000000000006L 130.4423828125 -39.400000000000006Q 135.4423828125 -39.400000000000006  135.4423828125 -34.400000000000006L 135.4423828125 34.400000000000006Q 135.4423828125 39.400000000000006  130.4423828125 39.400000000000006L -130.4423828125 39.400000000000006Q -135.4423828125 39.400000000000006  -135.4423828125 34.400000000000006L -135.4423828125 -34.400000000000006Q -135.4423828125 -39.400000000000006  -130.4423828125 -39.400000000000006"></path><path id="SvgjsPath4225" data-name="topic-shape" fill="none" stroke-width="2" d="M -130.4423828125 -39.400000000000006L 130.4423828125 -39.400000000000006Q 135.4423828125 -39.400000000000006  135.4423828125 -34.400000000000006L 135.4423828125 34.400000000000006Q 135.4423828125 39.400000000000006  130.4423828125 39.400000000000006L -130.4423828125 39.400000000000006Q -135.4423828125 39.400000000000006  -135.4423828125 34.400000000000006L -135.4423828125 -34.400000000000006Q -135.4423828125 -39.400000000000006  -130.4423828125 -39.400000000000006" stroke="#257e7a"></path><g id="SvgjsG4222" data-name="inner-element-group"><g id="SvgjsG4418" data-name="topic-title-text-group"><text id="SvgjsText4417" font-family="'Roboto','Nunito Sans','Microsoft YaHei','Microsoft JhengHei',sans-serif" font-size="36" font-weight="normal" fill="#ffffff" font-style="normal" text-decoration="none" text-anchor="middle" transform="translate(0 -23.400000000000002)" style="user-select: none; cursor: default;"><tspan id="SvgjsTspan4493" font-family="'Roboto','Nunito Sans','Microsoft YaHei','Microsoft JhengHei',sans-serif" font-size="36" font-weight="normal" fill="#ffffff" font-style="normal" text-decoration="none" dy="36" x="0" style="white-space: pre;">Central Topic</tspan></text></g></g></g></g></g><g id="SvgjsG4237" data-name="branch" class="branch" transform="translate(251.1533203125 -65.4)"><g id="SvgjsG4230" data-name="topic"><g id="SvgjsG4231" data-name="topic-shape-group"><path id="SvgjsPath4234" data-name="topic-shape-fill" fill="#e8e8e8" stroke="none" opacity="0" d="M -59.2109375 -20.9L 59.2109375 -20.9Q 64.2109375 -20.9  64.2109375 -15.899999999999999L 64.2109375 15.899999999999999Q 64.2109375 20.9  59.2109375 20.9L -59.2109375 20.9Q -64.2109375 20.9  -64.2109375 15.899999999999999L -64.2109375 -15.899999999999999Q -64.2109375 -20.9  -59.2109375 -20.9"></path><path id="SvgjsPath4235" data-name="topic-shape" fill="none" stroke="#abb5b4" stroke-width="1" d="M -59.2109375 -20.9L 59.2109375 -20.9Q 64.2109375 -20.9  64.2109375 -15.899999999999999L 64.2109375 15.899999999999999Q 64.2109375 20.9  59.2109375 20.9L -59.2109375 20.9Q -64.2109375 20.9  -64.2109375 15.899999999999999L -64.2109375 -15.899999999999999Q -64.2109375 -20.9  -59.2109375 -20.9"></path><g id="SvgjsG4232" data-name="inner-element-group"><g id="SvgjsG4267" data-name="topic-title-text-group"><text id="SvgjsText4266" font-family="'Roboto','Nunito Sans','Microsoft YaHei','Microsoft JhengHei',sans-serif" font-size="16" font-weight="normal" fill="#abb5b4" font-style="normal" text-decoration="none" text-anchor="start" transform="translate(-45.7109375 -10.4)" style="user-select: none; cursor: default;"><tspan id="SvgjsTspan4494" font-family="'Roboto','Nunito Sans','Microsoft YaHei','Microsoft JhengHei',sans-serif" font-size="16" font-weight="normal" fill="#abb5b4" font-style="normal" text-decoration="none" dy="16" x="0" style="white-space: pre;">Main Topic 1</tspan></text></g></g></g><g id="SvgjsG4440" data-name="collapse-extended" class="collapseextend" transform="translate(71.7109375 -6)" style="cursor: pointer; display: none;"><line id="SvgjsLine4441" stroke-width="0" x1="0" y1="6" x2="-7" y2="6" stroke="#257e7a"></line><g id="SvgjsG4442"><ellipse id="SvgjsEllipse4443" rx="6" ry="6" cx="6" cy="6" fill="#043742"></ellipse><ellipse id="SvgjsEllipse4444" rx="6" ry="6" cx="6" cy="6" fill="none" stroke="#257e7a"></ellipse><path id="SvgjsPath4445" d="M 2, 6 L 10, 6" stroke="#257e7a"></path></g><g id="SvgjsG4446"><ellipse id="SvgjsEllipse4447" rx="8" ry="8" cx="8" cy="8" fill="#043742"></ellipse><ellipse id="SvgjsEllipse4448" rx="8" ry="8" cx="8" cy="8" fill="none" stroke="#257e7a" stroke-width="1"></ellipse><text id="SvgjsText4449" font-family="Helvetica, Arial, sans-serif" fill="#257e7a" style="user-select: none; cursor: default;"></text></g><ellipse id="SvgjsEllipse4450" rx="8" ry="8" cx="8" cy="8" fill="none" style="pointer-events: visible;"></ellipse></g></g></g><g id="SvgjsG4247" data-name="branch" class="branch" transform="translate(376.23828125 -82.7)"><g id="SvgjsG4240" data-name="topic"><g id="SvgjsG4241" data-name="topic-shape-group"><path id="SvgjsPath4244" data-name="topic-shape-fill" opacity="0" d="M -34.3740234375 -13.8L 34.3740234375 -13.8L 34.3740234375 13.8L -34.3740234375 13.8z"></path><path id="SvgjsPath4245" data-name="topic-shape" fill="none" stroke-width="0" d="M -34.3740234375 -13.8L 34.3740234375 -13.8L 34.3740234375 13.8L -34.3740234375 13.8z"></path><g id="SvgjsG4242" data-name="inner-element-group"><g id="SvgjsG4251" data-name="topic-title-text-group"><text id="SvgjsText4250" font-family="'Roboto','Nunito Sans','Microsoft YaHei','Microsoft JhengHei',sans-serif" font-size="12" font-weight="normal" fill="#abb5b4" font-style="normal" text-decoration="none" text-anchor="start" transform="translate(-28.3740234375 -7.800000000000001)" style="user-select: none; cursor: default;"><tspan id="SvgjsTspan4495" font-family="'Roboto','Nunito Sans','Microsoft YaHei','Microsoft JhengHei',sans-serif" font-size="12" font-weight="normal" fill="#abb5b4" font-style="normal" text-decoration="none" dy="12" x="0" style="white-space: pre;">Subtopic 1</tspan></text></g></g></g></g></g><g id="SvgjsG4260" data-name="branch" class="branch" transform="translate(376.23828125 -48.10000000000001)"><g id="SvgjsG4253" data-name="topic"><g id="SvgjsG4254" data-name="topic-shape-group"><path id="SvgjsPath4257" data-name="topic-shape-fill" opacity="0" d="M -34.3740234375 -13.8L 34.3740234375 -13.8L 34.3740234375 13.8L -34.3740234375 13.8z"></path><path id="SvgjsPath4258" data-name="topic-shape" fill="none" stroke-width="0" d="M -34.3740234375 -13.8L 34.3740234375 -13.8L 34.3740234375 13.8L -34.3740234375 13.8z"></path><g id="SvgjsG4255" data-name="inner-element-group"><g id="SvgjsG4264" data-name="topic-title-text-group"><text id="SvgjsText4263" font-family="'Roboto','Nunito Sans','Microsoft YaHei','Microsoft JhengHei',sans-serif" font-size="12" font-weight="normal" fill="#abb5b4" font-style="normal" text-decoration="none" text-anchor="start" transform="translate(-28.3740234375 -7.800000000000001)" style="user-select: none; cursor: default;"><tspan id="SvgjsTspan4496" font-family="'Roboto','Nunito Sans','Microsoft YaHei','Microsoft JhengHei',sans-serif" font-size="12" font-weight="normal" fill="#abb5b4" font-style="normal" text-decoration="none" dy="12" x="0" style="white-space: pre;">Subtopic 2</tspan></text></g></g></g></g></g><g id="SvgjsG4276" data-name="branch" class="branch" transform="translate(251.1533203125 65.4)"><g id="SvgjsG4269" data-name="topic"><g id="SvgjsG4270" data-name="topic-shape-group"><path id="SvgjsPath4273" data-name="topic-shape-fill" fill="#e8e8e8" stroke="none" opacity="0" d="M -59.2109375 -20.9L 59.2109375 -20.9Q 64.2109375 -20.9  64.2109375 -15.899999999999999L 64.2109375 15.899999999999999Q 64.2109375 20.9  59.2109375 20.9L -59.2109375 20.9Q -64.2109375 20.9  -64.2109375 15.899999999999999L -64.2109375 -15.899999999999999Q -64.2109375 -20.9  -59.2109375 -20.9"></path><path id="SvgjsPath4274" data-name="topic-shape" fill="none" stroke="#abb5b4" stroke-width="1" d="M -59.2109375 -20.9L 59.2109375 -20.9Q 64.2109375 -20.9  64.2109375 -15.899999999999999L 64.2109375 15.899999999999999Q 64.2109375 20.9  59.2109375 20.9L -59.2109375 20.9Q -64.2109375 20.9  -64.2109375 15.899999999999999L -64.2109375 -15.899999999999999Q -64.2109375 -20.9  -59.2109375 -20.9"></path><g id="SvgjsG4271" data-name="inner-element-group"><g id="SvgjsG4319" data-name="topic-title-text-group"><text id="SvgjsText4318" font-family="'Roboto','Nunito Sans','Microsoft YaHei','Microsoft JhengHei',sans-serif" font-size="16" font-weight="normal" fill="#abb5b4" font-style="normal" text-decoration="none" text-anchor="start" transform="translate(-45.7109375 -10.4)" style="user-select: none; cursor: default;"><tspan id="SvgjsTspan4497" font-family="'Roboto','Nunito Sans','Microsoft YaHei','Microsoft JhengHei',sans-serif" font-size="16" font-weight="normal" fill="#abb5b4" font-style="normal" text-decoration="none" dy="16" x="0" style="white-space: pre;">Main Topic 2</tspan></text></g></g></g><g id="SvgjsG4451" data-name="collapse-extended" class="collapseextend" transform="translate(71.7109375 -6)" style="cursor: pointer; display: none;"><line id="SvgjsLine4452" stroke-width="0" x1="0" y1="6" x2="-7" y2="6" stroke="#257e7a"></line><g id="SvgjsG4453"><ellipse id="SvgjsEllipse4454" rx="6" ry="6" cx="6" cy="6" fill="#043742"></ellipse><ellipse id="SvgjsEllipse4455" rx="6" ry="6" cx="6" cy="6" fill="none" stroke="#257e7a"></ellipse><path id="SvgjsPath4456" d="M 2, 6 L 10, 6" stroke="#257e7a"></path></g><g id="SvgjsG4457"><ellipse id="SvgjsEllipse4458" rx="8" ry="8" cx="8" cy="8" fill="#043742"></ellipse><ellipse id="SvgjsEllipse4459" rx="8" ry="8" cx="8" cy="8" fill="none" stroke="#257e7a" stroke-width="1"></ellipse><text id="SvgjsText4460" font-family="Helvetica, Arial, sans-serif" fill="#257e7a" style="user-select: none; cursor: default;"></text></g><ellipse id="SvgjsEllipse4461" rx="8" ry="8" cx="8" cy="8" fill="none" style="pointer-events: visible;"></ellipse></g></g></g><g id="SvgjsG4286" data-name="branch" class="branch" transform="translate(376.23828125 48.099999999999994)"><g id="SvgjsG4279" data-name="topic"><g id="SvgjsG4280" data-name="topic-shape-group"><path id="SvgjsPath4283" data-name="topic-shape-fill" opacity="0" d="M -34.3740234375 -13.8L 34.3740234375 -13.8L 34.3740234375 13.8L -34.3740234375 13.8z"></path><path id="SvgjsPath4284" data-name="topic-shape" fill="none" stroke-width="0" d="M -34.3740234375 -13.8L 34.3740234375 -13.8L 34.3740234375 13.8L -34.3740234375 13.8z"></path><g id="SvgjsG4281" data-name="inner-element-group"><g id="SvgjsG4303" data-name="topic-title-text-group"><text id="SvgjsText4302" font-family="'Roboto','Nunito Sans','Microsoft YaHei','Microsoft JhengHei',sans-serif" font-size="12" font-weight="normal" fill="#abb5b4" font-style="normal" text-decoration="none" text-anchor="start" transform="translate(-28.3740234375 -7.800000000000001)" style="user-select: none; cursor: default;"><tspan id="SvgjsTspan4498" font-family="'Roboto','Nunito Sans','Microsoft YaHei','Microsoft JhengHei',sans-serif" font-size="12" font-weight="normal" fill="#abb5b4" font-style="normal" text-decoration="none" dy="12" x="0" style="white-space: pre;">Subtopic 1</tspan></text></g></g></g></g></g><g id="SvgjsG4296" data-name="branch" class="branch" transform="translate(376.23828125 14.499999999999986)"><g id="SvgjsG4289" data-name="topic"><g id="SvgjsG4290" data-name="topic-shape-group"><path id="SvgjsPath4293" data-name="topic-shape-fill" fill="#3fc6b4" stroke="none" opacity="1" d="M -19.7705078125 -13.8L 19.7705078125 -13.8Q 24.7705078125 -13.8  24.7705078125 -8.8L 24.7705078125 8.8Q 24.7705078125 13.8  19.7705078125 13.8L -19.7705078125 13.8Q -24.7705078125 13.8  -24.7705078125 8.8L -24.7705078125 -8.8Q -24.7705078125 -13.8  -19.7705078125 -13.8"></path><path id="SvgjsPath4294" data-name="topic-shape" fill="none" stroke-width="0" d="M -19.7705078125 -13.8L 19.7705078125 -13.8Q 24.7705078125 -13.8  24.7705078125 -8.8L 24.7705078125 8.8Q 24.7705078125 13.8  19.7705078125 13.8L -19.7705078125 13.8Q -24.7705078125 13.8  -24.7705078125 8.8L -24.7705078125 -8.8Q -24.7705078125 -13.8  -19.7705078125 -13.8" clip-path="url(&quot;#SvgjsClipPath4521&quot;)"></path><g id="SvgjsG4291" data-name="inner-element-group"><g id="SvgjsG4300" data-name="topic-title-text-group"><text id="SvgjsText4299" font-family="'Roboto','Nunito Sans','Microsoft YaHei','Microsoft JhengHei',sans-serif" font-size="12" font-weight="400" fill="#ffffff" font-style="normal" text-decoration="none" text-anchor="middle" transform="translate(0 -7.800000000000001)" style="user-select: none; cursor: default;"><tspan id="SvgjsTspan4501" font-family="'Roboto','Nunito Sans','Microsoft YaHei','Microsoft JhengHei',sans-serif" font-size="12" font-weight="400" fill="#ffffff" font-style="normal" text-decoration="none" dy="12" x="0" style="white-space: pre;">Callout</tspan></text></g></g></g></g></g><g id="SvgjsG4312" data-name="branch" class="branch" transform="translate(376.23828125 82.69999999999999)"><g id="SvgjsG4305" data-name="topic"><g id="SvgjsG4306" data-name="topic-shape-group"><path id="SvgjsPath4309" data-name="topic-shape-fill" opacity="0" d="M -34.3740234375 -13.8L 34.3740234375 -13.8L 34.3740234375 13.8L -34.3740234375 13.8z"></path><path id="SvgjsPath4310" data-name="topic-shape" fill="none" stroke-width="0" d="M -34.3740234375 -13.8L 34.3740234375 -13.8L 34.3740234375 13.8L -34.3740234375 13.8z"></path><g id="SvgjsG4307" data-name="inner-element-group"><g id="SvgjsG4316" data-name="topic-title-text-group"><text id="SvgjsText4315" font-family="'Roboto','Nunito Sans','Microsoft YaHei','Microsoft JhengHei',sans-serif" font-size="12" font-weight="normal" fill="#abb5b4" font-style="normal" text-decoration="none" text-anchor="start" transform="translate(-28.3740234375 -7.800000000000001)" style="user-select: none; cursor: default;"><tspan id="SvgjsTspan4502" font-family="'Roboto','Nunito Sans','Microsoft YaHei','Microsoft JhengHei',sans-serif" font-size="12" font-weight="normal" fill="#abb5b4" font-style="normal" text-decoration="none" dy="12" x="0" style="white-space: pre;">Subtopic 2</tspan></text></g></g></g></g></g><g id="SvgjsG4328" data-name="branch" class="branch" transform="translate(-261.1533203125 61.400000000000006)"><g id="SvgjsG4321" data-name="topic"><g id="SvgjsG4322" data-name="topic-shape-group"><path id="SvgjsPath4325" data-name="topic-shape-fill" fill="#e8e8e8" stroke="none" opacity="0" d="M -59.2109375 -20.9L 59.2109375 -20.9Q 64.2109375 -20.9  64.2109375 -15.899999999999999L 64.2109375 15.899999999999999Q 64.2109375 20.9  59.2109375 20.9L -59.2109375 20.9Q -64.2109375 20.9  -64.2109375 15.899999999999999L -64.2109375 -15.899999999999999Q -64.2109375 -20.9  -59.2109375 -20.9"></path><path id="SvgjsPath4326" data-name="topic-shape" fill="none" stroke="#abb5b4" stroke-width="1" d="M -59.2109375 -20.9L 59.2109375 -20.9Q 64.2109375 -20.9  64.2109375 -15.899999999999999L 64.2109375 15.899999999999999Q 64.2109375 20.9  59.2109375 20.9L -59.2109375 20.9Q -64.2109375 20.9  -64.2109375 15.899999999999999L -64.2109375 -15.899999999999999Q -64.2109375 -20.9  -59.2109375 -20.9"></path><g id="SvgjsG4323" data-name="inner-element-group"><g id="SvgjsG4358" data-name="topic-title-text-group"><text id="SvgjsText4357" font-family="'Roboto','Nunito Sans','Microsoft YaHei','Microsoft JhengHei',sans-serif" font-size="16" font-weight="normal" fill="#abb5b4" font-style="normal" text-decoration="none" text-anchor="start" transform="translate(-45.7109375 -10.4)" style="user-select: none; cursor: default;"><tspan id="SvgjsTspan4503" font-family="'Roboto','Nunito Sans','Microsoft YaHei','Microsoft JhengHei',sans-serif" font-size="16" font-weight="normal" fill="#abb5b4" font-style="normal" text-decoration="none" dy="16" x="0" style="white-space: pre;">Main Topic 4</tspan></text></g></g></g><g id="SvgjsG4462" data-name="collapse-extended" class="collapseextend" transform="translate(-83.7109375 -6)" style="cursor: pointer; display: none;"><line id="SvgjsLine4463" stroke-width="0" x1="12" y1="6" x2="19" y2="6" stroke="#257e7a"></line><g id="SvgjsG4464"><ellipse id="SvgjsEllipse4465" rx="6" ry="6" cx="6" cy="6" fill="#043742"></ellipse><ellipse id="SvgjsEllipse4466" rx="6" ry="6" cx="6" cy="6" fill="none" stroke="#257e7a"></ellipse><path id="SvgjsPath4467" d="M 2, 6 L 10, 6" stroke="#257e7a"></path></g><g id="SvgjsG4468"><ellipse id="SvgjsEllipse4469" rx="8" ry="8" cx="8" cy="8" fill="#043742"></ellipse><ellipse id="SvgjsEllipse4470" rx="8" ry="8" cx="8" cy="8" fill="none" stroke="#257e7a" stroke-width="1"></ellipse><text id="SvgjsText4471" font-family="Helvetica, Arial, sans-serif" fill="#257e7a" style="user-select: none; cursor: default;"></text></g><ellipse id="SvgjsEllipse4472" rx="8" ry="8" cx="8" cy="8" fill="none" style="pointer-events: visible;"></ellipse></g></g></g><g id="SvgjsG4338" data-name="branch" class="branch" transform="translate(-386.23828125 44.10000000000001)"><g id="SvgjsG4331" data-name="topic"><g id="SvgjsG4332" data-name="topic-shape-group"><path id="SvgjsPath4335" data-name="topic-shape-fill" opacity="0" d="M -34.3740234375 -13.8L 34.3740234375 -13.8L 34.3740234375 13.8L -34.3740234375 13.8z"></path><path id="SvgjsPath4336" data-name="topic-shape" fill="none" stroke-width="0" d="M -34.3740234375 -13.8L 34.3740234375 -13.8L 34.3740234375 13.8L -34.3740234375 13.8z"></path><g id="SvgjsG4333" data-name="inner-element-group"><g id="SvgjsG4342" data-name="topic-title-text-group"><text id="SvgjsText4341" font-family="'Roboto','Nunito Sans','Microsoft YaHei','Microsoft JhengHei',sans-serif" font-size="12" font-weight="normal" fill="#abb5b4" font-style="normal" text-decoration="none" text-anchor="start" transform="translate(-28.3740234375 -7.800000000000001)" style="user-select: none; cursor: default;"><tspan id="SvgjsTspan4504" font-family="'Roboto','Nunito Sans','Microsoft YaHei','Microsoft JhengHei',sans-serif" font-size="12" font-weight="normal" fill="#abb5b4" font-style="normal" text-decoration="none" dy="12" x="0" style="white-space: pre;">Subtopic 1</tspan></text></g></g></g></g></g><g id="SvgjsG4351" data-name="branch" class="branch" transform="translate(-386.23828125 78.7)"><g id="SvgjsG4344" data-name="topic"><g id="SvgjsG4345" data-name="topic-shape-group"><path id="SvgjsPath4348" data-name="topic-shape-fill" opacity="0" d="M -34.3740234375 -13.8L 34.3740234375 -13.8L 34.3740234375 13.8L -34.3740234375 13.8z"></path><path id="SvgjsPath4349" data-name="topic-shape" fill="none" stroke-width="0" d="M -34.3740234375 -13.8L 34.3740234375 -13.8L 34.3740234375 13.8L -34.3740234375 13.8z"></path><g id="SvgjsG4346" data-name="inner-element-group"><g id="SvgjsG4355" data-name="topic-title-text-group"><text id="SvgjsText4354" font-family="'Roboto','Nunito Sans','Microsoft YaHei','Microsoft JhengHei',sans-serif" font-size="12" font-weight="normal" fill="#abb5b4" font-style="normal" text-decoration="none" text-anchor="start" transform="translate(-28.3740234375 -7.800000000000001)" style="user-select: none; cursor: default;"><tspan id="SvgjsTspan4505" font-family="'Roboto','Nunito Sans','Microsoft YaHei','Microsoft JhengHei',sans-serif" font-size="12" font-weight="normal" fill="#abb5b4" font-style="normal" text-decoration="none" dy="12" x="0" style="white-space: pre;">Subtopic 2</tspan></text></g></g></g></g></g><g id="SvgjsG4367" data-name="branch" class="branch" transform="translate(-251.1533203125 -61.400000000000006)"><g id="SvgjsG4360" data-name="topic"><g id="SvgjsG4361" data-name="topic-shape-group"><path id="SvgjsPath4364" data-name="topic-shape-fill" fill="#e8e8e8" stroke="none" opacity="0" d="M -59.2109375 -20.9L 59.2109375 -20.9Q 64.2109375 -20.9  64.2109375 -15.899999999999999L 64.2109375 15.899999999999999Q 64.2109375 20.9  59.2109375 20.9L -59.2109375 20.9Q -64.2109375 20.9  -64.2109375 15.899999999999999L -64.2109375 -15.899999999999999Q -64.2109375 -20.9  -59.2109375 -20.9"></path><path id="SvgjsPath4365" data-name="topic-shape" fill="none" stroke="#abb5b4" stroke-width="1" d="M -59.2109375 -20.9L 59.2109375 -20.9Q 64.2109375 -20.9  64.2109375 -15.899999999999999L 64.2109375 15.899999999999999Q 64.2109375 20.9  59.2109375 20.9L -59.2109375 20.9Q -64.2109375 20.9  -64.2109375 15.899999999999999L -64.2109375 -15.899999999999999Q -64.2109375 -20.9  -59.2109375 -20.9"></path><g id="SvgjsG4362" data-name="inner-element-group"><g id="SvgjsG4397" data-name="topic-title-text-group"><text id="SvgjsText4396" font-family="'Roboto','Nunito Sans','Microsoft YaHei','Microsoft JhengHei',sans-serif" font-size="16" font-weight="normal" fill="#abb5b4" font-style="normal" text-decoration="none" text-anchor="start" transform="translate(-45.7109375 -10.4)" style="user-select: none; cursor: default;"><tspan id="SvgjsTspan4506" font-family="'Roboto','Nunito Sans','Microsoft YaHei','Microsoft JhengHei',sans-serif" font-size="16" font-weight="normal" fill="#abb5b4" font-style="normal" text-decoration="none" dy="16" x="0" style="white-space: pre;">Main Topic 3</tspan></text></g></g></g><g id="SvgjsG4473" data-name="collapse-extended" class="collapseextend" transform="translate(-83.7109375 -6)" style="cursor: pointer; display: none;"><line id="SvgjsLine4474" stroke-width="0" x1="12" y1="6" x2="19" y2="6" stroke="#257e7a"></line><g id="SvgjsG4475"><ellipse id="SvgjsEllipse4476" rx="6" ry="6" cx="6" cy="6" fill="#043742"></ellipse><ellipse id="SvgjsEllipse4477" rx="6" ry="6" cx="6" cy="6" fill="none" stroke="#257e7a"></ellipse><path id="SvgjsPath4478" d="M 2, 6 L 10, 6" stroke="#257e7a"></path></g><g id="SvgjsG4479"><ellipse id="SvgjsEllipse4480" rx="8" ry="8" cx="8" cy="8" fill="#043742"></ellipse><ellipse id="SvgjsEllipse4481" rx="8" ry="8" cx="8" cy="8" fill="none" stroke="#257e7a" stroke-width="1"></ellipse><text id="SvgjsText4482" font-family="Helvetica, Arial, sans-serif" fill="#257e7a" style="user-select: none; cursor: default;"></text></g><ellipse id="SvgjsEllipse4483" rx="8" ry="8" cx="8" cy="8" fill="none" style="pointer-events: visible;"></ellipse></g></g></g><g id="SvgjsG4377" data-name="branch" class="branch" transform="translate(-376.23828125 -78.7)"><g id="SvgjsG4370" data-name="topic"><g id="SvgjsG4371" data-name="topic-shape-group"><path id="SvgjsPath4374" data-name="topic-shape-fill" opacity="0" d="M -34.3740234375 -13.8L 34.3740234375 -13.8L 34.3740234375 13.8L -34.3740234375 13.8z"></path><path id="SvgjsPath4375" data-name="topic-shape" fill="none" stroke-width="0" d="M -34.3740234375 -13.8L 34.3740234375 -13.8L 34.3740234375 13.8L -34.3740234375 13.8z"></path><g id="SvgjsG4372" data-name="inner-element-group"><g id="SvgjsG4381" data-name="topic-title-text-group"><text id="SvgjsText4380" font-family="'Roboto','Nunito Sans','Microsoft YaHei','Microsoft JhengHei',sans-serif" font-size="12" font-weight="normal" fill="#abb5b4" font-style="normal" text-decoration="none" text-anchor="start" transform="translate(-28.3740234375 -7.800000000000001)" style="user-select: none; cursor: default;"><tspan id="SvgjsTspan4507" font-family="'Roboto','Nunito Sans','Microsoft YaHei','Microsoft JhengHei',sans-serif" font-size="12" font-weight="normal" fill="#abb5b4" font-style="normal" text-decoration="none" dy="12" x="0" style="white-space: pre;">Subtopic 1</tspan></text></g></g></g></g></g><g id="SvgjsG4390" data-name="branch" class="branch" transform="translate(-376.23828125 -44.10000000000001)"><g id="SvgjsG4383" data-name="topic"><g id="SvgjsG4384" data-name="topic-shape-group"><path id="SvgjsPath4387" data-name="topic-shape-fill" opacity="0" d="M -34.3740234375 -13.8L 34.3740234375 -13.8L 34.3740234375 13.8L -34.3740234375 13.8z"></path><path id="SvgjsPath4388" data-name="topic-shape" fill="none" stroke-width="0" d="M -34.3740234375 -13.8L 34.3740234375 -13.8L 34.3740234375 13.8L -34.3740234375 13.8z"></path><g id="SvgjsG4385" data-name="inner-element-group"><g id="SvgjsG4394" data-name="topic-title-text-group"><text id="SvgjsText4393" font-family="'Roboto','Nunito Sans','Microsoft YaHei','Microsoft JhengHei',sans-serif" font-size="12" font-weight="normal" fill="#abb5b4" font-style="normal" text-decoration="none" text-anchor="start" transform="translate(-28.3740234375 -7.800000000000001)" style="user-select: none; cursor: default;"><tspan id="SvgjsTspan4508" font-family="'Roboto','Nunito Sans','Microsoft YaHei','Microsoft JhengHei',sans-serif" font-size="12" font-weight="normal" fill="#abb5b4" font-style="normal" text-decoration="none" dy="12" x="0" style="white-space: pre;">Subtopic 2</tspan></text></g></g></g></g></g></g><g id="SvgjsG4216" data-name="relationship-container"><g id="SvgjsG4419" data-name="relationship" class="relationship"><path id="SvgjsPath4420" data-name="relationship-path" clip-path="url(&quot;#SvgjsClipPath4438&quot;)" style="fill: none;" stroke-dasharray="9, 3" stroke="#3fc6b4" stroke-width="2" marker-start="url(#SvgjsMarker4509)" marker-end="url(#SvgjsMarker4511)" d="M -420.6123046875 36.69811687469483C -469.45238675893046 25.294325243861245  -468.0752551701399 -56.79637318939564  -418.40031481855533 -68.46533175866969"></path><path id="SvgjsPath4422" data-name="relationship-shadow-action-path" stroke="none" stroke-width="12" style="stroke-opacity: 0; stroke: none; fill: none;" d="M -420.6123046875 36.69811687469483C -469.45238675893046 25.294325243861245  -468.0752551701399 -56.79637318939564  -418.40031481855533 -68.46533175866969"></path><text id="SvgjsText4423" font-family="'Roboto','Roboto','Nunito Sans','Microsoft YaHei','Microsoft JhengHei',sans-serif" data-name="relationship-title" style="user-select: none; cursor: default; pointer-events: none; display: none;" font-size="12" font-weight="normal" font-style="italic" text-decoration="none" fill="#257e7a" x="-456.4355163574219" y="-118.50369262695312"><tspan id="SvgjsTspan4523" style="white-space: pre;">Relationship</tspan></text></g></g><g id="SvgjsG4219" data-name="cloneG" opacity="0.5"></g></g></g><defs id="SvgjsDefs4202"><rect id="SvgjsRect4435" width="451.05206298828125" height="505.1634521484375" fill="white" x="-669.452392578125" y="-268.46533203125"></rect><rect id="SvgjsRect4436" width="0" height="0" fill="black" style="display: none;"></rect><clipPath id="SvgjsClipPath4438" style="display: none;"><path id="SvgjsPath4437" d="M -669.452392578125 -268.46533203125 L-218.40032958984375 -268.46533203125 L-218.40032958984375 236.6981201171875 L-669.452392578125 236.6981201171875 M 0 0 L0 0 L0 0 L0 0" fill="black" clip-rule="evenodd"></path></clipPath><clipPath id="SvgjsClipPath4485"><path id="SvgjsPath4484" d="M -130.4423828125 -39.400000000000006L 130.4423828125 -39.400000000000006Q 135.4423828125 -39.400000000000006  135.4423828125 -34.400000000000006L 135.4423828125 34.400000000000006Q 135.4423828125 39.400000000000006  130.4423828125 39.400000000000006L -130.4423828125 39.400000000000006Q -135.4423828125 39.400000000000006  -135.4423828125 34.400000000000006L -135.4423828125 -34.400000000000006Q -135.4423828125 -39.400000000000006  -130.4423828125 -39.400000000000006 M -10000 -10000 L10000 -10000 L10000 10000 L-10000 10000" fill="black" clip-rule="evenodd" transform="translate(0 0) "></path></clipPath><marker id="SvgjsMarker4488" markerWidth="8" markerHeight="8" refX="5" refY="4" viewBox="0 0 8 8" orient="auto"><path id="SvgjsPath4489" d="" stroke="#2a7ac2" stroke-width="1" stroke-dasharray="none" fill="none"></path></marker><marker id="SvgjsMarker4490" markerWidth="8" markerHeight="8" refX="2" refY="4" viewBox="0 0 8 8" orient="auto"><path id="SvgjsPath4491" d="M 2 2 L 6 4 L 2 6" stroke-width="0" stroke-dasharray="none" stroke="#2a7ac2" fill="#2a7ac2"></path></marker><marker id="SvgjsMarker4509" markerWidth="8" markerHeight="8" refX="5" refY="4" viewBox="0 0 8 8" orient="auto"><path id="SvgjsPath4510" d="" stroke="#3fc6b4" stroke-width="1" stroke-dasharray="none" fill="none"></path></marker><marker id="SvgjsMarker4511" markerWidth="8" markerHeight="8" refX="2" refY="4" viewBox="0 0 8 8" orient="auto"><path id="SvgjsPath4512" d="M 2 2 L 6 4 L 2 6" stroke-width="0" stroke-dasharray="none" stroke="#3fc6b4" fill="#3fc6b4"></path></marker><clipPath id="SvgjsClipPath4521"><path id="SvgjsPath4520" d="M -8.23828125 12.500000000000014 L7.76171875 12.500000000000014 L7.76171875 12.500000000000014 L-8.23828125 12.500000000000014 M -10000 -10000 L10000 -10000 L10000 10000 L-10000 10000" fill="black" clip-rule="evenodd"></path></clipPath></defs></svg>