<?xml version="1.0" standalone="no"?><!DOCTYPE svg PUBLIC "-//W3C//DTD SVG 1.1//EN" "http://www.w3.org/Graphics/SVG/1.1/DTD/svg11.dtd" [<!ENTITY nbsp "&#160;">]><svg id="SvgjsSvg4833" xmlns="http://www.w3.org/2000/svg" version="1.1" width="228" height="140.00000000000003" xmlns:xlink="http://www.w3.org/1999/xlink" style="display: block; background-color: rgb(0, 0, 0);" viewBox="0 0 1078.6984331396561 662.3586870155784"><defs><style type="text/css"><![CDATA[

]]></style></defs><g id="SvgjsG4835" data-name="container" transform="scale(1) translate(563.9653072761689 330.3293435077892)"><g id="SvgjsG4837" data-name="sheet"><g id="SvgjsG4838" data-name="matrix-container"></g><g id="SvgjsG4839" data-name="boundary-container"><g id="SvgjsG5025" data-name="boundary-group" class="boundary"><path id="SvgjsPath5026" data-name="boundary-path" stroke="#fc3064" fill="#000000" stroke-width="4" fill-opacity="0.2" stroke-dasharray="" d="M -467.4018020629883 21.700000000000003L -199.83196258544922 21.700000000000003Q -179.83196258544922 21.700000000000003 -179.83196258544922 41.7L -179.83196258544922 80Q -179.83196258544922 100 -199.83196258544922 100L -467.4018020629883 100Q -487.4018020629883 100 -487.4018020629883 80L -487.4018020629883 41.7Q -487.4018020629883 21.700000000000003 -467.4018020629883 21.700000000000003z"></path><g id="SvgjsG5028" data-name="boundary-title-group" transform="translate(-492.4018020629883 16.700000000000003)" style="display: none;"><rect id="SvgjsRect5030" data-name="boundary-title-bg" stroke="#fc3064" fill="#000000" stroke-width="4"></rect><text id="SvgjsText5029" font-family="Helvetica, Arial, sans-serif" data-name="boundary-title" style="user-select: none; cursor: default;"></text></g></g></g><g id="SvgjsG4840" data-name="connection-container"><path id="SvgjsPath4854" data-name="connection" stroke-linecap="round"></path><path id="SvgjsPath4864" data-name="connection" stroke-linecap="round" stroke="#ffffff" stroke-width="3" d="M 86.55464172363281 0L 86.55464172363281 0Q 105.4101058959961 -65 180.83196258544922 -65" fill="none" marker-end="none" clip-path="url(&quot;#SvgjsClipPath5111&quot;)"></path><path id="SvgjsPath4874" data-name="connection" stroke-linecap="round" stroke="#ffffff" stroke-width="2" d="M 336.1318893432617 -65L 349.1318893432617 -65Q 356.93188934326173 -79.1 388.1318893432617 -79.1" marker-end="none" fill="none"></path><path id="SvgjsPath4887" data-name="connection" stroke-linecap="round" stroke="#ffffff" stroke-width="2" d="M 336.1318893432617 -65L 349.1318893432617 -65Q 356.93188934326173 -50.9 388.1318893432617 -50.9" marker-end="none" fill="none"></path><path id="SvgjsPath4903" data-name="connection" stroke-linecap="round" stroke="#ffffff" stroke-width="3" d="M 86.55464172363281 0L 86.55464172363281 0Q 105.4101058959961 65 180.83196258544922 65" fill="none" marker-end="none" clip-path="url(&quot;#SvgjsClipPath5111&quot;)"></path><path id="SvgjsPath4913" data-name="connection" stroke-linecap="round" stroke="#ffffff" stroke-width="2" d="M 336.1518783569336 65L 349.1518783569336 65Q 356.9518783569336 50.9 388.1518783569336 50.9" marker-end="none" fill="none"></path><path id="SvgjsPath4923" data-name="connection" stroke-linecap="round" d="M 435 24 L 427 31 L 419 24" stroke-width="0" fill="#fc3064" marker-end="none"></path><path id="SvgjsPath4939" data-name="connection" stroke-linecap="round" stroke="#ffffff" stroke-width="2" d="M 336.1518783569336 65L 349.1518783569336 65Q 356.9518783569336 79.1 388.1518783569336 79.1" marker-end="none" fill="none"></path><path id="SvgjsPath4955" data-name="connection" stroke-linecap="round" stroke="#ffffff" stroke-width="3" d="M -86.55464172363281 0L -86.55464172363281 0Q -107.4101058959961 65 -190.83196258544922 65" fill="none" marker-end="none" clip-path="url(&quot;#SvgjsClipPath5111&quot;)"></path><path id="SvgjsPath4965" data-name="connection" stroke-linecap="round" stroke="#ffffff" stroke-width="2" d="M -346.1318893432617 65L -359.1318893432617 65Q -366.93188934326173 50.900000000000006 -398.1318893432617 50.900000000000006" marker-end="none" fill="none"></path><path id="SvgjsPath4978" data-name="connection" stroke-linecap="round" stroke="#ffffff" stroke-width="2" d="M -346.1318893432617 65L -359.1318893432617 65Q -366.93188934326173 79.1 -398.1318893432617 79.1" marker-end="none" fill="none"></path><path id="SvgjsPath4994" data-name="connection" stroke-linecap="round" stroke="#ffffff" stroke-width="3" d="M -86.55464172363281 0L -86.55464172363281 0Q -105.4101058959961 -65 -180.83196258544922 -65" fill="none" marker-end="none" clip-path="url(&quot;#SvgjsClipPath5111&quot;)"></path><path id="SvgjsPath5004" data-name="connection" stroke-linecap="round" stroke="#ffffff" stroke-width="2" d="M -336.1318893432617 -65L -349.1318893432617 -65Q -356.93188934326173 -79.1 -388.1318893432617 -79.1" marker-end="none" fill="none"></path><path id="SvgjsPath5017" data-name="connection" stroke-linecap="round" stroke="#ffffff" stroke-width="2" d="M -336.1318893432617 -65L -349.1318893432617 -65Q -356.93188934326173 -50.9 -388.1318893432617 -50.9" marker-end="none" fill="none"></path></g><g id="SvgjsG4841" data-name="branch-container"><g id="SvgjsG4853" data-name="branch" class="branch"><g id="SvgjsG4846" data-name="topic"><g id="SvgjsG4847" data-name="topic-shape-group"><path id="SvgjsPath4850" data-name="topic-shape-fill" fill="#2a7ac2" stroke="none" opacity="0" d="M -122.83196258544922 -37.8L 122.83196258544922 -37.8Q 127.83196258544922 -37.8  127.83196258544922 -32.8L 127.83196258544922 32.8Q 127.83196258544922 37.8  122.83196258544922 37.8L -122.83196258544922 37.8Q -127.83196258544922 37.8  -127.83196258544922 32.8L -127.83196258544922 -32.8Q -127.83196258544922 -37.8  -122.83196258544922 -37.8"></path><path id="SvgjsPath4851" data-name="topic-shape" fill="none" stroke-width="4" d="M -122.83196258544922 -37.8L 122.83196258544922 -37.8Q 127.83196258544922 -37.8  127.83196258544922 -32.8L 127.83196258544922 32.8Q 127.83196258544922 37.8  122.83196258544922 37.8L -122.83196258544922 37.8Q -127.83196258544922 37.8  -127.83196258544922 32.8L -127.83196258544922 -32.8Q -127.83196258544922 -37.8  -122.83196258544922 -37.8" stroke="#ffffff"></path><g id="SvgjsG4848" data-name="inner-element-group"><g id="SvgjsG5044" data-name="topic-title-text-group"><text id="SvgjsText5043" font-family="'Nunito Sans','Microsoft YaHei','Microsoft JhengHei',sans-serif" font-size="32" font-weight="700" fill="#ffffff" font-style="normal" text-decoration="none" text-anchor="middle" transform="translate(0 -20.8)" style="user-select: none; cursor: default;"><tspan id="SvgjsTspan5119" font-family="'Nunito Sans','Microsoft YaHei','Microsoft JhengHei',sans-serif" font-size="32" font-weight="700" fill="#ffffff" font-style="normal" text-decoration="none" dy="32" x="0" style="white-space: pre;">Central Topic</tspan></text></g></g></g></g></g><g id="SvgjsG4863" data-name="branch" class="branch" transform="translate(257.98192596435547 -65)"><g id="SvgjsG4856" data-name="topic"><g id="SvgjsG4857" data-name="topic-shape-group"><path id="SvgjsPath4860" data-name="topic-shape-fill" fill="#e8e8e8" stroke="none" opacity="0" d="M -72.14996337890625 -24L 72.14996337890625 -24Q 77.14996337890625 -24  77.14996337890625 -19L 77.14996337890625 19Q 77.14996337890625 24  72.14996337890625 24L -72.14996337890625 24Q -77.14996337890625 24  -77.14996337890625 19L -77.14996337890625 -19Q -77.14996337890625 -24  -72.14996337890625 -24"></path><path id="SvgjsPath4861" data-name="topic-shape" fill="none" stroke="#ffffff" stroke-width="2" d="M -72.14996337890625 -24L 72.14996337890625 -24Q 77.14996337890625 -24  77.14996337890625 -19L 77.14996337890625 19Q 77.14996337890625 24  72.14996337890625 24L -72.14996337890625 24Q -77.14996337890625 24  -77.14996337890625 19L -77.14996337890625 -19Q -77.14996337890625 -24  -72.14996337890625 -24"></path><g id="SvgjsG4858" data-name="inner-element-group"><g id="SvgjsG4893" data-name="topic-title-text-group"><text id="SvgjsText4892" font-family="'Nunito Sans','Microsoft YaHei','Microsoft JhengHei',sans-serif" font-size="20" font-weight="700" fill="#ffffff" font-style="normal" text-decoration="none" text-anchor="start" transform="translate(-58.14996337890625 -13)" style="user-select: none; cursor: default;"><tspan id="SvgjsTspan5120" font-family="'Nunito Sans','Microsoft YaHei','Microsoft JhengHei',sans-serif" font-size="20" font-weight="700" fill="#ffffff" font-style="normal" text-decoration="none" dy="20" x="0" style="white-space: pre;">Main Topic 1</tspan></text></g></g></g><g id="SvgjsG5066" data-name="collapse-extended" class="collapseextend" transform="translate(85.14996337890625 -6)" style="cursor: pointer; display: none;"><line id="SvgjsLine5067" stroke-width="0" x1="0" y1="6" x2="-7" y2="6" stroke="#ffffff"></line><g id="SvgjsG5068"><ellipse id="SvgjsEllipse5069" rx="6" ry="6" cx="6" cy="6" fill="#000000"></ellipse><ellipse id="SvgjsEllipse5070" rx="6" ry="6" cx="6" cy="6" fill="none" stroke="#ffffff"></ellipse><path id="SvgjsPath5071" d="M 2, 6 L 10, 6" stroke="#ffffff"></path></g><g id="SvgjsG5072"><ellipse id="SvgjsEllipse5073" rx="8" ry="8" cx="8" cy="8" fill="#000000"></ellipse><ellipse id="SvgjsEllipse5074" rx="8" ry="8" cx="8" cy="8" fill="none" stroke="#ffffff" stroke-width="1"></ellipse><text id="SvgjsText5075" font-family="Helvetica, Arial, sans-serif" fill="#ffffff" style="user-select: none; cursor: default;"></text></g><ellipse id="SvgjsEllipse5076" rx="8" ry="8" cx="8" cy="8" fill="none" style="pointer-events: visible;"></ellipse></g></g></g><g id="SvgjsG4873" data-name="branch" class="branch" transform="translate(427.766845703125 -89.19999999999999)"><g id="SvgjsG4866" data-name="topic"><g id="SvgjsG4867" data-name="topic-shape-group"><path id="SvgjsPath4870" data-name="topic-shape-fill" opacity="0" d="M -39.63495635986328 -9.1L 39.63495635986328 -9.1L 39.63495635986328 10.1L -39.63495635986328 10.1z"></path><path id="SvgjsPath4871" data-name="topic-shape" fill="none" stroke="#ffffff" stroke-width="2" d="M  -39.63495635986328 10.1L 39.63495635986328 10.1z"></path><g id="SvgjsG4868" data-name="inner-element-group"><g id="SvgjsG4877" data-name="topic-title-text-group"><text id="SvgjsText4876" font-family="'Nunito Sans','Microsoft YaHei','Microsoft JhengHei',sans-serif" font-size="14" font-weight="normal" fill="#ffffff" font-style="normal" text-decoration="none" text-anchor="start" transform="translate(-33.63495635986328 -9.1)" style="user-select: none; cursor: default;"><tspan id="SvgjsTspan5121" font-family="'Nunito Sans','Microsoft YaHei','Microsoft JhengHei',sans-serif" font-size="14" font-weight="normal" fill="#ffffff" font-style="normal" text-decoration="none" dy="14" x="0" style="white-space: pre;">Subtopic 1</tspan></text></g></g></g></g></g><g id="SvgjsG4886" data-name="branch" class="branch" transform="translate(427.766845703125 -61)"><g id="SvgjsG4879" data-name="topic"><g id="SvgjsG4880" data-name="topic-shape-group"><path id="SvgjsPath4883" data-name="topic-shape-fill" opacity="0" d="M -39.63495635986328 -9.1L 39.63495635986328 -9.1L 39.63495635986328 10.1L -39.63495635986328 10.1z"></path><path id="SvgjsPath4884" data-name="topic-shape" fill="none" stroke="#ffffff" stroke-width="2" d="M  -39.63495635986328 10.1L 39.63495635986328 10.1z"></path><g id="SvgjsG4881" data-name="inner-element-group"><g id="SvgjsG4890" data-name="topic-title-text-group"><text id="SvgjsText4889" font-family="'Nunito Sans','Microsoft YaHei','Microsoft JhengHei',sans-serif" font-size="14" font-weight="normal" fill="#ffffff" font-style="normal" text-decoration="none" text-anchor="start" transform="translate(-33.63495635986328 -9.1)" style="user-select: none; cursor: default;"><tspan id="SvgjsTspan5122" font-family="'Nunito Sans','Microsoft YaHei','Microsoft JhengHei',sans-serif" font-size="14" font-weight="normal" fill="#ffffff" font-style="normal" text-decoration="none" dy="14" x="0" style="white-space: pre;">Subtopic 2</tspan></text></g></g></g></g></g><g id="SvgjsG4902" data-name="branch" class="branch" transform="translate(257.9919204711914 65)"><g id="SvgjsG4895" data-name="topic"><g id="SvgjsG4896" data-name="topic-shape-group"><path id="SvgjsPath4899" data-name="topic-shape-fill" fill="#e8e8e8" stroke="none" opacity="0" d="M -72.15995788574219 -24L 72.15995788574219 -24Q 77.15995788574219 -24  77.15995788574219 -19L 77.15995788574219 19Q 77.15995788574219 24  72.15995788574219 24L -72.15995788574219 24Q -77.15995788574219 24  -77.15995788574219 19L -77.15995788574219 -19Q -77.15995788574219 -24  -72.15995788574219 -24"></path><path id="SvgjsPath4900" data-name="topic-shape" fill="none" stroke="#ffffff" stroke-width="2" d="M -72.15995788574219 -24L 72.15995788574219 -24Q 77.15995788574219 -24  77.15995788574219 -19L 77.15995788574219 19Q 77.15995788574219 24  72.15995788574219 24L -72.15995788574219 24Q -77.15995788574219 24  -77.15995788574219 19L -77.15995788574219 -19Q -77.15995788574219 -24  -72.15995788574219 -24"></path><g id="SvgjsG4897" data-name="inner-element-group"><g id="SvgjsG4945" data-name="topic-title-text-group"><text id="SvgjsText4944" font-family="'Nunito Sans','Microsoft YaHei','Microsoft JhengHei',sans-serif" font-size="20" font-weight="700" fill="#ffffff" font-style="normal" text-decoration="none" text-anchor="start" transform="translate(-58.15995788574219 -13)" style="user-select: none; cursor: default;"><tspan id="SvgjsTspan5123" font-family="'Nunito Sans','Microsoft YaHei','Microsoft JhengHei',sans-serif" font-size="20" font-weight="700" fill="#ffffff" font-style="normal" text-decoration="none" dy="20" x="0" style="white-space: pre;">Main Topic 2</tspan></text></g></g></g><g id="SvgjsG5077" data-name="collapse-extended" class="collapseextend" transform="translate(85.15995788574219 -6)" style="cursor: pointer; display: none;"><line id="SvgjsLine5078" stroke-width="0" x1="0" y1="6" x2="-7" y2="6" stroke="#ffffff"></line><g id="SvgjsG5079"><ellipse id="SvgjsEllipse5080" rx="6" ry="6" cx="6" cy="6" fill="#000000"></ellipse><ellipse id="SvgjsEllipse5081" rx="6" ry="6" cx="6" cy="6" fill="none" stroke="#ffffff"></ellipse><path id="SvgjsPath5082" d="M 2, 6 L 10, 6" stroke="#ffffff"></path></g><g id="SvgjsG5083"><ellipse id="SvgjsEllipse5084" rx="8" ry="8" cx="8" cy="8" fill="#000000"></ellipse><ellipse id="SvgjsEllipse5085" rx="8" ry="8" cx="8" cy="8" fill="none" stroke="#ffffff" stroke-width="1"></ellipse><text id="SvgjsText5086" font-family="Helvetica, Arial, sans-serif" fill="#ffffff" style="user-select: none; cursor: default;"></text></g><ellipse id="SvgjsEllipse5087" rx="8" ry="8" cx="8" cy="8" fill="none" style="pointer-events: visible;"></ellipse></g></g></g><g id="SvgjsG4912" data-name="branch" class="branch" transform="translate(427.7868347167969 40.8)"><g id="SvgjsG4905" data-name="topic"><g id="SvgjsG4906" data-name="topic-shape-group"><path id="SvgjsPath4909" data-name="topic-shape-fill" opacity="0" d="M -39.63495635986328 -9.1L 39.63495635986328 -9.1L 39.63495635986328 10.1L -39.63495635986328 10.1z"></path><path id="SvgjsPath4910" data-name="topic-shape" fill="none" stroke="#ffffff" stroke-width="2" d="M  -39.63495635986328 10.1L 39.63495635986328 10.1z"></path><g id="SvgjsG4907" data-name="inner-element-group"><g id="SvgjsG4929" data-name="topic-title-text-group"><text id="SvgjsText4928" font-family="'Nunito Sans','Microsoft YaHei','Microsoft JhengHei',sans-serif" font-size="14" font-weight="normal" fill="#ffffff" font-style="normal" text-decoration="none" text-anchor="start" transform="translate(-33.63495635986328 -9.1)" style="user-select: none; cursor: default;"><tspan id="SvgjsTspan5124" font-family="'Nunito Sans','Microsoft YaHei','Microsoft JhengHei',sans-serif" font-size="14" font-weight="normal" fill="#ffffff" font-style="normal" text-decoration="none" dy="14" x="0" style="white-space: pre;">Subtopic 1</tspan></text></g></g></g></g></g><g id="SvgjsG4922" data-name="branch" class="branch" transform="translate(427.7868347167969 11.899999999999991)"><g id="SvgjsG4915" data-name="topic"><g id="SvgjsG4916" data-name="topic-shape-group"><path id="SvgjsPath4919" data-name="topic-shape-fill" fill="#fc3064" stroke="none" opacity="1" d="M -19.70197296142578 -13.8L 19.70197296142578 -13.8Q 24.70197296142578 -13.8  24.70197296142578 -8.8L 24.70197296142578 8.8Q 24.70197296142578 13.8  19.70197296142578 13.8L -19.70197296142578 13.8Q -24.70197296142578 13.8  -24.70197296142578 8.8L -24.70197296142578 -8.8Q -24.70197296142578 -13.8  -19.70197296142578 -13.8"></path><path id="SvgjsPath4920" data-name="topic-shape" fill="none" stroke-width="0" d="M -19.70197296142578 -13.8L 19.70197296142578 -13.8Q 24.70197296142578 -13.8  24.70197296142578 -8.8L 24.70197296142578 8.8Q 24.70197296142578 13.8  19.70197296142578 13.8L -19.70197296142578 13.8Q -24.70197296142578 13.8  -24.70197296142578 8.8L -24.70197296142578 -8.8Q -24.70197296142578 -13.8  -19.70197296142578 -13.8" clip-path="url(&quot;#SvgjsClipPath5147&quot;)"></path><g id="SvgjsG4917" data-name="inner-element-group"><g id="SvgjsG4926" data-name="topic-title-text-group"><text id="SvgjsText4925" font-family="'Nunito Sans','Microsoft YaHei','Microsoft JhengHei',sans-serif" font-size="12" font-weight="normal" fill="#ffffff" font-style="italic" text-decoration="none" text-anchor="middle" transform="translate(0 -7.800000000000001)" style="user-select: none; cursor: default;"><tspan id="SvgjsTspan5127" font-family="'Nunito Sans','Microsoft YaHei','Microsoft JhengHei',sans-serif" font-size="12" font-weight="normal" fill="#ffffff" font-style="italic" text-decoration="none" dy="12" x="0" style="white-space: pre;">Callout</tspan></text></g></g></g></g></g><g id="SvgjsG4938" data-name="branch" class="branch" transform="translate(427.7868347167969 69)"><g id="SvgjsG4931" data-name="topic"><g id="SvgjsG4932" data-name="topic-shape-group"><path id="SvgjsPath4935" data-name="topic-shape-fill" opacity="0" d="M -39.63495635986328 -9.1L 39.63495635986328 -9.1L 39.63495635986328 10.1L -39.63495635986328 10.1z"></path><path id="SvgjsPath4936" data-name="topic-shape" fill="none" stroke="#ffffff" stroke-width="2" d="M  -39.63495635986328 10.1L 39.63495635986328 10.1z"></path><g id="SvgjsG4933" data-name="inner-element-group"><g id="SvgjsG4942" data-name="topic-title-text-group"><text id="SvgjsText4941" font-family="'Nunito Sans','Microsoft YaHei','Microsoft JhengHei',sans-serif" font-size="14" font-weight="normal" fill="#ffffff" font-style="normal" text-decoration="none" text-anchor="start" transform="translate(-33.63495635986328 -9.1)" style="user-select: none; cursor: default;"><tspan id="SvgjsTspan5128" font-family="'Nunito Sans','Microsoft YaHei','Microsoft JhengHei',sans-serif" font-size="14" font-weight="normal" fill="#ffffff" font-style="normal" text-decoration="none" dy="14" x="0" style="white-space: pre;">Subtopic 2</tspan></text></g></g></g></g></g><g id="SvgjsG4954" data-name="branch" class="branch" transform="translate(-267.98192596435547 65)"><g id="SvgjsG4947" data-name="topic"><g id="SvgjsG4948" data-name="topic-shape-group"><path id="SvgjsPath4951" data-name="topic-shape-fill" fill="#e8e8e8" stroke="none" opacity="0" d="M -72.14996337890625 -24L 72.14996337890625 -24Q 77.14996337890625 -24  77.14996337890625 -19L 77.14996337890625 19Q 77.14996337890625 24  72.14996337890625 24L -72.14996337890625 24Q -77.14996337890625 24  -77.14996337890625 19L -77.14996337890625 -19Q -77.14996337890625 -24  -72.14996337890625 -24"></path><path id="SvgjsPath4952" data-name="topic-shape" fill="none" stroke="#ffffff" stroke-width="2" d="M -72.14996337890625 -24L 72.14996337890625 -24Q 77.14996337890625 -24  77.14996337890625 -19L 77.14996337890625 19Q 77.14996337890625 24  72.14996337890625 24L -72.14996337890625 24Q -77.14996337890625 24  -77.14996337890625 19L -77.14996337890625 -19Q -77.14996337890625 -24  -72.14996337890625 -24"></path><g id="SvgjsG4949" data-name="inner-element-group"><g id="SvgjsG4984" data-name="topic-title-text-group"><text id="SvgjsText4983" font-family="'Nunito Sans','Microsoft YaHei','Microsoft JhengHei',sans-serif" font-size="20" font-weight="700" fill="#ffffff" font-style="normal" text-decoration="none" text-anchor="start" transform="translate(-58.14996337890625 -13)" style="user-select: none; cursor: default;"><tspan id="SvgjsTspan5129" font-family="'Nunito Sans','Microsoft YaHei','Microsoft JhengHei',sans-serif" font-size="20" font-weight="700" fill="#ffffff" font-style="normal" text-decoration="none" dy="20" x="0" style="white-space: pre;">Main Topic 4</tspan></text></g></g></g><g id="SvgjsG5088" data-name="collapse-extended" class="collapseextend" transform="translate(-97.14996337890625 -6)" style="cursor: pointer; display: none;"><line id="SvgjsLine5089" stroke-width="0" x1="12" y1="6" x2="19" y2="6" stroke="#ffffff"></line><g id="SvgjsG5090"><ellipse id="SvgjsEllipse5091" rx="6" ry="6" cx="6" cy="6" fill="#000000"></ellipse><ellipse id="SvgjsEllipse5092" rx="6" ry="6" cx="6" cy="6" fill="none" stroke="#ffffff"></ellipse><path id="SvgjsPath5093" d="M 2, 6 L 10, 6" stroke="#ffffff"></path></g><g id="SvgjsG5094"><ellipse id="SvgjsEllipse5095" rx="8" ry="8" cx="8" cy="8" fill="#000000"></ellipse><ellipse id="SvgjsEllipse5096" rx="8" ry="8" cx="8" cy="8" fill="none" stroke="#ffffff" stroke-width="1"></ellipse><text id="SvgjsText5097" font-family="Helvetica, Arial, sans-serif" fill="#ffffff" style="user-select: none; cursor: default;"></text></g><ellipse id="SvgjsEllipse5098" rx="8" ry="8" cx="8" cy="8" fill="none" style="pointer-events: visible;"></ellipse></g></g></g><g id="SvgjsG4964" data-name="branch" class="branch" transform="translate(-437.766845703125 40.800000000000004)"><g id="SvgjsG4957" data-name="topic"><g id="SvgjsG4958" data-name="topic-shape-group"><path id="SvgjsPath4961" data-name="topic-shape-fill" opacity="0" d="M -39.63495635986328 -9.1L 39.63495635986328 -9.1L 39.63495635986328 10.1L -39.63495635986328 10.1z"></path><path id="SvgjsPath4962" data-name="topic-shape" fill="none" stroke="#ffffff" stroke-width="2" d="M  -39.63495635986328 10.1L 39.63495635986328 10.1z"></path><g id="SvgjsG4959" data-name="inner-element-group"><g id="SvgjsG4968" data-name="topic-title-text-group"><text id="SvgjsText4967" font-family="'Nunito Sans','Microsoft YaHei','Microsoft JhengHei',sans-serif" font-size="14" font-weight="normal" fill="#ffffff" font-style="normal" text-decoration="none" text-anchor="start" transform="translate(-33.63495635986328 -9.1)" style="user-select: none; cursor: default;"><tspan id="SvgjsTspan5130" font-family="'Nunito Sans','Microsoft YaHei','Microsoft JhengHei',sans-serif" font-size="14" font-weight="normal" fill="#ffffff" font-style="normal" text-decoration="none" dy="14" x="0" style="white-space: pre;">Subtopic 1</tspan></text></g></g></g></g></g><g id="SvgjsG4977" data-name="branch" class="branch" transform="translate(-437.766845703125 69)"><g id="SvgjsG4970" data-name="topic"><g id="SvgjsG4971" data-name="topic-shape-group"><path id="SvgjsPath4974" data-name="topic-shape-fill" opacity="0" d="M -39.63495635986328 -9.1L 39.63495635986328 -9.1L 39.63495635986328 10.1L -39.63495635986328 10.1z"></path><path id="SvgjsPath4975" data-name="topic-shape" fill="none" stroke="#ffffff" stroke-width="2" d="M  -39.63495635986328 10.1L 39.63495635986328 10.1z"></path><g id="SvgjsG4972" data-name="inner-element-group"><g id="SvgjsG4981" data-name="topic-title-text-group"><text id="SvgjsText4980" font-family="'Nunito Sans','Microsoft YaHei','Microsoft JhengHei',sans-serif" font-size="14" font-weight="normal" fill="#ffffff" font-style="normal" text-decoration="none" text-anchor="start" transform="translate(-33.63495635986328 -9.1)" style="user-select: none; cursor: default;"><tspan id="SvgjsTspan5131" font-family="'Nunito Sans','Microsoft YaHei','Microsoft JhengHei',sans-serif" font-size="14" font-weight="normal" fill="#ffffff" font-style="normal" text-decoration="none" dy="14" x="0" style="white-space: pre;">Subtopic 2</tspan></text></g></g></g></g></g><g id="SvgjsG4993" data-name="branch" class="branch" transform="translate(-257.98192596435547 -65)"><g id="SvgjsG4986" data-name="topic"><g id="SvgjsG4987" data-name="topic-shape-group"><path id="SvgjsPath4990" data-name="topic-shape-fill" fill="#e8e8e8" stroke="none" opacity="0" d="M -72.14996337890625 -24L 72.14996337890625 -24Q 77.14996337890625 -24  77.14996337890625 -19L 77.14996337890625 19Q 77.14996337890625 24  72.14996337890625 24L -72.14996337890625 24Q -77.14996337890625 24  -77.14996337890625 19L -77.14996337890625 -19Q -77.14996337890625 -24  -72.14996337890625 -24"></path><path id="SvgjsPath4991" data-name="topic-shape" fill="none" stroke="#ffffff" stroke-width="2" d="M -72.14996337890625 -24L 72.14996337890625 -24Q 77.14996337890625 -24  77.14996337890625 -19L 77.14996337890625 19Q 77.14996337890625 24  72.14996337890625 24L -72.14996337890625 24Q -77.14996337890625 24  -77.14996337890625 19L -77.14996337890625 -19Q -77.14996337890625 -24  -72.14996337890625 -24"></path><g id="SvgjsG4988" data-name="inner-element-group"><g id="SvgjsG5023" data-name="topic-title-text-group"><text id="SvgjsText5022" font-family="'Nunito Sans','Microsoft YaHei','Microsoft JhengHei',sans-serif" font-size="20" font-weight="700" fill="#ffffff" font-style="normal" text-decoration="none" text-anchor="start" transform="translate(-58.14996337890625 -13)" style="user-select: none; cursor: default;"><tspan id="SvgjsTspan5132" font-family="'Nunito Sans','Microsoft YaHei','Microsoft JhengHei',sans-serif" font-size="20" font-weight="700" fill="#ffffff" font-style="normal" text-decoration="none" dy="20" x="0" style="white-space: pre;">Main Topic 3</tspan></text></g></g></g><g id="SvgjsG5099" data-name="collapse-extended" class="collapseextend" transform="translate(-97.14996337890625 -6)" style="cursor: pointer; display: none;"><line id="SvgjsLine5100" stroke-width="0" x1="12" y1="6" x2="19" y2="6" stroke="#ffffff"></line><g id="SvgjsG5101"><ellipse id="SvgjsEllipse5102" rx="6" ry="6" cx="6" cy="6" fill="#000000"></ellipse><ellipse id="SvgjsEllipse5103" rx="6" ry="6" cx="6" cy="6" fill="none" stroke="#ffffff"></ellipse><path id="SvgjsPath5104" d="M 2, 6 L 10, 6" stroke="#ffffff"></path></g><g id="SvgjsG5105"><ellipse id="SvgjsEllipse5106" rx="8" ry="8" cx="8" cy="8" fill="#000000"></ellipse><ellipse id="SvgjsEllipse5107" rx="8" ry="8" cx="8" cy="8" fill="none" stroke="#ffffff" stroke-width="1"></ellipse><text id="SvgjsText5108" font-family="Helvetica, Arial, sans-serif" fill="#ffffff" style="user-select: none; cursor: default;"></text></g><ellipse id="SvgjsEllipse5109" rx="8" ry="8" cx="8" cy="8" fill="none" style="pointer-events: visible;"></ellipse></g></g></g><g id="SvgjsG5003" data-name="branch" class="branch" transform="translate(-427.766845703125 -89.19999999999999)"><g id="SvgjsG4996" data-name="topic"><g id="SvgjsG4997" data-name="topic-shape-group"><path id="SvgjsPath5000" data-name="topic-shape-fill" opacity="0" d="M -39.63495635986328 -9.1L 39.63495635986328 -9.1L 39.63495635986328 10.1L -39.63495635986328 10.1z"></path><path id="SvgjsPath5001" data-name="topic-shape" fill="none" stroke="#ffffff" stroke-width="2" d="M  -39.63495635986328 10.1L 39.63495635986328 10.1z"></path><g id="SvgjsG4998" data-name="inner-element-group"><g id="SvgjsG5007" data-name="topic-title-text-group"><text id="SvgjsText5006" font-family="'Nunito Sans','Microsoft YaHei','Microsoft JhengHei',sans-serif" font-size="14" font-weight="normal" fill="#ffffff" font-style="normal" text-decoration="none" text-anchor="start" transform="translate(-33.63495635986328 -9.1)" style="user-select: none; cursor: default;"><tspan id="SvgjsTspan5133" font-family="'Nunito Sans','Microsoft YaHei','Microsoft JhengHei',sans-serif" font-size="14" font-weight="normal" fill="#ffffff" font-style="normal" text-decoration="none" dy="14" x="0" style="white-space: pre;">Subtopic 1</tspan></text></g></g></g></g></g><g id="SvgjsG5016" data-name="branch" class="branch" transform="translate(-427.766845703125 -61)"><g id="SvgjsG5009" data-name="topic"><g id="SvgjsG5010" data-name="topic-shape-group"><path id="SvgjsPath5013" data-name="topic-shape-fill" opacity="0" d="M -39.63495635986328 -9.1L 39.63495635986328 -9.1L 39.63495635986328 10.1L -39.63495635986328 10.1z"></path><path id="SvgjsPath5014" data-name="topic-shape" fill="none" stroke="#ffffff" stroke-width="2" d="M  -39.63495635986328 10.1L 39.63495635986328 10.1z"></path><g id="SvgjsG5011" data-name="inner-element-group"><g id="SvgjsG5020" data-name="topic-title-text-group"><text id="SvgjsText5019" font-family="'Nunito Sans','Microsoft YaHei','Microsoft JhengHei',sans-serif" font-size="14" font-weight="normal" fill="#ffffff" font-style="normal" text-decoration="none" text-anchor="start" transform="translate(-33.63495635986328 -9.1)" style="user-select: none; cursor: default;"><tspan id="SvgjsTspan5134" font-family="'Nunito Sans','Microsoft YaHei','Microsoft JhengHei',sans-serif" font-size="14" font-weight="normal" fill="#ffffff" font-style="normal" text-decoration="none" dy="14" x="0" style="white-space: pre;">Subtopic 2</tspan></text></g></g></g></g></g></g><g id="SvgjsG4842" data-name="relationship-container"><g id="SvgjsG5045" data-name="relationship" class="relationship"><path id="SvgjsPath5046" data-name="relationship-path" clip-path="url(&quot;#SvgjsClipPath5064&quot;)" style="fill: none;" stroke-dasharray="" stroke="#fc3064" stroke-width="4" marker-start="url(#SvgjsMarker5135)" marker-end="url(#SvgjsMarker5137)" d="M -493.9636509054367 28.249912032721728C -520.9809512120555 21.99432524386124  -519.6038196232648 -67.29637318939562  -483.9588280058078 -75.59673580538278"></path><path id="SvgjsPath5048" data-name="relationship-shadow-action-path" stroke="none" stroke-width="14" style="stroke-opacity: 0; stroke: none; fill: none;" d="M -493.9636509054367 28.249912032721728C -520.9809512120555 21.99432524386124  -519.6038196232648 -67.29637318939562  -483.9588280058078 -75.59673580538278"></path><text id="SvgjsText5049" font-family="'Nunito Sans','Microsoft YaHei','Microsoft JhengHei',sans-serif" data-name="relationship-title" style="user-select: none; cursor: default; pointer-events: none; display: none;" font-size="12" font-weight="normal" font-style="italic" text-decoration="none" fill="#fc3064" x="-512.2523193359375" y="-152.66436195373535"><tspan id="SvgjsTspan5149" style="white-space: pre;">Relationship</tspan></text></g></g><g id="SvgjsG4845" data-name="cloneG" opacity="0.5"></g></g></g><defs id="SvgjsDefs4834"><rect id="SvgjsRect5061" width="437.0221252441406" height="503.8466491699219" fill="white" x="-720.98095703125" y="-275.5967330932617"></rect><rect id="SvgjsRect5062" width="0" height="0" fill="black" style="display: none;"></rect><clipPath id="SvgjsClipPath5064" style="display: none;"><path id="SvgjsPath5063" d="M -720.98095703125 -275.59674072265625 L-283.9588317871094 -275.59674072265625 L-283.9588317871094 228.24990844726562 L-720.98095703125 228.24990844726562 M 0 0 L0 0 L0 0 L0 0" fill="black" clip-rule="evenodd"></path></clipPath><clipPath id="SvgjsClipPath5111"><path id="SvgjsPath5110" d="M -122.83196258544922 -37.8L 122.83196258544922 -37.8Q 127.83196258544922 -37.8  127.83196258544922 -32.8L 127.83196258544922 32.8Q 127.83196258544922 37.8  122.83196258544922 37.8L -122.83196258544922 37.8Q -127.83196258544922 37.8  -127.83196258544922 32.8L -127.83196258544922 -32.8Q -127.83196258544922 -37.8  -122.83196258544922 -37.8 M -10000 -10000 L10000 -10000 L10000 10000 L-10000 10000" fill="black" clip-rule="evenodd" transform="translate(0 0) "></path></clipPath><marker id="SvgjsMarker5114" markerWidth="8" markerHeight="8" refX="5" refY="4" viewBox="0 0 8 8" orient="auto"><path id="SvgjsPath5115" d="" stroke="#2a7ac2" stroke-width="1" stroke-dasharray="none" fill="none"></path></marker><marker id="SvgjsMarker5116" markerWidth="8" markerHeight="8" refX="2" refY="4" viewBox="0 0 8 8" orient="auto"><path id="SvgjsPath5117" d="M 2 2 L 6 4 L 2 6" stroke-width="0" stroke-dasharray="none" stroke="#2a7ac2" fill="#2a7ac2"></path></marker><marker id="SvgjsMarker5135" markerWidth="8" markerHeight="8" refX="6" refY="4" viewBox="0 0 8 8" orient="auto"><path id="SvgjsPath5136" d="M 4 2 A 2 2 0 1 1 4 6 A 2 2 0 1 1 4 2 Z" stroke-width="0" stroke-dasharray="none" stroke="#fc3064" fill="#fc3064"></path></marker><marker id="SvgjsMarker5137" markerWidth="8" markerHeight="8" refX="2" refY="4" viewBox="0 0 8 8" orient="auto"><path id="SvgjsPath5138" d="M 2 2 L 6 4 L 2 6" stroke-width="0" stroke-dasharray="none" stroke="#fc3064" fill="#fc3064"></path></marker><clipPath id="SvgjsClipPath5147"><path id="SvgjsPath5146" d="M -8.786834716796875 12.100000000000009 L7.213165283203125 12.100000000000009 L7.213165283203125 12.100000000000009 L-8.786834716796875 12.100000000000009 M -10000 -10000 L10000 -10000 L10000 10000 L-10000 10000" fill="black" clip-rule="evenodd"></path></clipPath></defs></svg>