<svg xmlns="http://www.w3.org/2000/svg" xmlns:xlink="http://www.w3.org/1999/xlink" width="85" height="67" viewBox="0 0 85 67">
    <defs>
        <path id="a" d="M28.682 51h14.635a3 3 0 0 1 2.905 2.25l2.582 10A3 3 0 0 1 45.9 67H26.1a3 3 0 0 1-2.905-3.75l2.582-10A3 3 0 0 1 28.682 51z"/>
        <path id="b" d="M74 36.05V47a5 5 0 0 1-5 5H5a5 5 0 0 1-5-5V5a5 5 0 0 1 5-5h64a5 5 0 0 1 5 5"/>
        <path id="c" d="M0 38h74v9a5 5 0 0 1-5 5H5.76A5.76 5.76 0 0 1 0 46.24V38z"/>
    </defs>
    <g fill="none" fill-rule="evenodd">
        <g>
            <use fill="#EEEEF0" xlink:href="#a"/>
            <path stroke="#434B54" stroke-width="1.5" d="M28.682 51.75a2.25 2.25 0 0 0-2.178 1.687l-2.583 10A2.25 2.25 0 0 0 26.1 66.25h19.8a2.25 2.25 0 0 0 2.178-2.813l-2.582-10a2.25 2.25 0 0 0-2.179-1.687H28.682z"/>
            <use fill="#EEEEF0" xlink:href="#b"/>
            <path stroke="#434B54" stroke-width="1.5" d="M73.25 47V5A4.25 4.25 0 0 0 69 .75H5A4.25 4.25 0 0 0 .75 5v42A4.25 4.25 0 0 0 5 51.25h64A4.25 4.25 0 0 0 73.25 47z"/>
            <g>
                <use fill="#EEEEF0" xlink:href="#c"/>
                <path stroke="#434B54" stroke-width="1.5" d="M.75 38.75v7.49a5.01 5.01 0 0 0 5.01 5.01H69A4.25 4.25 0 0 0 73.25 47v-8.25H.75z"/>
            </g>
            <ellipse cx="37.077" cy="45.694" fill="#434B54" rx="1.5" ry="1.503"/>
        </g>
        <g fill="#434B54" fill-rule="nonzero">
            <path d="M63.495 15.043c-2.337 4.108-.851 10.341 1.733 14.121 1.29 1.89 2.596 3.586 4.385 3.586.034 0 .068 0 .102-.002.84-.034 1.448-.296 2.036-.55.659-.284 1.34-.578 2.41-.578 1.018 0 1.667.284 2.295.56.619.27 1.256.551 2.198.534 2.015-.038 3.252-1.869 4.344-3.484a15.528 15.528 0 0 0 1.903-3.948l.008-.025a.23.23 0 0 0-.12-.281l-.017-.008c-.355-.146-3.467-1.545-3.5-5.357-.03-3.097 2.335-4.737 2.81-5.035l.021-.014a.23.23 0 0 0 .065-.322c-1.633-2.42-4.135-2.785-5.143-2.829a4.479 4.479 0 0 0-.449-.022c-1.183 0-2.317.453-3.227.817-.629.25-1.172.468-1.547.468-.42 0-.966-.22-1.599-.474-.845-.34-1.804-.725-2.819-.725h-.071c-2.36.036-4.589 1.403-5.818 3.568z"/>
            <path d="M79.027 4.75c-1.429.06-3.142.95-4.167 2.165-.87 1.022-1.72 2.725-1.497 4.442.014.107.1.19.207.198.097.008.195.012.293.012 1.397 0 2.904-.783 3.933-2.044 1.084-1.33 1.631-3.039 1.466-4.569a.229.229 0 0 0-.235-.204z"/>
        </g>
    </g>
</svg>
