<?xml version="1.0" encoding="UTF-8"?>
<svg width="116px" height="97px" viewBox="0 0 116 97" version="1.1" xmlns="http://www.w3.org/2000/svg" xmlns:xlink="http://www.w3.org/1999/xlink">
    <!-- Generator: Sketch 46.1 (44463) - http://www.bohemiancoding.com/sketch -->
    <title>no_format</title>
    <desc>Created with Sketch.</desc>
    <defs></defs>
    <g id="Page-4" stroke="none" stroke-width="1" fill="none" fill-rule="evenodd">
        <g id="Illustration" transform="translate(-1570.000000, -1044.000000)" stroke-width="2">
            <g id="Group-7-Copy-2" transform="translate(1514.000000, 760.000000)">
                <g id="no_format" transform="translate(57.000000, 285.000000)">
                    <g id="Group-3-Copy" stroke="#E6E7E8" stroke-linecap="round">
                        <path d="M10.1986009,10.020555 C10.1788427,9.76639257 10.1687674,9.50931646 10.1687674,9.24974306 C10.1687674,4.14125103 14.0710921,0 18.8848537,0 C23.6986152,0 27.60094,4.14125103 27.60094,9.24974306 C27.60094,9.50931646 27.5908647,9.76639257 27.5711064,10.020555 M10.1986009,10.020555 L10.1986009,10.020555 M27.6458959,10.020555 C27.6162246,9.76804144 27.60094,9.5107865 27.60094,9.24974306 C27.60094,5.84408171 30.2024898,3.08324769 33.4116642,3.08324769 C36.6208385,3.08324769 39.2223884,5.84408171 39.2223884,9.24974306 C39.2223884,9.5107865 39.2071038,9.76804144 39.1774324,10.020555 M27.6458959,10.020555 L27.6458959,10.020555 L27.6458959,10.020555" id="Combined-Shape"></path>
                        <path d="M10.1687674,11 L0,11" id="Rectangle-6" fill="#D8D8D8"></path>
                        <path d="M49.3911557,11 L39.2223884,11" id="Rectangle-6-Copy" fill="#D8D8D8"></path>
                    </g>
                    <g id="Group-24" transform="translate(7.000000, 65.000000)" stroke="#D1D1D1" stroke-linecap="round">
                        <path d="M0.783608967,0.278573533 C6.37474866,6.24009702 11.669204,10.243975 16.666975,12.2902075 C21.6647459,14.3364399 27.7936794,15.5327185 35.0537754,15.879043" id="Path-2"></path>
                        <path d="M16.9546159,6.50889239 C18.3709564,7.63032252 20.1549957,8.56285579 22.3067338,9.30649221 C24.4584718,10.0501286 26.5830757,10.4219468 28.6805455,10.4219468" id="Path-26"></path>
                    </g>
                    <g id="Group-27" transform="translate(13.000000, 21.000000)">
                        <path d="M44.2014544,44.03411 C44.2135585,44.3736789 44.2254845,44.7355395 44.2368538,45.1153709 C44.2818704,46.619311 44.3099074,48.1192172 44.3126543,49.5215125 C44.3167256,51.5999345 44.2649282,53.2883108 44.1425887,54.4664336 C44.003772,55.8032305 43.730893,57.5090013 43.3502905,59.5026843 C43.2203148,60.1835267 43.0792061,60.890125 42.9286478,61.616897 C42.6433219,62.9942164 42.3378047,64.379257 42.0322852,65.7044774 C42.0135,65.7859601 41.9949495,65.8661935 41.9766476,65.9451318 C43.9261713,65.6896736 46.0349102,65.7203636 48.1277631,66.2090062 C48.6928184,66.3409362 49.228021,66.4847299 49.984572,66.7016621 C51.8293071,67.2306183 51.8967757,67.2491985 52.5517118,67.3883619 C54.6163727,67.8270692 56.2361869,67.6788394 58.1927674,66.692374 C60.1416167,65.7098064 61.7543904,65.7844385 65.5791561,66.5474013 C66.2306624,66.6773636 66.55994,66.7409577 66.9380601,66.8074393 C69.4624845,67.251287 71.0716969,67.1603508 72.5192037,66.3061081 C75.0291705,64.8259198 77.252006,64.5805205 79.088437,65.1933418 C78.8371009,63.9087951 78.5870174,62.5863349 78.3522112,61.2839753 C78.2492008,60.7126246 78.1510425,60.1555082 78.0584336,59.615495 C77.6843716,57.4342978 77.4140749,55.6125522 77.275806,54.2608775 C77.1563183,53.092801 77.0801699,51.5166347 77.0396658,49.6269127 C77.0002171,47.786427 76.9973966,45.8313515 77.0166335,44.0053935 L44.2014544,44.03411 Z M44.1397313,40.6123518 L77.010508,40.5799746 L77.0142443,34.6995685 C77.0164911,32.5059567 75.2331096,30.7238631 73.0376577,30.7281884 L66.0034494,30.7353932 L66.078557,29.6643408 C66.6418362,21.6318379 67.0735343,13.8525677 67.0691708,12.3097354 C67.0773283,8.73767265 64.1866122,5.84974304 60.6109486,5.85340526 C57.0369939,5.85481391 54.1321546,8.75686707 54.1262395,12.3244878 C54.1307112,13.9008203 54.539144,21.7201296 55.0577779,29.6482052 L55.1269629,30.7057976 L54.0671376,30.7134569 L48.1371149,30.7562936 C45.9358732,30.7585483 44.1479319,32.5439185 44.14568,34.7425219 L44.1397313,40.6123518 Z M60.3798315,15.9951201 C58.7229772,15.9951201 57.3798315,14.6519744 57.3798315,12.9951201 C57.3798315,11.3382659 58.7229772,9.99512013 60.3798315,9.99512013 C62.0366857,9.99512013 63.3798315,11.3382659 63.3798315,12.9951201 C63.3798315,14.6519744 62.0366857,15.9951201 60.3798315,15.9951201 Z" id="Combined-Shape" stroke="#989CA2" transform="translate(60.576908, 36.737823) rotate(-315.000000) translate(-60.576908, -36.737823) "></path>
                        <g id="Group-21" transform="translate(0.000000, 73.000000)" stroke="#D1D1D1" stroke-linecap="round">
                            <path d="M0.919319181,1 L100.919319,1" id="Path-32"></path>
                        </g>
                    </g>
                </g>
            </g>
        </g>
    </g>
</svg>