<?xml version="1.0" standalone="no"?><!DOCTYPE svg PUBLIC "-//W3C//DTD SVG 1.1//EN" "http://www.w3.org/Graphics/SVG/1.1/DTD/svg11.dtd" [<!ENTITY nbsp "&#160;">]><svg id="SvgjsSvg6475" xmlns="http://www.w3.org/2000/svg" version="1.1" width="228" height="140" xmlns:xlink="http://www.w3.org/1999/xlink" style="display: block; background-color: rgb(239, 248, 250);" viewBox="0 0 526.8362703323364 323.4959554672241"><defs><style type="text/css"><![CDATA[

]]></style></defs><g id="SvgjsG6477" data-name="container" transform="scale(1) translate(230.57324266433716 78.24797773361206)"><g id="SvgjsG6483" data-name="sheet"><g id="SvgjsG6484" data-name="matrix-container"></g><g id="SvgjsG6485" data-name="boundary-container"><g id="SvgjsG6538" data-name="boundary-group" class="boundary"><path id="SvgjsPath6539" data-name="boundary-path" stroke="#6eb5e2" fill="#e3f2fc" stroke-width="1" fill-opacity="0.2" stroke-dasharray="9, 3" d="M -187.46638870239258 144.6L -31.768497467041016 144.6Q -11.768497467041016 144.6 -11.768497467041016 164.6L -11.768497467041016 177.6Q -11.768497467041016 197.6 -31.768497467041016 197.6L -187.46638870239258 197.6Q -207.46638870239258 197.6 -207.46638870239258 177.6L -207.46638870239258 164.6Q -207.46638870239258 144.6 -187.46638870239258 144.6z"></path><g id="SvgjsG6541" data-name="boundary-title-group" transform="translate(-212.46638870239258 139.6)" style="display: none;"><rect id="SvgjsRect6543" data-name="boundary-title-bg" stroke="#6eb5e2" fill="#e3f2fc" stroke-width="1"></rect><text id="SvgjsText6542" font-family="Helvetica, Arial, sans-serif" data-name="boundary-title" style="user-select: none; cursor: default;"></text></g></g></g><g id="SvgjsG6486" data-name="connection-container"><path id="SvgjsPath6500" data-name="connection" stroke-linecap="round"></path><path id="SvgjsPath6510" data-name="connection" stroke-linecap="round" stroke="#a7b7c7" stroke-width="1" d="M 0 30.6L 0 43.6L -102.34894561767578 43.6Q -110.34894561767578 43.6 -110.34894561767578 51.6L -110.34894561767578 81.6" marker-end="none" fill="none"></path><path id="SvgjsPath6520" data-name="connection" stroke-linecap="round" stroke="#a7b7c7" stroke-width="1" d="M -110.34894561767578 118.6L -110.34894561767578 131.6L -155.77341842651367 131.6L -155.77341842651367 155.6" marker-end="none" fill="none"></path><path id="SvgjsPath6533" data-name="connection" stroke-linecap="round" stroke="#a7b7c7" stroke-width="1" d="M -110.34894561767578 118.6L -110.34894561767578 131.6L -64.92447280883789 131.6L -64.92447280883789 155.6" marker-end="none" fill="none"></path><path id="SvgjsPath6567" data-name="connection" stroke-linecap="round" stroke="#a7b7c7" stroke-width="1" d="M 0 30.6L 0 43.6L 102.34894561767578 43.6Q 110.34894561767578 43.6 110.34894561767578 51.6L 110.34894561767578 81.6" marker-end="none" fill="none"></path><path id="SvgjsPath6577" data-name="connection" stroke-linecap="round" stroke="#a7b7c7" stroke-width="1" d="M 110.34894561767578 118.6L 110.34894561767578 131.6L 64.92447280883789 131.6L 64.92447280883789 145.6" marker-end="none" fill="none"></path><path id="SvgjsPath6590" data-name="connection" stroke-linecap="round" stroke="#a7b7c7" stroke-width="1" d="M 110.34894561767578 118.6L 110.34894561767578 131.6L 155.77341842651367 131.6L 155.77341842651367 145.6" marker-end="none" fill="none"></path></g><g id="SvgjsG6487" data-name="branch-container"><g id="SvgjsG6499" data-name="branch" class="branch"><g id="SvgjsG6492" data-name="topic"><g id="SvgjsG6493" data-name="topic-shape-group"><path id="SvgjsPath6496" data-name="topic-shape-fill" fill="#ffffff" stroke="none" opacity="1" d="M -109.45995330810547 -30.6L 109.45995330810547 -30.6L 109.45995330810547 30.6L -109.45995330810547 30.6z"></path><path id="SvgjsPath6497" data-name="topic-shape" fill="none" stroke-width="0" d="M -109.45995330810547 -30.6L 109.45995330810547 -30.6L 109.45995330810547 30.6L -109.45995330810547 30.6z"></path><g id="SvgjsG6494" data-name="inner-element-group"><g id="SvgjsG6599" data-name="topic-title-text-group"><text id="SvgjsText6598" font-family="'Montserrat','Nunito Sans','Microsoft YaHei','Microsoft JhengHei',sans-serif" font-size="24" font-weight="700" fill="#44556e" font-style="normal" text-decoration="none" text-anchor="middle" transform="translate(0 -15.600000000000001)" style="user-select: none; cursor: default;"><tspan id="SvgjsTspan6648" font-family="'Montserrat','Nunito Sans','Microsoft YaHei','Microsoft JhengHei',sans-serif" font-size="24" font-weight="700" fill="#44556e" font-style="normal" text-decoration="none" dy="24" x="0" style="white-space: pre;">Central Topic</tspan></text></g></g></g></g></g><g id="SvgjsG6509" data-name="branch" class="branch" transform="translate(-110.34894561767578 99.6)"><g id="SvgjsG6502" data-name="topic"><g id="SvgjsG6503" data-name="topic-shape-group"><path id="SvgjsPath6506" data-name="topic-shape-fill" fill="#ffffff" stroke="none" opacity="1" d="M -54.74394989013672 -7.666666666666668Q -54.74394989013672 -12.666666666666668 -49.87264683503385 -13.793789794521572Q 0 -25.333333333333336 49.87264683503385 -13.793789794521572Q 54.74394989013672 -12.666666666666668 54.74394989013672 -7.666666666666668L 54.74394989013672 7.666666666666668Q 54.74394989013672 12.666666666666668 49.87264683503385 13.793789794521572Q 0 25.333333333333336 -49.87264683503385 13.793789794521572Q -54.74394989013672 12.666666666666668 -54.74394989013672 7.666666666666668Z"></path><path id="SvgjsPath6507" data-name="topic-shape" fill="none" stroke-width="0" d="M -54.74394989013672 -7.666666666666668Q -54.74394989013672 -12.666666666666668 -49.87264683503385 -13.793789794521572Q 0 -25.333333333333336 49.87264683503385 -13.793789794521572Q 54.74394989013672 -12.666666666666668 54.74394989013672 -7.666666666666668L 54.74394989013672 7.666666666666668Q 54.74394989013672 12.666666666666668 49.87264683503385 13.793789794521572Q 0 25.333333333333336 -49.87264683503385 13.793789794521572Q -54.74394989013672 12.666666666666668 -54.74394989013672 7.666666666666668Z"></path><g id="SvgjsG6504" data-name="inner-element-group"><g id="SvgjsG6557" data-name="topic-title-text-group"><text id="SvgjsText6556" font-family="'Montserrat','Nunito Sans','Microsoft YaHei','Microsoft JhengHei',sans-serif" font-size="12" font-weight="700" fill="#44556e" font-style="normal" text-decoration="none" text-anchor="start" transform="translate(-36.74394989013672 -7.800000000000001)" style="user-select: none; cursor: default;"><tspan id="SvgjsTspan6649" font-family="'Montserrat','Nunito Sans','Microsoft YaHei','Microsoft JhengHei',sans-serif" font-size="12" font-weight="700" fill="#44556e" font-style="normal" text-decoration="none" dy="12" x="0" style="white-space: pre;">Main Topic 1</tspan></text></g></g></g><g id="SvgjsG6621" data-name="collapse-extended" class="collapseextend" transform="translate(-6 26)" style="cursor: pointer; display: none;"><line id="SvgjsLine6622" stroke-width="0" x1="6" y1="0" x2="6" y2="-7" stroke="#a7b7c7"></line><g id="SvgjsG6623"><ellipse id="SvgjsEllipse6624" rx="6" ry="6" cx="6" cy="6" fill="#eff8fa"></ellipse><ellipse id="SvgjsEllipse6625" rx="6" ry="6" cx="6" cy="6" fill="none" stroke="#a7b7c7"></ellipse><path id="SvgjsPath6626" d="M 2, 6 L 10, 6" stroke="#a7b7c7"></path></g><g id="SvgjsG6627"><ellipse id="SvgjsEllipse6628" rx="8" ry="8" cx="8" cy="8" fill="#eff8fa"></ellipse><ellipse id="SvgjsEllipse6629" rx="8" ry="8" cx="8" cy="8" fill="none" stroke="#a7b7c7" stroke-width="1"></ellipse><text id="SvgjsText6630" font-family="Helvetica, Arial, sans-serif" fill="#a7b7c7" style="user-select: none; cursor: default;"></text></g><ellipse id="SvgjsEllipse6631" rx="8" ry="8" cx="8" cy="8" fill="none" style="pointer-events: visible;"></ellipse></g></g></g><g id="SvgjsG6519" data-name="branch" class="branch" transform="translate(-155.77341842651367 171.1)"><g id="SvgjsG6512" data-name="topic"><g id="SvgjsG6513" data-name="topic-shape-group"><path id="SvgjsPath6516" data-name="topic-shape-fill" opacity="0" d="M -41.692970275878906 -6Q -41.692970275878906 -11 -36.858402361595225 -12.275520710211607Q 0 -22 36.858402361595225 -12.275520710211607Q 41.692970275878906 -11 41.692970275878906 -6L 41.692970275878906 6Q 41.692970275878906 11 36.858402361595225 12.275520710211607Q 0 22 -36.858402361595225 12.275520710211607Q -41.692970275878906 11 -41.692970275878906 6Z"></path><path id="SvgjsPath6517" data-name="topic-shape" fill="none" stroke-width="0" d="M -41.692970275878906 -6Q -41.692970275878906 -11 -36.858402361595225 -12.275520710211607Q 0 -22 36.858402361595225 -12.275520710211607Q 41.692970275878906 -11 41.692970275878906 -6L 41.692970275878906 6Q 41.692970275878906 11 36.858402361595225 12.275520710211607Q 0 22 -36.858402361595225 12.275520710211607Q -41.692970275878906 11 -41.692970275878906 6Z"></path><g id="SvgjsG6514" data-name="inner-element-group"><g id="SvgjsG6523" data-name="topic-title-text-group"><text id="SvgjsText6522" font-family="'Montserrat','Nunito Sans','Microsoft YaHei','Microsoft JhengHei',sans-serif" font-size="14" font-weight="normal" fill="#44556e" font-style="normal" text-decoration="none" text-anchor="start" transform="translate(-35.692970275878906 -9.1)" style="user-select: none; cursor: default;"><tspan id="SvgjsTspan6650" font-family="'Montserrat','Nunito Sans','Microsoft YaHei','Microsoft JhengHei',sans-serif" font-size="14" font-weight="normal" fill="#44556e" font-style="normal" text-decoration="none" dy="14" x="0" style="white-space: pre;">Subtopic 1</tspan></text></g></g></g></g></g><g id="SvgjsG6532" data-name="branch" class="branch" transform="translate(-64.92447280883789 171.1)"><g id="SvgjsG6525" data-name="topic"><g id="SvgjsG6526" data-name="topic-shape-group"><path id="SvgjsPath6529" data-name="topic-shape-fill" opacity="0" d="M -43.155975341796875 -6Q -43.155975341796875 -11 -38.31088808133336 -12.2349613105252Q 0 -22 38.31088808133336 -12.2349613105252Q 43.155975341796875 -11 43.155975341796875 -6L 43.155975341796875 6Q 43.155975341796875 11 38.31088808133336 12.2349613105252Q 0 22 -38.31088808133336 12.2349613105252Q -43.155975341796875 11 -43.155975341796875 6Z"></path><path id="SvgjsPath6530" data-name="topic-shape" fill="none" stroke-width="0" d="M -43.155975341796875 -6Q -43.155975341796875 -11 -38.31088808133336 -12.2349613105252Q 0 -22 38.31088808133336 -12.2349613105252Q 43.155975341796875 -11 43.155975341796875 -6L 43.155975341796875 6Q 43.155975341796875 11 38.31088808133336 12.2349613105252Q 0 22 -38.31088808133336 12.2349613105252Q -43.155975341796875 11 -43.155975341796875 6Z"></path><g id="SvgjsG6527" data-name="inner-element-group"><g id="SvgjsG6536" data-name="topic-title-text-group"><text id="SvgjsText6535" font-family="'Montserrat','Nunito Sans','Microsoft YaHei','Microsoft JhengHei',sans-serif" font-size="14" font-weight="normal" fill="#44556e" font-style="normal" text-decoration="none" text-anchor="start" transform="translate(-37.155975341796875 -9.1)" style="user-select: none; cursor: default;"><tspan id="SvgjsTspan6651" font-family="'Montserrat','Nunito Sans','Microsoft YaHei','Microsoft JhengHei',sans-serif" font-size="14" font-weight="normal" fill="#44556e" font-style="normal" text-decoration="none" dy="14" x="0" style="white-space: pre;">Subtopic 2</tspan></text></g></g></g></g></g><g id="SvgjsG6566" data-name="branch" class="branch" transform="translate(110.34894561767578 99.6)"><g id="SvgjsG6559" data-name="topic"><g id="SvgjsG6560" data-name="topic-shape-group"><path id="SvgjsPath6563" data-name="topic-shape-fill" fill="#ffffff" stroke="none" opacity="1" d="M -55.949951171875 -7.666666666666668Q -55.949951171875 -12.666666666666668 -51.07336127307554 -13.770691557204502Q 0 -25.333333333333336 51.07336127307554 -13.770691557204502Q 55.949951171875 -12.666666666666668 55.949951171875 -7.666666666666668L 55.949951171875 7.666666666666668Q 55.949951171875 12.666666666666668 51.07336127307554 13.770691557204502Q 0 25.333333333333336 -51.07336127307554 13.770691557204502Q -55.949951171875 12.666666666666668 -55.949951171875 7.666666666666668Z"></path><path id="SvgjsPath6564" data-name="topic-shape" fill="none" stroke-width="0" d="M -55.949951171875 -7.666666666666668Q -55.949951171875 -12.666666666666668 -51.07336127307554 -13.770691557204502Q 0 -25.333333333333336 51.07336127307554 -13.770691557204502Q 55.949951171875 -12.666666666666668 55.949951171875 -7.666666666666668L 55.949951171875 7.666666666666668Q 55.949951171875 12.666666666666668 51.07336127307554 13.770691557204502Q 0 25.333333333333336 -51.07336127307554 13.770691557204502Q -55.949951171875 12.666666666666668 -55.949951171875 7.666666666666668Z"></path><g id="SvgjsG6561" data-name="inner-element-group"><g id="SvgjsG6596" data-name="topic-title-text-group"><text id="SvgjsText6595" font-family="'Montserrat','Nunito Sans','Microsoft YaHei','Microsoft JhengHei',sans-serif" font-size="12" font-weight="700" fill="#44556e" font-style="normal" text-decoration="none" text-anchor="start" transform="translate(-37.949951171875 -7.800000000000001)" style="user-select: none; cursor: default;"><tspan id="SvgjsTspan6652" font-family="'Montserrat','Nunito Sans','Microsoft YaHei','Microsoft JhengHei',sans-serif" font-size="12" font-weight="700" fill="#44556e" font-style="normal" text-decoration="none" dy="12" x="0" style="white-space: pre;">Main Topic 2</tspan></text></g></g></g><g id="SvgjsG6632" data-name="collapse-extended" class="collapseextend" transform="translate(-6 26)" style="cursor: pointer; display: none;"><line id="SvgjsLine6633" stroke-width="0" x1="6" y1="0" x2="6" y2="-7" stroke="#a7b7c7"></line><g id="SvgjsG6634"><ellipse id="SvgjsEllipse6635" rx="6" ry="6" cx="6" cy="6" fill="#eff8fa"></ellipse><ellipse id="SvgjsEllipse6636" rx="6" ry="6" cx="6" cy="6" fill="none" stroke="#a7b7c7"></ellipse><path id="SvgjsPath6637" d="M 2, 6 L 10, 6" stroke="#a7b7c7"></path></g><g id="SvgjsG6638"><ellipse id="SvgjsEllipse6639" rx="8" ry="8" cx="8" cy="8" fill="#eff8fa"></ellipse><ellipse id="SvgjsEllipse6640" rx="8" ry="8" cx="8" cy="8" fill="none" stroke="#a7b7c7" stroke-width="1"></ellipse><text id="SvgjsText6641" font-family="Helvetica, Arial, sans-serif" fill="#a7b7c7" style="user-select: none; cursor: default;"></text></g><ellipse id="SvgjsEllipse6642" rx="8" ry="8" cx="8" cy="8" fill="none" style="pointer-events: visible;"></ellipse></g></g></g><g id="SvgjsG6576" data-name="branch" class="branch" transform="translate(64.92447280883789 161.1)"><g id="SvgjsG6569" data-name="topic"><g id="SvgjsG6570" data-name="topic-shape-group"><path id="SvgjsPath6573" data-name="topic-shape-fill" opacity="0" d="M -41.692970275878906 -6Q -41.692970275878906 -11 -36.858402361595225 -12.275520710211607Q 0 -22 36.858402361595225 -12.275520710211607Q 41.692970275878906 -11 41.692970275878906 -6L 41.692970275878906 6Q 41.692970275878906 11 36.858402361595225 12.275520710211607Q 0 22 -36.858402361595225 12.275520710211607Q -41.692970275878906 11 -41.692970275878906 6Z"></path><path id="SvgjsPath6574" data-name="topic-shape" fill="none" stroke-width="0" d="M -41.692970275878906 -6Q -41.692970275878906 -11 -36.858402361595225 -12.275520710211607Q 0 -22 36.858402361595225 -12.275520710211607Q 41.692970275878906 -11 41.692970275878906 -6L 41.692970275878906 6Q 41.692970275878906 11 36.858402361595225 12.275520710211607Q 0 22 -36.858402361595225 12.275520710211607Q -41.692970275878906 11 -41.692970275878906 6Z"></path><g id="SvgjsG6571" data-name="inner-element-group"><g id="SvgjsG6580" data-name="topic-title-text-group"><text id="SvgjsText6579" font-family="'Montserrat','Nunito Sans','Microsoft YaHei','Microsoft JhengHei',sans-serif" font-size="14" font-weight="normal" fill="#44556e" font-style="normal" text-decoration="none" text-anchor="start" transform="translate(-35.692970275878906 -9.1)" style="user-select: none; cursor: default;"><tspan id="SvgjsTspan6653" font-family="'Montserrat','Nunito Sans','Microsoft YaHei','Microsoft JhengHei',sans-serif" font-size="14" font-weight="normal" fill="#44556e" font-style="normal" text-decoration="none" dy="14" x="0" style="white-space: pre;">Subtopic 1</tspan></text></g></g></g></g></g><g id="SvgjsG6589" data-name="branch" class="branch" transform="translate(155.77341842651367 161.1)"><g id="SvgjsG6582" data-name="topic"><g id="SvgjsG6583" data-name="topic-shape-group"><path id="SvgjsPath6586" data-name="topic-shape-fill" opacity="0" d="M -43.155975341796875 -6Q -43.155975341796875 -11 -38.31088808133336 -12.2349613105252Q 0 -22 38.31088808133336 -12.2349613105252Q 43.155975341796875 -11 43.155975341796875 -6L 43.155975341796875 6Q 43.155975341796875 11 38.31088808133336 12.2349613105252Q 0 22 -38.31088808133336 12.2349613105252Q -43.155975341796875 11 -43.155975341796875 6Z"></path><path id="SvgjsPath6587" data-name="topic-shape" fill="none" stroke-width="0" d="M -43.155975341796875 -6Q -43.155975341796875 -11 -38.31088808133336 -12.2349613105252Q 0 -22 38.31088808133336 -12.2349613105252Q 43.155975341796875 -11 43.155975341796875 -6L 43.155975341796875 6Q 43.155975341796875 11 38.31088808133336 12.2349613105252Q 0 22 -38.31088808133336 12.2349613105252Q -43.155975341796875 11 -43.155975341796875 6Z"></path><g id="SvgjsG6584" data-name="inner-element-group"><g id="SvgjsG6593" data-name="topic-title-text-group"><text id="SvgjsText6592" font-family="'Montserrat','Nunito Sans','Microsoft YaHei','Microsoft JhengHei',sans-serif" font-size="14" font-weight="normal" fill="#44556e" font-style="normal" text-decoration="none" text-anchor="start" transform="translate(-37.155975341796875 -9.1)" style="user-select: none; cursor: default;"><tspan id="SvgjsTspan6654" font-family="'Montserrat','Nunito Sans','Microsoft YaHei','Microsoft JhengHei',sans-serif" font-size="14" font-weight="normal" fill="#44556e" font-style="normal" text-decoration="none" dy="14" x="0" style="white-space: pre;">Subtopic 2</tspan></text></g></g></g></g></g></g><g id="SvgjsG6488" data-name="relationship-container"><g id="SvgjsG6600" data-name="relationship" class="relationship"><path id="SvgjsPath6601" data-name="relationship-path" clip-path="url(&quot;#SvgjsClipPath6619&quot;)" style="fill: none;" stroke-dasharray="" stroke="#6eb5e2" stroke-width="1" marker-start="url(#SvgjsMarker6655)" marker-end="url(#SvgjsMarker6657)" d="M 198.92939376831055 160.84771881103515L 230.085860828793 160.84771881103515L 230.085860828793 98.46303802319122L 170.2982831534924 98.46303802319122"></path><path id="SvgjsPath6603" data-name="relationship-shadow-action-path" stroke="none" stroke-width="11" style="stroke-opacity: 0; stroke: none; fill: none;" d="M 198.92939376831055 160.84771881103515L 230.085860828793 160.84771881103515L 230.085860828793 98.46303802319122L 170.2982831534924 98.46303802319122"></path><text id="SvgjsText6604" font-family="'Montserrat','Montserrat','Nunito Sans','Microsoft YaHei','Microsoft JhengHei',sans-serif" data-name="relationship-title" style="user-select: none; cursor: default; pointer-events: none;" font-size="12" font-weight="400" font-style="italic" text-decoration="none" fill="#44556e" x="192.0155487060547" y="119.59799194335938"><tspan id="SvgjsTspan6667" style="white-space: pre;">Relationship</tspan></text></g></g><g id="SvgjsG6491" data-name="cloneG" opacity="0.5"></g></g></g><defs id="SvgjsDefs6476"><rect id="SvgjsRect6616" width="497.84234619140625" height="462.38468170166016" fill="white" x="-29.70172119140625" y="-101.5369644165039"></rect><rect id="SvgjsRect6617" width="86.140625" height="14.5" fill="black" x="187.0155487060547" y="108.08981323242188"></rect><clipPath id="SvgjsClipPath6619"><path id="SvgjsPath6618" d="M -29.70172119140625 -101.5369644165039 L468.140625 -101.5369644165039 L468.140625 360.8477096557617 L-29.70172119140625 360.8477096557617 M 187.0155487060547 108.08981323242188 L273.1561737060547 108.08981323242188 L273.1561737060547 122.58981323242188 L187.0155487060547 122.58981323242188" fill="black" clip-rule="evenodd"></path></clipPath><marker id="SvgjsMarker6643" markerWidth="8" markerHeight="8" refX="5" refY="4" viewBox="0 0 8 8" orient="auto"><path id="SvgjsPath6644" d="" stroke="#2a7ac2" stroke-width="1" stroke-dasharray="none" fill="none"></path></marker><marker id="SvgjsMarker6645" markerWidth="8" markerHeight="8" refX="2" refY="4" viewBox="0 0 8 8" orient="auto"><path id="SvgjsPath6646" d="M 2 2 L 6 4 L 2 6" stroke-width="0" stroke-dasharray="none" stroke="#2a7ac2" fill="#2a7ac2"></path></marker><marker id="SvgjsMarker6655" markerWidth="8" markerHeight="8" refX="5" refY="4" viewBox="0 0 8 8" orient="auto"><path id="SvgjsPath6656" d="" stroke="#6eb5e2" stroke-width="1" stroke-dasharray="none" fill="none"></path></marker><marker id="SvgjsMarker6657" markerWidth="8" markerHeight="8" refX="2" refY="4" viewBox="0 0 8 8" orient="auto"><path id="SvgjsPath6658" d="M 2 2 L 6 4 L 2 6" stroke-width="0" stroke-dasharray="none" stroke="#6eb5e2" fill="#6eb5e2"></path></marker></defs></svg>