<?xml version="1.0" encoding="UTF-8"?>
<svg width="418px" height="20px" viewBox="0 0 418 20" version="1.1" xmlns="http://www.w3.org/2000/svg" xmlns:xlink="http://www.w3.org/1999/xlink">
    <!-- Generator: Sketch 48.2 (47327) - http://www.bohemiancoding.com/sketch -->
    <title>PDF_French</title>
    <desc>Created with Sketch.</desc>
    <defs></defs>
    <g id="PDF水印" stroke="none" stroke-width="1" fill="none" fill-rule="evenodd" transform="translate(-60.000000, -292.000000)">
        <g id="PDF_French" transform="translate(60.000000, 292.000000)" fill="#434B54" fill-rule="nonzero">
            <path d="M156.357693,3.13197042 C156.670467,2.75115306 156.608839,2.19408911 156.220044,1.88773325 C155.831248,1.58137739 155.262513,1.64174035 154.949739,2.02255771 L149.022532,9.23921477 L143.095325,2.02255771 C142.782551,1.64174035 142.213816,1.58137739 141.825021,1.88773325 C141.436225,2.19408911 141.374598,2.75115306 141.687372,3.13197042 L147.862962,10.6510462 L141.687372,18.170122 C141.374598,18.5509394 141.436225,19.1080034 141.825021,19.4143593 C142.213816,19.7207151 142.782551,19.6603521 143.095325,19.2795348 L149.022532,12.0628777 L154.949739,19.2795348 C155.262513,19.6603521 155.831248,19.7207151 156.220044,19.4143593 C156.608839,19.1080034 156.670467,18.5509394 156.357693,18.170122 L150.182102,10.6510462 L156.357693,3.13197042 Z M192.125226,11.5080399 C192.143337,9.49165545 194.254954,7.71895369 196.231986,7.52885138 C198.148633,7.34455547 199.052047,8.13547742 199.675474,9.5069932 C200.048137,10.3268379 200.045163,11.1595779 200.045163,12.057015 L200.045163,18.7248284 C200.045163,19.2135776 200.449673,19.6097872 200.948661,19.6097872 C201.44765,19.6097872 201.85216,19.2135776 201.85216,18.7248284 L201.85216,11.9668051 C201.85216,10.2851854 201.714036,9.57729346 201.335204,8.62969353 C200.621435,6.84429307 198.613403,5.37683937 195.986087,5.72126256 C194.410273,5.92784106 193.029508,6.7040389 192.107728,7.85279188 L192.107728,6.81712733 C192.107728,6.32837813 191.703217,5.93216863 191.204229,5.93216863 C190.70524,5.93216863 190.30073,6.32837813 190.30073,6.81712733 L190.30073,18.7248284 C190.30073,19.2135776 190.70524,19.6097872 191.204229,19.6097872 C191.703217,19.6097872 192.107728,19.2135776 192.107728,18.7248284 L192.107728,11.7050003 C192.118718,11.6368824 192.124665,11.5705607 192.125226,11.5080399 Z M216.457066,1.58495564 C216.457066,1.09620645 216.861576,0.699996948 217.360565,0.699996948 C217.859553,0.699996948 218.264063,1.09620645 218.264063,1.58495564 L218.264063,18.7248284 C218.264063,19.2135776 217.859553,19.6097872 217.360565,19.6097872 C216.861576,19.6097872 216.457066,19.2135776 216.457066,18.7248284 L216.457066,17.455255 C215.277608,18.8332782 213.586842,19.6999969 211.696429,19.6999969 C208.096701,19.6999969 205.220893,16.5572918 205.220893,12.7258729 C205.220893,8.89445412 208.096701,5.75174893 211.696429,5.75174893 C213.586842,5.75174893 215.277608,6.61846767 216.457066,7.99649088 L216.457066,1.58495564 Z M183.439297,2.39684435 C183.439297,1.83336285 183.905659,1.37657084 184.480945,1.37657084 C185.056232,1.37657084 185.522594,1.83336285 185.522594,2.39684435 L185.522594,2.75768378 C185.522594,3.32116527 185.056232,3.77795729 184.480945,3.77795729 C183.905659,3.77795729 183.439297,3.32116527 183.439297,2.75768378 L183.439297,2.39684435 Z M183.577446,6.45628789 C183.577446,5.96753871 183.981957,5.5713292 184.480945,5.5713292 C184.979934,5.5713292 185.384444,5.96753871 185.384444,6.45628789 L185.384444,18.7248284 C185.384444,19.2135776 184.979934,19.6097872 184.480945,19.6097872 C183.981957,19.6097872 183.577446,19.2135776 183.577446,18.7248284 L183.577446,6.45628789 Z M211.696429,17.9300796 C214.251402,17.9300796 216.364966,15.6203604 216.364966,12.7258729 C216.364966,9.83138545 214.251402,7.52166631 211.696429,7.52166631 C209.141455,7.52166631 207.027891,9.83138545 207.027891,12.7258729 C207.027891,15.6203604 209.141455,17.9300796 211.696429,17.9300796 Z M168.472666,14.4983759 C168.431294,14.4326535 166.557612,11.3641985 162.831963,5.3482102 L161.891847,18.7839265 C161.857195,19.2714959 161.432104,19.6415915 160.93432,19.6076507 C160.436536,19.5737099 160.055303,19.1527437 160.089955,18.6651745 L161.238988,2.51580888 C161.300112,1.65576819 162.530017,1.38030783 162.988649,2.1161444 C166.383803,7.56338966 168.545139,11.0829035 169.517241,12.642193 C170.488693,11.0821419 172.650965,7.56374551 176.045833,2.11651584 C176.504254,1.380957 177.743041,1.65469822 177.795494,2.51517759 L178.944527,18.6651745 C178.974267,19.1530548 178.598263,19.579084 178.100161,19.6082139 C177.60206,19.6373438 177.172375,19.2718068 177.142635,18.7839265 L176.202518,5.3482102 C172.476869,11.3708915 170.605411,14.4310034 170.561816,14.4987463 C170.353161,14.8229782 169.939729,15.019416 169.517241,15.0194836 C169.094753,15.0195511 168.675535,14.820644 168.472666,14.4983759 Z M252.038647,17.5785401 L260.743437,17.5785401 C261.242458,17.5785401 261.646994,17.9727293 261.646994,18.4589865 C261.646994,18.9452437 261.242458,19.3394329 260.743437,19.3394329 L250.907025,19.3394329 C250.408004,19.3394329 250.003468,18.9452437 250.003468,18.4589865 L250.003468,2.79949298 C250.003468,2.31323584 250.408004,1.91904654 250.907025,1.91904654 L260.743437,1.91904654 C261.242458,1.91904654 261.646994,2.31323584 261.646994,2.79949298 C261.646994,3.28575011 261.242458,3.67993941 260.743437,3.67993941 L252.038647,3.67993941 L252.038647,9.60449751 L260.256173,9.60449751 C260.755194,9.60449751 261.15973,9.99868679 261.15973,10.4849439 C261.15973,10.9712011 260.755194,11.3653904 260.256173,11.3653904 L252.038647,11.3653904 L252.038647,17.5785401 Z M233.592421,17.93338 L244.079258,3.71009076 L234.332051,3.71009076 C233.83303,3.71009076 233.428494,3.31590148 233.428494,2.82964433 C233.428494,2.3433872 233.83303,1.94919791 234.332051,1.94919791 L245.817103,1.94919791 C246.46788,1.94919791 246.973335,2.65378897 246.556734,3.33537088 L236.069896,17.5586601 L246.045264,17.5586601 C246.544285,17.5586601 246.948821,17.9528494 246.948821,18.4391066 C246.948821,18.9253637 246.544285,19.319553 246.045264,19.319553 L234.332051,19.319553 C233.620494,19.319553 233.20028,18.5333917 233.592421,17.93338 Z M277.737669,19.1258785 L266.867913,5.38100527 L266.867913,18.6499177 C266.867913,19.1361747 266.502115,19.5894144 265.912331,19.5804783 C265.322548,19.5715422 264.956547,19.1361747 264.956547,18.6499177 L264.956547,2.80524989 C264.956547,1.90245915 266.12247,1.52555629 266.704412,2.26716396 L277.578492,16.0729611 L277.578492,2.80524989 C277.578492,2.31899276 277.96702,1.88012477 278.532534,1.87348816 C279.098047,1.86685154 279.487818,2.31899276 279.487818,2.80524989 L279.487818,18.5429589 C279.487818,19.4748765 278.368617,19.8401925 277.737669,19.1258785 Z M226.27247,9.69106838 C225.503266,9.69106838 224.879704,9.08345482 224.879704,8.33392552 C224.879704,7.58439622 225.503266,6.97678266 226.27247,6.97678266 C227.041674,6.97678266 227.665236,7.58439622 227.665236,8.33392552 C227.665236,9.08345482 227.041674,9.69106838 226.27247,9.69106838 Z M226.27247,16.4767827 C225.503266,16.4767827 224.879704,15.8691691 224.879704,15.1196398 C224.879704,14.3701105 225.503266,13.7624969 226.27247,13.7624969 C227.041674,13.7624969 227.665236,14.3701105 227.665236,15.1196398 C227.665236,15.8691691 227.041674,16.4767827 226.27247,16.4767827 Z M304.358,6.438 C304.479334,6.17666536 304.679999,6.046 304.96,6.046 C305.146668,6.046 305.314666,6.10899937 305.464,6.235 C305.613334,6.36100063 305.688,6.51266578 305.688,6.69 C305.688,6.75533366 305.664667,6.84399944 305.618,6.956 L301.67,15.608 C301.604666,15.7573341 301.502001,15.8739996 301.362,15.958 C301.221999,16.0420004 301.072667,16.084 300.914,16.084 C300.755333,16.084 300.603667,16.0420004 300.459,15.958 C300.314333,15.8739996 300.209334,15.7573341 300.144,15.608 L296.21,6.956 C296.163333,6.84399944 296.14,6.75533366 296.14,6.69 C296.14,6.5033324 296.216999,6.34933394 296.371,6.228 C296.525001,6.10666606 296.695332,6.046 296.882,6.046 C297.171335,6.046 297.376666,6.17666536 297.498,6.438 L300.928,14.124 L304.358,6.438 Z M313.344,14.278 C313.474667,14.278 313.582,14.3293328 313.666,14.432 C313.75,14.5346672 313.792,14.6653325 313.792,14.824 C313.792,15.094668 313.624002,15.3233324 313.288,15.51 C312.961332,15.6966676 312.604335,15.8413328 312.217,15.944 C311.829665,16.0466672 311.458668,16.098 311.104,16.098 C310.021328,16.098 309.167336,15.7830031 308.542,15.153 C307.916664,14.5229969 307.604,13.6620055 307.604,12.57 C307.604,11.8699965 307.741665,11.249336 308.017,10.708 C308.292335,10.166664 308.679664,9.74666816 309.179,9.448 C309.678336,9.14933184 310.24533,9 310.88,9 C311.794671,9 312.517997,9.29399706 313.05,9.882 C313.582003,10.4700029 313.848,11.2633283 313.848,12.262 C313.848,12.6353352 313.680002,12.822 313.344,12.822 L309.018,12.822 C309.111334,14.2686739 309.80666,14.992 311.104,14.992 C311.449335,14.992 311.747999,14.9453338 312,14.852 C312.252001,14.7586662 312.517999,14.6373341 312.798,14.488 C312.826,14.4693332 312.902999,14.429667 313.029,14.369 C313.155001,14.308333 313.26,14.278 313.344,14.278 Z M310.908,10.036 C310.366664,10.036 309.932668,10.2086649 309.606,10.554 C309.279332,10.8993351 309.083334,11.3846635 309.018,12.01 L312.63,12.01 C312.602,11.3753302 312.441001,10.8876684 312.147,10.547 C311.852999,10.2063316 311.440003,10.036 310.908,10.036 Z M320.986,9.028 C321.434002,8.99999986 321.658,9.19133128 321.658,9.602 C321.658,9.80733436 321.606667,9.96133282 321.504,10.064 C321.401333,10.1666672 321.224001,10.2273332 320.972,10.246 L320.552,10.288 C319.963997,10.3440003 319.527668,10.5493316 319.243,10.904 C318.958332,11.2586684 318.816,11.6879975 318.816,12.192 L318.816,15.398 C318.816,15.6220011 318.750667,15.7899994 318.62,15.902 C318.489333,16.0140006 318.321334,16.07 318.116,16.07 C317.910666,16.07 317.740334,16.0140006 317.605,15.902 C317.469666,15.7899994 317.402,15.6220011 317.402,15.398 L317.402,9.7 C317.402,9.48533226 317.469666,9.31966725 317.605,9.203 C317.740334,9.08633275 317.910666,9.028 318.116,9.028 C318.302668,9.028 318.458999,9.08633275 318.585,9.203 C318.711001,9.31966725 318.774,9.48066564 318.774,9.686 L318.774,10.358 C318.960668,9.94733128 319.231332,9.63466774 319.586,9.42 C319.940668,9.20533226 320.341998,9.07933352 320.79,9.042 L320.986,9.028 Z M326.836,16.098 C325.883995,16.098 325.10467,15.902002 324.498,15.51 C324.329999,15.4073328 324.211,15.3000006 324.141,15.188 C324.071,15.0759994 324.036,14.9500007 324.036,14.81 C324.036,14.6606659 324.078,14.5346672 324.162,14.432 C324.246,14.3293328 324.353333,14.278 324.484,14.278 C324.605334,14.278 324.796665,14.3526659 325.058,14.502 C325.338001,14.6513341 325.610999,14.7726662 325.877,14.866 C326.143001,14.9593338 326.476665,15.006 326.878,15.006 C327.326002,15.006 327.675999,14.9266675 327.928,14.768 C328.180001,14.6093325 328.306,14.3853348 328.306,14.096 C328.306,13.9093324 328.257,13.7600006 328.159,13.648 C328.061,13.5359994 327.890668,13.4356671 327.648,13.347 C327.405332,13.2583329 327.046002,13.1626672 326.57,13.06 C325.748663,12.8826658 325.158335,12.6423349 324.799,12.339 C324.439665,12.0356651 324.26,11.6226693 324.26,11.1 C324.26,10.6986647 324.376666,10.3370016 324.61,10.015 C324.843334,9.69299839 325.165331,9.44333422 325.576,9.266 C325.986669,9.08866578 326.453331,9 326.976,9 C327.349335,9 327.713332,9.04899951 328.068,9.147 C328.422668,9.24500049 328.735332,9.3873324 329.006,9.574 C329.314002,9.77933436 329.468,10.017332 329.468,10.288 C329.468,10.4373341 329.423667,10.5633328 329.335,10.666 C329.246333,10.7686672 329.141334,10.82 329.02,10.82 C328.936,10.82 328.852,10.8013335 328.768,10.764 C328.684,10.7266665 328.572001,10.6660004 328.432,10.582 C328.179999,10.4326659 327.944334,10.3160004 327.725,10.232 C327.505666,10.1479996 327.232668,10.106 326.906,10.106 C326.513998,10.106 326.199001,10.1899992 325.961,10.358 C325.722999,10.5260008 325.604,10.7546652 325.604,11.044 C325.604,11.3053346 325.713666,11.5083326 325.933,11.653 C326.152334,11.7976674 326.56533,11.9353327 327.172,12.066 C327.797336,12.1966673 328.287332,12.3459992 328.642,12.514 C328.996668,12.6820008 329.250999,12.8896654 329.405,13.137 C329.559001,13.3843346 329.636,13.6993314 329.636,14.082 C329.636,14.6886697 329.381669,15.1763315 328.873,15.545 C328.364331,15.9136685 327.685338,16.098 326.836,16.098 Z M333.918,16.07 C333.712666,16.07 333.542334,16.0140006 333.407,15.902 C333.271666,15.7899994 333.204,15.6220011 333.204,15.398 L333.204,9.714 C333.204,9.48999888 333.271666,9.31966725 333.407,9.203 C333.542334,9.08633275 333.712666,9.028 333.918,9.028 C334.123334,9.028 334.291333,9.08633275 334.422,9.203 C334.552667,9.31966725 334.618,9.48999888 334.618,9.714 L334.618,15.398 C334.618,15.6220011 334.552667,15.7899994 334.422,15.902 C334.291333,16.0140006 334.123334,16.07 333.918,16.07 Z M333.918,7.656 C333.647332,7.656 333.432667,7.58133408 333.274,7.432 C333.115333,7.28266592 333.036,7.08666788 333.036,6.844 C333.036,6.60133212 333.115333,6.40766739 333.274,6.263 C333.432667,6.11833261 333.647332,6.046 333.918,6.046 C334.179335,6.046 334.391666,6.11833261 334.555,6.263 C334.718334,6.40766739 334.8,6.60133212 334.8,6.844 C334.8,7.08666788 334.720667,7.28266592 334.562,7.432 C334.403333,7.58133408 334.188668,7.656 333.918,7.656 Z M341.56,16.098 C340.887997,16.098 340.297669,15.9533348 339.789,15.664 C339.280331,15.3746652 338.888335,14.9616694 338.613,14.425 C338.337665,13.8883307 338.2,13.2653369 338.2,12.556 C338.2,11.8373297 338.337665,11.2096694 338.613,10.673 C338.888335,10.1363306 339.280331,9.72333478 339.789,9.434 C340.297669,9.14466522 340.887997,9 341.56,9 C342.232003,9 342.822331,9.14466522 343.331,9.434 C343.839669,9.72333478 344.231665,10.1363306 344.507,10.673 C344.782335,11.2096694 344.92,11.8373297 344.92,12.556 C344.92,13.2653369 344.782335,13.8883307 344.507,14.425 C344.231665,14.9616694 343.839669,15.3746652 343.331,15.664 C342.822331,15.9533348 342.232003,16.098 341.56,16.098 Z M341.56,14.978 C342.185336,14.978 342.663665,14.7726687 342.995,14.362 C343.326335,13.9513313 343.492,13.3493373 343.492,12.556 C343.492,11.7719961 343.324002,11.1723354 342.988,10.757 C342.651998,10.3416646 342.176003,10.134 341.56,10.134 C340.943997,10.134 340.468002,10.3416646 340.132,10.757 C339.795998,11.1723354 339.628,11.7719961 339.628,12.556 C339.628,13.3493373 339.793665,13.9513313 340.125,14.362 C340.456335,14.7726687 340.934664,14.978 341.56,14.978 Z M352.17,9 C353.803341,9 354.62,9.91932414 354.62,11.758 L354.62,15.398 C354.62,15.6126677 354.557001,15.7783328 354.431,15.895 C354.304999,16.0116673 354.130001,16.07 353.906,16.07 C353.691332,16.07 353.521001,16.0093339 353.395,15.888 C353.268999,15.7666661 353.206,15.6033344 353.206,15.398 L353.206,11.828 C353.206,11.2493304 353.091668,10.824668 352.863,10.554 C352.634332,10.283332 352.277336,10.148 351.792,10.148 C351.222664,10.148 350.765335,10.3253316 350.42,10.68 C350.074665,11.0346684 349.902,11.5106637 349.902,12.108 L349.902,15.398 C349.902,15.6033344 349.839001,15.7666661 349.713,15.888 C349.586999,16.0093339 349.416668,16.07 349.202,16.07 C348.987332,16.07 348.814667,16.0093339 348.684,15.888 C348.553333,15.7666661 348.488,15.6033344 348.488,15.398 L348.488,9.7 C348.488,9.50399902 348.555666,9.34300063 348.691,9.217 C348.826334,9.09099937 348.996666,9.028 349.202,9.028 C349.407334,9.028 349.570666,9.08866606 349.692,9.21 C349.813334,9.33133394 349.874,9.48999902 349.874,9.686 L349.874,10.26 C350.098001,9.84933128 350.410665,9.53666774 350.812,9.322 C351.213335,9.10733226 351.665997,9 352.17,9 Z M369.834,6.06 C370.048668,6.06 370.221333,6.12066606 370.352,6.242 C370.482667,6.36333394 370.548,6.52666564 370.548,6.732 L370.548,15.384 C370.548,15.5986677 370.485001,15.7666661 370.359,15.888 C370.232999,16.0093339 370.062668,16.07 369.848,16.07 C369.633332,16.07 369.463001,16.0093339 369.337,15.888 C369.210999,15.7666661 369.148,15.5986677 369.148,15.384 L369.148,14.824 C368.942666,15.2346687 368.644002,15.5496656 368.252,15.769 C367.859998,15.9883344 367.407336,16.098 366.894,16.098 C366.305997,16.098 365.781002,15.9486682 365.319,15.65 C364.856998,15.3513318 364.497668,14.931336 364.241,14.39 C363.984332,13.848664 363.856,13.2280035 363.856,12.528 C363.856,11.8186631 363.984332,11.1980027 364.241,10.666 C364.497668,10.1339973 364.854664,9.72333478 365.312,9.434 C365.769336,9.14466522 366.296664,9 366.894,9 C367.407336,9 367.857665,9.10966557 368.245,9.329 C368.632335,9.54833443 368.928666,9.85866466 369.134,10.26 L369.134,6.704 C369.134,6.50799902 369.196999,6.35166725 369.323,6.235 C369.449001,6.11833275 369.619332,6.06 369.834,6.06 Z M367.23,14.978 C367.83667,14.978 368.307998,14.7680021 368.644,14.348 C368.980002,13.9279979 369.148,13.3306705 369.148,12.556 C369.148,11.7813295 368.982335,11.1840021 368.651,10.764 C368.319665,10.3439979 367.846003,10.134 367.23,10.134 C366.613997,10.134 366.135668,10.3416646 365.795,10.757 C365.454332,11.1723354 365.284,11.7626628 365.284,12.528 C365.284,13.2933372 365.456665,13.8929978 365.802,14.327 C366.147335,14.7610022 366.62333,14.978 367.23,14.978 Z M375.166,10.162 C374.895332,10.162 374.736667,10.0080015 374.69,9.7 L374.396,7.026 C374.386667,6.9793331 374.382,6.91866704 374.382,6.844 C374.382,6.60133212 374.454333,6.4100007 374.599,6.27 C374.743667,6.1299993 374.932665,6.06 375.166,6.06 C375.399335,6.06 375.583666,6.12533268 375.719,6.256 C375.854334,6.38666732 375.922,6.57333212 375.922,6.816 C375.922,6.9093338 375.917333,6.9793331 375.908,7.026 L375.642,9.7 C375.586,10.0080015 375.427335,10.162 375.166,10.162 Z M385.104,14.278 C385.234667,14.278 385.342,14.3293328 385.426,14.432 C385.51,14.5346672 385.552,14.6653325 385.552,14.824 C385.552,15.094668 385.384002,15.3233324 385.048,15.51 C384.721332,15.6966676 384.364335,15.8413328 383.977,15.944 C383.589665,16.0466672 383.218668,16.098 382.864,16.098 C381.781328,16.098 380.927336,15.7830031 380.302,15.153 C379.676664,14.5229969 379.364,13.6620055 379.364,12.57 C379.364,11.8699965 379.501665,11.249336 379.777,10.708 C380.052335,10.166664 380.439664,9.74666816 380.939,9.448 C381.438336,9.14933184 382.00533,9 382.64,9 C383.554671,9 384.277997,9.29399706 384.81,9.882 C385.342003,10.4700029 385.608,11.2633283 385.608,12.262 C385.608,12.6353352 385.440002,12.822 385.104,12.822 L380.778,12.822 C380.871334,14.2686739 381.56666,14.992 382.864,14.992 C383.209335,14.992 383.507999,14.9453338 383.76,14.852 C384.012001,14.7586662 384.277999,14.6373341 384.558,14.488 C384.586,14.4693332 384.662999,14.429667 384.789,14.369 C384.915001,14.308333 385.02,14.278 385.104,14.278 Z M382.668,10.036 C382.126664,10.036 381.692668,10.2086649 381.366,10.554 C381.039332,10.8993351 380.843334,11.3846635 380.778,12.01 L384.39,12.01 C384.362,11.3753302 384.201001,10.8876684 383.907,10.547 C383.612999,10.2063316 383.200003,10.036 382.668,10.036 Z M391.542,16.098 C390.589995,16.098 389.81067,15.902002 389.204,15.51 C389.035999,15.4073328 388.917,15.3000006 388.847,15.188 C388.777,15.0759994 388.742,14.9500007 388.742,14.81 C388.742,14.6606659 388.784,14.5346672 388.868,14.432 C388.952,14.3293328 389.059333,14.278 389.19,14.278 C389.311334,14.278 389.502665,14.3526659 389.764,14.502 C390.044001,14.6513341 390.316999,14.7726662 390.583,14.866 C390.849001,14.9593338 391.182665,15.006 391.584,15.006 C392.032002,15.006 392.381999,14.9266675 392.634,14.768 C392.886001,14.6093325 393.012,14.3853348 393.012,14.096 C393.012,13.9093324 392.963,13.7600006 392.865,13.648 C392.767,13.5359994 392.596668,13.4356671 392.354,13.347 C392.111332,13.2583329 391.752002,13.1626672 391.276,13.06 C390.454663,12.8826658 389.864335,12.6423349 389.505,12.339 C389.145665,12.0356651 388.966,11.6226693 388.966,11.1 C388.966,10.6986647 389.082666,10.3370016 389.316,10.015 C389.549334,9.69299839 389.871331,9.44333422 390.282,9.266 C390.692669,9.08866578 391.159331,9 391.682,9 C392.055335,9 392.419332,9.04899951 392.774,9.147 C393.128668,9.24500049 393.441332,9.3873324 393.712,9.574 C394.020002,9.77933436 394.174,10.017332 394.174,10.288 C394.174,10.4373341 394.129667,10.5633328 394.041,10.666 C393.952333,10.7686672 393.847334,10.82 393.726,10.82 C393.642,10.82 393.558,10.8013335 393.474,10.764 C393.39,10.7266665 393.278001,10.6660004 393.138,10.582 C392.885999,10.4326659 392.650334,10.3160004 392.431,10.232 C392.211666,10.1479996 391.938668,10.106 391.612,10.106 C391.219998,10.106 390.905001,10.1899992 390.667,10.358 C390.428999,10.5260008 390.31,10.7546652 390.31,11.044 C390.31,11.3053346 390.419666,11.5083326 390.639,11.653 C390.858334,11.7976674 391.27133,11.9353327 391.878,12.066 C392.503336,12.1966673 392.993332,12.3459992 393.348,12.514 C393.702668,12.6820008 393.956999,12.8896654 394.111,13.137 C394.265001,13.3843346 394.342,13.6993314 394.342,14.082 C394.342,14.6886697 394.087669,15.1763315 393.579,15.545 C393.070331,15.9136685 392.391338,16.098 391.542,16.098 Z M400.29,16.098 C399.337995,16.098 398.55867,15.902002 397.952,15.51 C397.783999,15.4073328 397.665,15.3000006 397.595,15.188 C397.525,15.0759994 397.49,14.9500007 397.49,14.81 C397.49,14.6606659 397.532,14.5346672 397.616,14.432 C397.7,14.3293328 397.807333,14.278 397.938,14.278 C398.059334,14.278 398.250665,14.3526659 398.512,14.502 C398.792001,14.6513341 399.064999,14.7726662 399.331,14.866 C399.597001,14.9593338 399.930665,15.006 400.332,15.006 C400.780002,15.006 401.129999,14.9266675 401.382,14.768 C401.634001,14.6093325 401.76,14.3853348 401.76,14.096 C401.76,13.9093324 401.711,13.7600006 401.613,13.648 C401.515,13.5359994 401.344668,13.4356671 401.102,13.347 C400.859332,13.2583329 400.500002,13.1626672 400.024,13.06 C399.202663,12.8826658 398.612335,12.6423349 398.253,12.339 C397.893665,12.0356651 397.714,11.6226693 397.714,11.1 C397.714,10.6986647 397.830666,10.3370016 398.064,10.015 C398.297335,9.69299839 398.619331,9.44333422 399.03,9.266 C399.440669,9.08866578 399.907331,9 400.43,9 C400.803335,9 401.167332,9.04899951 401.522,9.147 C401.876668,9.24500049 402.189332,9.3873324 402.46,9.574 C402.768002,9.77933436 402.922,10.017332 402.922,10.288 C402.922,10.4373341 402.877667,10.5633328 402.789,10.666 C402.700333,10.7686672 402.595334,10.82 402.474,10.82 C402.39,10.82 402.306,10.8013335 402.222,10.764 C402.138,10.7266665 402.026001,10.6660004 401.886,10.582 C401.633999,10.4326659 401.398334,10.3160004 401.179,10.232 C400.959666,10.1479996 400.686668,10.106 400.36,10.106 C399.967998,10.106 399.653001,10.1899992 399.415,10.358 C399.176999,10.5260008 399.058,10.7546652 399.058,11.044 C399.058,11.3053346 399.167666,11.5083326 399.387,11.653 C399.606334,11.7976674 400.01933,11.9353327 400.626,12.066 C401.251336,12.1966673 401.741332,12.3459992 402.096,12.514 C402.450668,12.6820008 402.704999,12.8896654 402.859,13.137 C403.013001,13.3843346 403.09,13.6993314 403.09,14.082 C403.09,14.6886697 402.835669,15.1763315 402.327,15.545 C401.818331,15.9136685 401.139338,16.098 400.29,16.098 Z M409.528,9 C410.433338,9 411.107664,9.22866438 411.551,9.686 C411.994336,10.1433356 412.216,10.838662 412.216,11.772 L412.216,15.398 C412.216,15.6126677 412.155334,15.7783328 412.034,15.895 C411.912666,16.0116673 411.744668,16.07 411.53,16.07 C411.324666,16.07 411.161334,16.0093339 411.04,15.888 C410.918666,15.7666661 410.858,15.6033344 410.858,15.398 L410.858,14.88 C410.680666,15.272002 410.417002,15.5729989 410.067,15.783 C409.716998,15.9930011 409.308669,16.098 408.842,16.098 C408.393998,16.098 407.983335,16.0070009 407.61,15.825 C407.236665,15.6429991 406.945001,15.3886683 406.735,15.062 C406.524999,14.7353317 406.42,14.3713353 406.42,13.97 C406.42,13.4753309 406.548332,13.0856681 406.805,12.801 C407.061668,12.5163319 407.48633,12.3133339 408.079,12.192 C408.67167,12.0706661 409.485995,12.01 410.522,12.01 L410.844,12.01 L410.844,11.604 C410.844,11.0813307 410.736668,10.7033345 410.522,10.47 C410.307332,10.2366655 409.962002,10.12 409.486,10.12 C409.159332,10.12 408.851335,10.1619996 408.562,10.246 C408.272665,10.3300004 407.955335,10.4513325 407.61,10.61 C407.357999,10.7500007 407.180667,10.82 407.078,10.82 C406.937999,10.82 406.823667,10.7686672 406.735,10.666 C406.646333,10.5633328 406.602,10.4326675 406.602,10.274 C406.602,10.1339993 406.641666,10.0103339 406.721,9.903 C406.800334,9.79566613 406.928666,9.69066718 407.106,9.588 C407.432668,9.41066578 407.815331,9.26833387 408.254,9.161 C408.692669,9.05366613 409.117331,9 409.528,9 Z M409.094,15.048 C409.607336,15.048 410.027332,14.8730017 410.354,14.523 C410.680668,14.1729982 410.844,13.7226694 410.844,13.172 L410.844,12.808 L410.592,12.808 C409.863996,12.808 409.304002,12.8406663 408.912,12.906 C408.519998,12.9713337 408.240001,13.0809992 408.072,13.235 C407.903999,13.3890008 407.82,13.6106652 407.82,13.9 C407.82,14.2360017 407.941332,14.5113323 408.184,14.726 C408.426668,14.9406677 408.729998,15.048 409.094,15.048 Z M416.862,16.07 C416.656666,16.07 416.486334,16.0140006 416.351,15.902 C416.215666,15.7899994 416.148,15.6220011 416.148,15.398 L416.148,9.714 C416.148,9.48999888 416.215666,9.31966725 416.351,9.203 C416.486334,9.08633275 416.656666,9.028 416.862,9.028 C417.067334,9.028 417.235333,9.08633275 417.366,9.203 C417.496667,9.31966725 417.562,9.48999888 417.562,9.714 L417.562,15.398 C417.562,15.6220011 417.496667,15.7899994 417.366,15.902 C417.235333,16.0140006 417.067334,16.07 416.862,16.07 Z M416.862,7.656 C416.591332,7.656 416.376667,7.58133408 416.218,7.432 C416.059333,7.28266592 415.98,7.08666788 415.98,6.844 C415.98,6.60133212 416.059333,6.40766739 416.218,6.263 C416.376667,6.11833261 416.591332,6.046 416.862,6.046 C417.123335,6.046 417.335666,6.11833261 417.499,6.263 C417.662334,6.40766739 417.744,6.60133212 417.744,6.844 C417.744,7.08666788 417.664667,7.28266592 417.506,7.432 C417.347333,7.58133408 417.132668,7.656 416.862,7.656 Z M8.802,6.438 C8.92333394,6.17666536 9.1239986,6.046 9.404,6.046 C9.5906676,6.046 9.75866592,6.10899937 9.908,6.235 C10.0573341,6.36100063 10.132,6.51266578 10.132,6.69 C10.132,6.75533366 10.1086669,6.84399944 10.062,6.956 L6.114,15.608 C6.04866634,15.7573341 5.9460007,15.8739996 5.806,15.958 C5.6659993,16.0420004 5.51666746,16.084 5.358,16.084 C5.19933254,16.084 5.04766739,16.0420004 4.903,15.958 C4.75833261,15.8739996 4.65333366,15.7573341 4.588,15.608 L0.654,6.956 C0.6073331,6.84399944 0.584,6.75533366 0.584,6.69 C0.584,6.5033324 0.66099923,6.34933394 0.815,6.228 C0.96900077,6.10666606 1.1393324,6.046 1.326,6.046 C1.61533478,6.046 1.82066606,6.17666536 1.942,6.438 L5.372,14.124 L8.802,6.438 Z M17.788,14.278 C17.9186673,14.278 18.0259996,14.3293328 18.11,14.432 C18.1940004,14.5346672 18.236,14.6653325 18.236,14.824 C18.236,15.094668 18.0680017,15.3233324 17.732,15.51 C17.4053317,15.6966676 17.0483353,15.8413328 16.661,15.944 C16.2736647,16.0466672 15.9026684,16.098 15.548,16.098 C14.4653279,16.098 13.6113365,15.7830031 12.986,15.153 C12.3606635,14.5229969 12.048,13.6620055 12.048,12.57 C12.048,11.8699965 12.1856653,11.249336 12.461,10.708 C12.7363347,10.166664 13.1236642,9.74666816 13.623,9.448 C14.1223358,9.14933184 14.6893302,9 15.324,9 C16.2386712,9 16.9619973,9.29399706 17.494,9.882 C18.0260027,10.4700029 18.292,11.2633283 18.292,12.262 C18.292,12.6353352 18.1240017,12.822 17.788,12.822 L13.462,12.822 C13.5553338,14.2686739 14.2506602,14.992 15.548,14.992 C15.8933351,14.992 16.1919987,14.9453338 16.444,14.852 C16.6960013,14.7586662 16.9619986,14.6373341 17.242,14.488 C17.2700001,14.4693332 17.3469994,14.429667 17.473,14.369 C17.5990006,14.308333 17.7039996,14.278 17.788,14.278 Z M15.352,10.036 C14.810664,10.036 14.3766683,10.2086649 14.05,10.554 C13.7233317,10.8993351 13.5273337,11.3846635 13.462,12.01 L17.074,12.01 C17.0459999,11.3753302 16.8850015,10.8876684 16.591,10.547 C16.2969985,10.2063316 15.8840027,10.036 15.352,10.036 Z M25.43,9.028 C25.8780022,8.99999986 26.102,9.19133128 26.102,9.602 C26.102,9.80733436 26.0506672,9.96133282 25.948,10.064 C25.8453328,10.1666672 25.6680013,10.2273332 25.416,10.246 L24.996,10.288 C24.4079971,10.3440003 23.9716681,10.5493316 23.687,10.904 C23.4023319,11.2586684 23.26,11.6879975 23.26,12.192 L23.26,15.398 C23.26,15.6220011 23.1946673,15.7899994 23.064,15.902 C22.9333327,16.0140006 22.7653344,16.07 22.56,16.07 C22.3546656,16.07 22.184334,16.0140006 22.049,15.902 C21.913666,15.7899994 21.846,15.6220011 21.846,15.398 L21.846,9.7 C21.846,9.48533226 21.913666,9.31966725 22.049,9.203 C22.184334,9.08633275 22.3546656,9.028 22.56,9.028 C22.7466676,9.028 22.9029994,9.08633275 23.029,9.203 C23.1550006,9.31966725 23.218,9.48066564 23.218,9.686 L23.218,10.358 C23.4046676,9.94733128 23.6753316,9.63466774 24.03,9.42 C24.3846684,9.20533226 24.7859978,9.07933352 25.234,9.042 L25.43,9.028 Z M31.28,16.098 C30.3279952,16.098 29.5486697,15.902002 28.942,15.51 C28.7739992,15.4073328 28.6550004,15.3000006 28.585,15.188 C28.5149997,15.0759994 28.48,14.9500007 28.48,14.81 C28.48,14.6606659 28.5219996,14.5346672 28.606,14.432 C28.6900004,14.3293328 28.7973327,14.278 28.928,14.278 C29.0493339,14.278 29.2406654,14.3526659 29.502,14.502 C29.7820014,14.6513341 30.0549987,14.7726662 30.321,14.866 C30.5870013,14.9593338 30.9206647,15.006 31.322,15.006 C31.7700022,15.006 32.1199987,14.9266675 32.372,14.768 C32.6240013,14.6093325 32.75,14.3853348 32.75,14.096 C32.75,13.9093324 32.7010005,13.7600006 32.603,13.648 C32.5049995,13.5359994 32.3346679,13.4356671 32.092,13.347 C31.8493321,13.2583329 31.4900024,13.1626672 31.014,13.06 C30.1926626,12.8826658 29.6023351,12.6423349 29.243,12.339 C28.8836649,12.0356651 28.704,11.6226693 28.704,11.1 C28.704,10.6986647 28.8206655,10.3370016 29.054,10.015 C29.2873345,9.69299839 29.6093313,9.44333422 30.02,9.266 C30.4306687,9.08866578 30.8973307,9 31.42,9 C31.7933352,9 32.1573316,9.04899951 32.512,9.147 C32.8666684,9.24500049 33.179332,9.3873324 33.45,9.574 C33.7580015,9.77933436 33.912,10.017332 33.912,10.288 C33.912,10.4373341 33.8676671,10.5633328 33.779,10.666 C33.6903329,10.7686672 33.5853339,10.82 33.464,10.82 C33.3799996,10.82 33.2960004,10.8013335 33.212,10.764 C33.1279996,10.7266665 33.0160007,10.6660004 32.876,10.582 C32.6239987,10.4326659 32.3883344,10.3160004 32.169,10.232 C31.9496656,10.1479996 31.6766683,10.106 31.35,10.106 C30.957998,10.106 30.6430012,10.1899992 30.405,10.358 C30.1669988,10.5260008 30.048,10.7546652 30.048,11.044 C30.048,11.3053346 30.1576656,11.5083326 30.377,11.653 C30.5963344,11.7976674 31.0093303,11.9353327 31.616,12.066 C32.2413365,12.1966673 32.7313316,12.3459992 33.086,12.514 C33.4406684,12.6820008 33.6949992,12.8896654 33.849,13.137 C34.0030008,13.3843346 34.08,13.6993314 34.08,14.082 C34.08,14.6886697 33.8256692,15.1763315 33.317,15.545 C32.8083308,15.9136685 32.1293376,16.098 31.28,16.098 Z M38.362,16.07 C38.1566656,16.07 37.986334,16.0140006 37.851,15.902 C37.715666,15.7899994 37.648,15.6220011 37.648,15.398 L37.648,9.714 C37.648,9.48999888 37.715666,9.31966725 37.851,9.203 C37.986334,9.08633275 38.1566656,9.028 38.362,9.028 C38.5673344,9.028 38.7353327,9.08633275 38.866,9.203 C38.9966673,9.31966725 39.062,9.48999888 39.062,9.714 L39.062,15.398 C39.062,15.6220011 38.9966673,15.7899994 38.866,15.902 C38.7353327,16.0140006 38.5673344,16.07 38.362,16.07 Z M38.362,7.656 C38.091332,7.656 37.8766675,7.58133408 37.718,7.432 C37.5593325,7.28266592 37.48,7.08666788 37.48,6.844 C37.48,6.60133212 37.5593325,6.40766739 37.718,6.263 C37.8766675,6.11833261 38.091332,6.046 38.362,6.046 C38.6233346,6.046 38.8356659,6.11833261 38.999,6.263 C39.1623342,6.40766739 39.244,6.60133212 39.244,6.844 C39.244,7.08666788 39.1646675,7.28266592 39.006,7.432 C38.8473325,7.58133408 38.632668,7.656 38.362,7.656 Z M46.004,16.098 C45.3319966,16.098 44.7416692,15.9533348 44.233,15.664 C43.7243308,15.3746652 43.3323347,14.9616694 43.057,14.425 C42.7816653,13.8883307 42.644,13.2653369 42.644,12.556 C42.644,11.8373297 42.7816653,11.2096694 43.057,10.673 C43.3323347,10.1363306 43.7243308,9.72333478 44.233,9.434 C44.7416692,9.14466522 45.3319966,9 46.004,9 C46.6760034,9 47.2663308,9.14466522 47.775,9.434 C48.2836692,9.72333478 48.6756653,10.1363306 48.951,10.673 C49.2263347,11.2096694 49.364,11.8373297 49.364,12.556 C49.364,13.2653369 49.2263347,13.8883307 48.951,14.425 C48.6756653,14.9616694 48.2836692,15.3746652 47.775,15.664 C47.2663308,15.9533348 46.6760034,16.098 46.004,16.098 Z M46.004,14.978 C46.6293365,14.978 47.107665,14.7726687 47.439,14.362 C47.770335,13.9513313 47.936,13.3493373 47.936,12.556 C47.936,11.7719961 47.7680017,11.1723354 47.432,10.757 C47.0959983,10.3416646 46.6200031,10.134 46.004,10.134 C45.3879969,10.134 44.9120017,10.3416646 44.576,10.757 C44.2399983,11.1723354 44.072,11.7719961 44.072,12.556 C44.072,13.3493373 44.237665,13.9513313 44.569,14.362 C44.900335,14.7726687 45.3786635,14.978 46.004,14.978 Z M56.614,9 C58.2473415,9 59.064,9.91932414 59.064,11.758 L59.064,15.398 C59.064,15.6126677 59.0010006,15.7783328 58.875,15.895 C58.7489994,16.0116673 58.5740011,16.07 58.35,16.07 C58.1353323,16.07 57.9650006,16.0093339 57.839,15.888 C57.7129994,15.7666661 57.65,15.6033344 57.65,15.398 L57.65,11.828 C57.65,11.2493304 57.5356678,10.824668 57.307,10.554 C57.0783322,10.283332 56.7213358,10.148 56.236,10.148 C55.6666638,10.148 55.2093351,10.3253316 54.864,10.68 C54.5186649,11.0346684 54.346,11.5106637 54.346,12.108 L54.346,15.398 C54.346,15.6033344 54.2830006,15.7666661 54.157,15.888 C54.0309994,16.0093339 53.8606677,16.07 53.646,16.07 C53.4313323,16.07 53.2586673,16.0093339 53.128,15.888 C52.9973327,15.7666661 52.932,15.6033344 52.932,15.398 L52.932,9.7 C52.932,9.50399902 52.999666,9.34300063 53.135,9.217 C53.270334,9.09099937 53.4406656,9.028 53.646,9.028 C53.8513344,9.028 54.0146661,9.08866606 54.136,9.21 C54.2573339,9.33133394 54.318,9.48999902 54.318,9.686 L54.318,10.26 C54.5420011,9.84933128 54.8546647,9.53666774 55.256,9.322 C55.6573353,9.10733226 56.1099975,9 56.614,9 Z M74.278,6.06 C74.4926677,6.06 74.6653327,6.12066606 74.796,6.242 C74.9266673,6.36333394 74.992,6.52666564 74.992,6.732 L74.992,15.384 C74.992,15.5986677 74.9290006,15.7666661 74.803,15.888 C74.6769994,16.0093339 74.5066677,16.07 74.292,16.07 C74.0773323,16.07 73.9070006,16.0093339 73.781,15.888 C73.6549994,15.7666661 73.592,15.5986677 73.592,15.384 L73.592,14.824 C73.3866656,15.2346687 73.088002,15.5496656 72.696,15.769 C72.303998,15.9883344 71.8513359,16.098 71.338,16.098 C70.7499971,16.098 70.2250023,15.9486682 69.763,15.65 C69.3009977,15.3513318 68.9416679,14.931336 68.685,14.39 C68.428332,13.848664 68.3,13.2280035 68.3,12.528 C68.3,11.8186631 68.428332,11.1980027 68.685,10.666 C68.9416679,10.1339973 69.2986644,9.72333478 69.756,9.434 C70.2133356,9.14466522 70.7406637,9 71.338,9 C71.8513359,9 72.3016647,9.10966557 72.689,9.329 C73.0763353,9.54833443 73.3726656,9.85866466 73.578,10.26 L73.578,6.704 C73.578,6.50799902 73.6409994,6.35166725 73.767,6.235 C73.8930006,6.11833275 74.0633323,6.06 74.278,6.06 Z M71.674,14.978 C72.2806697,14.978 72.7519983,14.7680021 73.088,14.348 C73.4240017,13.9279979 73.592,13.3306705 73.592,12.556 C73.592,11.7813295 73.426335,11.1840021 73.095,10.764 C72.763665,10.3439979 72.2900031,10.134 71.674,10.134 C71.0579969,10.134 70.5796684,10.3416646 70.239,10.757 C69.8983316,11.1723354 69.728,11.7626628 69.728,12.528 C69.728,13.2933372 69.9006649,13.8929978 70.246,14.327 C70.5913351,14.7610022 71.0673303,14.978 71.674,14.978 Z M79.61,10.162 C79.339332,10.162 79.1806669,10.0080015 79.134,9.7 L78.84,7.026 C78.8306666,6.9793331 78.826,6.91866704 78.826,6.844 C78.826,6.60133212 78.8983326,6.4100007 79.043,6.27 C79.1876674,6.1299993 79.3766655,6.06 79.61,6.06 C79.8433345,6.06 80.027666,6.12533268 80.163,6.256 C80.298334,6.38666732 80.366,6.57333212 80.366,6.816 C80.366,6.9093338 80.3613334,6.9793331 80.352,7.026 L80.086,9.7 C80.0299997,10.0080015 79.8713346,10.162 79.61,10.162 Z M89.548,14.278 C89.6786673,14.278 89.7859996,14.3293328 89.87,14.432 C89.9540004,14.5346672 89.996,14.6653325 89.996,14.824 C89.996,15.094668 89.8280017,15.3233324 89.492,15.51 C89.1653317,15.6966676 88.8083353,15.8413328 88.421,15.944 C88.0336647,16.0466672 87.6626684,16.098 87.308,16.098 C86.2253279,16.098 85.3713365,15.7830031 84.746,15.153 C84.1206635,14.5229969 83.808,13.6620055 83.808,12.57 C83.808,11.8699965 83.9456653,11.249336 84.221,10.708 C84.4963347,10.166664 84.8836642,9.74666816 85.383,9.448 C85.8823358,9.14933184 86.4493302,9 87.084,9 C87.9986712,9 88.7219973,9.29399706 89.254,9.882 C89.7860027,10.4700029 90.052,11.2633283 90.052,12.262 C90.052,12.6353352 89.8840017,12.822 89.548,12.822 L85.222,12.822 C85.3153338,14.2686739 86.0106602,14.992 87.308,14.992 C87.6533351,14.992 87.9519987,14.9453338 88.204,14.852 C88.4560013,14.7586662 88.7219986,14.6373341 89.002,14.488 C89.0300001,14.4693332 89.1069994,14.429667 89.233,14.369 C89.3590006,14.308333 89.4639996,14.278 89.548,14.278 Z M87.112,10.036 C86.570664,10.036 86.1366683,10.2086649 85.81,10.554 C85.4833317,10.8993351 85.2873337,11.3846635 85.222,12.01 L88.834,12.01 C88.8059999,11.3753302 88.6450015,10.8876684 88.351,10.547 C88.0569985,10.2063316 87.6440027,10.036 87.112,10.036 Z M95.986,16.098 C95.0339952,16.098 94.2546697,15.902002 93.648,15.51 C93.4799992,15.4073328 93.3610003,15.3000006 93.291,15.188 C93.2209996,15.0759994 93.186,14.9500007 93.186,14.81 C93.186,14.6606659 93.2279996,14.5346672 93.312,14.432 C93.3960004,14.3293328 93.5033327,14.278 93.634,14.278 C93.7553339,14.278 93.9466654,14.3526659 94.208,14.502 C94.4880014,14.6513341 94.7609987,14.7726662 95.027,14.866 C95.2930013,14.9593338 95.6266647,15.006 96.028,15.006 C96.4760022,15.006 96.8259987,14.9266675 97.078,14.768 C97.3300013,14.6093325 97.456,14.3853348 97.456,14.096 C97.456,13.9093324 97.4070005,13.7600006 97.309,13.648 C97.2109995,13.5359994 97.0406679,13.4356671 96.798,13.347 C96.5553321,13.2583329 96.1960024,13.1626672 95.72,13.06 C94.8986626,12.8826658 94.3083351,12.6423349 93.949,12.339 C93.5896649,12.0356651 93.41,11.6226693 93.41,11.1 C93.41,10.6986647 93.5266655,10.3370016 93.76,10.015 C93.9933345,9.69299839 94.3153313,9.44333422 94.726,9.266 C95.1366687,9.08866578 95.6033307,9 96.126,9 C96.4993352,9 96.8633316,9.04899951 97.218,9.147 C97.5726684,9.24500049 97.885332,9.3873324 98.156,9.574 C98.4640015,9.77933436 98.618,10.017332 98.618,10.288 C98.618,10.4373341 98.5736671,10.5633328 98.485,10.666 C98.3963329,10.7686672 98.2913339,10.82 98.17,10.82 C98.0859996,10.82 98.0020004,10.8013335 97.918,10.764 C97.8339996,10.7266665 97.7220007,10.6660004 97.582,10.582 C97.3299987,10.4326659 97.0943344,10.3160004 96.875,10.232 C96.6556656,10.1479996 96.3826683,10.106 96.056,10.106 C95.663998,10.106 95.3490012,10.1899992 95.111,10.358 C94.8729988,10.5260008 94.754,10.7546652 94.754,11.044 C94.754,11.3053346 94.8636656,11.5083326 95.083,11.653 C95.3023344,11.7976674 95.7153303,11.9353327 96.322,12.066 C96.9473365,12.1966673 97.4373316,12.3459992 97.792,12.514 C98.1466684,12.6820008 98.4009992,12.8896654 98.555,13.137 C98.7090008,13.3843346 98.786,13.6993314 98.786,14.082 C98.786,14.6886697 98.5316692,15.1763315 98.023,15.545 C97.5143308,15.9136685 96.8353376,16.098 95.986,16.098 Z M104.734,16.098 C103.781995,16.098 103.00267,15.902002 102.396,15.51 C102.227999,15.4073328 102.109,15.3000006 102.039,15.188 C101.969,15.0759994 101.934,14.9500007 101.934,14.81 C101.934,14.6606659 101.976,14.5346672 102.06,14.432 C102.144,14.3293328 102.251333,14.278 102.382,14.278 C102.503334,14.278 102.694665,14.3526659 102.956,14.502 C103.236001,14.6513341 103.508999,14.7726662 103.775,14.866 C104.041001,14.9593338 104.374665,15.006 104.776,15.006 C105.224002,15.006 105.573999,14.9266675 105.826,14.768 C106.078001,14.6093325 106.204,14.3853348 106.204,14.096 C106.204,13.9093324 106.155,13.7600006 106.057,13.648 C105.959,13.5359994 105.788668,13.4356671 105.546,13.347 C105.303332,13.2583329 104.944002,13.1626672 104.468,13.06 C103.646663,12.8826658 103.056335,12.6423349 102.697,12.339 C102.337665,12.0356651 102.158,11.6226693 102.158,11.1 C102.158,10.6986647 102.274665,10.3370016 102.508,10.015 C102.741334,9.69299839 103.063331,9.44333422 103.474,9.266 C103.884669,9.08866578 104.351331,9 104.874,9 C105.247335,9 105.611332,9.04899951 105.966,9.147 C106.320668,9.24500049 106.633332,9.3873324 106.904,9.574 C107.212002,9.77933436 107.366,10.017332 107.366,10.288 C107.366,10.4373341 107.321667,10.5633328 107.233,10.666 C107.144333,10.7686672 107.039334,10.82 106.918,10.82 C106.834,10.82 106.75,10.8013335 106.666,10.764 C106.582,10.7266665 106.470001,10.6660004 106.33,10.582 C106.077999,10.4326659 105.842334,10.3160004 105.623,10.232 C105.403666,10.1479996 105.130668,10.106 104.804,10.106 C104.411998,10.106 104.097001,10.1899992 103.859,10.358 C103.620999,10.5260008 103.502,10.7546652 103.502,11.044 C103.502,11.3053346 103.611666,11.5083326 103.831,11.653 C104.050334,11.7976674 104.46333,11.9353327 105.07,12.066 C105.695336,12.1966673 106.185332,12.3459992 106.54,12.514 C106.894668,12.6820008 107.148999,12.8896654 107.303,13.137 C107.457001,13.3843346 107.534,13.6993314 107.534,14.082 C107.534,14.6886697 107.279669,15.1763315 106.771,15.545 C106.262331,15.9136685 105.583338,16.098 104.734,16.098 Z M113.972,9 C114.877338,9 115.551664,9.22866438 115.995,9.686 C116.438336,10.1433356 116.66,10.838662 116.66,11.772 L116.66,15.398 C116.66,15.6126677 116.599334,15.7783328 116.478,15.895 C116.356666,16.0116673 116.188668,16.07 115.974,16.07 C115.768666,16.07 115.605334,16.0093339 115.484,15.888 C115.362666,15.7666661 115.302,15.6033344 115.302,15.398 L115.302,14.88 C115.124666,15.272002 114.861002,15.5729989 114.511,15.783 C114.160998,15.9930011 113.752669,16.098 113.286,16.098 C112.837998,16.098 112.427335,16.0070009 112.054,15.825 C111.680665,15.6429991 111.389001,15.3886683 111.179,15.062 C110.968999,14.7353317 110.864,14.3713353 110.864,13.97 C110.864,13.4753309 110.992332,13.0856681 111.249,12.801 C111.505668,12.5163319 111.93033,12.3133339 112.523,12.192 C113.11567,12.0706661 113.929995,12.01 114.966,12.01 L115.288,12.01 L115.288,11.604 C115.288,11.0813307 115.180668,10.7033345 114.966,10.47 C114.751332,10.2366655 114.406002,10.12 113.93,10.12 C113.603332,10.12 113.295335,10.1619996 113.006,10.246 C112.716665,10.3300004 112.399335,10.4513325 112.054,10.61 C111.801999,10.7500007 111.624667,10.82 111.522,10.82 C111.381999,10.82 111.267667,10.7686672 111.179,10.666 C111.090333,10.5633328 111.046,10.4326675 111.046,10.274 C111.046,10.1339993 111.085666,10.0103339 111.165,9.903 C111.244334,9.79566613 111.372666,9.69066718 111.55,9.588 C111.876668,9.41066578 112.259331,9.26833387 112.698,9.161 C113.136669,9.05366613 113.561331,9 113.972,9 Z M113.538,15.048 C114.051336,15.048 114.471332,14.8730017 114.798,14.523 C115.124668,14.1729982 115.288,13.7226694 115.288,13.172 L115.288,12.808 L115.036,12.808 C114.307996,12.808 113.748002,12.8406663 113.356,12.906 C112.963998,12.9713337 112.684001,13.0809992 112.516,13.235 C112.347999,13.3890008 112.264,13.6106652 112.264,13.9 C112.264,14.2360017 112.385332,14.5113323 112.628,14.726 C112.870668,14.9406677 113.173998,15.048 113.538,15.048 Z M121.306,16.07 C121.100666,16.07 120.930334,16.0140006 120.795,15.902 C120.659666,15.7899994 120.592,15.6220011 120.592,15.398 L120.592,9.714 C120.592,9.48999888 120.659666,9.31966725 120.795,9.203 C120.930334,9.08633275 121.100666,9.028 121.306,9.028 C121.511334,9.028 121.679333,9.08633275 121.81,9.203 C121.940667,9.31966725 122.006,9.48999888 122.006,9.714 L122.006,15.398 C122.006,15.6220011 121.940667,15.7899994 121.81,15.902 C121.679333,16.0140006 121.511334,16.07 121.306,16.07 Z M121.306,7.656 C121.035332,7.656 120.820667,7.58133408 120.662,7.432 C120.503333,7.28266592 120.424,7.08666788 120.424,6.844 C120.424,6.60133212 120.503333,6.40766739 120.662,6.263 C120.820667,6.11833261 121.035332,6.046 121.306,6.046 C121.567335,6.046 121.779666,6.11833261 121.943,6.263 C122.106334,6.40766739 122.188,6.60133212 122.188,6.844 C122.188,7.08666788 122.108667,7.28266592 121.95,7.432 C121.791333,7.58133408 121.576668,7.656 121.306,7.656 Z" id="Combined-Shape"></path>
        </g>
    </g>
</svg>