<?xml version="1.0" encoding="UTF-8"?>
<svg width="138px" height="19px" viewBox="0 0 138 19" version="1.1" xmlns="http://www.w3.org/2000/svg" xmlns:xlink="http://www.w3.org/1999/xlink">
    <!-- Generator: Sketch 48.2 (47327) - http://www.bohemiancoding.com/sketch -->
    <title>PDF_English Copy</title>
    <desc>Created with Sketch.</desc>
    <defs></defs>
    <g id="PDF水印-正式版" stroke="none" stroke-width="1" fill="none" fill-rule="evenodd" transform="translate(-201.000000, -65.000000)">
        <g id="PDF_English-Copy" transform="translate(201.000000, 65.000000)" fill="#434B54" fill-rule="nonzero">
            <path d="M14.8698746,2.43197347 C15.1826487,2.05115611 15.1210211,1.49409216 14.7322255,1.1877363 C14.34343,0.881380438 13.7746954,0.941743406 13.4619213,1.32256076 L7.53471424,8.53921782 L1.60750715,1.32256076 C1.29473307,0.941743406 0.72599849,0.881380438 0.337202922,1.1877363 C-0.0515926442,1.49409216 -0.11322023,2.05115611 0.199553857,2.43197347 L6.37514445,9.95104928 L0.199553857,17.4701251 C-0.11322023,17.8509424 -0.0515926442,18.4080065 0.337202922,18.7143623 C0.72599849,19.0207181 1.29473307,18.9603551 1.60750715,18.5795378 L7.53471424,11.3628808 L13.4619213,18.5795378 C13.7746954,18.9603551 14.34343,19.0207181 14.7322255,18.7143623 C15.1210211,18.4080065 15.1826487,17.8509424 14.8698746,17.4701251 L8.69428402,9.95104928 L14.8698746,2.43197347 Z M50.6374084,10.8080429 C50.6555187,8.79165851 52.7671359,7.01895674 54.744168,6.82885443 C56.6608146,6.64455852 57.5642288,7.43548048 58.1876563,8.80699626 C58.5603195,9.62684093 58.5573447,10.4595809 58.5573447,11.357018 L58.5573447,18.0248314 C58.5573447,18.5135807 58.9618549,18.9097902 59.4608434,18.9097902 C59.9598321,18.9097902 60.3643422,18.5135807 60.3643422,18.0248314 L60.3643422,11.2668082 C60.3643422,9.58518842 60.2262181,8.87729651 59.8473858,7.92969658 C59.1336171,6.14429612 57.1255851,4.67684242 54.4982689,5.02126561 C52.9224545,5.22784411 51.5416897,6.00404195 50.6199095,7.15279493 L50.6199095,6.11713038 C50.6199095,5.62838118 50.2153993,5.23217169 49.7164107,5.23217169 C49.2174222,5.23217169 48.812912,5.62838118 48.812912,6.11713038 L48.812912,18.0248314 C48.812912,18.5135807 49.2174222,18.9097902 49.7164107,18.9097902 C50.2153993,18.9097902 50.6199095,18.5135807 50.6199095,18.0248314 L50.6199095,11.0050034 C50.6308999,10.9368855 50.636847,10.8705638 50.6374084,10.8080429 Z M74.9692478,0.884958693 C74.9692478,0.396209502 75.373758,0 75.8727465,0 C76.3717352,0 76.7762454,0.396209502 76.7762454,0.884958693 L76.7762454,18.0248314 C76.7762454,18.5135807 76.3717352,18.9097902 75.8727465,18.9097902 C75.373758,18.9097902 74.9692478,18.5135807 74.9692478,18.0248314 L74.9692478,16.755258 C73.7897903,18.1332812 72.0990245,19 70.2086105,19 C66.608883,19 63.7330753,15.8572948 63.7330753,12.025876 C63.7330753,8.19445717 66.608883,5.05175198 70.2086105,5.05175198 C72.0990245,5.05175198 73.7897903,5.91847072 74.9692478,7.29649393 L74.9692478,0.884958693 Z M41.9514788,1.6968474 C41.9514788,1.1333659 42.4178407,0.676573887 42.9931272,0.676573887 C43.5684139,0.676573887 44.0347758,1.1333659 44.0347758,1.6968474 L44.0347758,2.05768684 C44.0347758,2.62116833 43.5684139,3.07796034 42.9931272,3.07796034 C42.4178407,3.07796034 41.9514788,2.62116833 41.9514788,2.05768684 L41.9514788,1.6968474 Z M42.0896284,5.75629094 C42.0896284,5.26754176 42.4941386,4.87133225 42.9931272,4.87133225 C43.4921159,4.87133225 43.8966261,5.26754176 43.8966261,5.75629094 L43.8966261,18.0248314 C43.8966261,18.5135807 43.4921159,18.9097902 42.9931272,18.9097902 C42.4941386,18.9097902 42.0896284,18.5135807 42.0896284,18.0248314 L42.0896284,5.75629094 Z M70.2086105,17.2300827 C72.7635843,17.2300827 74.877148,14.9203635 74.877148,12.025876 C74.877148,9.1313885 72.7635843,6.82166936 70.2086105,6.82166936 C67.6536367,6.82166936 65.5400728,9.1313885 65.5400728,12.025876 C65.5400728,14.9203635 67.6536367,17.2300827 70.2086105,17.2300827 Z M26.9848481,13.798379 C26.9434757,13.7326565 25.0697944,10.6642015 21.3441454,4.64821325 L20.4040292,18.0839296 C20.3693773,18.5714989 19.9442863,18.9415945 19.4465023,18.9076537 C18.9487184,18.8737129 18.5674848,18.4527467 18.6021367,17.9651776 L19.75117,1.81581193 C19.8122936,0.95577124 21.0421991,0.680310879 21.5008306,1.41614745 C24.8959848,6.86339272 27.0573206,10.3829066 28.0294229,11.942196 C29.0008752,10.3821449 31.1631472,6.86374856 34.5580152,1.41651889 C35.0164364,0.680960051 36.2552227,0.954701273 36.3076758,1.81518064 L37.4567091,17.9651776 C37.4864494,18.4530579 37.110445,18.8790871 36.6123435,18.9082169 C36.1142418,18.9373468 35.6845567,18.5718099 35.6548166,18.0839296 L34.7147004,4.64821325 C30.9890514,10.6708946 29.1175927,13.7310064 29.0739977,13.7987494 C28.8653433,14.1229812 28.4519113,14.3194191 28.0294229,14.3194866 C27.6069345,14.3195542 27.1877166,14.120647 26.9848481,13.798379 Z M110.550829,16.8785432 L119.255619,16.8785432 C119.75464,16.8785432 120.159176,17.2727324 120.159176,17.7589896 C120.159176,18.2452467 119.75464,18.639436 119.255619,18.639436 L109.419207,18.639436 C108.920186,18.639436 108.51565,18.2452467 108.51565,17.7589896 L108.51565,2.09949603 C108.51565,1.61323889 108.920186,1.21904959 109.419207,1.21904959 L119.255619,1.21904959 C119.75464,1.21904959 120.159176,1.61323889 120.159176,2.09949603 C120.159176,2.58575316 119.75464,2.97994246 119.255619,2.97994246 L110.550829,2.97994246 L110.550829,8.90450056 L118.768355,8.90450056 C119.267376,8.90450056 119.671912,9.29868984 119.671912,9.78494699 C119.671912,10.2712041 119.267376,10.6653934 118.768355,10.6653934 L110.550829,10.6653934 L110.550829,16.8785432 Z M92.1046027,17.2333831 L102.59144,3.01009381 L92.844233,3.01009381 C92.3452122,3.01009381 91.9406759,2.61590453 91.9406759,2.12964738 C91.9406759,1.64339026 92.3452122,1.24920096 92.844233,1.24920096 L104.329285,1.24920096 C104.980062,1.24920096 105.485517,1.95379202 105.068916,2.63537393 L94.5820778,16.8586632 L104.557446,16.8586632 C105.056467,16.8586632 105.461003,17.2528525 105.461003,17.7391096 C105.461003,18.2253668 105.056467,18.619556 104.557446,18.619556 L92.844233,18.619556 C92.132676,18.619556 91.7124617,17.8333947 92.1046027,17.2333831 Z M136.249851,18.4258816 L125.380095,4.68100832 L125.380095,17.9499207 C125.380095,18.4361777 125.014297,18.8894175 124.424513,18.8804813 C123.83473,18.8715452 123.468729,18.4361777 123.468729,17.9499207 L123.468729,2.10525295 C123.468729,1.2024622 124.634652,0.825559344 125.216594,1.56716701 L136.090674,15.3729642 L136.090674,2.10525295 C136.090674,1.61899581 136.479202,1.18012783 137.044716,1.17349121 C137.610229,1.1668546 138,1.61899581 138,2.10525295 L138,17.8429619 C138,18.7748795 136.880799,19.1401956 136.249851,18.4258816 Z M84.7846519,8.99107143 C84.0154483,8.99107143 83.3918856,8.38345788 83.3918856,7.63392857 C83.3918856,6.88439927 84.0154483,6.27678571 84.7846519,6.27678571 C85.5538555,6.27678571 86.1774183,6.88439927 86.1774183,7.63392857 C86.1774183,8.38345788 85.5538555,8.99107143 84.7846519,8.99107143 Z M84.7846519,15.7767857 C84.0154483,15.7767857 83.3918856,15.1691722 83.3918856,14.4196429 C83.3918856,13.6701136 84.0154483,13.0625 84.7846519,13.0625 C85.5538555,13.0625 86.1774183,13.6701136 86.1774183,14.4196429 C86.1774183,15.1691722 85.5538555,15.7767857 84.7846519,15.7767857 Z" id="Combined-Shape"></path>
        </g>
    </g>
</svg>