<?xml version="1.0" encoding="UTF-8"?>
<svg width="358px" height="20px" viewBox="0 0 358 20" version="1.1" xmlns="http://www.w3.org/2000/svg" xmlns:xlink="http://www.w3.org/1999/xlink">
    <!-- Generator: Sketch 48.2 (47327) - http://www.bohemiancoding.com/sketch -->
    <title>PDF_German</title>
    <desc>Created with Sketch.</desc>
    <defs></defs>
    <g id="PDF水印" stroke="none" stroke-width="1" fill="none" fill-rule="evenodd" transform="translate(-90.000000, -241.000000)">
        <g id="PDF_German" transform="translate(90.000000, 241.000000)" fill="#434B54" fill-rule="nonzero">
            <path d="M126.357693,3.13197042 C126.670467,2.75115306 126.608839,2.19408911 126.220044,1.88773325 C125.831248,1.58137739 125.262513,1.64174035 124.949739,2.02255771 L119.022532,9.23921477 L113.095325,2.02255771 C112.782551,1.64174035 112.213816,1.58137739 111.825021,1.88773325 C111.436225,2.19408911 111.374598,2.75115306 111.687372,3.13197042 L117.862962,10.6510462 L111.687372,18.170122 C111.374598,18.5509394 111.436225,19.1080034 111.825021,19.4143593 C112.213816,19.7207151 112.782551,19.6603521 113.095325,19.2795348 L119.022532,12.0628777 L124.949739,19.2795348 C125.262513,19.6603521 125.831248,19.7207151 126.220044,19.4143593 C126.608839,19.1080034 126.670467,18.5509394 126.357693,18.170122 L120.182102,10.6510462 L126.357693,3.13197042 Z M162.125226,11.5080399 C162.143337,9.49165545 164.254954,7.71895369 166.231986,7.52885138 C168.148633,7.34455547 169.052047,8.13547742 169.675474,9.5069932 C170.048137,10.3268379 170.045163,11.1595779 170.045163,12.057015 L170.045163,18.7248284 C170.045163,19.2135776 170.449673,19.6097872 170.948661,19.6097872 C171.44765,19.6097872 171.85216,19.2135776 171.85216,18.7248284 L171.85216,11.9668051 C171.85216,10.2851854 171.714036,9.57729346 171.335204,8.62969353 C170.621435,6.84429307 168.613403,5.37683937 165.986087,5.72126256 C164.410273,5.92784106 163.029508,6.7040389 162.107728,7.85279188 L162.107728,6.81712733 C162.107728,6.32837813 161.703217,5.93216863 161.204229,5.93216863 C160.70524,5.93216863 160.30073,6.32837813 160.30073,6.81712733 L160.30073,18.7248284 C160.30073,19.2135776 160.70524,19.6097872 161.204229,19.6097872 C161.703217,19.6097872 162.107728,19.2135776 162.107728,18.7248284 L162.107728,11.7050003 C162.118718,11.6368824 162.124665,11.5705607 162.125226,11.5080399 Z M186.457066,1.58495564 C186.457066,1.09620645 186.861576,0.699996948 187.360565,0.699996948 C187.859553,0.699996948 188.264063,1.09620645 188.264063,1.58495564 L188.264063,18.7248284 C188.264063,19.2135776 187.859553,19.6097872 187.360565,19.6097872 C186.861576,19.6097872 186.457066,19.2135776 186.457066,18.7248284 L186.457066,17.455255 C185.277608,18.8332782 183.586842,19.6999969 181.696429,19.6999969 C178.096701,19.6999969 175.220893,16.5572918 175.220893,12.7258729 C175.220893,8.89445412 178.096701,5.75174893 181.696429,5.75174893 C183.586842,5.75174893 185.277608,6.61846767 186.457066,7.99649088 L186.457066,1.58495564 Z M153.439297,2.39684435 C153.439297,1.83336285 153.905659,1.37657084 154.480945,1.37657084 C155.056232,1.37657084 155.522594,1.83336285 155.522594,2.39684435 L155.522594,2.75768378 C155.522594,3.32116527 155.056232,3.77795729 154.480945,3.77795729 C153.905659,3.77795729 153.439297,3.32116527 153.439297,2.75768378 L153.439297,2.39684435 Z M153.577446,6.45628789 C153.577446,5.96753871 153.981957,5.5713292 154.480945,5.5713292 C154.979934,5.5713292 155.384444,5.96753871 155.384444,6.45628789 L155.384444,18.7248284 C155.384444,19.2135776 154.979934,19.6097872 154.480945,19.6097872 C153.981957,19.6097872 153.577446,19.2135776 153.577446,18.7248284 L153.577446,6.45628789 Z M181.696429,17.9300796 C184.251402,17.9300796 186.364966,15.6203604 186.364966,12.7258729 C186.364966,9.83138545 184.251402,7.52166631 181.696429,7.52166631 C179.141455,7.52166631 177.027891,9.83138545 177.027891,12.7258729 C177.027891,15.6203604 179.141455,17.9300796 181.696429,17.9300796 Z M138.472666,14.4983759 C138.431294,14.4326535 136.557612,11.3641985 132.831963,5.3482102 L131.891847,18.7839265 C131.857195,19.2714959 131.432104,19.6415915 130.93432,19.6076507 C130.436536,19.5737099 130.055303,19.1527437 130.089955,18.6651745 L131.238988,2.51580888 C131.300112,1.65576819 132.530017,1.38030783 132.988649,2.1161444 C136.383803,7.56338966 138.545139,11.0829035 139.517241,12.642193 C140.488693,11.0821419 142.650965,7.56374551 146.045833,2.11651584 C146.504254,1.380957 147.743041,1.65469822 147.795494,2.51517759 L148.944527,18.6651745 C148.974267,19.1530548 148.598263,19.579084 148.100161,19.6082139 C147.60206,19.6373438 147.172375,19.2718068 147.142635,18.7839265 L146.202518,5.3482102 C142.476869,11.3708915 140.605411,14.4310034 140.561816,14.4987463 C140.353161,14.8229782 139.939729,15.019416 139.517241,15.0194836 C139.094753,15.0195511 138.675535,14.820644 138.472666,14.4983759 Z M222.038647,17.5785401 L230.743437,17.5785401 C231.242458,17.5785401 231.646994,17.9727293 231.646994,18.4589865 C231.646994,18.9452437 231.242458,19.3394329 230.743437,19.3394329 L220.907025,19.3394329 C220.408004,19.3394329 220.003468,18.9452437 220.003468,18.4589865 L220.003468,2.79949298 C220.003468,2.31323584 220.408004,1.91904654 220.907025,1.91904654 L230.743437,1.91904654 C231.242458,1.91904654 231.646994,2.31323584 231.646994,2.79949298 C231.646994,3.28575011 231.242458,3.67993941 230.743437,3.67993941 L222.038647,3.67993941 L222.038647,9.60449751 L230.256173,9.60449751 C230.755194,9.60449751 231.15973,9.99868679 231.15973,10.4849439 C231.15973,10.9712011 230.755194,11.3653904 230.256173,11.3653904 L222.038647,11.3653904 L222.038647,17.5785401 Z M203.592421,17.93338 L214.079258,3.71009076 L204.332051,3.71009076 C203.83303,3.71009076 203.428494,3.31590148 203.428494,2.82964433 C203.428494,2.3433872 203.83303,1.94919791 204.332051,1.94919791 L215.817103,1.94919791 C216.46788,1.94919791 216.973335,2.65378897 216.556734,3.33537088 L206.069896,17.5586601 L216.045264,17.5586601 C216.544285,17.5586601 216.948821,17.9528494 216.948821,18.4391066 C216.948821,18.9253637 216.544285,19.319553 216.045264,19.319553 L204.332051,19.319553 C203.620494,19.319553 203.20028,18.5333917 203.592421,17.93338 Z M247.737669,19.1258785 L236.867913,5.38100527 L236.867913,18.6499177 C236.867913,19.1361747 236.502115,19.5894144 235.912331,19.5804783 C235.322548,19.5715422 234.956547,19.1361747 234.956547,18.6499177 L234.956547,2.80524989 C234.956547,1.90245915 236.12247,1.52555629 236.704412,2.26716396 L247.578492,16.0729611 L247.578492,2.80524989 C247.578492,2.31899276 247.96702,1.88012477 248.532534,1.87348816 C249.098047,1.86685154 249.487818,2.31899276 249.487818,2.80524989 L249.487818,18.5429589 C249.487818,19.4748765 248.368617,19.8401925 247.737669,19.1258785 Z M196.27247,9.69106838 C195.503266,9.69106838 194.879704,9.08345482 194.879704,8.33392552 C194.879704,7.58439622 195.503266,6.97678266 196.27247,6.97678266 C197.041674,6.97678266 197.665236,7.58439622 197.665236,8.33392552 C197.665236,9.08345482 197.041674,9.69106838 196.27247,9.69106838 Z M196.27247,16.4767827 C195.503266,16.4767827 194.879704,15.8691691 194.879704,15.1196398 C194.879704,14.3701105 195.503266,13.7624969 196.27247,13.7624969 C197.041674,13.7624969 197.665236,14.3701105 197.665236,15.1196398 C197.665236,15.8691691 197.041674,16.4767827 196.27247,16.4767827 Z M270.228,16.07 C270.013332,16.07 269.838334,16.002334 269.703,15.867 C269.567666,15.731666 269.5,15.5566677 269.5,15.342 L269.5,7.334 L266.7,7.334 C266.251998,7.334 266.028,7.13333534 266.028,6.732 C266.028,6.53599902 266.086333,6.38666718 266.203,6.284 C266.319667,6.18133282 266.485332,6.13 266.7,6.13 L273.756,6.13 C273.970668,6.13 274.136333,6.18133282 274.253,6.284 C274.369667,6.38666718 274.428,6.53599902 274.428,6.732 C274.428,7.13333534 274.204002,7.334 273.756,7.334 L270.956,7.334 L270.956,15.342 C270.956,15.5566677 270.890667,15.731666 270.76,15.867 C270.629333,16.002334 270.452001,16.07 270.228,16.07 Z M281.72,14.278 C281.850667,14.278 281.958,14.3293328 282.042,14.432 C282.126,14.5346672 282.168,14.6653325 282.168,14.824 C282.168,15.094668 282.000002,15.3233324 281.664,15.51 C281.337332,15.6966676 280.980335,15.8413328 280.593,15.944 C280.205665,16.0466672 279.834668,16.098 279.48,16.098 C278.397328,16.098 277.543336,15.7830031 276.918,15.153 C276.292664,14.5229969 275.98,13.6620055 275.98,12.57 C275.98,11.8699965 276.117665,11.249336 276.393,10.708 C276.668335,10.166664 277.055664,9.74666816 277.555,9.448 C278.054336,9.14933184 278.62133,9 279.256,9 C280.170671,9 280.893997,9.29399706 281.426,9.882 C281.958003,10.4700029 282.224,11.2633283 282.224,12.262 C282.224,12.6353352 282.056002,12.822 281.72,12.822 L277.394,12.822 C277.487334,14.2686739 278.18266,14.992 279.48,14.992 C279.825335,14.992 280.123999,14.9453338 280.376,14.852 C280.628001,14.7586662 280.893999,14.6373341 281.174,14.488 C281.202,14.4693332 281.278999,14.429667 281.405,14.369 C281.531001,14.308333 281.636,14.278 281.72,14.278 Z M279.284,10.036 C278.742664,10.036 278.308668,10.2086649 277.982,10.554 C277.655332,10.8993351 277.459334,11.3846635 277.394,12.01 L281.006,12.01 C280.978,11.3753302 280.817001,10.8876684 280.523,10.547 C280.228999,10.2063316 279.816003,10.036 279.284,10.036 Z M288.158,16.098 C287.205995,16.098 286.42667,15.902002 285.82,15.51 C285.651999,15.4073328 285.533,15.3000006 285.463,15.188 C285.393,15.0759994 285.358,14.9500007 285.358,14.81 C285.358,14.6606659 285.4,14.5346672 285.484,14.432 C285.568,14.3293328 285.675333,14.278 285.806,14.278 C285.927334,14.278 286.118665,14.3526659 286.38,14.502 C286.660001,14.6513341 286.932999,14.7726662 287.199,14.866 C287.465001,14.9593338 287.798665,15.006 288.2,15.006 C288.648002,15.006 288.997999,14.9266675 289.25,14.768 C289.502001,14.6093325 289.628,14.3853348 289.628,14.096 C289.628,13.9093324 289.579,13.7600006 289.481,13.648 C289.383,13.5359994 289.212668,13.4356671 288.97,13.347 C288.727332,13.2583329 288.368002,13.1626672 287.892,13.06 C287.070663,12.8826658 286.480335,12.6423349 286.121,12.339 C285.761665,12.0356651 285.582,11.6226693 285.582,11.1 C285.582,10.6986647 285.698666,10.3370016 285.932,10.015 C286.165334,9.69299839 286.487331,9.44333422 286.898,9.266 C287.308669,9.08866578 287.775331,9 288.298,9 C288.671335,9 289.035332,9.04899951 289.39,9.147 C289.744668,9.24500049 290.057332,9.3873324 290.328,9.574 C290.636002,9.77933436 290.79,10.017332 290.79,10.288 C290.79,10.4373341 290.745667,10.5633328 290.657,10.666 C290.568333,10.7686672 290.463334,10.82 290.342,10.82 C290.258,10.82 290.174,10.8013335 290.09,10.764 C290.006,10.7266665 289.894001,10.6660004 289.754,10.582 C289.501999,10.4326659 289.266334,10.3160004 289.047,10.232 C288.827666,10.1479996 288.554668,10.106 288.228,10.106 C287.835998,10.106 287.521001,10.1899992 287.283,10.358 C287.044999,10.5260008 286.926,10.7546652 286.926,11.044 C286.926,11.3053346 287.035666,11.5083326 287.255,11.653 C287.474334,11.7976674 287.88733,11.9353327 288.494,12.066 C289.119336,12.1966673 289.609332,12.3459992 289.964,12.514 C290.318668,12.6820008 290.572999,12.8896654 290.727,13.137 C290.881001,13.3843346 290.958,13.6993314 290.958,14.082 C290.958,14.6886697 290.703669,15.1763315 290.195,15.545 C289.686331,15.9136685 289.007338,16.098 288.158,16.098 Z M297.802,14.992 C298.007334,15.0106668 298.154333,15.0643329 298.243,15.153 C298.331667,15.2416671 298.376,15.3653325 298.376,15.524 C298.376,15.7106676 298.303667,15.8529995 298.159,15.951 C298.014333,16.0490005 297.802001,16.0886668 297.522,16.07 L297.144,16.042 C296.387996,15.9859997 295.823335,15.755002 295.45,15.349 C295.076665,14.942998 294.89,14.3433373 294.89,13.55 L294.89,10.26 L294.05,10.26 C293.639331,10.26 293.434,10.0780018 293.434,9.714 C293.434,9.54599916 293.487666,9.41300049 293.595,9.315 C293.702334,9.21699951 293.853999,9.168 294.05,9.168 L294.89,9.168 L294.89,7.726 C294.89,7.51133226 294.952999,7.34333394 295.079,7.222 C295.205001,7.10066606 295.375332,7.04 295.59,7.04 C295.804668,7.04 295.977333,7.10066606 296.108,7.222 C296.238667,7.34333394 296.304,7.51133226 296.304,7.726 L296.304,9.168 L297.69,9.168 C297.886001,9.168 298.037666,9.21699951 298.145,9.315 C298.252334,9.41300049 298.306,9.54599916 298.306,9.714 C298.306,9.89133422 298.252334,10.0266662 298.145,10.12 C298.037666,10.2133338 297.886001,10.26 297.69,10.26 L296.304,10.26 L296.304,13.648 C296.304,14.0866689 296.394999,14.4086656 296.577,14.614 C296.759001,14.8193344 297.036665,14.9359999 297.41,14.964 L297.802,14.992 Z M306.354,9.448 C306.41,9.3079993 306.491666,9.20533366 306.599,9.14 C306.706334,9.07466634 306.820666,9.042 306.942,9.042 C307.119334,9.042 307.275666,9.10266606 307.411,9.224 C307.546334,9.34533394 307.614,9.48999916 307.614,9.658 C307.614,9.7513338 307.595334,9.83999958 307.558,9.924 L304.884,15.594 C304.818666,15.7433341 304.718334,15.8576663 304.583,15.937 C304.447666,16.0163337 304.305334,16.056 304.156,16.056 C304.006666,16.056 303.864334,16.0163337 303.729,15.937 C303.593666,15.8576663 303.493334,15.7433341 303.428,15.594 L300.754,9.924 C300.716666,9.84933296 300.698,9.76066718 300.698,9.658 C300.698,9.48999916 300.772666,9.34533394 300.922,9.224 C301.071334,9.10266606 301.239332,9.042 301.426,9.042 C301.696668,9.042 301.897333,9.17266536 302.028,9.434 L304.198,14.25 L306.354,9.448 Z M316.026,14.278 C316.156667,14.278 316.264,14.3293328 316.348,14.432 C316.432,14.5346672 316.474,14.6653325 316.474,14.824 C316.474,15.094668 316.306002,15.3233324 315.97,15.51 C315.643332,15.6966676 315.286335,15.8413328 314.899,15.944 C314.511665,16.0466672 314.140668,16.098 313.786,16.098 C312.703328,16.098 311.849336,15.7830031 311.224,15.153 C310.598664,14.5229969 310.286,13.6620055 310.286,12.57 C310.286,11.8699965 310.423665,11.249336 310.699,10.708 C310.974335,10.166664 311.361664,9.74666816 311.861,9.448 C312.360336,9.14933184 312.92733,9 313.562,9 C314.476671,9 315.199997,9.29399706 315.732,9.882 C316.264003,10.4700029 316.53,11.2633283 316.53,12.262 C316.53,12.6353352 316.362002,12.822 316.026,12.822 L311.7,12.822 C311.793334,14.2686739 312.48866,14.992 313.786,14.992 C314.131335,14.992 314.429999,14.9453338 314.682,14.852 C314.934001,14.7586662 315.199999,14.6373341 315.48,14.488 C315.508,14.4693332 315.584999,14.429667 315.711,14.369 C315.837001,14.308333 315.942,14.278 316.026,14.278 Z M313.59,10.036 C313.048664,10.036 312.614668,10.2086649 312.288,10.554 C311.961332,10.8993351 311.765334,11.3846635 311.7,12.01 L315.312,12.01 C315.284,11.3753302 315.123001,10.8876684 314.829,10.547 C314.534999,10.2063316 314.122003,10.036 313.59,10.036 Z M323.668,9.028 C324.116002,8.99999986 324.34,9.19133128 324.34,9.602 C324.34,9.80733436 324.288667,9.96133282 324.186,10.064 C324.083333,10.1666672 323.906001,10.2273332 323.654,10.246 L323.234,10.288 C322.645997,10.3440003 322.209668,10.5493316 321.925,10.904 C321.640332,11.2586684 321.498,11.6879975 321.498,12.192 L321.498,15.398 C321.498,15.6220011 321.432667,15.7899994 321.302,15.902 C321.171333,16.0140006 321.003334,16.07 320.798,16.07 C320.592666,16.07 320.422334,16.0140006 320.287,15.902 C320.151666,15.7899994 320.084,15.6220011 320.084,15.398 L320.084,9.7 C320.084,9.48533226 320.151666,9.31966725 320.287,9.203 C320.422334,9.08633275 320.592666,9.028 320.798,9.028 C320.984668,9.028 321.140999,9.08633275 321.267,9.203 C321.393001,9.31966725 321.456,9.48066564 321.456,9.686 L321.456,10.358 C321.642668,9.94733128 321.913332,9.63466774 322.268,9.42 C322.622668,9.20533226 323.023998,9.07933352 323.472,9.042 L323.668,9.028 Z M329.518,16.098 C328.565995,16.098 327.78667,15.902002 327.18,15.51 C327.011999,15.4073328 326.893,15.3000006 326.823,15.188 C326.753,15.0759994 326.718,14.9500007 326.718,14.81 C326.718,14.6606659 326.76,14.5346672 326.844,14.432 C326.928,14.3293328 327.035333,14.278 327.166,14.278 C327.287334,14.278 327.478665,14.3526659 327.74,14.502 C328.020001,14.6513341 328.292999,14.7726662 328.559,14.866 C328.825001,14.9593338 329.158665,15.006 329.56,15.006 C330.008002,15.006 330.357999,14.9266675 330.61,14.768 C330.862001,14.6093325 330.988,14.3853348 330.988,14.096 C330.988,13.9093324 330.939,13.7600006 330.841,13.648 C330.743,13.5359994 330.572668,13.4356671 330.33,13.347 C330.087332,13.2583329 329.728002,13.1626672 329.252,13.06 C328.430663,12.8826658 327.840335,12.6423349 327.481,12.339 C327.121665,12.0356651 326.942,11.6226693 326.942,11.1 C326.942,10.6986647 327.058666,10.3370016 327.292,10.015 C327.525335,9.69299839 327.847331,9.44333422 328.258,9.266 C328.668669,9.08866578 329.135331,9 329.658,9 C330.031335,9 330.395332,9.04899951 330.75,9.147 C331.104668,9.24500049 331.417332,9.3873324 331.688,9.574 C331.996002,9.77933436 332.15,10.017332 332.15,10.288 C332.15,10.4373341 332.105667,10.5633328 332.017,10.666 C331.928333,10.7686672 331.823334,10.82 331.702,10.82 C331.618,10.82 331.534,10.8013335 331.45,10.764 C331.366,10.7266665 331.254001,10.6660004 331.114,10.582 C330.861999,10.4326659 330.626334,10.3160004 330.407,10.232 C330.187666,10.1479996 329.914668,10.106 329.588,10.106 C329.195998,10.106 328.881001,10.1899992 328.643,10.358 C328.404999,10.5260008 328.286,10.7546652 328.286,11.044 C328.286,11.3053346 328.395666,11.5083326 328.615,11.653 C328.834334,11.7976674 329.24733,11.9353327 329.854,12.066 C330.479336,12.1966673 330.969332,12.3459992 331.324,12.514 C331.678668,12.6820008 331.932999,12.8896654 332.087,13.137 C332.241001,13.3843346 332.318,13.6993314 332.318,14.082 C332.318,14.6886697 332.063669,15.1763315 331.555,15.545 C331.046331,15.9136685 330.367338,16.098 329.518,16.098 Z M336.6,16.07 C336.394666,16.07 336.224334,16.0140006 336.089,15.902 C335.953666,15.7899994 335.886,15.6220011 335.886,15.398 L335.886,9.714 C335.886,9.48999888 335.953666,9.31966725 336.089,9.203 C336.224334,9.08633275 336.394666,9.028 336.6,9.028 C336.805334,9.028 336.973333,9.08633275 337.104,9.203 C337.234667,9.31966725 337.3,9.48999888 337.3,9.714 L337.3,15.398 C337.3,15.6220011 337.234667,15.7899994 337.104,15.902 C336.973333,16.0140006 336.805334,16.07 336.6,16.07 Z M336.6,7.656 C336.329332,7.656 336.114667,7.58133408 335.956,7.432 C335.797333,7.28266592 335.718,7.08666788 335.718,6.844 C335.718,6.60133212 335.797333,6.40766739 335.956,6.263 C336.114667,6.11833261 336.329332,6.046 336.6,6.046 C336.861335,6.046 337.073666,6.11833261 337.237,6.263 C337.400334,6.40766739 337.482,6.60133212 337.482,6.844 C337.482,7.08666788 337.402667,7.28266592 337.244,7.432 C337.085333,7.58133408 336.870668,7.656 336.6,7.656 Z M344.242,16.098 C343.569997,16.098 342.979669,15.9533348 342.471,15.664 C341.962331,15.3746652 341.570335,14.9616694 341.295,14.425 C341.019665,13.8883307 340.882,13.2653369 340.882,12.556 C340.882,11.8373297 341.019665,11.2096694 341.295,10.673 C341.570335,10.1363306 341.962331,9.72333478 342.471,9.434 C342.979669,9.14466522 343.569997,9 344.242,9 C344.914003,9 345.504331,9.14466522 346.013,9.434 C346.521669,9.72333478 346.913665,10.1363306 347.189,10.673 C347.464335,11.2096694 347.602,11.8373297 347.602,12.556 C347.602,13.2653369 347.464335,13.8883307 347.189,14.425 C346.913665,14.9616694 346.521669,15.3746652 346.013,15.664 C345.504331,15.9533348 344.914003,16.098 344.242,16.098 Z M344.242,14.978 C344.867336,14.978 345.345665,14.7726687 345.677,14.362 C346.008335,13.9513313 346.174,13.3493373 346.174,12.556 C346.174,11.7719961 346.006002,11.1723354 345.67,10.757 C345.333998,10.3416646 344.858003,10.134 344.242,10.134 C343.625997,10.134 343.150002,10.3416646 342.814,10.757 C342.477998,11.1723354 342.31,11.7719961 342.31,12.556 C342.31,13.3493373 342.475665,13.9513313 342.807,14.362 C343.138335,14.7726687 343.616664,14.978 344.242,14.978 Z M354.852,9 C356.485341,9 357.302,9.91932414 357.302,11.758 L357.302,15.398 C357.302,15.6126677 357.239001,15.7783328 357.113,15.895 C356.986999,16.0116673 356.812001,16.07 356.588,16.07 C356.373332,16.07 356.203001,16.0093339 356.077,15.888 C355.950999,15.7666661 355.888,15.6033344 355.888,15.398 L355.888,11.828 C355.888,11.2493304 355.773668,10.824668 355.545,10.554 C355.316332,10.283332 354.959336,10.148 354.474,10.148 C353.904664,10.148 353.447335,10.3253316 353.102,10.68 C352.756665,11.0346684 352.584,11.5106637 352.584,12.108 L352.584,15.398 C352.584,15.6033344 352.521001,15.7666661 352.395,15.888 C352.268999,16.0093339 352.098668,16.07 351.884,16.07 C351.669332,16.07 351.496667,16.0093339 351.366,15.888 C351.235333,15.7666661 351.17,15.6033344 351.17,15.398 L351.17,9.7 C351.17,9.50399902 351.237666,9.34300063 351.373,9.217 C351.508334,9.09099937 351.678666,9.028 351.884,9.028 C352.089334,9.028 352.252666,9.08866606 352.374,9.21 C352.495334,9.33133394 352.556,9.48999902 352.556,9.686 L352.556,10.26 C352.780001,9.84933128 353.092665,9.53666774 353.494,9.322 C353.895335,9.10733226 354.347997,9 354.852,9 Z M4.974,16.07 C4.75933226,16.07 4.58433401,16.002334 4.449,15.867 C4.31366599,15.731666 4.246,15.5566677 4.246,15.342 L4.246,7.334 L1.446,7.334 C0.99799776,7.334 0.774,7.13333534 0.774,6.732 C0.774,6.53599902 0.83233275,6.38666718 0.949,6.284 C1.06566725,6.18133282 1.23133226,6.13 1.446,6.13 L8.502,6.13 C8.71666774,6.13 8.88233275,6.18133282 8.999,6.284 C9.11566725,6.38666718 9.174,6.53599902 9.174,6.732 C9.174,7.13333534 8.95000224,7.334 8.502,7.334 L5.702,7.334 L5.702,15.342 C5.702,15.5566677 5.63666732,15.731666 5.506,15.867 C5.37533268,16.002334 5.19800112,16.07 4.974,16.07 Z M16.466,14.278 C16.5966673,14.278 16.7039996,14.3293328 16.788,14.432 C16.8720004,14.5346672 16.914,14.6653325 16.914,14.824 C16.914,15.094668 16.7460017,15.3233324 16.41,15.51 C16.0833317,15.6966676 15.7263353,15.8413328 15.339,15.944 C14.9516647,16.0466672 14.5806684,16.098 14.226,16.098 C13.1433279,16.098 12.2893365,15.7830031 11.664,15.153 C11.0386635,14.5229969 10.726,13.6620055 10.726,12.57 C10.726,11.8699965 10.8636653,11.249336 11.139,10.708 C11.4143347,10.166664 11.8016642,9.74666816 12.301,9.448 C12.8003358,9.14933184 13.3673302,9 14.002,9 C14.9166712,9 15.6399973,9.29399706 16.172,9.882 C16.7040027,10.4700029 16.97,11.2633283 16.97,12.262 C16.97,12.6353352 16.8020017,12.822 16.466,12.822 L12.14,12.822 C12.2333338,14.2686739 12.9286602,14.992 14.226,14.992 C14.5713351,14.992 14.8699987,14.9453338 15.122,14.852 C15.3740013,14.7586662 15.6399986,14.6373341 15.92,14.488 C15.9480001,14.4693332 16.0249994,14.429667 16.151,14.369 C16.2770006,14.308333 16.3819996,14.278 16.466,14.278 Z M14.03,10.036 C13.488664,10.036 13.0546683,10.2086649 12.728,10.554 C12.4013317,10.8993351 12.2053337,11.3846635 12.14,12.01 L15.752,12.01 C15.7239999,11.3753302 15.5630015,10.8876684 15.269,10.547 C14.9749985,10.2063316 14.5620027,10.036 14.03,10.036 Z M22.904,16.098 C21.9519952,16.098 21.1726697,15.902002 20.566,15.51 C20.3979992,15.4073328 20.2790003,15.3000006 20.209,15.188 C20.1389996,15.0759994 20.104,14.9500007 20.104,14.81 C20.104,14.6606659 20.1459996,14.5346672 20.23,14.432 C20.3140004,14.3293328 20.4213327,14.278 20.552,14.278 C20.6733339,14.278 20.8646654,14.3526659 21.126,14.502 C21.4060014,14.6513341 21.6789987,14.7726662 21.945,14.866 C22.2110013,14.9593338 22.5446647,15.006 22.946,15.006 C23.3940022,15.006 23.7439987,14.9266675 23.996,14.768 C24.2480013,14.6093325 24.374,14.3853348 24.374,14.096 C24.374,13.9093324 24.3250005,13.7600006 24.227,13.648 C24.1289995,13.5359994 23.9586679,13.4356671 23.716,13.347 C23.4733321,13.2583329 23.1140024,13.1626672 22.638,13.06 C21.8166626,12.8826658 21.2263351,12.6423349 20.867,12.339 C20.5076649,12.0356651 20.328,11.6226693 20.328,11.1 C20.328,10.6986647 20.4446655,10.3370016 20.678,10.015 C20.9113345,9.69299839 21.2333313,9.44333422 21.644,9.266 C22.0546687,9.08866578 22.5213307,9 23.044,9 C23.4173352,9 23.7813316,9.04899951 24.136,9.147 C24.4906684,9.24500049 24.803332,9.3873324 25.074,9.574 C25.3820015,9.77933436 25.536,10.017332 25.536,10.288 C25.536,10.4373341 25.4916671,10.5633328 25.403,10.666 C25.3143329,10.7686672 25.2093339,10.82 25.088,10.82 C25.0039996,10.82 24.9200004,10.8013335 24.836,10.764 C24.7519996,10.7266665 24.6400007,10.6660004 24.5,10.582 C24.2479987,10.4326659 24.0123344,10.3160004 23.793,10.232 C23.5736656,10.1479996 23.3006683,10.106 22.974,10.106 C22.581998,10.106 22.2670012,10.1899992 22.029,10.358 C21.7909988,10.5260008 21.672,10.7546652 21.672,11.044 C21.672,11.3053346 21.7816656,11.5083326 22.001,11.653 C22.2203344,11.7976674 22.6333303,11.9353327 23.24,12.066 C23.8653365,12.1966673 24.3553316,12.3459992 24.71,12.514 C25.0646684,12.6820008 25.3189992,12.8896654 25.473,13.137 C25.6270008,13.3843346 25.704,13.6993314 25.704,14.082 C25.704,14.6886697 25.4496692,15.1763315 24.941,15.545 C24.4323308,15.9136685 23.7533376,16.098 22.904,16.098 Z M32.548,14.992 C32.7533344,15.0106668 32.9003329,15.0643329 32.989,15.153 C33.0776671,15.2416671 33.122,15.3653325 33.122,15.524 C33.122,15.7106676 33.0496674,15.8529995 32.905,15.951 C32.7603326,16.0490005 32.5480014,16.0886668 32.268,16.07 L31.89,16.042 C31.1339962,15.9859997 30.5693352,15.755002 30.196,15.349 C29.8226648,14.942998 29.636,14.3433373 29.636,13.55 L29.636,10.26 L28.796,10.26 C28.3853313,10.26 28.18,10.0780018 28.18,9.714 C28.18,9.54599916 28.2336661,9.41300049 28.341,9.315 C28.4483339,9.21699951 28.599999,9.168 28.796,9.168 L29.636,9.168 L29.636,7.726 C29.636,7.51133226 29.6989994,7.34333394 29.825,7.222 C29.9510006,7.10066606 30.1213323,7.04 30.336,7.04 C30.5506677,7.04 30.7233327,7.10066606 30.854,7.222 C30.9846673,7.34333394 31.05,7.51133226 31.05,7.726 L31.05,9.168 L32.436,9.168 C32.632001,9.168 32.7836661,9.21699951 32.891,9.315 C32.9983339,9.41300049 33.052,9.54599916 33.052,9.714 C33.052,9.89133422 32.9983339,10.0266662 32.891,10.12 C32.7836661,10.2133338 32.632001,10.26 32.436,10.26 L31.05,10.26 L31.05,13.648 C31.05,14.0866689 31.1409991,14.4086656 31.323,14.614 C31.5050009,14.8193344 31.7826648,14.9359999 32.156,14.964 L32.548,14.992 Z M41.1,9.448 C41.1560003,9.3079993 41.2376661,9.20533366 41.345,9.14 C41.4523339,9.07466634 41.5666661,9.042 41.688,9.042 C41.8653342,9.042 42.021666,9.10266606 42.157,9.224 C42.292334,9.34533394 42.36,9.48999916 42.36,9.658 C42.36,9.7513338 42.3413335,9.83999958 42.304,9.924 L39.63,15.594 C39.5646663,15.7433341 39.464334,15.8576663 39.329,15.937 C39.193666,16.0163337 39.0513341,16.056 38.902,16.056 C38.7526659,16.056 38.610334,16.0163337 38.475,15.937 C38.339666,15.8576663 38.2393337,15.7433341 38.174,15.594 L35.5,9.924 C35.4626665,9.84933296 35.444,9.76066718 35.444,9.658 C35.444,9.48999916 35.5186659,9.34533394 35.668,9.224 C35.8173341,9.10266606 35.9853324,9.042 36.172,9.042 C36.442668,9.042 36.6433327,9.17266536 36.774,9.434 L38.944,14.25 L41.1,9.448 Z M50.772,14.278 C50.9026673,14.278 51.0099996,14.3293328 51.094,14.432 C51.1780004,14.5346672 51.22,14.6653325 51.22,14.824 C51.22,15.094668 51.0520017,15.3233324 50.716,15.51 C50.3893317,15.6966676 50.0323353,15.8413328 49.645,15.944 C49.2576647,16.0466672 48.8866684,16.098 48.532,16.098 C47.4493279,16.098 46.5953365,15.7830031 45.97,15.153 C45.3446635,14.5229969 45.032,13.6620055 45.032,12.57 C45.032,11.8699965 45.1696653,11.249336 45.445,10.708 C45.7203347,10.166664 46.1076642,9.74666816 46.607,9.448 C47.1063358,9.14933184 47.6733302,9 48.308,9 C49.2226712,9 49.9459973,9.29399706 50.478,9.882 C51.0100027,10.4700029 51.276,11.2633283 51.276,12.262 C51.276,12.6353352 51.1080017,12.822 50.772,12.822 L46.446,12.822 C46.5393338,14.2686739 47.2346602,14.992 48.532,14.992 C48.8773351,14.992 49.1759987,14.9453338 49.428,14.852 C49.6800013,14.7586662 49.9459986,14.6373341 50.226,14.488 C50.2540001,14.4693332 50.3309994,14.429667 50.457,14.369 C50.5830006,14.308333 50.6879996,14.278 50.772,14.278 Z M48.336,10.036 C47.794664,10.036 47.3606683,10.2086649 47.034,10.554 C46.7073317,10.8993351 46.5113337,11.3846635 46.446,12.01 L50.058,12.01 C50.0299999,11.3753302 49.8690015,10.8876684 49.575,10.547 C49.2809985,10.2063316 48.8680027,10.036 48.336,10.036 Z M58.414,9.028 C58.8620022,8.99999986 59.086,9.19133128 59.086,9.602 C59.086,9.80733436 59.0346672,9.96133282 58.932,10.064 C58.8293328,10.1666672 58.6520013,10.2273332 58.4,10.246 L57.98,10.288 C57.3919971,10.3440003 56.9556681,10.5493316 56.671,10.904 C56.3863319,11.2586684 56.244,11.6879975 56.244,12.192 L56.244,15.398 C56.244,15.6220011 56.1786673,15.7899994 56.048,15.902 C55.9173327,16.0140006 55.7493344,16.07 55.544,16.07 C55.3386656,16.07 55.168334,16.0140006 55.033,15.902 C54.897666,15.7899994 54.83,15.6220011 54.83,15.398 L54.83,9.7 C54.83,9.48533226 54.897666,9.31966725 55.033,9.203 C55.168334,9.08633275 55.3386656,9.028 55.544,9.028 C55.7306676,9.028 55.8869994,9.08633275 56.013,9.203 C56.1390006,9.31966725 56.202,9.48066564 56.202,9.686 L56.202,10.358 C56.3886676,9.94733128 56.6593316,9.63466774 57.014,9.42 C57.3686684,9.20533226 57.7699978,9.07933352 58.218,9.042 L58.414,9.028 Z M64.264,16.098 C63.3119952,16.098 62.5326697,15.902002 61.926,15.51 C61.7579992,15.4073328 61.6390003,15.3000006 61.569,15.188 C61.4989996,15.0759994 61.464,14.9500007 61.464,14.81 C61.464,14.6606659 61.5059996,14.5346672 61.59,14.432 C61.6740004,14.3293328 61.7813327,14.278 61.912,14.278 C62.0333339,14.278 62.2246654,14.3526659 62.486,14.502 C62.7660014,14.6513341 63.0389987,14.7726662 63.305,14.866 C63.5710013,14.9593338 63.9046647,15.006 64.306,15.006 C64.7540022,15.006 65.1039987,14.9266675 65.356,14.768 C65.6080013,14.6093325 65.734,14.3853348 65.734,14.096 C65.734,13.9093324 65.6850005,13.7600006 65.587,13.648 C65.4889995,13.5359994 65.3186679,13.4356671 65.076,13.347 C64.8333321,13.2583329 64.4740024,13.1626672 63.998,13.06 C63.1766626,12.8826658 62.5863351,12.6423349 62.227,12.339 C61.8676649,12.0356651 61.688,11.6226693 61.688,11.1 C61.688,10.6986647 61.8046655,10.3370016 62.038,10.015 C62.2713345,9.69299839 62.5933313,9.44333422 63.004,9.266 C63.4146687,9.08866578 63.8813307,9 64.404,9 C64.7773352,9 65.1413316,9.04899951 65.496,9.147 C65.8506684,9.24500049 66.163332,9.3873324 66.434,9.574 C66.7420015,9.77933436 66.896,10.017332 66.896,10.288 C66.896,10.4373341 66.8516671,10.5633328 66.763,10.666 C66.6743329,10.7686672 66.5693339,10.82 66.448,10.82 C66.3639996,10.82 66.2800004,10.8013335 66.196,10.764 C66.1119996,10.7266665 66.0000007,10.6660004 65.86,10.582 C65.6079987,10.4326659 65.3723344,10.3160004 65.153,10.232 C64.9336656,10.1479996 64.6606683,10.106 64.334,10.106 C63.941998,10.106 63.6270012,10.1899992 63.389,10.358 C63.1509988,10.5260008 63.032,10.7546652 63.032,11.044 C63.032,11.3053346 63.1416656,11.5083326 63.361,11.653 C63.5803344,11.7976674 63.9933303,11.9353327 64.6,12.066 C65.2253365,12.1966673 65.7153316,12.3459992 66.07,12.514 C66.4246684,12.6820008 66.6789992,12.8896654 66.833,13.137 C66.9870008,13.3843346 67.064,13.6993314 67.064,14.082 C67.064,14.6886697 66.8096692,15.1763315 66.301,15.545 C65.7923308,15.9136685 65.1133376,16.098 64.264,16.098 Z M71.346,16.07 C71.1406656,16.07 70.970334,16.0140006 70.835,15.902 C70.699666,15.7899994 70.632,15.6220011 70.632,15.398 L70.632,9.714 C70.632,9.48999888 70.699666,9.31966725 70.835,9.203 C70.970334,9.08633275 71.1406656,9.028 71.346,9.028 C71.5513344,9.028 71.7193327,9.08633275 71.85,9.203 C71.9806673,9.31966725 72.046,9.48999888 72.046,9.714 L72.046,15.398 C72.046,15.6220011 71.9806673,15.7899994 71.85,15.902 C71.7193327,16.0140006 71.5513344,16.07 71.346,16.07 Z M71.346,7.656 C71.075332,7.656 70.8606675,7.58133408 70.702,7.432 C70.5433325,7.28266592 70.464,7.08666788 70.464,6.844 C70.464,6.60133212 70.5433325,6.40766739 70.702,6.263 C70.8606675,6.11833261 71.075332,6.046 71.346,6.046 C71.6073346,6.046 71.8196658,6.11833261 71.983,6.263 C72.1463341,6.40766739 72.228,6.60133212 72.228,6.844 C72.228,7.08666788 72.1486675,7.28266592 71.99,7.432 C71.8313325,7.58133408 71.616668,7.656 71.346,7.656 Z M78.988,16.098 C78.3159966,16.098 77.7256692,15.9533348 77.217,15.664 C76.7083308,15.3746652 76.3163347,14.9616694 76.041,14.425 C75.7656653,13.8883307 75.628,13.2653369 75.628,12.556 C75.628,11.8373297 75.7656653,11.2096694 76.041,10.673 C76.3163347,10.1363306 76.7083308,9.72333478 77.217,9.434 C77.7256692,9.14466522 78.3159966,9 78.988,9 C79.6600034,9 80.2503308,9.14466522 80.759,9.434 C81.2676692,9.72333478 81.6596653,10.1363306 81.935,10.673 C82.2103347,11.2096694 82.348,11.8373297 82.348,12.556 C82.348,13.2653369 82.2103347,13.8883307 81.935,14.425 C81.6596653,14.9616694 81.2676692,15.3746652 80.759,15.664 C80.2503308,15.9533348 79.6600034,16.098 78.988,16.098 Z M78.988,14.978 C79.6133365,14.978 80.091665,14.7726687 80.423,14.362 C80.754335,13.9513313 80.92,13.3493373 80.92,12.556 C80.92,11.7719961 80.7520017,11.1723354 80.416,10.757 C80.0799983,10.3416646 79.6040031,10.134 78.988,10.134 C78.3719969,10.134 77.8960017,10.3416646 77.56,10.757 C77.2239983,11.1723354 77.056,11.7719961 77.056,12.556 C77.056,13.3493373 77.221665,13.9513313 77.553,14.362 C77.884335,14.7726687 78.3626635,14.978 78.988,14.978 Z M89.598,9 C91.2313415,9 92.048,9.91932414 92.048,11.758 L92.048,15.398 C92.048,15.6126677 91.9850006,15.7783328 91.859,15.895 C91.7329994,16.0116673 91.5580011,16.07 91.334,16.07 C91.1193323,16.07 90.9490006,16.0093339 90.823,15.888 C90.6969994,15.7666661 90.634,15.6033344 90.634,15.398 L90.634,11.828 C90.634,11.2493304 90.5196678,10.824668 90.291,10.554 C90.0623322,10.283332 89.7053358,10.148 89.22,10.148 C88.6506638,10.148 88.1933351,10.3253316 87.848,10.68 C87.5026649,11.0346684 87.33,11.5106637 87.33,12.108 L87.33,15.398 C87.33,15.6033344 87.2670006,15.7666661 87.141,15.888 C87.0149994,16.0093339 86.8446677,16.07 86.63,16.07 C86.4153323,16.07 86.2426673,16.0093339 86.112,15.888 C85.9813327,15.7666661 85.916,15.6033344 85.916,15.398 L85.916,9.7 C85.916,9.50399902 85.983666,9.34300063 86.119,9.217 C86.254334,9.09099937 86.4246656,9.028 86.63,9.028 C86.8353344,9.028 86.9986661,9.08866606 87.12,9.21 C87.2413339,9.33133394 87.302,9.48999902 87.302,9.686 L87.302,10.26 C87.5260011,9.84933128 87.8386647,9.53666774 88.24,9.322 C88.6413353,9.10733226 89.0939975,9 89.598,9 Z" id="Combined-Shape"></path>
        </g>
    </g>
</svg>