<?xml version="1.0" encoding="UTF-8"?>
<svg width="361px" height="20px" viewBox="0 0 361 20" version="1.1" xmlns="http://www.w3.org/2000/svg" xmlns:xlink="http://www.w3.org/1999/xlink">
    <!-- Generator: Sketch 48.2 (47327) - http://www.bohemiancoding.com/sketch -->
    <title>PDF_Japanese</title>
    <desc>Created with Sketch.</desc>
    <defs></defs>
    <g id="PDF水印" stroke="none" stroke-width="1" fill="none" fill-rule="evenodd" transform="translate(-90.000000, -191.000000)">
        <g id="PDF_Japanese" transform="translate(90.000000, 191.000000)" fill="#434B54" fill-rule="nonzero">
            <path d="M126.357693,3.13197042 C126.670467,2.75115306 126.608839,2.19408911 126.220044,1.88773325 C125.831248,1.58137739 125.262513,1.64174035 124.949739,2.02255771 L119.022532,9.23921477 L113.095325,2.02255771 C112.782551,1.64174035 112.213816,1.58137739 111.825021,1.88773325 C111.436225,2.19408911 111.374598,2.75115306 111.687372,3.13197042 L117.862962,10.6510462 L111.687372,18.170122 C111.374598,18.5509394 111.436225,19.1080034 111.825021,19.4143593 C112.213816,19.7207151 112.782551,19.6603521 113.095325,19.2795348 L119.022532,12.0628777 L124.949739,19.2795348 C125.262513,19.6603521 125.831248,19.7207151 126.220044,19.4143593 C126.608839,19.1080034 126.670467,18.5509394 126.357693,18.170122 L120.182102,10.6510462 L126.357693,3.13197042 Z M162.125226,11.5080399 C162.143337,9.49165545 164.254954,7.71895369 166.231986,7.52885138 C168.148633,7.34455547 169.052047,8.13547742 169.675474,9.5069932 C170.048137,10.3268379 170.045163,11.1595779 170.045163,12.057015 L170.045163,18.7248284 C170.045163,19.2135776 170.449673,19.6097872 170.948661,19.6097872 C171.44765,19.6097872 171.85216,19.2135776 171.85216,18.7248284 L171.85216,11.9668051 C171.85216,10.2851854 171.714036,9.57729346 171.335204,8.62969353 C170.621435,6.84429307 168.613403,5.37683937 165.986087,5.72126256 C164.410273,5.92784106 163.029508,6.7040389 162.107728,7.85279188 L162.107728,6.81712733 C162.107728,6.32837813 161.703217,5.93216863 161.204229,5.93216863 C160.70524,5.93216863 160.30073,6.32837813 160.30073,6.81712733 L160.30073,18.7248284 C160.30073,19.2135776 160.70524,19.6097872 161.204229,19.6097872 C161.703217,19.6097872 162.107728,19.2135776 162.107728,18.7248284 L162.107728,11.7050003 C162.118718,11.6368824 162.124665,11.5705607 162.125226,11.5080399 Z M186.457066,1.58495564 C186.457066,1.09620645 186.861576,0.699996948 187.360565,0.699996948 C187.859553,0.699996948 188.264063,1.09620645 188.264063,1.58495564 L188.264063,18.7248284 C188.264063,19.2135776 187.859553,19.6097872 187.360565,19.6097872 C186.861576,19.6097872 186.457066,19.2135776 186.457066,18.7248284 L186.457066,17.455255 C185.277608,18.8332782 183.586842,19.6999969 181.696429,19.6999969 C178.096701,19.6999969 175.220893,16.5572918 175.220893,12.7258729 C175.220893,8.89445412 178.096701,5.75174893 181.696429,5.75174893 C183.586842,5.75174893 185.277608,6.61846767 186.457066,7.99649088 L186.457066,1.58495564 Z M153.439297,2.39684435 C153.439297,1.83336285 153.905659,1.37657084 154.480945,1.37657084 C155.056232,1.37657084 155.522594,1.83336285 155.522594,2.39684435 L155.522594,2.75768378 C155.522594,3.32116527 155.056232,3.77795729 154.480945,3.77795729 C153.905659,3.77795729 153.439297,3.32116527 153.439297,2.75768378 L153.439297,2.39684435 Z M153.577446,6.45628789 C153.577446,5.96753871 153.981957,5.5713292 154.480945,5.5713292 C154.979934,5.5713292 155.384444,5.96753871 155.384444,6.45628789 L155.384444,18.7248284 C155.384444,19.2135776 154.979934,19.6097872 154.480945,19.6097872 C153.981957,19.6097872 153.577446,19.2135776 153.577446,18.7248284 L153.577446,6.45628789 Z M181.696429,17.9300796 C184.251402,17.9300796 186.364966,15.6203604 186.364966,12.7258729 C186.364966,9.83138545 184.251402,7.52166631 181.696429,7.52166631 C179.141455,7.52166631 177.027891,9.83138545 177.027891,12.7258729 C177.027891,15.6203604 179.141455,17.9300796 181.696429,17.9300796 Z M138.472666,14.4983759 C138.431294,14.4326535 136.557612,11.3641985 132.831963,5.3482102 L131.891847,18.7839265 C131.857195,19.2714959 131.432104,19.6415915 130.93432,19.6076507 C130.436536,19.5737099 130.055303,19.1527437 130.089955,18.6651745 L131.238988,2.51580888 C131.300112,1.65576819 132.530017,1.38030783 132.988649,2.1161444 C136.383803,7.56338966 138.545139,11.0829035 139.517241,12.642193 C140.488693,11.0821419 142.650965,7.56374551 146.045833,2.11651584 C146.504254,1.380957 147.743041,1.65469822 147.795494,2.51517759 L148.944527,18.6651745 C148.974267,19.1530548 148.598263,19.579084 148.100161,19.6082139 C147.60206,19.6373438 147.172375,19.2718068 147.142635,18.7839265 L146.202518,5.3482102 C142.476869,11.3708915 140.605411,14.4310034 140.561816,14.4987463 C140.353161,14.8229782 139.939729,15.019416 139.517241,15.0194836 C139.094753,15.0195511 138.675535,14.820644 138.472666,14.4983759 Z M222.038647,17.5785401 L230.743437,17.5785401 C231.242458,17.5785401 231.646994,17.9727293 231.646994,18.4589865 C231.646994,18.9452437 231.242458,19.3394329 230.743437,19.3394329 L220.907025,19.3394329 C220.408004,19.3394329 220.003468,18.9452437 220.003468,18.4589865 L220.003468,2.79949298 C220.003468,2.31323584 220.408004,1.91904654 220.907025,1.91904654 L230.743437,1.91904654 C231.242458,1.91904654 231.646994,2.31323584 231.646994,2.79949298 C231.646994,3.28575011 231.242458,3.67993941 230.743437,3.67993941 L222.038647,3.67993941 L222.038647,9.60449751 L230.256173,9.60449751 C230.755194,9.60449751 231.15973,9.99868679 231.15973,10.4849439 C231.15973,10.9712011 230.755194,11.3653904 230.256173,11.3653904 L222.038647,11.3653904 L222.038647,17.5785401 Z M203.592421,17.93338 L214.079258,3.71009076 L204.332051,3.71009076 C203.83303,3.71009076 203.428494,3.31590148 203.428494,2.82964433 C203.428494,2.3433872 203.83303,1.94919791 204.332051,1.94919791 L215.817103,1.94919791 C216.46788,1.94919791 216.973335,2.65378897 216.556734,3.33537088 L206.069896,17.5586601 L216.045264,17.5586601 C216.544285,17.5586601 216.948821,17.9528494 216.948821,18.4391066 C216.948821,18.9253637 216.544285,19.319553 216.045264,19.319553 L204.332051,19.319553 C203.620494,19.319553 203.20028,18.5333917 203.592421,17.93338 Z M247.737669,19.1258785 L236.867913,5.38100527 L236.867913,18.6499177 C236.867913,19.1361747 236.502115,19.5894144 235.912331,19.5804783 C235.322548,19.5715422 234.956547,19.1361747 234.956547,18.6499177 L234.956547,2.80524989 C234.956547,1.90245915 236.12247,1.52555629 236.704412,2.26716396 L247.578492,16.0729611 L247.578492,2.80524989 C247.578492,2.31899276 247.96702,1.88012477 248.532534,1.87348816 C249.098047,1.86685154 249.487818,2.31899276 249.487818,2.80524989 L249.487818,18.5429589 C249.487818,19.4748765 248.368617,19.8401925 247.737669,19.1258785 Z M196.27247,9.69106838 C195.503266,9.69106838 194.879704,9.08345482 194.879704,8.33392552 C194.879704,7.58439622 195.503266,6.97678266 196.27247,6.97678266 C197.041674,6.97678266 197.665236,7.58439622 197.665236,8.33392552 C197.665236,9.08345482 197.041674,9.69106838 196.27247,9.69106838 Z M196.27247,16.4767827 C195.503266,16.4767827 194.879704,15.8691691 194.879704,15.1196398 C194.879704,14.3701105 195.503266,13.7624969 196.27247,13.7624969 C197.041674,13.7624969 197.665236,14.3701105 197.665236,15.1196398 C197.665236,15.8691691 197.041674,16.4767827 196.27247,16.4767827 Z M268.418,7.849 C268.093,8.213 267.729,8.564 267.339,8.876 L266.585,7.888 C267.547,7.173 268.197,6.315 268.548,5.301 L269.744,5.457 C269.627,5.821 269.497,6.159 269.341,6.471 L277.739,6.471 L277.739,7.641 L276.829,7.641 L276.829,9.643 L278.012,9.643 L278.012,10.787 L276.829,10.787 L276.829,12.672 L278.194,12.672 L278.194,13.829 L266.806,13.829 L266.806,12.672 L268.418,12.672 L268.418,10.787 L267.001,10.787 L267.001,9.643 L268.418,9.643 L268.418,7.849 Z M269.601,12.672 L270.81,12.672 L270.81,10.787 L269.601,10.787 L269.601,12.672 Z M272.006,12.672 L273.241,12.672 L273.241,10.787 L272.006,10.787 L272.006,12.672 Z M274.424,12.672 L275.633,12.672 L275.633,10.787 L274.424,10.787 L274.424,12.672 Z M275.633,9.643 L275.633,7.641 L274.424,7.641 L274.424,9.643 L275.633,9.643 Z M273.241,9.643 L273.241,7.641 L272.006,7.641 L272.006,9.643 L273.241,9.643 Z M270.81,9.643 L270.81,7.641 L269.601,7.641 L269.601,9.643 L270.81,9.643 Z M268.379,14.18 L269.406,14.674 C268.964,15.74 268.444,16.65 267.846,17.417 L266.845,16.676 C267.443,15.974 267.95,15.142 268.379,14.18 Z M271.434,14.479 C271.694,15.272 271.941,16.13 272.149,17.04 L270.901,17.326 C270.745,16.351 270.537,15.48 270.303,14.726 L271.434,14.479 Z M274.281,14.401 C274.619,15.194 274.931,16.052 275.191,16.975 L273.943,17.261 C273.735,16.273 273.462,15.402 273.137,14.648 L274.281,14.401 Z M276.647,14.115 C277.401,15.077 277.973,15.922 278.376,16.637 L277.349,17.352 C276.946,16.559 276.4,15.688 275.698,14.726 L276.647,14.115 Z M284.189,6.419 C284.449,7.199 284.67,8.096 284.878,9.11 L283.929,9.37 C283.721,8.46 283.474,7.576 283.162,6.744 L284.189,6.419 Z M287.478,6.276 L288.505,6.406 C288.427,7.485 288.219,8.447 287.907,9.279 L286.997,8.98 C287.244,8.2 287.4,7.29 287.478,6.276 Z M283.123,9.812 L285.346,9.812 L285.346,5.392 L286.581,5.392 L286.581,9.812 L288.414,9.812 L288.414,11.008 L286.581,11.008 L286.581,11.268 C287.205,11.801 287.829,12.399 288.466,13.062 L287.725,14.154 C287.283,13.439 286.893,12.854 286.581,12.399 L286.581,17.3 L285.346,17.3 L285.346,12.477 C284.8,13.582 284.163,14.557 283.422,15.402 L282.915,14.115 C283.981,13.127 284.748,12.1 285.242,11.008 L283.123,11.008 L283.123,9.812 Z M292.34,5.405 L293.549,5.405 L293.549,12.646 L294.81,12.451 L295.018,13.673 L293.549,13.894 L293.549,17.3 L292.34,17.3 L292.34,14.076 L288.739,14.622 L288.57,13.4 L292.34,12.828 L292.34,5.405 Z M289.961,6.263 C290.793,6.9 291.482,7.524 292.054,8.135 L291.222,8.98 C290.728,8.382 290.026,7.745 289.142,7.056 L289.961,6.263 Z M289.649,9.318 C290.455,9.955 291.144,10.592 291.703,11.229 L290.871,12.074 C290.377,11.463 289.701,10.8 288.817,10.098 L289.649,9.318 Z M308.865,6.549 C309.827,7.433 310.724,8.434 311.543,9.578 L310.555,10.345 C309.684,9.136 308.813,8.148 307.929,7.394 L308.865,6.549 Z M307.747,7.472 L307.799,8.681 C306.603,8.759 305.55,8.811 304.64,8.863 L304.64,10.358 C305.264,10.254 305.914,10.202 306.616,10.202 C307.786,10.202 308.735,10.475 309.463,11.034 C310.23,11.606 310.62,12.412 310.62,13.426 C310.62,15.636 309.086,16.754 306.044,16.754 L305.784,15.545 C307.019,15.545 307.916,15.363 308.475,15.012 C309.021,14.674 309.307,14.141 309.307,13.426 C309.307,12.802 309.06,12.308 308.566,11.931 C308.072,11.567 307.422,11.385 306.616,11.385 C305.914,11.385 305.264,11.45 304.653,11.593 L304.653,14.96 C304.653,16.117 304.068,16.702 302.911,16.702 C302.04,16.702 301.325,16.481 300.766,16.065 C300.194,15.636 299.921,15.051 299.921,14.323 C299.921,13.049 300.623,12.022 302.027,11.255 C302.443,11.021 302.885,10.839 303.353,10.683 C303.353,10.059 303.34,9.461 303.34,8.902 C302.872,8.915 302.456,8.928 302.092,8.928 C301.468,8.928 300.87,8.915 300.324,8.889 L300.311,7.68 C300.961,7.706 301.546,7.719 302.066,7.719 C302.482,7.719 302.911,7.706 303.34,7.706 C303.34,6.9 303.327,6.172 303.327,5.535 L304.627,5.535 C304.627,6.159 304.64,6.874 304.64,7.667 C305.654,7.615 306.681,7.55 307.747,7.472 Z M303.353,11.996 C303.223,12.035 303.106,12.087 302.989,12.152 C301.806,12.724 301.221,13.439 301.221,14.323 C301.221,14.661 301.364,14.947 301.65,15.168 C301.936,15.376 302.3,15.493 302.755,15.493 C303.145,15.493 303.353,15.246 303.353,14.765 L303.353,11.996 Z M318.279,5.301 C318.487,5.886 318.643,6.419 318.76,6.9 L320.229,6.9 L320.229,8.044 L316.069,8.044 L316.069,6.9 L317.59,6.9 C317.434,6.458 317.265,6.029 317.083,5.626 L318.279,5.301 Z M316.433,8.837 L319.787,8.837 L319.787,9.916 L316.433,9.916 L316.433,8.837 Z M316.433,10.631 L319.787,10.631 L319.787,11.723 L316.433,11.723 L316.433,10.631 Z M319.917,12.594 L319.917,17.144 L318.786,17.144 L318.786,16.572 L317.421,16.572 L317.421,17.326 L316.29,17.326 L316.29,12.594 L319.917,12.594 Z M317.421,15.454 L318.786,15.454 L318.786,13.686 L317.421,13.686 L317.421,15.454 Z M320.567,7.641 L324.142,7.641 C324.116,6.913 324.116,6.172 324.116,5.392 L325.247,5.392 C325.247,6.185 325.247,6.939 325.273,7.641 L327.548,7.641 L327.548,8.811 L325.299,8.811 C325.377,10.839 325.52,12.477 325.741,13.751 C325.988,15.116 326.209,15.805 326.417,15.818 C326.56,15.792 326.742,15.038 326.976,13.556 L327.925,14.089 C327.561,16.143 327.054,17.183 326.417,17.196 C325.533,17.144 324.909,15.727 324.519,12.971 C324.35,11.762 324.233,10.371 324.181,8.811 L320.567,8.811 L320.567,7.641 Z M320.489,10.488 L323.778,10.488 L323.778,11.593 L322.738,11.593 L322.738,14.427 C323.193,14.336 323.648,14.245 324.09,14.141 L324.09,15.246 C322.959,15.506 321.75,15.714 320.476,15.896 L320.19,14.791 C320.658,14.739 321.113,14.687 321.581,14.622 L321.581,11.593 L320.489,11.593 L320.489,10.488 Z M326.443,5.405 C326.911,5.951 327.275,6.432 327.535,6.848 L326.69,7.433 C326.417,6.978 326.053,6.471 325.598,5.925 L326.443,5.405 Z M334.713,6.016 L336.065,6.016 L336.065,13.14 C336.065,14.609 336.858,15.35 338.444,15.35 C340.264,15.35 341.694,13.985 342.721,11.281 L343.982,11.749 C343.449,13.179 342.825,14.271 342.097,15.051 C341.109,16.104 339.887,16.637 338.444,16.637 C335.948,16.637 334.713,15.532 334.713,13.322 L334.713,6.016 Z M351.914,5.483 L353.123,5.483 L353.123,8.824 L353.747,8.824 L353.747,10.033 L350.822,10.033 L350.822,10.527 C350.822,10.891 350.809,11.242 350.796,11.58 L353.292,11.58 L353.292,17.287 L352.083,17.287 L352.083,12.763 L350.731,12.763 C350.575,14.661 350.224,16.117 349.704,17.131 L348.768,16.325 C349.314,15.103 349.6,13.179 349.613,10.527 L349.613,5.743 L350.822,5.743 L350.822,8.824 L351.914,8.824 L351.914,5.483 Z M355.528,10.202 L355.528,11.294 C355.476,13.79 355.034,15.792 354.202,17.274 L353.357,16.377 C354.007,15.155 354.345,13.452 354.397,11.294 L354.397,6.25 C356.464,6.211 358.31,5.938 359.948,5.418 L360.546,6.523 C359.038,6.965 357.374,7.225 355.528,7.303 L355.528,9.032 L360.273,9.032 L360.273,10.085 C359.987,11.801 359.467,13.27 358.687,14.466 C359.285,15.246 360,15.857 360.845,16.286 L360.234,17.365 C359.311,16.897 358.544,16.26 357.92,15.48 C357.244,16.234 356.438,16.871 355.502,17.378 L354.917,16.286 C355.827,15.779 356.581,15.155 357.205,14.427 C356.542,13.27 356.087,11.866 355.827,10.202 L355.528,10.202 Z M356.932,10.202 C357.166,11.398 357.504,12.451 357.972,13.335 C358.505,12.412 358.882,11.372 359.09,10.202 L356.932,10.202 Z M2.11799981,7.849 C1.79299981,8.213 1.42899981,8.564 1.03899981,8.876 L0.284999809,7.888 C1.24699981,7.173 1.89699981,6.315 2.24799981,5.301 L3.44399981,5.457 C3.32699981,5.821 3.19699981,6.159 3.04099981,6.471 L11.4389998,6.471 L11.4389998,7.641 L10.5289998,7.641 L10.5289998,9.643 L11.7119998,9.643 L11.7119998,10.787 L10.5289998,10.787 L10.5289998,12.672 L11.8939998,12.672 L11.8939998,13.829 L0.505999809,13.829 L0.505999809,12.672 L2.11799981,12.672 L2.11799981,10.787 L0.700999809,10.787 L0.700999809,9.643 L2.11799981,9.643 L2.11799981,7.849 Z M4.50999981,9.643 L4.50999981,7.641 L3.30099981,7.641 L3.30099981,9.643 L4.50999981,9.643 Z M3.30099981,12.672 L4.50999981,12.672 L4.50999981,10.787 L3.30099981,10.787 L3.30099981,12.672 Z M5.70599981,12.672 L6.94099981,12.672 L6.94099981,10.787 L5.70599981,10.787 L5.70599981,12.672 Z M8.12399981,12.672 L9.33299981,12.672 L9.33299981,10.787 L8.12399981,10.787 L8.12399981,12.672 Z M9.33299981,9.643 L9.33299981,7.641 L8.12399981,7.641 L8.12399981,9.643 L9.33299981,9.643 Z M6.94099981,9.643 L6.94099981,7.641 L5.70599981,7.641 L5.70599981,9.643 L6.94099981,9.643 Z M2.07899981,14.18 L3.10599981,14.674 C2.66399981,15.74 2.14399981,16.65 1.54599981,17.417 L0.544999809,16.676 C1.14299981,15.974 1.64999981,15.142 2.07899981,14.18 Z M5.13399981,14.479 C5.39399981,15.272 5.64099981,16.13 5.84899981,17.04 L4.60099981,17.326 C4.44499981,16.351 4.23699981,15.48 4.00299981,14.726 L5.13399981,14.479 Z M7.98099981,14.401 C8.31899981,15.194 8.63099981,16.052 8.89099981,16.975 L7.64299981,17.261 C7.43499981,16.273 7.16199981,15.402 6.83699981,14.648 L7.98099981,14.401 Z M10.3469998,14.115 C11.1009998,15.077 11.6729998,15.922 12.0759998,16.637 L11.0489998,17.352 C10.6459998,16.559 10.0999998,15.688 9.39799981,14.726 L10.3469998,14.115 Z M17.8889998,6.419 C18.1489998,7.199 18.3699998,8.096 18.5779998,9.11 L17.6289998,9.37 C17.4209998,8.46 17.1739998,7.576 16.8619998,6.744 L17.8889998,6.419 Z M21.1779998,6.276 L22.2049998,6.406 C22.1269998,7.485 21.9189998,8.447 21.6069998,9.279 L20.6969998,8.98 C20.9439998,8.2 21.0999998,7.29 21.1779998,6.276 Z M16.8229998,9.812 L19.0459998,9.812 L19.0459998,5.392 L20.2809998,5.392 L20.2809998,9.812 L22.1139998,9.812 L22.1139998,11.008 L20.2809998,11.008 L20.2809998,11.268 C20.9049998,11.801 21.5289998,12.399 22.1659998,13.062 L21.4249998,14.154 C20.9829998,13.439 20.5929998,12.854 20.2809998,12.399 L20.2809998,17.3 L19.0459998,17.3 L19.0459998,12.477 C18.4999998,13.582 17.8629998,14.557 17.1219998,15.402 L16.6149998,14.115 C17.6809998,13.127 18.4479998,12.1 18.9419998,11.008 L16.8229998,11.008 L16.8229998,9.812 Z M26.0399998,5.405 L27.2489998,5.405 L27.2489998,12.646 L28.5099998,12.451 L28.7179998,13.673 L27.2489998,13.894 L27.2489998,17.3 L26.0399998,17.3 L26.0399998,14.076 L22.4389998,14.622 L22.2699998,13.4 L26.0399998,12.828 L26.0399998,5.405 Z M23.6609998,6.263 C24.4929998,6.9 25.1819998,7.524 25.7539998,8.135 L24.9219998,8.98 C24.4279998,8.382 23.7259998,7.745 22.8419998,7.056 L23.6609998,6.263 Z M23.3489998,9.318 C24.1549998,9.955 24.8439998,10.592 25.4029998,11.229 L24.5709998,12.074 C24.0769998,11.463 23.4009998,10.8 22.5169998,10.098 L23.3489998,9.318 Z M42.5649999,6.549 C43.5269999,7.433 44.4239999,8.434 45.2429999,9.578 L44.2549999,10.345 C43.3839999,9.136 42.5129999,8.148 41.6289999,7.394 L42.5649999,6.549 Z M41.4469999,7.472 L41.4989999,8.681 C40.3029999,8.759 39.2499999,8.811 38.3399999,8.863 L38.3399999,10.358 C38.9639999,10.254 39.6139999,10.202 40.3159999,10.202 C41.4859999,10.202 42.4349999,10.475 43.1629999,11.034 C43.9299999,11.606 44.3199999,12.412 44.3199999,13.426 C44.3199999,15.636 42.7859999,16.754 39.7439999,16.754 L39.4839999,15.545 C40.7189999,15.545 41.6159999,15.363 42.1749999,15.012 C42.7209999,14.674 43.0069999,14.141 43.0069999,13.426 C43.0069999,12.802 42.7599999,12.308 42.2659999,11.931 C41.7719999,11.567 41.1219999,11.385 40.3159999,11.385 C39.6139999,11.385 38.9639999,11.45 38.3529999,11.593 L38.3529999,14.96 C38.3529999,16.117 37.7679999,16.702 36.6109999,16.702 C35.7399999,16.702 35.0249999,16.481 34.4659999,16.065 C33.8939999,15.636 33.6209999,15.051 33.6209999,14.323 C33.6209999,13.049 34.3229999,12.022 35.7269999,11.255 C36.1429999,11.021 36.5849999,10.839 37.0529999,10.683 C37.0529999,10.059 37.0399999,9.461 37.0399999,8.902 C36.5719999,8.915 36.1559999,8.928 35.7919999,8.928 C35.1679999,8.928 34.5699999,8.915 34.0239999,8.889 L34.0109999,7.68 C34.6609999,7.706 35.2459999,7.719 35.7659999,7.719 C36.1819999,7.719 36.6109999,7.706 37.0399999,7.706 C37.0399999,6.9 37.0269999,6.172 37.0269999,5.535 L38.3269999,5.535 C38.3269999,6.159 38.3399999,6.874 38.3399999,7.667 C39.3539999,7.615 40.3809999,7.55 41.4469999,7.472 Z M37.0529999,11.996 C36.9229999,12.035 36.8059999,12.087 36.6889999,12.152 C35.5059999,12.724 34.9209999,13.439 34.9209999,14.323 C34.9209999,14.661 35.0639999,14.947 35.3499999,15.168 C35.6359999,15.376 35.9999999,15.493 36.4549999,15.493 C36.8449999,15.493 37.0529999,15.246 37.0529999,14.765 L37.0529999,11.996 Z M51.9789999,5.301 C52.1869999,5.886 52.3429999,6.419 52.4599999,6.9 L53.9289999,6.9 L53.9289999,8.044 L49.7689999,8.044 L49.7689999,6.9 L51.2899999,6.9 C51.1339999,6.458 50.9649999,6.029 50.7829999,5.626 L51.9789999,5.301 Z M50.1329999,8.837 L53.4869999,8.837 L53.4869999,9.916 L50.1329999,9.916 L50.1329999,8.837 Z M50.1329999,10.631 L53.4869999,10.631 L53.4869999,11.723 L50.1329999,11.723 L50.1329999,10.631 Z M53.6169999,12.594 L53.6169999,17.144 L52.4859999,17.144 L52.4859999,16.572 L51.1209999,16.572 L51.1209999,17.326 L49.9899999,17.326 L49.9899999,12.594 L53.6169999,12.594 Z M51.1209999,15.454 L52.4859999,15.454 L52.4859999,13.686 L51.1209999,13.686 L51.1209999,15.454 Z M54.2669999,7.641 L57.8419999,7.641 C57.8159999,6.913 57.8159999,6.172 57.8159999,5.392 L58.9469999,5.392 C58.9469999,6.185 58.9469999,6.939 58.9729999,7.641 L61.2479999,7.641 L61.2479999,8.811 L58.9989999,8.811 C59.0769999,10.839 59.2199999,12.477 59.4409999,13.751 C59.6879999,15.116 59.9089999,15.805 60.1169999,15.818 C60.2599999,15.792 60.4419999,15.038 60.6759999,13.556 L61.6249999,14.089 C61.2609999,16.143 60.7539999,17.183 60.1169999,17.196 C59.2329999,17.144 58.6089999,15.727 58.2189999,12.971 C58.0499999,11.762 57.9329999,10.371 57.8809999,8.811 L54.2669999,8.811 L54.2669999,7.641 Z M54.1889999,10.488 L57.4779999,10.488 L57.4779999,11.593 L56.4379999,11.593 L56.4379999,14.427 C56.8929999,14.336 57.3479999,14.245 57.7899999,14.141 L57.7899999,15.246 C56.6589999,15.506 55.4499999,15.714 54.1759999,15.896 L53.8899999,14.791 C54.3579999,14.739 54.8129999,14.687 55.2809999,14.622 L55.2809999,11.593 L54.1889999,11.593 L54.1889999,10.488 Z M60.1429999,5.405 C60.6109999,5.951 60.9749999,6.432 61.2349999,6.848 L60.3899999,7.433 C60.1169999,6.978 59.7529999,6.471 59.2979999,5.925 L60.1429999,5.405 Z M68.413,6.016 L69.765,6.016 L69.765,13.14 C69.765,14.609 70.558,15.35 72.144,15.35 C73.964,15.35 75.394,13.985 76.421,11.281 L77.682,11.749 C77.149,13.179 76.525,14.271 75.797,15.051 C74.809,16.104 73.587,16.637 72.144,16.637 C69.648,16.637 68.413,15.532 68.413,13.322 L68.413,6.016 Z M85.614,5.483 L86.823,5.483 L86.823,8.824 L87.447,8.824 L87.447,10.033 L84.522,10.033 L84.522,10.527 C84.522,10.891 84.509,11.242 84.496,11.58 L86.992,11.58 L86.992,17.287 L85.783,17.287 L85.783,12.763 L84.431,12.763 C84.275,14.661 83.924,16.117 83.404,17.131 L82.468,16.325 C83.014,15.103 83.3,13.179 83.313,10.527 L83.313,5.743 L84.522,5.743 L84.522,8.824 L85.614,8.824 L85.614,5.483 Z M89.228,10.202 L89.228,11.294 C89.176,13.79 88.734,15.792 87.902,17.274 L87.057,16.377 C87.707,15.155 88.045,13.452 88.097,11.294 L88.097,6.25 C90.164,6.211 92.01,5.938 93.648,5.418 L94.246,6.523 C92.738,6.965 91.074,7.225 89.228,7.303 L89.228,9.032 L93.973,9.032 L93.973,10.085 C93.687,11.801 93.167,13.27 92.387,14.466 C92.985,15.246 93.7,15.857 94.545,16.286 L93.934,17.365 C93.011,16.897 92.244,16.26 91.62,15.48 C90.944,16.234 90.138,16.871 89.202,17.378 L88.617,16.286 C89.527,15.779 90.281,15.155 90.905,14.427 C90.242,13.27 89.787,11.866 89.527,10.202 L89.228,10.202 Z M90.632,10.202 C90.866,11.398 91.204,12.451 91.672,13.335 C92.205,12.412 92.582,11.372 92.79,10.202 L90.632,10.202 Z" id="Combined-Shape"></path>
        </g>
    </g>
</svg>