<?xml version="1.0" encoding="UTF-8"?>
<svg width="263px" height="20px" viewBox="0 0 263 20" version="1.1" xmlns="http://www.w3.org/2000/svg" xmlns:xlink="http://www.w3.org/1999/xlink">
    <!-- Generator: Sketch 48.2 (47327) - http://www.bohemiancoding.com/sketch -->
    <title>PDF_简体中文</title>
    <desc>Created with Sketch.</desc>
    <defs></defs>
    <g id="PDF水印" stroke="none" stroke-width="1" fill="none" fill-rule="evenodd" transform="translate(-139.000000, -89.000000)">
        <g id="PDF_简体中文" transform="translate(139.000000, 89.000000)" fill="#434B54" fill-rule="nonzero">
            <path d="M77.3576926,3.13197042 C77.6704667,2.75115306 77.6088391,2.19408911 77.2200436,1.88773325 C76.831248,1.58137739 76.2625134,1.64174035 75.9497393,2.02255771 L70.0225322,9.23921477 L64.0953252,2.02255771 C63.7825511,1.64174035 63.2138165,1.58137739 62.8250209,1.88773325 C62.4362254,2.19408911 62.3745978,2.75115306 62.6873719,3.13197042 L68.8629625,10.6510462 L62.6873719,18.170122 C62.3745978,18.5509394 62.4362254,19.1080034 62.8250209,19.4143593 C63.2138165,19.7207151 63.7825511,19.6603521 64.0953252,19.2795348 L70.0225322,12.0628777 L75.9497393,19.2795348 C76.2625134,19.6603521 76.831248,19.7207151 77.2200436,19.4143593 C77.6088391,19.1080034 77.6704667,18.5509394 77.3576926,18.170122 L71.182102,10.6510462 L77.3576926,3.13197042 Z M113.125226,11.5080399 C113.143337,9.49165545 115.254954,7.71895369 117.231986,7.52885138 C119.148633,7.34455547 120.052047,8.13547742 120.675474,9.5069932 C121.048137,10.3268379 121.045163,11.1595779 121.045163,12.057015 L121.045163,18.7248284 C121.045163,19.2135776 121.449673,19.6097872 121.948661,19.6097872 C122.44765,19.6097872 122.85216,19.2135776 122.85216,18.7248284 L122.85216,11.9668051 C122.85216,10.2851854 122.714036,9.57729346 122.335204,8.62969353 C121.621435,6.84429307 119.613403,5.37683937 116.986087,5.72126256 C115.410273,5.92784106 114.029508,6.7040389 113.107728,7.85279188 L113.107728,6.81712733 C113.107728,6.32837813 112.703217,5.93216863 112.204229,5.93216863 C111.70524,5.93216863 111.30073,6.32837813 111.30073,6.81712733 L111.30073,18.7248284 C111.30073,19.2135776 111.70524,19.6097872 112.204229,19.6097872 C112.703217,19.6097872 113.107728,19.2135776 113.107728,18.7248284 L113.107728,11.7050003 C113.118718,11.6368824 113.124665,11.5705607 113.125226,11.5080399 Z M137.457066,1.58495564 C137.457066,1.09620645 137.861576,0.699996948 138.360565,0.699996948 C138.859553,0.699996948 139.264063,1.09620645 139.264063,1.58495564 L139.264063,18.7248284 C139.264063,19.2135776 138.859553,19.6097872 138.360565,19.6097872 C137.861576,19.6097872 137.457066,19.2135776 137.457066,18.7248284 L137.457066,17.455255 C136.277608,18.8332782 134.586842,19.6999969 132.696429,19.6999969 C129.096701,19.6999969 126.220893,16.5572918 126.220893,12.7258729 C126.220893,8.89445412 129.096701,5.75174893 132.696429,5.75174893 C134.586842,5.75174893 136.277608,6.61846767 137.457066,7.99649088 L137.457066,1.58495564 Z M104.439297,2.39684435 C104.439297,1.83336285 104.905659,1.37657084 105.480945,1.37657084 C106.056232,1.37657084 106.522594,1.83336285 106.522594,2.39684435 L106.522594,2.75768378 C106.522594,3.32116527 106.056232,3.77795729 105.480945,3.77795729 C104.905659,3.77795729 104.439297,3.32116527 104.439297,2.75768378 L104.439297,2.39684435 Z M104.577446,6.45628789 C104.577446,5.96753871 104.981957,5.5713292 105.480945,5.5713292 C105.979934,5.5713292 106.384444,5.96753871 106.384444,6.45628789 L106.384444,18.7248284 C106.384444,19.2135776 105.979934,19.6097872 105.480945,19.6097872 C104.981957,19.6097872 104.577446,19.2135776 104.577446,18.7248284 L104.577446,6.45628789 Z M132.696429,17.9300796 C135.251402,17.9300796 137.364966,15.6203604 137.364966,12.7258729 C137.364966,9.83138545 135.251402,7.52166631 132.696429,7.52166631 C130.141455,7.52166631 128.027891,9.83138545 128.027891,12.7258729 C128.027891,15.6203604 130.141455,17.9300796 132.696429,17.9300796 Z M89.4726662,14.4983759 C89.4312937,14.4326535 87.5576124,11.3641985 83.8319635,5.3482102 L82.8918472,18.7839265 C82.8571954,19.2714959 82.4321043,19.6415915 81.9343203,19.6076507 C81.4365364,19.5737099 81.0553028,19.1527437 81.0899547,18.6651745 L82.238988,2.51580888 C82.3001116,1.65576819 83.5300171,1.38030783 83.9886486,2.1161444 C87.3838028,7.56338966 89.5451386,11.0829035 90.5172409,12.642193 C91.4886932,11.0821419 93.6509652,7.56374551 97.0458332,2.11651584 C97.5042544,1.380957 98.7430407,1.65469822 98.7954939,2.51517759 L99.9445271,18.6651745 C99.9742674,19.1530548 99.598263,19.579084 99.1001615,19.6082139 C98.6020598,19.6373438 98.1723747,19.2718068 98.1426346,18.7839265 L97.2025184,5.3482102 C93.4768694,11.3708915 91.6054107,14.4310034 91.5618157,14.4987463 C91.3531614,14.8229782 90.9397293,15.019416 90.5172409,15.0194836 C90.0947526,15.0195511 89.6755346,14.820644 89.4726662,14.4983759 Z M173.038647,17.5785401 L181.743437,17.5785401 C182.242458,17.5785401 182.646994,17.9727293 182.646994,18.4589865 C182.646994,18.9452437 182.242458,19.3394329 181.743437,19.3394329 L171.907025,19.3394329 C171.408004,19.3394329 171.003468,18.9452437 171.003468,18.4589865 L171.003468,2.79949298 C171.003468,2.31323584 171.408004,1.91904654 171.907025,1.91904654 L181.743437,1.91904654 C182.242458,1.91904654 182.646994,2.31323584 182.646994,2.79949298 C182.646994,3.28575011 182.242458,3.67993941 181.743437,3.67993941 L173.038647,3.67993941 L173.038647,9.60449751 L181.256173,9.60449751 C181.755194,9.60449751 182.15973,9.99868679 182.15973,10.4849439 C182.15973,10.9712011 181.755194,11.3653904 181.256173,11.3653904 L173.038647,11.3653904 L173.038647,17.5785401 Z M154.592421,17.93338 L165.079258,3.71009076 L155.332051,3.71009076 C154.83303,3.71009076 154.428494,3.31590148 154.428494,2.82964433 C154.428494,2.3433872 154.83303,1.94919791 155.332051,1.94919791 L166.817103,1.94919791 C167.46788,1.94919791 167.973335,2.65378897 167.556734,3.33537088 L157.069896,17.5586601 L167.045264,17.5586601 C167.544285,17.5586601 167.948821,17.9528494 167.948821,18.4391066 C167.948821,18.9253637 167.544285,19.319553 167.045264,19.319553 L155.332051,19.319553 C154.620494,19.319553 154.20028,18.5333917 154.592421,17.93338 Z M198.737669,19.1258785 L187.867913,5.38100527 L187.867913,18.6499177 C187.867913,19.1361747 187.502115,19.5894144 186.912331,19.5804783 C186.322548,19.5715422 185.956547,19.1361747 185.956547,18.6499177 L185.956547,2.80524989 C185.956547,1.90245915 187.12247,1.52555629 187.704412,2.26716396 L198.578492,16.0729611 L198.578492,2.80524989 C198.578492,2.31899276 198.96702,1.88012477 199.532534,1.87348816 C200.098047,1.86685154 200.487818,2.31899276 200.487818,2.80524989 L200.487818,18.5429589 C200.487818,19.4748765 199.368617,19.8401925 198.737669,19.1258785 Z M147.27247,9.69106838 C146.503266,9.69106838 145.879704,9.08345482 145.879704,8.33392552 C145.879704,7.58439622 146.503266,6.97678266 147.27247,6.97678266 C148.041674,6.97678266 148.665236,7.58439622 148.665236,8.33392552 C148.665236,9.08345482 148.041674,9.69106838 147.27247,9.69106838 Z M147.27247,16.4767827 C146.503266,16.4767827 145.879704,15.8691691 145.879704,15.1196398 C145.879704,14.3701105 146.503266,13.7624969 147.27247,13.7624969 C148.041674,13.7624969 148.665236,14.3701105 148.665236,15.1196398 C148.665236,15.8691691 148.041674,16.4767827 147.27247,16.4767827 Z M222.967,11.684 L221.849,11.684 L221.849,10.527 L225.294,10.527 L225.294,11.684 L224.176,11.684 L224.176,14.882 C224.696,14.765 225.216,14.635 225.723,14.492 L225.723,15.649 C224.592,15.961 223.383,16.234 222.096,16.455 L221.797,15.272 C222.187,15.22 222.577,15.168 222.967,15.103 L222.967,11.684 Z M228.037,17.222 C227.569,17.222 227.14,16.871 226.776,16.195 C226.36,15.376 226.061,14.297 225.879,12.971 C225.723,11.827 225.619,10.436 225.567,8.772 L221.55,8.772 L221.55,7.576 L225.541,7.576 C225.515,6.848 225.515,6.081 225.515,5.301 L226.711,5.301 C226.711,6.107 226.711,6.861 226.737,7.576 L229.22,7.576 L229.22,8.772 L226.763,8.772 C226.815,10.761 226.945,12.36 227.127,13.556 C227.387,15.038 227.686,15.805 228.037,15.87 C228.245,15.844 228.453,15.077 228.687,13.595 L229.662,14.388 C229.194,16.273 228.661,17.222 228.037,17.222 Z M227.803,5.288 C228.349,5.886 228.765,6.419 229.077,6.861 L228.219,7.459 C227.907,6.965 227.478,6.419 226.958,5.821 L227.803,5.288 Z M219.249,5.444 C220.055,6.081 220.731,6.718 221.277,7.368 L220.432,8.226 C219.938,7.615 219.249,6.965 218.391,6.289 L219.249,5.444 Z M217.494,9.214 L220.419,9.214 L220.419,14.57 C220.718,14.271 221.03,13.946 221.355,13.582 L221.68,14.882 C220.952,15.662 220.185,16.351 219.366,16.949 L218.898,15.844 C219.106,15.662 219.223,15.454 219.223,15.207 L219.223,10.397 L217.494,10.397 L217.494,9.214 Z M236.333,13.192 C236.177,14.83 235.696,16.182 234.89,17.248 L233.941,16.403 C234.721,15.285 235.124,13.868 235.15,12.152 L235.15,5.782 L245.121,5.782 L245.121,15.571 C245.121,16.546 244.614,17.04 243.626,17.04 L242.131,17.04 L241.806,15.831 C242.313,15.87 242.781,15.896 243.223,15.896 C243.639,15.896 243.86,15.636 243.86,15.129 L243.86,13.192 L240.636,13.192 L240.636,16.897 L239.388,16.897 L239.388,13.192 L236.333,13.192 Z M236.398,10.059 L236.398,12.048 L239.388,12.048 L239.388,10.059 L236.398,10.059 Z M243.86,12.048 L243.86,10.059 L240.636,10.059 L240.636,12.048 L243.86,12.048 Z M243.86,8.928 L243.86,6.978 L240.636,6.978 L240.636,8.928 L243.86,8.928 Z M239.388,6.978 L236.398,6.978 L236.398,8.928 L239.388,8.928 L239.388,6.978 Z M253.534,5.483 L254.743,5.483 L254.743,8.824 L255.367,8.824 L255.367,10.033 L252.442,10.033 L252.442,10.527 C252.442,10.891 252.429,11.242 252.416,11.58 L254.912,11.58 L254.912,17.287 L253.703,17.287 L253.703,12.763 L252.351,12.763 C252.195,14.661 251.844,16.117 251.324,17.131 L250.388,16.325 C250.934,15.103 251.22,13.179 251.233,10.527 L251.233,5.743 L252.442,5.743 L252.442,8.824 L253.534,8.824 L253.534,5.483 Z M257.148,10.202 L257.148,11.294 C257.096,13.79 256.654,15.792 255.822,17.274 L254.977,16.377 C255.627,15.155 255.965,13.452 256.017,11.294 L256.017,6.25 C258.084,6.211 259.93,5.938 261.568,5.418 L262.166,6.523 C260.658,6.965 258.994,7.225 257.148,7.303 L257.148,9.032 L261.893,9.032 L261.893,10.085 C261.607,11.801 261.087,13.27 260.307,14.466 C260.905,15.246 261.62,15.857 262.465,16.286 L261.854,17.365 C260.931,16.897 260.164,16.26 259.54,15.48 C258.864,16.234 258.058,16.871 257.122,17.378 L256.537,16.286 C257.447,15.779 258.201,15.155 258.825,14.427 C258.162,13.27 257.707,11.866 257.447,10.202 L257.148,10.202 Z M258.552,10.202 C258.786,11.398 259.124,12.451 259.592,13.335 C260.125,12.412 260.502,11.372 260.71,10.202 L258.552,10.202 Z M6.04699992,11.684 L4.92899992,11.684 L4.92899992,10.527 L8.37399992,10.527 L8.37399992,11.684 L7.25599992,11.684 L7.25599992,14.882 C7.77599992,14.765 8.29599992,14.635 8.80299992,14.492 L8.80299992,15.649 C7.67199992,15.961 6.46299992,16.234 5.17599992,16.455 L4.87699992,15.272 C5.26699992,15.22 5.65699992,15.168 6.04699992,15.103 L6.04699992,11.684 Z M11.1169999,17.222 C10.6489999,17.222 10.2199999,16.871 9.85599992,16.195 C9.43999992,15.376 9.14099992,14.297 8.95899992,12.971 C8.80299992,11.827 8.69899992,10.436 8.64699992,8.772 L4.62999992,8.772 L4.62999992,7.576 L8.62099992,7.576 C8.59499992,6.848 8.59499992,6.081 8.59499992,5.301 L9.79099992,5.301 C9.79099992,6.107 9.79099992,6.861 9.81699992,7.576 L12.2999999,7.576 L12.2999999,8.772 L9.84299992,8.772 C9.89499992,10.761 10.0249999,12.36 10.2069999,13.556 C10.4669999,15.038 10.7659999,15.805 11.1169999,15.87 C11.3249999,15.844 11.5329999,15.077 11.7669999,13.595 L12.7419999,14.388 C12.2739999,16.273 11.7409999,17.222 11.1169999,17.222 Z M10.8829999,5.288 C11.4289999,5.886 11.8449999,6.419 12.1569999,6.861 L11.2989999,7.459 C10.9869999,6.965 10.5579999,6.419 10.0379999,5.821 L10.8829999,5.288 Z M2.32899992,5.444 C3.13499992,6.081 3.81099992,6.718 4.35699992,7.368 L3.51199992,8.226 C3.01799992,7.615 2.32899992,6.965 1.47099992,6.289 L2.32899992,5.444 Z M0.573999924,9.214 L3.49899992,9.214 L3.49899992,14.57 C3.79799992,14.271 4.10999992,13.946 4.43499992,13.582 L4.75999992,14.882 C4.03199992,15.662 3.26499992,16.351 2.44599992,16.949 L1.97799992,15.844 C2.18599992,15.662 2.30299992,15.454 2.30299992,15.207 L2.30299992,10.397 L0.573999924,10.397 L0.573999924,9.214 Z M19.413,13.192 C19.257,14.83 18.776,16.182 17.97,17.248 L17.021,16.403 C17.801,15.285 18.204,13.868 18.23,12.152 L18.23,5.782 L28.201,5.782 L28.201,15.571 C28.201,16.546 27.694,17.04 26.706,17.04 L25.211,17.04 L24.886,15.831 C25.393,15.87 25.861,15.896 26.303,15.896 C26.719,15.896 26.94,15.636 26.94,15.129 L26.94,13.192 L23.716,13.192 L23.716,16.897 L22.468,16.897 L22.468,13.192 L19.413,13.192 Z M19.478,10.059 L19.478,12.048 L22.468,12.048 L22.468,10.059 L19.478,10.059 Z M26.94,12.048 L26.94,10.059 L23.716,10.059 L23.716,12.048 L26.94,12.048 Z M26.94,8.928 L26.94,6.978 L23.716,6.978 L23.716,8.928 L26.94,8.928 Z M22.468,6.978 L19.478,6.978 L19.478,8.928 L22.468,8.928 L22.468,6.978 Z M36.614,5.483 L37.823,5.483 L37.823,8.824 L38.447,8.824 L38.447,10.033 L35.522,10.033 L35.522,10.527 C35.522,10.891 35.509,11.242 35.496,11.58 L37.992,11.58 L37.992,17.287 L36.783,17.287 L36.783,12.763 L35.431,12.763 C35.275,14.661 34.924,16.117 34.404,17.131 L33.468,16.325 C34.014,15.103 34.3,13.179 34.313,10.527 L34.313,5.743 L35.522,5.743 L35.522,8.824 L36.614,8.824 L36.614,5.483 Z M40.228,10.202 L40.228,11.294 C40.176,13.79 39.734,15.792 38.902,17.274 L38.057,16.377 C38.707,15.155 39.045,13.452 39.097,11.294 L39.097,6.25 C41.164,6.211 43.01,5.938 44.648,5.418 L45.246,6.523 C43.738,6.965 42.074,7.225 40.228,7.303 L40.228,9.032 L44.973,9.032 L44.973,10.085 C44.687,11.801 44.167,13.27 43.387,14.466 C43.985,15.246 44.7,15.857 45.545,16.286 L44.934,17.365 C44.011,16.897 43.244,16.26 42.62,15.48 C41.944,16.234 41.138,16.871 40.202,17.378 L39.617,16.286 C40.527,15.779 41.281,15.155 41.905,14.427 C41.242,13.27 40.787,11.866 40.527,10.202 L40.228,10.202 Z M41.632,10.202 C41.866,11.398 42.204,12.451 42.672,13.335 C43.205,12.412 43.582,11.372 43.79,10.202 L41.632,10.202 Z" id="Combined-Shape"></path>
        </g>
    </g>
</svg>