<?xml version="1.0" encoding="UTF-8"?>
<svg width="376px" height="20px" viewBox="0 0 376 20" version="1.1" xmlns="http://www.w3.org/2000/svg" xmlns:xlink="http://www.w3.org/1999/xlink">
    <!-- Generator: Sketch 48.2 (47327) - http://www.bohemiancoding.com/sketch -->
    <title>PDF_English</title>
    <desc>Created with Sketch.</desc>
    <defs></defs>
    <g id="PDF水印" stroke="none" stroke-width="1" fill="none" fill-rule="evenodd" transform="translate(-82.000000, -38.000000)">
        <g id="PDF_English" transform="translate(82.000000, 38.000000)" fill="#434B54" fill-rule="nonzero">
            <path d="M134.357693,3.13197042 C134.670467,2.75115306 134.608839,2.19408911 134.220044,1.88773325 C133.831248,1.58137739 133.262513,1.64174035 132.949739,2.02255771 L127.022532,9.23921477 L121.095325,2.02255771 C120.782551,1.64174035 120.213816,1.58137739 119.825021,1.88773325 C119.436225,2.19408911 119.374598,2.75115306 119.687372,3.13197042 L125.862962,10.6510462 L119.687372,18.170122 C119.374598,18.5509394 119.436225,19.1080034 119.825021,19.4143593 C120.213816,19.7207151 120.782551,19.6603521 121.095325,19.2795348 L127.022532,12.0628777 L132.949739,19.2795348 C133.262513,19.6603521 133.831248,19.7207151 134.220044,19.4143593 C134.608839,19.1080034 134.670467,18.5509394 134.357693,18.170122 L128.182102,10.6510462 L134.357693,3.13197042 Z M170.125226,11.5080399 C170.143337,9.49165545 172.254954,7.71895369 174.231986,7.52885138 C176.148633,7.34455547 177.052047,8.13547742 177.675474,9.5069932 C178.048137,10.3268379 178.045163,11.1595779 178.045163,12.057015 L178.045163,18.7248284 C178.045163,19.2135776 178.449673,19.6097872 178.948661,19.6097872 C179.44765,19.6097872 179.85216,19.2135776 179.85216,18.7248284 L179.85216,11.9668051 C179.85216,10.2851854 179.714036,9.57729346 179.335204,8.62969353 C178.621435,6.84429307 176.613403,5.37683937 173.986087,5.72126256 C172.410273,5.92784106 171.029508,6.7040389 170.107728,7.85279188 L170.107728,6.81712733 C170.107728,6.32837813 169.703217,5.93216863 169.204229,5.93216863 C168.70524,5.93216863 168.30073,6.32837813 168.30073,6.81712733 L168.30073,18.7248284 C168.30073,19.2135776 168.70524,19.6097872 169.204229,19.6097872 C169.703217,19.6097872 170.107728,19.2135776 170.107728,18.7248284 L170.107728,11.7050003 C170.118718,11.6368824 170.124665,11.5705607 170.125226,11.5080399 Z M194.457066,1.58495564 C194.457066,1.09620645 194.861576,0.699996948 195.360565,0.699996948 C195.859553,0.699996948 196.264063,1.09620645 196.264063,1.58495564 L196.264063,18.7248284 C196.264063,19.2135776 195.859553,19.6097872 195.360565,19.6097872 C194.861576,19.6097872 194.457066,19.2135776 194.457066,18.7248284 L194.457066,17.455255 C193.277608,18.8332782 191.586842,19.6999969 189.696429,19.6999969 C186.096701,19.6999969 183.220893,16.5572918 183.220893,12.7258729 C183.220893,8.89445412 186.096701,5.75174893 189.696429,5.75174893 C191.586842,5.75174893 193.277608,6.61846767 194.457066,7.99649088 L194.457066,1.58495564 Z M161.439297,2.39684435 C161.439297,1.83336285 161.905659,1.37657084 162.480945,1.37657084 C163.056232,1.37657084 163.522594,1.83336285 163.522594,2.39684435 L163.522594,2.75768378 C163.522594,3.32116527 163.056232,3.77795729 162.480945,3.77795729 C161.905659,3.77795729 161.439297,3.32116527 161.439297,2.75768378 L161.439297,2.39684435 Z M161.577446,6.45628789 C161.577446,5.96753871 161.981957,5.5713292 162.480945,5.5713292 C162.979934,5.5713292 163.384444,5.96753871 163.384444,6.45628789 L163.384444,18.7248284 C163.384444,19.2135776 162.979934,19.6097872 162.480945,19.6097872 C161.981957,19.6097872 161.577446,19.2135776 161.577446,18.7248284 L161.577446,6.45628789 Z M189.696429,17.9300796 C192.251402,17.9300796 194.364966,15.6203604 194.364966,12.7258729 C194.364966,9.83138545 192.251402,7.52166631 189.696429,7.52166631 C187.141455,7.52166631 185.027891,9.83138545 185.027891,12.7258729 C185.027891,15.6203604 187.141455,17.9300796 189.696429,17.9300796 Z M146.472666,14.4983759 C146.431294,14.4326535 144.557612,11.3641985 140.831963,5.3482102 L139.891847,18.7839265 C139.857195,19.2714959 139.432104,19.6415915 138.93432,19.6076507 C138.436536,19.5737099 138.055303,19.1527437 138.089955,18.6651745 L139.238988,2.51580888 C139.300112,1.65576819 140.530017,1.38030783 140.988649,2.1161444 C144.383803,7.56338966 146.545139,11.0829035 147.517241,12.642193 C148.488693,11.0821419 150.650965,7.56374551 154.045833,2.11651584 C154.504254,1.380957 155.743041,1.65469822 155.795494,2.51517759 L156.944527,18.6651745 C156.974267,19.1530548 156.598263,19.579084 156.100161,19.6082139 C155.60206,19.6373438 155.172375,19.2718068 155.142635,18.7839265 L154.202518,5.3482102 C150.476869,11.3708915 148.605411,14.4310034 148.561816,14.4987463 C148.353161,14.8229782 147.939729,15.019416 147.517241,15.0194836 C147.094753,15.0195511 146.675535,14.820644 146.472666,14.4983759 Z M230.038647,17.5785401 L238.743437,17.5785401 C239.242458,17.5785401 239.646994,17.9727293 239.646994,18.4589865 C239.646994,18.9452437 239.242458,19.3394329 238.743437,19.3394329 L228.907025,19.3394329 C228.408004,19.3394329 228.003468,18.9452437 228.003468,18.4589865 L228.003468,2.79949298 C228.003468,2.31323584 228.408004,1.91904654 228.907025,1.91904654 L238.743437,1.91904654 C239.242458,1.91904654 239.646994,2.31323584 239.646994,2.79949298 C239.646994,3.28575011 239.242458,3.67993941 238.743437,3.67993941 L230.038647,3.67993941 L230.038647,9.60449751 L238.256173,9.60449751 C238.755194,9.60449751 239.15973,9.99868679 239.15973,10.4849439 C239.15973,10.9712011 238.755194,11.3653904 238.256173,11.3653904 L230.038647,11.3653904 L230.038647,17.5785401 Z M211.592421,17.93338 L222.079258,3.71009076 L212.332051,3.71009076 C211.83303,3.71009076 211.428494,3.31590148 211.428494,2.82964433 C211.428494,2.3433872 211.83303,1.94919791 212.332051,1.94919791 L223.817103,1.94919791 C224.46788,1.94919791 224.973335,2.65378897 224.556734,3.33537088 L214.069896,17.5586601 L224.045264,17.5586601 C224.544285,17.5586601 224.948821,17.9528494 224.948821,18.4391066 C224.948821,18.9253637 224.544285,19.319553 224.045264,19.319553 L212.332051,19.319553 C211.620494,19.319553 211.20028,18.5333917 211.592421,17.93338 Z M255.737669,19.1258785 L244.867913,5.38100527 L244.867913,18.6499177 C244.867913,19.1361747 244.502115,19.5894144 243.912331,19.5804783 C243.322548,19.5715422 242.956547,19.1361747 242.956547,18.6499177 L242.956547,2.80524989 C242.956547,1.90245915 244.12247,1.52555629 244.704412,2.26716396 L255.578492,16.0729611 L255.578492,2.80524989 C255.578492,2.31899276 255.96702,1.88012477 256.532534,1.87348816 C257.098047,1.86685154 257.487818,2.31899276 257.487818,2.80524989 L257.487818,18.5429589 C257.487818,19.4748765 256.368617,19.8401925 255.737669,19.1258785 Z M204.27247,9.69106838 C203.503266,9.69106838 202.879704,9.08345482 202.879704,8.33392552 C202.879704,7.58439622 203.503266,6.97678266 204.27247,6.97678266 C205.041674,6.97678266 205.665236,7.58439622 205.665236,8.33392552 C205.665236,9.08345482 205.041674,9.69106838 204.27247,9.69106838 Z M204.27247,16.4767827 C203.503266,16.4767827 202.879704,15.8691691 202.879704,15.1196398 C202.879704,14.3701105 203.503266,13.7624969 204.27247,13.7624969 C205.041674,13.7624969 205.665236,14.3701105 205.665236,15.1196398 C205.665236,15.8691691 205.041674,16.4767827 204.27247,16.4767827 Z M278.228,16.07 C278.013332,16.07 277.838334,16.002334 277.703,15.867 C277.567666,15.731666 277.5,15.5566677 277.5,15.342 L277.5,7.334 L274.7,7.334 C274.251998,7.334 274.028,7.13333534 274.028,6.732 C274.028,6.53599902 274.086333,6.38666718 274.203,6.284 C274.319667,6.18133282 274.485332,6.13 274.7,6.13 L281.756,6.13 C281.970668,6.13 282.136333,6.18133282 282.253,6.284 C282.369667,6.38666718 282.428,6.53599902 282.428,6.732 C282.428,7.13333534 282.204002,7.334 281.756,7.334 L278.956,7.334 L278.956,15.342 C278.956,15.5566677 278.890667,15.731666 278.76,15.867 C278.629333,16.002334 278.452001,16.07 278.228,16.07 Z M287.956,9.028 C288.404002,8.99999986 288.628,9.19133128 288.628,9.602 C288.628,9.80733436 288.576667,9.96133282 288.474,10.064 C288.371333,10.1666672 288.194001,10.2273332 287.942,10.246 L287.522,10.288 C286.933997,10.3440003 286.497668,10.5493316 286.213,10.904 C285.928332,11.2586684 285.786,11.6879975 285.786,12.192 L285.786,15.398 C285.786,15.6220011 285.720667,15.7899994 285.59,15.902 C285.459333,16.0140006 285.291334,16.07 285.086,16.07 C284.880666,16.07 284.710334,16.0140006 284.575,15.902 C284.439666,15.7899994 284.372,15.6220011 284.372,15.398 L284.372,9.7 C284.372,9.48533226 284.439666,9.31966725 284.575,9.203 C284.710334,9.08633275 284.880666,9.028 285.086,9.028 C285.272668,9.028 285.428999,9.08633275 285.555,9.203 C285.681001,9.31966725 285.744,9.48066564 285.744,9.686 L285.744,10.358 C285.930668,9.94733128 286.201332,9.63466774 286.556,9.42 C286.910668,9.20533226 287.311998,9.07933352 287.76,9.042 L287.956,9.028 Z M292.21,16.07 C292.004666,16.07 291.834334,16.0140006 291.699,15.902 C291.563666,15.7899994 291.496,15.6220011 291.496,15.398 L291.496,9.714 C291.496,9.48999888 291.563666,9.31966725 291.699,9.203 C291.834334,9.08633275 292.004666,9.028 292.21,9.028 C292.415334,9.028 292.583333,9.08633275 292.714,9.203 C292.844667,9.31966725 292.91,9.48999888 292.91,9.714 L292.91,15.398 C292.91,15.6220011 292.844667,15.7899994 292.714,15.902 C292.583333,16.0140006 292.415334,16.07 292.21,16.07 Z M292.21,7.656 C291.939332,7.656 291.724667,7.58133408 291.566,7.432 C291.407333,7.28266592 291.328,7.08666788 291.328,6.844 C291.328,6.60133212 291.407333,6.40766739 291.566,6.263 C291.724667,6.11833261 291.939332,6.046 292.21,6.046 C292.471335,6.046 292.683666,6.11833261 292.847,6.263 C293.010334,6.40766739 293.092,6.60133212 293.092,6.844 C293.092,7.08666788 293.012667,7.28266592 292.854,7.432 C292.695333,7.58133408 292.480668,7.656 292.21,7.656 Z M299.754,9 C300.659338,9 301.333664,9.22866438 301.777,9.686 C302.220336,10.1433356 302.442,10.838662 302.442,11.772 L302.442,15.398 C302.442,15.6126677 302.381334,15.7783328 302.26,15.895 C302.138666,16.0116673 301.970668,16.07 301.756,16.07 C301.550666,16.07 301.387334,16.0093339 301.266,15.888 C301.144666,15.7666661 301.084,15.6033344 301.084,15.398 L301.084,14.88 C300.906666,15.272002 300.643002,15.5729989 300.293,15.783 C299.942998,15.9930011 299.534669,16.098 299.068,16.098 C298.619998,16.098 298.209335,16.0070009 297.836,15.825 C297.462665,15.6429991 297.171001,15.3886683 296.961,15.062 C296.750999,14.7353317 296.646,14.3713353 296.646,13.97 C296.646,13.4753309 296.774332,13.0856681 297.031,12.801 C297.287668,12.5163319 297.71233,12.3133339 298.305,12.192 C298.89767,12.0706661 299.711995,12.01 300.748,12.01 L301.07,12.01 L301.07,11.604 C301.07,11.0813307 300.962668,10.7033345 300.748,10.47 C300.533332,10.2366655 300.188002,10.12 299.712,10.12 C299.385332,10.12 299.077335,10.1619996 298.788,10.246 C298.498665,10.3300004 298.181335,10.4513325 297.836,10.61 C297.583999,10.7500007 297.406667,10.82 297.304,10.82 C297.163999,10.82 297.049667,10.7686672 296.961,10.666 C296.872333,10.5633328 296.828,10.4326675 296.828,10.274 C296.828,10.1339993 296.867666,10.0103339 296.947,9.903 C297.026334,9.79566613 297.154666,9.69066718 297.332,9.588 C297.658668,9.41066578 298.041331,9.26833387 298.48,9.161 C298.918669,9.05366613 299.343331,9 299.754,9 Z M299.32,15.048 C299.833336,15.048 300.253332,14.8730017 300.58,14.523 C300.906668,14.1729982 301.07,13.7226694 301.07,13.172 L301.07,12.808 L300.818,12.808 C300.089996,12.808 299.530002,12.8406663 299.138,12.906 C298.745998,12.9713337 298.466001,13.0809992 298.298,13.235 C298.129999,13.3890008 298.046,13.6106652 298.046,13.9 C298.046,14.2360017 298.167332,14.5113323 298.41,14.726 C298.652668,14.9406677 298.955998,15.048 299.32,15.048 Z M307.088,16.07 C306.882666,16.07 306.712334,16.0140006 306.577,15.902 C306.441666,15.7899994 306.374,15.6220011 306.374,15.398 L306.374,6.746 C306.374,6.52199888 306.441666,6.35166725 306.577,6.235 C306.712334,6.11833275 306.882666,6.06 307.088,6.06 C307.293334,6.06 307.461333,6.11833275 307.592,6.235 C307.722667,6.35166725 307.788,6.52199888 307.788,6.746 L307.788,15.398 C307.788,15.6220011 307.722667,15.7899994 307.592,15.902 C307.461333,16.0140006 307.293334,16.07 307.088,16.07 Z M324.836,6.438 C324.957334,6.17666536 325.157999,6.046 325.438,6.046 C325.624668,6.046 325.792666,6.10899937 325.942,6.235 C326.091334,6.36100063 326.166,6.51266578 326.166,6.69 C326.166,6.75533366 326.142667,6.84399944 326.096,6.956 L322.148,15.608 C322.082666,15.7573341 321.980001,15.8739996 321.84,15.958 C321.699999,16.0420004 321.550667,16.084 321.392,16.084 C321.233333,16.084 321.081667,16.0420004 320.937,15.958 C320.792333,15.8739996 320.687334,15.7573341 320.622,15.608 L316.688,6.956 C316.641333,6.84399944 316.618,6.75533366 316.618,6.69 C316.618,6.5033324 316.694999,6.34933394 316.849,6.228 C317.003001,6.10666606 317.173332,6.046 317.36,6.046 C317.649335,6.046 317.854666,6.17666536 317.976,6.438 L321.406,14.124 L324.836,6.438 Z M333.822,14.278 C333.952667,14.278 334.06,14.3293328 334.144,14.432 C334.228,14.5346672 334.27,14.6653325 334.27,14.824 C334.27,15.094668 334.102002,15.3233324 333.766,15.51 C333.439332,15.6966676 333.082335,15.8413328 332.695,15.944 C332.307665,16.0466672 331.936668,16.098 331.582,16.098 C330.499328,16.098 329.645336,15.7830031 329.02,15.153 C328.394664,14.5229969 328.082,13.6620055 328.082,12.57 C328.082,11.8699965 328.219665,11.249336 328.495,10.708 C328.770335,10.166664 329.157664,9.74666816 329.657,9.448 C330.156336,9.14933184 330.72333,9 331.358,9 C332.272671,9 332.995997,9.29399706 333.528,9.882 C334.060003,10.4700029 334.326,11.2633283 334.326,12.262 C334.326,12.6353352 334.158002,12.822 333.822,12.822 L329.496,12.822 C329.589334,14.2686739 330.28466,14.992 331.582,14.992 C331.927335,14.992 332.225999,14.9453338 332.478,14.852 C332.730001,14.7586662 332.995999,14.6373341 333.276,14.488 C333.304,14.4693332 333.380999,14.429667 333.507,14.369 C333.633001,14.308333 333.738,14.278 333.822,14.278 Z M331.386,10.036 C330.844664,10.036 330.410668,10.2086649 330.084,10.554 C329.757332,10.8993351 329.561334,11.3846635 329.496,12.01 L333.108,12.01 C333.08,11.3753302 332.919001,10.8876684 332.625,10.547 C332.330999,10.2063316 331.918003,10.036 331.386,10.036 Z M341.464,9.028 C341.912002,8.99999986 342.136,9.19133128 342.136,9.602 C342.136,9.80733436 342.084667,9.96133282 341.982,10.064 C341.879333,10.1666672 341.702001,10.2273332 341.45,10.246 L341.03,10.288 C340.441997,10.3440003 340.005668,10.5493316 339.721,10.904 C339.436332,11.2586684 339.294,11.6879975 339.294,12.192 L339.294,15.398 C339.294,15.6220011 339.228667,15.7899994 339.098,15.902 C338.967333,16.0140006 338.799334,16.07 338.594,16.07 C338.388666,16.07 338.218334,16.0140006 338.083,15.902 C337.947666,15.7899994 337.88,15.6220011 337.88,15.398 L337.88,9.7 C337.88,9.48533226 337.947666,9.31966725 338.083,9.203 C338.218334,9.08633275 338.388666,9.028 338.594,9.028 C338.780668,9.028 338.936999,9.08633275 339.063,9.203 C339.189001,9.31966725 339.252,9.48066564 339.252,9.686 L339.252,10.358 C339.438668,9.94733128 339.709332,9.63466774 340.064,9.42 C340.418668,9.20533226 340.819998,9.07933352 341.268,9.042 L341.464,9.028 Z M347.314,16.098 C346.361995,16.098 345.58267,15.902002 344.976,15.51 C344.807999,15.4073328 344.689,15.3000006 344.619,15.188 C344.549,15.0759994 344.514,14.9500007 344.514,14.81 C344.514,14.6606659 344.556,14.5346672 344.64,14.432 C344.724,14.3293328 344.831333,14.278 344.962,14.278 C345.083334,14.278 345.274665,14.3526659 345.536,14.502 C345.816001,14.6513341 346.088999,14.7726662 346.355,14.866 C346.621001,14.9593338 346.954665,15.006 347.356,15.006 C347.804002,15.006 348.153999,14.9266675 348.406,14.768 C348.658001,14.6093325 348.784,14.3853348 348.784,14.096 C348.784,13.9093324 348.735,13.7600006 348.637,13.648 C348.539,13.5359994 348.368668,13.4356671 348.126,13.347 C347.883332,13.2583329 347.524002,13.1626672 347.048,13.06 C346.226663,12.8826658 345.636335,12.6423349 345.277,12.339 C344.917665,12.0356651 344.738,11.6226693 344.738,11.1 C344.738,10.6986647 344.854666,10.3370016 345.088,10.015 C345.321334,9.69299839 345.643331,9.44333422 346.054,9.266 C346.464669,9.08866578 346.931331,9 347.454,9 C347.827335,9 348.191332,9.04899951 348.546,9.147 C348.900668,9.24500049 349.213332,9.3873324 349.484,9.574 C349.792002,9.77933436 349.946,10.017332 349.946,10.288 C349.946,10.4373341 349.901667,10.5633328 349.813,10.666 C349.724333,10.7686672 349.619334,10.82 349.498,10.82 C349.414,10.82 349.33,10.8013335 349.246,10.764 C349.162,10.7266665 349.050001,10.6660004 348.91,10.582 C348.657999,10.4326659 348.422334,10.3160004 348.203,10.232 C347.983666,10.1479996 347.710668,10.106 347.384,10.106 C346.991998,10.106 346.677001,10.1899992 346.439,10.358 C346.200999,10.5260008 346.082,10.7546652 346.082,11.044 C346.082,11.3053346 346.191666,11.5083326 346.411,11.653 C346.630334,11.7976674 347.04333,11.9353327 347.65,12.066 C348.275336,12.1966673 348.765332,12.3459992 349.12,12.514 C349.474668,12.6820008 349.728999,12.8896654 349.883,13.137 C350.037001,13.3843346 350.114,13.6993314 350.114,14.082 C350.114,14.6886697 349.859669,15.1763315 349.351,15.545 C348.842331,15.9136685 348.163338,16.098 347.314,16.098 Z M354.396,16.07 C354.190666,16.07 354.020334,16.0140006 353.885,15.902 C353.749666,15.7899994 353.682,15.6220011 353.682,15.398 L353.682,9.714 C353.682,9.48999888 353.749666,9.31966725 353.885,9.203 C354.020334,9.08633275 354.190666,9.028 354.396,9.028 C354.601334,9.028 354.769333,9.08633275 354.9,9.203 C355.030667,9.31966725 355.096,9.48999888 355.096,9.714 L355.096,15.398 C355.096,15.6220011 355.030667,15.7899994 354.9,15.902 C354.769333,16.0140006 354.601334,16.07 354.396,16.07 Z M354.396,7.656 C354.125332,7.656 353.910667,7.58133408 353.752,7.432 C353.593333,7.28266592 353.514,7.08666788 353.514,6.844 C353.514,6.60133212 353.593333,6.40766739 353.752,6.263 C353.910667,6.11833261 354.125332,6.046 354.396,6.046 C354.657335,6.046 354.869666,6.11833261 355.033,6.263 C355.196334,6.40766739 355.278,6.60133212 355.278,6.844 C355.278,7.08666788 355.198667,7.28266592 355.04,7.432 C354.881333,7.58133408 354.666668,7.656 354.396,7.656 Z M362.038,16.098 C361.365997,16.098 360.775669,15.9533348 360.267,15.664 C359.758331,15.3746652 359.366335,14.9616694 359.091,14.425 C358.815665,13.8883307 358.678,13.2653369 358.678,12.556 C358.678,11.8373297 358.815665,11.2096694 359.091,10.673 C359.366335,10.1363306 359.758331,9.72333478 360.267,9.434 C360.775669,9.14466522 361.365997,9 362.038,9 C362.710003,9 363.300331,9.14466522 363.809,9.434 C364.317669,9.72333478 364.709665,10.1363306 364.985,10.673 C365.260335,11.2096694 365.398,11.8373297 365.398,12.556 C365.398,13.2653369 365.260335,13.8883307 364.985,14.425 C364.709665,14.9616694 364.317669,15.3746652 363.809,15.664 C363.300331,15.9533348 362.710003,16.098 362.038,16.098 Z M362.038,14.978 C362.663336,14.978 363.141665,14.7726687 363.473,14.362 C363.804335,13.9513313 363.97,13.3493373 363.97,12.556 C363.97,11.7719961 363.802002,11.1723354 363.466,10.757 C363.129998,10.3416646 362.654003,10.134 362.038,10.134 C361.421997,10.134 360.946002,10.3416646 360.61,10.757 C360.273998,11.1723354 360.106,11.7719961 360.106,12.556 C360.106,13.3493373 360.271665,13.9513313 360.603,14.362 C360.934335,14.7726687 361.412664,14.978 362.038,14.978 Z M372.648,9 C374.281341,9 375.098,9.91932414 375.098,11.758 L375.098,15.398 C375.098,15.6126677 375.035001,15.7783328 374.909,15.895 C374.782999,16.0116673 374.608001,16.07 374.384,16.07 C374.169332,16.07 373.999001,16.0093339 373.873,15.888 C373.746999,15.7666661 373.684,15.6033344 373.684,15.398 L373.684,11.828 C373.684,11.2493304 373.569668,10.824668 373.341,10.554 C373.112332,10.283332 372.755336,10.148 372.27,10.148 C371.700664,10.148 371.243335,10.3253316 370.898,10.68 C370.552665,11.0346684 370.38,11.5106637 370.38,12.108 L370.38,15.398 C370.38,15.6033344 370.317001,15.7666661 370.191,15.888 C370.064999,16.0093339 369.894668,16.07 369.68,16.07 C369.465332,16.07 369.292667,16.0093339 369.162,15.888 C369.031333,15.7666661 368.966,15.6033344 368.966,15.398 L368.966,9.7 C368.966,9.50399902 369.033666,9.34300063 369.169,9.217 C369.304334,9.09099937 369.474666,9.028 369.68,9.028 C369.885334,9.028 370.048666,9.08866606 370.17,9.21 C370.291334,9.33133394 370.352,9.48999902 370.352,9.686 L370.352,10.26 C370.576001,9.84933128 370.888665,9.53666774 371.29,9.322 C371.691335,9.10733226 372.143997,9 372.648,9 Z M4.228,16.07 C4.01333226,16.07 3.83833401,16.002334 3.703,15.867 C3.56766599,15.731666 3.5,15.5566677 3.5,15.342 L3.5,7.334 L0.7,7.334 C0.25199776,7.334 0.028,7.13333534 0.028,6.732 C0.028,6.53599902 0.08633275,6.38666718 0.203,6.284 C0.31966725,6.18133282 0.48533226,6.13 0.7,6.13 L7.756,6.13 C7.97066774,6.13 8.13633275,6.18133282 8.253,6.284 C8.36966725,6.38666718 8.428,6.53599902 8.428,6.732 C8.428,7.13333534 8.20400224,7.334 7.756,7.334 L4.956,7.334 L4.956,15.342 C4.956,15.5566677 4.89066732,15.731666 4.76,15.867 C4.62933268,16.002334 4.45200112,16.07 4.228,16.07 Z M13.956,9.028 C14.4040022,8.99999986 14.628,9.19133128 14.628,9.602 C14.628,9.80733436 14.5766672,9.96133282 14.474,10.064 C14.3713328,10.1666672 14.1940013,10.2273332 13.942,10.246 L13.522,10.288 C12.9339971,10.3440003 12.4976681,10.5493316 12.213,10.904 C11.9283319,11.2586684 11.786,11.6879975 11.786,12.192 L11.786,15.398 C11.786,15.6220011 11.7206673,15.7899994 11.59,15.902 C11.4593327,16.0140006 11.2913344,16.07 11.086,16.07 C10.8806656,16.07 10.710334,16.0140006 10.575,15.902 C10.439666,15.7899994 10.372,15.6220011 10.372,15.398 L10.372,9.7 C10.372,9.48533226 10.439666,9.31966725 10.575,9.203 C10.710334,9.08633275 10.8806656,9.028 11.086,9.028 C11.2726676,9.028 11.4289994,9.08633275 11.555,9.203 C11.6810006,9.31966725 11.744,9.48066564 11.744,9.686 L11.744,10.358 C11.9306676,9.94733128 12.2013316,9.63466774 12.556,9.42 C12.9106684,9.20533226 13.3119978,9.07933352 13.76,9.042 L13.956,9.028 Z M18.21,16.07 C18.0046656,16.07 17.834334,16.0140006 17.699,15.902 C17.563666,15.7899994 17.496,15.6220011 17.496,15.398 L17.496,9.714 C17.496,9.48999888 17.563666,9.31966725 17.699,9.203 C17.834334,9.08633275 18.0046656,9.028 18.21,9.028 C18.4153344,9.028 18.5833327,9.08633275 18.714,9.203 C18.8446673,9.31966725 18.91,9.48999888 18.91,9.714 L18.91,15.398 C18.91,15.6220011 18.8446673,15.7899994 18.714,15.902 C18.5833327,16.0140006 18.4153344,16.07 18.21,16.07 Z M18.21,7.656 C17.939332,7.656 17.7246675,7.58133408 17.566,7.432 C17.4073325,7.28266592 17.328,7.08666788 17.328,6.844 C17.328,6.60133212 17.4073325,6.40766739 17.566,6.263 C17.7246675,6.11833261 17.939332,6.046 18.21,6.046 C18.4713346,6.046 18.6836659,6.11833261 18.847,6.263 C19.0103342,6.40766739 19.092,6.60133212 19.092,6.844 C19.092,7.08666788 19.0126675,7.28266592 18.854,7.432 C18.6953325,7.58133408 18.480668,7.656 18.21,7.656 Z M25.754,9 C26.6593379,9 27.3336645,9.22866438 27.777,9.686 C28.2203356,10.1433356 28.442,10.838662 28.442,11.772 L28.442,15.398 C28.442,15.6126677 28.3813339,15.7783328 28.26,15.895 C28.1386661,16.0116673 27.9706677,16.07 27.756,16.07 C27.5506656,16.07 27.3873339,16.0093339 27.266,15.888 C27.1446661,15.7666661 27.084,15.6033344 27.084,15.398 L27.084,14.88 C26.9066658,15.272002 26.6430018,15.5729989 26.293,15.783 C25.9429983,15.9930011 25.534669,16.098 25.068,16.098 C24.6199978,16.098 24.2093352,16.0070009 23.836,15.825 C23.4626648,15.6429991 23.1710011,15.3886683 22.961,15.062 C22.750999,14.7353317 22.646,14.3713353 22.646,13.97 C22.646,13.4753309 22.7743321,13.0856681 23.031,12.801 C23.287668,12.5163319 23.7123304,12.3133339 24.305,12.192 C24.8976696,12.0706661 25.7119948,12.01 26.748,12.01 L27.07,12.01 L27.07,11.604 C27.07,11.0813307 26.9626677,10.7033345 26.748,10.47 C26.5333323,10.2366655 26.1880024,10.12 25.712,10.12 C25.3853317,10.12 25.0773348,10.1619996 24.788,10.246 C24.4986652,10.3300004 24.1813351,10.4513325 23.836,10.61 C23.5839987,10.7500007 23.4066672,10.82 23.304,10.82 C23.1639993,10.82 23.0496671,10.7686672 22.961,10.666 C22.8723329,10.5633328 22.828,10.4326675 22.828,10.274 C22.828,10.1339993 22.8676663,10.0103339 22.947,9.903 C23.0263337,9.79566613 23.1546658,9.69066718 23.332,9.588 C23.6586683,9.41066578 24.0413311,9.26833387 24.48,9.161 C24.9186689,9.05366613 25.3433313,9 25.754,9 Z M25.32,15.048 C25.8333359,15.048 26.2533317,14.8730017 26.58,14.523 C26.9066683,14.1729982 27.07,13.7226694 27.07,13.172 L27.07,12.808 L26.818,12.808 C26.0899964,12.808 25.530002,12.8406663 25.138,12.906 C24.745998,12.9713337 24.4660008,13.0809992 24.298,13.235 C24.1299992,13.3890008 24.046,13.6106652 24.046,13.9 C24.046,14.2360017 24.1673321,14.5113323 24.41,14.726 C24.6526679,14.9406677 24.9559982,15.048 25.32,15.048 Z M33.088,16.07 C32.8826656,16.07 32.712334,16.0140006 32.577,15.902 C32.441666,15.7899994 32.374,15.6220011 32.374,15.398 L32.374,6.746 C32.374,6.52199888 32.441666,6.35166725 32.577,6.235 C32.712334,6.11833275 32.8826656,6.06 33.088,6.06 C33.2933344,6.06 33.4613327,6.11833275 33.592,6.235 C33.7226673,6.35166725 33.788,6.52199888 33.788,6.746 L33.788,15.398 C33.788,15.6220011 33.7226673,15.7899994 33.592,15.902 C33.4613327,16.0140006 33.2933344,16.07 33.088,16.07 Z M50.836,6.438 C50.9573339,6.17666536 51.1579986,6.046 51.438,6.046 C51.6246676,6.046 51.7926659,6.10899937 51.942,6.235 C52.0913341,6.36100063 52.166,6.51266578 52.166,6.69 C52.166,6.75533366 52.1426669,6.84399944 52.096,6.956 L48.148,15.608 C48.0826663,15.7573341 47.9800007,15.8739996 47.84,15.958 C47.6999993,16.0420004 47.5506675,16.084 47.392,16.084 C47.2333325,16.084 47.0816674,16.0420004 46.937,15.958 C46.7923326,15.8739996 46.6873337,15.7573341 46.622,15.608 L42.688,6.956 C42.6413331,6.84399944 42.618,6.75533366 42.618,6.69 C42.618,6.5033324 42.6949992,6.34933394 42.849,6.228 C43.0030008,6.10666606 43.1733324,6.046 43.36,6.046 C43.6493348,6.046 43.8546661,6.17666536 43.976,6.438 L47.406,14.124 L50.836,6.438 Z M59.822,14.278 C59.9526673,14.278 60.0599996,14.3293328 60.144,14.432 C60.2280004,14.5346672 60.27,14.6653325 60.27,14.824 C60.27,15.094668 60.1020017,15.3233324 59.766,15.51 C59.4393317,15.6966676 59.0823353,15.8413328 58.695,15.944 C58.3076647,16.0466672 57.9366684,16.098 57.582,16.098 C56.4993279,16.098 55.6453365,15.7830031 55.02,15.153 C54.3946635,14.5229969 54.082,13.6620055 54.082,12.57 C54.082,11.8699965 54.2196653,11.249336 54.495,10.708 C54.7703347,10.166664 55.1576642,9.74666816 55.657,9.448 C56.1563358,9.14933184 56.7233302,9 57.358,9 C58.2726712,9 58.9959973,9.29399706 59.528,9.882 C60.0600027,10.4700029 60.326,11.2633283 60.326,12.262 C60.326,12.6353352 60.1580017,12.822 59.822,12.822 L55.496,12.822 C55.5893338,14.2686739 56.2846602,14.992 57.582,14.992 C57.9273351,14.992 58.2259987,14.9453338 58.478,14.852 C58.7300013,14.7586662 58.9959986,14.6373341 59.276,14.488 C59.3040001,14.4693332 59.3809994,14.429667 59.507,14.369 C59.6330006,14.308333 59.7379996,14.278 59.822,14.278 Z M57.386,10.036 C56.844664,10.036 56.4106683,10.2086649 56.084,10.554 C55.7573317,10.8993351 55.5613337,11.3846635 55.496,12.01 L59.108,12.01 C59.0799999,11.3753302 58.9190015,10.8876684 58.625,10.547 C58.3309985,10.2063316 57.9180027,10.036 57.386,10.036 Z M67.464,9.028 C67.9120022,8.99999986 68.136,9.19133128 68.136,9.602 C68.136,9.80733436 68.0846672,9.96133282 67.982,10.064 C67.8793328,10.1666672 67.7020013,10.2273332 67.45,10.246 L67.03,10.288 C66.4419971,10.3440003 66.0056681,10.5493316 65.721,10.904 C65.4363319,11.2586684 65.294,11.6879975 65.294,12.192 L65.294,15.398 C65.294,15.6220011 65.2286673,15.7899994 65.098,15.902 C64.9673327,16.0140006 64.7993344,16.07 64.594,16.07 C64.3886656,16.07 64.218334,16.0140006 64.083,15.902 C63.947666,15.7899994 63.88,15.6220011 63.88,15.398 L63.88,9.7 C63.88,9.48533226 63.947666,9.31966725 64.083,9.203 C64.218334,9.08633275 64.3886656,9.028 64.594,9.028 C64.7806676,9.028 64.9369994,9.08633275 65.063,9.203 C65.1890006,9.31966725 65.252,9.48066564 65.252,9.686 L65.252,10.358 C65.4386676,9.94733128 65.7093316,9.63466774 66.064,9.42 C66.4186684,9.20533226 66.8199978,9.07933352 67.268,9.042 L67.464,9.028 Z M73.314,16.098 C72.3619952,16.098 71.5826697,15.902002 70.976,15.51 C70.8079992,15.4073328 70.6890004,15.3000006 70.619,15.188 C70.5489997,15.0759994 70.514,14.9500007 70.514,14.81 C70.514,14.6606659 70.5559996,14.5346672 70.64,14.432 C70.7240004,14.3293328 70.8313327,14.278 70.962,14.278 C71.0833339,14.278 71.2746654,14.3526659 71.536,14.502 C71.8160014,14.6513341 72.0889987,14.7726662 72.355,14.866 C72.6210013,14.9593338 72.9546647,15.006 73.356,15.006 C73.8040022,15.006 74.1539987,14.9266675 74.406,14.768 C74.6580013,14.6093325 74.784,14.3853348 74.784,14.096 C74.784,13.9093324 74.7350005,13.7600006 74.637,13.648 C74.5389995,13.5359994 74.3686679,13.4356671 74.126,13.347 C73.8833321,13.2583329 73.5240024,13.1626672 73.048,13.06 C72.2266626,12.8826658 71.6363351,12.6423349 71.277,12.339 C70.9176649,12.0356651 70.738,11.6226693 70.738,11.1 C70.738,10.6986647 70.8546655,10.3370016 71.088,10.015 C71.3213345,9.69299839 71.6433313,9.44333422 72.054,9.266 C72.4646687,9.08866578 72.9313307,9 73.454,9 C73.8273352,9 74.1913316,9.04899951 74.546,9.147 C74.9006684,9.24500049 75.213332,9.3873324 75.484,9.574 C75.7920015,9.77933436 75.946,10.017332 75.946,10.288 C75.946,10.4373341 75.9016671,10.5633328 75.813,10.666 C75.7243329,10.7686672 75.6193339,10.82 75.498,10.82 C75.4139996,10.82 75.3300004,10.8013335 75.246,10.764 C75.1619996,10.7266665 75.0500007,10.6660004 74.91,10.582 C74.6579987,10.4326659 74.4223344,10.3160004 74.203,10.232 C73.9836656,10.1479996 73.7106683,10.106 73.384,10.106 C72.991998,10.106 72.6770012,10.1899992 72.439,10.358 C72.2009988,10.5260008 72.082,10.7546652 72.082,11.044 C72.082,11.3053346 72.1916656,11.5083326 72.411,11.653 C72.6303344,11.7976674 73.0433303,11.9353327 73.65,12.066 C74.2753365,12.1966673 74.7653316,12.3459992 75.12,12.514 C75.4746684,12.6820008 75.7289992,12.8896654 75.883,13.137 C76.0370008,13.3843346 76.114,13.6993314 76.114,14.082 C76.114,14.6886697 75.8596692,15.1763315 75.351,15.545 C74.8423308,15.9136685 74.1633376,16.098 73.314,16.098 Z M80.396,16.07 C80.1906656,16.07 80.020334,16.0140006 79.885,15.902 C79.749666,15.7899994 79.682,15.6220011 79.682,15.398 L79.682,9.714 C79.682,9.48999888 79.749666,9.31966725 79.885,9.203 C80.020334,9.08633275 80.1906656,9.028 80.396,9.028 C80.6013344,9.028 80.7693327,9.08633275 80.9,9.203 C81.0306673,9.31966725 81.096,9.48999888 81.096,9.714 L81.096,15.398 C81.096,15.6220011 81.0306673,15.7899994 80.9,15.902 C80.7693327,16.0140006 80.6013344,16.07 80.396,16.07 Z M80.396,7.656 C80.125332,7.656 79.9106675,7.58133408 79.752,7.432 C79.5933325,7.28266592 79.514,7.08666788 79.514,6.844 C79.514,6.60133212 79.5933325,6.40766739 79.752,6.263 C79.9106675,6.11833261 80.125332,6.046 80.396,6.046 C80.6573346,6.046 80.8696659,6.11833261 81.033,6.263 C81.1963341,6.40766739 81.278,6.60133212 81.278,6.844 C81.278,7.08666788 81.1986675,7.28266592 81.04,7.432 C80.8813325,7.58133408 80.666668,7.656 80.396,7.656 Z M88.038,16.098 C87.3659966,16.098 86.7756692,15.9533348 86.267,15.664 C85.7583308,15.3746652 85.3663347,14.9616694 85.091,14.425 C84.8156653,13.8883307 84.678,13.2653369 84.678,12.556 C84.678,11.8373297 84.8156653,11.2096694 85.091,10.673 C85.3663347,10.1363306 85.7583308,9.72333478 86.267,9.434 C86.7756692,9.14466522 87.3659966,9 88.038,9 C88.7100034,9 89.3003308,9.14466522 89.809,9.434 C90.3176692,9.72333478 90.7096653,10.1363306 90.985,10.673 C91.2603347,11.2096694 91.398,11.8373297 91.398,12.556 C91.398,13.2653369 91.2603347,13.8883307 90.985,14.425 C90.7096653,14.9616694 90.3176692,15.3746652 89.809,15.664 C89.3003308,15.9533348 88.7100034,16.098 88.038,16.098 Z M88.038,14.978 C88.6633365,14.978 89.141665,14.7726687 89.473,14.362 C89.804335,13.9513313 89.97,13.3493373 89.97,12.556 C89.97,11.7719961 89.8020017,11.1723354 89.466,10.757 C89.1299983,10.3416646 88.6540031,10.134 88.038,10.134 C87.4219969,10.134 86.9460017,10.3416646 86.61,10.757 C86.2739983,11.1723354 86.106,11.7719961 86.106,12.556 C86.106,13.3493373 86.271665,13.9513313 86.603,14.362 C86.934335,14.7726687 87.4126635,14.978 88.038,14.978 Z M98.648,9 C100.281341,9 101.098,9.91932414 101.098,11.758 L101.098,15.398 C101.098,15.6126677 101.035001,15.7783328 100.909,15.895 C100.782999,16.0116673 100.608001,16.07 100.384,16.07 C100.169332,16.07 99.9990006,16.0093339 99.873,15.888 C99.7469994,15.7666661 99.684,15.6033344 99.684,15.398 L99.684,11.828 C99.684,11.2493304 99.5696678,10.824668 99.341,10.554 C99.1123322,10.283332 98.7553358,10.148 98.27,10.148 C97.7006638,10.148 97.2433351,10.3253316 96.898,10.68 C96.5526649,11.0346684 96.38,11.5106637 96.38,12.108 L96.38,15.398 C96.38,15.6033344 96.3170006,15.7666661 96.191,15.888 C96.0649994,16.0093339 95.8946677,16.07 95.68,16.07 C95.4653323,16.07 95.2926673,16.0093339 95.162,15.888 C95.0313327,15.7666661 94.966,15.6033344 94.966,15.398 L94.966,9.7 C94.966,9.50399902 95.033666,9.34300063 95.169,9.217 C95.304334,9.09099937 95.4746656,9.028 95.68,9.028 C95.8853344,9.028 96.0486661,9.08866606 96.17,9.21 C96.2913339,9.33133394 96.352,9.48999902 96.352,9.686 L96.352,10.26 C96.5760011,9.84933128 96.8886647,9.53666774 97.29,9.322 C97.6913353,9.10733226 98.1439975,9 98.648,9 Z" id="Combined-Shape"></path>
        </g>
    </g>
</svg>