<?xml version="1.0" encoding="UTF-8"?>
<svg width="138px" height="151px" viewBox="0 0 138 151" version="1.1" xmlns="http://www.w3.org/2000/svg" xmlns:xlink="http://www.w3.org/1999/xlink">
    <!-- Generator: Sketch 48.2 (47327) - http://www.bohemiancoding.com/sketch -->
    <title>png_简体中文</title>
    <desc>Created with Sketch.</desc>
    <defs></defs>
    <g id="png水印-试用版" stroke="none" stroke-width="1" fill="none" fill-rule="evenodd" transform="translate(-246.000000, -65.000000)">
        <g id="png_简体中文" transform="translate(246.000000, 65.000000)" fill="#FE6752" fill-rule="nonzero">
            <path d="M0,0 L0,120.3 L69.5,151 L138,120.3 L138,0 L0,0 Z M69.5,52 C60.9,52 54,45.1 54,36.5 C54,27.9 60.9,21 69.5,21 C78.1,21 85,27.9 85,36.5 C85,45.1 78.1,52 69.5,52 Z M76.1,28.4 L70.3,33.6 C70.3,33.6 70.3,33.6 70.3,33.6 C70.1,33.7 69.8,33.8 69.6,33.8 C69.3,33.8 69.1,33.7 68.9,33.6 C68.9,33.6 68.9,33.6 68.9,33.6 L63.1,28.4 C62.8,28.1 62.2,28.1 61.9,28.5 C61.6,28.8 61.6,29.4 62,29.7 L67.6,34.8 C68.1,35.3 68.8,35.6 69.6,35.6 C70.4,35.6 71.1,35.3 71.6,34.8 L77.2,29.7 C77.5,29.4 77.6,28.9 77.3,28.5 C77,28.1 76.5,28.1 76.1,28.4 Z M71.6,38.1 L77.2,43.2 C77.6,43.5 77.6,44.1 77.3,44.4 C77,44.8 76.4,44.8 76.1,44.5 L70.3,39.3 C70.1,39.2 69.9,39.1 69.6,39.1 C69.4,39.1 69.1,39.2 68.9,39.3 L63.1,44.5 C62.7,44.8 62.2,44.7 61.9,44.4 C61.6,44 61.7,43.5 62,43.2 L67.6,38.1 C68.1,37.6 68.8,37.3 69.6,37.3 C70.4,37.3 71.1,37.6 71.6,38.1 Z M25.068304,64.0479777 L20.0562305,70.379831 L25.068304,76.7116843 C25.3221497,77.0323726 25.2721331,77.5014791 24.9565888,77.759463 C24.6410446,78.0174469 24.1794629,77.9666149 23.9256173,77.6459266 L19.1151304,71.5687417 L14.3046435,77.6459266 C14.0507979,77.9666149 13.5892162,78.0174469 13.2736719,77.759463 C12.9581277,77.5014791 12.9081111,77.0323726 13.1619568,76.7116843 L18.1740303,70.379831 L13.1619568,64.0479777 C12.9081111,63.7272894 12.9581277,63.2581829 13.2736719,63.000199 C13.5892162,62.7422151 14.0507979,62.7930471 14.3046435,63.1137354 L19.1151304,69.1909203 L23.9256173,63.1137354 C24.1794629,62.7930471 24.6410446,62.7422151 24.9565888,63.000199 C25.2721331,63.2581829 25.3221497,63.7272894 25.068304,64.0479777 Z M54.0970271,71.1015098 C54.0965714,71.154159 54.0917448,71.2100088 54.0828251,71.2673713 L54.0828251,77.1788054 C54.0828251,77.5903837 53.754527,77.9240339 53.3495507,77.9240339 C52.9445745,77.9240339 52.6162764,77.5903837 52.6162764,77.1788054 L52.6162764,67.1512677 C52.6162764,66.7396894 52.9445745,66.4060393 53.3495507,66.4060393 C53.754527,66.4060393 54.0828251,66.7396894 54.0828251,67.1512677 L54.0828251,68.0234063 C54.8309365,67.0560353 55.9515573,66.402395 57.2304791,66.2284342 C59.3627937,65.9383936 60.9925008,67.1741441 61.5717914,68.6776392 C61.8792495,69.4756181 61.9913502,70.0717376 61.9913502,71.4878385 L61.9913502,77.1788054 C61.9913502,77.5903837 61.6630521,77.9240339 61.2580758,77.9240339 C60.8530996,77.9240339 60.5248015,77.5903837 60.5248015,77.1788054 L60.5248015,71.5638046 C60.5248015,70.8080681 60.5272158,70.1068134 60.2247645,69.4164179 C59.7187944,68.2614572 58.9855887,67.5954177 57.4300494,67.7506143 C55.8255016,67.9107004 54.1117254,69.4035019 54.0970271,71.1015098 Z M73.8446069,62.7452284 C73.8446069,62.3336501 74.1729051,62 74.5778812,62 C74.9828575,62 75.3111557,62.3336501 75.3111557,62.7452284 L75.3111557,77.1788054 C75.3111557,77.5903837 74.9828575,77.9240339 74.5778812,77.9240339 C74.1729051,77.9240339 73.8446069,77.5903837 73.8446069,77.1788054 L73.8446069,76.109691 C72.887366,77.2701316 71.5151503,78 69.9809013,78 C67.0593833,78 64.7253945,75.3535114 64.7253945,72.1270535 C64.7253945,68.9005955 67.0593833,66.2541069 69.9809013,66.2541069 C71.5151503,66.2541069 72.887366,66.9839753 73.8446069,68.1444159 L73.8446069,62.7452284 Z M47.047577,63.4289241 C47.047577,62.9544134 47.4260736,62.5697464 47.8929728,62.5697464 C48.3598722,62.5697464 48.7383688,62.9544134 48.7383688,63.4289241 L48.7383688,63.7327889 C48.7383688,64.2072996 48.3598722,64.5919666 47.8929728,64.5919666 C47.4260736,64.5919666 47.047577,64.2072996 47.047577,63.7327889 L47.047577,63.4289241 Z M47.1596984,66.8474029 C47.1596984,66.4358246 47.4879965,66.1021745 47.8929728,66.1021745 C48.2979491,66.1021745 48.6262473,66.4358246 48.6262473,66.8474029 L48.6262473,77.1788054 C48.6262473,77.5903837 48.2979491,77.9240339 47.8929728,77.9240339 C47.4879965,77.9240339 47.1596984,77.5903837 47.1596984,77.1788054 L47.1596984,66.8474029 Z M69.9809013,76.5095433 C67.9072994,76.5095433 66.1919432,74.5645166 66.1919432,72.1270535 C66.1919432,69.6895903 67.9072994,67.7445637 69.9809013,67.7445637 C72.0545032,67.7445637 73.7698593,69.6895903 73.7698593,72.1270535 C73.7698593,74.5645166 72.0545032,76.5095433 69.9809013,76.5095433 Z M34.9007463,73.6196876 C34.8671687,73.5643424 33.3464998,70.9803802 30.3227847,65.9142848 L29.5597918,77.2285723 C29.5316686,77.639157 29.1866671,77.9508164 28.7826686,77.9222347 C28.37867,77.893653 28.0692631,77.5391551 28.0973863,77.1285706 L29.0299351,63.5291048 C29.0795426,62.80486 30.0777268,62.5728934 30.4499495,63.1925452 C33.205437,67.7796991 34.9595645,70.7435003 35.7485171,72.0565861 C36.5369422,70.7428589 38.2918296,67.7799988 41.0470848,63.192858 C41.4191368,62.57344 42.4245286,62.803959 42.4670992,63.5285732 L43.399648,77.1285706 C43.423785,77.5394171 43.118622,77.8981786 42.7143657,77.922709 C42.3101093,77.9472394 41.9613794,77.6394189 41.9372425,77.2285723 L41.1742496,65.9142848 C38.1505345,70.9860165 36.6316694,73.5629528 36.596288,73.6199995 C36.4269453,73.8930368 36.0914063,74.0584582 35.7485171,74.0585151 C35.405628,74.058572 35.0653932,73.8910712 34.9007463,73.6196876 Z M102.722412,76.21351 L109.787169,76.21351 C110.192172,76.21351 110.520491,76.5454589 110.520491,76.9549386 C110.520491,77.3644183 110.192172,77.6963671 109.787169,77.6963671 L101.803994,77.6963671 C101.398992,77.6963671 101.070672,77.3644183 101.070672,76.9549386 L101.070672,63.7679967 C101.070672,63.358517 101.398992,63.0265681 101.803994,63.0265681 L109.787169,63.0265681 C110.192172,63.0265681 110.520491,63.358517 110.520491,63.7679967 C110.520491,64.1774763 110.192172,64.5094252 109.787169,64.5094252 L102.722412,64.5094252 L102.722412,69.4985268 L109.391708,69.4985268 C109.796711,69.4985268 110.12503,69.8304757 110.12503,70.2399554 C110.12503,70.6494351 109.796711,70.9813839 109.391708,70.9813839 L102.722412,70.9813839 L102.722412,76.21351 Z M87.7515616,76.5123226 L96.2626182,64.5348158 L88.3518413,64.5348158 C87.9468389,64.5348158 87.6185195,64.202867 87.6185195,63.7933873 C87.6185195,63.3839076 87.9468389,63.0519587 88.3518413,63.0519587 L97.673043,63.0519587 C98.2012094,63.0519587 98.6114344,63.6452985 98.2733228,64.2192623 L89.762266,76.196769 L97.8582169,76.196769 C98.2632193,76.196769 98.5915386,76.5287179 98.5915386,76.9381976 C98.5915386,77.3476773 98.2632193,77.6796261 97.8582169,77.6796261 L88.3518413,77.6796261 C87.7743458,77.6796261 87.4333023,77.0175956 87.7515616,76.5123226 Z M123.579589,77.5165319 L114.757758,65.9419017 L114.757758,77.1157227 C114.757758,77.5252023 114.460878,77.9068779 113.982214,77.8993527 C113.503549,77.8918276 113.206505,77.5252023 113.206505,77.1157227 L113.206505,63.7728446 C113.206505,63.0125997 114.152761,62.6952079 114.625062,63.3197196 L123.450402,74.9456541 L123.450402,63.7728446 C123.450402,63.3633649 123.765729,62.9937919 124.224697,62.9882031 C124.683664,62.9826144 125,63.3633649 125,63.7728446 L125,77.0256521 C125,77.8104249 124.091663,78.1180594 123.579589,77.5165319 Z M81.810732,69.5714286 C81.1864508,69.5714286 80.6803709,69.059754 80.6803709,68.4285714 C80.6803709,67.7973889 81.1864508,67.2857143 81.810732,67.2857143 C82.4350132,67.2857143 82.9410931,67.7973889 82.9410931,68.4285714 C82.9410931,69.059754 82.4350132,69.5714286 81.810732,69.5714286 Z M81.810732,75.2857143 C81.1864508,75.2857143 80.6803709,74.7740397 80.6803709,74.1428571 C80.6803709,73.5116746 81.1864508,73 81.810732,73 C82.4350132,73 82.9410931,73.5116746 82.9410931,74.1428571 C82.9410931,74.7740397 82.4350132,75.2857143 81.810732,75.2857143 Z M51.11,90.541 L49.888,90.541 L49.888,89.67 L53.255,89.67 L53.255,90.541 L52.033,90.541 L52.033,94.064 C52.605,93.934 53.177,93.791 53.723,93.635 L53.723,94.506 C52.592,94.831 51.37,95.104 50.07,95.325 L49.836,94.441 C50.265,94.389 50.694,94.324 51.11,94.246 L51.11,90.541 Z M56.037,96.105 C55.595,96.105 55.192,95.767 54.854,95.091 C54.464,94.311 54.178,93.258 53.996,91.906 C53.853,90.762 53.762,89.332 53.71,87.629 L49.589,87.629 L49.589,86.719 L53.684,86.719 C53.658,85.965 53.658,85.172 53.658,84.34 L54.568,84.34 C54.568,85.185 54.568,85.978 54.594,86.719 L57.181,86.719 L57.181,87.629 L54.607,87.629 C54.672,89.865 54.815,91.581 55.023,92.803 C55.309,94.285 55.647,95.039 56.037,95.091 C56.297,95.039 56.57,94.246 56.83,92.699 L57.571,93.297 C57.142,95.169 56.635,96.105 56.037,96.105 Z M55.686,84.327 C56.245,84.951 56.674,85.497 56.986,85.965 L56.336,86.42 C56.011,85.913 55.569,85.354 55.023,84.73 L55.686,84.327 Z M47.106,84.509 C47.938,85.172 48.627,85.835 49.199,86.511 L48.562,87.161 C48.042,86.524 47.34,85.848 46.456,85.146 L47.106,84.509 Z M45.546,88.357 L48.276,88.357 L48.276,94.025 C48.666,93.648 49.056,93.232 49.472,92.777 L49.719,93.765 C49.004,94.545 48.25,95.234 47.444,95.832 L47.08,95 C47.262,94.844 47.366,94.662 47.366,94.467 L47.366,89.254 L45.546,89.254 L45.546,88.357 Z M65.769,88.916 L65.769,91.191 L69.071,91.191 L69.071,88.916 L65.769,88.916 Z M65.717,92.049 C65.574,93.713 65.093,95.091 64.261,96.183 L63.546,95.546 C64.378,94.389 64.807,92.92 64.833,91.139 L64.833,84.899 L74.518,84.899 L74.518,94.636 C74.518,95.546 74.063,96.001 73.153,96.001 L71.658,96.001 L71.411,95.078 C71.931,95.104 72.412,95.13 72.854,95.13 C73.322,95.13 73.569,94.857 73.569,94.311 L73.569,92.049 L70.033,92.049 L70.033,95.858 L69.071,95.858 L69.071,92.049 L65.717,92.049 Z M73.569,91.191 L73.569,88.916 L70.033,88.916 L70.033,91.191 L73.569,91.191 Z M73.569,88.045 L73.569,85.809 L70.033,85.809 L70.033,88.045 L73.569,88.045 Z M69.071,85.809 L65.769,85.809 L65.769,88.045 L69.071,88.045 L69.071,85.809 Z M84.913,84.509 L85.823,84.509 L85.823,88.903 L83.379,88.903 L83.379,90.723 L85.862,90.723 L85.862,96.248 L84.952,96.248 L84.952,91.62 L83.34,91.62 C83.236,93.596 82.859,95.091 82.235,96.092 L81.546,95.468 C82.144,94.441 82.443,92.79 82.456,90.528 L82.456,84.756 L83.379,84.756 L83.379,88.006 L84.913,88.006 L84.913,84.509 Z M87.942,89.046 L87.942,90.216 C87.89,92.751 87.461,94.779 86.668,96.287 L86.005,95.598 C86.642,94.298 86.993,92.504 87.045,90.216 L87.045,85.276 C89.151,85.224 91.062,84.951 92.752,84.444 L93.22,85.276 C91.647,85.705 89.892,85.952 87.942,86.03 L87.942,88.162 L92.908,88.162 L92.908,88.968 C92.596,90.736 92.024,92.231 91.192,93.453 C91.816,94.233 92.596,94.961 93.519,95.611 L92.908,96.326 C92.024,95.624 91.27,94.896 90.659,94.129 C89.892,95.026 88.969,95.754 87.89,96.313 L87.435,95.481 C88.514,94.909 89.398,94.207 90.1,93.362 C89.216,92.036 88.683,90.606 88.501,89.046 L87.942,89.046 Z M89.333,89.046 C89.489,90.359 89.918,91.568 90.62,92.66 C91.296,91.62 91.751,90.424 91.998,89.046 L89.333,89.046 Z" id="Combined-Shape"></path>
        </g>
    </g>
</svg>