<?xml version="1.0" encoding="UTF-8"?>
<svg width="138px" height="151px" viewBox="0 0 138 151" version="1.1" xmlns="http://www.w3.org/2000/svg" xmlns:xlink="http://www.w3.org/1999/xlink">
    <!-- Generator: Sketch 48.2 (47327) - http://www.bohemiancoding.com/sketch -->
    <title>png_French</title>
    <desc>Created with Sketch.</desc>
    <defs></defs>
    <g id="png水印-试用版" stroke="none" stroke-width="1" fill="none" fill-rule="evenodd" transform="translate(-404.000000, -269.000000)">
        <g id="png_French" transform="translate(404.000000, 269.000000)" fill="#FE6752" fill-rule="nonzero">
            <path d="M0,0 L0,120.3 L69.5,151 L138,120.3 L138,0 L0,0 Z M69.5,52 C60.9,52 54,45.1 54,36.5 C54,27.9 60.9,21 69.5,21 C78.1,21 85,27.9 85,36.5 C85,45.1 78.1,52 69.5,52 Z M76.1,28.4 L70.3,33.6 C70.3,33.6 70.3,33.6 70.3,33.6 C70.1,33.7 69.8,33.8 69.6,33.8 C69.3,33.8 69.1,33.7 68.9,33.6 C68.9,33.6 68.9,33.6 68.9,33.6 L63.1,28.4 C62.8,28.1 62.2,28.1 61.9,28.5 C61.6,28.8 61.6,29.4 62,29.7 L67.6,34.8 C68.1,35.3 68.8,35.6 69.6,35.6 C70.4,35.6 71.1,35.3 71.6,34.8 L77.2,29.7 C77.5,29.4 77.6,28.9 77.3,28.5 C77,28.1 76.5,28.1 76.1,28.4 Z M71.6,38.1 L77.2,43.2 C77.6,43.5 77.6,44.1 77.3,44.4 C77,44.8 76.4,44.8 76.1,44.5 L70.3,39.3 C70.1,39.2 69.9,39.1 69.6,39.1 C69.4,39.1 69.1,39.2 68.9,39.3 L63.1,44.5 C62.7,44.8 62.2,44.7 61.9,44.4 C61.6,44 61.7,43.5 62,43.2 L67.6,38.1 C68.1,37.6 68.8,37.3 69.6,37.3 C70.4,37.3 71.1,37.6 71.6,38.1 Z M25.068304,64.0479777 L20.0562305,70.379831 L25.068304,76.7116843 C25.3221497,77.0323726 25.2721331,77.5014791 24.9565888,77.759463 C24.6410446,78.0174469 24.1794629,77.9666149 23.9256173,77.6459266 L19.1151304,71.5687417 L14.3046435,77.6459266 C14.0507979,77.9666149 13.5892162,78.0174469 13.2736719,77.759463 C12.9581277,77.5014791 12.9081111,77.0323726 13.1619568,76.7116843 L18.1740303,70.379831 L13.1619568,64.0479777 C12.9081111,63.7272894 12.9581277,63.2581829 13.2736719,63.000199 C13.5892162,62.7422151 14.0507979,62.7930471 14.3046435,63.1137354 L19.1151304,69.1909203 L23.9256173,63.1137354 C24.1794629,62.7930471 24.6410446,62.7422151 24.9565888,63.000199 C25.2721331,63.2581829 25.3221497,63.7272894 25.068304,64.0479777 Z M54.0970271,71.1015098 C54.0965714,71.154159 54.0917448,71.2100088 54.0828251,71.2673713 L54.0828251,77.1788054 C54.0828251,77.5903837 53.754527,77.9240339 53.3495507,77.9240339 C52.9445745,77.9240339 52.6162764,77.5903837 52.6162764,77.1788054 L52.6162764,67.1512677 C52.6162764,66.7396894 52.9445745,66.4060393 53.3495507,66.4060393 C53.754527,66.4060393 54.0828251,66.7396894 54.0828251,67.1512677 L54.0828251,68.0234063 C54.8309365,67.0560353 55.9515573,66.402395 57.2304791,66.2284342 C59.3627937,65.9383936 60.9925008,67.1741441 61.5717914,68.6776392 C61.8792495,69.4756181 61.9913502,70.0717376 61.9913502,71.4878385 L61.9913502,77.1788054 C61.9913502,77.5903837 61.6630521,77.9240339 61.2580758,77.9240339 C60.8530996,77.9240339 60.5248015,77.5903837 60.5248015,77.1788054 L60.5248015,71.5638046 C60.5248015,70.8080681 60.5272158,70.1068134 60.2247645,69.4164179 C59.7187944,68.2614572 58.9855887,67.5954177 57.4300494,67.7506143 C55.8255016,67.9107004 54.1117254,69.4035019 54.0970271,71.1015098 Z M73.8446069,62.7452284 C73.8446069,62.3336501 74.1729051,62 74.5778812,62 C74.9828575,62 75.3111557,62.3336501 75.3111557,62.7452284 L75.3111557,77.1788054 C75.3111557,77.5903837 74.9828575,77.9240339 74.5778812,77.9240339 C74.1729051,77.9240339 73.8446069,77.5903837 73.8446069,77.1788054 L73.8446069,76.109691 C72.887366,77.2701316 71.5151503,78 69.9809013,78 C67.0593833,78 64.7253945,75.3535114 64.7253945,72.1270535 C64.7253945,68.9005955 67.0593833,66.2541069 69.9809013,66.2541069 C71.5151503,66.2541069 72.887366,66.9839753 73.8446069,68.1444159 L73.8446069,62.7452284 Z M47.047577,63.4289241 C47.047577,62.9544134 47.4260736,62.5697464 47.8929728,62.5697464 C48.3598722,62.5697464 48.7383688,62.9544134 48.7383688,63.4289241 L48.7383688,63.7327889 C48.7383688,64.2072996 48.3598722,64.5919666 47.8929728,64.5919666 C47.4260736,64.5919666 47.047577,64.2072996 47.047577,63.7327889 L47.047577,63.4289241 Z M47.1596984,66.8474029 C47.1596984,66.4358246 47.4879965,66.1021745 47.8929728,66.1021745 C48.2979491,66.1021745 48.6262473,66.4358246 48.6262473,66.8474029 L48.6262473,77.1788054 C48.6262473,77.5903837 48.2979491,77.9240339 47.8929728,77.9240339 C47.4879965,77.9240339 47.1596984,77.5903837 47.1596984,77.1788054 L47.1596984,66.8474029 Z M69.9809013,76.5095433 C67.9072994,76.5095433 66.1919432,74.5645166 66.1919432,72.1270535 C66.1919432,69.6895903 67.9072994,67.7445637 69.9809013,67.7445637 C72.0545032,67.7445637 73.7698593,69.6895903 73.7698593,72.1270535 C73.7698593,74.5645166 72.0545032,76.5095433 69.9809013,76.5095433 Z M34.9007463,73.6196876 C34.8671687,73.5643424 33.3464998,70.9803802 30.3227847,65.9142848 L29.5597918,77.2285723 C29.5316686,77.639157 29.1866671,77.9508164 28.7826686,77.9222347 C28.37867,77.893653 28.0692631,77.5391551 28.0973863,77.1285706 L29.0299351,63.5291048 C29.0795426,62.80486 30.0777268,62.5728934 30.4499495,63.1925452 C33.205437,67.7796991 34.9595645,70.7435003 35.7485171,72.0565861 C36.5369422,70.7428589 38.2918296,67.7799988 41.0470848,63.192858 C41.4191368,62.57344 42.4245286,62.803959 42.4670992,63.5285732 L43.399648,77.1285706 C43.423785,77.5394171 43.118622,77.8981786 42.7143657,77.922709 C42.3101093,77.9472394 41.9613794,77.6394189 41.9372425,77.2285723 L41.1742496,65.9142848 C38.1505345,70.9860165 36.6316694,73.5629528 36.596288,73.6199995 C36.4269453,73.8930368 36.0914063,74.0584582 35.7485171,74.0585151 C35.405628,74.058572 35.0653932,73.8910712 34.9007463,73.6196876 Z M102.722412,76.21351 L109.787169,76.21351 C110.192172,76.21351 110.520491,76.5454589 110.520491,76.9549386 C110.520491,77.3644183 110.192172,77.6963671 109.787169,77.6963671 L101.803994,77.6963671 C101.398992,77.6963671 101.070672,77.3644183 101.070672,76.9549386 L101.070672,63.7679967 C101.070672,63.358517 101.398992,63.0265681 101.803994,63.0265681 L109.787169,63.0265681 C110.192172,63.0265681 110.520491,63.358517 110.520491,63.7679967 C110.520491,64.1774763 110.192172,64.5094252 109.787169,64.5094252 L102.722412,64.5094252 L102.722412,69.4985268 L109.391708,69.4985268 C109.796711,69.4985268 110.12503,69.8304757 110.12503,70.2399554 C110.12503,70.6494351 109.796711,70.9813839 109.391708,70.9813839 L102.722412,70.9813839 L102.722412,76.21351 Z M87.7515616,76.5123226 L96.2626182,64.5348158 L88.3518413,64.5348158 C87.9468389,64.5348158 87.6185195,64.202867 87.6185195,63.7933873 C87.6185195,63.3839076 87.9468389,63.0519587 88.3518413,63.0519587 L97.673043,63.0519587 C98.2012094,63.0519587 98.6114344,63.6452985 98.2733228,64.2192623 L89.762266,76.196769 L97.8582169,76.196769 C98.2632193,76.196769 98.5915386,76.5287179 98.5915386,76.9381976 C98.5915386,77.3476773 98.2632193,77.6796261 97.8582169,77.6796261 L88.3518413,77.6796261 C87.7743458,77.6796261 87.4333023,77.0175956 87.7515616,76.5123226 Z M123.579589,77.5165319 L114.757758,65.9419017 L114.757758,77.1157227 C114.757758,77.5252023 114.460878,77.9068779 113.982214,77.8993527 C113.503549,77.8918276 113.206505,77.5252023 113.206505,77.1157227 L113.206505,63.7728446 C113.206505,63.0125997 114.152761,62.6952079 114.625062,63.3197196 L123.450402,74.9456541 L123.450402,63.7728446 C123.450402,63.3633649 123.765729,62.9937919 124.224697,62.9882031 C124.683664,62.9826144 125,63.3633649 125,63.7728446 L125,77.0256521 C125,77.8104249 124.091663,78.1180594 123.579589,77.5165319 Z M81.810732,69.5714286 C81.1864508,69.5714286 80.6803709,69.059754 80.6803709,68.4285714 C80.6803709,67.7973889 81.1864508,67.2857143 81.810732,67.2857143 C82.4350132,67.2857143 82.9410931,67.7973889 82.9410931,68.4285714 C82.9410931,69.059754 82.4350132,69.5714286 81.810732,69.5714286 Z M81.810732,75.2857143 C81.1864508,75.2857143 80.6803709,74.7740397 80.6803709,74.1428571 C80.6803709,73.5116746 81.1864508,73 81.810732,73 C82.4350132,73 82.9410931,73.5116746 82.9410931,74.1428571 C82.9410931,74.7740397 82.4350132,75.2857143 81.810732,75.2857143 Z M30.456,83.354 C30.5026669,83.2513328 30.5703329,83.1720003 30.659,83.116 C30.7476671,83.0599997 30.8433328,83.032 30.946,83.032 C31.0953341,83.032 31.2283328,83.0809995 31.345,83.179 C31.4616673,83.2770005 31.52,83.3959993 31.52,83.536 C31.52,83.610667 31.5013335,83.685333 31.464,83.76 L27.446,92.692 C27.3899997,92.8133339 27.3060006,92.9066663 27.194,92.972 C27.0819994,93.0373337 26.9606673,93.07 26.83,93.07 C26.6993327,93.07 26.5780006,93.0373337 26.466,92.972 C26.3539994,92.9066663 26.2700003,92.8133339 26.214,92.692 L22.21,83.76 C22.1819999,83.685333 22.168,83.6153337 22.168,83.55 C22.168,83.4006659 22.2286661,83.2770005 22.35,83.179 C22.4713339,83.0809995 22.6066659,83.032 22.756,83.032 C22.9800011,83.032 23.1433328,83.1393323 23.246,83.354 L26.858,91.516 L30.456,83.354 Z M38.002,91.418 C38.1046672,91.418 38.193333,91.4599996 38.268,91.544 C38.342667,91.6280004 38.38,91.7353327 38.38,91.866 C38.38,92.0993345 38.2166683,92.313999 37.89,92.51 C37.5539983,92.706001 37.1993352,92.8529995 36.826,92.951 C36.4526648,93.0490005 36.0886684,93.098 35.734,93.098 C34.6793281,93.098 33.8463364,92.7853365 33.235,92.16 C32.6236636,91.5346635 32.318,90.6713388 32.318,89.57 C32.318,88.8699965 32.453332,88.2516694 32.724,87.715 C32.994668,87.1783307 33.3749976,86.7606682 33.865,86.462 C34.3550025,86.1633318 34.9126635,86.014 35.538,86.014 C36.4246711,86.014 37.1293307,86.3033304 37.652,86.882 C38.1746693,87.4606696 38.436,88.2446617 38.436,89.234 C38.436,89.4206676 38.398667,89.5559996 38.324,89.64 C38.249333,89.7240004 38.1280008,89.766 37.96,89.766 L33.452,89.766 C33.5360004,91.3713414 34.2966595,92.174 35.734,92.174 C36.0980018,92.174 36.4106654,92.1250005 36.672,92.027 C36.9333346,91.9289995 37.2133318,91.7960008 37.512,91.628 C37.7546679,91.4879993 37.9179996,91.418 38.002,91.418 Z M35.552,86.896 C34.9546637,86.896 34.4763351,87.0826648 34.117,87.456 C33.7576649,87.8293352 33.5453337,88.3566633 33.48,89.038 L37.442,89.038 C37.4233332,88.3473299 37.2506683,87.8176685 36.924,87.449 C36.5973317,87.0803315 36.1400029,86.896 35.552,86.896 Z M43.476,86.042 C43.868002,86.0139999 44.064,86.1726649 44.064,86.518 C44.064,86.6673341 44.0220004,86.7863329 43.938,86.875 C43.8539996,86.9636671 43.7093344,87.0173332 43.504,87.036 L43.084,87.078 C42.4586635,87.1340003 41.9943349,87.3556647 41.691,87.743 C41.3876652,88.1303353 41.236,88.5853307 41.236,89.108 L41.236,92.51 C41.236,92.6966676 41.1846672,92.8366662 41.082,92.93 C40.9793328,93.0233338 40.8440008,93.07 40.676,93.07 C40.5079992,93.07 40.3703339,93.0210005 40.263,92.923 C40.1556661,92.8249995 40.102,92.6873342 40.102,92.51 L40.102,86.602 C40.102,86.4246658 40.1579994,86.2870005 40.27,86.189 C40.3820006,86.0909995 40.5173325,86.042 40.676,86.042 C40.8253341,86.042 40.9513328,86.0909995 41.054,86.189 C41.1566672,86.2870005 41.208,86.4199992 41.208,86.588 L41.208,87.372 C41.404001,86.9613313 41.6816649,86.6486677 42.041,86.434 C42.4003351,86.2193323 42.813331,86.0933335 43.28,86.056 L43.476,86.042 Z M47.34,93.098 C46.9106645,93.098 46.5023353,93.0466672 46.115,92.944 C45.7276647,92.8413328 45.3846682,92.6966676 45.086,92.51 C44.9179992,92.3979994 44.7990004,92.2930005 44.729,92.195 C44.6589997,92.0969995 44.624,91.9780007 44.624,91.838 C44.624,91.7166661 44.6589997,91.6163337 44.729,91.537 C44.7990004,91.4576663 44.8899994,91.418 45.002,91.418 C45.1140006,91.418 45.2773323,91.4879993 45.492,91.628 C45.7720014,91.7960008 46.0496653,91.9289995 46.325,92.027 C46.6003347,92.1250005 46.9433313,92.174 47.354,92.174 C47.8580025,92.174 48.2499986,92.0853342 48.53,91.908 C48.8100014,91.7306658 48.95,91.4740017 48.95,91.138 C48.95,90.9326656 48.8986672,90.7670006 48.796,90.641 C48.6933328,90.5149994 48.5160013,90.4030005 48.264,90.305 C48.0119987,90.2069995 47.6433358,90.1066672 47.158,90.004 C46.3366626,89.8266658 45.7486684,89.5886682 45.394,89.29 C45.0393316,88.9913318 44.862,88.5853359 44.862,88.072 C44.862,87.6706647 44.9739989,87.3160015 45.198,87.008 C45.4220011,86.6999985 45.7323314,86.4573342 46.129,86.28 C46.5256687,86.1026658 46.9759975,86.014 47.48,86.014 C47.8440018,86.014 48.1963316,86.0629995 48.537,86.161 C48.8776684,86.2590005 49.1786654,86.3966658 49.44,86.574 C49.7573349,86.7980011 49.916,87.0313321 49.916,87.274 C49.916,87.3953339 49.878667,87.4979996 49.804,87.582 C49.729333,87.6660004 49.6406672,87.708 49.538,87.708 C49.4259994,87.708 49.2580011,87.6286675 49.034,87.47 C48.7726654,87.3019992 48.5253345,87.1713338 48.292,87.078 C48.0586655,86.9846662 47.7693351,86.938 47.424,86.938 C46.9853311,86.938 46.6330013,87.035999 46.367,87.232 C46.1009987,87.428001 45.968,87.6893317 45.968,88.016 C45.968,88.2213344 46.0169995,88.3869994 46.115,88.513 C46.2130005,88.6390006 46.3763322,88.7509995 46.605,88.849 C46.8336678,88.9470005 47.1626645,89.0426662 47.592,89.136 C48.2266698,89.2760007 48.7189983,89.4299992 49.069,89.598 C49.4190018,89.7660008 49.6686659,89.9713321 49.818,90.214 C49.9673341,90.4566679 50.042,90.7646648 50.042,91.138 C50.042,91.7260029 49.7946691,92.1996649 49.3,92.559 C48.8053309,92.9183351 48.1520041,93.098 47.34,93.098 Z M52.338,93.07 C52.1699992,93.07 52.0323339,93.0210005 51.925,92.923 C51.8176661,92.8249995 51.764,92.6873342 51.764,92.51 L51.764,86.602 C51.764,86.4246658 51.8176661,86.2870005 51.925,86.189 C52.0323339,86.0909995 52.1699992,86.042 52.338,86.042 C52.5060008,86.042 52.6413328,86.0909995 52.744,86.189 C52.8466672,86.2870005 52.898,86.4246658 52.898,86.602 L52.898,92.51 C52.898,92.6966676 52.8466672,92.8366662 52.744,92.93 C52.6413328,93.0233338 52.5060008,93.07 52.338,93.07 Z M52.338,84.572 C52.1139989,84.572 51.9320007,84.5066673 51.792,84.376 C51.6519993,84.2453327 51.582,84.0726677 51.582,83.858 C51.582,83.6526656 51.6519993,83.4846673 51.792,83.354 C51.9320007,83.2233327 52.1139989,83.158 52.338,83.158 C52.5620011,83.158 52.7439993,83.2233327 52.884,83.354 C53.0240007,83.4846673 53.094,83.6526656 53.094,83.858 C53.094,84.0726677 53.0240007,84.2453327 52.884,84.376 C52.7439993,84.5066673 52.5620011,84.572 52.338,84.572 Z M57.84,93.098 C57.1959968,93.098 56.6290025,92.9533348 56.139,92.664 C55.6489976,92.3746652 55.2710013,91.9616694 55.005,91.425 C54.7389987,90.8883307 54.606,90.2653369 54.606,89.556 C54.606,88.8466631 54.7389987,88.2236694 55.005,87.687 C55.2710013,87.1503307 55.6489976,86.7373348 56.139,86.448 C56.6290025,86.1586652 57.1959968,86.014 57.84,86.014 C58.4840032,86.014 59.0533309,86.1586652 59.548,86.448 C60.0426691,86.7373348 60.4229987,87.1503307 60.689,87.687 C60.9550013,88.2236694 61.088,88.8466631 61.088,89.556 C61.088,90.2653369 60.9550013,90.8883307 60.689,91.425 C60.4229987,91.9616694 60.0426691,92.3746652 59.548,92.664 C59.0533309,92.9533348 58.4840032,93.098 57.84,93.098 Z M57.84,92.16 C58.5120034,92.16 59.0276649,91.9383356 59.387,91.495 C59.7463351,91.0516645 59.926,90.4053376 59.926,89.556 C59.926,88.7253292 59.7440018,88.0836689 59.38,87.631 C59.0159982,87.1783311 58.50267,86.952 57.84,86.952 C57.17733,86.952 56.6640018,87.1783311 56.3,87.631 C55.9359982,88.0836689 55.754,88.7253292 55.754,89.556 C55.754,90.3960042 55.9336649,91.0399978 56.293,91.488 C56.6523351,91.9360022 57.1679966,92.16 57.84,92.16 Z M66.212,86.014 C67.8453415,86.014 68.662,86.9146577 68.662,88.716 L68.662,92.51 C68.662,92.6873342 68.6130005,92.8249995 68.515,92.923 C68.4169995,93.0210005 68.2793342,93.07 68.102,93.07 C67.9246658,93.07 67.7846672,93.0210005 67.682,92.923 C67.5793328,92.8249995 67.528,92.6873342 67.528,92.51 L67.528,88.786 C67.528,88.1513302 67.4043346,87.6893348 67.157,87.4 C66.9096654,87.1106652 66.515336,86.966 65.974,86.966 C65.3486635,86.966 64.8493352,87.1573314 64.476,87.54 C64.1026648,87.9226686 63.916,88.4406634 63.916,89.094 L63.916,92.51 C63.916,92.6873342 63.8670005,92.8249995 63.769,92.923 C63.6709995,93.0210005 63.5333342,93.07 63.356,93.07 C63.1786658,93.07 63.0386672,93.0210005 62.936,92.923 C62.8333328,92.8249995 62.782,92.6873342 62.782,92.51 L62.782,86.602 C62.782,86.4339992 62.8333328,86.2986672 62.936,86.196 C63.0386672,86.0933328 63.1786658,86.042 63.356,86.042 C63.5240008,86.042 63.6569995,86.0933328 63.755,86.196 C63.8530005,86.2986672 63.902,86.4293325 63.902,86.588 L63.902,87.302 C64.1260011,86.8819979 64.4386647,86.5623344 64.84,86.343 C65.2413353,86.1236656 65.6986641,86.014 66.212,86.014 Z M79.82,83.06 C79.9973342,83.06 80.1373328,83.1113328 80.24,83.214 C80.3426672,83.3166672 80.394,83.4473325 80.394,83.606 L80.394,92.51 C80.394,92.6780008 80.3426672,92.8133328 80.24,92.916 C80.1373328,93.0186672 79.9973342,93.07 79.82,93.07 C79.6426658,93.07 79.5050005,93.0186672 79.407,92.916 C79.3089995,92.8133328 79.26,92.6780008 79.26,92.51 L79.26,91.754 C79.0546656,92.1833355 78.7536686,92.5146655 78.357,92.748 C77.9603313,92.9813345 77.4960027,93.098 76.964,93.098 C76.3666637,93.098 75.8393356,92.9486682 75.382,92.65 C74.9246644,92.3513318 74.5700013,91.9336693 74.318,91.397 C74.0659987,90.8603306 73.94,90.2373369 73.94,89.528 C73.94,88.8279965 74.0659987,88.2120027 74.318,87.68 C74.5700013,87.1479973 74.9246644,86.7373348 75.382,86.448 C75.8393356,86.1586652 76.3666637,86.014 76.964,86.014 C77.4960027,86.014 77.9603313,86.1306655 78.357,86.364 C78.7536686,86.5973345 79.0546656,86.9286645 79.26,87.358 L79.26,83.606 C79.26,83.4379992 79.3089995,83.3050005 79.407,83.207 C79.5050005,83.1089995 79.6426658,83.06 79.82,83.06 Z M77.188,92.16 C77.85067,92.16 78.3616649,91.9336689 78.721,91.481 C79.0803351,91.0283311 79.26,90.3866708 79.26,89.556 C79.26,88.7253292 79.0803351,88.0860022 78.721,87.638 C78.3616649,87.1899978 77.85067,86.966 77.188,86.966 C76.52533,86.966 76.0096685,87.1899978 75.641,87.638 C75.2723315,88.0860022 75.088,88.7159959 75.088,89.528 C75.088,90.3586708 75.2723315,91.0049977 75.641,91.467 C76.0096685,91.9290023 76.52533,92.16 77.188,92.16 Z M82.998,87.078 C82.8953328,87.078 82.8113337,87.0453337 82.746,86.98 C82.6806663,86.9146663 82.6386668,86.8213339 82.62,86.7 L82.368,83.844 L82.354,83.704 C82.354,83.4986656 82.4146661,83.3400006 82.536,83.228 C82.6573339,83.1159994 82.8113324,83.06 82.998,83.06 C83.1846676,83.06 83.3363328,83.1159994 83.453,83.228 C83.5696673,83.3400006 83.628,83.493999 83.628,83.69 C83.628,83.7553337 83.6233334,83.8066665 83.614,83.844 L83.376,86.7 C83.3479999,86.9520013 83.2220011,87.078 82.998,87.078 Z M90.866,91.418 C90.9686672,91.418 91.057333,91.4599996 91.132,91.544 C91.206667,91.6280004 91.244,91.7353327 91.244,91.866 C91.244,92.0993345 91.0806683,92.313999 90.754,92.51 C90.4179983,92.706001 90.0633352,92.8529995 89.69,92.951 C89.3166648,93.0490005 88.9526684,93.098 88.598,93.098 C87.5433281,93.098 86.7103364,92.7853365 86.099,92.16 C85.4876636,91.5346635 85.182,90.6713388 85.182,89.57 C85.182,88.8699965 85.317332,88.2516694 85.588,87.715 C85.858668,87.1783307 86.2389976,86.7606682 86.729,86.462 C87.2190025,86.1633318 87.7766635,86.014 88.402,86.014 C89.2886711,86.014 89.9933307,86.3033304 90.516,86.882 C91.0386693,87.4606696 91.3,88.2446617 91.3,89.234 C91.3,89.4206676 91.262667,89.5559996 91.188,89.64 C91.113333,89.7240004 90.9920008,89.766 90.824,89.766 L86.316,89.766 C86.4000004,91.3713414 87.1606595,92.174 88.598,92.174 C88.9620018,92.174 89.2746654,92.1250005 89.536,92.027 C89.7973346,91.9289995 90.0773318,91.7960008 90.376,91.628 C90.6186679,91.4879993 90.7819996,91.418 90.866,91.418 Z M88.416,86.896 C87.8186637,86.896 87.3403351,87.0826648 86.981,87.456 C86.6216649,87.8293352 86.4093337,88.3566633 86.344,89.038 L90.306,89.038 C90.2873332,88.3473299 90.1146683,87.8176685 89.788,87.449 C89.4613317,87.0803315 89.0040029,86.896 88.416,86.896 Z M95.262,93.098 C94.8326645,93.098 94.4243353,93.0466672 94.037,92.944 C93.6496647,92.8413328 93.3066682,92.6966676 93.008,92.51 C92.8399992,92.3979994 92.7210004,92.2930005 92.651,92.195 C92.5809997,92.0969995 92.546,91.9780007 92.546,91.838 C92.546,91.7166661 92.5809997,91.6163337 92.651,91.537 C92.7210004,91.4576663 92.8119994,91.418 92.924,91.418 C93.0360006,91.418 93.1993323,91.4879993 93.414,91.628 C93.6940014,91.7960008 93.9716653,91.9289995 94.247,92.027 C94.5223347,92.1250005 94.8653313,92.174 95.276,92.174 C95.7800025,92.174 96.1719986,92.0853342 96.452,91.908 C96.7320014,91.7306658 96.872,91.4740017 96.872,91.138 C96.872,90.9326656 96.8206672,90.7670006 96.718,90.641 C96.6153328,90.5149994 96.4380013,90.4030005 96.186,90.305 C95.9339987,90.2069995 95.5653358,90.1066672 95.08,90.004 C94.2586626,89.8266658 93.6706684,89.5886682 93.316,89.29 C92.9613316,88.9913318 92.784,88.5853359 92.784,88.072 C92.784,87.6706647 92.8959989,87.3160015 93.12,87.008 C93.3440011,86.6999985 93.6543314,86.4573342 94.051,86.28 C94.4476687,86.1026658 94.8979975,86.014 95.402,86.014 C95.7660018,86.014 96.1183316,86.0629995 96.459,86.161 C96.7996684,86.2590005 97.1006654,86.3966658 97.362,86.574 C97.6793349,86.7980011 97.838,87.0313321 97.838,87.274 C97.838,87.3953339 97.800667,87.4979996 97.726,87.582 C97.651333,87.6660004 97.5626672,87.708 97.46,87.708 C97.3479994,87.708 97.1800011,87.6286675 96.956,87.47 C96.6946654,87.3019992 96.4473345,87.1713338 96.214,87.078 C95.9806655,86.9846662 95.6913351,86.938 95.346,86.938 C94.9073311,86.938 94.5550013,87.035999 94.289,87.232 C94.0229987,87.428001 93.89,87.6893317 93.89,88.016 C93.89,88.2213344 93.9389995,88.3869994 94.037,88.513 C94.1350005,88.6390006 94.2983322,88.7509995 94.527,88.849 C94.7556678,88.9470005 95.0846645,89.0426662 95.514,89.136 C96.1486698,89.2760007 96.6409983,89.4299992 96.991,89.598 C97.3410018,89.7660008 97.5906659,89.9713321 97.74,90.214 C97.8893341,90.4566679 97.964,90.7646648 97.964,91.138 C97.964,91.7260029 97.7166691,92.1996649 97.222,92.559 C96.7273309,92.9183351 96.0740041,93.098 95.262,93.098 Z M101.982,93.098 C101.552665,93.098 101.144335,93.0466672 100.757,92.944 C100.369665,92.8413328 100.026668,92.6966676 99.728,92.51 C99.5599992,92.3979994 99.4410003,92.2930005 99.371,92.195 C99.3009996,92.0969995 99.266,91.9780007 99.266,91.838 C99.266,91.7166661 99.3009996,91.6163337 99.371,91.537 C99.4410003,91.4576663 99.5319994,91.418 99.644,91.418 C99.7560006,91.418 99.9193323,91.4879993 100.134,91.628 C100.414001,91.7960008 100.691665,91.9289995 100.967,92.027 C101.242335,92.1250005 101.585331,92.174 101.996,92.174 C102.500003,92.174 102.891999,92.0853342 103.172,91.908 C103.452001,91.7306658 103.592,91.4740017 103.592,91.138 C103.592,90.9326656 103.540667,90.7670006 103.438,90.641 C103.335333,90.5149994 103.158001,90.4030005 102.906,90.305 C102.653999,90.2069995 102.285336,90.1066672 101.8,90.004 C100.978663,89.8266658 100.390668,89.5886682 100.036,89.29 C99.6813316,88.9913318 99.504,88.5853359 99.504,88.072 C99.504,87.6706647 99.6159989,87.3160015 99.84,87.008 C100.064001,86.6999985 100.374331,86.4573342 100.771,86.28 C101.167669,86.1026658 101.617997,86.014 102.122,86.014 C102.486002,86.014 102.838332,86.0629995 103.179,86.161 C103.519668,86.2590005 103.820665,86.3966658 104.082,86.574 C104.399335,86.7980011 104.558,87.0313321 104.558,87.274 C104.558,87.3953339 104.520667,87.4979996 104.446,87.582 C104.371333,87.6660004 104.282667,87.708 104.18,87.708 C104.067999,87.708 103.900001,87.6286675 103.676,87.47 C103.414665,87.3019992 103.167334,87.1713338 102.934,87.078 C102.700665,86.9846662 102.411335,86.938 102.066,86.938 C101.627331,86.938 101.275001,87.035999 101.009,87.232 C100.742999,87.428001 100.61,87.6893317 100.61,88.016 C100.61,88.2213344 100.659,88.3869994 100.757,88.513 C100.855,88.6390006 101.018332,88.7509995 101.247,88.849 C101.475668,88.9470005 101.804665,89.0426662 102.234,89.136 C102.86867,89.2760007 103.360998,89.4299992 103.711,89.598 C104.061002,89.7660008 104.310666,89.9713321 104.46,90.214 C104.609334,90.4566679 104.684,90.7646648 104.684,91.138 C104.684,91.7260029 104.436669,92.1996649 103.942,92.559 C103.447331,92.9183351 102.794004,93.098 101.982,93.098 Z M109.192,86.014 C110.900009,86.014 111.754,86.909991 111.754,88.702 L111.754,92.51 C111.754,92.6780008 111.705,92.8133328 111.607,92.916 C111.509,93.0186672 111.376001,93.07 111.208,93.07 C111.039999,93.07 110.904667,93.0186672 110.802,92.916 C110.699333,92.8133328 110.648,92.6780008 110.648,92.51 L110.648,91.838 C110.470666,92.2393353 110.200002,92.5496656 109.836,92.769 C109.471998,92.9883344 109.052002,93.098 108.576,93.098 C108.137331,93.098 107.733669,93.0093342 107.365,92.832 C106.996331,92.6546658 106.704668,92.4073349 106.49,92.09 C106.275332,91.7726651 106.168,91.4226686 106.168,91.04 C106.168,90.5266641 106.298665,90.1276681 106.56,89.843 C106.821335,89.5583319 107.250664,89.3530006 107.848,89.227 C108.445336,89.1009994 109.275995,89.038 110.34,89.038 L110.648,89.038 L110.648,88.576 C110.648,88.0159972 110.533668,87.6053346 110.305,87.344 C110.076332,87.0826654 109.705336,86.952 109.192,86.952 C108.55733,86.952 107.913337,87.1246649 107.26,87.47 C107.007999,87.6286675 106.830667,87.708 106.728,87.708 C106.615999,87.708 106.522667,87.6660004 106.448,87.582 C106.373333,87.4979996 106.336,87.3906673 106.336,87.26 C106.336,87.1293327 106.375666,87.0150005 106.455,86.917 C106.534334,86.8189995 106.662666,86.7186672 106.84,86.616 C107.166668,86.4293324 107.537665,86.2823339 107.953,86.175 C108.368335,86.0676661 108.781331,86.014 109.192,86.014 Z M108.73,92.202 C109.290003,92.202 109.749665,92.0130019 110.109,91.635 C110.468335,91.2569981 110.648,90.7693363 110.648,90.172 L110.648,89.766 L110.396,89.766 C109.574663,89.766 108.949335,89.8009997 108.52,89.871 C108.090665,89.9410004 107.785001,90.0576659 107.603,90.221 C107.420999,90.3843342 107.33,90.6246651 107.33,90.942 C107.33,91.3060018 107.462999,91.6069988 107.729,91.845 C107.995001,92.0830012 108.328665,92.202 108.73,92.202 Z M114.4,93.07 C114.231999,93.07 114.094334,93.0210005 113.987,92.923 C113.879666,92.8249995 113.826,92.6873342 113.826,92.51 L113.826,86.602 C113.826,86.4246658 113.879666,86.2870005 113.987,86.189 C114.094334,86.0909995 114.231999,86.042 114.4,86.042 C114.568001,86.042 114.703333,86.0909995 114.806,86.189 C114.908667,86.2870005 114.96,86.4246658 114.96,86.602 L114.96,92.51 C114.96,92.6966676 114.908667,92.8366662 114.806,92.93 C114.703333,93.0233338 114.568001,93.07 114.4,93.07 Z M114.4,84.572 C114.175999,84.572 113.994001,84.5066673 113.854,84.376 C113.713999,84.2453327 113.644,84.0726677 113.644,83.858 C113.644,83.6526656 113.713999,83.4846673 113.854,83.354 C113.994001,83.2233327 114.175999,83.158 114.4,83.158 C114.624001,83.158 114.805999,83.2233327 114.946,83.354 C115.086001,83.4846673 115.156,83.6526656 115.156,83.858 C115.156,84.0726677 115.086001,84.2453327 114.946,84.376 C114.805999,84.5066673 114.624001,84.572 114.4,84.572 Z" id="Combined-Shape"></path>
        </g>
    </g>
</svg>