<?xml version="1.0" encoding="UTF-8"?>
<svg width="138px" height="157px" viewBox="0 0 138 157" version="1.1" xmlns="http://www.w3.org/2000/svg" xmlns:xlink="http://www.w3.org/1999/xlink">
    <!-- Generator: Sketch 48.2 (47327) - http://www.bohemiancoding.com/sketch -->
    <title>png水印</title>
    <desc>Created with Sketch.</desc>
    <defs></defs>
    <g id="png水印" stroke="none" stroke-width="1" fill="none" fill-rule="evenodd" transform="translate(-137.000000, -367.000000)">
        <g transform="translate(137.000000, 367.000000)" fill="#FE6752" fill-rule="nonzero" id="Shape">
            <path d="M0,0 L0,126.3 L69.5,157 L138,126.3 L138,0 L0,0 Z M46.5,72.9 C46.5,72.5 46.8,72.2 47.2,72.2 C47.6,72.2 47.9,72.5 47.9,72.9 L47.9,73.5 C47.9,73.9 47.6,74.2 47.2,74.2 C46.8,74.2 46.5,73.9 46.5,73.5 L46.5,72.9 Z M46.5,76.3 C46.5,75.9 46.8,75.6 47.2,75.6 C47.6,75.6 47.9,75.9 47.9,76.3 L47.9,85.7 C47.9,86.1 47.6,86.4 47.2,86.4 C46.8,86.4 46.5,86.1 46.5,85.7 L46.5,76.3 Z M14.2,73.1 C14.5,72.8 14.9,72.8 15.2,73.1 L19.9,77.3 C19.9,77.3 20,77.4 20,77.4 C20.1,77.5 20.3,77.6 20.5,77.6 C20.7,77.6 20.9,77.5 21,77.4 C21,77.4 21,77.3 21.1,77.3 L25.8,73.1 C26.1,72.8 26.5,72.9 26.8,73.1 C27.1,73.4 27,73.8 26.7,74.1 L22.3,78.1 C21.9,78.6 21.3,78.9 20.5,78.9 C19.8,78.9 19.2,78.6 18.7,78.1 L14.3,74.1 C13.9,73.8 13.9,73.4 14.2,73.1 Z M20.9,81.8 C20.8,81.7 20.6,81.6 20.4,81.6 C20.2,81.6 20,81.7 19.9,81.8 C19.9,81.8 19.9,81.9 19.8,81.9 L15.1,86.1 C14.8,86.4 14.4,86.3 14.1,86.1 C13.8,85.8 13.9,85.4 14.2,85.1 L18.6,81.1 C19,80.6 19.6,80.3 20.4,80.3 C21.1,80.3 21.7,80.6 22.2,81.1 L26.6,85.1 C26.9,85.4 26.9,85.8 26.7,86.1 C26.4,86.4 26,86.4 25.7,86.1 L20.9,81.8 C21,81.9 20.9,81.8 20.9,81.8 Z M42.5,73.7 L42.5,85.7 C42.5,86.1 42.2,86.4 41.8,86.4 C41.4,86.4 41.1,86.1 41.1,85.7 L41.1,74.7 L38,77.5 C37.6,78 36.9,78.4 36.2,78.4 C35.5,78.4 34.8,78.1 34.4,77.5 L31.2,74.7 L31.2,85.7 C31.2,86.1 30.9,86.4 30.5,86.4 C30.1,86.4 29.8,86.1 29.8,85.7 L29.8,73.7 C29.8,73.7 29.8,73.7 29.8,73.7 C29.8,73.7 29.8,73.7 29.8,73.7 C29.8,73.2 30.2,72.8 30.7,72.8 C31,72.8 31.3,73 31.4,73.2 L35.5,76.9 C35.5,76.9 35.5,76.9 35.5,76.9 C35.5,76.9 35.5,76.9 35.5,76.9 C35.7,77 35.8,77.1 36.1,77.1 C36.2,77.1 36.4,77.1 36.5,77 C36.5,77 36.6,76.9 36.6,76.9 L40.7,73.2 C40.9,73 41.1,72.8 41.4,72.8 C42.1,72.7 42.5,73.1 42.5,73.7 C42.5,73.7 42.5,73.7 42.5,73.7 C42.5,73.7 42.5,73.7 42.5,73.7 Z M59.9,85.7 C59.9,86.1 59.6,86.4 59.2,86.4 C58.8,86.4 58.5,86.1 58.5,85.7 L58.5,84.1 L58.5,80.1 C58.5,78.5 57.2,77.3 55.7,77.3 C54.2,77.3 52.9,78.6 52.9,80.1 C52.9,80.1 52.9,80.1 52.9,80.1 L52.9,84.2 C52.9,84.2 52.9,84.2 53,84.3 L53,85.6 C53,86 52.7,86.3 52.3,86.3 C51.9,86.3 51.6,86 51.6,85.6 L51.6,80.1 C51.6,80.1 51.6,80.1 51.6,80.1 C51.6,80.1 51.6,80.1 51.6,80.1 L51.6,76.6 C51.6,76.2 51.9,75.9 52.3,75.9 C52.7,75.9 53,76.2 53,76.6 L53,77 C53.7,76.3 54.7,75.9 55.8,75.9 C58.1,75.9 60,77.8 60,80.1 L60,85.7 L59.9,85.7 Z M70.9,85.7 L70.9,84.9 C70,85.8 68.8,86.4 67.4,86.4 C64.7,86.4 62.5,84.2 62.5,81.4 C62.5,78.7 64.7,76.4 67.4,76.4 C68.8,76.4 70,77 70.9,77.9 L70.9,72.6 C70.9,72.2 71.2,71.9 71.6,71.9 C72,71.9 72.3,72.2 72.3,72.6 L72.3,81.3 C72.3,81.3 72.3,81.3 72.3,81.3 C72.3,81.3 72.3,81.3 72.3,81.3 L72.3,85.5 C72.3,85.9 72,86.2 71.6,86.2 C71.2,86.4 70.9,86.1 70.9,85.7 Z M78.5,86 C77.7,86 77,85.3 77,84.5 C77,83.7 77.7,83 78.5,83 C79.3,83 80,83.7 80,84.5 C80,85.3 79.3,86 78.5,86 Z M78.5,77 C77.7,77 77,76.3 77,75.5 C77,74.7 77.7,74 78.5,74 C79.3,74 80,74.7 80,75.5 C80,76.3 79.3,77 78.5,77 Z M69.5,61 C60.9,61 54,54.1 54,45.5 C54,36.9 60.9,30 69.5,30 C78.1,30 85,36.9 85,45.5 C85,54.1 78.1,61 69.5,61 Z M87.2,86.4 C86.7,86.3 86.4,85.9 86.4,85.4 C86.4,85.3 86.4,85.1 86.5,85 C86.5,84.9 86.5,84.8 86.6,84.7 L95.8,74.1 L87.5,74.1 C87.1,74.1 86.8,73.8 86.8,73.4 C86.8,73 87.1,72.7 87.5,72.7 L96.8,72.7 C97.2,72.7 97.5,73 97.5,73.4 C97.5,73.4 97.5,73.5 97.5,73.5 C97.5,73.6 97.5,73.6 97.5,73.7 C97.5,73.8 97.5,73.9 97.5,74 C97.5,74.2 97.4,74.3 97.3,74.4 L88.2,85 L96.8,85 C97.2,85 97.5,85.3 97.5,85.7 C97.5,86.1 97.2,86.4 96.8,86.4 L87.4,86.4 C87.4,86.4 87.3,86.4 87.2,86.4 Z M110.6,74 L102.2,74 L102.2,78.3 L108.9,78.3 C109.3,78.3 109.6,78.6 109.6,79 C109.6,79.4 109.3,79.7 108.9,79.7 L102.2,79.7 L102.2,84.6 L110.1,84.6 C110.5,84.6 110.8,84.9 110.8,85.3 C110.8,85.7 110.5,86 110.1,86 L101.7,86 C101.7,86 101.6,86 101.6,86 C101.2,86 100.9,85.7 100.9,85.3 L100.9,73.3 C100.9,72.9 101.2,72.6 101.5,72.6 C101.6,72.6 101.7,72.6 101.8,72.7 C101.9,72.7 102,72.6 102.1,72.6 L110.6,72.6 C111,72.6 111.3,72.9 111.3,73.3 C111.4,73.7 111,74 110.6,74 Z M124.9,85.3 C124.9,85.9 124.5,86.4 123.9,86.4 C123.5,86.4 123.1,86.1 123,85.7 L115,75.2 L115,85.8 C115,86.2 114.7,86.5 114.3,86.5 C113.9,86.5 113.6,86.2 113.6,85.8 L113.6,73.9 C113.6,73.3 114,72.9 114.6,72.9 C115,72.9 115.4,73.2 115.5,73.6 L123.5,84.1 L123.5,73.4 C123.5,73 123.8,72.7 124.2,72.7 C124.6,72.7 124.9,73 124.9,73.4 L124.9,85.3 Z M67.4,85 C65.4670034,85 63.9,83.3882251 63.9,81.4 C63.9,79.4117749 65.4670034,77.8 67.4,77.8 C69.3329966,77.8 70.9,79.4117749 70.9,81.4 C70.9,83.3882251 69.3329966,85 67.4,85 Z M76.1,37.4 C76.5,37.1 77,37.1 77.3,37.5 C77.6,37.9 77.5,38.4 77.2,38.7 L71.6,43.8 C71.1,44.3 70.4,44.6 69.6,44.6 C68.8,44.6 68.1,44.3 67.6,43.8 L62,38.7 C61.6,38.4 61.6,37.8 61.9,37.5 C62.2,37.1 62.8,37.1 63.1,37.4 L68.9,42.6 C69.1,42.7 69.3,42.8 69.6,42.8 C69.8,42.8 70.1,42.7 70.3,42.6 L76.1,37.4 Z M71.6,47.1 L77.2,52.2 C77.6,52.5 77.6,53.1 77.3,53.4 C77,53.8 76.4,53.8 76.1,53.5 L70.3,48.3 C70.1,48.2 69.9,48.1 69.6,48.1 C69.4,48.1 69.1,48.2 68.9,48.3 L63.1,53.5 C62.7,53.8 62.2,53.7 61.9,53.4 C61.6,53 61.7,52.5 62,52.2 L67.6,47.1 C68.1,46.6 68.8,46.3 69.6,46.3 C70.4,46.3 71.1,46.6 71.6,47.1 Z"></path>
        </g>
    </g>
</svg>