<?xml version="1.0" encoding="UTF-8"?>
<svg width="138px" height="151px" viewBox="0 0 138 151" version="1.1" xmlns="http://www.w3.org/2000/svg" xmlns:xlink="http://www.w3.org/1999/xlink">
    <!-- Generator: Sketch 48.2 (47327) - http://www.bohemiancoding.com/sketch -->
    <title>png_english</title>
    <desc>Created with Sketch.</desc>
    <defs></defs>
    <g id="png水印-试用版" stroke="none" stroke-width="1" fill="none" fill-rule="evenodd" transform="translate(-88.000000, -65.000000)">
        <g id="png_english" transform="translate(88.000000, 65.000000)" fill="#FE6752" fill-rule="nonzero">
            <path d="M0,0 L0,120.3 L69.5,151 L138,120.3 L138,0 L0,0 Z M69.5,52 C60.9,52 54,45.1 54,36.5 C54,27.9 60.9,21 69.5,21 C78.1,21 85,27.9 85,36.5 C85,45.1 78.1,52 69.5,52 Z M76.1,28.4 L70.3,33.6 C70.3,33.6 70.3,33.6 70.3,33.6 C70.1,33.7 69.8,33.8 69.6,33.8 C69.3,33.8 69.1,33.7 68.9,33.6 C68.9,33.6 68.9,33.6 68.9,33.6 L63.1,28.4 C62.8,28.1 62.2,28.1 61.9,28.5 C61.6,28.8 61.6,29.4 62,29.7 L67.6,34.8 C68.1,35.3 68.8,35.6 69.6,35.6 C70.4,35.6 71.1,35.3 71.6,34.8 L77.2,29.7 C77.5,29.4 77.6,28.9 77.3,28.5 C77,28.1 76.5,28.1 76.1,28.4 Z M71.6,38.1 L77.2,43.2 C77.6,43.5 77.6,44.1 77.3,44.4 C77,44.8 76.4,44.8 76.1,44.5 L70.3,39.3 C70.1,39.2 69.9,39.1 69.6,39.1 C69.4,39.1 69.1,39.2 68.9,39.3 L63.1,44.5 C62.7,44.8 62.2,44.7 61.9,44.4 C61.6,44 61.7,43.5 62,43.2 L67.6,38.1 C68.1,37.6 68.8,37.3 69.6,37.3 C70.4,37.3 71.1,37.6 71.6,38.1 Z M25.068304,64.0479777 L20.0562305,70.379831 L25.068304,76.7116843 C25.3221497,77.0323726 25.2721331,77.5014791 24.9565888,77.759463 C24.6410446,78.0174469 24.1794629,77.9666149 23.9256173,77.6459266 L19.1151304,71.5687417 L14.3046435,77.6459266 C14.0507979,77.9666149 13.5892162,78.0174469 13.2736719,77.759463 C12.9581277,77.5014791 12.9081111,77.0323726 13.1619568,76.7116843 L18.1740303,70.379831 L13.1619568,64.0479777 C12.9081111,63.7272894 12.9581277,63.2581829 13.2736719,63.000199 C13.5892162,62.7422151 14.0507979,62.7930471 14.3046435,63.1137354 L19.1151304,69.1909203 L23.9256173,63.1137354 C24.1794629,62.7930471 24.6410446,62.7422151 24.9565888,63.000199 C25.2721331,63.2581829 25.3221497,63.7272894 25.068304,64.0479777 Z M54.0970271,71.1015098 C54.0965714,71.154159 54.0917448,71.2100088 54.0828251,71.2673713 L54.0828251,77.1788054 C54.0828251,77.5903837 53.754527,77.9240339 53.3495507,77.9240339 C52.9445745,77.9240339 52.6162764,77.5903837 52.6162764,77.1788054 L52.6162764,67.1512677 C52.6162764,66.7396894 52.9445745,66.4060393 53.3495507,66.4060393 C53.754527,66.4060393 54.0828251,66.7396894 54.0828251,67.1512677 L54.0828251,68.0234063 C54.8309365,67.0560353 55.9515573,66.402395 57.2304791,66.2284342 C59.3627937,65.9383936 60.9925008,67.1741441 61.5717914,68.6776392 C61.8792495,69.4756181 61.9913502,70.0717376 61.9913502,71.4878385 L61.9913502,77.1788054 C61.9913502,77.5903837 61.6630521,77.9240339 61.2580758,77.9240339 C60.8530996,77.9240339 60.5248015,77.5903837 60.5248015,77.1788054 L60.5248015,71.5638046 C60.5248015,70.8080681 60.5272158,70.1068134 60.2247645,69.4164179 C59.7187944,68.2614572 58.9855887,67.5954177 57.4300494,67.7506143 C55.8255016,67.9107004 54.1117254,69.4035019 54.0970271,71.1015098 Z M73.8446069,62.7452284 C73.8446069,62.3336501 74.1729051,62 74.5778812,62 C74.9828575,62 75.3111557,62.3336501 75.3111557,62.7452284 L75.3111557,77.1788054 C75.3111557,77.5903837 74.9828575,77.9240339 74.5778812,77.9240339 C74.1729051,77.9240339 73.8446069,77.5903837 73.8446069,77.1788054 L73.8446069,76.109691 C72.887366,77.2701316 71.5151503,78 69.9809013,78 C67.0593833,78 64.7253945,75.3535114 64.7253945,72.1270535 C64.7253945,68.9005955 67.0593833,66.2541069 69.9809013,66.2541069 C71.5151503,66.2541069 72.887366,66.9839753 73.8446069,68.1444159 L73.8446069,62.7452284 Z M47.047577,63.4289241 C47.047577,62.9544134 47.4260736,62.5697464 47.8929728,62.5697464 C48.3598722,62.5697464 48.7383688,62.9544134 48.7383688,63.4289241 L48.7383688,63.7327889 C48.7383688,64.2072996 48.3598722,64.5919666 47.8929728,64.5919666 C47.4260736,64.5919666 47.047577,64.2072996 47.047577,63.7327889 L47.047577,63.4289241 Z M47.1596984,66.8474029 C47.1596984,66.4358246 47.4879965,66.1021745 47.8929728,66.1021745 C48.2979491,66.1021745 48.6262473,66.4358246 48.6262473,66.8474029 L48.6262473,77.1788054 C48.6262473,77.5903837 48.2979491,77.9240339 47.8929728,77.9240339 C47.4879965,77.9240339 47.1596984,77.5903837 47.1596984,77.1788054 L47.1596984,66.8474029 Z M69.9809013,76.5095433 C67.9072994,76.5095433 66.1919432,74.5645166 66.1919432,72.1270535 C66.1919432,69.6895903 67.9072994,67.7445637 69.9809013,67.7445637 C72.0545032,67.7445637 73.7698593,69.6895903 73.7698593,72.1270535 C73.7698593,74.5645166 72.0545032,76.5095433 69.9809013,76.5095433 Z M34.9007463,73.6196876 C34.8671687,73.5643424 33.3464998,70.9803802 30.3227847,65.9142848 L29.5597918,77.2285723 C29.5316686,77.639157 29.1866671,77.9508164 28.7826686,77.9222347 C28.37867,77.893653 28.0692631,77.5391551 28.0973863,77.1285706 L29.0299351,63.5291048 C29.0795426,62.80486 30.0777268,62.5728934 30.4499495,63.1925452 C33.205437,67.7796991 34.9595645,70.7435003 35.7485171,72.0565861 C36.5369422,70.7428589 38.2918296,67.7799988 41.0470848,63.192858 C41.4191368,62.57344 42.4245286,62.803959 42.4670992,63.5285732 L43.399648,77.1285706 C43.423785,77.5394171 43.118622,77.8981786 42.7143657,77.922709 C42.3101093,77.9472394 41.9613794,77.6394189 41.9372425,77.2285723 L41.1742496,65.9142848 C38.1505345,70.9860165 36.6316694,73.5629528 36.596288,73.6199995 C36.4269453,73.8930368 36.0914063,74.0584582 35.7485171,74.0585151 C35.405628,74.058572 35.0653932,73.8910712 34.9007463,73.6196876 Z M102.722412,76.21351 L109.787169,76.21351 C110.192172,76.21351 110.520491,76.5454589 110.520491,76.9549386 C110.520491,77.3644183 110.192172,77.6963671 109.787169,77.6963671 L101.803994,77.6963671 C101.398992,77.6963671 101.070672,77.3644183 101.070672,76.9549386 L101.070672,63.7679967 C101.070672,63.358517 101.398992,63.0265681 101.803994,63.0265681 L109.787169,63.0265681 C110.192172,63.0265681 110.520491,63.358517 110.520491,63.7679967 C110.520491,64.1774763 110.192172,64.5094252 109.787169,64.5094252 L102.722412,64.5094252 L102.722412,69.4985268 L109.391708,69.4985268 C109.796711,69.4985268 110.12503,69.8304757 110.12503,70.2399554 C110.12503,70.6494351 109.796711,70.9813839 109.391708,70.9813839 L102.722412,70.9813839 L102.722412,76.21351 Z M87.7515616,76.5123226 L96.2626182,64.5348158 L88.3518413,64.5348158 C87.9468389,64.5348158 87.6185195,64.202867 87.6185195,63.7933873 C87.6185195,63.3839076 87.9468389,63.0519587 88.3518413,63.0519587 L97.673043,63.0519587 C98.2012094,63.0519587 98.6114344,63.6452985 98.2733228,64.2192623 L89.762266,76.196769 L97.8582169,76.196769 C98.2632193,76.196769 98.5915386,76.5287179 98.5915386,76.9381976 C98.5915386,77.3476773 98.2632193,77.6796261 97.8582169,77.6796261 L88.3518413,77.6796261 C87.7743458,77.6796261 87.4333023,77.0175956 87.7515616,76.5123226 Z M123.579589,77.5165319 L114.757758,65.9419017 L114.757758,77.1157227 C114.757758,77.5252023 114.460878,77.9068779 113.982214,77.8993527 C113.503549,77.8918276 113.206505,77.5252023 113.206505,77.1157227 L113.206505,63.7728446 C113.206505,63.0125997 114.152761,62.6952079 114.625062,63.3197196 L123.450402,74.9456541 L123.450402,63.7728446 C123.450402,63.3633649 123.765729,62.9937919 124.224697,62.9882031 C124.683664,62.9826144 125,63.3633649 125,63.7728446 L125,77.0256521 C125,77.8104249 124.091663,78.1180594 123.579589,77.5165319 Z M81.810732,69.5714286 C81.1864508,69.5714286 80.6803709,69.059754 80.6803709,68.4285714 C80.6803709,67.7973889 81.1864508,67.2857143 81.810732,67.2857143 C82.4350132,67.2857143 82.9410931,67.7973889 82.9410931,68.4285714 C82.9410931,69.059754 82.4350132,69.5714286 81.810732,69.5714286 Z M81.810732,75.2857143 C81.1864508,75.2857143 80.6803709,74.7740397 80.6803709,74.1428571 C80.6803709,73.5116746 81.1864508,73 81.810732,73 C82.4350132,73 82.9410931,73.5116746 82.9410931,74.1428571 C82.9410931,74.7740397 82.4350132,75.2857143 81.810732,75.2857143 Z M27.2819999,95.07 C27.1046656,95.07 26.9623337,95.0163339 26.8549999,94.909 C26.747666,94.8016661 26.6939999,94.6593342 26.6939999,94.482 L26.6939999,86.11 L23.6839999,86.11 C23.515999,86.11 23.3853337,86.0680004 23.2919999,85.984 C23.1986661,85.8999996 23.1519999,85.7786675 23.1519999,85.62 C23.1519999,85.4613325 23.1986661,85.3400004 23.2919999,85.256 C23.3853337,85.1719996 23.515999,85.13 23.6839999,85.13 L30.8659999,85.13 C31.0340007,85.13 31.1646661,85.1719996 31.2579999,85.256 C31.3513337,85.3400004 31.3979999,85.4613325 31.3979999,85.62 C31.3979999,85.7786675 31.3513337,85.8999996 31.2579999,85.984 C31.1646661,86.0680004 31.0340007,86.11 30.8659999,86.11 L27.8559999,86.11 L27.8559999,94.482 C27.8559999,94.6593342 27.804667,94.8016661 27.7019999,94.909 C27.5993327,95.0163339 27.4593341,95.07 27.2819999,95.07 Z M36.1779999,88.042 C36.5700018,88.0139999 36.7659999,88.1726649 36.7659999,88.518 C36.7659999,88.6673341 36.7240003,88.7863329 36.6399999,88.875 C36.5559995,88.9636671 36.4113342,89.0173332 36.2059999,89.036 L35.7859999,89.078 C35.1606634,89.1340003 34.6963347,89.3556647 34.3929999,89.743 C34.089665,90.1303353 33.9379999,90.5853307 33.9379999,91.108 L33.9379999,94.51 C33.9379999,94.6966676 33.8866671,94.8366662 33.7839999,94.93 C33.6813327,95.0233338 33.5460007,95.07 33.3779999,95.07 C33.209999,95.07 33.0723338,95.0210005 32.9649999,94.923 C32.857666,94.8249995 32.8039999,94.6873342 32.8039999,94.51 L32.8039999,88.602 C32.8039999,88.4246658 32.8599993,88.2870005 32.9719999,88.189 C33.0840004,88.0909995 33.2193324,88.042 33.3779999,88.042 C33.527334,88.042 33.6533327,88.0909995 33.7559999,88.189 C33.8586671,88.2870005 33.9099999,88.4199992 33.9099999,88.588 L33.9099999,89.372 C34.1060009,88.9613313 34.3836648,88.6486677 34.7429999,88.434 C35.102335,88.2193323 35.5153309,88.0933335 35.9819999,88.056 L36.1779999,88.042 Z M39.6699999,95.07 C39.5019991,95.07 39.3643338,95.0210005 39.2569999,94.923 C39.149666,94.8249995 39.0959999,94.6873342 39.0959999,94.51 L39.0959999,88.602 C39.0959999,88.4246658 39.149666,88.2870005 39.2569999,88.189 C39.3643338,88.0909995 39.5019991,88.042 39.6699999,88.042 C39.8380007,88.042 39.9733327,88.0909995 40.0759999,88.189 C40.1786671,88.2870005 40.2299999,88.4246658 40.2299999,88.602 L40.2299999,94.51 C40.2299999,94.6966676 40.1786671,94.8366662 40.0759999,94.93 C39.9733327,95.0233338 39.8380007,95.07 39.6699999,95.07 Z M39.6699999,86.572 C39.4459988,86.572 39.2640006,86.5066673 39.1239999,86.376 C38.9839992,86.2453327 38.9139999,86.0726677 38.9139999,85.858 C38.9139999,85.6526656 38.9839992,85.4846673 39.1239999,85.354 C39.2640006,85.2233327 39.4459988,85.158 39.6699999,85.158 C39.894001,85.158 40.0759992,85.2233327 40.2159999,85.354 C40.3560006,85.4846673 40.4259999,85.6526656 40.4259999,85.858 C40.4259999,86.0726677 40.3560006,86.2453327 40.2159999,86.376 C40.0759992,86.5066673 39.894001,86.572 39.6699999,86.572 Z M46.4799999,88.014 C48.1880085,88.014 49.0419999,88.909991 49.0419999,90.702 L49.0419999,94.51 C49.0419999,94.6780008 48.9930004,94.8133328 48.8949999,94.916 C48.7969994,95.0186672 48.6640008,95.07 48.4959999,95.07 C48.3279991,95.07 48.1926671,95.0186672 48.0899999,94.916 C47.9873327,94.8133328 47.9359999,94.6780008 47.9359999,94.51 L47.9359999,93.838 C47.7586657,94.2393353 47.4880017,94.5496656 47.1239999,94.769 C46.7599981,94.9883344 46.3400023,95.098 45.8639999,95.098 C45.4253311,95.098 45.0216684,95.0093342 44.6529999,94.832 C44.2843314,94.6546658 43.9926677,94.4073349 43.7779999,94.09 C43.5633322,93.7726651 43.4559999,93.4226686 43.4559999,93.04 C43.4559999,92.5266641 43.5866653,92.1276681 43.8479999,91.843 C44.1093346,91.5583319 44.5386636,91.3530006 45.1359999,91.227 C45.7333362,91.1009994 46.5639946,91.038 47.6279999,91.038 L47.9359999,91.038 L47.9359999,90.576 C47.9359999,90.0159972 47.8216677,89.6053346 47.5929999,89.344 C47.3643321,89.0826654 46.9933358,88.952 46.4799999,88.952 C45.8453301,88.952 45.2013365,89.1246649 44.5479999,89.47 C44.2959987,89.6286675 44.1186671,89.708 44.0159999,89.708 C43.9039994,89.708 43.810667,89.6660004 43.7359999,89.582 C43.6613329,89.4979996 43.6239999,89.3906673 43.6239999,89.26 C43.6239999,89.1293327 43.6636662,89.0150005 43.7429999,88.917 C43.8223337,88.8189995 43.9506657,88.7186672 44.1279999,88.616 C44.4546682,88.4293324 44.8256645,88.2823339 45.2409999,88.175 C45.6563353,88.0676661 46.0693312,88.014 46.4799999,88.014 Z M46.0179999,94.202 C46.5780027,94.202 47.0376648,94.0130019 47.3969999,93.635 C47.7563351,93.2569981 47.9359999,92.7693363 47.9359999,92.172 L47.9359999,91.766 L47.6839999,91.766 C46.8626625,91.766 46.2373354,91.8009997 45.8079999,91.871 C45.3786644,91.9410004 45.0730008,92.0576659 44.8909999,92.221 C44.708999,92.3843342 44.6179999,92.6246651 44.6179999,92.942 C44.6179999,93.3060018 44.7509986,93.6069988 45.0169999,93.845 C45.2830013,94.0830012 45.6166646,94.202 46.0179999,94.202 Z M53.038,95.07 C52.8699991,95.07 52.7323338,95.0210005 52.625,94.923 C52.5176661,94.8249995 52.464,94.6873342 52.464,94.51 L52.464,85.62 C52.464,85.4426658 52.5176661,85.3050005 52.625,85.207 C52.7323338,85.1089995 52.8699991,85.06 53.038,85.06 C53.1966674,85.06 53.3296661,85.1089995 53.437,85.207 C53.5443338,85.3050005 53.598,85.4426658 53.598,85.62 L53.598,94.51 C53.598,94.6873342 53.5443338,94.8249995 53.437,94.923 C53.3296661,95.0210005 53.1966674,95.07 53.038,95.07 Z M69.43,85.354 C69.4766669,85.2513328 69.5443329,85.1720003 69.633,85.116 C69.7216671,85.0599997 69.8173328,85.032 69.92,85.032 C70.0693341,85.032 70.2023327,85.0809995 70.319,85.179 C70.4356672,85.2770005 70.494,85.3959993 70.494,85.536 C70.494,85.610667 70.4753335,85.685333 70.438,85.76 L66.42,94.692 C66.3639997,94.8133339 66.2800006,94.9066663 66.168,94.972 C66.0559994,95.0373337 65.9346673,95.07 65.804,95.07 C65.6733327,95.07 65.5520006,95.0373337 65.44,94.972 C65.3279994,94.9066663 65.2440003,94.8133339 65.188,94.692 L61.184,85.76 C61.1559999,85.685333 61.142,85.6153337 61.142,85.55 C61.142,85.4006659 61.2026661,85.2770005 61.324,85.179 C61.4453339,85.0809995 61.5806659,85.032 61.73,85.032 C61.9540011,85.032 62.1173328,85.1393323 62.22,85.354 L65.832,93.516 L69.43,85.354 Z M77.542,93.418 C77.6446672,93.418 77.733333,93.4599996 77.808,93.544 C77.8826671,93.6280004 77.92,93.7353327 77.92,93.866 C77.92,94.0993345 77.7566683,94.313999 77.43,94.51 C77.0939983,94.706001 76.7393352,94.8529995 76.366,94.951 C75.9926648,95.0490005 75.6286685,95.098 75.274,95.098 C74.2193281,95.098 73.3863364,94.7853365 72.775,94.16 C72.1636636,93.5346635 71.858,92.6713388 71.858,91.57 C71.858,90.8699965 71.993332,90.2516694 72.264,89.715 C72.534668,89.1783307 72.9149976,88.7606682 73.405,88.462 C73.8950025,88.1633318 74.4526636,88.014 75.078,88.014 C75.9646711,88.014 76.6693307,88.3033304 77.192,88.882 C77.7146693,89.4606696 77.976,90.2446617 77.976,91.234 C77.976,91.4206676 77.9386671,91.5559996 77.864,91.64 C77.789333,91.7240004 77.6680009,91.766 77.5,91.766 L72.992,91.766 C73.0760004,93.3713414 73.8366595,94.174 75.274,94.174 C75.6380018,94.174 75.9506654,94.1250005 76.212,94.027 C76.4733347,93.9289995 76.7533319,93.7960008 77.052,93.628 C77.2946679,93.4879993 77.4579996,93.418 77.542,93.418 Z M75.092,88.896 C74.4946637,88.896 74.0163352,89.0826648 73.657,89.456 C73.2976649,89.8293352 73.0853337,90.3566633 73.02,91.038 L76.982,91.038 C76.9633333,90.3473299 76.7906683,89.8176685 76.464,89.449 C76.1373317,89.0803315 75.680003,88.896 75.092,88.896 Z M84.366,88.042 C84.758002,88.0139999 84.954,88.1726649 84.954,88.518 C84.954,88.6673341 84.9120005,88.7863329 84.828,88.875 C84.7439996,88.9636671 84.5993344,89.0173332 84.394,89.036 L83.974,89.078 C83.3486636,89.1340003 82.8843349,89.3556647 82.581,89.743 C82.2776652,90.1303353 82.126,90.5853307 82.126,91.108 L82.126,94.51 C82.126,94.6966676 82.0746672,94.8366662 81.972,94.93 C81.8693329,95.0233338 81.7340009,95.07 81.566,95.07 C81.3979992,95.07 81.2603339,95.0210005 81.153,94.923 C81.0456662,94.8249995 80.992,94.6873342 80.992,94.51 L80.992,88.602 C80.992,88.4246658 81.0479995,88.2870005 81.16,88.189 C81.2720006,88.0909995 81.4073326,88.042 81.566,88.042 C81.7153341,88.042 81.8413329,88.0909995 81.944,88.189 C82.0466672,88.2870005 82.098,88.4199992 82.098,88.588 L82.098,89.372 C82.294001,88.9613313 82.5716649,88.6486677 82.931,88.434 C83.2903352,88.2193323 83.703331,88.0933335 84.17,88.056 L84.366,88.042 Z M89.5100001,95.098 C89.0806646,95.098 88.6723353,95.0466672 88.2850001,94.944 C87.8976648,94.8413328 87.5546682,94.6966676 87.2560001,94.51 C87.0879992,94.3979994 86.9690004,94.2930005 86.8990001,94.195 C86.8289997,94.0969995 86.7940001,93.9780007 86.7940001,93.838 C86.7940001,93.7166661 86.8289997,93.6163337 86.8990001,93.537 C86.9690004,93.4576663 87.0599995,93.418 87.1720001,93.418 C87.2840006,93.418 87.4473323,93.4879993 87.6620001,93.628 C87.9420015,93.7960008 88.2196654,93.9289995 88.4950001,94.027 C88.7703348,94.1250005 89.1133314,94.174 89.5240001,94.174 C90.0280026,94.174 90.4199987,94.0853342 90.7000001,93.908 C90.9800015,93.7306658 91.1200001,93.4740017 91.1200001,93.138 C91.1200001,92.9326656 91.0686673,92.7670006 90.9660001,92.641 C90.8633329,92.5149994 90.6860013,92.4030005 90.4340001,92.305 C90.1819988,92.2069995 89.8133358,92.1066672 89.3280001,92.004 C88.5066626,91.8266658 87.9186685,91.5886682 87.5640001,91.29 C87.2093316,90.9913318 87.0320001,90.5853359 87.0320001,90.072 C87.0320001,89.6706647 87.143999,89.3160015 87.3680001,89.008 C87.5920012,88.6999985 87.9023314,88.4573342 88.2990001,88.28 C88.6956687,88.1026658 89.1459976,88.014 89.6500001,88.014 C90.0140019,88.014 90.3663317,88.0629995 90.7070001,88.161 C91.0476684,88.2590005 91.3486654,88.3966658 91.6100001,88.574 C91.927335,88.7980011 92.0860001,89.0313321 92.0860001,89.274 C92.0860001,89.3953339 92.0486671,89.4979996 91.9740001,89.582 C91.899333,89.6660004 91.8106673,89.708 91.7080001,89.708 C91.5959995,89.708 91.4280012,89.6286675 91.2040001,89.47 C90.9426654,89.3019992 90.6953346,89.1713338 90.4620001,89.078 C90.2286656,88.9846662 89.9393351,88.938 89.5940001,88.938 C89.1553312,88.938 88.8030014,89.035999 88.5370001,89.232 C88.2709987,89.428001 88.1380001,89.6893317 88.1380001,90.016 C88.1380001,90.2213344 88.1869996,90.3869994 88.2850001,90.513 C88.3830006,90.6390006 88.5463323,90.7509995 88.7750001,90.849 C89.0036679,90.9470005 89.3326646,91.0426662 89.7620001,91.136 C90.3966699,91.2760007 90.8889983,91.4299992 91.2390001,91.598 C91.5890018,91.7660008 91.838666,91.9713321 91.9880001,92.214 C92.1373342,92.4566679 92.2120001,92.7646648 92.2120001,93.138 C92.2120001,93.7260029 91.9646692,94.1996649 91.4700001,94.559 C90.9753309,94.9183351 90.3220041,95.098 89.5100001,95.098 Z M95.8580001,95.07 C95.6899993,95.07 95.552334,95.0210005 95.4450001,94.923 C95.3376662,94.8249995 95.2840001,94.6873342 95.2840001,94.51 L95.2840001,88.602 C95.2840001,88.4246658 95.3376662,88.2870005 95.4450001,88.189 C95.552334,88.0909995 95.6899993,88.042 95.8580001,88.042 C96.0260009,88.042 96.1613329,88.0909995 96.2640001,88.189 C96.3666673,88.2870005 96.4180001,88.4246658 96.4180001,88.602 L96.4180001,94.51 C96.4180001,94.6966676 96.3666673,94.8366662 96.2640001,94.93 C96.1613329,95.0233338 96.0260009,95.07 95.8580001,95.07 Z M95.8580001,86.572 C95.633999,86.572 95.4520008,86.5066673 95.3120001,86.376 C95.1719994,86.2453327 95.1020001,86.0726677 95.1020001,85.858 C95.1020001,85.6526656 95.1719994,85.4846673 95.3120001,85.354 C95.4520008,85.2233327 95.633999,85.158 95.8580001,85.158 C96.0820012,85.158 96.2639994,85.2233327 96.4040001,85.354 C96.5440008,85.4846673 96.6140001,85.6526656 96.6140001,85.858 C96.6140001,86.0726677 96.5440008,86.2453327 96.4040001,86.376 C96.2639994,86.5066673 96.0820012,86.572 95.8580001,86.572 Z M102.71,95.098 C102.065997,95.098 101.499003,94.9533348 101.009,94.664 C100.518998,94.3746652 100.141001,93.9616694 99.8750001,93.425 C99.6089988,92.8883307 99.4760001,92.2653369 99.4760001,91.556 C99.4760001,90.8466631 99.6089988,90.2236694 99.8750001,89.687 C100.141001,89.1503307 100.518998,88.7373348 101.009,88.448 C101.499003,88.1586652 102.065997,88.014 102.71,88.014 C103.354003,88.014 103.923331,88.1586652 104.418,88.448 C104.912669,88.7373348 105.292999,89.1503307 105.559,89.687 C105.825001,90.2236694 105.958,90.8466631 105.958,91.556 C105.958,92.2653369 105.825001,92.8883307 105.559,93.425 C105.292999,93.9616694 104.912669,94.3746652 104.418,94.664 C103.923331,94.9533348 103.354003,95.098 102.71,95.098 Z M102.71,94.16 C103.382003,94.16 103.897665,93.9383356 104.257,93.495 C104.616335,93.0516645 104.796,92.4053376 104.796,91.556 C104.796,90.7253292 104.614002,90.0836689 104.25,89.631 C103.885998,89.1783311 103.37267,88.952 102.71,88.952 C102.04733,88.952 101.534002,89.1783311 101.17,89.631 C100.805998,90.0836689 100.624,90.7253292 100.624,91.556 C100.624,92.3960042 100.803665,93.0399978 101.163,93.488 C101.522335,93.9360022 102.037997,94.16 102.71,94.16 Z M112.432,88.014 C114.065342,88.014 114.882,88.9146577 114.882,90.716 L114.882,94.51 C114.882,94.6873342 114.833001,94.8249995 114.735,94.923 C114.637,95.0210005 114.499334,95.07 114.322,95.07 C114.144666,95.07 114.004667,95.0210005 113.902,94.923 C113.799333,94.8249995 113.748,94.6873342 113.748,94.51 L113.748,90.786 C113.748,90.1513302 113.624335,89.6893348 113.377,89.4 C113.129666,89.1106652 112.735336,88.966 112.194,88.966 C111.568664,88.966 111.069335,89.1573314 110.696,89.54 C110.322665,89.9226686 110.136,90.4406634 110.136,91.094 L110.136,94.51 C110.136,94.6873342 110.087001,94.8249995 109.989,94.923 C109.891,95.0210005 109.753334,95.07 109.576,95.07 C109.398666,95.07 109.258667,95.0210005 109.156,94.923 C109.053333,94.8249995 109.002,94.6873342 109.002,94.51 L109.002,88.602 C109.002,88.4339992 109.053333,88.2986672 109.156,88.196 C109.258667,88.0933328 109.398666,88.042 109.576,88.042 C109.744001,88.042 109.877,88.0933328 109.975,88.196 C110.073001,88.2986672 110.122,88.4293325 110.122,88.588 L110.122,89.302 C110.346001,88.8819979 110.658665,88.5623344 111.06,88.343 C111.461335,88.1236656 111.918664,88.014 112.432,88.014 Z" id="Combined-Shape"></path>
        </g>
    </g>
</svg>