<?xml version="1.0" encoding="UTF-8"?>
<svg width="138px" height="151px" viewBox="0 0 138 151" version="1.1" xmlns="http://www.w3.org/2000/svg" xmlns:xlink="http://www.w3.org/1999/xlink">
    <!-- Generator: Sketch 48.2 (47327) - http://www.bohemiancoding.com/sketch -->
    <title>png_Japanese</title>
    <desc>Created with Sketch.</desc>
    <defs></defs>
    <g id="png水印-试用版" stroke="none" stroke-width="1" fill="none" fill-rule="evenodd" transform="translate(-88.000000, -269.000000)">
        <g id="png_Japanese" transform="translate(88.000000, 269.000000)" fill="#FE6752" fill-rule="nonzero">
            <path d="M0,0 L0,120.3 L69.5,151 L138,120.3 L138,0 L0,0 Z M69.5,52 C60.9,52 54,45.1 54,36.5 C54,27.9 60.9,21 69.5,21 C78.1,21 85,27.9 85,36.5 C85,45.1 78.1,52 69.5,52 Z M76.1,28.4 L70.3,33.6 C70.3,33.6 70.3,33.6 70.3,33.6 C70.1,33.7 69.8,33.8 69.6,33.8 C69.3,33.8 69.1,33.7 68.9,33.6 C68.9,33.6 68.9,33.6 68.9,33.6 L63.1,28.4 C62.8,28.1 62.2,28.1 61.9,28.5 C61.6,28.8 61.6,29.4 62,29.7 L67.6,34.8 C68.1,35.3 68.8,35.6 69.6,35.6 C70.4,35.6 71.1,35.3 71.6,34.8 L77.2,29.7 C77.5,29.4 77.6,28.9 77.3,28.5 C77,28.1 76.5,28.1 76.1,28.4 Z M71.6,38.1 L77.2,43.2 C77.6,43.5 77.6,44.1 77.3,44.4 C77,44.8 76.4,44.8 76.1,44.5 L70.3,39.3 C70.1,39.2 69.9,39.1 69.6,39.1 C69.4,39.1 69.1,39.2 68.9,39.3 L63.1,44.5 C62.7,44.8 62.2,44.7 61.9,44.4 C61.6,44 61.7,43.5 62,43.2 L67.6,38.1 C68.1,37.6 68.8,37.3 69.6,37.3 C70.4,37.3 71.1,37.6 71.6,38.1 Z M25.068304,64.0479777 L20.0562305,70.379831 L25.068304,76.7116843 C25.3221497,77.0323726 25.2721331,77.5014791 24.9565888,77.759463 C24.6410446,78.0174469 24.1794629,77.9666149 23.9256173,77.6459266 L19.1151304,71.5687417 L14.3046435,77.6459266 C14.0507979,77.9666149 13.5892162,78.0174469 13.2736719,77.759463 C12.9581277,77.5014791 12.9081111,77.0323726 13.1619568,76.7116843 L18.1740303,70.379831 L13.1619568,64.0479777 C12.9081111,63.7272894 12.9581277,63.2581829 13.2736719,63.000199 C13.5892162,62.7422151 14.0507979,62.7930471 14.3046435,63.1137354 L19.1151304,69.1909203 L23.9256173,63.1137354 C24.1794629,62.7930471 24.6410446,62.7422151 24.9565888,63.000199 C25.2721331,63.2581829 25.3221497,63.7272894 25.068304,64.0479777 Z M54.0970271,71.1015098 C54.0965714,71.154159 54.0917448,71.2100088 54.0828251,71.2673713 L54.0828251,77.1788054 C54.0828251,77.5903837 53.754527,77.9240339 53.3495507,77.9240339 C52.9445745,77.9240339 52.6162764,77.5903837 52.6162764,77.1788054 L52.6162764,67.1512677 C52.6162764,66.7396894 52.9445745,66.4060393 53.3495507,66.4060393 C53.754527,66.4060393 54.0828251,66.7396894 54.0828251,67.1512677 L54.0828251,68.0234063 C54.8309365,67.0560353 55.9515573,66.402395 57.2304791,66.2284342 C59.3627937,65.9383936 60.9925008,67.1741441 61.5717914,68.6776392 C61.8792495,69.4756181 61.9913502,70.0717376 61.9913502,71.4878385 L61.9913502,77.1788054 C61.9913502,77.5903837 61.6630521,77.9240339 61.2580758,77.9240339 C60.8530996,77.9240339 60.5248015,77.5903837 60.5248015,77.1788054 L60.5248015,71.5638046 C60.5248015,70.8080681 60.5272158,70.1068134 60.2247645,69.4164179 C59.7187944,68.2614572 58.9855887,67.5954177 57.4300494,67.7506143 C55.8255016,67.9107004 54.1117254,69.4035019 54.0970271,71.1015098 Z M73.8446069,62.7452284 C73.8446069,62.3336501 74.1729051,62 74.5778812,62 C74.9828575,62 75.3111557,62.3336501 75.3111557,62.7452284 L75.3111557,77.1788054 C75.3111557,77.5903837 74.9828575,77.9240339 74.5778812,77.9240339 C74.1729051,77.9240339 73.8446069,77.5903837 73.8446069,77.1788054 L73.8446069,76.109691 C72.887366,77.2701316 71.5151503,78 69.9809013,78 C67.0593833,78 64.7253945,75.3535114 64.7253945,72.1270535 C64.7253945,68.9005955 67.0593833,66.2541069 69.9809013,66.2541069 C71.5151503,66.2541069 72.887366,66.9839753 73.8446069,68.1444159 L73.8446069,62.7452284 Z M47.047577,63.4289241 C47.047577,62.9544134 47.4260736,62.5697464 47.8929728,62.5697464 C48.3598722,62.5697464 48.7383688,62.9544134 48.7383688,63.4289241 L48.7383688,63.7327889 C48.7383688,64.2072996 48.3598722,64.5919666 47.8929728,64.5919666 C47.4260736,64.5919666 47.047577,64.2072996 47.047577,63.7327889 L47.047577,63.4289241 Z M47.1596984,66.8474029 C47.1596984,66.4358246 47.4879965,66.1021745 47.8929728,66.1021745 C48.2979491,66.1021745 48.6262473,66.4358246 48.6262473,66.8474029 L48.6262473,77.1788054 C48.6262473,77.5903837 48.2979491,77.9240339 47.8929728,77.9240339 C47.4879965,77.9240339 47.1596984,77.5903837 47.1596984,77.1788054 L47.1596984,66.8474029 Z M69.9809013,76.5095433 C67.9072994,76.5095433 66.1919432,74.5645166 66.1919432,72.1270535 C66.1919432,69.6895903 67.9072994,67.7445637 69.9809013,67.7445637 C72.0545032,67.7445637 73.7698593,69.6895903 73.7698593,72.1270535 C73.7698593,74.5645166 72.0545032,76.5095433 69.9809013,76.5095433 Z M34.9007463,73.6196876 C34.8671687,73.5643424 33.3464998,70.9803802 30.3227847,65.9142848 L29.5597918,77.2285723 C29.5316686,77.639157 29.1866671,77.9508164 28.7826686,77.9222347 C28.37867,77.893653 28.0692631,77.5391551 28.0973863,77.1285706 L29.0299351,63.5291048 C29.0795426,62.80486 30.0777268,62.5728934 30.4499495,63.1925452 C33.205437,67.7796991 34.9595645,70.7435003 35.7485171,72.0565861 C36.5369422,70.7428589 38.2918296,67.7799988 41.0470848,63.192858 C41.4191368,62.57344 42.4245286,62.803959 42.4670992,63.5285732 L43.399648,77.1285706 C43.423785,77.5394171 43.118622,77.8981786 42.7143657,77.922709 C42.3101093,77.9472394 41.9613794,77.6394189 41.9372425,77.2285723 L41.1742496,65.9142848 C38.1505345,70.9860165 36.6316694,73.5629528 36.596288,73.6199995 C36.4269453,73.8930368 36.0914063,74.0584582 35.7485171,74.0585151 C35.405628,74.058572 35.0653932,73.8910712 34.9007463,73.6196876 Z M102.722412,76.21351 L109.787169,76.21351 C110.192172,76.21351 110.520491,76.5454589 110.520491,76.9549386 C110.520491,77.3644183 110.192172,77.6963671 109.787169,77.6963671 L101.803994,77.6963671 C101.398992,77.6963671 101.070672,77.3644183 101.070672,76.9549386 L101.070672,63.7679967 C101.070672,63.358517 101.398992,63.0265681 101.803994,63.0265681 L109.787169,63.0265681 C110.192172,63.0265681 110.520491,63.358517 110.520491,63.7679967 C110.520491,64.1774763 110.192172,64.5094252 109.787169,64.5094252 L102.722412,64.5094252 L102.722412,69.4985268 L109.391708,69.4985268 C109.796711,69.4985268 110.12503,69.8304757 110.12503,70.2399554 C110.12503,70.6494351 109.796711,70.9813839 109.391708,70.9813839 L102.722412,70.9813839 L102.722412,76.21351 Z M87.7515616,76.5123226 L96.2626182,64.5348158 L88.3518413,64.5348158 C87.9468389,64.5348158 87.6185195,64.202867 87.6185195,63.7933873 C87.6185195,63.3839076 87.9468389,63.0519587 88.3518413,63.0519587 L97.673043,63.0519587 C98.2012094,63.0519587 98.6114344,63.6452985 98.2733228,64.2192623 L89.762266,76.196769 L97.8582169,76.196769 C98.2632193,76.196769 98.5915386,76.5287179 98.5915386,76.9381976 C98.5915386,77.3476773 98.2632193,77.6796261 97.8582169,77.6796261 L88.3518413,77.6796261 C87.7743458,77.6796261 87.4333023,77.0175956 87.7515616,76.5123226 Z M123.579589,77.5165319 L114.757758,65.9419017 L114.757758,77.1157227 C114.757758,77.5252023 114.460878,77.9068779 113.982214,77.8993527 C113.503549,77.8918276 113.206505,77.5252023 113.206505,77.1157227 L113.206505,63.7728446 C113.206505,63.0125997 114.152761,62.6952079 114.625062,63.3197196 L123.450402,74.9456541 L123.450402,63.7728446 C123.450402,63.3633649 123.765729,62.9937919 124.224697,62.9882031 C124.683664,62.9826144 125,63.3633649 125,63.7728446 L125,77.0256521 C125,77.8104249 124.091663,78.1180594 123.579589,77.5165319 Z M81.810732,69.5714286 C81.1864508,69.5714286 80.6803709,69.059754 80.6803709,68.4285714 C80.6803709,67.7973889 81.1864508,67.2857143 81.810732,67.2857143 C82.4350132,67.2857143 82.9410931,67.7973889 82.9410931,68.4285714 C82.9410931,69.059754 82.4350132,69.5714286 81.810732,69.5714286 Z M81.810732,75.2857143 C81.1864508,75.2857143 80.6803709,74.7740397 80.6803709,74.1428571 C80.6803709,73.5116746 81.1864508,73 81.810732,73 C82.4350132,73 82.9410931,73.5116746 82.9410931,74.1428571 C82.9410931,74.7740397 82.4350132,75.2857143 81.810732,75.2857143 Z M32.561,87.537 C32.197,88.031 31.755,88.473 31.248,88.876 L30.676,88.135 C31.664,87.368 32.34,86.445 32.704,85.353 L33.614,85.47 C33.484,85.873 33.328,86.25 33.146,86.614 L41.726,86.614 L41.726,87.498 L40.686,87.498 L40.686,89.786 L41.999,89.786 L41.999,90.644 L40.686,90.644 L40.686,92.815 L42.194,92.815 L42.194,93.686 L30.806,93.686 L30.806,92.815 L32.561,92.815 L32.561,90.644 L31.014,90.644 L31.014,89.786 L32.561,89.786 L32.561,87.537 Z M33.458,92.815 L34.953,92.815 L34.953,90.644 L33.458,90.644 L33.458,92.815 Z M35.863,92.815 L37.384,92.815 L37.384,90.644 L35.863,90.644 L35.863,92.815 Z M38.281,92.815 L39.776,92.815 L39.776,90.644 L38.281,90.644 L38.281,92.815 Z M39.776,89.786 L39.776,87.498 L38.281,87.498 L38.281,89.786 L39.776,89.786 Z M37.384,89.786 L37.384,87.498 L35.863,87.498 L35.863,89.786 L37.384,89.786 Z M34.953,89.786 L34.953,87.498 L33.458,87.498 L33.458,89.786 L34.953,89.786 Z M32.47,94.245 L33.263,94.622 C32.834,95.675 32.327,96.585 31.755,97.352 L30.988,96.793 C31.56,96.078 32.054,95.233 32.47,94.245 Z M35.304,94.518 C35.564,95.298 35.798,96.156 36.006,97.066 L35.057,97.274 C34.888,96.312 34.68,95.454 34.446,94.713 L35.304,94.518 Z M38.099,94.44 C38.45,95.233 38.762,96.091 39.022,97.014 L38.086,97.222 C37.852,96.247 37.566,95.389 37.228,94.635 L38.099,94.44 Z M40.556,94.18 C41.31,95.168 41.882,96.039 42.285,96.767 L41.505,97.313 C41.089,96.507 40.53,95.61 39.828,94.635 L40.556,94.18 Z M44.599,86.458 C44.859,87.238 45.106,88.135 45.314,89.149 L44.586,89.357 C44.378,88.434 44.131,87.55 43.819,86.705 L44.599,86.458 Z M48.135,86.289 L48.928,86.393 C48.85,87.459 48.642,88.408 48.317,89.24 L47.602,89.006 C47.888,88.226 48.057,87.316 48.135,86.289 Z M43.702,89.942 L46.029,89.942 L46.029,85.431 L46.978,85.431 L46.978,89.942 L48.915,89.942 L48.915,90.852 L46.978,90.852 L46.978,91.19 C47.628,91.775 48.278,92.438 48.941,93.166 L48.382,93.985 C47.836,93.166 47.368,92.503 46.978,92.009 L46.978,97.261 L46.029,97.261 L46.029,92.022 C45.457,93.244 44.742,94.323 43.897,95.246 L43.52,94.284 C44.651,93.192 45.47,92.048 45.977,90.852 L43.702,90.852 L43.702,89.942 Z M53.023,85.444 L53.946,85.444 L53.946,92.815 L55.376,92.594 L55.532,93.53 L53.946,93.764 L53.946,97.261 L53.023,97.261 L53.023,93.907 L49.266,94.479 L49.136,93.543 L53.023,92.958 L53.023,85.444 Z M50.397,86.367 C51.255,87.017 51.97,87.654 52.555,88.278 L51.918,88.915 C51.398,88.304 50.683,87.654 49.773,86.965 L50.397,86.367 Z M50.085,89.409 C50.917,90.072 51.632,90.735 52.204,91.385 L51.567,92.035 C51.047,91.398 50.345,90.722 49.461,90.007 L50.085,89.409 Z M65.815,86.705 C66.803,87.602 67.687,88.564 68.441,89.604 L67.687,90.189 C66.907,89.11 66.049,88.161 65.1,87.355 L65.815,86.705 Z M64.762,87.563 L64.814,88.486 C63.592,88.564 62.5,88.629 61.564,88.668 L61.564,90.514 C62.227,90.371 62.942,90.306 63.696,90.306 C64.801,90.306 65.711,90.579 66.413,91.138 C67.167,91.71 67.544,92.503 67.544,93.504 C67.544,95.662 66.101,96.754 63.228,96.754 L63.02,95.844 C64.281,95.844 65.191,95.623 65.763,95.207 C66.283,94.817 66.556,94.258 66.556,93.504 C66.556,92.802 66.283,92.23 65.75,91.814 C65.23,91.398 64.541,91.203 63.696,91.203 C62.942,91.203 62.227,91.281 61.564,91.45 C61.564,92.581 61.564,93.79 61.577,95.077 C61.577,96.156 61.057,96.702 60.017,96.702 C59.185,96.702 58.509,96.507 57.989,96.117 C57.43,95.701 57.157,95.129 57.157,94.427 C57.157,93.179 57.846,92.152 59.237,91.372 C59.653,91.125 60.108,90.93 60.589,90.774 C60.589,90.046 60.576,89.344 60.576,88.694 C60.082,88.707 59.627,88.72 59.237,88.72 C58.548,88.72 57.963,88.707 57.495,88.694 L57.482,87.771 C58.171,87.784 58.756,87.797 59.224,87.797 C59.666,87.797 60.108,87.784 60.576,87.784 C60.576,86.978 60.563,86.237 60.563,85.548 L61.551,85.548 C61.551,86.224 61.551,86.965 61.564,87.758 C62.604,87.706 63.67,87.641 64.762,87.563 Z M60.589,91.762 C60.368,91.84 60.16,91.944 59.952,92.048 C58.73,92.672 58.132,93.465 58.132,94.427 C58.132,94.843 58.301,95.181 58.665,95.441 C58.977,95.675 59.393,95.792 59.9,95.792 C60.355,95.792 60.589,95.506 60.589,94.947 L60.589,91.762 Z M71.73,85.34 C71.964,85.912 72.146,86.445 72.276,86.913 L71.834,87.082 L73.81,87.082 L73.81,87.953 L69.728,87.953 L69.728,87.082 L71.444,87.082 C71.262,86.562 71.054,86.055 70.82,85.587 L71.73,85.34 Z M70.092,89.006 L73.368,89.006 L73.368,89.825 L70.092,89.825 L70.092,89.006 Z M70.092,90.761 L73.368,90.761 L73.368,91.593 L70.092,91.593 L70.092,90.761 Z M73.472,92.724 L73.472,97.105 L72.601,97.105 L72.601,96.481 L70.846,96.481 L70.846,97.287 L69.975,97.287 L69.975,92.724 L73.472,92.724 Z M70.846,95.623 L72.601,95.623 L72.601,93.556 L70.846,93.556 L70.846,95.623 Z M74.187,87.784 L77.879,87.784 C77.853,87.03 77.853,86.25 77.853,85.431 L78.724,85.431 C78.724,86.263 78.724,87.056 78.75,87.784 L81.168,87.784 L81.168,88.668 L78.776,88.668 C78.854,90.93 79.036,92.737 79.296,94.063 C79.569,95.428 79.829,96.117 80.089,96.117 C80.271,96.065 80.492,95.259 80.739,93.686 L81.467,94.102 C81.116,96.13 80.661,97.144 80.089,97.157 C79.27,97.118 78.659,95.714 78.243,92.958 C78.074,91.736 77.957,90.306 77.905,88.668 L74.187,88.668 L74.187,87.784 Z M74.109,90.618 L77.398,90.618 L77.398,91.463 L76.215,91.463 L76.215,94.635 C76.722,94.544 77.216,94.44 77.697,94.323 L77.697,95.168 C76.579,95.428 75.37,95.649 74.083,95.831 L73.875,94.986 C74.369,94.934 74.85,94.869 75.344,94.791 L75.344,91.463 L74.109,91.463 L74.109,90.618 Z M79.92,85.47 C80.414,86.042 80.791,86.536 81.051,86.965 L80.414,87.42 C80.128,86.952 79.751,86.432 79.283,85.873 L79.92,85.47 Z M85.029,86.016 L86.056,86.016 L86.056,93.283 C86.056,94.869 86.901,95.662 88.604,95.662 C90.502,95.662 91.958,94.258 92.998,91.463 L93.96,91.827 C93.44,93.205 92.842,94.284 92.14,95.051 C91.178,96.104 89.995,96.637 88.604,96.637 C86.212,96.637 85.029,95.558 85.029,93.413 L85.029,86.016 Z M98.77,85.522 L99.68,85.522 L99.68,88.967 L100.447,88.967 L100.447,89.89 L97.379,89.89 L97.379,90.553 C97.379,90.956 97.366,91.346 97.353,91.723 L99.849,91.723 L99.849,97.248 L98.926,97.248 L98.926,92.62 L97.301,92.62 C97.145,94.57 96.794,96.052 96.235,97.092 L95.533,96.468 C96.131,95.233 96.443,93.257 96.456,90.553 L96.456,85.782 L97.379,85.782 L97.379,88.967 L98.77,88.967 L98.77,85.522 Z M102.046,90.033 L102.046,91.463 C101.994,93.881 101.565,95.805 100.785,97.235 L100.135,96.546 C100.785,95.324 101.136,93.621 101.188,91.463 L101.188,86.302 C103.229,86.276 105.075,86.003 106.713,85.483 L107.181,86.328 C105.647,86.77 103.931,87.03 102.046,87.108 L102.046,89.149 L106.856,89.149 L106.856,89.942 C106.557,91.749 105.985,93.27 105.153,94.505 C105.79,95.363 106.57,96.013 107.493,96.481 L107.025,97.3 C106.05,96.793 105.231,96.117 104.581,95.259 C103.866,96.091 103.008,96.78 102.02,97.313 L101.565,96.481 C102.54,95.948 103.359,95.272 104.035,94.466 C103.294,93.257 102.774,91.775 102.475,90.033 L102.046,90.033 Z M103.32,90.033 C103.606,91.45 104.035,92.659 104.607,93.673 C105.257,92.633 105.712,91.411 105.946,90.033 L103.32,90.033 Z" id="Combined-Shape"></path>
        </g>
    </g>
</svg>