<?xml version="1.0" encoding="UTF-8"?>
<svg width="138px" height="151px" viewBox="0 0 138 151" version="1.1" xmlns="http://www.w3.org/2000/svg" xmlns:xlink="http://www.w3.org/1999/xlink">
    <!-- Generator: Sketch 48.2 (47327) - http://www.bohemiancoding.com/sketch -->
    <title>png_German</title>
    <desc>Created with Sketch.</desc>
    <defs></defs>
    <g id="png水印-试用版" stroke="none" stroke-width="1" fill="none" fill-rule="evenodd" transform="translate(-246.000000, -269.000000)">
        <g id="png_German" transform="translate(246.000000, 269.000000)" fill="#FE6752" fill-rule="nonzero">
            <path d="M0,0 L0,120.3 L69.5,151 L138,120.3 L138,0 L0,0 Z M69.5,52 C60.9,52 54,45.1 54,36.5 C54,27.9 60.9,21 69.5,21 C78.1,21 85,27.9 85,36.5 C85,45.1 78.1,52 69.5,52 Z M76.1,28.4 L70.3,33.6 C70.3,33.6 70.3,33.6 70.3,33.6 C70.1,33.7 69.8,33.8 69.6,33.8 C69.3,33.8 69.1,33.7 68.9,33.6 C68.9,33.6 68.9,33.6 68.9,33.6 L63.1,28.4 C62.8,28.1 62.2,28.1 61.9,28.5 C61.6,28.8 61.6,29.4 62,29.7 L67.6,34.8 C68.1,35.3 68.8,35.6 69.6,35.6 C70.4,35.6 71.1,35.3 71.6,34.8 L77.2,29.7 C77.5,29.4 77.6,28.9 77.3,28.5 C77,28.1 76.5,28.1 76.1,28.4 Z M71.6,38.1 L77.2,43.2 C77.6,43.5 77.6,44.1 77.3,44.4 C77,44.8 76.4,44.8 76.1,44.5 L70.3,39.3 C70.1,39.2 69.9,39.1 69.6,39.1 C69.4,39.1 69.1,39.2 68.9,39.3 L63.1,44.5 C62.7,44.8 62.2,44.7 61.9,44.4 C61.6,44 61.7,43.5 62,43.2 L67.6,38.1 C68.1,37.6 68.8,37.3 69.6,37.3 C70.4,37.3 71.1,37.6 71.6,38.1 Z M25.068304,64.0479777 L20.0562305,70.379831 L25.068304,76.7116843 C25.3221497,77.0323726 25.2721331,77.5014791 24.9565888,77.759463 C24.6410446,78.0174469 24.1794629,77.9666149 23.9256173,77.6459266 L19.1151304,71.5687417 L14.3046435,77.6459266 C14.0507979,77.9666149 13.5892162,78.0174469 13.2736719,77.759463 C12.9581277,77.5014791 12.9081111,77.0323726 13.1619568,76.7116843 L18.1740303,70.379831 L13.1619568,64.0479777 C12.9081111,63.7272894 12.9581277,63.2581829 13.2736719,63.000199 C13.5892162,62.7422151 14.0507979,62.7930471 14.3046435,63.1137354 L19.1151304,69.1909203 L23.9256173,63.1137354 C24.1794629,62.7930471 24.6410446,62.7422151 24.9565888,63.000199 C25.2721331,63.2581829 25.3221497,63.7272894 25.068304,64.0479777 Z M54.0970271,71.1015098 C54.0965714,71.154159 54.0917448,71.2100088 54.0828251,71.2673713 L54.0828251,77.1788054 C54.0828251,77.5903837 53.754527,77.9240339 53.3495507,77.9240339 C52.9445745,77.9240339 52.6162764,77.5903837 52.6162764,77.1788054 L52.6162764,67.1512677 C52.6162764,66.7396894 52.9445745,66.4060393 53.3495507,66.4060393 C53.754527,66.4060393 54.0828251,66.7396894 54.0828251,67.1512677 L54.0828251,68.0234063 C54.8309365,67.0560353 55.9515573,66.402395 57.2304791,66.2284342 C59.3627937,65.9383936 60.9925008,67.1741441 61.5717914,68.6776392 C61.8792495,69.4756181 61.9913502,70.0717376 61.9913502,71.4878385 L61.9913502,77.1788054 C61.9913502,77.5903837 61.6630521,77.9240339 61.2580758,77.9240339 C60.8530996,77.9240339 60.5248015,77.5903837 60.5248015,77.1788054 L60.5248015,71.5638046 C60.5248015,70.8080681 60.5272158,70.1068134 60.2247645,69.4164179 C59.7187944,68.2614572 58.9855887,67.5954177 57.4300494,67.7506143 C55.8255016,67.9107004 54.1117254,69.4035019 54.0970271,71.1015098 Z M73.8446069,62.7452284 C73.8446069,62.3336501 74.1729051,62 74.5778812,62 C74.9828575,62 75.3111557,62.3336501 75.3111557,62.7452284 L75.3111557,77.1788054 C75.3111557,77.5903837 74.9828575,77.9240339 74.5778812,77.9240339 C74.1729051,77.9240339 73.8446069,77.5903837 73.8446069,77.1788054 L73.8446069,76.109691 C72.887366,77.2701316 71.5151503,78 69.9809013,78 C67.0593833,78 64.7253945,75.3535114 64.7253945,72.1270535 C64.7253945,68.9005955 67.0593833,66.2541069 69.9809013,66.2541069 C71.5151503,66.2541069 72.887366,66.9839753 73.8446069,68.1444159 L73.8446069,62.7452284 Z M47.047577,63.4289241 C47.047577,62.9544134 47.4260736,62.5697464 47.8929728,62.5697464 C48.3598722,62.5697464 48.7383688,62.9544134 48.7383688,63.4289241 L48.7383688,63.7327889 C48.7383688,64.2072996 48.3598722,64.5919666 47.8929728,64.5919666 C47.4260736,64.5919666 47.047577,64.2072996 47.047577,63.7327889 L47.047577,63.4289241 Z M47.1596984,66.8474029 C47.1596984,66.4358246 47.4879965,66.1021745 47.8929728,66.1021745 C48.2979491,66.1021745 48.6262473,66.4358246 48.6262473,66.8474029 L48.6262473,77.1788054 C48.6262473,77.5903837 48.2979491,77.9240339 47.8929728,77.9240339 C47.4879965,77.9240339 47.1596984,77.5903837 47.1596984,77.1788054 L47.1596984,66.8474029 Z M69.9809013,76.5095433 C67.9072994,76.5095433 66.1919432,74.5645166 66.1919432,72.1270535 C66.1919432,69.6895903 67.9072994,67.7445637 69.9809013,67.7445637 C72.0545032,67.7445637 73.7698593,69.6895903 73.7698593,72.1270535 C73.7698593,74.5645166 72.0545032,76.5095433 69.9809013,76.5095433 Z M34.9007463,73.6196876 C34.8671687,73.5643424 33.3464998,70.9803802 30.3227847,65.9142848 L29.5597918,77.2285723 C29.5316686,77.639157 29.1866671,77.9508164 28.7826686,77.9222347 C28.37867,77.893653 28.0692631,77.5391551 28.0973863,77.1285706 L29.0299351,63.5291048 C29.0795426,62.80486 30.0777268,62.5728934 30.4499495,63.1925452 C33.205437,67.7796991 34.9595645,70.7435003 35.7485171,72.0565861 C36.5369422,70.7428589 38.2918296,67.7799988 41.0470848,63.192858 C41.4191368,62.57344 42.4245286,62.803959 42.4670992,63.5285732 L43.399648,77.1285706 C43.423785,77.5394171 43.118622,77.8981786 42.7143657,77.922709 C42.3101093,77.9472394 41.9613794,77.6394189 41.9372425,77.2285723 L41.1742496,65.9142848 C38.1505345,70.9860165 36.6316694,73.5629528 36.596288,73.6199995 C36.4269453,73.8930368 36.0914063,74.0584582 35.7485171,74.0585151 C35.405628,74.058572 35.0653932,73.8910712 34.9007463,73.6196876 Z M102.722412,76.21351 L109.787169,76.21351 C110.192172,76.21351 110.520491,76.5454589 110.520491,76.9549386 C110.520491,77.3644183 110.192172,77.6963671 109.787169,77.6963671 L101.803994,77.6963671 C101.398992,77.6963671 101.070672,77.3644183 101.070672,76.9549386 L101.070672,63.7679967 C101.070672,63.358517 101.398992,63.0265681 101.803994,63.0265681 L109.787169,63.0265681 C110.192172,63.0265681 110.520491,63.358517 110.520491,63.7679967 C110.520491,64.1774763 110.192172,64.5094252 109.787169,64.5094252 L102.722412,64.5094252 L102.722412,69.4985268 L109.391708,69.4985268 C109.796711,69.4985268 110.12503,69.8304757 110.12503,70.2399554 C110.12503,70.6494351 109.796711,70.9813839 109.391708,70.9813839 L102.722412,70.9813839 L102.722412,76.21351 Z M87.7515616,76.5123226 L96.2626182,64.5348158 L88.3518413,64.5348158 C87.9468389,64.5348158 87.6185195,64.202867 87.6185195,63.7933873 C87.6185195,63.3839076 87.9468389,63.0519587 88.3518413,63.0519587 L97.673043,63.0519587 C98.2012094,63.0519587 98.6114344,63.6452985 98.2733228,64.2192623 L89.762266,76.196769 L97.8582169,76.196769 C98.2632193,76.196769 98.5915386,76.5287179 98.5915386,76.9381976 C98.5915386,77.3476773 98.2632193,77.6796261 97.8582169,77.6796261 L88.3518413,77.6796261 C87.7743458,77.6796261 87.4333023,77.0175956 87.7515616,76.5123226 Z M123.579589,77.5165319 L114.757758,65.9419017 L114.757758,77.1157227 C114.757758,77.5252023 114.460878,77.9068779 113.982214,77.8993527 C113.503549,77.8918276 113.206505,77.5252023 113.206505,77.1157227 L113.206505,63.7728446 C113.206505,63.0125997 114.152761,62.6952079 114.625062,63.3197196 L123.450402,74.9456541 L123.450402,63.7728446 C123.450402,63.3633649 123.765729,62.9937919 124.224697,62.9882031 C124.683664,62.9826144 125,63.3633649 125,63.7728446 L125,77.0256521 C125,77.8104249 124.091663,78.1180594 123.579589,77.5165319 Z M81.810732,69.5714286 C81.1864508,69.5714286 80.6803709,69.059754 80.6803709,68.4285714 C80.6803709,67.7973889 81.1864508,67.2857143 81.810732,67.2857143 C82.4350132,67.2857143 82.9410931,67.7973889 82.9410931,68.4285714 C82.9410931,69.059754 82.4350132,69.5714286 81.810732,69.5714286 Z M81.810732,75.2857143 C81.1864508,75.2857143 80.6803709,74.7740397 80.6803709,74.1428571 C80.6803709,73.5116746 81.1864508,73 81.810732,73 C82.4350132,73 82.9410931,73.5116746 82.9410931,74.1428571 C82.9410931,74.7740397 82.4350132,75.2857143 81.810732,75.2857143 Z M28.186,95.07 C28.0086658,95.07 27.8663339,95.0163339 27.759,94.909 C27.6516661,94.8016661 27.598,94.6593342 27.598,94.482 L27.598,86.11 L24.588,86.11 C24.4199992,86.11 24.2893338,86.0680004 24.196,85.984 C24.1026662,85.8999996 24.056,85.7786675 24.056,85.62 C24.056,85.4613325 24.1026662,85.3400004 24.196,85.256 C24.2893338,85.1719996 24.4199992,85.13 24.588,85.13 L31.77,85.13 C31.9380008,85.13 32.0686662,85.1719996 32.162,85.256 C32.2553338,85.3400004 32.302,85.4613325 32.302,85.62 C32.302,85.7786675 32.2553338,85.8999996 32.162,85.984 C32.0686662,86.0680004 31.9380008,86.11 31.77,86.11 L28.76,86.11 L28.76,94.482 C28.76,94.6593342 28.7086672,94.8016661 28.606,94.909 C28.5033328,95.0163339 28.3633342,95.07 28.186,95.07 Z M39.486,93.418 C39.5886672,93.418 39.677333,93.4599996 39.752,93.544 C39.8266671,93.6280004 39.864,93.7353327 39.864,93.866 C39.864,94.0993345 39.7006683,94.313999 39.374,94.51 C39.0379983,94.706001 38.6833352,94.8529995 38.31,94.951 C37.9366648,95.0490005 37.5726685,95.098 37.218,95.098 C36.1633281,95.098 35.3303364,94.7853365 34.719,94.16 C34.1076636,93.5346635 33.802,92.6713388 33.802,91.57 C33.802,90.8699965 33.937332,90.2516694 34.208,89.715 C34.478668,89.1783307 34.8589976,88.7606682 35.349,88.462 C35.8390025,88.1633318 36.3966636,88.014 37.022,88.014 C37.9086711,88.014 38.6133307,88.3033304 39.136,88.882 C39.6586693,89.4606696 39.92,90.2446617 39.92,91.234 C39.92,91.4206676 39.8826671,91.5559996 39.808,91.64 C39.733333,91.7240004 39.6120009,91.766 39.444,91.766 L34.936,91.766 C35.0200004,93.3713414 35.7806595,94.174 37.218,94.174 C37.5820018,94.174 37.8946654,94.1250005 38.156,94.027 C38.4173347,93.9289995 38.6973319,93.7960008 38.996,93.628 C39.2386679,93.4879993 39.4019996,93.418 39.486,93.418 Z M37.036,88.896 C36.4386637,88.896 35.9603352,89.0826648 35.601,89.456 C35.2416649,89.8293352 35.0293337,90.3566633 34.964,91.038 L38.926,91.038 C38.9073333,90.3473299 38.7346683,89.8176685 38.408,89.449 C38.0813317,89.0803315 37.624003,88.896 37.036,88.896 Z M45.732,95.098 C45.3026646,95.098 44.8943353,95.0466672 44.507,94.944 C44.1196648,94.8413328 43.7766682,94.6966676 43.478,94.51 C43.3099992,94.3979994 43.1910004,94.2930005 43.121,94.195 C43.0509997,94.0969995 43.016,93.9780007 43.016,93.838 C43.016,93.7166661 43.0509997,93.6163337 43.121,93.537 C43.1910004,93.4576663 43.2819995,93.418 43.394,93.418 C43.5060006,93.418 43.6693323,93.4879993 43.884,93.628 C44.1640014,93.7960008 44.4416653,93.9289995 44.717,94.027 C44.9923348,94.1250005 45.3353313,94.174 45.746,94.174 C46.2500026,94.174 46.6419986,94.0853342 46.922,93.908 C47.2020014,93.7306658 47.342,93.4740017 47.342,93.138 C47.342,92.9326656 47.2906672,92.7670006 47.188,92.641 C47.0853329,92.5149994 46.9080013,92.4030005 46.656,92.305 C46.4039988,92.2069995 46.0353358,92.1066672 45.55,92.004 C44.7286626,91.8266658 44.1406685,91.5886682 43.786,91.29 C43.4313316,90.9913318 43.254,90.5853359 43.254,90.072 C43.254,89.6706647 43.3659989,89.3160015 43.59,89.008 C43.8140012,88.6999985 44.1243314,88.4573342 44.521,88.28 C44.9176687,88.1026658 45.3679975,88.014 45.872,88.014 C46.2360019,88.014 46.5883317,88.0629995 46.929,88.161 C47.2696684,88.2590005 47.5706654,88.3966658 47.832,88.574 C48.149335,88.7980011 48.308,89.0313321 48.308,89.274 C48.308,89.3953339 48.2706671,89.4979996 48.196,89.582 C48.121333,89.6660004 48.0326672,89.708 47.93,89.708 C47.8179995,89.708 47.6500012,89.6286675 47.426,89.47 C47.1646654,89.3019992 46.9173345,89.1713338 46.684,89.078 C46.4506655,88.9846662 46.1613351,88.938 45.816,88.938 C45.3773312,88.938 45.0250014,89.035999 44.759,89.232 C44.4929987,89.428001 44.36,89.6893317 44.36,90.016 C44.36,90.2213344 44.4089996,90.3869994 44.507,90.513 C44.6050005,90.6390006 44.7683322,90.7509995 44.997,90.849 C45.2256679,90.9470005 45.5546646,91.0426662 45.984,91.136 C46.6186699,91.2760007 47.1109983,91.4299992 47.461,91.598 C47.8110018,91.7660008 48.060666,91.9713321 48.21,92.214 C48.3593341,92.4566679 48.434,92.7646648 48.434,93.138 C48.434,93.7260029 48.1866692,94.1996649 47.692,94.559 C47.1973309,94.9183351 46.5440041,95.098 45.732,95.098 Z M55.0860001,94.174 C55.4126684,94.2020001 55.5760001,94.351332 55.5760001,94.622 C55.5760001,94.7806675 55.5176673,94.8996663 55.4010001,94.979 C55.2843328,95.0583337 55.1093346,95.0886668 54.8760001,95.07 L54.4980001,95.042 C53.7513297,94.9859997 53.2006685,94.762002 52.8460001,94.37 C52.4913316,93.977998 52.3140001,93.3853373 52.3140001,92.592 L52.3140001,89.078 L51.3760001,89.078 C51.2173326,89.078 51.0936672,89.0383337 51.0050001,88.959 C50.916333,88.8796663 50.8720001,88.7746673 50.8720001,88.644 C50.8720001,88.5039993 50.916333,88.3920004 51.0050001,88.308 C51.0936672,88.2239996 51.2173326,88.182 51.3760001,88.182 L52.3140001,88.182 L52.3140001,86.6 C52.3140001,86.4226658 52.3653329,86.2850005 52.4680001,86.187 C52.5706673,86.0889995 52.7106659,86.04 52.8880001,86.04 C53.0560009,86.04 53.1913329,86.0889995 53.2940001,86.187 C53.3966673,86.2850005 53.4480001,86.4226658 53.4480001,86.6 L53.4480001,88.182 L55.0020001,88.182 C55.1513342,88.182 55.270333,88.2239996 55.3590001,88.308 C55.4476672,88.3920004 55.4920001,88.5039993 55.4920001,88.644 C55.4920001,88.7746673 55.4476672,88.8796663 55.3590001,88.959 C55.270333,89.0383337 55.1513342,89.078 55.0020001,89.078 L53.4480001,89.078 L53.4480001,92.648 C53.4480001,93.1613359 53.552999,93.5323322 53.7630001,93.761 C53.9730011,93.9896678 54.287998,94.1179999 54.7080001,94.146 L55.0860001,94.174 Z M63.5440001,88.392 C63.6466673,88.1679989 63.809999,88.056 64.0340001,88.056 C64.1740008,88.056 64.2999995,88.1026662 64.4120001,88.196 C64.5240007,88.2893338 64.5800001,88.4059993 64.5800001,88.546 C64.5800001,88.6300004 64.5613336,88.7046663 64.5240001,88.77 L61.7940001,94.65 C61.7379998,94.7713339 61.6540007,94.8669996 61.5420001,94.937 C61.4299995,95.0070003 61.3086674,95.042 61.1780001,95.042 C61.0566662,95.042 60.9400007,95.0070003 60.8280001,94.937 C60.7159995,94.8669996 60.6273338,94.7713339 60.5620001,94.65 L57.8460001,88.77 C57.8086666,88.7046663 57.7900001,88.634667 57.7900001,88.56 C57.7900001,88.4199993 57.8529995,88.2986672 57.9790001,88.196 C58.1050007,88.0933328 58.242666,88.042 58.3920001,88.042 C58.4853339,88.042 58.576333,88.0699997 58.6650001,88.126 C58.7536672,88.1820003 58.8213332,88.2613328 58.8680001,88.364 L61.2060001,93.614 L63.5440001,88.392 Z M72.8700001,93.418 C72.9726673,93.418 73.0613331,93.4599996 73.1360001,93.544 C73.2106672,93.6280004 73.2480001,93.7353327 73.2480001,93.866 C73.2480001,94.0993345 73.0846684,94.313999 72.7580001,94.51 C72.4219984,94.706001 72.0673353,94.8529995 71.6940001,94.951 C71.3206649,95.0490005 70.9566686,95.098 70.6020001,95.098 C69.5473282,95.098 68.7143365,94.7853365 68.1030001,94.16 C67.4916637,93.5346635 67.1860001,92.6713388 67.1860001,91.57 C67.1860001,90.8699965 67.3213321,90.2516694 67.5920001,89.715 C67.8626681,89.1783307 68.2429977,88.7606682 68.7330001,88.462 C69.2230026,88.1633318 69.7806637,88.014 70.4060001,88.014 C71.2926712,88.014 71.9973308,88.3033304 72.5200001,88.882 C73.0426694,89.4606696 73.3040001,90.2446617 73.3040001,91.234 C73.3040001,91.4206676 73.2666672,91.5559996 73.1920001,91.64 C73.1173331,91.7240004 72.996001,91.766 72.8280001,91.766 L68.3200001,91.766 C68.4040005,93.3713414 69.1646596,94.174 70.6020001,94.174 C70.9660019,94.174 71.2786655,94.1250005 71.5400001,94.027 C71.8013348,93.9289995 72.081332,93.7960008 72.3800001,93.628 C72.622668,93.4879993 72.7859997,93.418 72.8700001,93.418 Z M70.4200001,88.896 C69.8226638,88.896 69.3443352,89.0826648 68.9850001,89.456 C68.625665,89.8293352 68.4133338,90.3566633 68.3480001,91.038 L72.3100001,91.038 C72.2913334,90.3473299 72.1186684,89.8176685 71.7920001,89.449 C71.4653318,89.0803315 71.0080031,88.896 70.4200001,88.896 Z M80.1940001,88.042 C80.5860021,88.0139999 80.7820001,88.1726649 80.7820001,88.518 C80.7820001,88.6673341 80.7400006,88.7863329 80.6560001,88.875 C80.5719997,88.9636671 80.4273345,89.0173332 80.2220001,89.036 L79.8020001,89.078 C79.1766637,89.1340003 78.712335,89.3556647 78.4090001,89.743 C78.1056653,90.1303353 77.9540001,90.5853307 77.9540001,91.108 L77.9540001,94.51 C77.9540001,94.6966676 77.9026673,94.8366662 77.8000001,94.93 C77.697333,95.0233338 77.562001,95.07 77.3940001,95.07 C77.2259993,95.07 77.088334,95.0210005 76.9810001,94.923 C76.8736663,94.8249995 76.8200001,94.6873342 76.8200001,94.51 L76.8200001,88.602 C76.8200001,88.4246658 76.8759996,88.2870005 76.9880001,88.189 C77.1000007,88.0909995 77.2353327,88.042 77.3940001,88.042 C77.5433342,88.042 77.669333,88.0909995 77.7720001,88.189 C77.8746673,88.2870005 77.9260001,88.4199992 77.9260001,88.588 L77.9260001,89.372 C78.1220011,88.9613313 78.399665,88.6486677 78.7590001,88.434 C79.1183353,88.2193323 79.5313311,88.0933335 79.9980001,88.056 L80.1940001,88.042 Z M85.8380002,95.098 C85.4086647,95.098 85.0003354,95.0466672 84.6130002,94.944 C84.2256649,94.8413328 83.8826683,94.6966676 83.5840002,94.51 C83.4159993,94.3979994 83.2970005,94.2930005 83.2270002,94.195 C83.1569998,94.0969995 83.1220002,93.9780007 83.1220002,93.838 C83.1220002,93.7166661 83.1569998,93.6163337 83.2270002,93.537 C83.2970005,93.4576663 83.3879996,93.418 83.5000002,93.418 C83.6120007,93.418 83.7753324,93.4879993 83.9900002,93.628 C84.2700016,93.7960008 84.5476655,93.9289995 84.8230002,94.027 C85.0983349,94.1250005 85.4413314,94.174 85.8520002,94.174 C86.3560027,94.174 86.7479988,94.0853342 87.0280002,93.908 C87.3080016,93.7306658 87.4480002,93.4740017 87.4480002,93.138 C87.4480002,92.9326656 87.3966673,92.7670006 87.2940002,92.641 C87.191333,92.5149994 87.0140014,92.4030005 86.7620002,92.305 C86.5099989,92.2069995 86.1413359,92.1066672 85.6560002,92.004 C84.8346627,91.8266658 84.2466686,91.5886682 83.8920002,91.29 C83.5373317,90.9913318 83.3600002,90.5853359 83.3600002,90.072 C83.3600002,89.6706647 83.471999,89.3160015 83.6960002,89.008 C83.9200013,88.6999985 84.2303315,88.4573342 84.6270002,88.28 C85.0236688,88.1026658 85.4739976,88.014 85.9780002,88.014 C86.342002,88.014 86.6943318,88.0629995 87.0350002,88.161 C87.3756685,88.2590005 87.6766655,88.3966658 87.9380002,88.574 C88.2553351,88.7980011 88.4140002,89.0313321 88.4140002,89.274 C88.4140002,89.3953339 88.3766672,89.4979996 88.3020002,89.582 C88.2273331,89.6660004 88.1386673,89.708 88.0360002,89.708 C87.9239996,89.708 87.7560013,89.6286675 87.5320002,89.47 C87.2706655,89.3019992 87.0233347,89.1713338 86.7900002,89.078 C86.5566657,88.9846662 86.2673352,88.938 85.9220002,88.938 C85.4833313,88.938 85.1310015,89.035999 84.8650002,89.232 C84.5989988,89.428001 84.4660002,89.6893317 84.4660002,90.016 C84.4660002,90.2213344 84.5149997,90.3869994 84.6130002,90.513 C84.7110007,90.6390006 84.8743324,90.7509995 85.1030002,90.849 C85.331668,90.9470005 85.6606647,91.0426662 86.0900002,91.136 C86.72467,91.2760007 87.2169984,91.4299992 87.5670002,91.598 C87.9170019,91.7660008 88.1666661,91.9713321 88.3160002,92.214 C88.4653342,92.4566679 88.5400002,92.7646648 88.5400002,93.138 C88.5400002,93.7260029 88.2926693,94.1996649 87.7980002,94.559 C87.303331,94.9183351 86.6500042,95.098 85.8380002,95.098 Z M92.6860002,95.07 C92.5179994,95.07 92.3803341,95.0210005 92.2730002,94.923 C92.1656663,94.8249995 92.1120002,94.6873342 92.1120002,94.51 L92.1120002,88.602 C92.1120002,88.4246658 92.1656663,88.2870005 92.2730002,88.189 C92.3803341,88.0909995 92.5179994,88.042 92.6860002,88.042 C92.854001,88.042 92.989333,88.0909995 93.0920002,88.189 C93.1946674,88.2870005 93.2460002,88.4246658 93.2460002,88.602 L93.2460002,94.51 C93.2460002,94.6966676 93.1946674,94.8366662 93.0920002,94.93 C92.989333,95.0233338 92.854001,95.07 92.6860002,95.07 Z M92.6860002,86.572 C92.4619991,86.572 92.2800009,86.5066673 92.1400002,86.376 C91.9999995,86.2453327 91.9300002,86.0726677 91.9300002,85.858 C91.9300002,85.6526656 91.9999995,85.4846673 92.1400002,85.354 C92.2800009,85.2233327 92.4619991,85.158 92.6860002,85.158 C92.9100013,85.158 93.0919995,85.2233327 93.2320002,85.354 C93.3720009,85.4846673 93.4420002,85.6526656 93.4420002,85.858 C93.4420002,86.0726677 93.3720009,86.2453327 93.2320002,86.376 C93.0919995,86.5066673 92.9100013,86.572 92.6860002,86.572 Z M100.038,95.098 C99.393997,95.098 98.8270027,94.9533348 98.3370002,94.664 C97.8469978,94.3746652 97.4690015,93.9616694 97.2030002,93.425 C96.9369989,92.8883307 96.8040002,92.2653369 96.8040002,91.556 C96.8040002,90.8466631 96.9369989,90.2236694 97.2030002,89.687 C97.4690015,89.1503307 97.8469978,88.7373348 98.3370002,88.448 C98.8270027,88.1586652 99.393997,88.014 100.038,88.014 C100.682003,88.014 101.251331,88.1586652 101.746,88.448 C102.240669,88.7373348 102.620999,89.1503307 102.887,89.687 C103.153002,90.2236694 103.286,90.8466631 103.286,91.556 C103.286,92.2653369 103.153002,92.8883307 102.887,93.425 C102.620999,93.9616694 102.240669,94.3746652 101.746,94.664 C101.251331,94.9533348 100.682003,95.098 100.038,95.098 Z M100.038,94.16 C100.710004,94.16 101.225665,93.9383356 101.585,93.495 C101.944335,93.0516645 102.124,92.4053376 102.124,91.556 C102.124,90.7253292 101.942002,90.0836689 101.578,89.631 C101.213998,89.1783311 100.70067,88.952 100.038,88.952 C99.3753302,88.952 98.862002,89.1783311 98.4980002,89.631 C98.1339984,90.0836689 97.9520002,90.7253292 97.9520002,91.556 C97.9520002,92.3960042 98.1316651,93.0399978 98.4910002,93.488 C98.8503353,93.9360022 99.3659969,94.16 100.038,94.16 Z M110.26,88.014 C111.893342,88.014 112.71,88.9146577 112.71,90.716 L112.71,94.51 C112.71,94.6873342 112.661001,94.8249995 112.563,94.923 C112.465,95.0210005 112.327334,95.07 112.15,95.07 C111.972666,95.07 111.832667,95.0210005 111.73,94.923 C111.627333,94.8249995 111.576,94.6873342 111.576,94.51 L111.576,90.786 C111.576,90.1513302 111.452335,89.6893348 111.205,89.4 C110.957666,89.1106652 110.563336,88.966 110.022,88.966 C109.396664,88.966 108.897335,89.1573314 108.524,89.54 C108.150665,89.9226686 107.964,90.4406634 107.964,91.094 L107.964,94.51 C107.964,94.6873342 107.915001,94.8249995 107.817,94.923 C107.719,95.0210005 107.581334,95.07 107.404,95.07 C107.226666,95.07 107.086667,95.0210005 106.984,94.923 C106.881333,94.8249995 106.83,94.6873342 106.83,94.51 L106.83,88.602 C106.83,88.4339992 106.881333,88.2986672 106.984,88.196 C107.086667,88.0933328 107.226666,88.042 107.404,88.042 C107.572001,88.042 107.705,88.0933328 107.803,88.196 C107.901001,88.2986672 107.95,88.4293325 107.95,88.588 L107.95,89.302 C108.174001,88.8819979 108.486665,88.5623344 108.888,88.343 C109.289336,88.1236656 109.746664,88.014 110.26,88.014 Z" id="Combined-Shape"></path>
        </g>
    </g>
</svg>