<?xml version="1.0" encoding="UTF-8"?>
<svg width="36px" height="16px" viewBox="0 0 36 16" version="1.1" xmlns="http://www.w3.org/2000/svg" xmlns:xlink="http://www.w3.org/1999/xlink">
    <!-- Generator: Sketch 46.2 (44496) - http://www.bohemiancoding.com/sketch -->
    <title>previous_page_disable_click</title>
    <desc>Created with Sketch.</desc>
    <defs>
        <path d="M2,0 L36,0 L36,16 L2,16 L2,16 C0.8954305,16 1.3527075e-16,15.1045695 0,14 L0,2 L0,2 C-1.3527075e-16,0.8954305 0.8954305,2.02906125e-16 2,0 Z" id="path-1"></path>
    </defs>
    <g id="dialog" stroke="none" stroke-width="1" fill="none" fill-rule="evenodd">
        <g id="previous_page_disable_click">
            <g id="Rectangle-2" transform="translate(18.000000, 8.000000) scale(-1, 1) translate(-18.000000, -8.000000) ">
                <use fill="#EEEEF0" fill-rule="evenodd" xlink:href="#path-1"></use>
                <path stroke="#989CA2" stroke-width="0.5" d="M35.75,15.75 L35.75,0.25 L2,0.25 C1.03350169,0.25 0.25,1.03350169 0.25,2 L0.25,14 C0.25,14.9664983 1.03350169,15.75 2,15.75 L35.75,15.75 Z"></path>
            </g>
            <g id="Group-10-Copy" transform="translate(18.378680, 8.500000) rotate(-315.000000) translate(-18.378680, -8.500000) translate(15.378680, 5.500000)" fill="#434B54">
                <path d="M0.5,-2.54019028e-13 L6,-2.54019028e-13 L6,1 L1,1 L1,6 L-7.531753e-13,6 L-7.531753e-13,-2.54019028e-13 L0.5,-2.54019028e-13 Z" id="Combined-Shape-Copy-6" transform="translate(3.000000, 3.000000) scale(1, -1) translate(-3.000000, -3.000000) "></path>
            </g>
        </g>
    </g>
</svg>