<?xml version="1.0" encoding="UTF-8"?>
<svg width="514px" height="454px" viewBox="0 0 514 454" version="1.1" xmlns="http://www.w3.org/2000/svg" xmlns:xlink="http://www.w3.org/1999/xlink">
    <!-- Generator: Sketch 48.2 (47327) - http://www.bohemiancoding.com/sketch -->
    <title>PDF平铺_Japanese</title>
    <desc>Created with Sketch.</desc>
    <defs></defs>
    <g id="打印水印-日文" stroke="none" stroke-width="1" fill="none" fill-rule="evenodd" transform="translate(-55.000000, -45.000000)" opacity="0.2">
        <g id="PDF平铺_Japanese" transform="translate(56.000000, 46.000000)">
            <polyline id="a" stroke="#989CA2" stroke-width="2" stroke-dasharray="21.60000038146973,21.60000038146973" points="335.58233 433.283008 0 433.283008 0 0 433.290009 0 433.290009 343.314384"></polyline>
            <g id="Group-15" transform="translate(352.183844, 356.789809)" fill="#989CA2">
                <g id="Group-6" transform="translate(-0.000000, 0.000000)">
                    <path d="M78.0517059,24.7781094 L69.9315535,32.0895275 C69.4322039,32.5391439 69.3918872,33.3084328 69.8415036,33.8077824 C70.29112,34.307132 71.0604089,34.3474487 71.5597585,33.8978323 L79.9119574,26.3774786 C79.9173256,26.372645 79.9226408,26.3677745 79.9279029,26.3628677 C80.2656526,26.2057441 80.6208617,26.1059192 80.9874299,26.1059192 C81.3542473,26.1059192 81.7096902,26.2058799 82.0476458,26.3631884 C82.0527955,26.3679867 82.0579961,26.3727503 82.0632474,26.3774786 L90.4154463,33.8978323 C90.9147959,34.3474487 91.6840848,34.307132 92.1337012,33.8077824 C92.5833176,33.3084328 92.5430009,32.5391439 92.0436513,32.0895275 L83.9210998,24.7759493 C83.1825994,23.9998657 82.1412886,23.5163733 80.9874299,23.5163733 C79.832501,23.5163733 78.7903288,24.000763 78.0517059,24.7781094 Z M79.9279029,18.1811946 C79.9226408,18.1762879 79.9173256,18.1714174 79.9119574,18.1665838 L71.5597585,10.6462301 C71.0604089,10.1966137 70.29112,10.2369304 69.8415036,10.73628 C69.3918872,11.2356296 69.4322039,12.0049185 69.9315535,12.4545349 L78.0517059,19.765953 C78.7903288,20.5432994 79.832501,21.0276891 80.9874299,21.0276891 C82.1412886,21.0276891 83.1825994,20.5441966 83.9210998,19.7681131 L92.0436513,12.4545349 C92.5430009,12.0049185 92.5833176,11.2356296 92.1337012,10.73628 C91.6840848,10.2369304 90.9147959,10.1966137 90.4154463,10.6462301 L82.0632474,18.1665838 C82.0579961,18.1713121 82.0527955,18.1760757 82.0476458,18.180874 C81.7096902,18.3381824 81.3542473,18.4381432 80.9874299,18.4381432 C80.6208617,18.4381432 80.2656526,18.3383182 79.9279029,18.1811946 Z M80.8252089,44.8216561 C68.4614917,44.8216561 58.4387187,34.7879866 58.4387187,22.410828 C58.4387187,10.0336695 68.4614917,0 80.8252089,0 C93.1889261,0 103.211699,10.0336695 103.211699,22.410828 C103.211699,34.7879866 93.1889261,44.8216561 80.8252089,44.8216561 Z" id="Combined-Shape"></path>
                    <path d="M18.0565903,59.0261604 C18.419227,58.5852139 18.3477747,57.9401925 17.8969972,57.5854647 C17.4462197,57.2307369 16.7868173,57.3006308 16.4241807,57.7415772 L9.55205656,66.0977065 L2.6799324,57.7415772 C2.31729578,57.3006308 1.65789337,57.2307369 1.2071159,57.5854647 C0.75633843,57.9401925 0.684886157,58.5852139 1.04752278,59.0261604 L8.20762782,67.7324587 L1.04752278,76.438757 C0.684886157,76.8797034 0.75633843,77.5247249 1.2071159,77.8794527 C1.65789337,78.2341805 2.31729578,78.1642865 2.6799324,77.7233401 L9.55205656,69.3672109 L16.4241807,77.7233401 C16.7868173,78.1642865 17.4462197,78.2341805 17.8969972,77.8794527 C18.3477747,77.5247249 18.419227,76.8797034 18.0565903,76.438757 L10.8964853,67.7324587 L18.0565903,59.0261604 Z M59.5261947,68.7247671 C59.5471922,66.3900062 61.9954439,64.3374042 64.2876552,64.1172857 C66.5098541,63.9038904 67.5572909,64.8196948 68.2801053,66.4077657 C68.7121786,67.3570595 68.7087296,68.3212848 68.7087296,69.3604225 L68.7087296,77.0810485 C68.7087296,77.6469687 69.1777269,78.1057376 69.7562643,78.1057376 C70.3348018,78.1057376 70.8037992,77.6469687 70.8037992,77.0810485 L70.8037992,69.255969 C70.8037992,67.3088303 70.6436553,66.489166 70.2044294,65.391945 C69.3768715,63.3246392 67.0487184,61.6254823 64.0025547,62.0242881 C62.1755236,62.2634843 60.5746368,63.1622397 59.5059062,64.4923747 L59.5059062,63.2931842 C59.5059062,62.727264 59.0369089,62.2684951 58.4583713,62.2684951 C57.8798339,62.2684951 57.4108366,62.727264 57.4108366,63.2931842 L57.4108366,77.0810485 C57.4108366,77.6469687 57.8798339,78.1057376 58.4583713,78.1057376 C59.0369089,78.1057376 59.5059062,77.6469687 59.5059062,77.0810485 L59.5059062,68.9528266 C59.5186486,68.8739532 59.5255438,68.7971597 59.5261947,68.7247671 Z M87.737023,57.2348801 C87.737023,56.66896 88.2060204,56.2101911 88.7845577,56.2101911 C89.3630953,56.2101911 89.8320926,56.66896 89.8320926,57.2348801 L89.8320926,77.0810485 C89.8320926,77.6469687 89.3630953,78.1057376 88.7845577,78.1057376 C88.2060204,78.1057376 87.737023,77.6469687 87.737023,77.0810485 L87.737023,75.6110162 C86.369536,77.206622 84.4092279,78.2101911 82.2174436,78.2101911 C78.0438464,78.2101911 74.7095766,74.5712693 74.7095766,70.1348896 C74.7095766,65.6985099 78.0438464,62.0595881 82.2174436,62.0595881 C84.4092279,62.0595881 86.369536,63.0631572 87.737023,64.658763 L87.737023,57.2348801 Z M49.4555517,58.1749618 C49.4555517,57.5225095 49.9962612,56.9935924 50.66326,56.9935924 C51.3302591,56.9935924 51.8709685,57.5225095 51.8709685,58.1749618 L51.8709685,58.5927758 C51.8709685,59.2452281 51.3302591,59.7741452 50.66326,59.7741452 C49.9962612,59.7741452 49.4555517,59.2452281 49.4555517,58.5927758 L49.4555517,58.1749618 Z M49.6157251,62.8753701 C49.6157251,62.30945 50.0847224,61.8506811 50.66326,61.8506811 C51.2417976,61.8506811 51.7107949,62.30945 51.7107949,62.8753701 L51.7107949,77.0810485 C51.7107949,77.6469687 51.2417976,78.1057376 50.66326,78.1057376 C50.0847224,78.1057376 49.6157251,77.6469687 49.6157251,77.0810485 L49.6157251,62.8753701 Z M82.2174436,76.1608131 C85.179732,76.1608131 87.6302407,73.4864014 87.6302407,70.1348896 C87.6302407,66.7833778 85.179732,64.1089661 82.2174436,64.1089661 C79.2551551,64.1089661 76.8046462,66.7833778 76.8046462,70.1348896 C76.8046462,73.4864014 79.2551551,76.1608131 82.2174436,76.1608131 Z M32.1029364,72.1872615 C32.0549684,72.1111618 29.8825843,68.5582139 25.5629913,61.5923327 L24.4730014,77.149478 C24.4328254,77.714032 23.9399661,78.1425637 23.3628254,78.1032638 C22.7856846,78.063964 22.3436746,77.5765294 22.3838507,77.0119756 L23.7160632,58.3127102 C23.7869312,57.3168736 25.2129086,56.9979195 25.7446553,57.8499408 C29.6810659,64.1572774 32.1869624,68.232504 33.3140376,70.037997 C34.4403591,68.2316221 36.9473412,64.1576894 40.88342,57.8503709 C41.4149228,56.9986711 42.8511968,57.3156347 42.912012,58.3119792 L44.2442246,77.0119756 C44.278706,77.5768897 43.8427588,78.0701866 43.2652499,78.103916 C42.6877407,78.1376453 42.1895551,77.714392 42.1550738,77.149478 L41.065084,61.5923327 C36.745491,68.5659638 34.5756837,72.1092511 34.5251388,72.1876904 C34.2832207,72.5631167 33.8038792,72.7905711 33.3140376,72.7906493 C32.824196,72.7907275 32.3381462,72.560414 32.1029364,72.1872615 Z M128.991031,75.7537674 L139.083541,75.7537674 C139.662116,75.7537674 140.131143,76.210197 140.131143,76.7732316 C140.131143,77.3362662 139.662116,77.7926959 139.083541,77.7926959 L127.679004,77.7926959 C127.10043,77.7926959 126.631402,77.3362662 126.631402,76.7732316 L126.631402,58.6411865 C126.631402,58.0781519 127.10043,57.6217222 127.679004,57.6217222 L139.083541,57.6217222 C139.662116,57.6217222 140.131143,58.0781519 140.131143,58.6411865 C140.131143,59.2042211 139.662116,59.6606508 139.083541,59.6606508 L128.991031,59.6606508 L128.991031,66.5206654 L138.518597,66.5206654 C139.097172,66.5206654 139.566199,66.9770951 139.566199,67.5401297 C139.566199,68.1031643 139.097172,68.559594 138.518597,68.559594 L128.991031,68.559594 L128.991031,75.7537674 Z M107.604101,76.1646346 L119.762753,59.6955629 L108.461644,59.6955629 C107.883069,59.6955629 107.414041,59.2391332 107.414041,58.6760986 C107.414041,58.113064 107.883069,57.6566343 108.461644,57.6566343 L121.777646,57.6566343 C122.532169,57.6566343 123.118205,58.4724766 122.635189,59.2616767 L110.476536,75.7307484 L122.04218,75.7307484 C122.620755,75.7307484 123.089783,76.1871781 123.089783,76.7502127 C123.089783,77.3132474 122.620755,77.769677 122.04218,77.769677 L108.461644,77.769677 C107.63665,77.769677 107.149445,76.859385 107.604101,76.1646346 Z M158.786998,77.5454224 L146.184382,61.630306 L146.184382,76.9943098 C146.184382,77.5573442 145.760268,78.0821481 145.076461,78.0718011 C144.392654,78.061454 143.968305,77.5573442 143.968305,76.9943098 L143.968305,58.6478524 C143.968305,57.6025157 145.320101,57.1661019 145.994815,58.0248055 L158.602445,74.0104654 L158.602445,58.6478524 C158.602445,58.0848178 159.052912,57.5766549 159.70858,57.5689704 C160.364248,57.5612859 160.816156,58.0848178 160.816156,58.6478524 L160.816156,76.8704628 C160.816156,77.9495253 159.518532,78.3725228 158.786998,77.5454224 Z M99.1172017,66.6209054 C98.2253714,66.6209054 97.5024001,65.9173528 97.5024001,65.0494768 C97.5024001,64.1816008 98.2253714,63.4780482 99.1172017,63.4780482 C100.009032,63.4780482 100.732003,64.1816008 100.732003,65.0494768 C100.732003,65.9173528 100.009032,66.6209054 99.1172017,66.6209054 Z M99.1172017,74.4780482 C98.2253714,74.4780482 97.5024001,73.7744957 97.5024001,72.9066197 C97.5024001,72.0387436 98.2253714,71.3351911 99.1172017,71.3351911 C100.009032,71.3351911 100.732003,72.0387436 100.732003,72.9066197 C100.732003,73.7744957 100.009032,74.4780482 99.1172017,74.4780482 Z" id="Combined-Shape" fill-rule="nonzero"></path>
                    <path d="M24.7639994,85.222 C24.4139994,85.614 24.0219994,85.992 23.6019994,86.328 L22.7899994,85.264 C23.8259994,84.494 24.5259994,83.57 24.9039994,82.478 L26.1919994,82.646 C26.0659994,83.038 25.9259994,83.402 25.7579994,83.738 L34.8019994,83.738 L34.8019994,84.998 L33.8219994,84.998 L33.8219994,87.154 L35.0959994,87.154 L35.0959994,88.386 L33.8219994,88.386 L33.8219994,90.416 L35.2919994,90.416 L35.2919994,91.662 L23.0279994,91.662 L23.0279994,90.416 L24.7639994,90.416 L24.7639994,88.386 L23.2379994,88.386 L23.2379994,87.154 L24.7639994,87.154 L24.7639994,85.222 Z M26.0379994,90.416 L27.3399994,90.416 L27.3399994,88.386 L26.0379994,88.386 L26.0379994,90.416 Z M28.6279994,90.416 L29.9579994,90.416 L29.9579994,88.386 L28.6279994,88.386 L28.6279994,90.416 Z M31.2319994,90.416 L32.5339994,90.416 L32.5339994,88.386 L31.2319994,88.386 L31.2319994,90.416 Z M32.5339994,87.154 L32.5339994,84.998 L31.2319994,84.998 L31.2319994,87.154 L32.5339994,87.154 Z M29.9579994,87.154 L29.9579994,84.998 L28.6279994,84.998 L28.6279994,87.154 L29.9579994,87.154 Z M27.3399994,87.154 L27.3399994,84.998 L26.0379994,84.998 L26.0379994,87.154 L27.3399994,87.154 Z M24.7219994,92.04 L25.8279994,92.572 C25.3519994,93.72 24.7919994,94.7 24.1479994,95.526 L23.0699994,94.728 C23.7139994,93.972 24.2599994,93.076 24.7219994,92.04 Z M28.0119994,92.362 C28.2919994,93.216 28.5579994,94.14 28.7819994,95.12 L27.4379994,95.428 C27.2699994,94.378 27.0459994,93.44 26.7939994,92.628 L28.0119994,92.362 Z M31.0779994,92.278 C31.4419994,93.132 31.7779994,94.056 32.0579994,95.05 L30.7139994,95.358 C30.4899994,94.294 30.1959994,93.356 29.8459994,92.544 L31.0779994,92.278 Z M33.6259994,91.97 C34.4379994,93.006 35.0539994,93.916 35.4879994,94.686 L34.3819994,95.456 C33.9479994,94.602 33.3599994,93.664 32.6039994,92.628 L33.6259994,91.97 Z M44.8019996,83.682 C45.0819996,84.522 45.3199996,85.488 45.5439996,86.58 L44.5219996,86.86 C44.2979996,85.88 44.0319996,84.928 43.6959996,84.032 L44.8019996,83.682 Z M48.3439996,83.528 L49.4499996,83.668 C49.3659996,84.83 49.1419996,85.866 48.8059996,86.762 L47.8259996,86.44 C48.0919996,85.6 48.2599996,84.62 48.3439996,83.528 Z M43.6539996,87.336 L46.0479996,87.336 L46.0479996,82.576 L47.3779996,82.576 L47.3779996,87.336 L49.3519996,87.336 L49.3519996,88.624 L47.3779996,88.624 L47.3779996,88.904 C48.0499996,89.478 48.7219996,90.122 49.4079996,90.836 L48.6099996,92.012 C48.1339996,91.242 47.7139996,90.612 47.3779996,90.122 L47.3779996,95.4 L46.0479996,95.4 L46.0479996,90.206 C45.4599996,91.396 44.7739996,92.446 43.9759996,93.356 L43.4299996,91.97 C44.5779996,90.906 45.4039996,89.8 45.9359996,88.624 L43.6539996,88.624 L43.6539996,87.336 Z M53.5799996,82.59 L54.8819996,82.59 L54.8819996,90.388 L56.2399996,90.178 L56.4639996,91.494 L54.8819996,91.732 L54.8819996,95.4 L53.5799996,95.4 L53.5799996,91.928 L49.7019996,92.516 L49.5199996,91.2 L53.5799996,90.584 L53.5799996,82.59 Z M51.0179996,83.514 C51.9139996,84.2 52.6559996,84.872 53.2719996,85.53 L52.3759996,86.44 C51.8439996,85.796 51.0879996,85.11 50.1359996,84.368 L51.0179996,83.514 Z M50.6819996,86.804 C51.5499996,87.49 52.2919996,88.176 52.8939996,88.862 L51.9979996,89.772 C51.4659996,89.114 50.7379996,88.4 49.7859996,87.644 L50.6819996,86.804 Z M74.4299998,83.822 C75.4659998,84.774 76.4319998,85.852 77.3139998,87.084 L76.2499998,87.91 C75.3119998,86.608 74.3739998,85.544 73.4219998,84.732 L74.4299998,83.822 Z M73.2259998,84.816 L73.2819998,86.118 C71.9939998,86.202 70.8599998,86.258 69.8799998,86.314 L69.8799998,87.924 C70.5519998,87.812 71.2519998,87.756 72.0079998,87.756 C73.2679998,87.756 74.2899998,88.05 75.0739998,88.652 C75.8999998,89.268 76.3199998,90.136 76.3199998,91.228 C76.3199998,93.608 74.6679998,94.812 71.3919998,94.812 L71.1119998,93.51 C72.4419998,93.51 73.4079998,93.314 74.0099998,92.936 C74.5979998,92.572 74.9059998,91.998 74.9059998,91.228 C74.9059998,90.556 74.6399998,90.024 74.1079998,89.618 C73.5759998,89.226 72.8759998,89.03 72.0079998,89.03 C71.2519998,89.03 70.5519998,89.1 69.8939998,89.254 L69.8939998,92.88 C69.8939998,94.126 69.2639998,94.756 68.0179998,94.756 C67.0799998,94.756 66.3099998,94.518 65.7079998,94.07 C65.0919998,93.608 64.7979998,92.978 64.7979998,92.194 C64.7979998,90.822 65.5539998,89.716 67.0659998,88.89 C67.5139998,88.638 67.9899998,88.442 68.4939998,88.274 C68.4939998,87.602 68.4799998,86.958 68.4799998,86.356 C67.9759998,86.37 67.5279998,86.384 67.1359998,86.384 C66.4639998,86.384 65.8199998,86.37 65.2319998,86.342 L65.2179998,85.04 C65.9179998,85.068 66.5479998,85.082 67.1079998,85.082 C67.5559998,85.082 68.0179998,85.068 68.4799998,85.068 C68.4799998,84.2 68.4659998,83.416 68.4659998,82.73 L69.8659998,82.73 C69.8659998,83.402 69.8799998,84.172 69.8799998,85.026 C70.9719998,84.97 72.0779998,84.9 73.2259998,84.816 Z M68.4939998,89.688 C68.3539998,89.73 68.2279998,89.786 68.1019998,89.856 C66.8279998,90.472 66.1979998,91.242 66.1979998,92.194 C66.1979998,92.558 66.3519998,92.866 66.6599998,93.104 C66.9679998,93.328 67.3599998,93.454 67.8499998,93.454 C68.2699998,93.454 68.4939998,93.188 68.4939998,92.67 L68.4939998,89.688 Z M87.622,82.478 C87.846,83.108 88.014,83.682 88.14,84.2 L89.722,84.2 L89.722,85.432 L85.242,85.432 L85.242,84.2 L86.88,84.2 C86.712,83.724 86.53,83.262 86.334,82.828 L87.622,82.478 Z M85.634,86.286 L89.246,86.286 L89.246,87.448 L85.634,87.448 L85.634,86.286 Z M85.634,88.218 L89.246,88.218 L89.246,89.394 L85.634,89.394 L85.634,88.218 Z M89.386,90.332 L89.386,95.232 L88.168,95.232 L88.168,94.616 L86.698,94.616 L86.698,95.428 L85.48,95.428 L85.48,90.332 L89.386,90.332 Z M86.698,93.412 L88.168,93.412 L88.168,91.508 L86.698,91.508 L86.698,93.412 Z M90.086,84.998 L93.936,84.998 C93.908,84.214 93.908,83.416 93.908,82.576 L95.126,82.576 C95.126,83.43 95.126,84.242 95.154,84.998 L97.604,84.998 L97.604,86.258 L95.182,86.258 C95.266,88.442 95.42,90.206 95.658,91.578 C95.924,93.048 96.162,93.79 96.386,93.804 C96.54,93.776 96.736,92.964 96.988,91.368 L98.01,91.942 C97.618,94.154 97.072,95.274 96.386,95.288 C95.434,95.232 94.762,93.706 94.342,90.738 C94.16,89.436 94.034,87.938 93.978,86.258 L90.086,86.258 L90.086,84.998 Z M90.002,88.064 L93.544,88.064 L93.544,89.254 L92.424,89.254 L92.424,92.306 C92.914,92.208 93.404,92.11 93.88,91.998 L93.88,93.188 C92.662,93.468 91.36,93.692 89.988,93.888 L89.68,92.698 C90.184,92.642 90.674,92.586 91.178,92.516 L91.178,89.254 L90.002,89.254 L90.002,88.064 Z M96.414,82.59 C96.918,83.178 97.31,83.696 97.59,84.144 L96.68,84.774 C96.386,84.284 95.994,83.738 95.504,83.15 L96.414,82.59 Z M108.374,83.248 L109.83,83.248 L109.83,90.92 C109.83,92.502 110.684,93.3 112.392,93.3 C114.352,93.3 115.892,91.83 116.998,88.918 L118.356,89.422 C117.782,90.962 117.11,92.138 116.326,92.978 C115.262,94.112 113.946,94.686 112.392,94.686 C109.704,94.686 108.374,93.496 108.374,91.116 L108.374,83.248 Z M129.952,82.674 L131.254,82.674 L131.254,86.272 L131.926,86.272 L131.926,87.574 L128.776,87.574 L128.776,88.106 C128.776,88.498 128.762,88.876 128.748,89.24 L131.436,89.24 L131.436,95.386 L130.134,95.386 L130.134,90.514 L128.678,90.514 C128.51,92.558 128.132,94.126 127.572,95.218 L126.564,94.35 C127.152,93.034 127.46,90.962 127.474,88.106 L127.474,82.954 L128.776,82.954 L128.776,86.272 L129.952,86.272 L129.952,82.674 Z M133.844,87.756 L133.844,88.932 C133.788,91.62 133.312,93.776 132.416,95.372 L131.506,94.406 C132.206,93.09 132.57,91.256 132.626,88.932 L132.626,83.5 C134.852,83.458 136.84,83.164 138.604,82.604 L139.248,83.794 C137.624,84.27 135.832,84.55 133.844,84.634 L133.844,86.496 L138.954,86.496 L138.954,87.63 C138.646,89.478 138.086,91.06 137.246,92.348 C137.89,93.188 138.66,93.846 139.57,94.308 L138.912,95.47 C137.918,94.966 137.092,94.28 136.42,93.44 C135.692,94.252 134.824,94.938 133.816,95.484 L133.186,94.308 C134.166,93.762 134.978,93.09 135.65,92.306 C134.936,91.06 134.446,89.548 134.166,87.756 L133.844,87.756 Z M135.356,87.756 C135.608,89.044 135.972,90.178 136.476,91.13 C137.05,90.136 137.456,89.016 137.68,87.756 L135.356,87.756 Z" id="無料お試し版"></path>
                </g>
            </g>
        </g>
    </g>
</svg>