<?xml version="1.0" encoding="UTF-8"?>
<svg width="516px" height="450px" viewBox="0 0 516 450" version="1.1" xmlns="http://www.w3.org/2000/svg" xmlns:xlink="http://www.w3.org/1999/xlink">
    <!-- Generator: Sketch 48.2 (47327) - http://www.bohemiancoding.com/sketch -->
    <title>PDF平铺_German</title>
    <desc>Created with Sketch.</desc>
    <defs></defs>
    <g id="打印水印-德语" stroke="none" stroke-width="1" fill="none" fill-rule="evenodd" transform="translate(-55.000000, -45.000000)" opacity="0.2">
        <g id="PDF平铺_German" transform="translate(56.000000, 46.000000)">
            <polyline id="a" stroke="#989CA2" stroke-width="2" stroke-dasharray="21.60000038146973,21.60000038146973" points="335.58233 433.283008 0 433.283008 0 0 433.290009 0 433.290009 343.314384"></polyline>
            <g id="Group-15" transform="translate(352.183844, 356.789809)" fill="#989CA2">
                <g id="Group-6" transform="translate(-0.000000, 0.000000)">
                    <path d="M78.0517059,24.7781094 L69.9315535,32.0895275 C69.4322039,32.5391439 69.3918872,33.3084328 69.8415036,33.8077824 C70.29112,34.307132 71.0604089,34.3474487 71.5597585,33.8978323 L79.9119574,26.3774786 C79.9173256,26.372645 79.9226408,26.3677745 79.9279029,26.3628677 C80.2656526,26.2057441 80.6208617,26.1059192 80.9874299,26.1059192 C81.3542473,26.1059192 81.7096902,26.2058799 82.0476458,26.3631884 C82.0527955,26.3679867 82.0579961,26.3727503 82.0632474,26.3774786 L90.4154463,33.8978323 C90.9147959,34.3474487 91.6840848,34.307132 92.1337012,33.8077824 C92.5833176,33.3084328 92.5430009,32.5391439 92.0436513,32.0895275 L83.9210998,24.7759493 C83.1825994,23.9998657 82.1412886,23.5163733 80.9874299,23.5163733 C79.832501,23.5163733 78.7903288,24.000763 78.0517059,24.7781094 Z M79.9279029,18.1811946 C79.9226408,18.1762879 79.9173256,18.1714174 79.9119574,18.1665838 L71.5597585,10.6462301 C71.0604089,10.1966137 70.29112,10.2369304 69.8415036,10.73628 C69.3918872,11.2356296 69.4322039,12.0049185 69.9315535,12.4545349 L78.0517059,19.765953 C78.7903288,20.5432994 79.832501,21.0276891 80.9874299,21.0276891 C82.1412886,21.0276891 83.1825994,20.5441966 83.9210998,19.7681131 L92.0436513,12.4545349 C92.5430009,12.0049185 92.5833176,11.2356296 92.1337012,10.73628 C91.6840848,10.2369304 90.9147959,10.1966137 90.4154463,10.6462301 L82.0632474,18.1665838 C82.0579961,18.1713121 82.0527955,18.1760757 82.0476458,18.180874 C81.7096902,18.3381824 81.3542473,18.4381432 80.9874299,18.4381432 C80.6208617,18.4381432 80.2656526,18.3383182 79.9279029,18.1811946 Z M80.8252089,44.8216561 C68.4614917,44.8216561 58.4387187,34.7879866 58.4387187,22.410828 C58.4387187,10.0336695 68.4614917,0 80.8252089,0 C93.1889261,0 103.211699,10.0336695 103.211699,22.410828 C103.211699,34.7879866 93.1889261,44.8216561 80.8252089,44.8216561 Z" id="Combined-Shape"></path>
                    <path d="M18.2404343,58.8159693 C18.603071,58.3750229 18.5316187,57.7300014 18.0808412,57.3752736 C17.6300637,57.0205458 16.9706613,57.0904397 16.6080247,57.5313861 L9.73590057,65.8875154 L2.86377641,57.5313861 C2.50113979,57.0904397 1.84173738,57.0205458 1.39095991,57.3752736 C0.940182442,57.7300014 0.868730168,58.3750229 1.23136679,58.8159693 L8.39147183,67.5222676 L1.23136679,76.2285659 C0.868730168,76.6695123 0.940182442,77.3145338 1.39095991,77.6692616 C1.84173738,78.0239894 2.50113979,77.9540954 2.86377641,77.513149 L9.73590057,69.1570198 L16.6080247,77.513149 C16.9706613,77.9540954 17.6300637,78.0239894 18.0808412,77.6692616 C18.5316187,77.3145338 18.603071,76.6695123 18.2404343,76.2285659 L11.0803293,67.5222676 L18.2404343,58.8159693 Z M59.7100387,68.514576 C59.7310362,66.1798151 62.1792879,64.1272131 64.4714992,63.9070946 C66.6936981,63.6936993 67.7411349,64.6095037 68.4639493,66.1975746 C68.8960226,67.1468684 68.8925736,68.1110937 68.8925736,69.1502314 L68.8925736,76.8708575 C68.8925736,77.4367776 69.3615709,77.8955466 69.9401083,77.8955466 C70.5186459,77.8955466 70.9876432,77.4367776 70.9876432,76.8708575 L70.9876432,69.0457779 C70.9876432,67.0986392 70.8274993,66.2789749 70.3882734,65.1817539 C69.5607155,63.1144481 67.2325624,61.4152912 64.1863987,61.814097 C62.3593676,62.0532932 60.7584808,62.9520486 59.6897502,64.2821836 L59.6897502,63.0829931 C59.6897502,62.5170729 59.2207529,62.0583041 58.6422153,62.0583041 C58.0636779,62.0583041 57.5946806,62.5170729 57.5946806,63.0829931 L57.5946806,76.8708575 C57.5946806,77.4367776 58.0636779,77.8955466 58.6422153,77.8955466 C59.2207529,77.8955466 59.6897502,77.4367776 59.6897502,76.8708575 L59.6897502,68.7426355 C59.7024926,68.6637621 59.7093878,68.5869686 59.7100387,68.514576 Z M87.9208671,57.024689 C87.9208671,56.4587689 88.3898644,56 88.9684018,56 C89.5469393,56 90.0159367,56.4587689 90.0159367,57.024689 L90.0159367,76.8708575 C90.0159367,77.4367776 89.5469393,77.8955466 88.9684018,77.8955466 C88.3898644,77.8955466 87.9208671,77.4367776 87.9208671,76.8708575 L87.9208671,75.4008251 C86.55338,76.9964309 84.5930719,78 82.4012876,78 C78.2276904,78 74.8934207,74.3610782 74.8934207,69.9246985 C74.8934207,65.4883188 78.2276904,61.849397 82.4012876,61.849397 C84.5930719,61.849397 86.55338,62.8529661 87.9208671,64.4485719 L87.9208671,57.024689 Z M49.6393958,57.9647707 C49.6393958,57.3123184 50.1801052,56.7834013 50.847104,56.7834013 C51.5141031,56.7834013 52.0548125,57.3123184 52.0548125,57.9647707 L52.0548125,58.3825848 C52.0548125,59.035037 51.5141031,59.5639541 50.847104,59.5639541 C50.1801052,59.5639541 49.6393958,59.035037 49.6393958,58.3825848 L49.6393958,57.9647707 Z M49.7995691,62.665179 C49.7995691,62.0992589 50.2685665,61.64049 50.847104,61.64049 C51.4256416,61.64049 51.8946389,62.0992589 51.8946389,62.665179 L51.8946389,76.8708575 C51.8946389,77.4367776 51.4256416,77.8955466 50.847104,77.8955466 C50.2685665,77.8955466 49.7995691,77.4367776 49.7995691,76.8708575 L49.7995691,62.665179 Z M82.4012876,75.950622 C85.3635761,75.950622 87.8140847,73.2762103 87.8140847,69.9246985 C87.8140847,66.5731867 85.3635761,63.898775 82.4012876,63.898775 C79.4389991,63.898775 76.9884903,66.5731867 76.9884903,69.9246985 C76.9884903,73.2762103 79.4389991,75.950622 82.4012876,75.950622 Z M32.2867805,71.9770704 C32.2388124,71.9009707 30.0664283,68.3480228 25.7468353,61.3821417 L24.6568455,76.9392869 C24.6166694,77.5038409 24.1238102,77.9323726 23.5466694,77.8930727 C22.9695286,77.8537729 22.5275186,77.3663383 22.5676947,76.8017845 L23.8999072,58.1025191 C23.9707752,57.1066825 25.3967526,56.7877284 25.9284993,57.6397497 C29.8649099,63.9470863 32.3708065,68.0223129 33.4978816,69.8278059 C34.6242031,68.021431 37.1311852,63.9474983 41.067264,57.6401798 C41.5987669,56.7884801 43.0350408,57.1054436 43.0958561,58.1017881 L44.4280686,76.8017845 C44.46255,77.3666986 44.0266029,77.8599955 43.4490939,77.8937249 C42.8715847,77.9274542 42.3733991,77.5042009 42.3389178,76.9392869 L41.248928,61.3821417 C36.929335,68.3557727 34.7595277,71.8990601 34.7089828,71.9774993 C34.4670647,72.3529256 33.9877232,72.58038 33.4978816,72.5804582 C33.0080401,72.5805364 32.5219902,72.3502229 32.2867805,71.9770704 Z M129.174875,75.5435763 L139.267385,75.5435763 C139.84596,75.5435763 140.314987,76.0000059 140.314987,76.5630405 C140.314987,77.1260751 139.84596,77.5825048 139.267385,77.5825048 L127.862848,77.5825048 C127.284274,77.5825048 126.815246,77.1260751 126.815246,76.5630405 L126.815246,58.4309954 C126.815246,57.8679608 127.284274,57.4115311 127.862848,57.4115311 L139.267385,57.4115311 C139.84596,57.4115311 140.314987,57.8679608 140.314987,58.4309954 C140.314987,58.99403 139.84596,59.4504597 139.267385,59.4504597 L129.174875,59.4504597 L129.174875,66.3104743 L138.702441,66.3104743 C139.281016,66.3104743 139.750043,66.766904 139.750043,67.3299386 C139.750043,67.8929732 139.281016,68.3494029 138.702441,68.3494029 L129.174875,68.3494029 L129.174875,75.5435763 Z M107.787945,75.9544435 L119.946597,59.4853718 L108.645488,59.4853718 C108.066913,59.4853718 107.597885,59.0289421 107.597885,58.4659075 C107.597885,57.9028729 108.066913,57.4464432 108.645488,57.4464432 L121.96149,57.4464432 C122.716013,57.4464432 123.302049,58.2622855 122.819033,59.0514856 L110.66038,75.5205573 L122.226024,75.5205573 C122.804599,75.5205573 123.273627,75.9769871 123.273627,76.5400217 C123.273627,77.1030563 122.804599,77.5594859 122.226024,77.5594859 L108.645488,77.5594859 C107.820494,77.5594859 107.333289,76.6491939 107.787945,75.9544435 Z M158.970842,77.3352313 L146.368226,61.4201149 L146.368226,76.7841187 C146.368226,77.3471531 145.944112,77.8719571 145.260305,77.86161 C144.576498,77.8512629 144.152149,77.3471531 144.152149,76.7841187 L144.152149,58.4376613 C144.152149,57.3923247 145.503945,56.9559108 146.178659,57.8146144 L158.786289,73.8002743 L158.786289,58.4376613 C158.786289,57.8746267 159.236756,57.3664638 159.892424,57.3587793 C160.548092,57.3510948 161,57.8746267 161,58.4376613 L161,76.6602717 C161,77.7393342 159.702376,78.1623317 158.970842,77.3352313 Z M99.3010457,66.4107143 C98.4092154,66.4107143 97.6862441,65.7071617 97.6862441,64.8392857 C97.6862441,63.9714097 98.4092154,63.2678571 99.3010457,63.2678571 C100.192876,63.2678571 100.915847,63.9714097 100.915847,64.8392857 C100.915847,65.7071617 100.192876,66.4107143 99.3010457,66.4107143 Z M99.3010457,74.2678571 C98.4092154,74.2678571 97.6862441,73.5643046 97.6862441,72.6964286 C97.6862441,71.8285525 98.4092154,71.125 99.3010457,71.125 C100.192876,71.125 100.915847,71.8285525 100.915847,72.6964286 C100.915847,73.5643046 100.192876,74.2678571 99.3010457,74.2678571 Z" id="Combined-Shape" fill-rule="nonzero"></path>
                    <path d="M4.20100038,92.07 C3.98633264,92.07 3.81133439,92.002334 3.67600038,91.867 C3.54066637,91.731666 3.47300038,91.5566677 3.47300038,91.342 L3.47300038,83.334 L0.673000381,83.334 C0.224998141,83.334 0.00100038147,83.1333353 0.00100038147,82.732 C0.00100038147,82.535999 0.0593331315,82.3866672 0.176000381,82.284 C0.292667631,82.1813328 0.458332641,82.13 0.673000381,82.13 L7.72900038,82.13 C7.94366812,82.13 8.10933313,82.1813328 8.22600038,82.284 C8.34266763,82.3866672 8.40100038,82.535999 8.40100038,82.732 C8.40100038,83.1333353 8.17700262,83.334 7.72900038,83.334 L4.92900038,83.334 L4.92900038,91.342 C4.92900038,91.5566677 4.8636677,91.731666 4.73300038,91.867 C4.60233306,92.002334 4.4250015,92.07 4.20100038,92.07 Z M22.7730003,90.278 C22.9036676,90.278 23.0109999,90.3293328 23.0950003,90.432 C23.1790007,90.5346672 23.2210003,90.6653325 23.2210003,90.824 C23.2210003,91.094668 23.053002,91.3233324 22.7170003,91.51 C22.390332,91.6966676 22.0333356,91.8413328 21.6460003,91.944 C21.258665,92.0466672 20.8876687,92.098 20.5330003,92.098 C19.4503282,92.098 18.5963368,91.7830031 17.9710003,91.153 C17.3456638,90.5229968 17.0330003,89.6620055 17.0330003,88.57 C17.0330003,87.8699965 17.1706656,87.249336 17.4460003,86.708 C17.721335,86.166664 18.1086645,85.7466682 18.6080003,85.448 C19.1073361,85.1493318 19.6743305,85 20.3090003,85 C21.2236715,85 21.9469976,85.2939971 22.4790003,85.882 C23.011003,86.4700029 23.2770003,87.2633283 23.2770003,88.262 C23.2770003,88.6353352 23.109002,88.822 22.7730003,88.822 L18.4470003,88.822 C18.5403341,90.2686739 19.2356605,90.992 20.5330003,90.992 C20.8783354,90.992 21.176999,90.9453338 21.4290003,90.852 C21.6810016,90.7586662 21.9469989,90.6373341 22.2270003,90.488 C22.2550004,90.4693332 22.3319997,90.429667 22.4580003,90.369 C22.5840009,90.308333 22.6889999,90.278 22.7730003,90.278 Z M20.3370003,86.036 C19.7956643,86.036 19.3616686,86.2086649 19.0350003,86.554 C18.708332,86.8993351 18.512334,87.3846635 18.4470003,88.01 L22.0590003,88.01 C22.0310002,87.3753302 21.8700018,86.8876684 21.5760003,86.547 C21.2819988,86.2063316 20.869003,86.036 20.3370003,86.036 Z M36.2910002,92.098 C35.3389955,92.098 34.5596699,91.902002 33.9530002,91.51 C33.7849994,91.4073328 33.6660006,91.3000006 33.5960002,91.188 C33.5259999,91.0759994 33.4910002,90.9500007 33.4910002,90.81 C33.4910002,90.6606659 33.5329998,90.5346672 33.6170002,90.432 C33.7010006,90.3293328 33.8083329,90.278 33.9390002,90.278 C34.0603342,90.278 34.2516656,90.3526659 34.5130002,90.502 C34.7930016,90.6513341 35.0659989,90.7726662 35.3320002,90.866 C35.5980016,90.9593338 35.9316649,91.006 36.3330002,91.006 C36.7810025,91.006 37.130999,90.9266675 37.3830002,90.768 C37.6350015,90.6093325 37.7610002,90.3853348 37.7610002,90.096 C37.7610002,89.9093324 37.7120007,89.7600006 37.6140002,89.648 C37.5159997,89.5359994 37.3456681,89.4356671 37.1030002,89.347 C36.8603323,89.2583329 36.5010026,89.1626672 36.0250002,89.06 C35.2036628,88.8826658 34.6133354,88.6423348 34.2540002,88.339 C33.8946651,88.0356651 33.7150002,87.6226693 33.7150002,87.1 C33.7150002,86.6986647 33.8316657,86.3370016 34.0650002,86.015 C34.2983347,85.6929984 34.6203315,85.4433342 35.0310002,85.266 C35.4416689,85.0886658 35.9083309,85 36.4310002,85 C36.8043354,85 37.1683318,85.0489995 37.5230002,85.147 C37.8776687,85.2450005 38.1903322,85.3873324 38.4610002,85.574 C38.7690018,85.7793344 38.9230002,86.017332 38.9230002,86.288 C38.9230002,86.4373341 38.8786673,86.5633328 38.7900002,86.666 C38.7013331,86.7686672 38.5963342,86.82 38.4750002,86.82 C38.3909998,86.82 38.3070006,86.8013335 38.2230002,86.764 C38.1389998,86.7266665 38.0270009,86.6660004 37.8870002,86.582 C37.634999,86.4326659 37.3993347,86.3160004 37.1800002,86.232 C36.9606658,86.1479996 36.6876685,86.106 36.3610002,86.106 C35.9689983,86.106 35.6540014,86.1899992 35.4160002,86.358 C35.177999,86.5260008 35.0590002,86.7546652 35.0590002,87.044 C35.0590002,87.3053346 35.1686658,87.5083326 35.3880002,87.653 C35.6073347,87.7976674 36.0203305,87.9353327 36.6270002,88.066 C37.2523367,88.1966673 37.7423318,88.3459992 38.0970002,88.514 C38.4516687,88.6820008 38.7059995,88.8896654 38.8600002,89.137 C39.014001,89.3843346 39.0910002,89.6993314 39.0910002,90.082 C39.0910002,90.6886697 38.8366694,91.1763315 38.3280002,91.545 C37.819331,91.9136685 37.1403378,92.098 36.2910002,92.098 Z M53.0150002,90.992 C53.2203345,91.0106668 53.367333,91.0643329 53.4560002,91.153 C53.5446673,91.2416671 53.5890002,91.3653325 53.5890002,91.524 C53.5890002,91.7106676 53.5166675,91.8529995 53.3720002,91.951 C53.2273328,92.0490005 53.0150016,92.0886668 52.7350002,92.07 L52.3570002,92.042 C51.6009964,91.9859997 51.0363354,91.755002 50.6630002,91.349 C50.289665,90.942998 50.1030002,90.3433373 50.1030002,89.55 L50.1030002,86.26 L49.2630002,86.26 C48.8523314,86.26 48.6470002,86.0780018 48.6470002,85.714 C48.6470002,85.5459992 48.7006663,85.4130005 48.8080002,85.315 C48.915334,85.2169995 49.0669992,85.168 49.2630002,85.168 L50.1030002,85.168 L50.1030002,83.726 C50.1030002,83.5113323 50.1659995,83.3433339 50.2920002,83.222 C50.4180008,83.1006661 50.5883324,83.04 50.8030002,83.04 C51.0176679,83.04 51.1903328,83.1006661 51.3210002,83.222 C51.4516675,83.3433339 51.5170002,83.5113323 51.5170002,83.726 L51.5170002,85.168 L52.9030002,85.168 C53.0990011,85.168 53.2506663,85.2169995 53.3580002,85.315 C53.465334,85.4130005 53.5190002,85.5459992 53.5190002,85.714 C53.5190002,85.8913342 53.465334,86.0266662 53.3580002,86.12 C53.2506663,86.2133338 53.0990011,86.26 52.9030002,86.26 L51.5170002,86.26 L51.5170002,89.648 C51.5170002,90.0866689 51.6079992,90.4086656 51.7900002,90.614 C51.9720011,90.8193344 52.249665,90.9359999 52.6230002,90.964 L53.0150002,90.992 Z M68.6470001,85.448 C68.7030004,85.3079993 68.7846662,85.2053337 68.8920001,85.14 C68.9993339,85.0746663 69.1136661,85.042 69.2350001,85.042 C69.4123343,85.042 69.5686661,85.1026661 69.7040001,85.224 C69.8393341,85.3453339 69.9070001,85.4899992 69.9070001,85.658 C69.9070001,85.7513338 69.8883336,85.8399996 69.8510001,85.924 L67.1770001,91.594 C67.1116664,91.7433341 67.0113341,91.8576663 66.8760001,91.937 C66.7406661,92.0163337 66.5983342,92.056 66.4490001,92.056 C66.299666,92.056 66.1573341,92.0163337 66.0220001,91.937 C65.8866661,91.8576663 65.7863337,91.7433341 65.7210001,91.594 L63.0470001,85.924 C63.0096666,85.849333 62.9910001,85.7606672 62.9910001,85.658 C62.9910001,85.4899992 63.065666,85.3453339 63.2150001,85.224 C63.3643342,85.1026661 63.5323325,85.042 63.7190001,85.042 C63.9896681,85.042 64.1903328,85.1726654 64.3210001,85.434 L66.4910001,90.25 L68.6470001,85.448 Z M85.399,90.278 C85.5296673,90.278 85.6369996,90.3293328 85.721,90.432 C85.8050004,90.5346672 85.847,90.6653325 85.847,90.824 C85.847,91.094668 85.6790017,91.3233324 85.343,91.51 C85.0163317,91.6966676 84.6593353,91.8413328 84.272,91.944 C83.8846647,92.0466672 83.5136684,92.098 83.159,92.098 C82.0763279,92.098 81.2223365,91.7830031 80.597,91.153 C79.9716635,90.5229968 79.659,89.6620055 79.659,88.57 C79.659,87.8699965 79.7966653,87.249336 80.072,86.708 C80.3473347,86.166664 80.7346642,85.7466682 81.234,85.448 C81.7333358,85.1493318 82.3003302,85 82.935,85 C83.8496712,85 84.5729973,85.2939971 85.105,85.882 C85.6370027,86.4700029 85.903,87.2633283 85.903,88.262 C85.903,88.6353352 85.7350017,88.822 85.399,88.822 L81.073,88.822 C81.1663338,90.2686739 81.8616602,90.992 83.159,90.992 C83.5043351,90.992 83.8029987,90.9453338 84.055,90.852 C84.3070013,90.7586662 84.5729986,90.6373341 84.853,90.488 C84.8810001,90.4693332 84.9579994,90.429667 85.084,90.369 C85.2100006,90.308333 85.3149996,90.278 85.399,90.278 Z M82.963,86.036 C82.421664,86.036 81.9876683,86.2086649 81.661,86.554 C81.3343317,86.8993351 81.1383337,87.3846635 81.073,88.01 L84.685,88.01 C84.6569999,87.3753302 84.4960015,86.8876684 84.202,86.547 C83.9079985,86.2063316 83.4950027,86.036 82.963,86.036 Z M100.121,85.028 C100.569002,84.9999999 100.793,85.1913313 100.793,85.602 C100.793,85.8073344 100.741667,85.9613328 100.639,86.064 C100.536333,86.1666672 100.359001,86.2273332 100.107,86.246 L99.6869999,86.288 C99.098997,86.3440003 98.662668,86.5493316 98.3779999,86.904 C98.0933318,87.2586684 97.9509999,87.6879975 97.9509999,88.192 L97.9509999,91.398 C97.9509999,91.6220011 97.8856672,91.7899994 97.7549999,91.902 C97.6243326,92.0140006 97.4563343,92.07 97.2509999,92.07 C97.0456656,92.07 96.8753339,92.0140006 96.7399999,91.902 C96.6046659,91.7899994 96.5369999,91.6220011 96.5369999,91.398 L96.5369999,85.7 C96.5369999,85.4853323 96.6046659,85.3196672 96.7399999,85.203 C96.8753339,85.0863327 97.0456656,85.028 97.2509999,85.028 C97.4376675,85.028 97.5939993,85.0863327 97.7199999,85.203 C97.8460006,85.3196672 97.9089999,85.4806656 97.9089999,85.686 L97.9089999,86.358 C98.0956675,85.9473313 98.3663315,85.6346677 98.7209999,85.42 C99.0756684,85.2053323 99.4769977,85.0793335 99.9249999,85.042 L100.121,85.028 Z M113.051,92.098 C112.098995,92.098 111.31967,91.902002 110.713,91.51 C110.544999,91.4073328 110.426,91.3000006 110.356,91.188 C110.285999,91.0759994 110.251,90.9500007 110.251,90.81 C110.251,90.6606659 110.292999,90.5346672 110.377,90.432 C110.461,90.3293328 110.568333,90.278 110.699,90.278 C110.820334,90.278 111.011665,90.3526659 111.273,90.502 C111.553001,90.6513341 111.825999,90.7726662 112.092,90.866 C112.358001,90.9593338 112.691665,91.006 113.093,91.006 C113.541002,91.006 113.890999,90.9266675 114.143,90.768 C114.395001,90.6093325 114.521,90.3853348 114.521,90.096 C114.521,89.9093324 114.472,89.7600006 114.374,89.648 C114.275999,89.5359994 114.105668,89.4356671 113.863,89.347 C113.620332,89.2583329 113.261002,89.1626672 112.785,89.06 C111.963662,88.8826658 111.373335,88.6423348 111.014,88.339 C110.654665,88.0356651 110.475,87.6226693 110.475,87.1 C110.475,86.6986647 110.591665,86.3370016 110.825,86.015 C111.058334,85.6929984 111.380331,85.4433342 111.791,85.266 C112.201669,85.0886658 112.668331,85 113.191,85 C113.564335,85 113.928331,85.0489995 114.283,85.147 C114.637668,85.2450005 114.950332,85.3873324 115.221,85.574 C115.529001,85.7793344 115.683,86.017332 115.683,86.288 C115.683,86.4373341 115.638667,86.5633328 115.55,86.666 C115.461333,86.7686672 115.356334,86.82 115.235,86.82 C115.150999,86.82 115.067,86.8013335 114.983,86.764 C114.898999,86.7266665 114.787001,86.6660004 114.647,86.582 C114.394999,86.4326659 114.159334,86.3160004 113.94,86.232 C113.720665,86.1479996 113.447668,86.106 113.121,86.106 C112.728998,86.106 112.414001,86.1899992 112.176,86.358 C111.937999,86.5260008 111.819,86.7546652 111.819,87.044 C111.819,87.3053346 111.928665,87.5083326 112.148,87.653 C112.367334,87.7976674 112.78033,87.9353327 113.387,88.066 C114.012336,88.1966673 114.502331,88.3459992 114.857,88.514 C115.211668,88.6820008 115.465999,88.8896654 115.62,89.137 C115.774001,89.3843346 115.851,89.6993314 115.851,90.082 C115.851,90.6886697 115.596669,91.1763315 115.088,91.545 C114.579331,91.9136685 113.900337,92.098 113.051,92.098 Z M127.213,92.07 C127.007665,92.07 126.837334,92.0140006 126.702,91.902 C126.566666,91.7899994 126.499,91.6220011 126.499,91.398 L126.499,85.714 C126.499,85.4899989 126.566666,85.3196672 126.702,85.203 C126.837334,85.0863327 127.007665,85.028 127.213,85.028 C127.418334,85.028 127.586332,85.0863327 127.717,85.203 C127.847667,85.3196672 127.913,85.4899989 127.913,85.714 L127.913,91.398 C127.913,91.6220011 127.847667,91.7899994 127.717,91.902 C127.586332,92.0140006 127.418334,92.07 127.213,92.07 Z M127.213,83.656 C126.942332,83.656 126.727667,83.5813341 126.569,83.432 C126.410332,83.2826659 126.331,83.0866679 126.331,82.844 C126.331,82.6013321 126.410332,82.4076674 126.569,82.263 C126.727667,82.1183326 126.942332,82.046 127.213,82.046 C127.474334,82.046 127.686666,82.1183326 127.85,82.263 C128.013334,82.4076674 128.095,82.6013321 128.095,82.844 C128.095,83.0866679 128.015667,83.2826659 127.857,83.432 C127.698332,83.5813341 127.483668,83.656 127.213,83.656 Z M141.935,92.098 C141.262996,92.098 140.672669,91.9533348 140.164,91.664 C139.65533,91.3746652 139.263334,90.9616693 138.988,90.425 C138.712665,89.8883307 138.575,89.2653369 138.575,88.556 C138.575,87.8373297 138.712665,87.2096693 138.988,86.673 C139.263334,86.1363307 139.65533,85.7233348 140.164,85.434 C140.672669,85.1446652 141.262996,85 141.935,85 C142.607003,85 143.19733,85.1446652 143.706,85.434 C144.214669,85.7233348 144.606665,86.1363307 144.882,86.673 C145.157334,87.2096693 145.295,87.8373297 145.295,88.556 C145.295,89.2653369 145.157334,89.8883307 144.882,90.425 C144.606665,90.9616693 144.214669,91.3746652 143.706,91.664 C143.19733,91.9533348 142.607003,92.098 141.935,92.098 Z M141.935,90.978 C142.560336,90.978 143.038665,90.7726687 143.37,90.362 C143.701335,89.9513313 143.867,89.3493373 143.867,88.556 C143.867,87.7719961 143.699001,87.1723354 143.363,86.757 C143.026998,86.3416646 142.551003,86.134 141.935,86.134 C141.318997,86.134 140.843001,86.3416646 140.507,86.757 C140.170998,87.1723354 140.003,87.7719961 140.003,88.556 C140.003,89.3493373 140.168665,89.9513313 140.5,90.362 C140.831335,90.7726687 141.309663,90.978 141.935,90.978 Z M159.625,85 C161.258341,85 162.075,85.9193241 162.075,87.758 L162.075,91.398 C162.075,91.6126677 162.012,91.7783328 161.886,91.895 C161.759999,92.0116673 161.585001,92.07 161.361,92.07 C161.146332,92.07 160.976,92.0093339 160.85,91.888 C160.723999,91.7666661 160.661,91.6033344 160.661,91.398 L160.661,87.828 C160.661,87.2493304 160.546667,86.824668 160.318,86.554 C160.089332,86.283332 159.732335,86.148 159.247,86.148 C158.677663,86.148 158.220335,86.3253316 157.875,86.68 C157.529665,87.0346684 157.357,87.5106637 157.357,88.108 L157.357,91.398 C157.357,91.6033344 157.294,91.7666661 157.168,91.888 C157.041999,92.0093339 156.871667,92.07 156.657,92.07 C156.442332,92.07 156.269667,92.0093339 156.139,91.888 C156.008332,91.7666661 155.943,91.6033344 155.943,91.398 L155.943,85.7 C155.943,85.503999 156.010666,85.3430006 156.146,85.217 C156.281334,85.0909994 156.451665,85.028 156.657,85.028 C156.862334,85.028 157.025666,85.0886661 157.147,85.21 C157.268334,85.3313339 157.329,85.489999 157.329,85.686 L157.329,86.26 C157.553001,85.8493313 157.865664,85.5366677 158.267,85.322 C158.668335,85.1073323 159.120997,85 159.625,85 Z" id="Testversion"></path>
                </g>
            </g>
        </g>
    </g>
</svg>