<?xml version="1.0" encoding="UTF-8"?>
<svg width="516px" height="450px" viewBox="0 0 516 450" version="1.1" xmlns="http://www.w3.org/2000/svg" xmlns:xlink="http://www.w3.org/1999/xlink">
    <!-- Generator: Sketch 48.2 (47327) - http://www.bohemiancoding.com/sketch -->
    <title>PDF平铺_French</title>
    <desc>Created with Sketch.</desc>
    <defs></defs>
    <g id="打印水印-法语" stroke="none" stroke-width="1" fill="none" fill-rule="evenodd" transform="translate(-55.000000, -45.000000)" opacity="0.2">
        <g id="PDF平铺_French" transform="translate(56.000000, 46.000000)">
            <polyline id="a" stroke="#989CA2" stroke-width="2" stroke-dasharray="21.60000038146973,21.60000038146973" points="335.58233 433.283008 0 433.283008 0 0 433.290009 0 433.290009 343.314384"></polyline>
            <g id="Group-15" transform="translate(353.183844, 356.789809)" fill="#989CA2">
                <g id="Group-6" transform="translate(0.000000, 0.000000)">
                    <path d="M77.0517059,24.7781094 L68.9315535,32.0895275 C68.4322039,32.5391439 68.3918872,33.3084328 68.8415036,33.8077824 C69.29112,34.307132 70.0604089,34.3474487 70.5597585,33.8978323 L78.9119574,26.3774786 C78.9173256,26.372645 78.9226408,26.3677745 78.9279029,26.3628677 C79.2656526,26.2057441 79.6208617,26.1059192 79.9874299,26.1059192 C80.3542473,26.1059192 80.7096902,26.2058799 81.0476458,26.3631884 C81.0527955,26.3679867 81.0579961,26.3727503 81.0632474,26.3774786 L89.4154463,33.8978323 C89.9147959,34.3474487 90.6840848,34.307132 91.1337012,33.8077824 C91.5833176,33.3084328 91.5430009,32.5391439 91.0436513,32.0895275 L82.9210998,24.7759493 C82.1825994,23.9998657 81.1412886,23.5163733 79.9874299,23.5163733 C78.832501,23.5163733 77.7903288,24.000763 77.0517059,24.7781094 Z M78.9279029,18.1811946 C78.9226408,18.1762879 78.9173256,18.1714174 78.9119574,18.1665838 L70.5597585,10.6462301 C70.0604089,10.1966137 69.29112,10.2369304 68.8415036,10.73628 C68.3918872,11.2356296 68.4322039,12.0049185 68.9315535,12.4545349 L77.0517059,19.765953 C77.7903288,20.5432994 78.832501,21.0276891 79.9874299,21.0276891 C81.1412886,21.0276891 82.1825994,20.5441966 82.9210998,19.7681131 L91.0436513,12.4545349 C91.5430009,12.0049185 91.5833176,11.2356296 91.1337012,10.73628 C90.6840848,10.2369304 89.9147959,10.1966137 89.4154463,10.6462301 L81.0632474,18.1665838 C81.0579961,18.1713121 81.0527955,18.1760757 81.0476458,18.180874 C80.7096902,18.3381824 80.3542473,18.4381432 79.9874299,18.4381432 C79.6208617,18.4381432 79.2656526,18.3383182 78.9279029,18.1811946 Z M79.8252089,44.8216561 C67.4614917,44.8216561 57.4387187,34.7879866 57.4387187,22.410828 C57.4387187,10.0336695 67.4614917,0 79.8252089,0 C92.1889261,0 102.211699,10.0336695 102.211699,22.410828 C102.211699,34.7879866 92.1889261,44.8216561 79.8252089,44.8216561 Z" id="Combined-Shape"></path>
                    <path d="M17.2404343,58.8159693 C17.603071,58.3750229 17.5316187,57.7300014 17.0808412,57.3752736 C16.6300637,57.0205458 15.9706613,57.0904397 15.6080247,57.5313861 L8.73590057,65.8875154 L1.86377641,57.5313861 C1.50113979,57.0904397 0.84173738,57.0205458 0.390959909,57.3752736 C-0.0598175585,57.7300014 -0.131269832,58.3750229 0.231366791,58.8159693 L7.39147183,67.5222676 L0.231366791,76.2285659 C-0.131269832,76.6695123 -0.0598175585,77.3145338 0.390959909,77.6692616 C0.84173738,78.0239894 1.50113979,77.9540954 1.86377641,77.513149 L8.73590057,69.1570198 L15.6080247,77.513149 C15.9706613,77.9540954 16.6300637,78.0239894 17.0808412,77.6692616 C17.5316187,77.3145338 17.603071,76.6695123 17.2404343,76.2285659 L10.0803293,67.5222676 L17.2404343,58.8159693 Z M58.7100387,68.514576 C58.7310362,66.1798151 61.1792879,64.1272131 63.4714992,63.9070946 C65.6936981,63.6936993 66.7411349,64.6095037 67.4639493,66.1975746 C67.8960226,67.1468684 67.8925736,68.1110937 67.8925736,69.1502314 L67.8925736,76.8708575 C67.8925736,77.4367776 68.3615709,77.8955466 68.9401083,77.8955466 C69.5186459,77.8955466 69.9876432,77.4367776 69.9876432,76.8708575 L69.9876432,69.0457779 C69.9876432,67.0986392 69.8274993,66.2789749 69.3882734,65.1817539 C68.5607155,63.1144481 66.2325624,61.4152912 63.1863987,61.814097 C61.3593676,62.0532932 59.7584808,62.9520486 58.6897502,64.2821836 L58.6897502,63.0829931 C58.6897502,62.5170729 58.2207529,62.0583041 57.6422153,62.0583041 C57.0636779,62.0583041 56.5946806,62.5170729 56.5946806,63.0829931 L56.5946806,76.8708575 C56.5946806,77.4367776 57.0636779,77.8955466 57.6422153,77.8955466 C58.2207529,77.8955466 58.6897502,77.4367776 58.6897502,76.8708575 L58.6897502,68.7426355 C58.7024926,68.6637621 58.7093878,68.5869686 58.7100387,68.514576 Z M86.9208671,57.024689 C86.9208671,56.4587689 87.3898644,56 87.9684018,56 C88.5469393,56 89.0159367,56.4587689 89.0159367,57.024689 L89.0159367,76.8708575 C89.0159367,77.4367776 88.5469393,77.8955466 87.9684018,77.8955466 C87.3898644,77.8955466 86.9208671,77.4367776 86.9208671,76.8708575 L86.9208671,75.4008251 C85.55338,76.9964309 83.5930719,78 81.4012876,78 C77.2276904,78 73.8934207,74.3610782 73.8934207,69.9246985 C73.8934207,65.4883188 77.2276904,61.849397 81.4012876,61.849397 C83.5930719,61.849397 85.55338,62.8529661 86.9208671,64.4485719 L86.9208671,57.024689 Z M48.6393958,57.9647707 C48.6393958,57.3123184 49.1801052,56.7834013 49.847104,56.7834013 C50.5141031,56.7834013 51.0548125,57.3123184 51.0548125,57.9647707 L51.0548125,58.3825848 C51.0548125,59.035037 50.5141031,59.5639541 49.847104,59.5639541 C49.1801052,59.5639541 48.6393958,59.035037 48.6393958,58.3825848 L48.6393958,57.9647707 Z M48.7995691,62.665179 C48.7995691,62.0992589 49.2685665,61.64049 49.847104,61.64049 C50.4256416,61.64049 50.8946389,62.0992589 50.8946389,62.665179 L50.8946389,76.8708575 C50.8946389,77.4367776 50.4256416,77.8955466 49.847104,77.8955466 C49.2685665,77.8955466 48.7995691,77.4367776 48.7995691,76.8708575 L48.7995691,62.665179 Z M81.4012876,75.950622 C84.3635761,75.950622 86.8140847,73.2762103 86.8140847,69.9246985 C86.8140847,66.5731867 84.3635761,63.898775 81.4012876,63.898775 C78.4389991,63.898775 75.9884903,66.5731867 75.9884903,69.9246985 C75.9884903,73.2762103 78.4389991,75.950622 81.4012876,75.950622 Z M31.2867805,71.9770704 C31.2388124,71.9009707 29.0664283,68.3480228 24.7468353,61.3821417 L23.6568455,76.9392869 C23.6166694,77.5038409 23.1238102,77.9323726 22.5466694,77.8930727 C21.9695286,77.8537729 21.5275186,77.3663383 21.5676947,76.8017845 L22.8999072,58.1025191 C22.9707752,57.1066825 24.3967526,56.7877284 24.9284993,57.6397497 C28.8649099,63.9470863 31.3708065,68.0223129 32.4978816,69.8278059 C33.6242031,68.021431 36.1311852,63.9474983 40.067264,57.6401798 C40.5987669,56.7884801 42.0350408,57.1054436 42.0958561,58.1017881 L43.4280686,76.8017845 C43.46255,77.3666986 43.0266029,77.8599955 42.4490939,77.8937249 C41.8715847,77.9274542 41.3733991,77.5042009 41.3389178,76.9392869 L40.248928,61.3821417 C35.929335,68.3557727 33.7595277,71.8990601 33.7089828,71.9774993 C33.4670647,72.3529256 32.9877232,72.58038 32.4978816,72.5804582 C32.0080401,72.5805364 31.5219902,72.3502229 31.2867805,71.9770704 Z M128.174875,75.5435763 L138.267385,75.5435763 C138.84596,75.5435763 139.314987,76.0000059 139.314987,76.5630405 C139.314987,77.1260751 138.84596,77.5825048 138.267385,77.5825048 L126.862848,77.5825048 C126.284274,77.5825048 125.815246,77.1260751 125.815246,76.5630405 L125.815246,58.4309954 C125.815246,57.8679608 126.284274,57.4115311 126.862848,57.4115311 L138.267385,57.4115311 C138.84596,57.4115311 139.314987,57.8679608 139.314987,58.4309954 C139.314987,58.99403 138.84596,59.4504597 138.267385,59.4504597 L128.174875,59.4504597 L128.174875,66.3104743 L137.702441,66.3104743 C138.281016,66.3104743 138.750043,66.766904 138.750043,67.3299386 C138.750043,67.8929732 138.281016,68.3494029 137.702441,68.3494029 L128.174875,68.3494029 L128.174875,75.5435763 Z M106.787945,75.9544435 L118.946597,59.4853718 L107.645488,59.4853718 C107.066913,59.4853718 106.597885,59.0289421 106.597885,58.4659075 C106.597885,57.9028729 107.066913,57.4464432 107.645488,57.4464432 L120.96149,57.4464432 C121.716013,57.4464432 122.302049,58.2622855 121.819033,59.0514856 L109.66038,75.5205573 L121.226024,75.5205573 C121.804599,75.5205573 122.273627,75.9769871 122.273627,76.5400217 C122.273627,77.1030563 121.804599,77.5594859 121.226024,77.5594859 L107.645488,77.5594859 C106.820494,77.5594859 106.333289,76.6491939 106.787945,75.9544435 Z M157.970842,77.3352313 L145.368226,61.4201149 L145.368226,76.7841187 C145.368226,77.3471531 144.944112,77.8719571 144.260305,77.86161 C143.576498,77.8512629 143.152149,77.3471531 143.152149,76.7841187 L143.152149,58.4376613 C143.152149,57.3923247 144.503945,56.9559108 145.178659,57.8146144 L157.786289,73.8002743 L157.786289,58.4376613 C157.786289,57.8746267 158.236756,57.3664638 158.892424,57.3587793 C159.548092,57.3510948 160,57.8746267 160,58.4376613 L160,76.6602717 C160,77.7393342 158.702376,78.1623317 157.970842,77.3352313 Z M98.3010457,66.4107143 C97.4092154,66.4107143 96.6862441,65.7071617 96.6862441,64.8392857 C96.6862441,63.9714097 97.4092154,63.2678571 98.3010457,63.2678571 C99.192876,63.2678571 99.9158473,63.9714097 99.9158473,64.8392857 C99.9158473,65.7071617 99.192876,66.4107143 98.3010457,66.4107143 Z M98.3010457,74.2678571 C97.4092154,74.2678571 96.6862441,73.5643046 96.6862441,72.6964286 C96.6862441,71.8285525 97.4092154,71.125 98.3010457,71.125 C99.192876,71.125 99.9158473,71.8285525 99.9158473,72.6964286 C99.9158473,73.5643046 99.192876,74.2678571 98.3010457,74.2678571 Z" id="Combined-Shape" fill-rule="nonzero"></path>
                    <path d="M9.11999853,82.438 C9.24133247,82.1766654 9.44199713,82.046 9.72199853,82.046 C9.90866613,82.046 10.0766645,82.1089994 10.2259985,82.235 C10.3753326,82.3610006 10.4499985,82.5126658 10.4499985,82.69 C10.4499985,82.7553337 10.4266654,82.8439994 10.3799985,82.956 L6.43199853,91.608 C6.36666487,91.7573341 6.26399923,91.8739996 6.12399853,91.958 C5.98399783,92.0420004 5.83466599,92.084 5.67599853,92.084 C5.51733107,92.084 5.36566592,92.0420004 5.22099853,91.958 C5.07633114,91.8739996 4.97133219,91.7573341 4.90599853,91.608 L0.971998531,82.956 C0.925331631,82.8439994 0.901998531,82.7553337 0.901998531,82.69 C0.901998531,82.5033324 0.978997761,82.3493339 1.13299853,82.228 C1.2869993,82.1066661 1.45733093,82.046 1.64399853,82.046 C1.93333331,82.046 2.13866459,82.1766654 2.25999853,82.438 L5.68999853,90.124 L9.11999853,82.438 Z M20.8859987,90.278 C21.0166661,90.278 21.1239983,90.3293328 21.2079987,90.432 C21.2919992,90.5346672 21.3339987,90.6653325 21.3339987,90.824 C21.3339987,91.094668 21.1660004,91.3233324 20.8299987,91.51 C20.5033304,91.6966676 20.146334,91.8413328 19.7589987,91.944 C19.3716635,92.0466672 19.0006672,92.098 18.6459987,92.098 C17.5633267,92.098 16.7093352,91.7830031 16.0839987,91.153 C15.4586623,90.5229968 15.1459987,89.6620055 15.1459987,88.57 C15.1459987,87.8699965 15.283664,87.249336 15.5589987,86.708 C15.8343335,86.166664 16.2216629,85.7466682 16.7209987,85.448 C17.2203346,85.1493318 17.7873289,85 18.4219987,85 C19.33667,85 20.0599961,85.2939971 20.5919987,85.882 C21.1240014,86.4700029 21.3899987,87.2633283 21.3899987,88.262 C21.3899987,88.6353352 21.2220004,88.822 20.8859987,88.822 L16.5599987,88.822 C16.6533325,90.2686739 17.3486589,90.992 18.6459987,90.992 C18.9913338,90.992 19.2899975,90.9453338 19.5419987,90.852 C19.794,90.7586662 20.0599973,90.6373341 20.3399987,90.488 C20.3679989,90.4693332 20.4449981,90.429667 20.5709987,90.369 C20.6969994,90.308333 20.8019983,90.278 20.8859987,90.278 Z M18.4499987,86.036 C17.9086627,86.036 17.474667,86.2086649 17.1479987,86.554 C16.8213304,86.8993351 16.6253324,87.3846635 16.5599987,88.01 L20.1719987,88.01 C20.1439986,87.3753302 19.9830002,86.8876684 19.6889987,86.547 C19.3949973,86.2063316 18.9820014,86.036 18.4499987,86.036 Z M31.307999,85.028 C31.7560012,84.9999999 31.979999,85.1913313 31.979999,85.602 C31.979999,85.8073344 31.9286661,85.9613328 31.825999,86.064 C31.7233318,86.1666672 31.5460002,86.2273332 31.293999,86.246 L30.873999,86.288 C30.285996,86.3440003 29.849667,86.5493316 29.564999,86.904 C29.2803309,87.2586684 29.137999,87.6879975 29.137999,88.192 L29.137999,91.398 C29.137999,91.6220011 29.0726663,91.7899994 28.941999,91.902 C28.8113316,92.0140006 28.6433333,92.07 28.437999,92.07 C28.2326646,92.07 28.062333,92.0140006 27.926999,91.902 C27.7916649,91.7899994 27.723999,91.6220011 27.723999,91.398 L27.723999,85.7 C27.723999,85.4853323 27.7916649,85.3196672 27.926999,85.203 C28.062333,85.0863327 28.2326646,85.028 28.437999,85.028 C28.6246666,85.028 28.7809983,85.0863327 28.906999,85.203 C29.0329996,85.3196672 29.095999,85.4806656 29.095999,85.686 L29.095999,86.358 C29.2826666,85.9473313 29.5533305,85.6346677 29.907999,85.42 C30.2626674,85.2053323 30.6639967,85.0793335 31.111999,85.042 L31.307999,85.028 Z M39.9379992,92.098 C38.9859944,92.098 38.2066689,91.902002 37.5999992,91.51 C37.4319983,91.4073328 37.3129995,91.3000006 37.2429992,91.188 C37.1729988,91.0759994 37.1379992,90.9500007 37.1379992,90.81 C37.1379992,90.6606659 37.1799987,90.5346672 37.2639992,90.432 C37.3479996,90.3293328 37.4553318,90.278 37.5859992,90.278 C37.7073331,90.278 37.8986645,90.3526659 38.1599992,90.502 C38.4400006,90.6513341 38.7129978,90.7726662 38.9789992,90.866 C39.2450005,90.9593338 39.5786638,91.006 39.9799992,91.006 C40.4280014,91.006 40.7779979,90.9266675 41.0299992,90.768 C41.2820004,90.6093325 41.4079992,90.3853348 41.4079992,90.096 C41.4079992,89.9093324 41.3589997,89.7600006 41.2609992,89.648 C41.1629987,89.5359994 40.992667,89.4356671 40.7499992,89.347 C40.5073313,89.2583329 40.1480015,89.1626672 39.6719992,89.06 C38.8506617,88.8826658 38.2603343,88.6423348 37.9009992,88.339 C37.541664,88.0356651 37.3619992,87.6226693 37.3619992,87.1 C37.3619992,86.6986647 37.4786647,86.3370016 37.7119992,86.015 C37.9453337,85.6929984 38.2673304,85.4433342 38.6779992,85.266 C39.0886679,85.0886658 39.5553299,85 40.0779992,85 C40.4513344,85 40.8153307,85.0489995 41.1699992,85.147 C41.5246676,85.2450005 41.8373311,85.3873324 42.1079992,85.574 C42.4160007,85.7793344 42.5699992,86.017332 42.5699992,86.288 C42.5699992,86.4373341 42.5256663,86.5633328 42.4369992,86.666 C42.3483321,86.7686672 42.2433331,86.82 42.1219992,86.82 C42.0379987,86.82 41.9539996,86.8013335 41.8699992,86.764 C41.7859987,86.7266665 41.6739999,86.6660004 41.5339992,86.582 C41.2819979,86.4326659 41.0463336,86.3160004 40.8269992,86.232 C40.6076647,86.1479996 40.3346675,86.106 40.0079992,86.106 C39.6159972,86.106 39.3010004,86.1899992 39.0629992,86.358 C38.824998,86.5260008 38.7059992,86.7546652 38.7059992,87.044 C38.7059992,87.3053346 38.8156647,87.5083326 39.0349992,87.653 C39.2543336,87.7976674 39.6673295,87.9353327 40.2739992,88.066 C40.8993356,88.1966673 41.3893307,88.3459992 41.7439992,88.514 C42.0986676,88.6820008 42.3529984,88.8896654 42.5069992,89.137 C42.6609999,89.3843346 42.7379992,89.6993314 42.7379992,90.082 C42.7379992,90.6886697 42.4836684,91.1763315 41.9749992,91.545 C41.46633,91.9136685 40.7873367,92.098 39.9379992,92.098 Z M49.7999994,92.07 C49.594665,92.07 49.4243334,92.0140006 49.2889994,91.902 C49.1536654,91.7899994 49.0859994,91.6220011 49.0859994,91.398 L49.0859994,85.714 C49.0859994,85.4899989 49.1536654,85.3196672 49.2889994,85.203 C49.4243334,85.0863327 49.594665,85.028 49.7999994,85.028 C50.0053337,85.028 50.1733321,85.0863327 50.3039994,85.203 C50.4346667,85.3196672 50.4999994,85.4899989 50.4999994,85.714 L50.4999994,91.398 C50.4999994,91.6220011 50.4346667,91.7899994 50.3039994,91.902 C50.1733321,92.0140006 50.0053337,92.07 49.7999994,92.07 Z M49.7999994,83.656 C49.5293314,83.656 49.3146668,83.5813341 49.1559994,83.432 C48.9973319,83.2826659 48.9179994,83.0866679 48.9179994,82.844 C48.9179994,82.6013321 48.9973319,82.4076674 49.1559994,82.263 C49.3146668,82.1183326 49.5293314,82.046 49.7999994,82.046 C50.061334,82.046 50.2736652,82.1183326 50.4369994,82.263 C50.6003335,82.4076674 50.6819994,82.6013321 50.6819994,82.844 C50.6819994,83.0866679 50.6026668,83.2826659 50.4439994,83.432 C50.2853319,83.5813341 50.0706674,83.656 49.7999994,83.656 Z M60.2219996,92.098 C59.5499962,92.098 58.9596688,91.9533348 58.4509996,91.664 C57.9423304,91.3746652 57.5503343,90.9616693 57.2749996,90.425 C56.9996649,89.8883307 56.8619996,89.2653369 56.8619996,88.556 C56.8619996,87.8373297 56.9996649,87.2096693 57.2749996,86.673 C57.5503343,86.1363307 57.9423304,85.7233348 58.4509996,85.434 C58.9596688,85.1446652 59.5499962,85 60.2219996,85 C60.8940029,85 61.4843304,85.1446652 61.9929996,85.434 C62.5016688,85.7233348 62.8936649,86.1363307 63.1689996,86.673 C63.4443343,87.2096693 63.5819996,87.8373297 63.5819996,88.556 C63.5819996,89.2653369 63.4443343,89.8883307 63.1689996,90.425 C62.8936649,90.9616693 62.5016688,91.3746652 61.9929996,91.664 C61.4843304,91.9533348 60.8940029,92.098 60.2219996,92.098 Z M60.2219996,90.978 C60.847336,90.978 61.3256646,90.7726687 61.6569996,90.362 C61.9883346,89.9513313 62.1539996,89.3493373 62.1539996,88.556 C62.1539996,87.7719961 61.9860013,87.1723354 61.6499996,86.757 C61.3139979,86.3416646 60.8380027,86.134 60.2219996,86.134 C59.6059965,86.134 59.1300013,86.3416646 58.7939996,86.757 C58.4579979,87.1723354 58.2899996,87.7719961 58.2899996,88.556 C58.2899996,89.3493373 58.4556646,89.9513313 58.7869996,90.362 C59.1183346,90.7726687 59.5966631,90.978 60.2219996,90.978 Z M73.6119998,85 C75.2453413,85 76.0619998,85.9193241 76.0619998,87.758 L76.0619998,91.398 C76.0619998,91.6126677 75.9990004,91.7783328 75.8729998,91.895 C75.7469992,92.0116673 75.5720009,92.07 75.3479998,92.07 C75.1333321,92.07 74.9630004,92.0093339 74.8369998,91.888 C74.7109992,91.7666661 74.6479998,91.6033344 74.6479998,91.398 L74.6479998,87.828 C74.6479998,87.2493304 74.5336676,86.824668 74.3049998,86.554 C74.076332,86.283332 73.7193356,86.148 73.2339998,86.148 C72.6646636,86.148 72.2073349,86.3253316 71.8619998,86.68 C71.5166647,87.0346684 71.3439998,87.5106637 71.3439998,88.108 L71.3439998,91.398 C71.3439998,91.6033344 71.2810004,91.7666661 71.1549998,91.888 C71.0289992,92.0093339 70.8586675,92.07 70.6439998,92.07 C70.4293321,92.07 70.2566671,92.0093339 70.1259998,91.888 C69.9953325,91.7666661 69.9299998,91.6033344 69.9299998,91.398 L69.9299998,85.7 C69.9299998,85.503999 69.9976658,85.3430006 70.1329998,85.217 C70.2683338,85.0909994 70.4386654,85.028 70.6439998,85.028 C70.8493342,85.028 71.0126659,85.0886661 71.1339998,85.21 C71.2553337,85.3313339 71.3159998,85.489999 71.3159998,85.686 L71.3159998,86.26 C71.5400009,85.8493313 71.8526645,85.5366677 72.2539998,85.322 C72.6553351,85.1073323 73.1079973,85 73.6119998,85 Z M96.8360002,82.06 C97.0506679,82.06 97.2233329,82.1206661 97.3540002,82.242 C97.4846675,82.3633339 97.5500002,82.5266656 97.5500002,82.732 L97.5500002,91.384 C97.5500002,91.5986677 97.4870008,91.7666661 97.3610002,91.888 C97.2349996,92.0093339 97.0646679,92.07 96.8500002,92.07 C96.6353325,92.07 96.4650008,92.0093339 96.3390002,91.888 C96.2129996,91.7666661 96.1500002,91.5986677 96.1500002,91.384 L96.1500002,90.824 C95.9446658,91.2346687 95.6460022,91.5496656 95.2540002,91.769 C94.8619982,91.9883344 94.4093361,92.098 93.8960002,92.098 C93.3079973,92.098 92.7830025,91.9486682 92.3210002,91.65 C91.8589979,91.3513318 91.4996682,90.931336 91.2430002,90.39 C90.9863323,89.848664 90.8580002,89.2280035 90.8580002,88.528 C90.8580002,87.8186631 90.9863323,87.1980027 91.2430002,86.666 C91.4996682,86.1339973 91.8566646,85.7233348 92.3140002,85.434 C92.7713358,85.1446652 93.2986639,85 93.8960002,85 C94.4093361,85 94.8596649,85.1096656 95.2470002,85.329 C95.6343355,85.5483344 95.9306658,85.8586647 96.1360002,86.26 L96.1360002,82.704 C96.1360002,82.507999 96.1989996,82.3516672 96.3250002,82.235 C96.4510008,82.1183328 96.6213325,82.06 96.8360002,82.06 Z M94.2320002,90.978 C94.8386699,90.978 95.3099985,90.7680021 95.6460002,90.348 C95.9820019,89.9279979 96.1500002,89.3306705 96.1500002,88.556 C96.1500002,87.7813295 95.9843352,87.1840021 95.6530002,86.764 C95.3216652,86.3439979 94.8480033,86.134 94.2320002,86.134 C93.6159971,86.134 93.1376686,86.3416646 92.7970002,86.757 C92.4563318,87.1723354 92.2860002,87.7626628 92.2860002,88.528 C92.2860002,89.2933372 92.4586651,89.8929978 92.8040002,90.327 C93.1493353,90.7610022 93.6253305,90.978 94.2320002,90.978 Z M104.948,86.162 C104.677332,86.162 104.518667,86.0080015 104.472,85.7 L104.178,83.026 C104.168667,82.9793331 104.164,82.918667 104.164,82.844 C104.164,82.6013321 104.236333,82.4100007 104.381,82.27 C104.525668,82.1299993 104.714666,82.06 104.948,82.06 C105.181335,82.06 105.365666,82.1253327 105.501,82.256 C105.636334,82.3866673 105.704,82.5733321 105.704,82.816 C105.704,82.9093338 105.699334,82.9793331 105.69,83.026 L105.424,85.7 C105.368,86.0080015 105.209335,86.162 104.948,86.162 Z M117.666001,90.278 C117.796668,90.278 117.904,90.3293328 117.988001,90.432 C118.072001,90.5346672 118.114001,90.6653325 118.114001,90.824 C118.114001,91.094668 117.946002,91.3233324 117.610001,91.51 C117.283332,91.6966676 116.926336,91.8413328 116.539001,91.944 C116.151665,92.0466672 115.780669,92.098 115.426001,92.098 C114.343329,92.098 113.489337,91.7830031 112.864001,91.153 C112.238664,90.5229968 111.926001,89.6620055 111.926001,88.57 C111.926001,87.8699965 112.063666,87.249336 112.339001,86.708 C112.614335,86.166664 113.001665,85.7466682 113.501001,85.448 C114.000336,85.1493318 114.567331,85 115.202001,85 C116.116672,85 116.839998,85.2939971 117.372001,85.882 C117.904003,86.4700029 118.170001,87.2633283 118.170001,88.262 C118.170001,88.6353352 118.002002,88.822 117.666001,88.822 L113.340001,88.822 C113.433334,90.2686739 114.128661,90.992 115.426001,90.992 C115.771336,90.992 116.069999,90.9453338 116.322001,90.852 C116.574002,90.7586662 116.839999,90.6373341 117.120001,90.488 C117.148001,90.4693332 117.225,90.429667 117.351001,90.369 C117.477001,90.308333 117.582,90.278 117.666001,90.278 Z M115.230001,86.036 C114.688665,86.036 114.254669,86.2086649 113.928001,86.554 C113.601332,86.8993351 113.405334,87.3846635 113.340001,88.01 L116.952001,88.01 C116.924,87.3753302 116.763002,86.8876684 116.469001,86.547 C116.174999,86.2063316 115.762003,86.036 115.230001,86.036 Z M126.884001,92.098 C125.931996,92.098 125.152671,91.902002 124.546001,91.51 C124.378,91.4073328 124.259001,91.3000006 124.189001,91.188 C124.119,91.0759994 124.084001,90.9500007 124.084001,90.81 C124.084001,90.6606659 124.126,90.5346672 124.210001,90.432 C124.294001,90.3293328 124.401334,90.278 124.532001,90.278 C124.653335,90.278 124.844666,90.3526659 125.106001,90.502 C125.386002,90.6513341 125.659,90.7726662 125.925001,90.866 C126.191002,90.9593338 126.524665,91.006 126.926001,91.006 C127.374003,91.006 127.724,90.9266675 127.976001,90.768 C128.228002,90.6093325 128.354001,90.3853348 128.354001,90.096 C128.354001,89.9093324 128.305001,89.7600006 128.207001,89.648 C128.109,89.5359994 127.938669,89.4356671 127.696001,89.347 C127.453333,89.2583329 127.094003,89.1626672 126.618001,89.06 C125.796663,88.8826658 125.206336,88.6423348 124.847001,88.339 C124.487666,88.0356651 124.308001,87.6226693 124.308001,87.1 C124.308001,86.6986647 124.424666,86.3370016 124.658001,86.015 C124.891335,85.6929984 125.213332,85.4433342 125.624001,85.266 C126.03467,85.0886658 126.501332,85 127.024001,85 C127.397336,85 127.761332,85.0489995 128.116001,85.147 C128.470669,85.2450005 128.783333,85.3873324 129.054001,85.574 C129.362002,85.7793344 129.516001,86.017332 129.516001,86.288 C129.516001,86.4373341 129.471668,86.5633328 129.383001,86.666 C129.294334,86.7686672 129.189335,86.82 129.068001,86.82 C128.984,86.82 128.900001,86.8013335 128.816001,86.764 C128.732,86.7266665 128.620002,86.6660004 128.480001,86.582 C128.228,86.4326659 127.992335,86.3160004 127.773001,86.232 C127.553666,86.1479996 127.280669,86.106 126.954001,86.106 C126.561999,86.106 126.247002,86.1899992 126.009001,86.358 C125.771,86.5260008 125.652001,86.7546652 125.652001,87.044 C125.652001,87.3053346 125.761666,87.5083326 125.981001,87.653 C126.200335,87.7976674 126.613331,87.9353327 127.220001,88.066 C127.845337,88.1966673 128.335332,88.3459992 128.690001,88.514 C129.044669,88.6820008 129.299,88.8896654 129.453001,89.137 C129.607002,89.3843346 129.684001,89.6993314 129.684001,90.082 C129.684001,90.6886697 129.42967,91.1763315 128.921001,91.545 C128.412332,91.9136685 127.733338,92.098 126.884001,92.098 Z M138.412001,92.098 C137.459996,92.098 136.680671,91.902002 136.074001,91.51 C135.906,91.4073328 135.787001,91.3000006 135.717001,91.188 C135.647001,91.0759994 135.612001,90.9500007 135.612001,90.81 C135.612001,90.6606659 135.654001,90.5346672 135.738001,90.432 C135.822001,90.3293328 135.929334,90.278 136.060001,90.278 C136.181335,90.278 136.372666,90.3526659 136.634001,90.502 C136.914002,90.6513341 137.187,90.7726662 137.453001,90.866 C137.719002,90.9593338 138.052666,91.006 138.454001,91.006 C138.902003,91.006 139.252,90.9266675 139.504001,90.768 C139.756002,90.6093325 139.882001,90.3853348 139.882001,90.096 C139.882001,89.9093324 139.833002,89.7600006 139.735001,89.648 C139.637001,89.5359994 139.466669,89.4356671 139.224001,89.347 C138.981333,89.2583329 138.622003,89.1626672 138.146001,89.06 C137.324664,88.8826658 136.734336,88.6423348 136.375001,88.339 C136.015666,88.0356651 135.836001,87.6226693 135.836001,87.1 C135.836001,86.6986647 135.952667,86.3370016 136.186001,86.015 C136.419336,85.6929984 136.741332,85.4433342 137.152001,85.266 C137.56267,85.0886658 138.029332,85 138.552001,85 C138.925336,85 139.289333,85.0489995 139.644001,85.147 C139.998669,85.2450005 140.311333,85.3873324 140.582001,85.574 C140.890003,85.7793344 141.044001,86.017332 141.044001,86.288 C141.044001,86.4373341 140.999668,86.5633328 140.911001,86.666 C140.822334,86.7686672 140.717335,86.82 140.596001,86.82 C140.512001,86.82 140.428001,86.8013335 140.344001,86.764 C140.260001,86.7266665 140.148002,86.6660004 140.008001,86.582 C139.756,86.4326659 139.520335,86.3160004 139.301001,86.232 C139.081667,86.1479996 138.808669,86.106 138.482001,86.106 C138.089999,86.106 137.775002,86.1899992 137.537001,86.358 C137.299,86.5260008 137.180001,86.7546652 137.180001,87.044 C137.180001,87.3053346 137.289667,87.5083326 137.509001,87.653 C137.728335,87.7976674 138.141331,87.9353327 138.748001,88.066 C139.373338,88.1966673 139.863333,88.3459992 140.218001,88.514 C140.572669,88.6820008 140.827,88.8896654 140.981001,89.137 C141.135002,89.3843346 141.212001,89.6993314 141.212001,90.082 C141.212001,90.6886697 140.95767,91.1763315 140.449001,91.545 C139.940332,91.9136685 139.261339,92.098 138.412001,92.098 Z M150.430001,85 C151.335339,85 152.009666,85.2286644 152.453001,85.686 C152.896337,86.1433356 153.118001,86.838662 153.118001,87.772 L153.118001,91.398 C153.118001,91.6126677 153.057335,91.7783328 152.936001,91.895 C152.814667,92.0116673 152.646669,92.07 152.432001,92.07 C152.226667,92.07 152.063335,92.0093339 151.942001,91.888 C151.820667,91.7666661 151.760001,91.6033344 151.760001,91.398 L151.760001,90.88 C151.582667,91.272002 151.319003,91.5729989 150.969001,91.783 C150.619,91.9930011 150.21067,92.098 149.744001,92.098 C149.295999,92.098 148.885336,92.0070009 148.512001,91.825 C148.138666,91.6429991 147.847002,91.3886683 147.637001,91.062 C147.427,90.7353317 147.322001,90.3713353 147.322001,89.97 C147.322001,89.4753309 147.450333,89.0856681 147.707001,88.801 C147.963669,88.5163319 148.388332,88.3133339 148.981001,88.192 C149.573671,88.0706661 150.387996,88.01 151.424001,88.01 L151.746001,88.01 L151.746001,87.604 C151.746001,87.0813307 151.638669,86.7033345 151.424001,86.47 C151.209334,86.2366655 150.864004,86.12 150.388001,86.12 C150.061333,86.12 149.753336,86.1619996 149.464001,86.246 C149.174666,86.3300004 148.857336,86.4513325 148.512001,86.61 C148.26,86.7500007 148.082668,86.82 147.980001,86.82 C147.840001,86.82 147.725668,86.7686672 147.637001,86.666 C147.548334,86.5633328 147.504001,86.4326675 147.504001,86.274 C147.504001,86.1339993 147.543668,86.0103339 147.623001,85.903 C147.702335,85.7956661 147.830667,85.6906672 148.008001,85.588 C148.33467,85.4106658 148.717332,85.2683339 149.156001,85.161 C149.59467,85.0536661 150.019333,85 150.430001,85 Z M149.996001,91.048 C150.509337,91.048 150.929333,90.8730018 151.256001,90.523 C151.58267,90.1729983 151.746001,89.7226694 151.746001,89.172 L151.746001,88.808 L151.494001,88.808 C150.765998,88.808 150.206003,88.8406663 149.814001,88.906 C149.421999,88.9713337 149.142002,89.0809992 148.974001,89.235 C148.806,89.3890008 148.722001,89.6106652 148.722001,89.9 C148.722001,90.2360017 148.843333,90.5113323 149.086001,90.726 C149.328669,90.9406677 149.631999,91.048 149.996001,91.048 Z M160.544001,92.07 C160.338667,92.07 160.168335,92.0140006 160.033001,91.902 C159.897667,91.7899994 159.830001,91.6220011 159.830001,91.398 L159.830001,85.714 C159.830001,85.4899989 159.897667,85.3196672 160.033001,85.203 C160.168335,85.0863327 160.338667,85.028 160.544001,85.028 C160.749336,85.028 160.917334,85.0863327 161.048001,85.203 C161.178669,85.3196672 161.244001,85.4899989 161.244001,85.714 L161.244001,91.398 C161.244001,91.6220011 161.178669,91.7899994 161.048001,91.902 C160.917334,92.0140006 160.749336,92.07 160.544001,92.07 Z M160.544001,83.656 C160.273333,83.656 160.058669,83.5813341 159.900001,83.432 C159.741334,83.2826659 159.662001,83.0866679 159.662001,82.844 C159.662001,82.6013321 159.741334,82.4076674 159.900001,82.263 C160.058669,82.1183326 160.273333,82.046 160.544001,82.046 C160.805336,82.046 161.017667,82.1183326 161.181001,82.263 C161.344336,82.4076674 161.426001,82.6013321 161.426001,82.844 C161.426001,83.0866679 161.346669,83.2826659 161.188001,83.432 C161.029334,83.5813341 160.814669,83.656 160.544001,83.656 Z" id="Version-d'essai"></path>
                </g>
            </g>
        </g>
    </g>
</svg>