<?xml version="1.0" encoding="UTF-8"?>
<svg width="514px" height="454px" viewBox="0 0 514 454" version="1.1" xmlns="http://www.w3.org/2000/svg" xmlns:xlink="http://www.w3.org/1999/xlink">
    <!-- Generator: Sketch 48.2 (47327) - http://www.bohemiancoding.com/sketch -->
    <title>PDF平铺_简体中文</title>
    <desc>Created with Sketch.</desc>
    <defs></defs>
    <g id="打印水印-中文简体" stroke="none" stroke-width="1" fill="none" fill-rule="evenodd" transform="translate(-55.000000, -45.000000)" opacity="0.2">
        <g id="PDF平铺_简体中文" transform="translate(56.000000, 46.000000)">
            <polyline id="a" stroke="#989CA2" stroke-width="2" stroke-dasharray="21.60000038146973,21.60000038146973" points="335.58233 433.283008 0 433.283008 0 0 433.290009 0 433.290009 343.314384"></polyline>
            <g id="Group-15" transform="translate(352.183844, 356.789809)" fill="#989CA2">
                <g id="Group-6" transform="translate(-0.000000, 0.000000)">
                    <path d="M78.0517059,24.7781094 L69.9315535,32.0895275 C69.4322039,32.5391439 69.3918872,33.3084328 69.8415036,33.8077824 C70.29112,34.307132 71.0604089,34.3474487 71.5597585,33.8978323 L79.9119574,26.3774786 C79.9173256,26.372645 79.9226408,26.3677745 79.9279029,26.3628677 C80.2656526,26.2057441 80.6208617,26.1059192 80.9874299,26.1059192 C81.3542473,26.1059192 81.7096902,26.2058799 82.0476458,26.3631884 C82.0527955,26.3679867 82.0579961,26.3727503 82.0632474,26.3774786 L90.4154463,33.8978323 C90.9147959,34.3474487 91.6840848,34.307132 92.1337012,33.8077824 C92.5833176,33.3084328 92.5430009,32.5391439 92.0436513,32.0895275 L83.9210998,24.7759493 C83.1825994,23.9998657 82.1412886,23.5163733 80.9874299,23.5163733 C79.832501,23.5163733 78.7903288,24.000763 78.0517059,24.7781094 Z M79.9279029,18.1811946 C79.9226408,18.1762879 79.9173256,18.1714174 79.9119574,18.1665838 L71.5597585,10.6462301 C71.0604089,10.1966137 70.29112,10.2369304 69.8415036,10.73628 C69.3918872,11.2356296 69.4322039,12.0049185 69.9315535,12.4545349 L78.0517059,19.765953 C78.7903288,20.5432994 79.832501,21.0276891 80.9874299,21.0276891 C82.1412886,21.0276891 83.1825994,20.5441966 83.9210998,19.7681131 L92.0436513,12.4545349 C92.5430009,12.0049185 92.5833176,11.2356296 92.1337012,10.73628 C91.6840848,10.2369304 90.9147959,10.1966137 90.4154463,10.6462301 L82.0632474,18.1665838 C82.0579961,18.1713121 82.0527955,18.1760757 82.0476458,18.180874 C81.7096902,18.3381824 81.3542473,18.4381432 80.9874299,18.4381432 C80.6208617,18.4381432 80.2656526,18.3383182 79.9279029,18.1811946 Z M80.8252089,44.8216561 C68.4614917,44.8216561 58.4387187,34.7879866 58.4387187,22.410828 C58.4387187,10.0336695 68.4614917,0 80.8252089,0 C93.1889261,0 103.211699,10.0336695 103.211699,22.410828 C103.211699,34.7879866 93.1889261,44.8216561 80.8252089,44.8216561 Z" id="Combined-Shape"></path>
                    <path d="M18.0565903,59.0261604 C18.419227,58.5852139 18.3477747,57.9401925 17.8969972,57.5854647 C17.4462197,57.2307369 16.7868173,57.3006308 16.4241807,57.7415772 L9.55205656,66.0977065 L2.6799324,57.7415772 C2.31729578,57.3006308 1.65789337,57.2307369 1.2071159,57.5854647 C0.75633843,57.9401925 0.684886157,58.5852139 1.04752278,59.0261604 L8.20762782,67.7324587 L1.04752278,76.438757 C0.684886157,76.8797034 0.75633843,77.5247249 1.2071159,77.8794527 C1.65789337,78.2341805 2.31729578,78.1642865 2.6799324,77.7233401 L9.55205656,69.3672109 L16.4241807,77.7233401 C16.7868173,78.1642865 17.4462197,78.2341805 17.8969972,77.8794527 C18.3477747,77.5247249 18.419227,76.8797034 18.0565903,76.438757 L10.8964853,67.7324587 L18.0565903,59.0261604 Z M59.5261947,68.7247671 C59.5471922,66.3900062 61.9954439,64.3374042 64.2876552,64.1172857 C66.5098541,63.9038904 67.5572909,64.8196948 68.2801053,66.4077657 C68.7121786,67.3570595 68.7087296,68.3212848 68.7087296,69.3604225 L68.7087296,77.0810485 C68.7087296,77.6469687 69.1777269,78.1057376 69.7562643,78.1057376 C70.3348018,78.1057376 70.8037992,77.6469687 70.8037992,77.0810485 L70.8037992,69.255969 C70.8037992,67.3088303 70.6436553,66.489166 70.2044294,65.391945 C69.3768715,63.3246392 67.0487184,61.6254823 64.0025547,62.0242881 C62.1755236,62.2634843 60.5746368,63.1622397 59.5059062,64.4923747 L59.5059062,63.2931842 C59.5059062,62.727264 59.0369089,62.2684951 58.4583713,62.2684951 C57.8798339,62.2684951 57.4108366,62.727264 57.4108366,63.2931842 L57.4108366,77.0810485 C57.4108366,77.6469687 57.8798339,78.1057376 58.4583713,78.1057376 C59.0369089,78.1057376 59.5059062,77.6469687 59.5059062,77.0810485 L59.5059062,68.9528266 C59.5186486,68.8739532 59.5255438,68.7971597 59.5261947,68.7247671 Z M87.737023,57.2348801 C87.737023,56.66896 88.2060204,56.2101911 88.7845577,56.2101911 C89.3630953,56.2101911 89.8320926,56.66896 89.8320926,57.2348801 L89.8320926,77.0810485 C89.8320926,77.6469687 89.3630953,78.1057376 88.7845577,78.1057376 C88.2060204,78.1057376 87.737023,77.6469687 87.737023,77.0810485 L87.737023,75.6110162 C86.369536,77.206622 84.4092279,78.2101911 82.2174436,78.2101911 C78.0438464,78.2101911 74.7095766,74.5712693 74.7095766,70.1348896 C74.7095766,65.6985099 78.0438464,62.0595881 82.2174436,62.0595881 C84.4092279,62.0595881 86.369536,63.0631572 87.737023,64.658763 L87.737023,57.2348801 Z M49.4555517,58.1749618 C49.4555517,57.5225095 49.9962612,56.9935924 50.66326,56.9935924 C51.3302591,56.9935924 51.8709685,57.5225095 51.8709685,58.1749618 L51.8709685,58.5927758 C51.8709685,59.2452281 51.3302591,59.7741452 50.66326,59.7741452 C49.9962612,59.7741452 49.4555517,59.2452281 49.4555517,58.5927758 L49.4555517,58.1749618 Z M49.6157251,62.8753701 C49.6157251,62.30945 50.0847224,61.8506811 50.66326,61.8506811 C51.2417976,61.8506811 51.7107949,62.30945 51.7107949,62.8753701 L51.7107949,77.0810485 C51.7107949,77.6469687 51.2417976,78.1057376 50.66326,78.1057376 C50.0847224,78.1057376 49.6157251,77.6469687 49.6157251,77.0810485 L49.6157251,62.8753701 Z M82.2174436,76.1608131 C85.179732,76.1608131 87.6302407,73.4864014 87.6302407,70.1348896 C87.6302407,66.7833778 85.179732,64.1089661 82.2174436,64.1089661 C79.2551551,64.1089661 76.8046462,66.7833778 76.8046462,70.1348896 C76.8046462,73.4864014 79.2551551,76.1608131 82.2174436,76.1608131 Z M32.1029364,72.1872615 C32.0549684,72.1111618 29.8825843,68.5582139 25.5629913,61.5923327 L24.4730014,77.149478 C24.4328254,77.714032 23.9399661,78.1425637 23.3628254,78.1032638 C22.7856846,78.063964 22.3436746,77.5765294 22.3838507,77.0119756 L23.7160632,58.3127102 C23.7869312,57.3168736 25.2129086,56.9979195 25.7446553,57.8499408 C29.6810659,64.1572774 32.1869624,68.232504 33.3140376,70.037997 C34.4403591,68.2316221 36.9473412,64.1576894 40.88342,57.8503709 C41.4149228,56.9986711 42.8511968,57.3156347 42.912012,58.3119792 L44.2442246,77.0119756 C44.278706,77.5768897 43.8427588,78.0701866 43.2652499,78.103916 C42.6877407,78.1376453 42.1895551,77.714392 42.1550738,77.149478 L41.065084,61.5923327 C36.745491,68.5659638 34.5756837,72.1092511 34.5251388,72.1876904 C34.2832207,72.5631167 33.8038792,72.7905711 33.3140376,72.7906493 C32.824196,72.7907275 32.3381462,72.560414 32.1029364,72.1872615 Z M128.991031,75.7537674 L139.083541,75.7537674 C139.662116,75.7537674 140.131143,76.210197 140.131143,76.7732316 C140.131143,77.3362662 139.662116,77.7926959 139.083541,77.7926959 L127.679004,77.7926959 C127.10043,77.7926959 126.631402,77.3362662 126.631402,76.7732316 L126.631402,58.6411865 C126.631402,58.0781519 127.10043,57.6217222 127.679004,57.6217222 L139.083541,57.6217222 C139.662116,57.6217222 140.131143,58.0781519 140.131143,58.6411865 C140.131143,59.2042211 139.662116,59.6606508 139.083541,59.6606508 L128.991031,59.6606508 L128.991031,66.5206654 L138.518597,66.5206654 C139.097172,66.5206654 139.566199,66.9770951 139.566199,67.5401297 C139.566199,68.1031643 139.097172,68.559594 138.518597,68.559594 L128.991031,68.559594 L128.991031,75.7537674 Z M107.604101,76.1646346 L119.762753,59.6955629 L108.461644,59.6955629 C107.883069,59.6955629 107.414041,59.2391332 107.414041,58.6760986 C107.414041,58.113064 107.883069,57.6566343 108.461644,57.6566343 L121.777646,57.6566343 C122.532169,57.6566343 123.118205,58.4724766 122.635189,59.2616767 L110.476536,75.7307484 L122.04218,75.7307484 C122.620755,75.7307484 123.089783,76.1871781 123.089783,76.7502127 C123.089783,77.3132474 122.620755,77.769677 122.04218,77.769677 L108.461644,77.769677 C107.63665,77.769677 107.149445,76.859385 107.604101,76.1646346 Z M158.786998,77.5454224 L146.184382,61.630306 L146.184382,76.9943098 C146.184382,77.5573442 145.760268,78.0821481 145.076461,78.0718011 C144.392654,78.061454 143.968305,77.5573442 143.968305,76.9943098 L143.968305,58.6478524 C143.968305,57.6025157 145.320101,57.1661019 145.994815,58.0248055 L158.602445,74.0104654 L158.602445,58.6478524 C158.602445,58.0848178 159.052912,57.5766549 159.70858,57.5689704 C160.364248,57.5612859 160.816156,58.0848178 160.816156,58.6478524 L160.816156,76.8704628 C160.816156,77.9495253 159.518532,78.3725228 158.786998,77.5454224 Z M99.1172017,66.6209054 C98.2253714,66.6209054 97.5024001,65.9173528 97.5024001,65.0494768 C97.5024001,64.1816008 98.2253714,63.4780482 99.1172017,63.4780482 C100.009032,63.4780482 100.732003,64.1816008 100.732003,65.0494768 C100.732003,65.9173528 100.009032,66.6209054 99.1172017,66.6209054 Z M99.1172017,74.4780482 C98.2253714,74.4780482 97.5024001,73.7744957 97.5024001,72.9066197 C97.5024001,72.0387436 98.2253714,71.3351911 99.1172017,71.3351911 C100.009032,71.3351911 100.732003,72.0387436 100.732003,72.9066197 C100.732003,73.7744957 100.009032,74.4780482 99.1172017,74.4780482 Z" id="Combined-Shape" fill-rule="nonzero"></path>
                    <path d="M59.426,89.352 L58.222,89.352 L58.222,88.106 L61.932,88.106 L61.932,89.352 L60.728,89.352 L60.728,92.796 C61.288,92.67 61.848,92.53 62.394,92.376 L62.394,93.622 C61.176,93.958 59.874,94.252 58.488,94.49 L58.166,93.216 C58.586,93.16 59.006,93.104 59.426,93.034 L59.426,89.352 Z M64.886,95.316 C64.382,95.316 63.92,94.938 63.528,94.21 C63.08,93.328 62.758,92.166 62.562,90.738 C62.394,89.506 62.282,88.008 62.226,86.216 L57.9,86.216 L57.9,84.928 L62.198,84.928 C62.17,84.144 62.17,83.318 62.17,82.478 L63.458,82.478 C63.458,83.346 63.458,84.158 63.486,84.928 L66.16,84.928 L66.16,86.216 L63.514,86.216 C63.57,88.358 63.71,90.08 63.906,91.368 C64.186,92.964 64.508,93.79 64.886,93.86 C65.11,93.832 65.334,93.006 65.586,91.41 L66.636,92.264 C66.132,94.294 65.558,95.316 64.886,95.316 Z M64.634,82.464 C65.222,83.108 65.67,83.682 66.006,84.158 L65.082,84.802 C64.746,84.27 64.284,83.682 63.724,83.038 L64.634,82.464 Z M55.422,82.632 C56.29,83.318 57.018,84.004 57.606,84.704 L56.696,85.628 C56.164,84.97 55.422,84.27 54.498,83.542 L55.422,82.632 Z M53.532,86.692 L56.682,86.692 L56.682,92.46 C57.004,92.138 57.34,91.788 57.69,91.396 L58.04,92.796 C57.256,93.636 56.43,94.378 55.548,95.022 L55.044,93.832 C55.268,93.636 55.394,93.412 55.394,93.146 L55.394,87.966 L53.532,87.966 L53.532,86.692 Z M76.9440002,87.602 L76.9440002,89.744 L80.1640002,89.744 L80.1640002,87.602 L76.9440002,87.602 Z M76.8740002,90.976 C76.7060002,92.74 76.1880002,94.196 75.3200002,95.344 L74.2980002,94.434 C75.1380002,93.23 75.5720002,91.704 75.6000002,89.856 L75.6000002,82.996 L86.3380002,82.996 L86.3380002,93.538 C86.3380002,94.588 85.7920002,95.12 84.7280002,95.12 L83.1180002,95.12 L82.7680002,93.818 C83.3140002,93.86 83.8180002,93.888 84.2940002,93.888 C84.7420002,93.888 84.9800002,93.608 84.9800002,93.062 L84.9800002,90.976 L81.5080002,90.976 L81.5080002,94.966 L80.1640002,94.966 L80.1640002,90.976 L76.8740002,90.976 Z M84.9800002,89.744 L84.9800002,87.602 L81.5080002,87.602 L81.5080002,89.744 L84.9800002,89.744 Z M84.9800002,86.384 L84.9800002,84.284 L81.5080002,84.284 L81.5080002,86.384 L84.9800002,86.384 Z M80.1640002,84.284 L76.9440002,84.284 L76.9440002,86.384 L80.1640002,86.384 L80.1640002,84.284 Z M98.4520004,82.674 L99.7540004,82.674 L99.7540004,86.272 L100.426,86.272 L100.426,87.574 L97.2760004,87.574 L97.2760004,88.106 C97.2760004,88.498 97.2620004,88.876 97.2480004,89.24 L99.9360004,89.24 L99.9360004,95.386 L98.6340004,95.386 L98.6340004,90.514 L97.1780004,90.514 C97.0100004,92.558 96.6320004,94.126 96.0720004,95.218 L95.0640004,94.35 C95.6520004,93.034 95.9600004,90.962 95.9740004,88.106 L95.9740004,82.954 L97.2760004,82.954 L97.2760004,86.272 L98.4520004,86.272 L98.4520004,82.674 Z M102.344,87.756 L102.344,88.932 C102.288,91.62 101.812,93.776 100.916,95.372 L100.006,94.406 C100.706,93.09 101.07,91.256 101.126,88.932 L101.126,83.5 C103.352,83.458 105.34,83.164 107.104,82.604 L107.748,83.794 C106.124,84.27 104.332,84.55 102.344,84.634 L102.344,86.496 L107.454,86.496 L107.454,87.63 C107.146,89.478 106.586,91.06 105.746,92.348 C106.39,93.188 107.16,93.846 108.07,94.308 L107.412,95.47 C106.418,94.966 105.592,94.28 104.92,93.44 C104.192,94.252 103.324,94.938 102.316,95.484 L101.686,94.308 C102.666,93.762 103.478,93.09 104.15,92.306 C103.436,91.06 102.946,89.548 102.666,87.756 L102.344,87.756 Z M103.856,87.756 C104.108,89.044 104.472,90.178 104.976,91.13 C105.55,90.136 105.956,89.016 106.18,87.756 L103.856,87.756 Z" id="试用版"></path>
                </g>
            </g>
        </g>
    </g>
</svg>