<svg xmlns="http://www.w3.org/2000/svg" xmlns:xlink="http://www.w3.org/1999/xlink" width="26" height="19" viewBox="0 0 26 19">
    <defs>
        <path id="a" d="M0 1h18.995L24 5.972V18H0z"/>
    </defs>
    <g fill="none" fill-rule="evenodd">
        <path d="M-3-6h32v32H-3z"/>
        <g transform="translate(1)">
            <use fill="#FFF" xlink:href="#a"/>
            <path stroke="#434B54" d="M-.5.5h19.7l5.3 5.264V18.5h-25V.5z"/>
        </g>
        <g transform="translate(5.5 6)">
            <path stroke="#E1E4E6" stroke-width=".5" d="M9.019 3.32C9.82.63 11.81.63 11.81.63M9.019 3.322c.802 2.691 2.792 2.691 2.792 2.691"/>
            <rect width="3.248" height="1.531" x="11.74" y="5.385" fill="#E1E4E6" rx=".096"/>
            <rect width="3.248" height="1.531" x="11.74" fill="#E1E4E6" rx=".096"/>
            <path stroke="#E1E4E6" stroke-width=".5" d="M6.002 3.32C5.199.63 3.21.63 3.21.63M6.002 3.322C5.199 6.013 3.21 6.013 3.21 6.013"/>
            <rect width="3.248" height="1.531" x=".032" y="5.385" fill="#E1E4E6" rx=".096" transform="matrix(-1 0 0 1 3.313 0)"/>
            <rect width="3.248" height="1.531" x=".032" fill="#E1E4E6" rx=".096" transform="matrix(-1 0 0 1 3.313 0)"/>
            <rect width="5.541" height="2.625" x="4.719" y="2.078" fill="#E1E4E6" rx=".096"/>
        </g>
        <path stroke="#434B54" d="M24.77 5.504l-4.273-4.29v4.29h4.273z"/>
    </g>
</svg>
