<svg xmlns="http://www.w3.org/2000/svg" xmlns:xlink="http://www.w3.org/1999/xlink" width="20" height="25" viewBox="0 0 20 25">
    <defs>
        <path id="a" d="M2.106 4H20v17H-2V8.479z"/>
    </defs>
    <g fill="none" fill-rule="evenodd">
        <g transform="rotate(90 9.5 13)">
            <use fill="#FFF" xlink:href="#a"/>
            <path stroke="#434B54" d="M1.886 3.5H20.5v18h-23V8.284L1.886 3.5z"/>
        </g>
        <path stroke="#434B54" d="M18.272 5.508l-3.76-3.776v3.776h3.76z"/>
        <g transform="translate(2.5 10)">
            <path stroke="#E1E4E6" stroke-width=".5" d="M9.019 3.32C9.82.63 11.81.63 11.81.63M9.019 3.322c.802 2.691 2.792 2.691 2.792 2.691"/>
            <rect width="3.248" height="1.531" x="11.74" y="5.385" fill="#E1E4E6" rx=".096"/>
            <rect width="3.248" height="1.531" x="11.74" fill="#E1E4E6" rx=".096"/>
            <path stroke="#E1E4E6" stroke-width=".5" d="M6.002 3.32C5.199.63 3.21.63 3.21.63M6.002 3.322C5.199 6.013 3.21 6.013 3.21 6.013"/>
            <rect width="3.248" height="1.531" x=".032" y="5.385" fill="#E1E4E6" rx=".096" transform="matrix(-1 0 0 1 3.313 0)"/>
            <rect width="3.248" height="1.531" x=".032" fill="#E1E4E6" rx=".096" transform="matrix(-1 0 0 1 3.313 0)"/>
            <rect width="5.541" height="2.625" x="4.719" y="2.078" fill="#E1E4E6" rx=".096"/>
        </g>
    </g>
</svg>
