<?xml version="1.0" encoding="UTF-8"?>
<svg width="514px" height="450px" viewBox="0 0 514 450" version="1.1" xmlns="http://www.w3.org/2000/svg" xmlns:xlink="http://www.w3.org/1999/xlink">
    <!-- Generator: Sketch 48.2 (47327) - http://www.bohemiancoding.com/sketch -->
    <title>PDF平铺_English</title>
    <desc>Created with Sketch.</desc>
    <defs></defs>
    <g id="打印水印-英文" stroke="none" stroke-width="1" fill="none" fill-rule="evenodd" transform="translate(-55.000000, -46.000000)" opacity="0.2">
        <g id="PDF平铺_English" transform="translate(56.000000, 47.000000)">
            <polyline id="a" stroke="#989CA2" stroke-width="2" stroke-dasharray="21.60000038146973,21.60000038146973" points="335.58233 433.283008 0 433.283008 0 0 433.290009 0 433.290009 343.314384"></polyline>
            <path d="M430.23555,380.567918 L422.115397,387.879336 C421.616048,388.328953 421.575731,389.098242 422.025348,389.597591 C422.474964,390.096941 423.244253,390.137258 423.743602,389.687641 L432.095801,382.167288 C432.10117,382.162454 432.106485,382.157583 432.111747,382.152677 C432.449497,381.995553 432.804706,381.895728 433.171274,381.895728 C433.538091,381.895728 433.893534,381.995689 434.23149,382.152997 C434.23664,382.157796 434.24184,382.162559 434.247091,382.167288 L442.59929,389.687641 C443.09864,390.137258 443.867929,390.096941 444.317545,389.597591 C444.767162,389.098242 444.726845,388.328953 444.227495,387.879336 L436.104944,380.565758 C435.366443,379.789675 434.325133,379.306182 433.171274,379.306182 C432.016345,379.306182 430.974173,379.790572 430.23555,380.567918 Z M432.111747,373.971004 C432.106485,373.966097 432.10117,373.961226 432.095801,373.956393 L423.743602,366.436039 C423.244253,365.986423 422.474964,366.026739 422.025348,366.526089 C421.575731,367.025439 421.616048,367.794727 422.115397,368.244344 L430.23555,375.555762 C430.974173,376.333108 432.016345,376.817498 433.171274,376.817498 C434.325133,376.817498 435.366443,376.334006 436.104944,375.557922 L444.227495,368.244344 C444.726845,367.794727 444.767162,367.025439 444.317545,366.526089 C443.867929,366.026739 443.09864,365.986423 442.59929,366.436039 L434.247091,373.956393 C434.24184,373.961121 434.23664,373.965885 434.23149,373.970683 C433.893534,374.127991 433.538091,374.227952 433.171274,374.227952 C432.804706,374.227952 432.449497,374.128127 432.111747,373.971004 Z M433.009053,400.611465 C420.645336,400.611465 410.622563,390.577795 410.622563,378.200637 C410.622563,365.823478 420.645336,355.789809 433.009053,355.789809 C445.37277,355.789809 455.395543,365.823478 455.395543,378.200637 C455.395543,390.577795 445.37277,400.611465 433.009053,400.611465 Z" id="Combined-Shape" fill="#989CA2"></path>
            <path d="M370.240434,414.815969 C370.603071,414.375023 370.531619,413.730001 370.080841,413.375274 C369.630064,413.020546 368.970661,413.09044 368.608025,413.531386 L361.735901,421.887515 L354.863776,413.531386 C354.50114,413.09044 353.841737,413.020546 353.39096,413.375274 C352.940182,413.730001 352.86873,414.375023 353.231367,414.815969 L360.391472,423.522268 L353.231367,432.228566 C352.86873,432.669512 352.940182,433.314534 353.39096,433.669262 C353.841737,434.023989 354.50114,433.954095 354.863776,433.513149 L361.735901,425.15702 L368.608025,433.513149 C368.970661,433.954095 369.630064,434.023989 370.080841,433.669262 C370.531619,433.314534 370.603071,432.669512 370.240434,432.228566 L363.080329,423.522268 L370.240434,414.815969 Z M411.710039,424.514576 C411.731036,422.179815 414.179288,420.127213 416.471499,419.907095 C418.693698,419.693699 419.741135,420.609504 420.463949,422.197575 C420.896023,423.146868 420.892574,424.111094 420.892574,425.150231 L420.892574,432.870857 C420.892574,433.436778 421.361571,433.895547 421.940108,433.895547 C422.518646,433.895547 422.987643,433.436778 422.987643,432.870857 L422.987643,425.045778 C422.987643,423.098639 422.827499,422.278975 422.388273,421.181754 C421.560715,419.114448 419.232562,417.415291 416.186399,417.814097 C414.359368,418.053293 412.758481,418.952049 411.68975,420.282184 L411.68975,419.082993 C411.68975,418.517073 411.220753,418.058304 410.642215,418.058304 C410.063678,418.058304 409.594681,418.517073 409.594681,419.082993 L409.594681,432.870857 C409.594681,433.436778 410.063678,433.895547 410.642215,433.895547 C411.220753,433.895547 411.68975,433.436778 411.68975,432.870857 L411.68975,424.742635 C411.702493,424.663762 411.709388,424.586969 411.710039,424.514576 Z M439.920867,413.024689 C439.920867,412.458769 440.389864,412 440.968402,412 C441.546939,412 442.015937,412.458769 442.015937,413.024689 L442.015937,432.870857 C442.015937,433.436778 441.546939,433.895547 440.968402,433.895547 C440.389864,433.895547 439.920867,433.436778 439.920867,432.870857 L439.920867,431.400825 C438.55338,432.996431 436.593072,434 434.401288,434 C430.22769,434 426.893421,430.361078 426.893421,425.924699 C426.893421,421.488319 430.22769,417.849397 434.401288,417.849397 C436.593072,417.849397 438.55338,418.852966 439.920867,420.448572 L439.920867,413.024689 Z M401.639396,413.964771 C401.639396,413.312318 402.180105,412.783401 402.847104,412.783401 C403.514103,412.783401 404.054813,413.312318 404.054813,413.964771 L404.054813,414.382585 C404.054813,415.035037 403.514103,415.563954 402.847104,415.563954 C402.180105,415.563954 401.639396,415.035037 401.639396,414.382585 L401.639396,413.964771 Z M401.799569,418.665179 C401.799569,418.099259 402.268566,417.64049 402.847104,417.64049 C403.425642,417.64049 403.894639,418.099259 403.894639,418.665179 L403.894639,432.870857 C403.894639,433.436778 403.425642,433.895547 402.847104,433.895547 C402.268566,433.895547 401.799569,433.436778 401.799569,432.870857 L401.799569,418.665179 Z M434.401288,431.950622 C437.363576,431.950622 439.814085,429.27621 439.814085,425.924699 C439.814085,422.573187 437.363576,419.898775 434.401288,419.898775 C431.438999,419.898775 428.98849,422.573187 428.98849,425.924699 C428.98849,429.27621 431.438999,431.950622 434.401288,431.950622 Z M384.28678,427.97707 C384.238812,427.900971 382.066428,424.348023 377.746835,417.382142 L376.656845,432.939287 C376.616669,433.503841 376.12381,433.932373 375.546669,433.893073 C374.969529,433.853773 374.527519,433.366338 374.567695,432.801785 L375.899907,414.102519 C375.970775,413.106682 377.396753,412.787728 377.928499,413.63975 C381.86491,419.947086 384.370806,424.022313 385.497882,425.827806 C386.624203,424.021431 389.131185,419.947498 393.067264,413.64018 C393.598767,412.78848 395.035041,413.105444 395.095856,414.101788 L396.428069,432.801785 C396.46255,433.366699 396.026603,433.859996 395.449094,433.893725 C394.871585,433.927454 394.373399,433.504201 394.338918,432.939287 L393.248928,417.382142 C388.929335,424.355773 386.759528,427.89906 386.708983,427.977499 C386.467065,428.352926 385.987723,428.58038 385.497882,428.580458 C385.00804,428.580536 384.52199,428.350223 384.28678,427.97707 Z M481.174875,431.543576 L491.267385,431.543576 C491.84596,431.543576 492.314987,432.000006 492.314987,432.563041 C492.314987,433.126075 491.84596,433.582505 491.267385,433.582505 L479.862848,433.582505 C479.284274,433.582505 478.815246,433.126075 478.815246,432.563041 L478.815246,414.430995 C478.815246,413.867961 479.284274,413.411531 479.862848,413.411531 L491.267385,413.411531 C491.84596,413.411531 492.314987,413.867961 492.314987,414.430995 C492.314987,414.99403 491.84596,415.45046 491.267385,415.45046 L481.174875,415.45046 L481.174875,422.310474 L490.702441,422.310474 C491.281016,422.310474 491.750043,422.766904 491.750043,423.329939 C491.750043,423.892973 491.281016,424.349403 490.702441,424.349403 L481.174875,424.349403 L481.174875,431.543576 Z M459.787945,431.954444 L471.946597,415.485372 L460.645488,415.485372 C460.066913,415.485372 459.597885,415.028942 459.597885,414.465907 C459.597885,413.902873 460.066913,413.446443 460.645488,413.446443 L473.96149,413.446443 C474.716013,413.446443 475.302049,414.262285 474.819033,415.051486 L462.66038,431.520557 L474.226024,431.520557 C474.804599,431.520557 475.273627,431.976987 475.273627,432.540022 C475.273627,433.103056 474.804599,433.559486 474.226024,433.559486 L460.645488,433.559486 C459.820494,433.559486 459.333289,432.649194 459.787945,431.954444 Z M510.970842,433.335231 L498.368226,417.420115 L498.368226,432.784119 C498.368226,433.347153 497.944112,433.871957 497.260305,433.86161 C496.576498,433.851263 496.152149,433.347153 496.152149,432.784119 L496.152149,414.437661 C496.152149,413.392325 497.503945,412.955911 498.178659,413.814614 L510.786289,429.800274 L510.786289,414.437661 C510.786289,413.874627 511.236756,413.366464 511.892424,413.358779 C512.548092,413.351095 513,413.874627 513,414.437661 L513,432.660272 C513,433.739334 511.702376,434.162332 510.970842,433.335231 Z M451.301046,422.410714 C450.409215,422.410714 449.686244,421.707162 449.686244,420.839286 C449.686244,419.97141 450.409215,419.267857 451.301046,419.267857 C452.192876,419.267857 452.915847,419.97141 452.915847,420.839286 C452.915847,421.707162 452.192876,422.410714 451.301046,422.410714 Z M451.301046,430.267857 C450.409215,430.267857 449.686244,429.564305 449.686244,428.696429 C449.686244,427.828553 450.409215,427.125 451.301046,427.125 C452.192876,427.125 452.915847,427.828553 452.915847,428.696429 C452.915847,429.564305 452.192876,430.267857 451.301046,430.267857 Z" id="Combined-Shape" fill="#989CA2" fill-rule="nonzero"></path>
            <path d="M357.228,448.07 C357.013332,448.07 356.838334,448.002334 356.703,447.867 C356.567666,447.731666 356.5,447.556668 356.5,447.342 L356.5,439.334 L353.7,439.334 C353.251998,439.334 353.028,439.133335 353.028,438.732 C353.028,438.535999 353.086333,438.386667 353.203,438.284 C353.319667,438.181333 353.485332,438.13 353.7,438.13 L360.756,438.13 C360.970668,438.13 361.136333,438.181333 361.253,438.284 C361.369667,438.386667 361.428,438.535999 361.428,438.732 C361.428,439.133335 361.204002,439.334 360.756,439.334 L357.956,439.334 L357.956,447.342 C357.956,447.556668 357.890667,447.731666 357.76,447.867 C357.629333,448.002334 357.452001,448.07 357.228,448.07 Z M371.736,441.028 C372.184002,441 372.408,441.191331 372.408,441.602 C372.408,441.807334 372.356667,441.961333 372.254,442.064 C372.151333,442.166667 371.974001,442.227333 371.722,442.246 L371.302,442.288 C370.713997,442.344 370.277668,442.549332 369.993,442.904 C369.708332,443.258668 369.566,443.687997 369.566,444.192 L369.566,447.398 C369.566,447.622001 369.500668,447.789999 369.37,447.902 C369.239333,448.014001 369.071335,448.07 368.866,448.07 C368.660666,448.07 368.490334,448.014001 368.355,447.902 C368.219666,447.789999 368.152,447.622001 368.152,447.398 L368.152,441.7 C368.152,441.485332 368.219666,441.319667 368.355,441.203 C368.490334,441.086333 368.660666,441.028 368.866,441.028 C369.052668,441.028 369.209,441.086333 369.335,441.203 C369.461001,441.319667 369.524,441.480666 369.524,441.686 L369.524,442.358 C369.710668,441.947331 369.981332,441.634668 370.336,441.42 C370.690669,441.205332 371.091998,441.079334 371.54,441.042 L371.736,441.028 Z M380.77,448.07 C380.564666,448.07 380.394334,448.014001 380.259,447.902 C380.123666,447.789999 380.056,447.622001 380.056,447.398 L380.056,441.714 C380.056,441.489999 380.123666,441.319667 380.259,441.203 C380.394334,441.086333 380.564666,441.028 380.77,441.028 C380.975335,441.028 381.143333,441.086333 381.274,441.203 C381.404668,441.319667 381.47,441.489999 381.47,441.714 L381.47,447.398 C381.47,447.622001 381.404668,447.789999 381.274,447.902 C381.143333,448.014001 380.975335,448.07 380.77,448.07 Z M380.77,439.656 C380.499332,439.656 380.284668,439.581334 380.126,439.432 C379.967333,439.282666 379.888,439.086668 379.888,438.844 C379.888,438.601332 379.967333,438.407667 380.126,438.263 C380.284668,438.118333 380.499332,438.046 380.77,438.046 C381.031335,438.046 381.243666,438.118333 381.407,438.263 C381.570335,438.407667 381.652,438.601332 381.652,438.844 C381.652,439.086668 381.572668,439.282666 381.414,439.432 C381.255333,439.581334 381.040668,439.656 380.77,439.656 Z M393.094001,441 C393.999338,441 394.673665,441.228664 395.117001,441.686 C395.560336,442.143336 395.782001,442.838662 395.782001,443.772 L395.782001,447.398 C395.782001,447.612668 395.721335,447.778333 395.600001,447.895 C395.478667,448.011667 395.310668,448.07 395.096001,448.07 C394.890666,448.07 394.727335,448.009334 394.606001,447.888 C394.484667,447.766666 394.424001,447.603334 394.424001,447.398 L394.424001,446.88 C394.246666,447.272002 393.983002,447.572999 393.633001,447.783 C393.282999,447.993001 392.87467,448.098 392.408001,448.098 C391.959998,448.098 391.549336,448.007001 391.176001,447.825 C390.802665,447.642999 390.511002,447.388668 390.301001,447.062 C390.091,446.735332 389.986001,446.371335 389.986001,445.97 C389.986001,445.475331 390.114333,445.085668 390.371001,444.801 C390.627669,444.516332 391.052331,444.313334 391.645001,444.192 C392.23767,444.070666 393.051995,444.01 394.088001,444.01 L394.410001,444.01 L394.410001,443.604 C394.410001,443.081331 394.302668,442.703334 394.088001,442.47 C393.873333,442.236665 393.528003,442.12 393.052001,442.12 C392.725332,442.12 392.417335,442.162 392.128001,442.246 C391.838666,442.33 391.521336,442.451333 391.176001,442.61 C390.923999,442.750001 390.746668,442.82 390.644001,442.82 C390.504,442.82 390.389668,442.768667 390.301001,442.666 C390.212334,442.563333 390.168001,442.432667 390.168001,442.274 C390.168001,442.133999 390.207667,442.010334 390.287001,441.903 C390.366334,441.795666 390.494666,441.690667 390.672001,441.588 C390.998669,441.410666 391.381332,441.268334 391.820001,441.161 C392.258669,441.053666 392.683332,441 393.094001,441 Z M392.660001,447.048 C393.173337,447.048 393.593332,446.873002 393.920001,446.523 C394.246669,446.172998 394.410001,445.722669 394.410001,445.172 L394.410001,444.808 L394.158001,444.808 C393.429997,444.808 392.870003,444.840666 392.478001,444.906 C392.085999,444.971334 391.806001,445.080999 391.638001,445.235 C391.47,445.389001 391.386001,445.610665 391.386001,445.9 C391.386001,446.236002 391.507333,446.511332 391.750001,446.726 C391.992669,446.940668 392.295999,447.048 392.660001,447.048 Z M405.208001,448.07 C405.002666,448.07 404.832335,448.014001 404.697001,447.902 C404.561667,447.789999 404.494001,447.622001 404.494001,447.398 L404.494001,438.746 C404.494001,438.521999 404.561667,438.351667 404.697001,438.235 C404.832335,438.118333 405.002666,438.06 405.208001,438.06 C405.413335,438.06 405.581334,438.118333 405.712001,438.235 C405.842668,438.351667 405.908001,438.521999 405.908001,438.746 L405.908001,447.398 C405.908001,447.622001 405.842668,447.789999 405.712001,447.902 C405.581334,448.014001 405.413335,448.07 405.208001,448.07 Z M432.516001,438.438 C432.637335,438.176665 432.838,438.046 433.118001,438.046 C433.304669,438.046 433.472667,438.108999 433.622001,438.235 C433.771335,438.361001 433.846001,438.512666 433.846001,438.69 C433.846001,438.755334 433.822668,438.843999 433.776001,438.956 L429.828001,447.608 C429.762668,447.757334 429.660002,447.874 429.520001,447.958 C429.380001,448.042 429.230669,448.084 429.072001,448.084 C428.913334,448.084 428.761669,448.042 428.617001,447.958 C428.472334,447.874 428.367335,447.757334 428.302001,447.608 L424.368001,438.956 C424.321334,438.843999 424.298001,438.755334 424.298001,438.69 C424.298001,438.503332 424.375,438.349334 424.529001,438.228 C424.683002,438.106666 424.853334,438.046 425.040001,438.046 C425.329336,438.046 425.534667,438.176665 425.656001,438.438 L429.086001,446.124 L432.516001,438.438 Z M446.282001,446.278 C446.412669,446.278 446.520001,446.329333 446.604001,446.432 C446.688002,446.534667 446.730001,446.665333 446.730001,446.824 C446.730001,447.094668 446.562003,447.323332 446.226001,447.51 C445.899333,447.696668 445.542337,447.841333 445.155001,447.944 C444.767666,448.046667 444.39667,448.098 444.042001,448.098 C442.959329,448.098 442.105338,447.783003 441.480001,447.153 C440.854665,446.522997 440.542001,445.662005 440.542001,444.57 C440.542001,443.869996 440.679667,443.249336 440.955001,442.708 C441.230336,442.166664 441.617666,441.746668 442.117001,441.448 C442.616337,441.149332 443.183332,441 443.818001,441 C444.732673,441 445.455999,441.293997 445.988001,441.882 C446.520004,442.470003 446.786001,443.263328 446.786001,444.262 C446.786001,444.635335 446.618003,444.822 446.282001,444.822 L441.956001,444.822 C442.049335,446.268674 442.744662,446.992 444.042001,446.992 C444.387337,446.992 444.686,446.945334 444.938001,446.852 C445.190003,446.758666 445.456,446.637334 445.736001,446.488 C445.764002,446.469333 445.841001,446.429667 445.967001,446.369 C446.093002,446.308333 446.198001,446.278 446.282001,446.278 Z M443.846001,442.036 C443.304665,442.036 442.87067,442.208665 442.544001,442.554 C442.217333,442.899335 442.021335,443.384664 441.956001,444.01 L445.568001,444.01 C445.540001,443.37533 445.379003,442.887668 445.085001,442.547 C444.791,442.206332 444.378004,442.036 443.846001,442.036 Z M458.704002,441.028 C459.152004,441 459.376002,441.191331 459.376002,441.602 C459.376002,441.807334 459.324669,441.961333 459.222002,442.064 C459.119334,442.166667 458.942003,442.227333 458.690002,442.246 L458.270002,442.288 C457.681999,442.344 457.24567,442.549332 456.961002,442.904 C456.676334,443.258668 456.534002,443.687997 456.534002,444.192 L456.534002,447.398 C456.534002,447.622001 456.468669,447.789999 456.338002,447.902 C456.207334,448.014001 456.039336,448.07 455.834002,448.07 C455.628667,448.07 455.458336,448.014001 455.323002,447.902 C455.187668,447.789999 455.120002,447.622001 455.120002,447.398 L455.120002,441.7 C455.120002,441.485332 455.187668,441.319667 455.323002,441.203 C455.458336,441.086333 455.628667,441.028 455.834002,441.028 C456.020669,441.028 456.177001,441.086333 456.303002,441.203 C456.429002,441.319667 456.492002,441.480666 456.492002,441.686 L456.492002,442.358 C456.678669,441.947331 456.949333,441.634668 457.304002,441.42 C457.65867,441.205332 458.059999,441.079334 458.508002,441.042 L458.704002,441.028 Z M469.334002,448.098 C468.381997,448.098 467.602672,447.902002 466.996002,447.51 C466.828001,447.407333 466.709002,447.300001 466.639002,447.188 C466.569002,447.075999 466.534002,446.950001 466.534002,446.81 C466.534002,446.660666 466.576001,446.534667 466.660002,446.432 C466.744002,446.329333 466.851335,446.278 466.982002,446.278 C467.103336,446.278 467.294667,446.352666 467.556002,446.502 C467.836003,446.651334 468.109001,446.772666 468.375002,446.866 C468.641003,446.959334 468.974667,447.006 469.376002,447.006 C469.824004,447.006 470.174001,446.926667 470.426002,446.768 C470.678003,446.609333 470.804002,446.385335 470.804002,446.096 C470.804002,445.909332 470.755002,445.760001 470.657002,445.648 C470.559001,445.535999 470.38867,445.435667 470.146002,445.347 C469.903334,445.258333 469.544004,445.162667 469.068002,445.06 C468.246664,444.882666 467.656337,444.642335 467.297002,444.339 C466.937667,444.035665 466.758002,443.622669 466.758002,443.1 C466.758002,442.698665 466.874667,442.337002 467.108002,442.015 C467.341336,441.692998 467.663333,441.443334 468.074002,441.266 C468.484671,441.088666 468.951333,441 469.474002,441 C469.847337,441 470.211333,441.049 470.566002,441.147 C470.92067,441.245 471.233334,441.387332 471.504002,441.574 C471.812003,441.779334 471.966002,442.017332 471.966002,442.288 C471.966002,442.437334 471.921669,442.563333 471.833002,442.666 C471.744335,442.768667 471.639336,442.82 471.518002,442.82 C471.434001,442.82 471.350002,442.801334 471.266002,442.764 C471.182001,442.726666 471.070003,442.666 470.930002,442.582 C470.678001,442.432666 470.442336,442.316 470.223002,442.232 C470.003667,442.148 469.73067,442.106 469.404002,442.106 C469.012,442.106 468.697003,442.189999 468.459002,442.358 C468.221001,442.526001 468.102002,442.754665 468.102002,443.044 C468.102002,443.305335 468.211667,443.508333 468.431002,443.653 C468.650336,443.797667 469.063332,443.935333 469.670002,444.066 C470.295338,444.196667 470.785333,444.345999 471.140002,444.514 C471.49467,444.682001 471.749001,444.889665 471.903002,445.137 C472.057003,445.384335 472.134002,445.699331 472.134002,446.082 C472.134002,446.68867 471.879671,447.176331 471.371002,447.545 C470.862333,447.913669 470.183339,448.098 469.334002,448.098 Z M481.196002,448.07 C480.990668,448.07 480.820336,448.014001 480.685002,447.902 C480.549668,447.789999 480.482002,447.622001 480.482002,447.398 L480.482002,441.714 C480.482002,441.489999 480.549668,441.319667 480.685002,441.203 C480.820336,441.086333 480.990668,441.028 481.196002,441.028 C481.401336,441.028 481.569335,441.086333 481.700002,441.203 C481.830669,441.319667 481.896002,441.489999 481.896002,441.714 L481.896002,447.398 C481.896002,447.622001 481.830669,447.789999 481.700002,447.902 C481.569335,448.014001 481.401336,448.07 481.196002,448.07 Z M481.196002,439.656 C480.925334,439.656 480.71067,439.581334 480.552002,439.432 C480.393335,439.282666 480.314002,439.086668 480.314002,438.844 C480.314002,438.601332 480.393335,438.407667 480.552002,438.263 C480.71067,438.118333 480.925334,438.046 481.196002,438.046 C481.457337,438.046 481.669668,438.118333 481.833002,438.263 C481.996336,438.407667 482.078002,438.601332 482.078002,438.844 C482.078002,439.086668 481.99867,439.282666 481.840002,439.432 C481.681335,439.581334 481.46667,439.656 481.196002,439.656 Z M493.618002,448.098 C492.945999,448.098 492.355672,447.953335 491.847002,447.664 C491.338333,447.374665 490.946337,446.961669 490.671002,446.425 C490.395668,445.888331 490.258002,445.265337 490.258002,444.556 C490.258002,443.83733 490.395668,443.209669 490.671002,442.673 C490.946337,442.136331 491.338333,441.723335 491.847002,441.434 C492.355672,441.144665 492.945999,441 493.618002,441 C494.290006,441 494.880333,441.144665 495.389002,441.434 C495.897672,441.723335 496.289668,442.136331 496.565002,442.673 C496.840337,443.209669 496.978002,443.83733 496.978002,444.556 C496.978002,445.265337 496.840337,445.888331 496.565002,446.425 C496.289668,446.961669 495.897672,447.374665 495.389002,447.664 C494.880333,447.953335 494.290006,448.098 493.618002,448.098 Z M493.618002,446.978 C494.243339,446.978 494.721667,446.772669 495.053002,446.362 C495.384337,445.951331 495.550002,445.349337 495.550002,444.556 C495.550002,443.771996 495.382004,443.172335 495.046002,442.757 C494.710001,442.341665 494.234005,442.134 493.618002,442.134 C493.001999,442.134 492.526004,442.341665 492.190002,442.757 C491.854001,443.172335 491.686002,443.771996 491.686002,444.556 C491.686002,445.349337 491.851667,445.951331 492.183002,446.362 C492.514337,446.772669 492.992666,446.978 493.618002,446.978 Z M509.008003,441 C510.641344,441 511.458003,441.919324 511.458003,443.758 L511.458003,447.398 C511.458003,447.612668 511.395003,447.778333 511.269003,447.895 C511.143002,448.011667 510.968004,448.07 510.744003,448.07 C510.529335,448.07 510.359003,448.009334 510.233003,447.888 C510.107002,447.766666 510.044003,447.603334 510.044003,447.398 L510.044003,443.828 C510.044003,443.24933 509.92967,442.824668 509.701003,442.554 C509.472335,442.283332 509.115338,442.148 508.630003,442.148 C508.060666,442.148 507.603338,442.325332 507.258003,442.68 C506.912667,443.034668 506.740003,443.510664 506.740003,444.108 L506.740003,447.398 C506.740003,447.603334 506.677003,447.766666 506.551003,447.888 C506.425002,448.009334 506.25467,448.07 506.040003,448.07 C505.825335,448.07 505.65267,448.009334 505.522003,447.888 C505.391335,447.766666 505.326003,447.603334 505.326003,447.398 L505.326003,441.7 C505.326003,441.503999 505.393669,441.343001 505.529003,441.217 C505.664337,441.090999 505.834668,441.028 506.040003,441.028 C506.245337,441.028 506.408669,441.088666 506.530003,441.21 C506.651336,441.331334 506.712003,441.489999 506.712003,441.686 L506.712003,442.26 C506.936004,441.849331 507.248667,441.536668 507.650003,441.322 C508.051338,441.107332 508.504,441 509.008003,441 Z" id="Trial-Version" fill="#989CA2"></path>
        </g>
    </g>
</svg>