<?xml version="1.0" encoding="UTF-8"?>
<svg width="110px" height="110px" viewBox="0 0 110 110" version="1.1" xmlns="http://www.w3.org/2000/svg" xmlns:xlink="http://www.w3.org/1999/xlink">
    <!-- Generator: Sketch 48.2 (47327) - http://www.bohemiancoding.com/sketch -->
    <title>private link</title>
    <desc>Created with Sketch.</desc>
    <defs></defs>
    <g id="Artboard-14-Copy" stroke="none" stroke-width="1" fill="none" fill-rule="evenodd" transform="translate(-3084.000000, -3505.000000)">
        <g id="Group-40" transform="translate(3084.000000, 3505.000000)">
            <circle id="Oval-8" fill="#F4F4F7" opacity="0.98999995" cx="55" cy="55" r="51"></circle>
            <g id="Group-17" transform="translate(13.100000, 19.700000)">
                <path d="M0.00199943308,18.6961718 L9.76679688,0 L74.9332031,0 L84.6690125,18.6406697 L84.7,18.6406494 L84.7,69.3 L3.62376795e-13,69.3 L3.62376795e-13,18.6961731 Z" id="Combined-Shape" fill="#FFFFFF"></path>
                <path d="M28.45744,57.82784 C28.5947207,57.9756807 28.66336,58.1393591 28.66336,58.31888 C28.66336,58.519521 28.5841608,58.6963992 28.42576,58.84952 C28.2673592,59.0026408 28.087841,59.0792 27.8872,59.0792 C27.6654389,59.0792 27.4753608,58.984161 27.31696,58.79408 L23.87968,54.46976 L20.42656,58.79408 C20.2681592,58.984161 20.0833611,59.0792 19.87216,59.0792 C19.671519,59.0792 19.4920008,59.0026408 19.3336,58.84952 C19.1751992,58.6963992 19.096,58.519521 19.096,58.31888 C19.096,58.1499192 19.1593594,57.9862408 19.28608,57.82784 L22.92928,53.31344 L19.46032,49.00496 C19.3335994,48.8676793 19.27024,48.704001 19.27024,48.51392 C19.27024,48.313279 19.3467992,48.1364008 19.49992,47.98328 C19.6530408,47.8301592 19.829919,47.7536 20.03056,47.7536 C20.2523211,47.7536 20.4423992,47.848639 20.6008,48.03872 L23.87968,52.17296 L27.15856,48.03872 C27.3064007,47.848639 27.4964788,47.7536 27.7288,47.7536 C27.929441,47.7536 28.1089592,47.8301592 28.26736,47.98328 C28.4257608,48.1364008 28.50496,48.313279 28.50496,48.51392 C28.50496,48.6934409 28.4363207,48.8571193 28.29904,49.00496 L24.83008,53.31344 L28.45744,57.82784 Z M40.27408,47.7536 C40.5064012,47.7536 40.6964793,47.8301592 40.84432,47.98328 C40.9921607,48.1364008 41.06608,48.3343988 41.06608,48.57728 L41.06608,58.30304 C41.06608,58.5459212 41.0000807,58.7359993 40.86808,58.87328 C40.7360793,59.0105607 40.5539212,59.0792 40.3216,59.0792 C40.0998389,59.0792 39.9256006,59.0105607 39.79888,58.87328 C39.6721594,58.7359993 39.6088,58.5459212 39.6088,58.30304 L39.6088,50.93744 L36.50416,56.84576 C36.303519,57.2153618 36.0448016,57.40016 35.728,57.40016 C35.4111984,57.40016 35.152481,57.2153618 34.95184,56.84576 L31.83136,51.0008 L31.83136,58.30304 C31.83136,58.5459212 31.7680006,58.7359993 31.64128,58.87328 C31.5145594,59.0105607 31.3350412,59.0792 31.10272,59.0792 C30.8809589,59.0792 30.7040807,59.0079207 30.57208,58.86536 C30.4400793,58.7227993 30.37408,58.5353612 30.37408,58.30304 L30.37408,48.57728 C30.37408,48.3343988 30.4479993,48.1364008 30.59584,47.98328 C30.7436807,47.8301592 30.9337588,47.7536 31.16608,47.7536 C31.4934416,47.7536 31.757439,47.9436781 31.95808,48.32384 L35.74384,55.56272 L39.49792,48.32384 C39.698561,47.9436781 39.9572784,47.7536 40.27408,47.7536 Z M44.29744,59.0792 C44.0651188,59.0792 43.8724008,59.0158406 43.71928,58.88912 C43.5661592,58.7623994 43.4896,58.5723213 43.4896,58.31888 L43.4896,51.88784 C43.4896,51.6343987 43.5661592,51.4416807 43.71928,51.30968 C43.8724008,51.1776793 44.0651188,51.11168 44.29744,51.11168 C44.5297612,51.11168 44.7198393,51.1776793 44.86768,51.30968 C45.0155207,51.4416807 45.08944,51.6343987 45.08944,51.88784 L45.08944,58.31888 C45.08944,58.5723213 45.0155207,58.7623994 44.86768,58.88912 C44.7198393,59.0158406 44.5297612,59.0792 44.29744,59.0792 Z M44.29744,49.55936 C43.9911985,49.55936 43.7483209,49.4748808 43.5688,49.30592 C43.3892791,49.1369592 43.29952,48.9152014 43.29952,48.64064 C43.29952,48.3660786 43.3892791,48.1469608 43.5688,47.98328 C43.7483209,47.8195992 43.9911985,47.73776 44.29744,47.73776 C44.5931215,47.73776 44.8333591,47.8195992 45.01816,47.98328 C45.2029609,48.1469608 45.29536,48.3660786 45.29536,48.64064 C45.29536,48.9152014 45.2056009,49.1369592 45.02608,49.30592 C44.8465591,49.4748808 44.6036815,49.55936 44.29744,49.55936 Z M51.4888,51.08 C53.3368092,51.08 54.2608,52.1201496 54.2608,54.20048 L54.2608,58.31888 C54.2608,58.5617612 54.1895207,58.7491993 54.04696,58.8812 C53.9043993,59.0132007 53.7064013,59.0792 53.45296,59.0792 C53.2100788,59.0792 53.0173607,59.0105607 52.8748,58.87328 C52.7322393,58.7359993 52.66096,58.5512012 52.66096,58.31888 L52.66096,54.27968 C52.66096,53.6249567 52.5316013,53.1444815 52.27288,52.83824 C52.0141587,52.5319985 51.6102427,52.37888 51.06112,52.37888 C50.4169568,52.37888 49.899522,52.579518 49.5088,52.9808 C49.118078,53.382082 48.92272,53.9206366 48.92272,54.59648 L48.92272,58.31888 C48.92272,58.5512012 48.8514407,58.7359993 48.70888,58.87328 C48.5663193,59.0105607 48.3736012,59.0792 48.13072,59.0792 C47.8878388,59.0792 47.6924807,59.0105607 47.54464,58.87328 C47.3967993,58.7359993 47.32288,58.5512012 47.32288,58.31888 L47.32288,51.872 C47.32288,51.6502389 47.3994392,51.4680807 47.55256,51.32552 C47.7056808,51.1829593 47.8983988,51.11168 48.13072,51.11168 C48.3630412,51.11168 48.5478393,51.1803193 48.68512,51.3176 C48.8224007,51.4548807 48.89104,51.6343989 48.89104,51.85616 L48.89104,52.5056 C49.1444813,52.0409577 49.4982377,51.6872012 49.95232,51.44432 C50.4064023,51.2014388 50.9185571,51.08 51.4888,51.08 Z M62.76688,47.7536 C63.0097612,47.7536 63.2051193,47.8222393 63.35296,47.95952 C63.5008007,48.0968007 63.57472,48.2815988 63.57472,48.51392 L63.57472,58.30304 C63.57472,58.5459212 63.5034407,58.7359993 63.36088,58.87328 C63.2183193,59.0105607 63.0256012,59.0792 62.78272,59.0792 C62.5398388,59.0792 62.3471207,59.0105607 62.20456,58.87328 C62.0619993,58.7359993 61.99072,58.5459212 61.99072,58.30304 L61.99072,57.66944 C61.7583988,58.1340823 61.4204822,58.4904788 60.97696,58.73864 C60.5334378,58.9868012 60.0212829,59.11088 59.44048,59.11088 C58.7751967,59.11088 58.1812026,58.9419217 57.65848,58.604 C57.1357574,58.2660783 56.7292015,57.7908831 56.4388,57.1784 C56.1483985,56.5659169 56.0032,55.863684 56.0032,55.07168 C56.0032,54.269116 56.1483985,53.566883 56.4388,52.96496 C56.7292015,52.363037 57.1331174,51.8984016 57.65056,51.57104 C58.1680026,51.2436784 58.7646366,51.08 59.44048,51.08 C60.0212829,51.08 60.5307978,51.2040788 60.96904,51.45224 C61.4072822,51.7004012 61.7425588,52.0515177 61.97488,52.5056 L61.97488,48.48224 C61.97488,48.2604789 62.0461593,48.0836007 62.18872,47.9516 C62.3312807,47.8195993 62.5239988,47.7536 62.76688,47.7536 Z M59.82064,57.84368 C60.5070434,57.84368 61.0403181,57.6060824 61.42048,57.13088 C61.8006419,56.6556776 61.99072,55.9798444 61.99072,55.10336 C61.99072,54.2268756 61.8032819,53.5510424 61.4284,53.07584 C61.0535181,52.6006376 60.5176035,52.36304 59.82064,52.36304 C59.1236765,52.36304 58.5824819,52.5979977 58.19704,53.06792 C57.8115981,53.5378423 57.61888,54.2057557 57.61888,55.07168 C57.61888,55.9376043 57.814238,56.6160775 58.20496,57.10712 C58.595682,57.5981625 59.1342366,57.84368 59.82064,57.84368 Z" id="XMind" fill="#E1E4E6"></path>
                <path d="M0.932421875,18.926123 L84.199648,18.926123" id="Path-55" stroke="#E1E4E6" stroke-width="1.1"></path>
                <rect id="Rectangle-48" fill="#E1E4E6" x="36.3" y="18.3700008" width="12.1" height="18.7"></rect>
                <polygon id="Rectangle-48" fill="#E1E4E6" points="37.8606375 0 46.7620482 0.0187577246 48.3827159 19.4700008 36.3172841 19.4700008"></polygon>
                <g id="ic_private-link" transform="translate(58.400000, 36.300000)">
                    <circle id="Oval-4-Copy-4" stroke="#FFFFFF" stroke-width="1.15076923" fill="#DC4E41" cx="18.7" cy="18.7" r="18.7"></circle>
                    <path d="M15.1270471,14.5540059 C15.1270471,11.9048864 16.7217349,10.1250092 18.987451,10.1250092 C21.2534084,10.1250092 22.8483375,11.9048864 22.8483375,14.5540059 L22.8483375,16.333883 L15.1270471,16.333883 L15.1270471,14.5540059 Z M18.1565812,22.3651721 L18.1565812,24.3517735 C18.1565812,24.8107835 18.5286823,25.1828846 18.9876923,25.1828846 C19.4467023,25.1828846 19.8188034,24.8107835 19.8188034,24.3517735 L19.8188034,22.3651721 C20.552635,22.0263301 21.0654701,21.2524831 21.0654701,20.3520513 C21.0654701,19.139326 20.1352173,18.1562179 18.9876923,18.1562179 C17.8401673,18.1562179 16.9099145,19.139326 16.9099145,20.3520513 C16.9099145,21.2524831 17.4227497,22.0263301 18.1565812,22.3651721 Z M24.77866,16.333883 L25.502531,16.333883 C26.0355413,16.333883 26.4676923,16.8011008 26.4676923,17.3725759 L26.4676923,26.3439056 C26.4676923,26.9153807 26.0355413,27.3787179 25.502531,27.3787179 L12.4728536,27.3787179 C11.9398433,27.3787179 11.5076923,26.9153807 11.5076923,26.3439056 L11.5076923,17.3725759 C11.5076923,16.8011008 11.9398433,16.333883 12.4728536,16.333883 L13.1967246,16.333883 L13.1967246,14.5540059 C13.1967246,10.7277874 15.6207271,8.05538462 18.987451,8.05538462 C22.3546575,8.05538462 24.77866,10.7277874 24.77866,14.5540059 L24.77866,16.333883 Z M18.9791899,21.2303846 C18.5248757,21.2303846 18.1565812,20.8371414 18.1565812,20.3520513 C18.1565812,19.8669612 18.5248757,19.4737179 18.9791899,19.4737179 C19.4335041,19.4737179 19.8017986,19.8669612 19.8017986,20.3520513 C19.8017986,20.8371414 19.4335041,21.2303846 18.9791899,21.2303846 Z" id="lock" fill="#FFFFFF"></path>
                </g>
            </g>
        </g>
    </g>
</svg>