<?xml version="1.0" encoding="UTF-8"?>
<svg width="110px" height="110px" viewBox="0 0 110 110" version="1.1" xmlns="http://www.w3.org/2000/svg" xmlns:xlink="http://www.w3.org/1999/xlink">
    <!-- Generator: Sketch 48.2 (47327) - http://www.bohemiancoding.com/sketch -->
    <title>public link</title>
    <desc>Created with Sketch.</desc>
    <defs></defs>
    <g id="Artboard-14-Copy" stroke="none" stroke-width="1" fill="none" fill-rule="evenodd" transform="translate(-2930.000000, -3505.000000)">
        <g id="Group-41" transform="translate(2930.000000, 3505.000000)">
            <circle id="Oval-8" fill="#F4F4F7" opacity="0.98999995" cx="55" cy="55" r="51"></circle>
            <g id="Group-42" transform="translate(13.100000, 19.700000)">
                <path d="M0.00199943308,18.6961718 L9.76679688,0 L74.9332031,0 L84.6690125,18.6406697 L84.7,18.6406494 L84.7,69.3 L0,69.3 L0,18.6961731 Z" id="Combined-Shape" fill="#FFFFFF"></path>
                <path d="M28.45744,57.72784 C28.5947207,57.8756807 28.66336,58.0393591 28.66336,58.21888 C28.66336,58.419521 28.5841608,58.5963992 28.42576,58.74952 C28.2673592,58.9026408 28.087841,58.9792 27.8872,58.9792 C27.6654389,58.9792 27.4753608,58.884161 27.31696,58.69408 L23.87968,54.36976 L20.42656,58.69408 C20.2681592,58.884161 20.0833611,58.9792 19.87216,58.9792 C19.671519,58.9792 19.4920008,58.9026408 19.3336,58.74952 C19.1751992,58.5963992 19.096,58.419521 19.096,58.21888 C19.096,58.0499192 19.1593594,57.8862408 19.28608,57.72784 L22.92928,53.21344 L19.46032,48.90496 C19.3335994,48.7676793 19.27024,48.604001 19.27024,48.41392 C19.27024,48.213279 19.3467992,48.0364008 19.49992,47.88328 C19.6530408,47.7301592 19.829919,47.6536 20.03056,47.6536 C20.2523211,47.6536 20.4423992,47.748639 20.6008,47.93872 L23.87968,52.07296 L27.15856,47.93872 C27.3064007,47.748639 27.4964788,47.6536 27.7288,47.6536 C27.929441,47.6536 28.1089592,47.7301592 28.26736,47.88328 C28.4257608,48.0364008 28.50496,48.213279 28.50496,48.41392 C28.50496,48.5934409 28.4363207,48.7571193 28.29904,48.90496 L24.83008,53.21344 L28.45744,57.72784 Z M40.27408,47.6536 C40.5064012,47.6536 40.6964793,47.7301592 40.84432,47.88328 C40.9921607,48.0364008 41.06608,48.2343988 41.06608,48.47728 L41.06608,58.20304 C41.06608,58.4459212 41.0000807,58.6359993 40.86808,58.77328 C40.7360793,58.9105607 40.5539212,58.9792 40.3216,58.9792 C40.0998389,58.9792 39.9256006,58.9105607 39.79888,58.77328 C39.6721594,58.6359993 39.6088,58.4459212 39.6088,58.20304 L39.6088,50.83744 L36.50416,56.74576 C36.303519,57.1153618 36.0448016,57.30016 35.728,57.30016 C35.4111984,57.30016 35.152481,57.1153618 34.95184,56.74576 L31.83136,50.9008 L31.83136,58.20304 C31.83136,58.4459212 31.7680006,58.6359993 31.64128,58.77328 C31.5145594,58.9105607 31.3350412,58.9792 31.10272,58.9792 C30.8809589,58.9792 30.7040807,58.9079207 30.57208,58.76536 C30.4400793,58.6227993 30.37408,58.4353612 30.37408,58.20304 L30.37408,48.47728 C30.37408,48.2343988 30.4479993,48.0364008 30.59584,47.88328 C30.7436807,47.7301592 30.9337588,47.6536 31.16608,47.6536 C31.4934416,47.6536 31.757439,47.8436781 31.95808,48.22384 L35.74384,55.46272 L39.49792,48.22384 C39.698561,47.8436781 39.9572784,47.6536 40.27408,47.6536 Z M44.29744,58.9792 C44.0651188,58.9792 43.8724008,58.9158406 43.71928,58.78912 C43.5661592,58.6623994 43.4896,58.4723213 43.4896,58.21888 L43.4896,51.78784 C43.4896,51.5343987 43.5661592,51.3416807 43.71928,51.20968 C43.8724008,51.0776793 44.0651188,51.01168 44.29744,51.01168 C44.5297612,51.01168 44.7198393,51.0776793 44.86768,51.20968 C45.0155207,51.3416807 45.08944,51.5343987 45.08944,51.78784 L45.08944,58.21888 C45.08944,58.4723213 45.0155207,58.6623994 44.86768,58.78912 C44.7198393,58.9158406 44.5297612,58.9792 44.29744,58.9792 Z M44.29744,49.45936 C43.9911985,49.45936 43.7483209,49.3748808 43.5688,49.20592 C43.3892791,49.0369592 43.29952,48.8152014 43.29952,48.54064 C43.29952,48.2660786 43.3892791,48.0469608 43.5688,47.88328 C43.7483209,47.7195992 43.9911985,47.63776 44.29744,47.63776 C44.5931215,47.63776 44.8333591,47.7195992 45.01816,47.88328 C45.2029609,48.0469608 45.29536,48.2660786 45.29536,48.54064 C45.29536,48.8152014 45.2056009,49.0369592 45.02608,49.20592 C44.8465591,49.3748808 44.6036815,49.45936 44.29744,49.45936 Z M51.4888,50.98 C53.3368092,50.98 54.2608,52.0201496 54.2608,54.10048 L54.2608,58.21888 C54.2608,58.4617612 54.1895207,58.6491993 54.04696,58.7812 C53.9043993,58.9132007 53.7064013,58.9792 53.45296,58.9792 C53.2100788,58.9792 53.0173607,58.9105607 52.8748,58.77328 C52.7322393,58.6359993 52.66096,58.4512012 52.66096,58.21888 L52.66096,54.17968 C52.66096,53.5249567 52.5316013,53.0444815 52.27288,52.73824 C52.0141587,52.4319985 51.6102427,52.27888 51.06112,52.27888 C50.4169568,52.27888 49.899522,52.479518 49.5088,52.8808 C49.118078,53.282082 48.92272,53.8206366 48.92272,54.49648 L48.92272,58.21888 C48.92272,58.4512012 48.8514407,58.6359993 48.70888,58.77328 C48.5663193,58.9105607 48.3736012,58.9792 48.13072,58.9792 C47.8878388,58.9792 47.6924807,58.9105607 47.54464,58.77328 C47.3967993,58.6359993 47.32288,58.4512012 47.32288,58.21888 L47.32288,51.772 C47.32288,51.5502389 47.3994392,51.3680807 47.55256,51.22552 C47.7056808,51.0829593 47.8983988,51.01168 48.13072,51.01168 C48.3630412,51.01168 48.5478393,51.0803193 48.68512,51.2176 C48.8224007,51.3548807 48.89104,51.5343989 48.89104,51.75616 L48.89104,52.4056 C49.1444813,51.9409577 49.4982377,51.5872012 49.95232,51.34432 C50.4064023,51.1014388 50.9185571,50.98 51.4888,50.98 Z M62.76688,47.6536 C63.0097612,47.6536 63.2051193,47.7222393 63.35296,47.85952 C63.5008007,47.9968007 63.57472,48.1815988 63.57472,48.41392 L63.57472,58.20304 C63.57472,58.4459212 63.5034407,58.6359993 63.36088,58.77328 C63.2183193,58.9105607 63.0256012,58.9792 62.78272,58.9792 C62.5398388,58.9792 62.3471207,58.9105607 62.20456,58.77328 C62.0619993,58.6359993 61.99072,58.4459212 61.99072,58.20304 L61.99072,57.56944 C61.7583988,58.0340823 61.4204822,58.3904788 60.97696,58.63864 C60.5334378,58.8868012 60.0212829,59.01088 59.44048,59.01088 C58.7751967,59.01088 58.1812026,58.8419217 57.65848,58.504 C57.1357574,58.1660783 56.7292015,57.6908831 56.4388,57.0784 C56.1483985,56.4659169 56.0032,55.763684 56.0032,54.97168 C56.0032,54.169116 56.1483985,53.466883 56.4388,52.86496 C56.7292015,52.263037 57.1331174,51.7984016 57.65056,51.47104 C58.1680026,51.1436784 58.7646366,50.98 59.44048,50.98 C60.0212829,50.98 60.5307978,51.1040788 60.96904,51.35224 C61.4072822,51.6004012 61.7425588,51.9515177 61.97488,52.4056 L61.97488,48.38224 C61.97488,48.1604789 62.0461593,47.9836007 62.18872,47.8516 C62.3312807,47.7195993 62.5239988,47.6536 62.76688,47.6536 Z M59.82064,57.74368 C60.5070434,57.74368 61.0403181,57.5060824 61.42048,57.03088 C61.8006419,56.5556776 61.99072,55.8798444 61.99072,55.00336 C61.99072,54.1268756 61.8032819,53.4510424 61.4284,52.97584 C61.0535181,52.5006376 60.5176035,52.26304 59.82064,52.26304 C59.1236765,52.26304 58.5824819,52.4979977 58.19704,52.96792 C57.8115981,53.4378423 57.61888,54.1057557 57.61888,54.97168 C57.61888,55.8376043 57.814238,56.5160775 58.20496,57.00712 C58.595682,57.4981625 59.1342366,57.74368 59.82064,57.74368 Z" id="XMind" fill="#E1E4E6"></path>
                <path d="M0.932421875,18.926123 L84.199648,18.926123" id="Path-55" stroke="#E1E4E6" stroke-width="1.1"></path>
                <rect id="Rectangle-48" fill="#E1E4E6" x="36.3" y="18.3700008" width="12.1" height="18.7"></rect>
                <polygon id="Rectangle-48" fill="#E1E4E6" points="37.936534 0 46.8888323 0 48.3827159 19.4700008 36.3172841 19.4700008"></polygon>
            </g>
            <g id="Group-36" transform="translate(71.500000, 56.000000)">
                <circle id="Oval-4-Copy-6" stroke="#FFFFFF" stroke-width="1.15076923" fill="#007EE5" cx="18.7" cy="18.7" r="18.7"></circle>
                <path d="M19.3021628,22.267587 C18.6367995,22.2421088 18.1054359,21.7097666 18.1054359,21.056794 C18.1054359,20.4038214 18.6367995,19.8714792 19.3021628,19.846001 L19.3021628,19.8354475 C20.3083805,19.7380618 21.0974359,18.9116671 21.0974359,17.9066237 L21.0974359,12.0894893 C21.0974359,11.0198738 20.2043932,10.1510666 19.1027692,10.1510666 C18.0033868,10.1510666 17.1081026,11.018928 17.1081026,12.0894893 L17.1081026,13.2716255 L17.1077284,13.2716255 C17.1079773,13.281591 17.1081026,13.2915863 17.1081026,13.30161 C17.1081026,13.9708397 16.5499509,14.5133575 15.8614359,14.5133575 C15.1729209,14.5133575 14.6147692,13.9708397 14.6147692,13.30161 C14.6147692,13.2915863 14.6148944,13.281591 14.6151434,13.2716255 L14.6147692,13.2716255 L14.6147692,11.6051832 C14.6147692,9.46363741 16.3988698,7.72757157 18.604046,7.72757157 L19.6014924,7.72757157 C21.8047092,7.72757157 23.5907692,9.46710909 23.5907692,11.6051832 L23.5907692,18.3909299 C23.5907692,20.5324756 21.8066686,22.2685415 19.6014924,22.2685415 L19.3021628,22.2685415 L19.3021628,22.267587 Z M18.9033757,15.48371 C19.568739,15.5091882 20.1001026,16.0415304 20.1001026,16.694503 C20.1001026,17.3474756 19.568739,17.8798178 18.9033757,17.905296 L18.9033757,17.9158495 C17.8971579,18.0132352 17.1081026,18.8396298 17.1081026,19.8446732 L17.1081026,25.6618077 C17.1081026,26.7314232 18.0011452,27.6002304 19.1027692,27.6002304 C20.2021516,27.6002304 21.0974359,26.732369 21.0974359,25.6618077 L21.0974359,24.4796715 L21.0978101,24.4796715 C21.0975611,24.469706 21.0974359,24.4597107 21.0974359,24.449687 C21.0974359,23.7804573 21.6555876,23.2379395 22.3441026,23.2379395 C23.0326176,23.2379395 23.5907692,23.7804573 23.5907692,24.449687 C23.5907692,24.4597107 23.590644,24.469706 23.590395,24.4796715 L23.5907692,24.4796715 L23.5907692,26.1461138 C23.5907692,28.2876596 21.8066686,30.0237254 19.6014924,30.0237254 L18.604046,30.0237254 C16.4008293,30.0237254 14.6147692,28.2841879 14.6147692,26.1461138 L14.6147692,19.3603671 C14.6147692,17.2188214 16.3988698,15.4827555 18.604046,15.4827555 L18.9033757,15.4827555 L18.9033757,15.48371 Z" id="Combined-Shape" fill="#FFFFFF" transform="translate(19.102769, 18.875648) rotate(-315.000000) translate(-19.102769, -18.875648) "></path>
            </g>
        </g>
    </g>
</svg>