<?xml version="1.0" encoding="UTF-8"?>
<svg width="16px" height="16px" viewBox="0 0 16 16" version="1.1" xmlns="http://www.w3.org/2000/svg" xmlns:xlink="http://www.w3.org/1999/xlink">
    <!-- Generator: Sketch 43.1 (39012) - http://www.bohemiancoding.com/sketch -->
    <title>ic_marker</title>
    <desc>Created with Sketch.</desc>
    <defs></defs>
    <g id="Page-1" stroke="none" stroke-width="1" fill="none" fill-rule="evenodd">
        <g id="formal-panel-slice" transform="translate(-511.000000, -67.000000)">
            <g id="Group-26" transform="translate(414.000000, 58.000000)">
                <g id="tab">
                    <g id="Group-4" transform="translate(16.000000, 8.000000)">
                        <g id="Group-39" transform="translate(80.200000, 1.000000)">
                            <rect id="ic_marker" x="1" y="0" width="16" height="16"></rect>
                            <path d="M8.746978,11.6056419 L5.07215089,13.50161 C4.90417181,13.5882761 4.98734002,13.6473725 5.01693592,13.4780308 L5.71876544,9.46230582 L5.76471298,9.19940343 L5.57185601,9.01491757 L2.59885843,6.17096532 C2.47177258,6.04939574 2.43733668,6.15700102 2.60805315,6.13265675 L6.7291898,5.54498 L6.98789096,5.50808905 L7.10529757,5.27463045 L8.94271112,1.62100314 C9.02388598,1.45959001 8.92865258,1.45974219 9.00975091,1.62100314 L10.8471645,5.27463045 L10.9645711,5.50808905 L11.2232722,5.54498 L15.3444089,6.13265675 C15.5178956,6.15739606 15.4827541,6.04742068 15.3536036,6.17096532 L12.380606,9.01491757 L12.187749,9.19940343 L12.2336966,9.46230582 L12.9355261,13.4780308 C12.9651583,13.6475801 13.04815,13.5882038 12.8803111,13.50161 L9.20548403,11.6056419 L8.97623101,11.4873624 L8.746978,11.6056419 Z" id="Combined-Shape" stroke="#363B3F"></path>
                        </g>
                    </g>
                </g>
            </g>
        </g>
    </g>
</svg>