<svg xmlns="http://www.w3.org/2000/svg" width="64" height="64" viewBox="0 0 64 64">
    <g fill="none" fill-rule="evenodd">
        <path fill="#E6E7E8" d="M40.311 37.987a19.07 19.07 0 0 1-.868.93c-.302.303-.613.591-.93.869l3.684 3.685 1.8-1.8-3.686-3.684z"/>
        <path fill="#E6E7E8" d="M40.311 37.987c6.562-7.502 6.182-19.003-1.078-26.263-7.568-7.567-19.743-7.662-27.194-.21-7.451 7.45-7.357 19.626.21 27.193 7.26 7.26 18.761 7.64 26.263 1.079a19.074 19.074 0 0 0 1.799-1.8zm-19.883 1.585l-.06-.023a15.535 15.535 0 0 1-2.218-1.07 15.65 15.65 0 0 1-3.202-2.47 16.06 16.06 0 0 1-.28-.286c-5.684-5.975-5.756-15.3-.164-21.187.09-.095.182-.189.275-.282 5.961-5.96 15.701-5.885 21.755.169 6.054 6.053 6.13 15.793.169 21.754a15.333 15.333 0 0 1-1.77 1.517 15.083 15.083 0 0 1-4.66 2.294l-.114.032a14.839 14.839 0 0 1-1.587.359l-.237.038c-2.637.408-5.37.126-7.907-.845z"/>
        <path fill="#B9EBFF" d="M34.291 38.23zM31.129 39.709zM32.839 38.975zM34.984 37.746zM15.861 36.831zM30.16 40.02zM20.428 39.572zM29.375 40.219zM18.15 38.48zM20.368 39.549z"/>
        <path fill="#707384" d="M41.874 46.626zM41.747 44.211z"/>
        <path fill="#DEE0E1" d="M44.28 43.754l11.807 11.808c.55.55 1.582.432 2.488-.21a4.11 4.11 0 0 1-.278.353c.885-.976 1.111-2.219.489-2.841L46.978 41.056c-.622-.622-1.865-.397-2.841.489.114-.102.233-.194.353-.279-.643.906-.76 1.939-.21 2.488z"/>
        <path fill="#707384" d="M41.894 43.893z"/>
        <path fill="#C9CCCE" d="M42.197 43.47a3.62 3.62 0 0 0-.528.663c-.402.644-.54 1.33-.37 1.852.012.037.027.073.043.11.057.131.134.252.236.355l11.8 11.8c.082.081.174.148.275.201.604.317 1.52.127 2.318-.482a3.86 3.86 0 0 0 .386-.338l1.8-1.8a4.145 4.145 0 0 0 .408-.491c-.907.643-1.94.76-2.488.211l-11.8-11.8c-.55-.549-.432-1.581.21-2.487a4.11 4.11 0 0 0-.49.408l-1.8 1.799z"/>
    </g>
</svg>
