<?xml version="1.0" encoding="UTF-8"?>
<svg width="16px" height="16px" viewBox="0 0 16 16" version="1.1" xmlns="http://www.w3.org/2000/svg" xmlns:xlink="http://www.w3.org/1999/xlink">
    <!-- Generator: Sketch 43.1 (39012) - http://www.bohemiancoding.com/sketch -->
    <title>ic_format</title>
    <desc>Created with Sketch.</desc>
    <defs></defs>
    <g id="Page-1" stroke="none" stroke-width="1" fill="none" fill-rule="evenodd">
        <g id="formal-panel-slice" transform="translate(-430.000000, -67.000000)">
            <g id="Group-26" transform="translate(414.000000, 58.000000)">
                <g id="tab">
                    <g id="Group-4" transform="translate(16.000000, 8.000000)">
                        <g id="Group-50">
                            <rect id="ic_format" x="0" y="1" width="16" height="16"></rect>
                            <path d="M4.5973655,14.7590505 L5.15103037,10.2293701 L13.0835221,10.2524691 L13.6628147,14.784688 C13.6628147,14.784688 13.0634802,14.1334345 11.9624886,14.7799904 C10.9294242,15.3870955 9.64225208,14.385478 8.69047215,14.8626515 C7.73869223,15.3398249 7.11232129,14.9671493 6.24621541,14.7618311 C5.38010952,14.5565129 4.5973655,14.7590505 4.5973655,14.7590505 L4.5973655,14.7590505 L4.5973655,14.7590505 Z M10.6008266,6.83105808 L11.9568277,6.83480442 C12.5821722,6.83594049 13.0917809,7.34554918 13.0935069,7.97030364 L13.0984387,9.53512008 L5.16535779,9.51289109 L5.16102175,7.94957112 C5.15929241,7.32363342 5.66609625,6.8180161 6.29203395,6.81974543 L7.63965296,6.81510962 C7.4992329,4.78554474 7.41429676,3.16545718 7.41226682,2.85899292 C7.41026772,1.92127124 8.16958358,1.16195538 9.10849178,1.165141 C10.0468067,1.16773336 10.8103233,1.92889 10.8117357,2.86838492 C10.8137656,3.17484918 10.7360037,4.79389562 10.6008266,6.83105808 Z M9.14093638,3.77978716 C9.44644387,3.77978716 9.69410663,3.53073258 9.69410663,3.22350817 C9.69410663,2.91628377 9.44644387,2.66722918 9.14093638,2.66722918 C8.83542889,2.66722918 8.58776614,2.91628377 8.58776614,3.22350817 C8.58776614,3.53073258 8.83542889,3.77978716 9.14093638,3.77978716 Z" id="Combined-Shape" fill="#363B3F" transform="translate(9.130090, 8.130090) rotate(-315.000000) translate(-9.130090, -8.130090) "></path>
                        </g>
                    </g>
                </g>
            </g>
        </g>
    </g>
</svg>