<?xml version="1.0" encoding="UTF-8"?>
<svg width="16px" height="16px" viewBox="0 0 16 16" version="1.1" xmlns="http://www.w3.org/2000/svg" xmlns:xlink="http://www.w3.org/1999/xlink">
    <!-- Generator: Sketch 43.1 (39012) - http://www.bohemiancoding.com/sketch -->
    <title>ic_comments</title>
    <desc>Created with Sketch.</desc>
    <defs>
        <path d="M6.15287108,12.5 L2.96770024,13.3438043 C2.38441634,13.4983258 2.21953787,13.2441606 2.60599804,12.7743715 L3.29642145,11.9350782 C1.74486828,11.1139219 0.6875,9.4831506 0.6875,7.61544593 L0.6875,7.25955407 C0.6875,4.56188935 2.87701027,2.375 5.57774636,2.375 L10.4222536,2.375 C13.1230621,2.375 15.3125,4.5719742 15.3125,7.25955407 L15.3125,7.61544593 C15.3125,10.3131107 13.1229897,12.5 10.4222536,12.5 L6.15287108,12.5 Z M11.9468752,8.61875343 C12.5681956,8.61875343 13.0718752,8.11507378 13.0718752,7.49375343 C13.0718752,6.87243309 12.5681956,6.36875343 11.9468752,6.36875343 C11.3255549,6.36875343 10.8218752,6.87243309 10.8218752,7.49375343 C10.8218752,8.11507378 11.3255549,8.61875343 11.9468752,8.61875343 Z M7.98593771,8.61875343 C8.60725806,8.61875343 9.11093771,8.11507378 9.11093771,7.49375343 C9.11093771,6.87243309 8.60725806,6.36875343 7.98593771,6.36875343 C7.36461737,6.36875343 6.86093771,6.87243309 6.86093771,7.49375343 C6.86093771,8.11507378 7.36461737,8.61875343 7.98593771,8.61875343 Z M4.02500021,8.61875343 C4.64632056,8.61875343 5.15000021,8.11507378 5.15000021,7.49375343 C5.15000021,6.87243309 4.64632056,6.36875343 4.02500021,6.36875343 C3.40367987,6.36875343 2.90000021,6.87243309 2.90000021,7.49375343 C2.90000021,8.11507378 3.40367987,8.61875343 4.02500021,8.61875343 Z" id="path-1"></path>
    </defs>
    <g id="Page-1" stroke="none" stroke-width="1" fill="none" fill-rule="evenodd">
        <g id="formal-panel-slice" transform="translate(-630.000000, -67.000000)">
            <g id="Group-26" transform="translate(414.000000, 58.000000)">
                <g id="tab">
                    <g id="Group-4" transform="translate(16.000000, 8.000000)">
                        <g id="comments" transform="translate(200.000000, 1.000000)">
                            <rect id="ic_comments" x="0" y="0" width="16" height="16"></rect>
                            <g id="Combined-Shape">
                                <use fill="#363B3F" fill-rule="evenodd" xlink:href="#path-1"></use>
                                <path stroke="#363B3F" stroke-width="1" d="M3.27816796,12.7443086 L3.68255794,12.2527236 L4.07169416,11.7796814 L3.53030874,11.4931543 C2.10175306,10.7370942 1.1875,9.25325764 1.1875,7.61544593 L1.1875,7.25955407 C1.1875,4.83818829 3.15299622,2.875 5.57774636,2.875 L10.4222536,2.875 C12.8434085,2.875 14.8125,4.84460441 14.8125,7.25955407 L14.8125,7.61544593 C14.8125,10.0368117 12.8470038,12 10.4222536,12 L6.15287108,12 L6.02482967,12.0166726 L3.27816796,12.7443086 Z M11.9468752,9.11875343 C12.8443379,9.11875343 13.5718752,8.39121615 13.5718752,7.49375343 C13.5718752,6.59629071 12.8443379,5.86875343 11.9468752,5.86875343 C11.0494125,5.86875343 10.3218752,6.59629071 10.3218752,7.49375343 C10.3218752,8.39121615 11.0494125,9.11875343 11.9468752,9.11875343 Z M7.98593771,9.11875343 C8.88340043,9.11875343 9.61093771,8.39121615 9.61093771,7.49375343 C9.61093771,6.59629071 8.88340043,5.86875343 7.98593771,5.86875343 C7.088475,5.86875343 6.36093771,6.59629071 6.36093771,7.49375343 C6.36093771,8.39121615 7.088475,9.11875343 7.98593771,9.11875343 Z M4.02500021,9.11875343 C4.92246293,9.11875343 5.65000021,8.39121615 5.65000021,7.49375343 C5.65000021,6.59629071 4.92246293,5.86875343 4.02500021,5.86875343 C3.1275375,5.86875343 2.40000021,6.59629071 2.40000021,7.49375343 C2.40000021,8.39121615 3.1275375,9.11875343 4.02500021,9.11875343 Z"></path>
                            </g>
                        </g>
                    </g>
                </g>
            </g>
        </g>
    </g>
</svg>