<?xml version="1.0" encoding="UTF-8"?>
<svg width="16px" height="16px" viewBox="0 0 16 16" version="1.1" xmlns="http://www.w3.org/2000/svg" xmlns:xlink="http://www.w3.org/1999/xlink">
    <!-- Generator: Sketch 43.1 (39012) - http://www.bohemiancoding.com/sketch -->
    <title>ic_notes</title>
    <desc>Created with Sketch.</desc>
    <defs></defs>
    <g id="Page-1" stroke="none" stroke-width="1" fill="none" fill-rule="evenodd">
        <g id="formal-panel-slice" transform="translate(-551.000000, -67.000000)">
            <g id="Group-26" transform="translate(414.000000, 58.000000)">
                <rect id="bg" fill="#F7F7F7" x="0" y="0" width="248" height="762"></rect>
                <g id="tab">
                    <rect id="Rectangle-15" x="0" y="0" width="248" height="32"></rect>
                    <g id="Group-4" transform="translate(16.000000, 8.000000)">
                        <g id="notes" transform="translate(120.800000, 1.000000)">
                            <rect id="ic_notes" x="0" y="0" width="16" height="16"></rect>
                            <g id="Group-6" transform="translate(2.200000, 1.200000)">
                                <path d="M1.06382168,0.9 L6.97978822,0.9 L10.4638217,4.26917521 L10.4638217,12.7 L1.06382168,12.7 L1.06382168,0.9 Z" id="Rectangle-49" stroke="#363B3F"></path>
                                <polyline id="Rectangle-7" stroke="#363B3F" stroke-width="0.5" points="9.8 3.8 6.8 3.8 6.8 0.8 6.8 0.8"></polyline>
                                <rect id="Rectangle-12" fill="#363B3F" x="2.16382168" y="5.6" width="7.2" height="1"></rect>
                                <rect id="Rectangle-12-Copy-12" fill="#363B3F" x="2.16382168" y="3.6" width="3.2" height="1"></rect>
                                <rect id="Rectangle-12-Copy" fill="#363B3F" x="2.16382168" y="7.6" width="7.2" height="1"></rect>
                                <rect id="Rectangle-12-Copy" fill="#363B3F" x="2.16382168" y="9.6" width="7.2" height="1"></rect>
                            </g>
                        </g>
                    </g>
                </g>
                <rect id="border" stroke="#BDBDBD" x="0.5" y="0.5" width="247" height="761"></rect>
            </g>
        </g>
    </g>
</svg>