<?xml version="1.0" encoding="UTF-8"?>
<svg width="110px" height="110px" viewBox="0 0 110 110" version="1.1" xmlns="http://www.w3.org/2000/svg" xmlns:xlink="http://www.w3.org/1999/xlink">
    <!-- Generator: Sketch 48.2 (47327) - http://www.bohemiancoding.com/sketch -->
    <title>saving file</title>
    <desc>Created with Sketch.</desc>
    <defs>
        <linearGradient x1="100%" y1="40.1432872%" x2="0%" y2="40.1432868%" id="linearGradient-1">
            <stop stop-color="#FF1832" offset="0%"></stop>
            <stop stop-color="#FE8E01" offset="100%"></stop>
        </linearGradient>
        <ellipse id="path-2" cx="18.6670543" cy="18.5248385" rx="17.7972868" ry="17.6550711"></ellipse>
        <linearGradient x1="6.65910051%" y1="-1.12080515%" x2="50%" y2="102.08101%" id="linearGradient-3">
            <stop stop-color="#FFFFFF" offset="0%"></stop>
            <stop stop-color="#FFFFFF" offset="63.7008977%"></stop>
            <stop stop-color="#FFFFFF" stop-opacity="0.942899878" offset="72.8107051%"></stop>
            <stop stop-color="#FFFFFF" stop-opacity="0.69752038" offset="89.453119%"></stop>
            <stop stop-color="#FFFFFF" offset="89.5632189%"></stop>
            <stop stop-color="#FFFFFF" offset="100%"></stop>
        </linearGradient>
    </defs>
    <g id="Artboard-14-Copy" stroke="none" stroke-width="1" fill="none" fill-rule="evenodd" transform="translate(-2451.000000, -3506.000000)">
        <g id="Group-35" transform="translate(2451.000000, 3506.000000)">
            <circle id="Oval-8" fill="#F4F4F7" opacity="0.98999995" cx="55" cy="55" r="51"></circle>
            <g id="zen-file" transform="translate(25.300000, 8.800000)">
                <g id="xmind-8">
                    <g id="Group-38">
                        <path d="M42.1867187,1.1 L1.54,1.1 C0.689481485,1.1 1.46549439e-15,1.78948149 1.46549439e-15,2.64 L0,85.36 C0,86.2105185 0.689481485,86.9 1.54,86.9 L62.26,86.9 C63.1105185,86.9 63.8,86.2105185 63.8,85.36 L63.8,22.3442871 L42.1867187,1.1 Z" id="Combined-Shape" fill="#FFFFFF" fill-rule="nonzero"></path>
                        <path d="M39.82,0 C45.1,1.32 47.74,7.04 47.74,17.16 C57.42,17.16 63.14,19.8 64.9,25.08 C64.24,21.12 57.5939187,15.2695249 53.6712813,11.3468875 C49.7486439,7.42425016 43.78,0.66 39.82,0 Z" id="Rectangle-3-Copy" fill="#E3ECEE"></path>
                    </g>
                    <g id="Group-2" transform="translate(16.500000, 22.000000)" fill="#E1E4E6">
                        <path d="M12.0820827,13.3501562 C11.9578861,13.2864644 11.8398164,13.2058027 11.7311924,13.1079972 L0.60626888,3.09107108 C-0.0690004324,2.48305586 -0.123520647,1.4427482 0.484494573,0.767478892 C1.09250979,0.0922095796 2.13281745,0.0376893654 2.80808677,0.645704585 L13.9275291,10.6576954 C13.953947,10.6706489 13.9804475,10.6833577 14.0070291,10.6958106 C14.3954633,11.0414823 14.9090676,11.2517789 15.4722373,11.2517789 C16.0354069,11.2517789 16.5490113,11.0414823 16.9374455,10.6958106 C16.9643708,10.6831967 16.991213,10.6703201 17.0179703,10.6571928 L28.1368544,0.645704585 C28.8121237,0.0376893654 29.8524314,0.0922095796 30.4604466,0.767478892 C31.0684618,1.4427482 31.0139416,2.48305586 30.3386723,3.09107108 L19.2137488,13.1079972 C19.1047288,13.2061593 18.986194,13.2870523 18.8614997,13.3508522 C17.928598,14.0785115 16.751574,14.512605 15.4722373,14.512605 C14.1924928,14.512605 13.0151262,14.0782347 12.0820827,13.3501562 Z" id="Combined-Shape"></path>
                        <path d="M12.0820827,31.3987737 C11.9578861,31.3350819 11.8398164,31.2544202 11.7311924,31.1566147 L0.60626888,21.1396886 C-0.0690004324,20.5316733 -0.123520647,19.4913657 0.484494573,18.8160964 C1.09250979,18.1408271 2.13281745,18.0863068 2.80808677,18.6943221 L13.9275291,28.7063129 C13.953947,28.7192664 13.9804475,28.7319752 14.0070291,28.7444281 C14.3954633,29.0900998 14.9090676,29.3003964 15.4722373,29.3003964 C16.0354069,29.3003964 16.5490113,29.0900998 16.9374455,28.7444281 C16.9643708,28.7318141 16.991213,28.7189376 17.0179703,28.7058103 L28.1368544,18.6943221 C28.8121237,18.0863068 29.8524314,18.1408271 30.4604466,18.8160964 C31.0684618,19.4913657 31.0139416,20.5316733 30.3386723,21.1396886 L19.2137488,31.1566147 C19.1047288,31.2547768 18.986194,31.3356698 18.8614997,31.3994697 C17.928598,32.1271289 16.751574,32.5612225 15.4722373,32.5612225 C14.1924928,32.5612225 13.0151262,32.1268521 12.0820827,31.3987737 Z" id="Combined-Shape" transform="translate(15.472471, 25.416466) scale(1, -1) translate(-15.472471, -25.416466) "></path>
                    </g>
                    <path d="M20.53744,73.12784 C20.6747207,73.2756807 20.74336,73.4393591 20.74336,73.61888 C20.74336,73.819521 20.6641608,73.9963992 20.50576,74.14952 C20.3473592,74.3026408 20.167841,74.3792 19.9672,74.3792 C19.7454389,74.3792 19.5553608,74.284161 19.39696,74.09408 L15.95968,69.76976 L12.50656,74.09408 C12.3481592,74.284161 12.1633611,74.3792 11.95216,74.3792 C11.751519,74.3792 11.5720008,74.3026408 11.4136,74.14952 C11.2551992,73.9963992 11.176,73.819521 11.176,73.61888 C11.176,73.4499192 11.2393594,73.2862408 11.36608,73.12784 L15.00928,68.61344 L11.54032,64.30496 C11.4135994,64.1676793 11.35024,64.004001 11.35024,63.81392 C11.35024,63.613279 11.4267992,63.4364008 11.57992,63.28328 C11.7330408,63.1301592 11.909919,63.0536 12.11056,63.0536 C12.3323211,63.0536 12.5223992,63.148639 12.6808,63.33872 L15.95968,67.47296 L19.23856,63.33872 C19.3864007,63.148639 19.5764788,63.0536 19.8088,63.0536 C20.009441,63.0536 20.1889592,63.1301592 20.34736,63.28328 C20.5057608,63.4364008 20.58496,63.613279 20.58496,63.81392 C20.58496,63.9934409 20.5163207,64.1571193 20.37904,64.30496 L16.91008,68.61344 L20.53744,73.12784 Z M32.35408,63.0536 C32.5864012,63.0536 32.7764793,63.1301592 32.92432,63.28328 C33.0721607,63.4364008 33.14608,63.6343988 33.14608,63.87728 L33.14608,73.60304 C33.14608,73.8459212 33.0800807,74.0359993 32.94808,74.17328 C32.8160793,74.3105607 32.6339212,74.3792 32.4016,74.3792 C32.1798389,74.3792 32.0056006,74.3105607 31.87888,74.17328 C31.7521594,74.0359993 31.6888,73.8459212 31.6888,73.60304 L31.6888,66.23744 L28.58416,72.14576 C28.383519,72.5153618 28.1248016,72.70016 27.808,72.70016 C27.4911984,72.70016 27.232481,72.5153618 27.03184,72.14576 L23.91136,66.3008 L23.91136,73.60304 C23.91136,73.8459212 23.8480006,74.0359993 23.72128,74.17328 C23.5945594,74.3105607 23.4150412,74.3792 23.18272,74.3792 C22.9609589,74.3792 22.7840807,74.3079207 22.65208,74.16536 C22.5200793,74.0227993 22.45408,73.8353612 22.45408,73.60304 L22.45408,63.87728 C22.45408,63.6343988 22.5279993,63.4364008 22.67584,63.28328 C22.8236807,63.1301592 23.0137588,63.0536 23.24608,63.0536 C23.5734416,63.0536 23.837439,63.2436781 24.03808,63.62384 L27.82384,70.86272 L31.57792,63.62384 C31.778561,63.2436781 32.0372784,63.0536 32.35408,63.0536 Z M36.37744,74.3792 C36.1451188,74.3792 35.9524008,74.3158406 35.79928,74.18912 C35.6461592,74.0623994 35.5696,73.8723213 35.5696,73.61888 L35.5696,67.18784 C35.5696,66.9343987 35.6461592,66.7416807 35.79928,66.60968 C35.9524008,66.4776793 36.1451188,66.41168 36.37744,66.41168 C36.6097612,66.41168 36.7998393,66.4776793 36.94768,66.60968 C37.0955207,66.7416807 37.16944,66.9343987 37.16944,67.18784 L37.16944,73.61888 C37.16944,73.8723213 37.0955207,74.0623994 36.94768,74.18912 C36.7998393,74.3158406 36.6097612,74.3792 36.37744,74.3792 Z M36.37744,64.85936 C36.0711985,64.85936 35.8283209,64.7748808 35.6488,64.60592 C35.4692791,64.4369592 35.37952,64.2152014 35.37952,63.94064 C35.37952,63.6660786 35.4692791,63.4469608 35.6488,63.28328 C35.8283209,63.1195992 36.0711985,63.03776 36.37744,63.03776 C36.6731215,63.03776 36.9133591,63.1195992 37.09816,63.28328 C37.2829609,63.4469608 37.37536,63.6660786 37.37536,63.94064 C37.37536,64.2152014 37.2856009,64.4369592 37.10608,64.60592 C36.9265591,64.7748808 36.6836815,64.85936 36.37744,64.85936 Z M43.5688,66.38 C45.4168092,66.38 46.3408,67.4201496 46.3408,69.50048 L46.3408,73.61888 C46.3408,73.8617612 46.2695207,74.0491993 46.12696,74.1812 C45.9843993,74.3132007 45.7864013,74.3792 45.53296,74.3792 C45.2900788,74.3792 45.0973607,74.3105607 44.9548,74.17328 C44.8122393,74.0359993 44.74096,73.8512012 44.74096,73.61888 L44.74096,69.57968 C44.74096,68.9249567 44.6116013,68.4444815 44.35288,68.13824 C44.0941587,67.8319985 43.6902427,67.67888 43.14112,67.67888 C42.4969568,67.67888 41.979522,67.879518 41.5888,68.2808 C41.198078,68.682082 41.00272,69.2206366 41.00272,69.89648 L41.00272,73.61888 C41.00272,73.8512012 40.9314407,74.0359993 40.78888,74.17328 C40.6463193,74.3105607 40.4536012,74.3792 40.21072,74.3792 C39.9678388,74.3792 39.7724807,74.3105607 39.62464,74.17328 C39.4767993,74.0359993 39.40288,73.8512012 39.40288,73.61888 L39.40288,67.172 C39.40288,66.9502389 39.4794392,66.7680807 39.63256,66.62552 C39.7856808,66.4829593 39.9783988,66.41168 40.21072,66.41168 C40.4430412,66.41168 40.6278393,66.4803193 40.76512,66.6176 C40.9024007,66.7548807 40.97104,66.9343989 40.97104,67.15616 L40.97104,67.8056 C41.2244813,67.3409577 41.5782377,66.9872012 42.03232,66.74432 C42.4864023,66.5014388 42.9985571,66.38 43.5688,66.38 Z M54.84688,63.0536 C55.0897612,63.0536 55.2851193,63.1222393 55.43296,63.25952 C55.5808007,63.3968007 55.65472,63.5815988 55.65472,63.81392 L55.65472,73.60304 C55.65472,73.8459212 55.5834407,74.0359993 55.44088,74.17328 C55.2983193,74.3105607 55.1056012,74.3792 54.86272,74.3792 C54.6198388,74.3792 54.4271207,74.3105607 54.28456,74.17328 C54.1419993,74.0359993 54.07072,73.8459212 54.07072,73.60304 L54.07072,72.96944 C53.8383988,73.4340823 53.5004822,73.7904788 53.05696,74.03864 C52.6134378,74.2868012 52.1012829,74.41088 51.52048,74.41088 C50.8551967,74.41088 50.2612026,74.2419217 49.73848,73.904 C49.2157574,73.5660783 48.8092015,73.0908831 48.5188,72.4784 C48.2283985,71.8659169 48.0832,71.163684 48.0832,70.37168 C48.0832,69.569116 48.2283985,68.866883 48.5188,68.26496 C48.8092015,67.663037 49.2131174,67.1984016 49.73056,66.87104 C50.2480026,66.5436784 50.8446366,66.38 51.52048,66.38 C52.1012829,66.38 52.6107978,66.5040788 53.04904,66.75224 C53.4872822,67.0004012 53.8225588,67.3515177 54.05488,67.8056 L54.05488,63.78224 C54.05488,63.5604789 54.1261593,63.3836007 54.26872,63.2516 C54.4112807,63.1195993 54.6039988,63.0536 54.84688,63.0536 Z M51.90064,73.14368 C52.5870434,73.14368 53.1203181,72.9060824 53.50048,72.43088 C53.8806419,71.9556776 54.07072,71.2798444 54.07072,70.40336 C54.07072,69.5268756 53.8832819,68.8510424 53.5084,68.37584 C53.1335181,67.9006376 52.5976035,67.66304 51.90064,67.66304 C51.2036765,67.66304 50.6624819,67.8979977 50.27704,68.36792 C49.8915981,68.8378423 49.69888,69.5057557 49.69888,70.37168 C49.69888,71.2376043 49.894238,71.9160775 50.28496,72.40712 C50.675682,72.8981625 51.2142366,73.14368 51.90064,73.14368 Z" id="XMind" fill="#E1E4E6"></path>
                </g>
                <g id="logo" transform="translate(46.200000, 53.900000)">
                    <g id="Oval-2">
                        <use fill="#FE6752" xlink:href="#path-2"></use>
                        <use fill="url(#linearGradient-1)" xlink:href="#path-2"></use>
                    </g>
                    <ellipse id="Oval-2" stroke="#FFFFFF" stroke-width="0.869767442" cx="18.6670543" cy="18.5248385" rx="17.8007899" ry="17.6550711"></ellipse>
                    <g id="Group-2" transform="translate(10.082481, 9.593450)" fill="url(#linearGradient-3)">
                        <path d="M6.94033868,7.41580335 C6.83392899,7.37613941 6.73305414,7.31616081 6.64354033,7.23556221 L0.438709026,1.64870701 C0.0574469679,1.30541711 0.0266644509,0.718051695 0.36995435,0.336789636 C0.71324425,-0.0444724225 1.30060966,-0.0752549395 1.68187172,0.26803496 L7.86891721,5.83887574 C7.90128171,5.85539555 7.93387455,5.87129753 7.96668606,5.8865158 C8.18599893,6.07973894 8.47598373,6.19729025 8.79395349,6.19729025 C9.11192325,6.19729025 9.40190805,6.07973894 9.62122091,5.8865158 C9.65423806,5.87120216 9.68703379,5.8551962 9.71959825,5.83856506 L15.9062987,0.26803496 C16.2875608,-0.0752549395 16.8749262,-0.0444724225 17.2182161,0.336789636 C17.561506,0.718051695 17.5307235,1.30541711 17.1494614,1.64870701 L10.9446301,7.23556221 C10.8549664,7.31629577 10.7539036,7.37634022 10.6472971,7.41600243 C10.1305578,7.79535438 9.48899859,8.02002268 8.79395349,8.02002268 C8.09878681,8.02002268 7.45712472,7.79527578 6.94033868,7.41580335 Z" id="Combined-Shape"></path>
                        <path d="M6.94033868,17.2643728 C6.83392899,17.2247089 6.73305414,17.1647303 6.64354033,17.0841317 L0.438709026,11.4972765 C0.0574469679,11.1539866 0.0266644509,10.5666212 0.36995435,10.1853591 C0.71324425,9.80409704 1.30060966,9.77331453 1.68187172,10.1166044 L7.86891721,15.6874452 C7.90128171,15.703965 7.93387455,15.719867 7.96668606,15.7350853 C8.18599893,15.9283084 8.47598373,16.0458597 8.79395349,16.0458597 C9.11192325,16.0458597 9.40190805,15.9283084 9.62122091,15.7350853 C9.65423806,15.7197716 9.68703379,15.7037657 9.71959825,15.6871345 L15.9062987,10.1166044 C16.2875608,9.77331453 16.8749262,9.80409704 17.2182161,10.1853591 C17.561506,10.5666212 17.5307235,11.1539866 17.1494614,11.4972765 L10.9446301,17.0841317 C10.8549664,17.1648652 10.7539036,17.2249097 10.6472971,17.2645719 C10.1305578,17.6439239 9.48899859,17.8685921 8.79395349,17.8685921 C8.09878681,17.8685921 7.45712472,17.6438452 6.94033868,17.2643728 Z" id="Combined-Shape" transform="translate(8.794085, 13.873293) scale(1, -1) translate(-8.794085, -13.873293) "></path>
                    </g>
                </g>
            </g>
        </g>
    </g>
</svg>