<?xml version="1.0" encoding="UTF-8"?>
<svg width="110px" height="110px" viewBox="0 0 110 110" version="1.1" xmlns="http://www.w3.org/2000/svg" xmlns:xlink="http://www.w3.org/1999/xlink">
    <!-- Generator: Sketch 48.2 (47327) - http://www.bohemiancoding.com/sketch -->
    <title>set password</title>
    <desc>Created with Sketch.</desc>
    <defs>
        <path d="M16.2394737,0 C21.9674555,-1.05221319e-15 26.6109023,4.64344674 26.6109023,10.3714286 L26.6109023,20.3685791 C26.6109023,26.096561 21.9674555,30.7400077 16.2394737,30.7400077 C10.5114919,30.7400077 5.86804511,26.096561 5.86804511,20.3685791 L5.86804511,10.3714286 C5.86804511,4.64344674 10.5114919,1.05221319e-15 16.2394737,0 Z M16.2394737,2.56166731 C11.9434873,2.56166731 8.46090226,6.04425236 8.46090226,10.3402387 L8.46090226,19.375102 C8.46090226,23.6710884 11.9434873,27.1536735 16.2394737,27.1536735 C20.5354601,27.1536735 24.0180451,23.6710884 24.0180451,19.375102 L24.0180451,10.3402387 C24.0180451,6.04425236 20.5354601,2.56166731 16.2394737,2.56166731 Z" id="path-1"></path>
        <filter x="-12.1%" y="-8.1%" width="133.7%" height="122.8%" filterUnits="objectBoundingBox" id="filter-2">
            <feOffset dx="1" dy="1" in="SourceAlpha" result="shadowOffsetOuter1"></feOffset>
            <feGaussianBlur stdDeviation="1" in="shadowOffsetOuter1" result="shadowBlurOuter1"></feGaussianBlur>
            <feColorMatrix values="0 0 0 0 0.607892215   0 0 0 0 0.607803345   0 0 0 0 0.607922554  0 0 0 0.0518851902 0" type="matrix" in="shadowBlurOuter1"></feColorMatrix>
        </filter>
    </defs>
    <g id="Artboard-14-Copy" stroke="none" stroke-width="1" fill="none" fill-rule="evenodd" transform="translate(-2451.000000, -3186.000000)">
        <g id="Group-24-Copy-2" transform="translate(2451.000000, 3186.000000)">
            <circle id="Oval-8" fill="#F4F4F7" opacity="0.98999995" cx="55" cy="55" r="51"></circle>
            <g id="Group-49" transform="translate(20.900000, 11.000000)">
                <g id="Group-38">
                    <path d="M42.1867187,1.1 L1.54,1.1 C0.689481485,1.1 1.46549439e-15,1.78948149 1.46549439e-15,2.64 L0,83.16 C0,84.0105185 0.689481485,84.7 1.54,84.7 L62.26,84.7 C63.1105185,84.7 63.8,84.0105185 63.8,83.16 L63.8,22.3442871 L42.1867187,1.1 Z" id="Combined-Shape" fill="#FFFFFF" fill-rule="nonzero"></path>
                    <path d="M39.82,0 C45.1,1.32 47.74,7.04 47.74,17.16 C57.42,17.16 63.14,19.8 64.9,25.08 C64.24,21.12 57.5939187,15.2695249 53.6712813,11.3468875 C49.7486439,7.42425016 43.78,0.66 39.82,0 Z" id="Rectangle-3-Copy" fill="#E1E4E6"></path>
                </g>
                <g id="Group-25" transform="translate(5.500000, 33.000000)">
                    <path d="M33.0682199,10.9574543 C36.0117382,2.07720776 43.3052969,2.07720776 43.3052969,2.07720776" id="Path-11" stroke="#E1E4E6" stroke-width="0.55"></path>
                    <path d="M33.0682199,19.8432874 C36.0117382,10.9630409 43.3052969,10.9630409 43.3052969,10.9630409" id="Path-11" stroke="#E1E4E6" stroke-width="0.55" transform="translate(38.186758, 15.403164) scale(1, -1) translate(-38.186758, -15.403164) "></path>
                    <rect id="Rectangle-3-Copy" fill="#E1E4E6" x="43.0457015" y="17.7716664" width="11.910828" height="5.053125" rx="0.352"></rect>
                    <rect id="Rectangle-3-Copy" fill="#E1E4E6" x="43.0457015" y="0" width="11.910828" height="5.053125" rx="0.352"></rect>
                    <path d="M11.7691574,10.9574543 C14.7126757,2.07720776 22.0062344,2.07720776 22.0062344,2.07720776" id="Path-11" stroke="#E1E4E6" stroke-width="0.55" transform="translate(16.887696, 6.517331) scale(-1, 1) translate(-16.887696, -6.517331) "></path>
                    <path d="M11.7691574,19.8432874 C14.7126757,10.9630409 22.0062344,10.9630409 22.0062344,10.9630409" id="Path-11" stroke="#E1E4E6" stroke-width="0.55" transform="translate(16.887696, 15.403164) scale(-1, -1) translate(-16.887696, -15.403164) "></path>
                    <rect id="Rectangle-3-Copy" fill="#E1E4E6" transform="translate(6.073339, 20.298229) scale(-1, 1) translate(-6.073339, -20.298229) " x="0.11792478" y="17.7716664" width="11.910828" height="5.053125" rx="0.352"></rect>
                    <rect id="Rectangle-3-Copy" fill="#E1E4E6" transform="translate(6.073339, 2.526563) scale(-1, 1) translate(-6.073339, -2.526563) " x="0.11792478" y="0" width="11.910828" height="5.053125" rx="0.352"></rect>
                    <rect id="Rectangle-6" fill="#E1E4E6" x="17.3038887" y="6.8578125" width="20.3184713" height="8.6625" rx="0.352"></rect>
                </g>
                <g id="Group" transform="translate(49.000000, 40.000000)">
                    <g id="Combined-Shape">
                        <use fill="black" fill-opacity="1" filter="url(#filter-2)" xlink:href="#path-1"></use>
                        <use fill="#727D8A" fill-rule="evenodd" xlink:href="#path-1"></use>
                    </g>
                    <ellipse id="Oval-17" fill="#84D9DD" cx="16.2394737" cy="29.4594059" rx="16.2394737" ry="16.0441268"></ellipse>
                    <g id="Group-13" transform="translate(13.070426, 22.859345)" fill="#FFFFFF">
                        <path d="M5.40877867,6.0178114 L5.96594455,11.7858967 C6.05372487,12.6946466 5.38819757,13.5024939 4.47944771,13.5902743 C4.42662125,13.595377 4.3735797,13.5979328 4.32050737,13.5979328 L2.59377835,13.5979328 C1.68079878,13.5979328 0.940682601,12.8578166 0.940682601,11.9448371 C0.940682601,11.8917647 0.943238416,11.8387232 0.948341167,11.7858967 L1.50550704,6.0178114 C0.596421439,5.42390419 0,4.42660013 0,3.29646856 C0,1.47587925 1.54781558,1.27897692e-13 3.45714286,1.27897692e-13 C5.36647014,1.27897692e-13 6.91428571,1.47587925 6.91428571,3.29646856 C6.91428571,4.42660013 6.31786428,5.42390419 5.40877867,6.0178114 Z" id="Combined-Shape"></path>
                    </g>
                </g>
            </g>
        </g>
    </g>
</svg>