<?xml version="1.0" encoding="UTF-8"?>
<svg width="110px" height="110px" viewBox="0 0 110 110" version="1.1" xmlns="http://www.w3.org/2000/svg" xmlns:xlink="http://www.w3.org/1999/xlink">
    <!-- Generator: Sketch 48.2 (47327) - http://www.bohemiancoding.com/sketch -->
    <title>set new password</title>
    <desc>Created with Sketch.</desc>
    <defs></defs>
    <g id="Artboard-14-Copy" stroke="none" stroke-width="1" fill="none" fill-rule="evenodd" transform="translate(-2771.000000, -3186.000000)">
        <g id="Group-26" transform="translate(2771.000000, 3186.000000)">
            <circle id="Oval-8" fill="#F4F4F7" opacity="0.98999995" cx="55" cy="55" r="51"></circle>
            <g id="Group" transform="translate(23.100000, 11.000000)">
                <path d="M31.35,0 C41.9380876,-1.94500014e-15 50.5214286,8.58334094 50.5214286,19.1714286 L50.5214286,37.0396056 C50.5214286,47.6276932 41.9380876,56.2110341 31.35,56.2110341 C20.7619124,56.2110341 12.1785714,47.6276932 12.1785714,37.0396056 L12.1785714,19.1714286 C12.1785714,8.58334094 20.7619124,1.94500014e-15 31.35,0 Z M31.2836605,4.00753794 C22.7670401,4.00753794 15.8629552,10.9116229 15.8629552,19.4282433 L15.8629552,36.8149225 C15.8629552,45.3315429 22.7670401,52.2356278 31.2836605,52.2356278 C39.8002809,52.2356278 46.7043658,45.3315429 46.7043658,36.8149225 L46.7043658,19.4282433 C46.7043658,10.9116229 39.8002809,4.00753794 31.2836605,4.00753794 Z" id="Combined-Shape" fill="#E1E4E6"></path>
                <ellipse id="Oval-17" fill="#FFFFFF" cx="31.35" cy="53.3827932" rx="30.8" ry="30.1020839"></ellipse>
                <g id="Group-13" transform="translate(25.492063, 41.313953)" fill="#E1E4E6">
                    <path d="M10.3162442,10.7846376 L12.2295417,21.269346 C12.531789,22.9256359 11.4341207,24.513344 9.77783086,24.8155913 C9.59727129,24.8485406 9.41410497,24.8651163 9.23056365,24.8651163 L3.55038873,24.8651163 C1.86674699,24.8651163 0.501885692,23.500255 0.501885692,21.8166132 C0.501885692,21.6330719 0.518461341,21.4499056 0.551410676,21.269346 L2.46470816,10.7846376 C0.964676183,9.68156467 0,7.96100028 0,6.02790698 C0,2.69878588 2.86111365,-1.49213975e-13 6.39047619,-1.49213975e-13 C9.91983873,-1.49213975e-13 12.7809524,2.69878588 12.7809524,6.02790698 C12.7809524,7.96100028 11.8162762,9.68156467 10.3162442,10.7846376 Z" id="Combined-Shape"></path>
                </g>
            </g>
            <g id="Group" transform="translate(78.000000, 78.500000) rotate(-125.000000) translate(-78.000000, -78.500000) translate(66.000000, 52.000000)">
                <path d="M15.6444444,29.8134762 C20.2016413,31.414147 23.4666667,35.7331628 23.4666667,40.81 C23.4666667,47.2496402 18.2134744,52.47 11.7333333,52.47 C5.25319227,52.47 0,47.2496402 0,40.81 C0,36.4941539 2.35956529,32.7259693 5.86666667,30.7099004 L5.86666667,19.7264359 L8.80251592,16.1762195 L5.13584926,12.3530217 L8.80251592,8.95853178 L5.13584926,4.86593071 L10.6980829,0 L15.6444444,3.88666667 L15.6444444,29.8134762 Z" id="Combined-Shape" fill="#FFBE27"></path>
                <path d="M12.0453931,31.091838 L12.0453931,6.12435873" id="Path-12" stroke="#F1A03C" stroke-width="0.968" stroke-linecap="round"></path>
                <ellipse id="Oval-15" fill="#FFFFFF" cx="11.7333333" cy="40.81" rx="2.93333333" ry="2.915"></ellipse>
            </g>
        </g>
    </g>
</svg>