<?xml version="1.0" encoding="UTF-8"?>
<svg width="64px" height="64px" viewBox="0 0 64 64" version="1.1" xmlns="http://www.w3.org/2000/svg" xmlns:xlink="http://www.w3.org/1999/xlink">
    <!-- Generator: Sketch 46.2 (44496) - http://www.bohemiancoding.com/sketch -->
    <title>blackboard</title>
    <desc>Created with Sketch.</desc>
    <defs>
        <path d="M7.8125,0 L45.3125,0 L45.3125,0 C47.9013348,-4.75561231e-16 50,2.09866524 50,4.6875 L50,31.25 L3.125,31.25 L3.125,4.6875 L3.125,4.6875 C3.125,2.09866524 5.22366524,4.75561231e-16 7.8125,0 Z" id="path-1"></path>
        <path d="M2.34375,29.6875 L50.78125,29.6875 L50.78125,29.6875 C52.0756674,29.6875 53.125,30.7368326 53.125,32.03125 L53.125,32.03125 L53.125,32.03125 C53.125,33.3256674 52.0756674,34.375 50.78125,34.375 L2.34375,34.375 L2.34375,34.375 C1.04933262,34.375 1.5852041e-16,33.3256674 0,32.03125 L0,32.03125 L0,32.03125 C-1.5852041e-16,30.7368326 1.04933262,29.6875 2.34375,29.6875 Z" id="path-2"></path>
    </defs>
    <g id="Sticker-size-64*64" stroke="none" stroke-width="1" fill="none" fill-rule="evenodd">
        <g id="blackboard">
            <g id="Group-2" transform="translate(6.666667, 10.666667)">
                <g id="Group" transform="translate(0.104167, 0.322917)">
                    <g id="Rectangle">
                        <use fill="#F5E0C7" fill-rule="evenodd" xlink:href="#path-1"></use>
                        <path stroke="#2B2B2B" stroke-width="1.5625" d="M3.90625,30.46875 L49.21875,30.46875 L49.21875,4.6875 C49.21875,2.5301377 47.4698623,0.78125 45.3125,0.78125 L7.8125,0.78125 C5.6551377,0.78125 3.90625,2.5301377 3.90625,4.6875 L3.90625,30.46875 Z"></path>
                    </g>
                    <g id="Rectangle-2">
                        <use fill="#F5E0C7" fill-rule="evenodd" xlink:href="#path-2"></use>
                        <path stroke="#2B2B2B" stroke-width="1.5625" d="M2.34375,30.46875 C1.48080508,30.46875 0.78125,31.1683051 0.78125,32.03125 C0.78125,32.8941949 1.48080508,33.59375 2.34375,33.59375 L50.78125,33.59375 C51.6441949,33.59375 52.34375,32.8941949 52.34375,32.03125 C52.34375,31.1683051 51.6441949,30.46875 50.78125,30.46875 L2.34375,30.46875 Z"></path>
                    </g>
                    <path d="M26.5454489,34.8378032 L36.1211163,44.4134706 C36.4262134,44.7185677 36.9208735,44.7185677 37.2259706,44.4134706 L37.2259706,44.4134706 C37.5310677,44.1083735 37.5310677,43.6137134 37.2259706,43.3086163 L27.2822815,33.3649272 C27.0824758,33.1651214 26.8013695,33.0961669 26.5454489,33.1580637 C26.2895283,33.0961669 26.008422,33.1651214 25.8086163,33.3649272 L15.8649272,43.3086163 L15.8649272,43.3086163 C15.5598301,43.6137134 15.5598301,44.1083735 15.8649272,44.4134706 L15.8649272,44.4134706 C16.1700243,44.7185677 16.6646844,44.7185677 16.9697815,44.4134706 L26.5454489,34.8378032 Z" id="Combined-Shape" fill="#2B2B2B"></path>
                    <rect id="Rectangle-3" fill="#8BCB76" x="8.125" y="5" width="36.875" height="24.6875"></rect>
                    <rect id="Rectangle-4" fill="#FFFFFF" x="28.75" y="25.9375" width="13.75" height="3.75"></rect>
                    <rect id="Rectangle-5" fill="#2B2B2B" x="28.75" y="24.375" width="13.75" height="1.5625"></rect>
                    <path d="M15.4686269,24.0768655 C14.4383534,19.5871194 11.7076874,15.3833008 14.1519165,14.348526 C16.5961456,13.3137512 19.7285461,21.2528992 21.8755488,20.1822662 C24.0225514,19.1116333 19.5306728,13.3071359 21.3478126,12.205658 C23.1649523,11.10418 24.6105194,15.8827972 26.2197876,14.933548 C27.8290558,13.9842987 25.2025136,11.4712747 26.3749989,10.6476052 C27.5474843,9.82393581 28.594877,11.4831765 29.5323476,11.4831765" id="Path-2" stroke="#FFFFFF" stroke-width="1.5625" stroke-linecap="round"></path>
                </g>
            </g>
            <rect id="Rectangle" x="0" y="0" width="64" height="64"></rect>
        </g>
    </g>
</svg>