<?xml version="1.0" encoding="UTF-8"?>
<svg width="64px" height="64px" viewBox="0 0 64 64" version="1.1" xmlns="http://www.w3.org/2000/svg" xmlns:xlink="http://www.w3.org/1999/xlink">
    <!-- Generator: Sketch 47 (45396) - http://www.bohemiancoding.com/sketch -->
    <title>surprise</title>
    <desc>Created with Sketch.</desc>
    <defs>
        <circle id="path-1" cx="4.11764706" cy="3.64705882" r="3.52941176"></circle>
        <circle id="path-2" cx="25.2941176" cy="3.64705882" r="3.52941176"></circle>
    </defs>
    <g id="Sticker-size-64*64" stroke="none" stroke-width="1" fill="none" fill-rule="evenodd">
        <g id="surprise">
            <circle id="Oval-17" fill="#FBDC67" cx="32" cy="32" r="25"></circle>
            <path d="M7.32825656,36.0615544 C9.26843591,47.937035 19.5758335,57 32,57 C45.8071187,57 57,45.8071187 57,32 C57,29.1793298 56.5328672,26.4677644 55.6717434,23.9384456 C55.8877077,25.2603228 56,26.6170477 56,28 C56,41.8071187 44.8071187,53 31,53 C20.0135514,53 10.6823147,45.9131959 7.32825656,36.0615544 Z" id="Combined-Shape" fill="#F2CC5B"></path>
            <g id="Group-44-Copy-5" transform="translate(17.000000, 21.000000)">
                <g id="Group-34">
                    <circle id="Oval-3-Copy" fill="#4C4023" cx="14.7058824" cy="21.2941176" r="7.05882353"></circle>
                    <path d="M8.59140373,24.8235294 C9.81190757,26.9334166 12.0931211,28.3529412 14.7058824,28.3529412 C17.3186436,28.3529412 19.5998571,26.9334166 20.820361,24.8235294 C19.5998571,22.7136422 17.3186436,21.2941176 14.7058824,21.2941176 C12.0931211,21.2941176 9.81190757,22.7136422 8.59140373,24.8235294 Z" id="Combined-Shape" fill="#E74643"></path>
                    <g id="Oval-3">
                        <use fill="#4C4023" fill-rule="evenodd" xlink:href="#path-1"></use>
                        <circle stroke="#FFFFFF" stroke-width="3.52941176" cx="4.11764706" cy="3.64705882" r="5.29411765"></circle>
                    </g>
                    <g id="Oval-3-Copy">
                        <use fill="#4C4023" fill-rule="evenodd" xlink:href="#path-2"></use>
                        <circle stroke="#FFFFFF" stroke-width="3.52941176" cx="25.2941176" cy="3.64705882" r="5.29411765"></circle>
                    </g>
                </g>
            </g>
        </g>
    </g>
</svg>