<?xml version="1.0" encoding="UTF-8"?>
<svg width="64px" height="64px" viewBox="0 0 64 64" version="1.1" xmlns="http://www.w3.org/2000/svg" xmlns:xlink="http://www.w3.org/1999/xlink">
    <!-- Generator: Sketch 47 (45396) - http://www.bohemiancoding.com/sketch -->
    <title>like</title>
    <desc>Created with Sketch.</desc>
    <defs></defs>
    <g id="Sticker-size-64*64" stroke="none" stroke-width="1" fill="none" fill-rule="evenodd">
        <g id="like">
            <circle id="Oval-17" fill="#FBDC67" cx="32" cy="32" r="25"></circle>
            <path d="M7.32825656,36.0615544 C9.26843591,47.937035 19.5758335,57 32,57 C45.8071187,57 57,45.8071187 57,32 C57,29.1793298 56.5328672,26.4677644 55.6717434,23.9384456 C55.8877077,25.2603228 56,26.6170477 56,28 C56,41.8071187 44.8071187,53 31,53 C20.0135514,53 10.6823147,45.9131959 7.32825656,36.0615544 Z" id="Combined-Shape" fill="#F2CC5B"></path>
            <path d="M31.9002984,47.3636574 C38.9904707,47.3636574 44.8496248,42.0930419 45.7734811,35.2560907 C45.85711,34.6371985 45.7734811,33.3636574 44.1639702,33.3636574 C38.3546016,33.3636574 26.2462147,33.3636574 19.6308587,33.3636574 C18.0203027,33.3636574 17.9411421,34.6024177 18.0203027,35.2049616 C18.921785,42.0667471 24.7924618,47.3636574 31.9002984,47.3636574 Z" id="Oval-2" fill="#4C4023"></path>
            <path d="M23.9583625,44.8925322 C26.215535,46.4509733 28.9528033,47.3636574 31.9032403,47.3636574 C34.8939486,47.3636574 37.6656293,46.4258884 39.9402754,44.8283573 C38.2462408,42.2229407 35.3093272,40.5 31.9699993,40.5 C28.6033296,40.5 25.6456911,42.2512703 23.9583625,44.8925322 Z" id="Combined-Shape" fill="#E74643"></path>
            <path d="M25.7156823,10.3494753 C23.8803985,10.3494753 22.2550328,11.2135421 21.2054424,12.5516454 C20.155852,11.2135421 18.5244887,10.3494753 16.6952025,10.3494753 C13.5284383,10.3494753 10.9554424,12.9176736 10.9554424,16.0919187 C10.9554424,21.522338 21.2054424,28.1588503 21.2054424,28.1588503 C21.2054424,28.1588503 31.4554424,21.6123449 31.4554424,16.0919187 C31.4554424,12.9236741 28.8884442,10.3494753 25.7156823,10.3494753 Z" id="Shape" fill="#E45353" fill-rule="nonzero" transform="translate(21.205442, 19.254163) rotate(-15.000000) translate(-21.205442, -19.254163) "></path>
            <path d="M46.7156823,10.3494753 C44.8803985,10.3494753 43.2550328,11.2135421 42.2054424,12.5516454 C41.155852,11.2135421 39.5244887,10.3494753 37.6952025,10.3494753 C34.5284383,10.3494753 31.9554424,12.9176736 31.9554424,16.0919187 C31.9554424,21.522338 42.2054424,28.1588503 42.2054424,28.1588503 C42.2054424,28.1588503 52.4554424,21.6123449 52.4554424,16.0919187 C52.4554424,12.9236741 49.8884442,10.3494753 46.7156823,10.3494753 Z" id="Shape-Copy" fill="#E45353" fill-rule="nonzero" transform="translate(42.205442, 19.254163) scale(-1, 1) rotate(-15.000000) translate(-42.205442, -19.254163) "></path>
        </g>
    </g>
</svg>