<?xml version="1.0" encoding="UTF-8"?>
<svg width="64px" height="64px" viewBox="0 0 64 64" version="1.1" xmlns="http://www.w3.org/2000/svg" xmlns:xlink="http://www.w3.org/1999/xlink">
    <!-- Generator: Sketch 46.2 (44496) - http://www.bohemiancoding.com/sketch -->
    <title>team</title>
    <desc>Created with Sketch.</desc>
    <defs>
        <path d="M6.90885417,16.4290896 L14.4236979,16.4290896 L14.4236979,23.4029166 C14.4236979,23.4029166 11.9330569,25.0921947 10.666276,25.0921947 C9.39949516,25.0921947 6.90885417,23.4029166 6.90885417,23.4029166 L6.90885417,16.4290896 Z" id="path-1"></path>
        <path d="M9.67907986,13.6911126 C7.44649306,13.6911126 5.50618056,12.4615498 4.52180556,10.654212 C3.85267361,9.4256042 4.1522092,7.68037973 5.31194878,6.87806019 C5.53446615,6.7240664 6.54737808,4.2511489 8.50438596,4.17922238 C12.0895199,4.04745685 15.5474077,6.51283892 15.5067014,8.39718836 C15.4425909,11.3649511 12.7539757,13.6911126 9.67907986,13.6911126 Z" id="path-2"></path>
        <path d="M10.3632812,24.2864802 L21.6355469,24.2864802 L21.6355469,34.5956158 C21.6355469,34.5956158 17.8995854,33.6290268 15.9994141,33.6290268 C14.0992427,33.6290268 10.3632812,34.5956158 10.3632812,34.5956158 L10.3632812,24.2864802 Z" id="path-3"></path>
        <path d="M16,27.1631378 C10.811875,27.1631378 6.60613281,22.8709346 6.60613281,17.5761529 L6.60613281,16.6174663 L6.98185547,15.5773685 C7.76583984,15.0439675 7.38452148,14.1459165 7.38452148,13.18424 L7.38452148,9.93001586 C7.48568154,9.85890147 7.20945082,7.14502264 8.78808594,6.73009343 C9.86322489,6.4475034 12.6653245,8.06268243 13.5382401,8.24052373 C17.214639,8.98952571 21.7619314,9.12246605 24.7419434,11.6569881 C24.8477246,12.4758915 24.7419434,12.5007453 24.7419434,13.18424 C24.7419434,14.1459165 24.4625586,15.0443263 25.2466602,15.5778468 L25.3939844,16.6174663 L25.3939844,17.5761529 C25.3938672,22.870815 21.188125,27.1631378 16,27.1631378 Z" id="path-4"></path>
    </defs>
    <g id="Sticker-size-64*64" stroke="none" stroke-width="1" fill="none" fill-rule="evenodd">
        <g id="team">
            <g id="team-3-copy" transform="translate(41.333333, 18.666667)" fill-rule="nonzero">
                <path d="M2.14354167,24.3984177 C2.38479167,24.7298797 2.52533854,25.1367439 2.52533854,25.5674747 L2.52533854,30.0485632 L0.0202604167,30.0485632 L0.0202604167,26.7807859 C0.0202604167,26.3867854 0.193229167,26.0140625 0.490338542,25.7679538 L2.14354167,24.3984177 Z" id="Shape" fill="#C7CFE2"></path>
                <path d="M17.5554948,7.59457841 C17.5554948,7.59457841 19.447516,2.28955982 14.5570913,0.521363812 C14.5570913,0.521363812 10.1436591,0.150641605 8.47075321,0.521363812 C6.14996182,1.03565986 6.34262955,2.5272948 6.14042468,2.7525047 C5.74302058,3.19512181 4.44853925,3.41589162 4.09916667,3.94979745 C3.78016628,4.43728896 3.77776042,5.31810759 3.77776042,6.05287943 L3.77776042,7.59457841 C3.77776042,8.29164381 3.88627604,8.98409771 4.09916667,9.64540373 L4.30760417,10.293037 C4.37143229,10.4914127 4.40401042,10.6991731 4.40401042,10.9083089 L4.40401042,11.2411463 L16.9292448,11.2411463 L16.9292448,10.9083089 C16.9292448,10.6991731 16.9618229,10.4914127 17.025651,10.293037 L17.2340885,9.64540373 C17.4469792,8.98417862 17.5554948,8.29164381 17.5554948,7.59457841 Z" id="Shape" fill="#2B2B2B"></path>
                <g id="Rectangle-path">
                    <use fill="#FFF9ED" fill-rule="evenodd" xlink:href="#path-1"></use>
                    <path stroke="#2B2B2B" stroke-width="1.66666667" d="M7.7421875,17.2624229 L7.7421875,22.9493799 C7.74794163,22.9529851 7.75374672,22.9566188 7.75960228,22.9602799 C8.06226538,23.1495196 8.38390279,23.3387904 8.70889769,23.514527 C8.98056122,23.6614254 9.24230634,23.7920702 9.48844746,23.9020811 C10.0078893,24.1342416 10.4285333,24.2588614 10.666276,24.2588614 C10.9040187,24.2588614 11.3246627,24.1342416 11.8441046,23.9020811 C12.0902457,23.7920702 12.3519909,23.6614254 12.6236544,23.514527 C12.9486493,23.3387904 13.2702867,23.1495196 13.5729498,22.9602799 C13.5788054,22.9566188 13.5846105,22.9529851 13.5903646,22.9493793 L13.5903646,17.2624229 L7.7421875,17.2624229 Z"></path>
                </g>
                <path d="M10.6666667,18.3750638 C7.20791667,18.3750638 4.92301432,15.4715146 4.92301432,11.8897505 L4.92301432,11.2412272 L5.17349609,10.5376316 C5.69615234,10.1768015 4.92301432,9.56929643 4.92301432,8.91875059 L4.92301432,6.71736367 C4.99045436,6.66925688 5.52950768,6.99805108 6.58193109,6.71736367 C7.29869039,6.52619983 8.50380673,5.67449499 8.98216306,5.70531357 C11.4713877,5.86568433 14.4097381,5.00283408 16.3964128,6.71736367 C16.4669336,7.27132779 16.4946289,8.45638652 16.4946289,8.91875059 C16.4946289,9.56929643 15.7149439,10.2517542 16.3964128,10.5379552 L16.4946289,11.2412272 L16.4946289,11.8897505 C16.4945508,15.4714337 14.1254167,18.3750638 10.6666667,18.3750638 Z" id="Shape" stroke="#2B2B2B" stroke-width="1.66666667" fill="#FFF9ED"></path>
                <path d="M21.3130729,30.0485632 L21.3130729,25.3802637 C21.3130729,24.2894405 20.6540885,23.3151185 19.6640885,22.9423147 L19.6640885,22.9423147 L14.4242448,20.9691568 L10.6666667,22.2662033 L6.90908854,20.9691568 L1.66924479,22.9423147 C0.679244792,23.3151185 0.0202604167,24.2894405 0.0202604167,25.3802637 L0.0202604167,30.0485632" id="Shape" stroke="#2B2B2B" stroke-width="1.66666667" fill="#FFC55D" stroke-linecap="round"></path>
            </g>
            <g id="team-3-copy" transform="translate(1.333333, 20.000000)" fill-rule="nonzero">
                <path d="M16.4983681,6.72586023 C16.2313715,3.03562007 13.4452257,0.0273694376 9.67907986,0.0273694376 C5.91293403,0.0273694376 3.12678819,3.03562007 2.85979167,6.72586023 C2.70071181,8.92594194 3.83395833,17.2674181 2.85979167,19.1812385 C2.85979167,19.1812385 2.85979167,16.2950816 6.45251736,17.2546181 L12.9253299,17.2519918 C16.4983681,16.2950816 17.3342803,19.1812385 17.3342803,19.1812385 C16.3601136,17.2674181 16.6574479,8.92594194 16.4983681,6.72586023 Z" id="Shape" stroke="#2B2B2B" stroke-width="1.66666667" fill="#AB6F7B"></path>
                <path d="M18.4467014,27.0879748 L18.4467014,20.4760309 C18.4467014,19.3887632 17.8213194,18.3947273 16.8311111,17.9083935 L16.8311111,17.9083935 L13.678559,16.3600994 C13.0184201,16.0358768 12.6014583,15.3731067 12.6014583,14.6481422 L12.6015799,11.7771728 L6.75657986,11.7771728 L6.75657986,14.6481422 C6.75657986,15.3729873 6.33961806,16.0356381 5.67960069,16.3598607 L2.52692708,17.9082741 C1.53684028,18.394608 0.911458333,19.3885244 0.911458333,20.4759115 L0.911458333,27.0879748" id="Shape" stroke="#2B2B2B" stroke-width="0.967741935" fill="#FFF9ED"></path>
                <path d="M18.4467014,27.0511148 L18.4467014,20.4761503 C18.4467014,19.3887632 17.8211979,18.3947273 16.8311111,17.9083935 L13.678559,16.3600994 C13.4971181,16.2710456 13.3391319,16.1522675 13.1981597,16.0178512 L12.0801042,17.2402515 C10.7595833,18.683973 8.59869792,18.6838537 7.27817708,17.2402515 L6.16,16.0177318 C6.01890625,16.1521481 5.86092014,16.2709263 5.67972222,16.35998 L2.52692708,17.9083935 C1.53696181,18.394608 0.911579861,19.3886438 0.911579861,20.4759115 L0.911458333,27.0511148" id="Shape" stroke="#2B2B2B" stroke-width="1.66666667" fill="#ED6969" stroke-linecap="round"></path>
                <g id="Shape">
                    <use fill="#FFF9ED" fill-rule="evenodd" xlink:href="#path-2"></use>
                    <path stroke="#2B2B2B" stroke-width="1.66666667" d="M9.67907986,12.8577793 C12.3608775,12.8577793 14.620491,10.8359416 14.6735624,8.37919064 C14.7045745,6.9435998 11.5102441,4.90264313 8.53499306,5.01199345 C7.95243872,5.03340425 7.40723463,5.39570856 6.88083305,6.05267345 C6.66355356,6.32384475 5.98675822,7.42448605 5.78605988,7.5633799 C5.01452841,8.09713316 4.76544243,9.3592458 5.25363114,10.2556197 C6.11843823,11.8434279 7.80588905,12.8577793 9.67907986,12.8577793 Z"></path>
                </g>
            </g>
            <g id="team-3" transform="translate(14.666667, 10.666667)">
                <path d="M3.2153125,36.0672261 C3.5771875,36.5572135 3.78800781,37.1586649 3.78800781,37.7953973 L3.78800781,44.4196151 L0.030390625,44.4196151 L0.030390625,39.5889879 C0.030390625,39.0065523 0.28984375,38.4555707 0.735507812,38.0917577 L3.2153125,36.0672261 Z" id="Shape" fill="#C7CFE2" fill-rule="nonzero"></path>
                <path d="M31.9696094,44.4196151 L31.9696094,37.5186507 C31.9696094,35.9061294 30.9811328,34.4658273 29.4961328,33.9147261 L29.4961328,33.9147261 L21.6363672,30.997884 L16,32.9152571 L10.3636328,30.997884 L2.50386719,33.9147261 C1.01886719,34.4658273 0.030390625,35.9061294 0.030390625,37.5186507 L0.030390625,44.4196151" id="Shape" stroke="#2B2B2B" stroke-width="1.66666667" fill="#94E8F4" fill-rule="nonzero" stroke-linecap="round"></path>
                <path d="M6.73684211,38.617284 L6.73684211,44.4938272" id="Path-2" stroke="#2B2B2B" stroke-width="1.66666667" stroke-linecap="round"></path>
                <path d="M25.2631579,38.617284 L25.2631579,44.4938272" id="Path-2-Copy" stroke="#2B2B2B" stroke-width="1.66666667" stroke-linecap="round"></path>
                <path d="M26.3332422,11.2267681 C26.3332422,11.2267681 28.598877,3.68852322 19.9501953,0.770711722 C19.9501953,0.770711722 17.2904757,0.344542572 16.0217582,0.344542572 C15.0037309,0.344542572 12.2116699,0.770711722 12.2116699,0.770711722 C11.3923172,1.0375236 7.31225634,1.78227517 6.60601563,2.18869725 C5.8050136,2.64965185 7.83338399,3.2515283 7.31144239,3.82442668 C6.17105171,5.07615286 5.66664063,6.6719497 5.66664063,8.94773481 L5.66664063,11.2267681 C5.66664063,12.2572126 5.82941406,13.2808401 6.14875,14.2584229 L6.46140625,15.2157939 C6.55714844,15.5090448 6.60601563,15.8161689 6.60601563,16.1253262 L6.60601563,16.6173467 L25.3938672,16.6173467 L25.3938672,16.1253262 C25.3938672,15.8161689 25.4427344,15.5090448 25.5384766,15.2157939 L25.8511328,14.2584229 C26.1704688,13.2809597 26.3332422,12.2572126 26.3332422,11.2267681 Z" id="Shape" fill="#2B2B2B" fill-rule="nonzero"></path>
                <g id="Rectangle-path" fill-rule="nonzero">
                    <use fill="#FFF9ED" fill-rule="evenodd" xlink:href="#path-3"></use>
                    <path stroke="#2B2B2B" stroke-width="1.66666667" d="M11.1966146,25.1198136 L11.1966146,33.5371867 C11.5547557,33.45481 11.925339,33.3735407 12.3004361,33.2961696 C12.7429537,33.2048917 13.172501,33.1231066 13.5825643,33.0531946 C14.5517013,32.8879658 15.3681885,32.7956935 15.9994141,32.7956935 C16.6306396,32.7956935 17.4471269,32.8879658 18.4162638,33.0531946 C18.8263271,33.1231066 19.2558745,33.2048917 19.698392,33.2961696 C20.0734891,33.3735407 20.4440724,33.45481 20.8022135,33.5371859 L20.8022135,25.1198136 L11.1966146,25.1198136 Z"></path>
                </g>
                <path d="M16,32.9152571 L13.0039844,35.9728644 C12.6013281,36.3837984 11.9357031,36.3375145 11.5914063,35.8745559 L8.48488281,31.6971655 L9.29746094,29.9496196 C9.53722656,29.4339189 10.1626563,29.2449563 10.6389063,29.5444262 L16,32.9152571 Z" id="Shape" stroke="#2B2B2B" stroke-width="1.66666667" fill="#94E8F4" fill-rule="nonzero"></path>
                <path d="M16,32.9152571 L18.9960156,35.9728644 C19.3986719,36.3837984 20.0642969,36.3375145 20.4085937,35.8745559 L23.5151172,31.6971655 L22.7025391,29.9496196 C22.4627734,29.4339189 21.8373437,29.2449563 21.3610937,29.5444262 L16,32.9152571 Z" id="Shape" stroke="#2B2B2B" stroke-width="1.66666667" fill="#94E8F4" fill-rule="nonzero"></path>
                <g id="Shape" fill-rule="nonzero">
                    <use fill="#FFF9ED" fill-rule="evenodd" xlink:href="#path-4"></use>
                    <path stroke="#2B2B2B" stroke-width="1.66666667" d="M24.560651,16.6762186 L24.4685074,16.0259904 C23.8929692,15.5039093 23.8126352,14.8863851 23.8860738,13.7211242 C23.9026788,13.4576498 23.90861,13.3290446 23.90861,13.18424 C23.90861,12.9641184 23.9169724,12.8046515 23.935245,12.5943534 C23.9417313,12.5209214 23.9417313,12.5209214 23.9469041,12.4591194 C23.9568777,12.334029 23.9590934,12.2270263 23.9493359,12.0856889 C22.4664942,10.926767 20.5477384,10.2862791 17.5571245,9.76584827 C17.0730355,9.68160644 16.9019996,9.65401735 15.7475236,9.47095442 C14.6395035,9.2952579 14.0262553,9.19040034 13.3718805,9.05708292 C13.1296383,9.0077303 12.8430015,8.90448931 12.4199753,8.72739409 C12.2045495,8.63720848 11.3840796,8.27911551 11.2985227,8.24237581 C11.103536,8.158645 10.9319393,8.08667216 10.7692665,8.02076213 C9.84667405,7.64695603 9.20096349,7.4832106 8.99992442,7.53605181 C8.71605276,7.61066477 8.50696966,7.91486564 8.3772195,8.48821162 C8.29529951,8.85020344 8.27661708,9.07025155 8.24673243,9.72898613 C8.24227135,9.82731972 8.23838239,9.88957417 8.23172875,9.9498093 C8.22667267,9.99320396 8.225034,10.0072682 8.21785482,10.0427541 L8.21785482,13.18424 C8.21785482,13.3461355 8.22901591,13.4951522 8.25982016,13.7939767 C8.38044364,14.9641155 8.31305018,15.5651812 7.68161383,16.0930405 L7.43946615,16.7633682 L7.43946615,17.5761529 C7.43946615,22.4144502 11.2759506,26.3298045 16,26.3298045 C20.7239938,26.3298045 24.560544,22.4143831 24.560651,17.5761529 L24.560651,16.6762186 Z"></path>
                </g>
            </g>
            <rect id="Rectangle" x="0" y="0" width="64" height="64"></rect>
        </g>
    </g>
</svg>