<?xml version="1.0" encoding="UTF-8"?>
<svg width="64px" height="64px" viewBox="0 0 64 64" version="1.1" xmlns="http://www.w3.org/2000/svg" xmlns:xlink="http://www.w3.org/1999/xlink">
    <!-- Generator: Sketch 46.2 (44496) - http://www.bohemiancoding.com/sketch -->
    <title>rain</title>
    <desc>Created with Sketch.</desc>
    <defs>
        <path d="M0.517126628,15.8192673 C5.50147013,15.8192673 25.6814884,15.8192673 29.2363815,15.8192673 C30.7739468,11.9703025 28.1982317,8.65324192 24.1780153,8.65324192 C24.1780153,-0.57319363 10.7714582,-3.8200198 7.58145374,5.91622043 C2.49513822,5.91622043 -1.45474207,9.11703098 0.517126628,15.8192673 Z" id="path-1"></path>
    </defs>
    <g id="Sticker-size-64*64" stroke="none" stroke-width="1" fill="none" fill-rule="evenodd">
        <g id="rain">
            <rect id="Rectangle" x="0" y="0" width="64" height="64"></rect>
            <g id="Group-2" transform="translate(6.666667, 14.666667)">
                <g id="Path-26">
                    <use fill="#BDCFD1" fill-rule="evenodd" xlink:href="#path-1"></use>
                    <path stroke="#2B2B2B" stroke-width="1.5625" d="M1.11422496,15.0380173 C5.35571323,15.0380173 5.68661084,15.0380173 13.3741667,15.0380173 L14.5883339,15.0380173 L23.6141394,15.0380173 C26.8958567,15.0380173 27.2366583,15.0380173 28.6828041,15.0380173 C29.5958681,11.9966642 27.5585148,9.43449192 24.1780153,9.43449192 L23.3967653,9.43449192 L23.3967653,8.65324192 C23.3967653,0.00483737598 11.141229,-2.43941727 8.32387035,6.15946754 L8.14759782,6.69747043 L7.58145374,6.69747043 C2.54181825,6.69747043 -0.199714092,9.75702761 1.11422496,15.0380173 Z"></path>
                </g>
                <g id="Group" transform="translate(11.322581, 0.465000)">
                    <path d="M0.726094404,20.925 C7.36036942,20.925 34.1919718,20.925 38.8367729,20.925 C40.9629676,15.8337661 37.5382649,11.4461108 32.2014316,11.3832 C32.1929353,-0.758194199 14.3674108,-5.05294669 10.0836271,7.8678 C3.36311327,7.82570458 -1.88869651,12.0595897 0.726094404,20.925 Z" id="Path-26" fill="#FFFFFF" transform="translate(19.758660, 10.464134) scale(-1, 1) translate(-19.758660, -10.464134) "></path>
                    <path d="M13.8464864,19.3625 L31.3898826,19.3625 C35.4364691,19.3625 36.1160818,19.3625 37.7184283,19.3625 C38.6137299,15.8605495 36.2126099,12.9930925 32.183014,12.9455915 L30.6400118,12.9274025 L30.638932,11.3842934 C30.6313643,0.569877285 15.152769,-2.45666539 11.5667394,8.35951557 L11.2093802,9.43738206 L10.0738402,9.43026935 C3.87990194,9.39147225 0.511608895,12.9799876 1.93391006,19.3625 C5.71188176,19.3625 6.37762178,19.3625 13.8464864,19.3625 Z M0.726094404,20.925 C-1.88869651,12.0595897 3.36311327,7.82570458 10.0836271,7.8678 C14.3674108,-5.05294669 32.1929353,-0.758194199 32.2014316,11.3832 C37.5382649,11.4461108 40.9629676,15.8337661 38.8367729,20.925 L0.726094404,20.925 Z" id="Path-26" fill="#2B2B2B" fill-rule="nonzero" transform="translate(19.758660, 10.464134) scale(-1, 1) translate(-19.758660, -10.464134) "></path>
                    <path d="M3.21352808,17.825 C7.75207953,17.825 33.244053,17.825 36.3949797,17.825 C36.6582794,14.9522778 32.5859252,13.7315015 29.0038507,14.725 C31.5786443,0.953461914 13.5600798,-1.24295166 12.6490119,11.16 C8.31727406,10.2396607 2.37133743,11.3820557 3.21352808,17.825 Z" id="Path-26" fill="#E9F4F5" transform="translate(19.770070, 10.416837) scale(-1, 1) translate(-19.770070, -10.416837) "></path>
                </g>
                <path d="M17.4093963,24.4635925 L18.981977,24.4635925 L18.981977,27.5635925 L17.4093963,27.5635925 L17.4093963,24.4635925 Z M17.4093963,29.1135925 L18.981977,29.1135925 L18.981977,39.1823425 C18.981977,39.613815 18.6321994,39.9635925 18.200727,39.9635925 L18.1906463,39.9635925 C17.7591739,39.9635925 17.4093963,39.613815 17.4093963,39.1823425 L17.4093963,29.1135925 Z" id="Combined-Shape" fill="#2B2B2B" transform="translate(18.195687, 32.213593) rotate(15.000000) translate(-18.195687, -32.213593) "></path>
                <path d="M30.6190737,24.4635925 L32.1916544,24.4635925 L32.1916544,27.5635925 L30.6190737,27.5635925 L30.6190737,24.4635925 Z M30.6190737,29.1135925 L32.1916544,29.1135925 L32.1916544,39.1823425 C32.1916544,39.613815 31.8418768,39.9635925 31.4104044,39.9635925 L31.4003237,39.9635925 C30.9688513,39.9635925 30.6190737,39.613815 30.6190737,39.1823425 L30.6190737,29.1135925 Z" id="Combined-Shape-Copy-2" fill="#2B2B2B" transform="translate(31.405364, 32.213593) rotate(15.000000) translate(-31.405364, -32.213593) "></path>
                <path d="M24.6432673,22.9135925 L26.2158479,22.9135925 L26.2158479,26.0135925 L24.6432673,26.0135925 L24.6432673,22.9135925 Z M24.6432673,27.5635925 L26.2158479,27.5635925 L26.2158479,37.6323425 C26.2158479,38.063815 25.8660704,38.4135925 25.4345979,38.4135925 L25.4245173,38.4135925 C24.9930448,38.4135925 24.6432673,38.063815 24.6432673,37.6323425 L24.6432673,27.5635925 Z" id="Combined-Shape-Copy" fill="#2B2B2B" transform="translate(25.429558, 30.663593) rotate(15.000000) translate(-25.429558, -30.663593) "></path>
                <path d="M37.5411078,22.933651 L39.1136884,22.933651 L39.1136884,26.033651 L37.5411078,26.033651 L37.5411078,22.933651 Z M37.6930074,27.543534 L39.2655881,27.543534 L39.2655881,37.612284 L39.2655881,37.612284 C39.2655881,38.0437565 38.9158105,38.393534 38.4843381,38.393534 L38.4742574,38.393534 L38.4742574,38.393534 C38.042785,38.393534 37.6930074,38.0437565 37.6930074,37.612284 L37.6930074,27.543534 Z" id="Combined-Shape-Copy-3" fill="#2B2B2B" transform="translate(38.403348, 30.663593) rotate(15.000000) translate(-38.403348, -30.663593) "></path>
            </g>
        </g>
    </g>
</svg>