<?xml version="1.0" encoding="UTF-8"?>
<svg width="64px" height="64px" viewBox="0 0 64 64" version="1.1" xmlns="http://www.w3.org/2000/svg" xmlns:xlink="http://www.w3.org/1999/xlink">
    <!-- Generator: Sketch 46.2 (44496) - http://www.bohemiancoding.com/sketch -->
    <title>palette</title>
    <desc>Created with Sketch.</desc>
    <defs>
        <path d="M42.9476171,20.7812629 C42.37864,10.6327563 34.3424263,2.18358505 24.2407015,1.12352006 C21.3489137,0.803884909 18.7689239,0.780614602 17.7945852,2.26931141 C16.8982564,3.46972167 17.0931,5.49628812 18.9559303,6.50173419 C22.1906236,7.94376982 24.1937992,11.3031341 23.9366201,14.8340716 C23.6326592,19.0820482 20.0549399,22.5194222 15.7912891,22.6597675 C12.7046577,22.753331 9.90643335,21.2334061 8.30849873,18.6221883 C7.80185711,17.7959115 7.01464553,17.2737162 6.13387042,17.1801527 C1.98717401,17.0320908 0.521868076,20.2433932 1.05961715,23.4235882 C1.7766561,34.1566256 10.7715342,42.7462627 21.5357996,42.9800509 C34.5451071,42.9020411 43.5165942,32.9563359 42.9476171,20.7812629 Z" id="path-1"></path>
    </defs>
    <g id="Sticker-size-64*64" stroke="none" stroke-width="1" fill="none" fill-rule="evenodd">
        <g id="palette">
            <g id="gasoline-pump" transform="translate(6.666667, 4.000000)" fill-rule="nonzero" fill="#FFF9ED">
                <path d="M44.0935172,29.1042323 C44.0935172,37.0842963 33.9951075,41.4171908 26.1820098,41.4171908 C18.3689122,41.4171908 6.5587582,38.2937024 6.5587582,30.3138797 C6.5587582,25.7321552 6.52334299,13.3596644 13.2384457,9.34363117 C19.9535484,5.32759797 27.9182149,14.4647947 33.9630188,16.5041402 C40.0078226,18.5434857 44.0935172,21.1241683 44.0935172,29.1042323 Z" id="Shape" transform="translate(25.326136, 24.876121) scale(-1, -1) rotate(-210.000000) translate(-25.326136, -24.876121) "></path>
            </g>
            <g id="paint-palette" transform="translate(10.666667, 10.666667)" fill-rule="nonzero">
                <g id="Shape">
                    <use fill="#FFC55D" fill-rule="evenodd" xlink:href="#path-1"></use>
                    <path stroke="#2B2B2B" stroke-width="1.66666667" d="M43.7796439,20.7346152 L43.780042,20.7423612 C44.3812055,33.6061652 34.8084515,43.7338103 21.5177047,43.8131877 C10.3215478,43.5700193 0.97393536,34.6426571 0.237947808,23.5625268 C-0.455264251,19.4629391 1.8072825,16.1918032 6.22189898,16.3514818 C7.36690459,16.4731142 8.3804098,17.1452498 9.01930149,18.1872126 C10.464426,20.5487203 12.984782,21.9111236 15.7638734,21.8268852 C19.6013665,21.7005677 22.8319188,18.5967734 23.1054884,14.7735354 C23.3373763,11.5898342 21.5280064,8.56076476 18.5601199,7.23506806 C16.3866411,6.06195222 15.8324466,3.50427178 17.0973166,1.81295536 C18.198387,0.130624396 20.38396,-0.141181809 24.3276731,0.294737592 C34.8345199,1.39731567 43.1877005,10.1764726 43.7796439,20.7346152 Z"></path>
                    <path stroke="#FFFFFF" stroke-width="1.66666667" d="M42.1151923,20.8201645 L42.1155904,20.8279105 C41.5693923,11.085698 33.8470082,2.96950555 24.1491491,1.95180902 C20.8488449,1.58701973 19.0942754,1.80522469 18.4623128,2.76789381 C17.7747372,3.68873082 18.0761797,5.07992761 19.2952422,5.74060879 C22.8484828,7.3246537 25.0506015,11.0112247 24.7678282,14.8935481 C24.433397,19.5673601 20.508476,23.338278 15.8165379,23.4927182 C12.4373507,23.5951498 9.35513172,21.9290259 7.59807964,19.0577904 C7.2231671,18.4463492 6.66214786,18.0742929 6.10413439,18.0129553 C2.90470406,17.8987165 1.35051587,20.1457245 1.89109704,23.3680397 C2.57931625,33.6696872 11.2206108,41.9224863 21.5308026,42.1467325 C33.8500202,42.0728608 42.6722082,32.7392888 42.1151923,20.8201645 Z"></path>
                </g>
                <path d="M31.5254676,15.9873353 C33.2404347,15.9873353 34.6320651,14.5957049 34.6320651,12.8807379 C34.6320651,11.1657708 33.2404347,9.77414044 31.5254676,9.77414044 C29.8105006,9.77414044 28.4188702,11.1657708 28.4188702,12.8807379 C28.4188702,14.5957049 29.8105006,15.9873353 31.5254676,15.9873353 Z" id="Shape" stroke="#2B2B2B" stroke-width="1.66666667" fill="#FFF9ED"></path>
                <path d="M32.9940748,29.6731084 C34.757356,29.6731084 36.1881916,28.2422729 36.1881916,26.4789916 C36.1881916,24.7157103 34.757356,23.2848747 32.9940748,23.2848747 C31.2307935,23.2848747 29.7999579,24.7157103 29.7999579,26.4789916 C29.7999579,28.2422729 31.2307935,29.6731084 32.9940748,29.6731084 Z" id="Shape" stroke="#2B2B2B" stroke-width="1.66666667" fill="#ED6969"></path>
                <path d="M25.8796222,34.6009317 C25.8796222,32.8270363 24.4401737,31.3875878 22.6662783,31.3875878 C20.892383,31.3875878 19.4529345,32.8270363 19.4529345,34.6009317 C19.4529345,36.374827 20.892383,37.8142755 22.6662783,37.8142755 C24.4401737,37.8142755 25.8796222,36.374827 25.8796222,34.6009317 Z" id="Shape" stroke="#2B2B2B" stroke-width="1.66666667" fill="#FFF9ED"></path>
                <path d="M13.5034265,29.5111247 C13.5034265,27.7794337 12.0982253,26.3742325 10.3665344,26.3742325 C8.63484341,26.3742325 7.22964219,27.7794337 7.22964219,29.5111247 C7.22964219,31.2428156 8.63484341,32.6480168 10.3665344,32.6480168 C12.0982253,32.6480168 13.5034265,31.2568676 13.5034265,29.5111247 Z" id="Shape" stroke="#2B2B2B" stroke-width="1.66666667" fill="#ED6969"></path>
            </g>
            <path d="M60,49.712518 C60,51.767558 58.5184896,53.3333333 56.6666667,53.3333333 C54.8148437,53.3333333 53.3333333,51.6697601 53.3333333,49.712518 C53.3333333,47.657478 56.6666667,42.6666667 56.6666667,42.6666667 C56.6666667,42.6666667 60,47.657478 60,49.712518 Z" id="Shape" fill="#FFC55D" fill-rule="nonzero"></path>
            <rect id="Rectangle" x="0" y="0" width="64" height="64"></rect>
        </g>
    </g>
</svg>