<?xml version="1.0" encoding="UTF-8"?>
<svg width="64px" height="64px" viewBox="0 0 64 64" version="1.1" xmlns="http://www.w3.org/2000/svg" xmlns:xlink="http://www.w3.org/1999/xlink">
    <!-- Generator: Sketch 47 (45396) - http://www.bohemiancoding.com/sketch -->
    <title>cherry</title>
    <desc>Created with Sketch.</desc>
    <defs></defs>
    <g id="Sticker-size-64*64" stroke="none" stroke-width="1" fill="none" fill-rule="evenodd">
        <g id="cherry">
            <g id="cherry-(color)" transform="translate(6.000000, 7.000000)">
                <g id="Layer_1" transform="translate(0.000000, -0.000000)">
                    <g id="Group-26" transform="translate(0.000000, 4.717949)" stroke="#2B2B2B" stroke-width="1.667">
                        <path d="M40.613536,23.0130542 C38.7647758,19.9138288 32.704144,12.5892595 32.41143,2.16546474" id="Path-2"></path>
                        <path d="M36.5736243,0.899973291 C35.8822969,0.899973291 14.0896739,6.90875401 12.0261549,22.1553152" id="Shape" stroke-linecap="round"></path>
                        <path d="M41.6063322,18.3212851 C39.8262939,18.52354 38.4099194,19.833381 37.8644238,21.557363 C37.7208723,22.0100287 37.4720498,22.443432 37.108386,22.7997858 C36.7542924,23.1561396 36.3427782,23.4065504 35.9025536,23.5510181 C34.285207,24.0807333 33.0602344,25.4483614 32.8879727,27.153081 C32.7061408,28.9252189 33.2707766,30.6973568 34.8211325,32.2576086 C38.1132463,35.570736 43.4437911,35.570736 46.7359049,32.2576086 C50.0280187,28.9444813 50.0280187,23.5799117 46.7359049,20.2667843 C45.1664088,18.6776389 43.3959406,18.1190303 41.6063322,18.3212851 Z" id="Shape" fill="#ED6969" transform="translate(41.030082, 26.512014) rotate(-337.000000) translate(-41.030082, -26.512014) "></path>
                        <path d="M12.6559246,19.9607416 C10.8758863,20.1629965 9.45951177,21.4728375 8.91401617,23.1968195 C8.7704647,23.6494851 8.52164214,24.0828884 8.15797841,24.4392422 C7.80388477,24.795596 7.39237055,25.0460068 6.95214602,25.1904746 C5.33479941,25.7201897 4.10982683,27.0878179 3.93756506,28.7925375 C3.7557332,30.5646754 4.320369,32.3368133 5.87072492,33.8970651 C9.16283873,37.2101924 14.4933835,37.2101924 17.7854973,33.8970651 C21.0776111,30.5839377 21.0776111,25.2193681 17.7854973,21.9062408 C16.2160012,20.3170954 14.445533,19.7584867 12.6559246,19.9607416 Z" id="Shape-Copy" fill="#ED6969" transform="translate(12.079674, 28.151471) rotate(-315.000000) translate(-12.079674, -28.151471) "></path>
                    </g>
                    <path d="M26.8006862,8.08037825 C26.589245,8.10282903 26.3746068,8.11468659 26.1572818,8.11468659 C22.8323119,8.11468659 20.1371423,5.41553567 20.1371423,2.08588348 C20.1371423,1.62760737 20.1885657,1.18135969 20.2852566,0.752300349 C20.4967318,0.729815398 20.7112679,0.717992005 20.9286949,0.717992005 C24.2534948,0.717992005 26.9487324,3.41714293 26.9487324,6.74686347 C26.9487324,7.20513957 26.8974111,7.65138725 26.8006862,8.08037825 L26.8006862,8.08037825 Z" id="Shape" fill="#8BCB76" fill-rule="nonzero" transform="translate(23.542937, 4.416339) rotate(-194.000000) translate(-23.542937, -4.416339) "></path>
                </g>
            </g>
        </g>
    </g>
</svg>