<?xml version="1.0" encoding="UTF-8"?>
<svg width="64px" height="64px" viewBox="0 0 64 64" version="1.1" xmlns="http://www.w3.org/2000/svg" xmlns:xlink="http://www.w3.org/1999/xlink">
    <!-- Generator: Sketch 47 (45396) - http://www.bohemiancoding.com/sketch -->
    <title>watermelon</title>
    <desc>Created with Sketch.</desc>
    <defs>
        <path d="M50.0156818,0.777777778 C50.0156818,15.0844932 38.934968,26.6824617 25.2663139,26.6824617 C11.5976598,26.6824617 0.516945916,15.0844932 0.516945916,0.777777778 L50.0156818,0.777777778 Z" id="path-1"></path>
        <path d="M43.4446829,0.777777778 C43.4446829,11.2859571 35.3058417,19.8047244 25.2663139,19.8047244 C15.226786,19.8047244 7.08794488,11.2859571 7.08794488,0.777777778 L43.4446829,0.777777778 Z" id="path-2"></path>
    </defs>
    <g id="Sticker-size-64*64" stroke="none" stroke-width="1" fill="none" fill-rule="evenodd">
        <g id="watermelon" fill-rule="nonzero">
            <g id="watermelon-1" transform="translate(28.707107, 36.000000) rotate(-315.000000) translate(-28.707107, -36.000000) translate(3.207107, 22.500000)">
                <g id="Shape">
                    <use fill="#8BCB76" fill-rule="evenodd" xlink:href="#path-1"></use>
                    <path stroke="#2B2B2B" stroke-width="1.667" d="M49.1692188,1.61127778 L1.36340889,1.61127778 C1.78293761,15.0795366 12.332448,25.8489617 25.2663139,25.8489617 C38.2001797,25.8489617 48.7496901,15.0795366 49.1692188,1.61127778 Z"></path>
                </g>
                <path d="M8.30006319,1.88576041 L42.2437816,1.88576041 C41.3309649,10.8302193 34.0546212,18.3617954 25.2668088,18.3617954 C16.2948085,18.3617954 8.95936707,11.1001005 8.30006319,1.88576041 Z M38.9270089,1.54727092 L45.5605543,2.22424991 C44.4617407,12.9912452 35.6681039,21.6957954 25.2668088,21.6957954 C14.5594472,21.6957954 5.75999176,13.1007214 4.97456506,2.12370625 L11.6255613,1.64781458 C12.166176,9.20337142 18.1290984,15.0277954 25.2668088,15.0277954 C32.1088244,15.0277954 38.1628464,9.03510543 38.9270089,1.54727092 Z" id="Shape" fill="#FFEECF"></path>
                <g id="Shape">
                    <use fill="#ED6969" fill-rule="evenodd" xlink:href="#path-2"></use>
                    <path stroke="#2B2B2B" stroke-width="1.667" d="M42.593312,1.61127778 L7.93931573,1.61127778 C8.35477456,11.2797466 15.9617033,18.9712244 25.2663139,18.9712244 C34.5709244,18.9712244 42.1778532,11.2797466 42.593312,1.61127778 Z"></path>
                </g>
                <rect id="Rectangle-path" fill="#2B2B2B" x="24.1663014" y="14.3556605" width="2.19988455" height="2.30257654" rx="1.09994228"></rect>
                <rect id="Rectangle-path" fill="#2B2B2B" transform="translate(32.415551, 13.502201) rotate(-120.000728) translate(-32.415551, -13.502201) " x="31.3156325" y="12.3509382" width="2.19983616" height="2.30252589" rx="1.09991808"></rect>
                <rect id="Rectangle-path" fill="#2B2B2B" transform="translate(37.650121, 8.024296) rotate(-149.999272) translate(-37.650121, -8.024296) " x="36.5502028" y="6.87303296" width="2.19983616" height="2.30252589" rx="1.09991808"></rect>
                <rect id="Rectangle-path" fill="#2B2B2B" transform="translate(12.881997, 8.023035) rotate(-30.000728) translate(-12.881997, -8.023035) " x="11.7820789" y="6.87177186" width="2.19983616" height="2.30252589" rx="1.09991808"></rect>
                <rect id="Rectangle-path" fill="#2B2B2B" transform="translate(18.115857, 13.501997) rotate(-149.999272) translate(-18.115857, -13.501997) " x="17.0159385" y="12.3507337" width="2.19983616" height="2.30252589" rx="1.09991808"></rect>
            </g>
        </g>
    </g>
</svg>