<?xml version="1.0" encoding="UTF-8"?>
<svg width="64px" height="64px" viewBox="0 0 64 64" version="1.1" xmlns="http://www.w3.org/2000/svg" xmlns:xlink="http://www.w3.org/1999/xlink">
    <!-- Generator: Sketch 46.2 (44496) - http://www.bohemiancoding.com/sketch -->
    <title>lightening</title>
    <desc>Created with Sketch.</desc>
    <defs>
        <path d="M19.6789959,16.0649668 C24.6974203,16.0649668 45.0154217,16.0649668 48.5946217,16.0649668 C50.1427003,12.1562211 47.5493735,8.78764113 43.5016684,8.78764113 C43.5016684,-0.582096278 30.0034425,-3.87935105 26.7916261,6.00810916 C21.6705323,6.00810916 17.6936443,9.25863361 19.6789959,16.0649668 Z" id="path-1"></path>
    </defs>
    <g id="Sticker-size-64*64" stroke="none" stroke-width="1" fill="none" fill-rule="evenodd">
        <g id="lightening">
            <g id="Group" transform="translate(8.000000, 10.666667)">
                <polygon id="Path-27" fill="#FFC55D" points="17.8558174 19.6759259 29.9432767 19.6759259 21.1601494 29.5233955 28.2765717 29.5233955 13.9569676 43.7592593 18.3723825 32.7564132 13.6487898 32.7564132"></polygon>
                <polygon id="Path-27" stroke="#2B2B2B" stroke-width="1.5625" points="15.4808174 19.0462963 27.5682767 19.0462963 18.7851494 28.8937659 25.9015717 28.8937659 11.5819676 43.1296296 15.9973825 32.1267836 11.2737898 32.1267836"></polygon>
                <path d="M0.595130834,21.7316335 C6.33132066,21.7316335 29.5553251,21.7316335 33.6464439,21.7316335 C35.4159381,17.2638354 32.451698,13.4134608 27.8250657,13.4134608 C27.8250657,2.70360698 12.3962421,-1.06524107 8.72505233,10.2363834 C2.87150885,10.2363834 -1.67417769,13.9518174 0.595130834,21.7316335 Z" id="Path-26" fill="#E9F4F5" transform="translate(17.082332, 12.550296) scale(-1, 1) translate(-17.082332, -12.550296) "></path>
                <path d="M15.3915473,20.1575594 L16.7888615,20.1575594 L27.1761339,20.1575594 C30.5137163,20.1575594 31.2081068,20.1575594 32.4730783,20.1575594 C33.0616756,17.2753267 31.0794939,14.9875348 27.8250657,14.9875348 L26.2417324,14.9875348 L26.2417324,13.4134608 C26.2417324,4.11063926 13.2290858,1.49297585 10.231767,10.7201129 L9.87758241,11.8104574 L8.72505233,11.8104574 C3.52099839,11.8104574 0.711839903,14.7819444 1.83085065,20.1575594 C6.20586796,20.1575594 6.88762,20.1575594 15.3915473,20.1575594 Z M0.595130834,21.7316335 C-1.67417769,13.9518174 2.87150885,10.2363834 8.72505233,10.2363834 C12.3962421,-1.06524107 27.8250657,2.70360698 27.8250657,13.4134608 C32.451698,13.4134608 35.4159381,17.2638354 33.6464439,21.7316335 L0.595130834,21.7316335 Z" id="Path-26" fill="#2B2B2B" fill-rule="nonzero" transform="translate(17.082332, 12.550296) scale(-1, 1) translate(-17.082332, -12.550296) "></path>
                <g id="Path-26">
                    <use fill="#FFFFFF" fill-rule="evenodd" xlink:href="#path-1"></use>
                    <path stroke="#2B2B2B" stroke-width="1.5625" d="M20.2772602,15.2837168 C24.5505155,15.2837168 24.8820652,15.2837168 32.6239473,15.2837168 L33.8464165,15.2837168 L42.9339369,15.2837168 C46.2400286,15.2837168 46.5816261,15.2837168 48.0398187,15.2837168 C48.9674703,12.1821202 46.9102723,9.56889113 43.5016684,9.56889113 L42.7204184,9.56889113 L42.7204184,8.78764113 C42.7204184,-0.00918502938 30.3744534,-2.49273676 27.534657,6.24947335 L27.3592819,6.78935916 L26.7916261,6.78935916 C21.7128103,6.78935916 18.947118,9.90567961 20.2772602,15.2837168 Z"></path>
                </g>
            </g>
            <rect id="Rectangle" x="0" y="0" width="64" height="64"></rect>
        </g>
    </g>
</svg>