<?xml version="1.0" encoding="UTF-8"?>
<svg width="64px" height="64px" viewBox="0 0 64 64" version="1.1" xmlns="http://www.w3.org/2000/svg" xmlns:xlink="http://www.w3.org/1999/xlink">
    <!-- Generator: Sketch 46.2 (44496) - http://www.bohemiancoding.com/sketch -->
    <title>beaker flask</title>
    <desc>Created with Sketch.</desc>
    <defs>
        <path d="M2.84895833,21.5625 L24.4007161,21.5625 L24.4007161,43.4375 L24.4007161,43.4375 C24.4007161,45.1633898 23.001606,46.5625 21.2757161,46.5625 L11.3928529,46.5625 L11.3928529,46.5625 C10.1819576,46.5625 9.0800549,45.8629603 8.56483652,44.7671421 L2.5,31.8678385 L2.84895833,21.5625 Z" id="path-1"></path>
        <path d="M34.6875,30.46875 L34.6875,13.28125 L22.1875,13.28125 L22.1875,30.46875 L13.695015,45.3305987 C13.290289,46.0388692 13.0774047,46.8404987 13.0774047,47.65625 C13.0774047,50.2450848 15.17607,52.34375 17.7649047,52.34375 L39.1100953,52.34375 C39.9258465,52.34375 40.7274761,52.1308657 41.4357465,51.7261397 C43.6834846,50.441718 44.4644067,47.5783368 43.179985,45.3305987 L34.6875,30.46875 Z" id="path-2"></path>
    </defs>
    <g id="Sticker-size-64*64" stroke="none" stroke-width="1" fill="none" fill-rule="evenodd">
        <g id="beaker-flask">
            <rect id="Rectangle" x="0" y="0" width="64" height="64"></rect>
            <g id="Group" transform="translate(9.333333, 5.333333)">
                <g id="Rectangle-17" transform="translate(13.450358, 34.062500) scale(-1, 1) translate(-13.450358, -34.062500) ">
                    <use fill="#FFFDFE" fill-rule="evenodd" xlink:href="#path-1"></use>
                    <path stroke="#2B2B2B" stroke-width="1.5625" d="M3.6042015,22.34375 L3.28717952,31.7059531 L9.27184062,44.4347316 C9.65825441,45.2565952 10.4846814,45.78125 11.3928529,45.78125 L21.2757161,45.78125 C22.5701335,45.78125 23.6194661,44.7319174 23.6194661,43.4375 L23.6194661,22.34375 L3.6042015,22.34375 Z"></path>
                </g>
                <polygon id="Rectangle-17" fill="#BDF3FB" points="5.625 33.4375 21.5560913 33.4375 15.8370972 43.4375 5.625 43.4375"></polygon>
                <g id="Combined-Shape">
                    <use fill="#FFFCF8" fill-rule="evenodd" xlink:href="#path-2"></use>
                    <path stroke="#2B2B2B" stroke-width="1.5625" d="M33.90625,14.0625 L22.96875,14.0625 L22.96875,30.6762222 L14.37333,45.7182073 C14.0360583,46.3084326 13.8586547,46.9764573 13.8586547,47.65625 C13.8586547,49.8136123 15.6075424,51.5625 17.7649047,51.5625 L39.1100953,51.5625 C39.789888,51.5625 40.4579126,51.3850964 41.048138,51.0478248 C42.921253,49.9774733 43.5720215,47.5913223 42.50167,45.7182073 L33.90625,30.6762222 L33.90625,14.0625 Z"></path>
                </g>
                <rect id="Rectangle-16" fill="#2B2B2B" x="19.0625" y="13.28125" width="18.75" height="1.5625" rx="0.78125"></rect>
                <path d="M31.5625,31.0202206 L41.875,49.21875 L15.15625,49.21875 L25.3125,31.0284515 L25.3125,25.46875 L31.5625,25.46875 L31.5625,31.0202206 Z" id="Combined-Shape" fill="#FFC55D"></path>
                <path d="M22.5,24.6875 L27.96875,24.6875 L27.96875,24.6875 C28.4002225,24.6875 28.75,25.0372775 28.75,25.46875 L28.75,25.46875 C28.75,25.9002225 28.4002225,26.25 27.96875,26.25 L22.5,26.25 L22.5,24.6875 Z M22.5,29.375 L27.96875,29.375 L27.96875,29.375 C28.4002225,29.375 28.75,29.7247775 28.75,30.15625 C28.75,30.5877225 28.4002225,30.9375 27.96875,30.9375 L22.5,30.9375 L22.5,29.375 Z M20.9375,34.0625 L26.40625,34.0625 L26.40625,34.0625 C26.8377225,34.0625 27.1875,34.4122775 27.1875,34.84375 C27.1875,35.2752225 26.8377225,35.625 26.40625,35.625 L20.9375,35.625 L20.9375,34.0625 Z M18.28125,38.75 L23.75,38.75 L23.75,38.75 C24.1814725,38.75 24.53125,39.0997775 24.53125,39.53125 C24.53125,39.9627225 24.1814725,40.3125 23.75,40.3125 L18.28125,40.3125 L18.28125,38.75 Z" id="Combined-Shape" fill="#2B2B2B"></path>
                <path d="M4.0625,27.96875 L9.53125,27.96875 C9.96272246,27.96875 10.3125,28.3185275 10.3125,28.75 L10.3125,28.75 C10.3125,29.1814725 9.96272246,29.53125 9.53125,29.53125 L4.0625,29.53125 L4.0625,27.96875 Z M4.0625,32.65625 L9.53125,32.65625 C9.96272246,32.65625 10.3125,33.0060275 10.3125,33.4375 C10.3125,33.8689725 9.96272246,34.21875 9.53125,34.21875 L4.0625,34.21875 L4.0625,32.65625 Z M4.0625,37.34375 L9.53125,37.34375 C9.96272246,37.34375 10.3125,37.6935275 10.3125,38.125 C10.3125,38.5564725 9.96272246,38.90625 9.53125,38.90625 L4.0625,38.90625 L4.0625,37.34375 Z" id="Combined-Shape" fill="#2B2B2B"></path>
                <rect id="Rectangle-16-Copy" fill="#2B2B2B" x="0" y="21.5625" width="23.125" height="1.5625" rx="0.78125"></rect>
                <circle id="Oval-5" fill="#BDCFD1" cx="9.0625" cy="14.84375" r="2.34375"></circle>
                <circle id="Oval-5-Copy" stroke="#2B2B2B" stroke-width="1.5625" cx="16.5625" cy="3.125" r="2.34375"></circle>
                <path d="M33.8937572,0 C34.3252296,-7.92602052e-17 34.6750072,0.349777539 34.6750072,0.78125 L34.6750072,2.34375 C34.6750072,2.77522246 34.3252296,3.125 33.8937572,3.125 C33.4622847,3.125 33.1125072,2.77522246 33.1125072,2.34375 L33.1125072,0.78125 L33.1125072,0.78125 C33.1125072,0.349777539 33.4622847,7.92602052e-17 33.8937572,0 Z M33.8937572,5.625 C34.3252296,5.625 34.6750072,5.97477754 34.6750072,6.40625 L34.6750072,7.96875 C34.6750072,8.40022246 34.3252296,8.75 33.8937572,8.75 C33.4622847,8.75 33.1125072,8.40022246 33.1125072,7.96875 L33.1125072,6.40625 C33.1125072,5.97477754 33.4622847,5.625 33.8937572,5.625 Z M30.104896,2.1875 L30.104896,2.1875 C30.3206323,1.81383389 30.7984373,1.68580642 31.1721034,1.90154265 L32.5252681,2.68279265 C32.8989342,2.89852888 33.0269617,3.37633389 32.8112254,3.75 C32.5954892,4.12366611 32.1176842,4.25169358 31.7440181,4.03595735 L30.3908534,3.25470735 L30.3908534,3.25470735 C30.0171873,3.03897112 29.8891598,2.56116611 30.104896,2.1875 L30.104896,2.1875 Z M34.9762889,5 L34.9762889,5 C35.1920252,4.62633389 35.6698302,4.49830642 36.0434963,4.71404265 L37.396661,5.49529265 C37.7703271,5.71102888 37.8983546,6.18883389 37.6826183,6.5625 C37.4668821,6.93616611 36.9890771,7.06419358 36.615411,6.84845735 L35.2622463,6.06720735 C34.8885802,5.85147112 34.7605527,5.37366611 34.9762889,5 L34.9762889,5 Z M37.6826183,2.1875 C37.8983546,2.56116611 37.7703271,3.03897112 37.396661,3.25470735 L36.0434963,4.03595735 C35.6698302,4.25169358 35.1920252,4.12366611 34.9762889,3.75 C34.7605527,3.37633389 34.8885802,2.89852888 35.2622463,2.68279265 L36.615411,1.90154265 L36.615411,1.90154265 C36.9890771,1.68580642 37.4668821,1.81383389 37.6826183,2.1875 Z M32.8112254,5 C33.0269617,5.37366611 32.8989342,5.85147112 32.5252681,6.06720735 L31.1721034,6.84845735 C30.7984373,7.06419358 30.3206323,6.93616611 30.104896,6.5625 C29.8891598,6.18883389 30.0171873,5.71102888 30.3908534,5.49529265 L31.7440181,4.71404265 L31.7440181,4.71404265 C32.1176842,4.49830642 32.5954892,4.62633389 32.8112254,5 Z" id="Combined-Shape" fill="#BDCFD1"></path>
            </g>
        </g>
    </g>
</svg>