<?xml version="1.0" encoding="UTF-8"?>
<svg width="64px" height="64px" viewBox="0 0 64 64" version="1.1" xmlns="http://www.w3.org/2000/svg" xmlns:xlink="http://www.w3.org/1999/xlink">
    <!-- Generator: Sketch 46.2 (44496) - http://www.bohemiancoding.com/sketch -->
    <title>glasses</title>
    <desc>Created with Sketch.</desc>
    <defs>
        <rect id="path-1" x="0" y="32.5370066" width="5.05756579" height="5.05756579" rx="0.78125"></rect>
        <rect id="path-2" x="48.8898026" y="32.5370066" width="5.05756579" height="5.05756579" rx="0.78125"></rect>
        <circle id="path-3" cx="13.4868421" cy="35.0657895" r="10.1151316"></circle>
        <circle id="path-4" cx="40.4605263" cy="35.0657895" r="10.1151316"></circle>
    </defs>
    <g id="Sticker-size-64*64" stroke="none" stroke-width="1" fill="none" fill-rule="evenodd">
        <g id="glasses">
            <g id="Group-4">
                <rect id="Rectangle" x="0" y="0" width="64" height="64"></rect>
                <g id="Group-3" transform="translate(4.562500, 10.666667)">
                    <path d="M2.52878289,34.9172634 C2.52878289,34.9172634 8.89440938,9.66506255 9.69399703,6.49776077 C10.4935847,3.33045898 11.8186027,1.60337348 15.3778317,2.66905132" id="Path-10" stroke="#E9F4F5" stroke-width="3.125"></path>
                    <path d="M38.6060855,34.9172634 C38.6060855,34.9172634 44.971712,9.66506255 45.7712997,6.49776077 C46.5708873,3.33045898 47.8959053,1.60337348 51.4551343,2.66905132" id="Path-10" stroke="#E9F4F5" stroke-width="3.125" transform="translate(45.030610, 18.635609) scale(-1, 1) translate(-45.030610, -18.635609) "></path>
                    <path d="M0.842927632,33.2314082 C0.842927632,33.2314082 7.20855412,7.97920729 8.00814177,4.8119055 C8.80772942,1.64460372 11.1651692,-0.748782717 15.1802705,0.510011164" id="Path-10" stroke="#2B2B2B" stroke-width="1.5625" stroke-linecap="round"></path>
                    <path d="M38.7746711,33.2314082 C38.7746711,33.2314082 45.1456893,7.9691646 45.9398852,4.8119055 C46.7340811,1.65464641 49.0969126,-0.748782717 53.112014,0.510011164" id="Path-10" stroke="#2B2B2B" stroke-width="1.5625" stroke-linecap="round" transform="translate(45.943343, 16.700195) scale(-1, 1) translate(-45.943343, -16.700195) "></path>
                    <g id="Rectangle-21" transform="translate(2.528783, 35.065789) scale(-1, 1) translate(-2.528783, -35.065789) ">
                        <use fill="#FFC55D" fill-rule="evenodd" xlink:href="#path-1"></use>
                        <rect stroke="#2B2B2B" stroke-width="1.5625" x="0.78125" y="33.3182566" width="3.49506579" height="3.49506579" rx="0.78125"></rect>
                    </g>
                    <g id="Rectangle-21">
                        <use fill="#FFC55D" fill-rule="evenodd" xlink:href="#path-2"></use>
                        <rect stroke="#2B2B2B" stroke-width="1.5625" x="49.6710526" y="33.3182566" width="3.49506579" height="3.49506579" rx="0.78125"></rect>
                    </g>
                    <g id="Oval-9">
                        <use fill="#BDCFD1" fill-rule="evenodd" xlink:href="#path-3"></use>
                        <circle stroke="#2B2B2B" stroke-width="1.5625" cx="13.4868421" cy="35.0657895" r="9.33388158"></circle>
                    </g>
                    <g id="Oval-9-Copy">
                        <use fill="#BDCFD1" fill-rule="evenodd" xlink:href="#path-4"></use>
                        <circle stroke="#2B2B2B" stroke-width="1.5625" cx="40.4605263" cy="35.0657895" r="9.33388158"></circle>
                    </g>
                    <g id="Group" transform="translate(23.601974, 34.222862)">
                        <path d="M5.84228393,3.43338816 C5.51092404,2.38453465 4.53011273,1.62417763 3.37171053,1.62417763 C2.21330832,1.62417763 1.23249701,2.38453465 0.90113712,3.43338816 L5.84228393,3.43338816 Z" id="Oval-10" stroke="#2B2B2B" stroke-width="1.5625" transform="translate(3.371711, 2.528783) scale(1, -1) translate(-3.371711, -2.528783) "></path>
                        <circle id="Oval" fill="#2B2B2B" cx="0.842927632" cy="0.842927632" r="1"></circle>
                        <circle id="Oval-Copy" fill="#2B2B2B" cx="5.90049342" cy="0.842927632" r="1"></circle>
                    </g>
                    <g id="Group-2" transform="translate(6.743421, 28.996711)" fill="#FFFFFF">
                        <path d="M0,6.74342105 C0,3.01913244 3.01913244,0 6.74342105,0 C10.4677097,0 13.4868421,3.01913244 13.4868421,6.74342105 L11.9243421,6.74342105 C11.9243421,3.88207737 9.60476474,1.5625 6.74342105,1.5625 C3.88207737,1.5625 1.5625,3.88207737 1.5625,6.74342105 L0,6.74342105 Z M1.5625,6.74342105 L0,6.74342105 C0,3.01913244 3.01913244,0 6.74342105,0 C10.4677097,0 13.4868421,3.01913244 13.4868421,6.74342105 L11.9243421,6.74342105 C11.9243421,3.88207737 9.60476474,1.5625 6.74342105,1.5625 C3.88207737,1.5625 1.5625,3.88207737 1.5625,6.74342105 Z" id="Oval-11" fill-rule="nonzero"></path>
                        <path d="M3.37171053,11.8009868 C3.37171053,9.00777039 5.63605986,6.74342105 8.42927632,6.74342105 C11.2224928,6.74342105 13.4868421,9.00777039 13.4868421,11.8009868 L11.9243421,11.8009868 C11.9243421,9.87071531 10.3595479,8.30592105 8.42927632,8.30592105 C6.49900478,8.30592105 4.93421053,9.87071531 4.93421053,11.8009868 L3.37171053,11.8009868 Z M4.93421053,11.8009868 L3.37171053,11.8009868 C3.37171053,9.00777039 5.63605986,6.74342105 8.42927632,6.74342105 C11.2224928,6.74342105 13.4868421,9.00777039 13.4868421,11.8009868 L11.9243421,11.8009868 C11.9243421,9.87071531 10.3595479,8.30592105 8.42927632,8.30592105 C6.49900478,8.30592105 4.93421053,9.87071531 4.93421053,11.8009868 Z" id="Oval-11" fill-rule="nonzero" transform="translate(8.429276, 9.272204) rotate(-180.000000) translate(-8.429276, -9.272204) "></path>
                        <path d="M3.37171053,6.74342105 C3.37171053,4.88127675 4.88127675,3.37171053 6.74342105,3.37171053 C8.60556536,3.37171053 10.1151316,4.88127675 10.1151316,6.74342105 L8.55263158,6.74342105 C8.55263158,5.74422167 7.74262044,4.93421053 6.74342105,4.93421053 C5.74422167,4.93421053 4.93421053,5.74422167 4.93421053,6.74342105 L3.37171053,6.74342105 Z M4.93421053,6.74342105 L3.37171053,6.74342105 C3.37171053,4.88127675 4.88127675,3.37171053 6.74342105,3.37171053 C8.60556536,3.37171053 10.1151316,4.88127675 10.1151316,6.74342105 L8.55263158,6.74342105 C8.55263158,5.74422167 7.74262044,4.93421053 6.74342105,4.93421053 C5.74422167,4.93421053 4.93421053,5.74422167 4.93421053,6.74342105 Z" id="Oval-11" fill-rule="nonzero"></path>
                        <circle id="Oval-12" cx="9.27220395" cy="6.74342105" r="1"></circle>
                        <circle id="Oval-12-Copy" cx="0.842927632" cy="6.74342105" r="1"></circle>
                    </g>
                    <g id="Group-2" transform="translate(33.717105, 28.996711)" fill="#FFFFFF">
                        <path d="M0,6.74342105 C0,3.01913244 3.01913244,0 6.74342105,0 C10.4677097,0 13.4868421,3.01913244 13.4868421,6.74342105 L11.9243421,6.74342105 C11.9243421,3.88207737 9.60476474,1.5625 6.74342105,1.5625 C3.88207737,1.5625 1.5625,3.88207737 1.5625,6.74342105 L0,6.74342105 Z M1.5625,6.74342105 L0,6.74342105 C0,3.01913244 3.01913244,0 6.74342105,0 C10.4677097,0 13.4868421,3.01913244 13.4868421,6.74342105 L11.9243421,6.74342105 C11.9243421,3.88207737 9.60476474,1.5625 6.74342105,1.5625 C3.88207737,1.5625 1.5625,3.88207737 1.5625,6.74342105 Z" id="Oval-11" fill-rule="nonzero"></path>
                        <path d="M3.37171053,11.8009868 C3.37171053,9.00777039 5.63605986,6.74342105 8.42927632,6.74342105 C11.2224928,6.74342105 13.4868421,9.00777039 13.4868421,11.8009868 L11.9243421,11.8009868 C11.9243421,9.87071531 10.3595479,8.30592105 8.42927632,8.30592105 C6.49900478,8.30592105 4.93421053,9.87071531 4.93421053,11.8009868 L3.37171053,11.8009868 Z M4.93421053,11.8009868 L3.37171053,11.8009868 C3.37171053,9.00777039 5.63605986,6.74342105 8.42927632,6.74342105 C11.2224928,6.74342105 13.4868421,9.00777039 13.4868421,11.8009868 L11.9243421,11.8009868 C11.9243421,9.87071531 10.3595479,8.30592105 8.42927632,8.30592105 C6.49900478,8.30592105 4.93421053,9.87071531 4.93421053,11.8009868 Z" id="Oval-11" fill-rule="nonzero" transform="translate(8.429276, 9.272204) rotate(-180.000000) translate(-8.429276, -9.272204) "></path>
                        <path d="M3.37171053,6.74342105 C3.37171053,4.88127675 4.88127675,3.37171053 6.74342105,3.37171053 C8.60556536,3.37171053 10.1151316,4.88127675 10.1151316,6.74342105 L8.55263158,6.74342105 C8.55263158,5.74422167 7.74262044,4.93421053 6.74342105,4.93421053 C5.74422167,4.93421053 4.93421053,5.74422167 4.93421053,6.74342105 L3.37171053,6.74342105 Z M4.93421053,6.74342105 L3.37171053,6.74342105 C3.37171053,4.88127675 4.88127675,3.37171053 6.74342105,3.37171053 C8.60556536,3.37171053 10.1151316,4.88127675 10.1151316,6.74342105 L8.55263158,6.74342105 C8.55263158,5.74422167 7.74262044,4.93421053 6.74342105,4.93421053 C5.74422167,4.93421053 4.93421053,5.74422167 4.93421053,6.74342105 Z" id="Oval-11" fill-rule="nonzero"></path>
                        <circle id="Oval-12" cx="9.27220395" cy="6.74342105" r="1"></circle>
                        <circle id="Oval-12-Copy" cx="0.842927632" cy="6.74342105" r="1"></circle>
                    </g>
                </g>
            </g>
        </g>
    </g>
</svg>