<?xml version="1.0" encoding="UTF-8"?>
<svg width="64px" height="64px" viewBox="0 0 64 64" version="1.1" xmlns="http://www.w3.org/2000/svg" xmlns:xlink="http://www.w3.org/1999/xlink">
    <!-- Generator: Sketch 46.2 (44496) - http://www.bohemiancoding.com/sketch -->
    <title>notebook</title>
    <desc>Created with Sketch.</desc>
    <defs>
        <path d="M24,9.33333333 L47.3333333,9.33333333 L47.3333333,9.33333333 C49.1742825,9.33333333 50.6666667,10.8257175 50.6666667,12.6666667 L50.6666667,51.6666667 L50.6666667,51.6666667 C50.6666667,52.5871412 49.9204746,53.3333333 49,53.3333333 L19,53.3333333 L19,53.3333333 C18.0795254,53.3333333 17.3333333,52.5871412 17.3333333,51.6666667 L17.3333333,16 L17.3333333,16 C17.3333333,12.3181017 20.3181017,9.33333333 24,9.33333333 Z" id="path-1"></path>
        <path d="M22.6666667,45.3333333 L50.6666667,45.3333333 L50.6666667,52.6666667 L50.6666667,52.6666667 C50.6666667,54.5076158 49.1742825,56 47.3333333,56 L22.6666667,56 L22.6666667,56 C19.721148,56 17.3333333,53.6121853 17.3333333,50.6666667 L17.3333333,50.6666667 L17.3333333,50.6666667 C17.3333333,47.721148 19.721148,45.3333333 22.6666667,45.3333333 Z" id="path-2"></path>
        <path d="M37.6666667,6.66666667 L46.3333333,6.66666667 L46.3333333,6.66666667 C47.2538079,6.66666667 48,7.41285875 48,8.33333333 L48,18.6666667 L42,16.5146019 L36,18.6666667 L36,8.33333333 L36,8.33333333 C36,7.41285875 36.7461921,6.66666667 37.6666667,6.66666667 Z" id="path-3"></path>
    </defs>
    <g id="Sticker-size-64*64" stroke="none" stroke-width="1" fill="none" fill-rule="evenodd">
        <g id="notebook">
            <rect id="Rectangle" x="0" y="0" width="64" height="64"></rect>
            <g id="Rectangle-77">
                <use fill="#ED6969" fill-rule="evenodd" xlink:href="#path-1"></use>
                <path stroke="#2B2B2B" stroke-width="1.66666667" d="M24,10.1666667 C20.778339,10.1666667 18.1666667,12.778339 18.1666667,16 L18.1666667,51.6666667 C18.1666667,52.126904 18.5397627,52.5 19,52.5 L49,52.5 C49.4602373,52.5 49.8333333,52.126904 49.8333333,51.6666667 L49.8333333,12.6666667 C49.8333333,11.2859548 48.7140452,10.1666667 47.3333333,10.1666667 L24,10.1666667 Z"></path>
            </g>
            <g id="Rectangle">
                <use fill="#FFF9ED" fill-rule="evenodd" xlink:href="#path-2"></use>
                <path stroke="#2B2B2B" stroke-width="1.66666667" d="M49.8333333,46.1666667 L22.6666667,46.1666667 C20.1813853,46.1666667 18.1666667,48.1813853 18.1666667,50.6666667 C18.1666667,53.151948 20.1813853,55.1666667 22.6666667,55.1666667 L47.3333333,55.1666667 C48.7140452,55.1666667 49.8333333,54.0473785 49.8333333,52.6666667 L49.8333333,46.1666667 Z"></path>
            </g>
            <rect id="Rectangle-78" fill="#2B2B2B" x="22.6666667" y="10.6666667" width="1.66666667" height="34.6666667"></rect>
            <rect id="Rectangle-79" fill="#2B2B2B" x="29.3333333" y="24" width="14.6666667" height="1.66666667" rx="0.833333333"></rect>
            <rect id="Rectangle-2" fill="#2B2B2B" x="30.6666667" y="29.3333333" width="12" height="1.66666667" rx="0.833333333"></rect>
            <g id="Rectangle-80">
                <use fill="#FFC55D" fill-rule="evenodd" xlink:href="#path-3"></use>
                <path stroke="#2B2B2B" stroke-width="1.66666667" d="M36.8333333,17.4824528 L42,15.629286 L47.1666667,17.4824528 L47.1666667,8.33333333 C47.1666667,7.87309604 46.7935706,7.5 46.3333333,7.5 L37.6666667,7.5 C37.2064294,7.5 36.8333333,7.87309604 36.8333333,8.33333333 L36.8333333,17.4824528 Z"></path>
            </g>
            <rect id="Rectangle-81" fill="#2B2B2B" x="22.6666667" y="49.3333333" width="28" height="1.66666667" rx="0.833333333"></rect>
        </g>
    </g>
</svg>