<?xml version="1.0" encoding="UTF-8"?>
<svg width="64px" height="64px" viewBox="0 0 64 64" version="1.1" xmlns="http://www.w3.org/2000/svg" xmlns:xlink="http://www.w3.org/1999/xlink">
    <!-- Generator: Sketch 46.2 (44496) - http://www.bohemiancoding.com/sketch -->
    <title>medal</title>
    <desc>Created with Sketch.</desc>
    <defs>
        <rect id="path-1" x="9.025" y="0" width="15.8333333" height="15.5172414"></rect>
        <polygon id="path-2" points="3.90149422 26.9940296 16.5681609 26.9940296 16.5681609 45.6147193 10.2348276 42.511271 3.90149422 45.6147193"></polygon>
        <polygon id="path-3" points="17.3598276 26.9940296 30.0264942 26.9940296 30.0264942 45.6147193 23.6931609 42.511271 17.3598276 45.6147193"></polygon>
        <ellipse id="path-4" cx="16.9416667" cy="20.7931034" rx="14.25" ry="13.9655172"></ellipse>
    </defs>
    <g id="Sticker-size-64*64" stroke="none" stroke-width="1" fill="none" fill-rule="evenodd">
        <g id="medal">
            <rect id="Rectangle" x="0" y="0" width="64" height="64"></rect>
            <g id="Group-2" transform="translate(6.666667, 10.666667)">
                <ellipse id="Oval-14" fill="#FFEECF" cx="25.3333333" cy="20.7931034" rx="19" ry="18.6206897"></ellipse>
                <g id="Group" transform="translate(8.391667, 0.000000)">
                    <g id="Rectangle-14">
                        <use fill="#ED6969" fill-rule="evenodd" xlink:href="#path-1"></use>
                        <rect stroke="#2B2B2B" stroke-width="1.5625" x="9.80625" y="0.78125" width="14.2708333" height="13.9547414"></rect>
                    </g>
                    <g id="Rectangle-14-Copy" transform="translate(10.234828, 36.304374) rotate(30.000000) translate(-10.234828, -36.304374) ">
                        <use fill="#ED6969" fill-rule="evenodd" xlink:href="#path-2"></use>
                        <path stroke="#2B2B2B" stroke-width="1.5625" d="M4.68274422,27.7752796 L4.68274422,44.3618881 L10.2348276,41.6412665 L15.7869109,44.3618881 L15.7869109,27.7752796 L4.68274422,27.7752796 Z"></path>
                    </g>
                    <g id="Rectangle-14-Copy" transform="translate(23.693161, 36.304374) scale(-1, 1) rotate(30.000000) translate(-23.693161, -36.304374) ">
                        <use fill="#ED6969" fill-rule="evenodd" xlink:href="#path-3"></use>
                        <path stroke="#2B2B2B" stroke-width="1.5625" d="M18.1410776,27.7752796 L18.1410776,44.3618881 L23.6931609,41.6412665 L29.2452442,44.3618881 L29.2452442,27.7752796 L18.1410776,27.7752796 Z"></path>
                    </g>
                    <g id="Oval-4">
                        <use fill="#FFFFFF" fill-rule="evenodd" xlink:href="#path-4"></use>
                        <ellipse stroke="#2B2B2B" stroke-width="1.5625" cx="16.9416667" cy="20.7931034" rx="13.46875" ry="13.1842672"></ellipse>
                    </g>
                    <path d="M16.9416667,31.6551724 C10.8205107,31.6551724 5.85833333,26.7920585 5.85833333,20.7931034 C5.85833333,14.7941484 10.8205107,9.93103448 16.9416667,9.93103448 C23.0628226,9.93103448 28.025,14.7941484 28.025,20.7931034 C28.025,26.7920585 23.0628226,31.6551724 16.9416667,31.6551724 Z M16.9416667,24.0517241 L20.6643066,25.9697607 L19.9533456,21.9072941 L22.9650246,19.0302393 L18.8029866,18.4375335 L16.9416667,14.7413793 L15.0803467,18.4375335 L10.9183087,19.0302393 L13.9299877,21.9072941 L13.2190267,25.9697607 L16.9416667,24.0517241 Z" id="Combined-Shape" fill="#FFC55D"></path>
                </g>
                <path d="M3.13505747,20.7826868 L3.13505747,20.8035201 C3.13505747,21.2349926 2.78527993,21.5847701 2.35380747,21.5847701 L0.812859195,21.5847701 L0.812859195,21.5847701 C0.381386735,21.5847701 0.0316091954,21.2349926 0.0316091954,20.8035201 L0.0316091954,20.7826868 L0.0316091954,20.7826868 C0.0316091954,20.3512143 0.381386735,20.0014368 0.812859195,20.0014368 L2.35380747,20.0014368 C2.78527993,20.0014368 3.13505747,20.3512143 3.13505747,20.7826868 L3.13505747,20.7826868 Z M50.6350575,20.7826868 L50.6350575,20.8035201 C50.6350575,21.2349926 50.2852799,21.5847701 49.8538075,21.5847701 L48.3128592,21.5847701 L48.3128592,21.5847701 C47.8813867,21.5847701 47.5316092,21.2349926 47.5316092,20.8035201 L47.5316092,20.7826868 C47.5316092,20.3512143 47.8813867,20.0014368 48.3128592,20.0014368 L49.8538075,20.0014368 C50.2852799,20.0014368 50.6350575,20.3512143 50.6350575,20.7826868 L50.6350575,20.7826868 Z" id="Combined-Shape" fill="#FFC55D"></path>
                <path d="M3.13505747,20.7826868 L3.13505747,20.8035201 C3.13505747,21.2349926 2.78527993,21.5847701 2.35380747,21.5847701 L0.812859195,21.5847701 L0.812859195,21.5847701 C0.381386735,21.5847701 0.0316091954,21.2349926 0.0316091954,20.8035201 L0.0316091954,20.7826868 L0.0316091954,20.7826868 C0.0316091954,20.3512143 0.381386735,20.0014368 0.812859195,20.0014368 L2.35380747,20.0014368 C2.78527993,20.0014368 3.13505747,20.3512143 3.13505747,20.7826868 L3.13505747,20.7826868 Z M50.6350575,20.7826868 L50.6350575,20.8035201 C50.6350575,21.2349926 50.2852799,21.5847701 49.8538075,21.5847701 L48.3128592,21.5847701 C47.8813867,21.5847701 47.5316092,21.2349926 47.5316092,20.8035201 L47.5316092,20.7826868 C47.5316092,20.3512143 47.8813867,20.0014368 48.3128592,20.0014368 L49.8538075,20.0014368 C50.2852799,20.0014368 50.6350575,20.3512143 50.6350575,20.7826868 L50.6350575,20.7826868 Z" id="Combined-Shape" fill="#FFC55D" transform="translate(25.333333, 20.793103) rotate(-36.000000) translate(-25.333333, -20.793103) "></path>
                <path d="M3.13505747,20.7826868 L3.13505747,20.8035201 C3.13505747,21.2349926 2.78527993,21.5847701 2.35380747,21.5847701 L0.812859195,21.5847701 L0.812859195,21.5847701 C0.381386735,21.5847701 0.0316091954,21.2349926 0.0316091954,20.8035201 L0.0316091954,20.7826868 L0.0316091954,20.7826868 C0.0316091954,20.3512143 0.381386735,20.0014368 0.812859195,20.0014368 L2.35380747,20.0014368 C2.78527993,20.0014368 3.13505747,20.3512143 3.13505747,20.7826868 L3.13505747,20.7826868 Z M50.6350575,20.7826868 L50.6350575,20.8035201 C50.6350575,21.2349926 50.2852799,21.5847701 49.8538075,21.5847701 L48.3128592,21.5847701 L48.3128592,21.5847701 C47.8813867,21.5847701 47.5316092,21.2349926 47.5316092,20.8035201 L47.5316092,20.7826868 C47.5316092,20.3512143 47.8813867,20.0014368 48.3128592,20.0014368 L49.8538075,20.0014368 C50.2852799,20.0014368 50.6350575,20.3512143 50.6350575,20.7826868 L50.6350575,20.7826868 Z" id="Combined-Shape" fill="#FFC55D" transform="translate(25.333333, 20.793103) rotate(36.000000) translate(-25.333333, -20.793103) "></path>
            </g>
        </g>
    </g>
</svg>