<?xml version="1.0" encoding="UTF-8"?>
<svg width="64px" height="64px" viewBox="0 0 64 64" version="1.1" xmlns="http://www.w3.org/2000/svg" xmlns:xlink="http://www.w3.org/1999/xlink">
    <!-- Generator: Sketch 46.2 (44496) - http://www.bohemiancoding.com/sketch -->
    <title>museum</title>
    <desc>Created with Sketch.</desc>
    <defs>
        <rect id="path-1" x="13.5384615" y="25.8567895" width="16.9230769" height="18.5362962" rx="1.66666667"></rect>
        <path d="M42.9936755,13.6049423 L0.950017616,13.6049423 L0.950017616,42.6875026 L13.7564032,42.6875026 L13.7564032,31.6217608 C13.7564032,31.1307832 14.0369732,30.6710265 14.4812793,30.4450056 L21.3794183,26.9694673 C21.7535518,26.7823823 22.1900207,26.7823823 22.5641542,26.9694673 L29.4622932,30.4450056 C29.9065993,30.6710265 30.1871693,31.1229478 30.1871693,31.6217608 L30.1871693,42.6875026 L42.9936755,42.6875026 L42.9936755,13.6049423 Z" id="path-2"></path>
        <path d="M1.02319336,11.9078005 L42.9193773,11.9114897 C42.9193773,11.9114897 43.1127821,11.3747889 42.9193773,11.2628279 C36.4371145,7.51028398 22.6767235,0.316130448 22.6767235,0.316130448 C22.2047303,0.0386085975 21.5847112,0.0386085975 21.1034126,0.316130448 C21.1034126,0.316130448 7.48671936,7.77900657 1.02319336,11.5485388 C0.860345985,11.6435115 1.02319336,11.9078005 1.02319336,11.9078005 Z" id="path-3"></path>
        <rect id="path-4" x="45.3333333" y="29.3333333" width="6.66666667" height="6.66666667" rx="1.66666667"></rect>
        <rect id="path-5" x="45.3333333" y="38.6666667" width="6.66666667" height="6.66666667" rx="1.66666667"></rect>
        <rect id="path-6" x="36" y="29.3333333" width="6.66666667" height="6.66666667" rx="1.66666667"></rect>
        <rect id="path-7" x="25.3333333" y="29.3333333" width="6.66666667" height="6.66666667" rx="1.66666667"></rect>
        <rect id="path-8" x="16" y="29.3333333" width="6.66666667" height="6.66666667" rx="1.66666667"></rect>
        <rect id="path-9" x="16" y="38.6666667" width="6.66666667" height="6.66666667" rx="1.66666667"></rect>
    </defs>
    <g id="Sticker-size-64*64" stroke="none" stroke-width="1" fill="none" fill-rule="evenodd">
        <g id="museum">
            <g id="school-2" transform="translate(12.000000, 10.666667)">
                <g id="Rectangle">
                    <use fill="#FFDC64" fill-rule="evenodd" xlink:href="#path-1"></use>
                    <rect stroke="#2B2B2B" stroke-width="1.66666667" x="14.3717949" y="26.6901228" width="15.2564103" height="16.8696296" rx="1.66666667"></rect>
                </g>
                <g id="Shape" fill-rule="nonzero">
                    <use fill="#FFFFFF" fill-rule="evenodd" xlink:href="#path-2"></use>
                    <path stroke="#2B2B2B" stroke-width="1.66666667" d="M43.8270088,12.771609 L43.8270088,43.520836 L29.353836,43.520836 L29.353836,31.6217608 C29.353836,31.4387497 29.2512799,31.2726239 29.0873325,31.1892159 L22.1914471,27.7148087 C22.0519358,27.6450462 21.8916367,27.6450462 21.754379,27.7136775 L14.859121,31.1877573 C14.695436,31.2710248 14.5897365,31.4430662 14.5897365,31.6217608 L14.5897365,43.520836 L0.116684283,43.520836 L0.116684283,12.771609 L43.8270088,12.771609 Z"></path>
                </g>
                <g id="Shape" fill-rule="nonzero">
                    <use fill="#07EBF5" fill-rule="evenodd" xlink:href="#path-3"></use>
                    <path stroke="#2B2B2B" stroke-width="1.66666667" d="M0.313727388,12.3449532 C0.284282919,12.297167 0.251649476,12.2362061 0.219796162,12.1610865 C0.172153811,12.0487315 0.13756682,11.9311866 0.123599777,11.7989799 C0.0844126817,11.4280497 0.227099939,11.0481236 0.603372134,10.8286814 C2.57128826,9.68099158 5.31041056,8.12734568 8.63404245,6.26792117 C8.81281041,6.16792226 8.81281041,6.16792226 8.99162431,6.06795179 C11.5536376,4.63578304 14.298335,3.11349692 17.0429884,1.59923722 C18.0035829,1.06926522 18.8955743,0.578142585 19.6961079,0.138145278 C19.9763218,-0.0158687177 20.1421547,-0.106944011 20.4395794,-0.270203156 C20.6569787,-0.389477872 20.6569787,-0.389477872 20.6871465,-0.405788505 C21.4271046,-0.832456163 22.367397,-0.832456163 23.0628202,-0.422363831 C23.1091286,-0.398153005 23.1091286,-0.398153005 23.3279234,-0.283564606 C23.6272141,-0.126692795 23.7940634,-0.0391631049 24.0760031,0.108935431 C24.8814182,0.532007476 25.7788291,1.00476655 26.7452521,1.51559417 C29.5066164,2.97518378 32.268051,4.44753415 34.8458657,5.83979772 C35.1479943,6.00303519 35.1479943,6.00303519 35.4499036,6.16640025 C38.713131,7.93284208 41.4006538,9.42075342 43.3368787,10.5416227 C43.8003377,10.8099164 43.8811335,11.211563 43.826917,11.6740305 C43.815001,11.775675 43.7950889,11.8758568 43.7694862,11.9755279 C43.7461229,12.0664804 43.7223531,12.1412999 43.7033604,12.1940049 L43.5048497,12.7448746 L0.557817348,12.7410929 L0.313727388,12.3449532 Z"></path>
                </g>
            </g>
            <g id="Rectangle-108">
                <use fill="#94E8F4" fill-rule="evenodd" xlink:href="#path-4"></use>
                <rect stroke="#2B2B2B" stroke-width="1.66666667" x="46.1666667" y="30.1666667" width="5" height="5" rx="1.66666667"></rect>
            </g>
            <g id="Rectangle-108-Copy">
                <use fill="#94E8F4" fill-rule="evenodd" xlink:href="#path-5"></use>
                <rect stroke="#2B2B2B" stroke-width="1.66666667" x="46.1666667" y="39.5" width="5" height="5" rx="1.66666667"></rect>
            </g>
            <g id="Rectangle-108">
                <use fill="#94E8F4" fill-rule="evenodd" xlink:href="#path-6"></use>
                <rect stroke="#2B2B2B" stroke-width="1.66666667" x="36.8333333" y="30.1666667" width="5" height="5" rx="1.66666667"></rect>
            </g>
            <g id="Rectangle-108">
                <use fill="#94E8F4" fill-rule="evenodd" xlink:href="#path-7"></use>
                <rect stroke="#2B2B2B" stroke-width="1.66666667" x="26.1666667" y="30.1666667" width="5" height="5" rx="1.66666667"></rect>
            </g>
            <g id="Rectangle-108">
                <use fill="#94E8F4" fill-rule="evenodd" xlink:href="#path-8"></use>
                <rect stroke="#2B2B2B" stroke-width="1.66666667" x="16.8333333" y="30.1666667" width="5" height="5" rx="1.66666667"></rect>
            </g>
            <g id="Rectangle-108-Copy-2">
                <use fill="#94E8F4" fill-rule="evenodd" xlink:href="#path-9"></use>
                <rect stroke="#2B2B2B" stroke-width="1.66666667" x="16.8333333" y="39.5" width="5" height="5" rx="1.66666667"></rect>
            </g>
            <rect id="Rectangle" x="0" y="0" width="64" height="64"></rect>
        </g>
    </g>
</svg>