<?xml version="1.0" encoding="UTF-8"?>
<svg width="64px" height="64px" viewBox="0 0 64 64" version="1.1" xmlns="http://www.w3.org/2000/svg" xmlns:xlink="http://www.w3.org/1999/xlink">
    <!-- Generator: Sketch 46.2 (44496) - http://www.bohemiancoding.com/sketch -->
    <title>puzzle</title>
    <desc>Created with Sketch.</desc>
    <defs></defs>
    <g id="Sticker-size-64*64" stroke="none" stroke-width="1" fill="none" fill-rule="evenodd">
        <g id="puzzle">
            <rect id="Rectangle" x="0" y="0" width="64" height="64"></rect>
            <g id="Group" transform="translate(9.333333, 9.333333)">
                <g id="puzzle-copy" fill-rule="nonzero">
                    <path d="M22.6666667,1.3738125 L22.6666667,8.47148958 C22.6666667,9.2554375 23.3022187,9.89098958 24.0861667,9.89098958 L25.5017708,9.89098958 C26.1127969,9.89098958 26.7205469,9.65617708 27.1089792,9.18451562 C27.8242187,8.31609896 28.9061094,7.76165104 30.1191302,7.76165104 C32.5499531,7.76165104 34.4618333,9.98342708 33.9347448,12.5070417 C33.6201562,14.0134896 32.3816354,15.2173906 30.868724,15.4990417 C29.3742292,15.7772396 27.998026,15.2024271 27.1363385,14.1790625 C26.7380781,13.7059844 26.147151,13.4397396 25.528776,13.4397396 L24.0851927,13.4397396 C23.3016875,13.4397396 22.6665781,14.074849 22.6665781,14.8583542 L22.6665781,22.6666667 L14.8582656,22.6666667 C14.0747604,22.6666667 13.439651,22.0315573 13.439651,21.2480521 L13.439651,19.8044687 C13.439651,19.1860937 13.7059844,18.5951667 14.178974,18.1969062 C15.2024271,17.3352187 15.7772396,15.9590156 15.4989531,14.4645208 C15.2173021,12.9516094 14.0133125,11.7130885 12.5069531,11.3985 C9.98333854,10.8715 7.7615625,12.7832917 7.7615625,15.2141146 C7.7615625,16.4271354 8.31592188,17.509026 9.18442708,18.2242656 C9.65608854,18.6126979 9.89090104,19.2204479 9.89090104,19.831474 L9.89090104,21.2470781 C9.89090104,22.031026 9.25534896,22.6665781 8.47140104,22.6665781 L1.3738125,22.6665781 C0.981838542,22.6665781 0.6640625,22.3488021 0.6640625,21.9568281 L0.6640625,3.50315104 C0.6640625,1.93516667 1.93516667,0.6640625 3.50315104,0.6640625 L21.9569167,0.6640625 C22.3488906,0.6640625 22.6666667,0.981838542 22.6666667,1.3738125 Z" id="Shape" fill="#ED6969"></path>
                    <path d="M43.9595208,22.6666667 L36.8619323,22.6666667 C36.0779844,22.6666667 35.4424323,23.3022187 35.4424323,24.0861667 L35.4424323,25.5017708 C35.4424323,26.1127969 35.6772448,26.7205469 36.1489062,27.1089792 C37.0173229,27.8242187 37.5717708,28.9061094 37.5717708,30.1191302 C37.5717708,32.5499531 35.3499948,34.4618333 32.8263802,33.9347448 C31.3199323,33.6201562 30.1160312,32.3816354 29.8343802,30.868724 C29.5561823,29.3742292 30.1309948,27.998026 31.1543594,27.1363385 C31.6274375,26.7380781 31.8936823,26.147151 31.8936823,25.528776 L31.8936823,24.0851927 C31.8936823,23.3016875 31.2585729,22.6665781 30.4750677,22.6665781 L22.6666667,22.6665781 L22.6666667,14.8582656 C22.6666667,14.0747604 23.301776,13.439651 24.0852812,13.439651 L25.5288646,13.439651 C26.1472396,13.439651 26.7381667,13.7059844 27.1364271,14.178974 C27.9981146,15.2024271 29.3743177,15.7772396 30.8688125,15.4989531 C32.381724,15.2173021 33.6202448,14.0133125 33.9348333,12.5069531 C34.4618333,9.98333854 32.5500417,7.7615625 30.1192187,7.7615625 C28.9061979,7.7615625 27.8243073,8.31592188 27.1090677,9.18442708 C26.7206354,9.65608854 26.1128854,9.89090104 25.5018594,9.89090104 L24.0862552,9.89090104 C23.3023073,9.89090104 22.6667552,9.25534896 22.6667552,8.47140104 L22.6667552,1.3738125 C22.6667552,0.981838542 22.9845312,0.6640625 23.3765052,0.6640625 L41.8302708,0.6640625 C43.3982552,0.6640625 44.6693594,1.93516667 44.6693594,3.50315104 L44.6693594,21.9569167 C44.6692708,22.3488906 44.3514948,22.6666667 43.9595208,22.6666667 Z" id="Shape" fill="#FFC55D"></path>
                    <path d="M22.6666667,43.9595208 L22.6666667,36.8619323 C22.6666667,36.0779844 22.0311146,35.4424323 21.2471667,35.4424323 L19.8315625,35.4424323 C19.2205365,35.4424323 18.6127865,35.6772448 18.2243542,36.1489062 C17.5091146,37.0173229 16.427224,37.5717708 15.2142031,37.5717708 C12.7833802,37.5717708 10.8715,35.3499948 11.3985885,32.8263802 C11.7131771,31.3199323 12.9516979,30.1160312 14.4646094,29.8343802 C15.9591042,29.5561823 17.3353073,30.1309948 18.1969948,31.1543594 C18.5952552,31.6274375 19.1861823,31.8936823 19.8045573,31.8936823 L21.2481406,31.8936823 C22.0316458,31.8936823 22.6667552,31.2585729 22.6667552,30.4750677 L22.6667552,22.6666667 L30.4750677,22.6666667 C31.2585729,22.6666667 31.8936823,23.301776 31.8936823,24.0852812 L31.8936823,25.5288646 C31.8936823,26.1472396 31.627349,26.7381667 31.1543594,27.1364271 C30.1309062,27.9981146 29.5560937,29.3743177 29.8343802,30.8688125 C30.1160312,32.381724 31.3200208,33.6202448 32.8263802,33.9348333 C35.3499948,34.4618333 37.5717708,32.5500417 37.5717708,30.1192187 C37.5717708,28.9061979 37.0174115,27.8243073 36.1489062,27.1090677 C35.6772448,26.7206354 35.4424323,26.1128854 35.4424323,25.5018594 L35.4424323,24.0862552 C35.4424323,23.3023073 36.0779844,22.6667552 36.8619323,22.6667552 L43.9595208,22.6667552 C44.3514948,22.6667552 44.6692708,22.9845312 44.6692708,23.3765052 L44.6692708,41.8302708 C44.6692708,43.3982552 43.3981667,44.6693594 41.8301823,44.6693594 L23.3764167,44.6693594 C22.9844427,44.6692708 22.6666667,44.3514948 22.6666667,43.9595208 Z" id="Shape" fill="#E9F4F5"></path>
                    <path d="M1.3738125,22.6666667 L8.47148958,22.6666667 C9.2554375,22.6666667 9.89098958,22.0311146 9.89098958,21.2471667 L9.89098958,19.8315625 C9.89098958,19.2205365 9.65617708,18.6127865 9.18451562,18.2243542 C8.31609896,17.5091146 7.76165104,16.427224 7.76165104,15.2142031 C7.76165104,12.7833802 9.98342708,10.8715 12.5070417,11.3985885 C14.0134896,11.7131771 15.2173906,12.9516979 15.4990417,14.4646094 C15.7772396,15.9591042 15.2024271,17.3353073 14.1790625,18.1969948 C13.7059844,18.5952552 13.4397396,19.1861823 13.4397396,19.8045573 L13.4397396,21.2481406 C13.4397396,22.0316458 14.074849,22.6667552 14.8583542,22.6667552 L22.6666667,22.6667552 L22.6666667,30.4750677 C22.6666667,31.2585729 22.0315573,31.8936823 21.2480521,31.8936823 L19.8044687,31.8936823 C19.1860937,31.8936823 18.5951667,31.627349 18.1969062,31.1543594 C17.3352187,30.1309062 15.9590156,29.5560937 14.4645208,29.8343802 C12.9516094,30.1160312 11.7130885,31.3200208 11.3985,32.8263802 C10.8715,35.3499948 12.7832917,37.5717708 15.2141146,37.5717708 C16.4271354,37.5717708 17.509026,37.0174115 18.2242656,36.1489062 C18.6126979,35.6772448 19.2204479,35.4424323 19.831474,35.4424323 L21.2470781,35.4424323 C22.031026,35.4424323 22.6665781,36.0779844 22.6665781,36.8619323 L22.6665781,43.9595208 C22.6665781,44.3514948 22.3488021,44.6692708 21.9568281,44.6692708 L3.50315104,44.6692708 C1.93516667,44.6692708 0.6640625,43.3981667 0.6640625,41.8301823 L0.6640625,23.3764167 C0.6640625,22.9844427 0.981838542,22.6666667 1.3738125,22.6666667 Z" id="Shape" fill="#BDF3FB"></path>
                    <path d="M30.8688125,15.4991302 C30.8636771,15.5001042 30.8586302,15.5000156 30.8534948,15.5009896 C31.3098385,15.5822708 31.7912396,15.5917448 32.2883125,15.4991302 C33.801224,15.2174792 35.0397448,14.0135781 35.3543333,12.5071302 C35.8813333,9.98351563 33.9695417,7.76173958 31.5386302,7.76173958 C31.2955833,7.76173958 31.0597969,7.78971875 30.8292344,7.83230729 C32.9060677,8.21516146 34.4090625,10.2360365 33.9347448,12.5072188 C33.6202448,14.0134896 32.381724,15.2173906 30.8688125,15.4991302 Z" id="Shape" fill="#FFC850"></path>
                    <path d="M24.0861667,9.89098958 L25.5017708,9.89098958 C25.5023906,9.89098958 25.503099,9.8908125 25.5038073,9.8908125 C24.7207448,9.88975 24.0861667,9.25481771 24.0861667,8.47148958 L24.0861667,1.3738125 C24.0861667,0.981838542 24.4039427,0.6640625 24.7959167,0.6640625 L23.3764167,0.6640625 C22.9844427,0.6640625 22.6666667,0.981838542 22.6666667,1.3738125 L22.6666667,8.47140104 C22.6666667,9.2554375 23.3022187,9.89098958 24.0861667,9.89098958 Z" id="Shape" fill="#FFC850"></path>
                    <path d="M25.5047812,13.4397396 L24.0852812,13.4397396 C23.3018646,13.4397396 22.6667552,14.074849 22.6667552,14.8582656 L22.6667552,22.6666667 L24.0862552,22.6666667 L24.0862552,14.8583542 C24.0861667,14.074849 24.721276,13.4397396 25.5047812,13.4397396 Z" id="Shape" fill="#FFC850"></path>
                    <path d="M34.2457917,33.9348333 C32.7393438,33.6202448 31.5354427,32.381724 31.2537917,30.8688125 C30.9755052,29.3743177 31.5504063,27.9981146 32.5737708,27.1364271 C33.046849,26.7381667 33.3130938,26.1472396 33.3130938,25.528776 L33.3130938,24.0851927 C33.3130938,23.301776 32.6779844,22.6666667 31.8944792,22.6666667 L30.4749792,22.6666667 C31.2583958,22.6666667 31.8935938,23.301776 31.8935938,24.0851927 L31.8935938,25.528776 C31.8935938,26.147151 31.6272604,26.7380781 31.1542708,27.1364271 C30.1309063,27.9981146 29.5560938,29.3743177 29.8342917,30.8688125 C30.1159427,32.381724 31.3198438,33.6202448 32.8262917,33.9348333 C33.361526,34.0465729 33.8811771,34.0430312 34.370901,33.9536927 C34.3289323,33.9462552 34.287849,33.943599 34.2457917,33.9348333 Z" id="Shape" fill="#FFC850"></path>
                </g>
                <path d="M1.51111111,22.6280179 C4.81476252,22.6280179 6.89533124,22.6280179 7.75281729,22.6280179 C9.03904636,22.6280179 9.69270471,22.166907 9.75235592,20.901465 C9.81200712,19.636023 9.75235592,19.7981532 9.75235592,19.4256426 C9.75235592,19.0531321 9.54107182,18.5500302 9.03275502,17.9897451 C8.52443823,17.4294601 7.61557292,15.9861489 7.61557292,14.6525246 C7.61557292,13.3189004 8.61909956,10.6278915 11.5716594,10.5783045 C13.8768772,10.5395893 15.4740364,12.6418619 15.5008329,14.6525246 C15.5276293,16.6631873 14.2496139,17.6888806 13.9800184,17.9897451 C13.710423,18.2906097 13.4058174,18.8714344 13.3836812,19.2367743 C13.361545,19.6021142 13.3394088,20.4958964 13.361545,20.901465 C13.3836812,21.3070336 13.3483798,22.5507205 15.2234315,22.6280179 C16.4734659,22.6795496 18.9545443,22.6795496 22.6666667,22.6280179" id="Path-42" stroke="#2B2B2B" stroke-width="1.66666667"></path>
                <path d="M22.6666667,34.7169068 C25.9703181,34.7169068 28.0508868,34.7169068 28.9083728,34.7169068 C30.1946019,34.7169068 30.8482603,34.2557959 30.9079115,32.9903539 C30.9675627,31.7249119 30.9079115,31.8870421 30.9079115,31.5145315 C30.9079115,31.142021 30.6966274,30.638919 30.1883106,30.078634 C29.6799938,29.518349 28.7711285,28.0750377 28.7711285,26.7414135 C28.7711285,25.4077893 29.7746551,22.7167804 32.7272149,22.6671934 C35.0324328,22.6284782 36.629592,24.7307508 36.6563884,26.7414135 C36.6831849,28.7520762 35.4051695,29.7777695 35.135574,30.078634 C34.8659785,30.3794986 34.5613729,30.9603233 34.5392367,31.3256632 C34.5171005,31.6910031 34.4949643,32.5847853 34.5171005,32.9903539 C34.5392367,33.3959225 34.5039353,34.6396094 36.378987,34.7169068 C37.6290215,34.7684385 40.1100999,34.7684385 43.8222222,34.7169068" id="Path-42" stroke="#2B2B2B" stroke-width="1.66666667" transform="translate(33.244444, 28.711111) scale(-1, -1) translate(-33.244444, -28.711111) "></path>
                <path d="M6.04444444,39.2502402 C9.34809585,39.2502402 11.4286646,39.2502402 12.2861506,39.2502402 C13.5723797,39.2502402 14.226038,38.7891292 14.2856893,37.5236872 C14.3453405,36.2582452 14.2856893,36.4203754 14.2856893,36.0478648 C14.2856893,35.6753543 14.0744052,35.1722524 13.5660884,34.6119673 C13.0577716,34.0516823 12.1489063,32.6083711 12.1489063,31.2747469 C12.1489063,29.9411227 13.1524329,27.2501138 16.1049927,27.2005267 C18.4102106,27.1618115 20.0073698,29.2640842 20.0341662,31.2747469 C20.0609626,33.2854096 18.7829473,34.3111028 18.5133518,34.6119673 C18.2437563,34.9128319 17.9391507,35.4936567 17.9170145,35.8589965 C17.8948783,36.2243364 17.8727421,37.1181186 17.8948783,37.5236872 C17.9170145,37.9292558 17.8817131,39.1729427 19.7567648,39.2502402 C21.0067993,39.3017718 23.4878777,39.3017718 27.2,39.2502402" id="Path-42" stroke="#2B2B2B" stroke-width="1.66666667" transform="translate(16.622222, 33.244444) scale(-1, -1) rotate(-270.000000) translate(-16.622222, -33.244444) "></path>
                <path d="M18.1333333,18.0946846 C21.4369847,18.0946846 23.5175535,18.0946846 24.3750395,18.0946846 C25.6612686,18.0946846 26.3149269,17.6335737 26.3745781,16.3681317 C26.4342293,15.1026896 26.3745781,15.2648198 26.3745781,14.8923093 C26.3745781,14.5197987 26.163294,14.0166968 25.6549772,13.4564118 C25.1466604,12.8961268 24.2377951,11.4528155 24.2377951,10.1191913 C24.2377951,8.7855671 25.2413218,6.09455822 28.1938816,6.04497117 C30.4990995,6.00625597 32.0962586,8.10852861 32.1230551,10.1191913 C32.1498515,12.129854 30.8718361,13.1555472 30.6022407,13.4564118 C30.3326452,13.7572763 30.0280396,14.3381011 30.0059034,14.703441 C29.9837672,15.0687808 29.961631,15.9625631 29.9837672,16.3681317 C30.0059034,16.7737002 29.970602,18.0173871 31.8456537,18.0946846 C33.0956881,18.1462162 35.5767665,18.1462162 39.2888889,18.0946846" id="Path-42" stroke="#2B2B2B" stroke-width="1.66666667" transform="translate(28.711111, 12.088889) rotate(-270.000000) translate(-28.711111, -12.088889) "></path>
                <rect id="Rectangle-72" stroke="#2B2B2B" stroke-width="1.66666667" x="0.833333333" y="0.833333333" width="43.6666667" height="43.6666667" rx="3.33333333"></rect>
            </g>
        </g>
    </g>
</svg>