<?xml version="1.0" encoding="UTF-8"?>
<svg width="64px" height="64px" viewBox="0 0 64 64" version="1.1" xmlns="http://www.w3.org/2000/svg" xmlns:xlink="http://www.w3.org/1999/xlink">
    <!-- Generator: Sketch 47 (45396) - http://www.bohemiancoding.com/sketch -->
    <title>boring</title>
    <desc>Created with Sketch.</desc>
    <defs></defs>
    <g id="Sticker-size-64*64" stroke="none" stroke-width="1" fill="none" fill-rule="evenodd">
        <g id="boring">
            <circle id="Oval-17" fill="#FBDC67" cx="32" cy="32" r="25"></circle>
            <path d="M7.32825656,36.0615544 C9.26843591,47.937035 19.5758335,57 32,57 C45.8071187,57 57,45.8071187 57,32 C57,29.1793298 56.5328672,26.4677644 55.6717434,23.9384456 C55.8877077,25.2603228 56,26.6170477 56,28 C56,41.8071187 44.8071187,53 31,53 C20.0135514,53 10.6823147,45.9131959 7.32825656,36.0615544 Z" id="Combined-Shape" fill="#F2CC5B"></path>
            <g id="Group-44-Copy-7" transform="translate(13.000000, 25.000000)">
                <g id="Group-34">
                    <path d="M18.7058824,19.0588235 C24.5536032,19.0588235 27.5294118,19.950224 27.5294118,19.0588235 C27.5294118,18.167423 24.5536032,13.7647059 18.7058824,13.7647059 C12.8581615,13.7647059 9.88235294,18.131879 9.88235294,19.0588235 C9.88235294,19.985768 12.8581615,19.0588235 18.7058824,19.0588235 Z" id="Oval-3-Copy" fill="#4C4023"></path>
                    <path d="M15.1587793,2.7966377 L15.1764706,2.80455124 C13.8810629,5.11784486 11.2066524,6.70588235 8.11764706,6.70588235 C5.1738034,6.70588235 2.60650404,5.26359128 1.25048474,3.12578281 C1.02752508,2.83031047 0.895321117,2.46251198 0.895321117,2.06383559 C0.895321117,1.08921545 1.68540685,0.29912971 2.660027,0.29912971 C3.38582847,0.29912971 4.00929068,0.737296178 4.28032247,1.36353796 L4.28978706,1.35930433 C5.03680753,2.44311079 6.47103416,3.17647059 8.11765463,3.17647059 C9.74412076,3.17647059 11.1633606,2.46095331 11.917784,1.39894292 C12.1803486,0.753873076 12.813541,0.29912971 13.5529444,0.29912971 C14.5275646,0.29912971 15.3176503,1.08921545 15.3176503,2.06383559 C15.3176503,2.32527806 15.260797,2.57344173 15.1587793,2.7966377 Z" id="Combined-Shape" fill="#4C4023"></path>
                    <path d="M36.4987523,2.7966377 L36.5164436,2.80455124 C35.2210359,5.11784486 32.5466254,6.70588235 29.4576201,6.70588235 C26.5137764,6.70588235 23.946477,5.26359128 22.5904577,3.12578281 C22.3674981,2.83031047 22.2352941,2.46251198 22.2352941,2.06383559 C22.2352941,1.08921545 23.0253799,0.29912971 24,0.29912971 C24.7258015,0.29912971 25.3492637,0.737296178 25.6202955,1.36353796 L25.6297601,1.35930433 C26.3767805,2.44311079 27.8110072,3.17647059 29.4576276,3.17647059 C31.0840938,3.17647059 32.5033336,2.46095331 33.257757,1.39894292 C33.5203216,0.753873076 34.153514,0.29912971 34.8929174,0.29912971 C35.8675376,0.29912971 36.6576233,1.08921545 36.6576233,2.06383559 C36.6576233,2.32527806 36.60077,2.57344173 36.4987523,2.7966377 Z" id="Combined-Shape" fill="#4C4023"></path>
                    <path d="M18.7058824,10.3778877 C26.7349494,6.16947773 35.0724954,7.31550255 39.6945083,11.1542548 C44.3165211,14.9930071 42.5078699,21.748091 38.9336512,23.1952705 C35.3594324,24.6424499 31.4297737,24.0190297 28.827091,19.5809839 C26.2244083,15.1429382 26.0361328,13.0977578 18.7058824,10.3778877 Z" id="Path-3" fill="#69CDFF"></path>
                </g>
            </g>
        </g>
    </g>
</svg>