<?xml version="1.0" encoding="UTF-8"?>
<svg width="64px" height="64px" viewBox="0 0 64 64" version="1.1" xmlns="http://www.w3.org/2000/svg" xmlns:xlink="http://www.w3.org/1999/xlink">
    <!-- Generator: Sketch 46.2 (44496) - http://www.bohemiancoding.com/sketch -->
    <title>bill</title>
    <desc>Created with Sketch.</desc>
    <defs></defs>
    <g id="Sticker-size-64*64" stroke="none" stroke-width="1" fill="none" fill-rule="evenodd">
        <g id="bill">
            <g id="money-4" transform="translate(9.333333, 10.666667)">
                <path d="M23.6950488,29.4838219 C18.8396117,30.8730706 13.8184516,32.3035198 8.78075767,32.3035198 C5.98013054,32.3035198 3.40328698,31.8678616 0.950767632,30.9800141 L0.950767632,44.5050664 C3.37842214,45.5408038 5.95526569,46.0505976 8.78075767,46.0505976 C13.4290733,46.0505976 18.2513146,44.6777529 22.9161641,43.3378433 C27.7716012,41.9485946 32.7927613,40.5181454 37.8304552,40.5181454 C40.6310824,40.5181454 43.2079259,40.9538036 45.6604453,41.8416511 L45.6604453,28.3083332 C43.2327908,27.2725959 40.6559472,26.762802 37.8304552,26.762802 C33.1904706,26.762802 28.3598983,28.1521778 23.6950488,29.4838219 Z" id="Shape" fill="#F9FBB1" fill-rule="nonzero"></path>
                <path d="M23.6950488,2.77226188 C18.8396117,4.16151053 13.8184516,5.59195977 8.78075767,5.59195977 C5.98013054,5.59195977 3.40328698,5.15630157 0.950767632,4.26845406 L0.950767632,28.4781304 C3.37842214,29.5138677 5.95526569,30.0236616 8.78075767,30.0236616 L8.78075767,30.0236616 C13.4290733,30.0236616 18.2513146,28.6508169 22.9161641,27.3109072 C27.7716012,25.9216586 32.7927613,24.4912093 37.8304552,24.4912093 C40.6310824,24.4912093 43.2079259,24.9268675 45.6604453,25.814715 L45.6604453,1.59677314 C43.2327908,0.561035819 40.6559472,0.0512419686 37.8304552,0.0512419686 C33.1904706,0.0512419686 28.3598983,1.44061778 23.6950488,2.77226188 Z" id="Shape" stroke="#2B2B2B" stroke-width="1.66666667" fill="#FFFFFF" fill-rule="nonzero"></path>
                <path d="M9.84120441,26.3245291 C8.78948261,26.3245291 7.76851569,26.2331071 6.79362171,26.057921 C6.78590331,25.1135416 6.10276506,24.3061773 5.16622561,24.1538467 L5.16622561,10.6277561 C6.30237489,10.7343758 7.29258694,9.84324733 7.28486853,8.71614183 C8.12154368,8.79990602 8.96605598,8.83795924 9.83348601,8.83795924 C14.8692112,8.83795924 19.6977269,7.4517856 24.3649873,6.12663847 C28.7021374,4.88525553 32.8090416,3.71232125 36.7393723,3.71232125 C37.8064122,3.71232125 38.8120611,3.80374321 39.786955,3.97892936 C39.8022731,4.92330874 40.4778117,5.72301524 41.4143511,5.88300367 L41.4143511,19.4090942 C40.2782019,19.3024746 39.2879898,20.193603 39.2957082,21.3207085 C38.4590331,21.2369443 37.6145208,21.1912333 36.7470908,21.1912333 C31.7113656,21.1912333 26.8828499,22.577407 22.2155895,23.9025541 C17.886039,25.1515948 13.7791349,26.3245291 9.84120441,26.3245291 L9.84120441,26.3245291 Z" id="Shape" fill="#FFC55D" fill-rule="nonzero"></path>
                <path d="M38.3514504,15.2735466 C37.6375573,15.2735466 37.0541645,14.702395 37.0541645,13.9864527 L37.0541645,11.0161816 C37.0541645,10.3078971 37.6298388,9.72908769 38.3514504,9.72908769 C39.0653435,9.72908769 39.6487362,10.3002393 39.6487362,11.0161816 L39.6487362,13.9864527 C39.6487362,14.7022772 39.0730619,15.2735466 38.3514504,15.2735466 Z" id="Shape" fill="#FFFFFF" fill-rule="nonzero"></path>
                <path d="M8.25988126,20.3002227 C7.54598813,20.3002227 6.96259542,19.7290711 6.96259542,19.0131288 L6.96259542,16.0428577 C6.96259542,15.3345731 7.53826972,14.7557638 8.25988126,14.7557638 C8.98149279,14.7557638 9.55716709,15.3269154 9.55716709,16.0428577 L9.55716709,19.0131288 C9.54944869,19.7137556 8.97377439,20.3002227 8.25988126,20.3002227 Z" id="Shape" fill="#FFFFFF" fill-rule="nonzero"></path>
                <path d="M23.5897031,11.3207251 C23.9198134,11.2293032 24.2038507,11.2446187 24.3880237,11.3968315 C24.5952332,11.5491622 24.6413062,11.830968 24.6413062,12.0365496 C24.6413062,12.6001613 25.1019169,13.0571532 25.6699915,13.0571532 C26.2380662,13.0571532 26.6986768,12.6001613 26.6986768,12.0365496 C26.6986768,11.1073679 26.3071756,10.277266 25.6239186,9.76690528 C25.2477354,9.48509945 24.8101612,9.31757107 24.3266327,9.25666237 L24.3266327,8.91394785 C24.3266327,8.3503362 23.8660221,7.89334422 23.2979474,7.89334422 C22.7298728,7.89334422 22.2692621,8.3503362 22.2692621,8.91394785 L22.2692621,9.66794337 C20.8951484,10.3838857 19.9049364,11.8765612 19.9049364,13.3618145 C19.9049364,14.2909962 20.2964377,15.1210982 20.9796947,15.6314589 C21.6858694,16.1570173 22.7606277,16.2559792 23.7047668,15.9893711 C23.6740119,15.9970289 23.7047668,15.9893711 23.7124852,15.9893711 C23.9888041,15.9360024 24.2191688,15.9741734 24.3803053,16.088333 C24.5875148,16.2406637 24.6335878,16.5224695 24.6335878,16.7280511 C24.6335878,17.5658108 23.8736217,18.517848 22.9984733,18.7691405 C22.668363,18.8605625 22.3843257,18.845247 22.2001527,18.6930341 C21.9929432,18.5407035 21.9468702,18.2588976 21.9468702,18.053316 C21.9468702,17.4897044 21.4862595,17.0327124 20.9181849,17.0327124 C20.3501103,17.0327124 19.8894996,17.4897044 19.8894996,18.053316 C19.8894996,18.9824977 20.2810008,19.8125997 20.9642578,20.3229604 C21.3404411,20.6047662 21.7780153,20.7722946 22.2615437,20.8256633 L22.2615437,21.1607201 C22.2615437,21.7243317 22.7221544,22.1813237 23.290229,22.1813237 C23.8583036,22.1813237 24.3189143,21.7243317 24.3189143,21.1607201 L24.3189143,20.4143823 C25.693028,19.69844 26.68324,18.2057645 26.68324,16.7205112 C26.68324,15.7913295 26.2917388,14.9612275 25.6086005,14.4508668 C24.9024258,13.9253084 23.9581679,13.7806355 23.0063104,14.0472436 C23.0370653,14.0395858 23.0063104,14.0472436 22.998592,14.0472436 C22.7222731,14.1006123 22.3691264,14.1081523 22.2078711,13.9938749 C22.0006616,13.8415442 21.9545886,13.5597384 21.9545886,13.3541568 C21.962307,12.5240548 22.7298728,11.5644777 23.5897031,11.3207251 Z" id="Shape" fill="#2B2B2B" fill-rule="nonzero"></path>
                <path d="M0.538461881,35.00566 C3.67642011,36.3290648 9.44205137,38.3645972 15.8029789,37.0690169 C22.1639063,35.7734367 31.7175672,32.3725386 36.7325599,32.4210142 C41.7475527,32.4694898 44.2371923,33.770479 45.9036712,34.3682974" id="Path-2" stroke="#2B2B2B" stroke-width="1.66666667" stroke-linecap="round"></path>
                <path d="M0.538461881,42.1287427 C3.67642011,43.4521475 9.44205137,45.4876798 15.8029789,44.1920996 C22.1639063,42.8965194 31.7175672,39.4956213 36.7325599,39.5440969 C41.7475527,39.5925724 44.2371923,40.8935617 45.9036712,41.49138" id="Path-2-Copy" stroke="#2B2B2B" stroke-width="1.66666667" stroke-linecap="round"></path>
            </g>
            <rect id="Rectangle" x="0" y="0" width="64" height="64"></rect>
        </g>
    </g>
</svg>