<?xml version="1.0" encoding="UTF-8"?>
<svg width="64px" height="64px" viewBox="0 0 64 64" version="1.1" xmlns="http://www.w3.org/2000/svg" xmlns:xlink="http://www.w3.org/1999/xlink">
    <!-- Generator: Sketch 47 (45396) - http://www.bohemiancoding.com/sketch -->
    <title>lemon</title>
    <desc>Created with Sketch.</desc>
    <defs>
        <path d="M35.5830226,8.10638536 C39.5520099,15.3857167 37.9265399,25.6399346 31.1327068,32.7946198 C24.3388737,39.9493051 14.5939447,41.6694211 7.68175219,37.4730029 C5.97737594,39.0352338 3.38135842,38.9687559 1.76377911,37.2569497 C0.0751841303,35.4869753 0.0594028687,32.6201153 1.72432596,30.8252117 C-1.71598905,23.6123583 0.0357309764,13.8317955 6.58495451,6.93471216 C13.1341781,0.0376288152 22.4214505,-1.80713324 29.270518,1.81591296 C29.2941899,1.79098374 29.3099711,1.76605452 29.333643,1.7411253 C31.0301286,-0.0454685745 33.7839588,-0.0454685745 35.4804444,1.7411253 C37.1374768,3.49448023 37.1690394,6.31148174 35.5830226,8.10638536 Z" id="path-1"></path>
    </defs>
    <g id="Sticker-size-64*64" stroke="none" stroke-width="1" fill="none" fill-rule="evenodd">
        <g id="lemon">
            <g id="Layer_1" transform="translate(15.000000, 13.000000)">
                <g id="Shape">
                    <use fill="#FFDC64" fill-rule="evenodd" xlink:href="#path-1"></use>
                    <path stroke="#2B2B2B" stroke-width="1.667" d="M36.5720528,8.19766693 C40.4439001,15.8723275 38.5287714,26.216172 31.7371254,33.3685541 C24.9370929,40.529768 15.0772277,42.5641088 7.75901436,38.482278 C5.7275319,39.9392585 2.93327164,39.708131 1.1607047,37.8322961 C-0.699427382,35.8825176 -0.840310255,32.8179761 0.748263206,30.6958858 C-2.59619462,23.0963467 -0.551183616,13.2394276 5.98053598,6.36077795 C12.5034527,-0.508601269 21.8668125,-2.68302733 29.1117419,0.802261949 C31.151069,-0.95762084 34.1828031,-0.835895826 36.0862225,1.16862628 C37.8992343,3.0870275 38.0674645,6.08048091 36.5720528,8.19766693 Z"></path>
                    <path stroke="#FFFFFF" stroke-width="1.667" d="M29.9517384,2.3007331 C29.9490419,2.30413282 29.947069,2.30659009 29.9401792,2.31517153 C29.9150861,2.34585515 29.9150861,2.34585515 29.8749365,2.38984717 L29.4396121,2.84829374 L28.8807798,2.55268051 C22.259723,-0.949751725 13.3859719,0.982917297 7.18937305,7.50864638 C0.976472806,14.0515427 -0.869427678,23.4511425 2.4766324,30.4663841 L2.72025454,30.9771544 L2.33541026,31.3920435 C0.969217545,32.8648948 0.983274446,35.2313446 2.36959025,36.6844856 C3.66410852,38.0544119 5.73879077,38.1232588 7.11855804,36.8585644 L7.57964384,36.4359333 L8.11430012,36.7605251 C14.7718792,40.8023665 24.0837707,39.0075016 30.5282883,32.2206856 C36.9857353,25.4202535 38.6996193,15.5635348 34.8512308,8.50538796 L34.5715059,7.99235782 L34.9584262,7.5544781 C36.2640678,6.07687657 36.2300429,3.74778832 34.8760258,2.31505952 C33.5127225,0.879344763 31.3205557,0.874569291 29.9517384,2.3007331 Z"></path>
                </g>
                <ellipse id="Oval" fill="#FFC55D" cx="30.8571429" cy="10.3636364" rx="1.71428571" ry="1.72727273"></ellipse>
                <ellipse id="Oval-Copy" fill="#FFC55D" cx="32.5714286" cy="17.2727273" rx="1.71428571" ry="1.72727273"></ellipse>
                <ellipse id="Oval-Copy-2" fill="#FFC55D" cx="30.8571429" cy="22.4545455" rx="1.71428571" ry="1.72727273"></ellipse>
                <ellipse id="Oval-Copy-3" fill="#FFC55D" cx="27.4285714" cy="17.2727273" rx="1.71428571" ry="1.72727273"></ellipse>
                <ellipse id="Oval-Copy-5" fill="#FFC55D" cx="27.4285714" cy="27.6363636" rx="1.71428571" ry="1.72727273"></ellipse>
                <ellipse id="Oval-Copy-6" fill="#FFC55D" cx="25.7142857" cy="22.4545455" rx="1.71428571" ry="1.72727273"></ellipse>
                <ellipse id="Oval-Copy-7" fill="#FFC55D" cx="22.2857143" cy="31.0909091" rx="1.71428571" ry="1.72727273"></ellipse>
                <ellipse id="Oval-Copy-8" fill="#FFC55D" cx="20.5714286" cy="25.9090909" rx="1.71428571" ry="1.72727273"></ellipse>
                <ellipse id="Oval-Copy-9" fill="#FFC55D" cx="15.4285714" cy="32.8181818" rx="1.71428571" ry="1.72727273"></ellipse>
                <ellipse id="Oval-Copy-4" fill="#FFC55D" cx="25.7142857" cy="12.0909091" rx="1.71428571" ry="1.72727273"></ellipse>
            </g>
        </g>
    </g>
</svg>