<?xml version="1.0" encoding="UTF-8"?>
<svg width="64px" height="64px" viewBox="0 0 64 64" version="1.1" xmlns="http://www.w3.org/2000/svg" xmlns:xlink="http://www.w3.org/1999/xlink">
    <!-- Generator: Sketch 46.2 (44496) - http://www.bohemiancoding.com/sketch -->
    <title>camera</title>
    <desc>Created with Sketch.</desc>
    <defs>
        <path d="M5.0224359,15.2413019 L46.2083333,15.2413019 L46.2083333,15.2413019 C47.9342232,15.2413019 49.3333333,16.6404121 49.3333333,18.3663019 L49.3333333,43.5416667 L49.3333333,43.5416667 C49.3333333,45.2675565 47.9342232,46.6666667 46.2083333,46.6666667 L5.0224359,46.6666667 L5.0224359,46.6666667 C3.29654605,46.6666667 1.8974359,45.2675565 1.8974359,43.5416667 L1.8974359,18.3663019 L1.8974359,18.3663019 C1.8974359,16.6404121 3.29654605,15.2413019 5.0224359,15.2413019 Z" id="path-1"></path>
        <ellipse id="path-2" cx="25.6153846" cy="30.9539843" rx="11.0683761" ry="10.9988777"></ellipse>
    </defs>
    <g id="Sticker-size-64*64" stroke="none" stroke-width="1" fill="none" fill-rule="evenodd">
        <g id="camera">
            <rect id="Rectangle" x="0" y="0" width="64" height="64"></rect>
            <g id="Group" transform="translate(8.000000, 6.666667)">
                <g id="Rectangle-29">
                    <use fill="#E9F4F5" fill-rule="evenodd" xlink:href="#path-1"></use>
                    <path stroke="#2B2B2B" stroke-width="1.5625" d="M5.0224359,16.0225519 C3.72801852,16.0225519 2.6786859,17.0718845 2.6786859,18.3663019 L2.6786859,43.5416667 C2.6786859,44.836084 3.72801852,45.8854167 5.0224359,45.8854167 L46.2083333,45.8854167 C47.5027507,45.8854167 48.5520833,44.836084 48.5520833,43.5416667 L48.5520833,18.3663019 C48.5520833,17.0718845 47.5027507,16.0225519 46.2083333,16.0225519 L5.0224359,16.0225519 Z"></path>
                </g>
                <path d="M5.05982906,18.3838384 L46.1709402,18.3838384 L46.1709402,34.0965208 L5.05982906,34.0965208 L5.05982906,18.3838384 Z M6.64102564,19.9551066 L6.64102564,23.0976431 L12.965812,23.0976431 L12.965812,19.9551066 L6.64102564,19.9551066 Z" id="Combined-Shape" fill="#BDCFD1"></path>
                <g id="Oval">
                    <use fill="#FFFFFF" fill-rule="evenodd" xlink:href="#path-2"></use>
                    <ellipse stroke="#2B2B2B" stroke-width="1.5625" cx="25.6153846" cy="30.9539843" rx="10.2871261" ry="10.2176277"></ellipse>
                </g>
                <path d="M18.3291605,27.8995448 C17.9300636,28.8385021 17.7094017,29.8706358 17.7094017,30.9539843 C17.7094017,35.2929217 21.2490308,38.8103255 25.6153846,38.8103255 C29.9817384,38.8103255 33.5213675,35.2929217 33.5213675,30.9539843 C33.5213675,26.6150469 29.9817384,23.0976431 25.6153846,23.0976431 C24.5251908,23.0976431 23.4865354,23.3169195 22.5416451,23.7135104 C23.610975,24.2175255 24.3504274,25.3001674 24.3504274,26.5544332 C24.3504274,28.2900082 22.9345757,29.6969697 21.1880342,29.6969697 C19.9258431,29.6969697 18.8363603,28.9621604 18.3291605,27.8995448 Z" id="Combined-Shape" fill="#94E8F4"></path>
                <path d="M17.7094017,15.2413019 L17.7094017,15.2413019 L17.7094017,15.2413019 C17.7094017,13.5057269 19.1163632,12.0987654 20.8519382,12.0987654 L30.378831,12.0987654 L30.378831,12.0987654 C32.114406,12.0987654 33.5213675,13.5057269 33.5213675,15.2413019 L33.5213675,15.2413019" id="Rectangle-30" fill="#BDCFD1"></path>
                <path d="M31.9588675,15.2413019 C31.9588675,14.3686719 31.2514611,13.6612654 30.378831,13.6612654 L20.8519382,13.6612654 C19.9793081,13.6612654 19.2719017,14.3686719 19.2719017,15.2413019 L17.7094017,15.2413019 C17.7094017,13.5057269 19.1163632,12.0987654 20.8519382,12.0987654 L30.378831,12.0987654 C32.114406,12.0987654 33.5213675,13.5057269 33.5213675,15.2413019 L31.9588675,15.2413019 Z M33.5213675,15.2413019 L31.9588675,15.2413019 C31.9588675,14.3686719 31.2514611,13.6612654 30.378831,13.6612654 L20.8519382,13.6612654 C19.9793081,13.6612654 19.2719017,14.3686719 19.2719017,15.2413019 L17.7094017,15.2413019 C17.7094017,13.5057269 19.1163632,12.0987654 20.8519382,12.0987654 L30.378831,12.0987654 C32.114406,12.0987654 33.5213675,13.5057269 33.5213675,15.2413019 Z" id="Rectangle-30" fill="#2B2B2B" fill-rule="nonzero"></path>
                <rect id="Rectangle-31" fill="#2B2B2B" x="36.6837607" y="12.0987654" width="6.48290598" height="1.57126824"></rect>
                <polygon id="Path-13" fill="#FFC55D" transform="translate(6.372344, 7.720334) rotate(22.000000) translate(-6.372344, -7.720334) " points="6.35247197 1.09870802 2.35910958 9.37338771 6.37234407 9.37338771 6.35247197 14.3419604 10.3855786 6.43122196 6.35247197 6.43122196"></polygon>
            </g>
        </g>
    </g>
</svg>