<?xml version="1.0" encoding="UTF-8"?>
<svg width="64px" height="64px" viewBox="0 0 64 64" version="1.1" xmlns="http://www.w3.org/2000/svg" xmlns:xlink="http://www.w3.org/1999/xlink">
    <!-- Generator: Sketch 46.2 (44496) - http://www.bohemiancoding.com/sketch -->
    <title>target</title>
    <desc>Created with Sketch.</desc>
    <defs>
        <path d="M2.4,1.26666667 L4.35800574,3.38783955 L4.35800574,3.38783955 C4.64219382,3.69570998 4.8,4.09932302 4.8,4.51830639 L4.8,12.4616388 L4.8,12.4616388 C4.8,13.2256927 4.18061191,13.8450808 3.41655797,13.8450808 C3.030442,13.8450808 2.66189478,13.6837193 2.4,13.4 L0.441994259,11.2788271 L0.441994259,11.2788271 C0.157806177,10.9709567 -7.64910532e-16,10.5673436 -4.4408921e-16,10.1483603 L0,2.20502787 L-6.66133815e-16,2.20502787 C-4.20395327e-16,1.44097393 0.619388095,0.821585839 1.38344203,0.821585839 C1.769558,0.821585839 2.13810522,0.982947324 2.4,1.26666667 Z" id="path-1"></path>
        <path d="M5.6,1.26666667 L7.55800574,3.38783955 L7.55800574,3.38783955 C7.84219382,3.69570998 8,4.09932302 8,4.51830639 L8,12.4616388 L8,12.4616388 C8,13.2256927 7.38061191,13.8450808 6.61655797,13.8450808 C6.230442,13.8450808 5.86189478,13.6837193 5.6,13.4 L3.64199426,11.2788271 L3.64199426,11.2788271 C3.35780618,10.9709567 3.2,10.5673436 3.2,10.1483603 L3.2,2.20502787 L3.2,2.20502787 C3.2,1.44097393 3.81938809,0.821585839 4.58344203,0.821585839 C4.969558,0.821585839 5.33810522,0.982947324 5.6,1.26666667 Z" id="path-2"></path>
    </defs>
    <g id="Sticker-size-64*64" stroke="none" stroke-width="1" fill="none" fill-rule="evenodd">
        <g id="target">
            <rect id="Rectangle" x="0" y="0" width="64" height="64"></rect>
            <circle id="Oval-34" stroke="#2B2B2B" stroke-width="1.66666667" fill="#ED6969" cx="32.6666667" cy="32.6666667" r="22"></circle>
            <circle id="Oval-34-Copy" fill="#FFFFFF" cx="32.6666667" cy="32.6666667" r="16.6666667"></circle>
            <circle id="Oval-34-Copy" fill="#ED6969" cx="32.6666667" cy="32.6666667" r="10"></circle>
            <circle id="Oval-34-Copy" fill="#FFFFFF" cx="32.6666667" cy="32.6666667" r="5.33333333"></circle>
            <g id="Group" transform="translate(32.000000, 2.000000)">
                <path d="M0,30.6666667 L18.6666667,12" id="Path-38" stroke="#2B2B2B" stroke-width="1.66666667" stroke-linecap="round"></path>
                <g id="Group-16" transform="translate(21.333333, 8.666667) rotate(-315.000000) translate(-21.333333, -8.666667) translate(17.333333, 1.333333)">
                    <g id="Rectangle-68">
                        <use fill="#FFC55D" fill-rule="evenodd" xlink:href="#path-1"></use>
                        <path stroke="#2B2B2B" stroke-width="1.66666667" d="M1.7876638,1.83190009 C1.68352456,1.71908258 1.53697629,1.65491917 1.38344203,1.65491917 C1.07962539,1.65491917 0.833333333,1.90121123 0.833333333,2.20502787 L0.833333333,10.1483603 C0.833333333,10.357852 0.912236422,10.5596585 1.05433046,10.7135937 L3.0123362,12.8347666 C3.11647544,12.9475841 3.26302371,13.0117475 3.41655797,13.0117475 C3.72037461,13.0117475 3.96666667,12.7654554 3.96666667,12.4616388 L3.96666667,4.51830639 C3.96666667,4.30881471 3.88776358,4.10700818 3.74566954,3.95307297 L1.7876638,1.83190009 Z"></path>
                    </g>
                    <g id="Rectangle-68-Copy" transform="translate(5.600000, 7.333333) scale(-1, 1) translate(-5.600000, -7.333333) ">
                        <use fill="#FFC55D" fill-rule="evenodd" xlink:href="#path-2"></use>
                        <path stroke="#2B2B2B" stroke-width="1.66666667" d="M4.9876638,1.83190009 C4.88352456,1.71908258 4.73697629,1.65491917 4.58344203,1.65491917 C4.27962539,1.65491917 4.03333333,1.90121123 4.03333333,2.20502787 L4.03333333,10.1483603 C4.03333333,10.357852 4.11223642,10.5596585 4.25433046,10.7135937 L6.2123362,12.8347666 C6.31647544,12.9475841 6.46302371,13.0117475 6.61655797,13.0117475 C6.92037461,13.0117475 7.16666667,12.7654554 7.16666667,12.4616388 L7.16666667,4.51830639 C7.16666667,4.30881471 7.08776358,4.10700818 6.94566954,3.95307297 L4.9876638,1.83190009 Z"></path>
                    </g>
                </g>
            </g>
        </g>
    </g>
</svg>