<?xml version="1.0" encoding="UTF-8"?>
<svg width="64px" height="64px" viewBox="0 0 64 64" version="1.1" xmlns="http://www.w3.org/2000/svg" xmlns:xlink="http://www.w3.org/1999/xlink">
    <!-- Generator: Sketch 46.2 (44496) - http://www.bohemiancoding.com/sketch -->
    <title>map</title>
    <desc>Created with Sketch.</desc>
    <defs>
        <polygon id="path-1" points="1.58837891 3.22916667 18.8058268 7.93269231 18.8058268 42.8365385 -1.77635684e-14 37.7919922 -1.77635684e-14 3.64469401"></polygon>
        <polygon id="path-2" points="34.3740234 5.04882812 53.125 0 53.125 34.9038462 35.8588867 39.6805013 34.3740234 38.6508789"></polygon>
    </defs>
    <g id="Sticker-size-64*64" stroke="none" stroke-width="1" fill="none" fill-rule="evenodd">
        <g id="map">
            <rect id="Rectangle" x="0" y="0" width="64" height="64"></rect>
            <g id="Group" transform="translate(5.333333, 12.000000)">
                <g id="Rectangle-37" transform="translate(9.402913, 23.032853) scale(-1, 1) translate(-9.402913, -23.032853) ">
                    <use fill="#FFF9ED" fill-rule="evenodd" xlink:href="#path-1"></use>
                    <path stroke="#2B2B2B" stroke-width="1.5625" d="M1.58400944,4.03785057 L0.78125,4.24785619 L0.78125,37.1926885 L18.0245768,41.8181039 L18.0245768,8.52914514 L1.58400944,4.03785057 Z"></path>
                </g>
                <polygon id="Rectangle-37-Copy" fill="#FFF9ED" points="17.1875 3.17307692 35.9375 4.75961538 35.9375 39.6634615 17.1875 38.0769231"></polygon>
                <g id="Rectangle-37-Copy-2">
                    <use fill="#FFF9ED" fill-rule="evenodd" xlink:href="#path-2"></use>
                    <path stroke="#2B2B2B" stroke-width="1.5625" d="M35.1552734,5.64754576 L35.1552734,38.2419121 L36.0033104,38.8299514 L52.34375,34.309383 L52.34375,1.0194314 L35.1552734,5.64754576 Z"></path>
                </g>
                <path d="M3.12438965,19.514578 L3.12438965,38.7204472 L17.0030212,34.8701477 L29.6681976,35.9474135 C29.6681976,35.9474135 28.8806152,29.6118727 24.072876,27.8183406 C19.2651367,26.0248084 19.8846436,25.5767353 15.7843018,19.3737417 C11.68396,13.1707482 3.12438965,19.514578 3.12438965,19.514578 Z" id="Path-15" fill="#8BCB76"></path>
                <path d="M11.6786957,7.98622249 L17.5453949,6.35637958 L36.1663818,7.98622249 L40.0053406,6.9283236 C40.0053406,6.9283236 37.355957,12.4722994 33.5852051,12.4722994 C29.8144531,12.4722994 26.2467957,11.257296 22.1942139,12.9600361 C18.1416321,14.6627761 11.6786957,7.98622249 11.6786957,7.98622249 Z" id="Path-16" fill="#FFC55D"></path>
                <path d="M40.4280853,35.1289673 L50.0107574,32.4739943 L50.0107574,23.7961402 C50.0107574,23.7961402 45.1321411,24.3028564 43.8912964,28.8331674 C42.6504517,33.3634784 40.4280853,35.1289673 40.4280853,35.1289673 Z" id="Path-17" fill="#FFC55D"></path>
                <polygon id="Star" fill="#ED6969" points="43.4375 17.1346154 41.2333053 18.311257 41.654269 15.81909 39.8710381 14.0541276 42.3354027 13.6905253 43.4375 11.4230769 44.5395973 13.6905253 47.0039619 14.0541276 45.220731 15.81909 45.6416947 18.311257"></polygon>
                <path d="M17.96875,4.02322449 L17.96875,37.3589871 L35.15625,38.813314 L35.15625,5.47755141 L17.96875,4.02322449 Z" id="Rectangle-37-Copy" stroke="#2B2B2B" stroke-width="1.5625"></path>
                <path d="M17.96875,4.02322449 L17.96875,37.3589871 L35.15625,38.813314 L35.15625,5.47755141 L17.96875,4.02322449 Z" id="Rectangle-37-Copy" stroke="#2B2B2B" stroke-width="1.5625"></path>
                <path d="M5.5078125,24.1085675 C7.5793457,22.7482347 13.1256104,16.7627704 18.6126709,16.7627704 C24.0997314,16.7627704 30.3436279,27.9385705 35.244751,27.9385705 C40.145874,27.9385705 41.4782715,21.8545673 42.6916504,20.2345628" id="Path-14" stroke="#2B2B2B" stroke-width="1.5625" stroke-linecap="round" stroke-dasharray="0.78125,2.5"></path>
            </g>
        </g>
    </g>
</svg>