<?xml version="1.0" encoding="UTF-8"?>
<svg width="64px" height="64px" viewBox="0 0 64 64" version="1.1" xmlns="http://www.w3.org/2000/svg" xmlns:xlink="http://www.w3.org/1999/xlink">
    <!-- Generator: Sketch 46.2 (44496) - http://www.bohemiancoding.com/sketch -->
    <title>time</title>
    <desc>Created with Sketch.</desc>
    <defs>
        <circle id="path-1" cx="32.6666667" cy="32.6666667" r="22"></circle>
    </defs>
    <g id="Sticker-size-64*64" stroke="none" stroke-width="1" fill="none" fill-rule="evenodd">
        <g id="time">
            <rect id="Rectangle" x="0" y="0" width="64" height="64"></rect>
            <g id="Oval-37">
                <use fill="#94E8F4" fill-rule="evenodd" xlink:href="#path-1"></use>
                <circle stroke="#2B2B2B" stroke-width="1.66666667" cx="32.6666667" cy="32.6666667" r="22.8333333"></circle>
            </g>
            <circle id="Oval-37" fill="#FFFFFF" cx="32.6666667" cy="32.6666667" r="16.6666667"></circle>
            <g id="Group-2" transform="translate(26.000000, 22.133334)">
                <circle id="Oval-38" fill="#FFC55D" cx="6.66666667" cy="10.6666667" r="6.66666667"></circle>
                <g id="Group" transform="translate(2.666667, 0.000000)" fill="#2B2B2B">
                    <rect id="Rectangle" x="3.33333333" y="0" width="1.66666667" height="14.6666667" rx="0.833333333"></rect>
                    <rect id="Rectangle-2" x="0" y="9.77777778" width="13.3333333" height="1.62962963" rx="0.814814815"></rect>
                </g>
            </g>
            <path d="M31.8333333,16 L33.5,16 L33.5,18.5 C33.5,18.9602373 33.126904,19.3333333 32.6666667,19.3333333 C32.2064294,19.3333333 31.8333333,18.9602373 31.8333333,18.5 L31.8333333,16 Z M49.3333333,31.8333333 L49.3333333,33.5 L46.8333333,33.5 C46.373096,33.5 46,33.126904 46,32.6666667 C46,32.2064294 46.373096,31.8333333 46.8333333,31.8333333 L49.3333333,31.8333333 Z M33.5,49.3333333 L31.8333333,49.3333333 L31.8333333,46.8333333 C31.8333333,46.373096 32.2064294,46 32.6666667,46 C33.126904,46 33.5,46.373096 33.5,46.8333333 L33.5,49.3333333 Z M16,33.5 L16,31.8333333 L18.5,31.8333333 L18.5,31.8333333 C18.9602373,31.8333333 19.3333333,32.2064294 19.3333333,32.6666667 C19.3333333,33.126904 18.9602373,33.5 18.5,33.5 L16,33.5 Z" id="Rectangle-84" fill="#2B2B2B"></path>
        </g>
    </g>
</svg>