<?xml version="1.0" encoding="UTF-8"?>
<svg width="64px" height="64px" viewBox="0 0 64 64" version="1.1" xmlns="http://www.w3.org/2000/svg" xmlns:xlink="http://www.w3.org/1999/xlink">
    <!-- Generator: Sketch 46.2 (44496) - http://www.bohemiancoding.com/sketch -->
    <title>USdollor</title>
    <desc>Created with Sketch.</desc>
    <defs>
        <path d="M20.7037435,1.08215215 C10.1018522,1.08215215 1.14258954,5.67659133 1.14258954,11.1286219 C1.14258954,16.5806525 10.1017133,21.1750917 20.7037435,21.1750917 C31.3057737,21.1750917 40.2648975,16.5806525 40.2648975,11.1286219 C40.2648975,5.67659133 31.3056348,1.08215215 20.7037435,1.08215215 Z" id="path-1"></path>
        <path d="M1.14258954,15.8121833 L1.14258954,18.6644915 C1.14258954,24.1163825 10.1017133,28.7109613 20.7037435,28.7109613 C31.3057737,28.7109613 40.2648975,24.1165221 40.2648975,18.6644915 L40.2648975,15.8121833 C36.3868273,19.6935454 29.1601776,22.2660404 20.7037435,22.2660404 C12.2473094,22.2571042 5.01177232,19.6935454 1.14258954,15.8121833 Z" id="path-2"></path>
        <path d="M1.14258954,24.3011487 L1.14258954,27.018158 C1.14258954,32.470049 10.1017133,37.0646278 20.7037435,37.0646278 C31.3057737,37.0646278 40.2648975,32.4701886 40.2648975,27.018158 L40.2648975,24.3011487 C36.3868273,28.1825108 29.1601776,30.7550058 20.7037435,30.7550058 C12.2473094,30.7550058 5.01177232,28.1825108 1.14258954,24.3011487 Z" id="path-3"></path>
        <path d="M1.14258954,32.3362069 L1.14258954,35.1975909 C1.14258954,40.6494819 10.1017133,45.2440607 20.7037435,45.2440607 C31.3057737,45.2440607 40.2648975,40.6496215 40.2648975,35.1975909 L40.2648975,32.3362069 C36.3868273,36.217569 29.1601776,38.790064 20.7037435,38.790064 C12.2473094,38.790064 5.01177232,36.2266448 1.14258954,32.3362069 Z" id="path-4"></path>
    </defs>
    <g id="Sticker-size-64*64" stroke="none" stroke-width="1" fill="none" fill-rule="evenodd">
        <g id="USdollor">
            <rect id="Rectangle" x="0" y="0" width="64" height="64"></rect>
            <g id="coins" transform="translate(12.000000, 9.333333)" fill-rule="nonzero">
                <g id="Shape">
                    <use fill="#FFC55D" fill-rule="evenodd" xlink:href="#path-1"></use>
                    <path stroke="#2B2B2B" stroke-width="1.66666667" d="M20.7037435,0.248818812 C31.7104953,0.248818812 41.0982308,5.06799738 41.0982308,11.1286219 C41.0982308,17.1892697 31.7105864,22.008425 20.7037435,22.008425 C9.69690062,22.008425 0.309256208,17.1892697 0.309256208,11.1286219 C0.309256208,5.06799738 9.69699169,0.248818812 20.7037435,0.248818812 Z"></path>
                </g>
                <g id="Shape">
                    <use fill="#FFF9ED" fill-rule="evenodd" xlink:href="#path-2"></use>
                    <path stroke="#2B2B2B" stroke-width="1.66666667" d="M1.73277043,15.2238543 C5.52551827,19.0285409 12.6445727,21.4241902 20.7037435,21.432707 C28.7514975,21.432707 35.8665745,19.0352283 39.6753919,15.2231777 L41.0982308,13.7991309 L41.0982308,18.6644915 C41.0982308,24.7251394 31.7105864,29.5442946 20.7037435,29.5442946 C9.69699424,29.5442946 0.309256208,24.7250453 0.309256208,18.6644915 L0.309256208,13.7958592 L1.73277043,15.2238543 Z"></path>
                </g>
                <g id="Shape">
                    <use fill="#F9FBB1" fill-rule="evenodd" xlink:href="#path-3"></use>
                    <path stroke="#2B2B2B" stroke-width="1.66666667" d="M1.73277043,23.7128197 C5.53046829,27.5224719 12.6530174,29.9216724 20.7037435,29.9216724 C28.7514975,29.9216724 35.8665745,27.5241937 39.6753919,23.7121431 L41.0982308,22.2880963 L41.0982308,27.018158 C41.0982308,33.0788058 31.7105864,37.8979611 20.7037435,37.8979611 C9.69699424,37.8979611 0.309256208,33.0787118 0.309256208,27.018158 L0.309256208,22.2848246 L1.73277043,23.7128197 Z"></path>
                </g>
                <g id="Shape">
                    <use fill="#FFF9ED" fill-rule="evenodd" xlink:href="#path-4"></use>
                    <path stroke="#2B2B2B" stroke-width="1.66666667" d="M1.73345706,31.7485675 C5.52552134,35.5614633 12.643551,37.9567307 20.7037435,37.9567307 C28.7514975,37.9567307 35.8665745,35.5592519 39.6753919,31.7472013 L41.0982308,30.3231546 L41.0982308,35.1975909 C41.0982308,41.2582388 31.7105864,46.0773941 20.7037435,46.0773941 C9.69699424,46.0773941 0.309256208,41.2581447 0.309256208,35.1975909 L0.309256208,30.3165429 L1.73345706,31.7485675 Z"></path>
                </g>
                <path d="M20.7037435,6.49801924 C22.0951662,6.49801924 23.2352441,7.29235945 23.2352441,8.27617402 C23.2352441,8.87196408 23.9084594,9.34125173 24.7523393,9.34125173 C25.5871929,9.34125173 26.2694344,8.8628883 26.2694344,8.27617402 C26.2694344,6.5069554 24.6086145,5.01768968 22.3195713,4.53025048 L22.3195713,3.46517276 C22.3195713,2.86044655 21.6194163,2.36393156 20.7665103,2.36393156 C19.9137431,2.36393156 19.2134492,2.86044655 19.2134492,3.46517276 L19.2134492,4.51223854 C16.8884402,4.97259004 15.1647146,6.48908309 15.1647146,8.27631365 C15.1647146,10.4336964 17.651362,12.1938393 20.7215182,12.1938393 L20.7305444,12.1938393 C22.0322606,12.2660266 23.2531577,13.0242033 23.2531577,13.9630579 C23.2531577,14.9468725 22.1130798,15.7412127 20.721657,15.7412127 C19.3302343,15.7412127 18.1901564,14.9468725 18.1901564,13.9630579 C18.1901564,13.3672678 17.5169411,12.8979802 16.6730613,12.8979802 C15.8382076,12.8979802 15.1559661,13.3763436 15.1559661,13.9630579 C15.1559661,15.7502884 16.8705266,17.2667815 19.2047007,17.727133 L19.2047007,18.765123 C19.2047007,19.3698492 19.9048558,19.8663642 20.7577618,19.8663642 C21.6195552,19.8663642 22.3108229,19.3698492 22.3108229,18.765123 L22.3108229,17.7089814 C24.6000049,17.2215422 26.2606859,15.7232007 26.2606859,13.9630579 C26.2606859,11.8056751 23.7740386,10.0455323 20.7038824,10.0455323 L20.6948562,10.0455323 C19.3931399,9.97334492 18.1722429,9.2151682 18.1722429,8.27631365 C18.172104,7.29235945 19.3121819,6.49801924 20.7037435,6.49801924 Z" id="Shape" fill="#2B2B2B"></path>
                <path d="M8.93469569,9.60305308 L6.94185062,9.60305308 C6.10699698,9.60305308 5.42475548,10.2799667 5.42475548,11.1284823 C5.42475548,11.9679221 6.09797079,12.6539115 6.94185062,12.6539115 L8.93483455,12.6539115 C9.76968819,12.6539115 10.4519297,11.9769979 10.4519297,11.1284823 C10.4429035,10.2890424 9.76954932,9.60305308 8.93469569,9.60305308 Z" id="Shape" fill="#2B2B2B"></path>
                <path d="M34.4745237,9.60305308 L32.4815398,9.60305308 C31.6466861,9.60305308 30.9644446,10.2799667 30.9644446,11.1284823 C30.9644446,11.9679221 31.6376599,12.6539115 32.4815398,12.6539115 L34.4745237,12.6539115 C35.3093773,12.6539115 35.9916189,11.9769979 35.9916189,11.1284823 C35.9827315,10.2890424 35.3093773,9.60305308 34.4745237,9.60305308 Z" id="Shape" fill="#2B2B2B"></path>
            </g>
        </g>
    </g>
</svg>