<?xml version="1.0" encoding="UTF-8"?>
<svg width="64px" height="64px" viewBox="0 0 64 64" version="1.1" xmlns="http://www.w3.org/2000/svg" xmlns:xlink="http://www.w3.org/1999/xlink">
    <!-- Generator: Sketch 47 (45396) - http://www.bohemiancoding.com/sketch -->
    <title>cool</title>
    <desc>Created with Sketch.</desc>
    <defs></defs>
    <g id="Sticker-size-64*64" stroke="none" stroke-width="1" fill="none" fill-rule="evenodd">
        <g id="cool">
            <circle id="Oval-17" fill="#FBDC67" cx="32" cy="32" r="25"></circle>
            <path d="M7.32825656,36.0615544 C9.26843591,47.937035 19.5758335,57 32,57 C45.8071187,57 57,45.8071187 57,32 C57,29.1793298 56.5328672,26.4677644 55.6717434,23.9384456 C55.8877077,25.2603228 56,26.6170477 56,28 C56,41.8071187 44.8071187,53 31,53 C20.0135514,53 10.6823147,45.9131959 7.32825656,36.0615544 Z" id="Combined-Shape" fill="#F2CC5B"></path>
            <path d="M25.1857967,51.3647905 C36.8007506,52.2055101 45.0629399,43.0082291 44.370011,35.1303068" id="Oval-21" stroke="#4C4023" stroke-width="3" stroke-linecap="round" transform="translate(34.798176, 43.274386) rotate(-335.000000) translate(-34.798176, -43.274386) "></path>
            <path d="M38.5368265,22.0582112 C41.0054373,22.0582112 49.6886586,21.9272361 51.1847538,22.0582112 C52.6808489,22.1891862 54.5098859,22.1565759 54.8101574,23.7905242 C55.1104288,25.4244725 54.0356066,32.2910243 52.0826919,33.450118 C50.1297771,34.6092118 48.9032374,35.0170517 44.7145372,35.0170517 C40.5258371,35.0170517 37.4536634,34.2353106 36.631656,32.6608989 C35.8096486,31.0864872 35.1912735,26.442059 35.0164028,24.9171173 C34.8415321,23.3921756 36.0682157,22.0582112 38.5368265,22.0582112 Z" id="Rectangle" fill="#2B2B2B"></path>
            <path d="M12.5368265,22.0582112 C15.0054373,22.0582112 23.6886586,21.9272361 25.1847538,22.0582112 C26.6808489,22.1891862 28.5098859,22.1565759 28.8101574,23.7905242 C29.1104288,25.4244725 28.0356066,32.2910243 26.0826919,33.450118 C24.1297771,34.6092118 22.9032374,35.0170517 18.7145372,35.0170517 C14.5258371,35.0170517 11.4536634,34.2353106 10.631656,32.6608989 C9.8096486,31.0864872 9.19127353,26.442059 9.01640282,24.9171173 C8.8415321,23.3921756 10.0682157,22.0582112 12.5368265,22.0582112 Z" id="Rectangle-Copy" fill="#2B2B2B" transform="translate(18.930000, 28.508526) scale(-1, 1) translate(-18.930000, -28.508526) "></path>
            <path d="M28.5129585,25.5574915 C27.9929552,25.7561965 27.523146,25.9966016 27.1277892,26.2734423 L27.6371362,28.6852821 C29.647896,27.2772877 34.1341947,26.9521165 36.2707848,28.6657556 L36.9606934,26.2929688 C36.6344203,26.0312835 36.2671888,25.8094953 35.8699808,25.625221 C36.2921016,25.4421595 36.6797252,25.2161429 37.0195312,24.9436035 L36.2707848,23.5183178 C34.1341947,25.2319569 29.647896,24.9067857 27.6371362,23.4987913 L27,24.7843922 C27.4234834,25.0809279 27.9384726,25.3414856 28.5129585,25.5574915 Z" id="Combined-Shape" fill="#2B2B2B" fill-rule="nonzero"></path>
        </g>
    </g>
</svg>