<?xml version="1.0" encoding="UTF-8"?>
<svg width="64px" height="64px" viewBox="0 0 64 64" version="1.1" xmlns="http://www.w3.org/2000/svg" xmlns:xlink="http://www.w3.org/1999/xlink">
    <!-- Generator: Sketch 46.2 (44496) - http://www.bohemiancoding.com/sketch -->
    <title>drcap</title>
    <desc>Created with Sketch.</desc>
    <defs>
        <path d="M20.6906207,24.599728 L7.24748372,19.5276136 L7.24748372,31.0873634 C7.24748372,31.4412437 7.36241862,31.7951239 7.70712457,32.0310103 C11.3838563,34.9799447 17.8182357,36.9852322 23.3334321,36.9852322 C28.8486285,36.9852322 35.1680729,34.9799447 38.9597396,32.1490042 C39.3044455,31.9131178 39.4193804,31.5592376 39.4193804,31.2053573 L39.4193804,19.7635 L27.2401324,24.599728 C25.2866341,25.425381 22.8736925,25.425381 20.6906207,24.599728 Z" id="path-1"></path>
        <path d="M46.3131044,13.791564 C46.3131044,13.0838035 46.6663135,9.46241848 45.9769016,9.22643074 L25.2866341,4.82686832 C24.4823861,4.47298808 23.5631044,4.35499421 22.7588563,4.35499421 C21.8396734,4.35499421 21.0353266,4.47298808 20.1161437,4.82686832 L0.753851997,9.22643074 C-0.165330946,9.58031098 0.353463542,13.4376838 0.353463542,13.6736715 C0.353463542,13.9096592 0.468398438,14.8532047 1.38758138,15.207085 L21.3800326,22.7563611 C22.9886274,23.3461277 24.8269933,23.3461277 26.3206532,22.7563611 L45.1640516,15.3250788 C46.1982682,14.9711986 46.3131044,14.0275517 46.3131044,13.791564 Z" id="path-2"></path>
        <path d="M46.3131044,9.85505607 C46.3131044,9.14729559 45.9683984,8.67552286 45.2789865,8.43953512 L25.2866341,0.890360379 C24.4823861,0.536480142 23.5631044,0.418486273 22.7588563,0.418486273 C21.8396734,0.418486273 21.0353266,0.536480142 20.1161437,0.890360379 L1.38758138,8.32164262 C0.468398438,8.67552286 0.353463542,9.50117583 0.353463542,9.73716357 C0.353463542,9.9731513 0.468398438,10.9166968 1.38758138,11.270577 L21.3800326,18.8198531 C22.9886274,19.4096197 24.8269933,19.4096197 26.3206532,18.8198531 L45.1640516,11.3885709 C46.1982682,11.0346906 46.3131044,10.0910438 46.3131044,9.85505607 Z" id="path-3"></path>
    </defs>
    <g id="Sticker-size-64*64" stroke="none" stroke-width="1" fill="none" fill-rule="evenodd">
        <g id="drcap">
            <g id="hat" transform="translate(9.333333, 12.000000)" fill-rule="nonzero">
                <g id="Shape">
                    <use fill="#07EBF5" fill-rule="evenodd" xlink:href="#path-1"></use>
                    <path stroke="#2B2B2B" stroke-width="1.66666667" d="M20.9847961,23.8200452 L20.9854139,23.8202786 C22.9732965,24.5721097 25.1649339,24.5721097 26.9325857,23.8252221 L40.2527138,18.5359647 L40.2527138,31.2053573 C40.2527138,31.8633061 39.9917905,32.4525321 39.4582947,32.8167521 C35.4775907,35.788832 28.9667483,37.8185656 23.3334321,37.8185656 C17.5982634,37.8185656 10.9931677,35.7348487 7.23650717,32.7187339 C6.67507363,32.3345382 6.41415039,31.7453122 6.41415039,31.0873634 L6.41415039,18.3225202 L20.9847961,23.8200452 Z"></path>
                </g>
                <g id="Shape">
                    <use fill="#07EBF5" fill-rule="evenodd" xlink:href="#path-2"></use>
                    <path stroke="#2B2B2B" stroke-width="1.66666667" d="M19.8742766,4.02725087 C20.8249341,3.66866742 21.7048217,3.52166088 22.7588563,3.52166088 C23.7522411,3.52166088 24.7105543,3.68019668 25.5402027,4.02882212 L46.1502258,8.41132145 L46.2467809,8.43800851 C47.1350711,8.74207289 47.2616134,9.62325416 47.2349333,11.5740672 C47.2296533,11.9601339 47.2149872,12.3534825 47.1906215,12.8384572 C47.1845127,12.9600464 47.1633712,13.3604127 47.1595389,13.4372592 C47.1505845,13.6168205 47.1464377,13.7282965 47.1464377,13.791564 C47.1464377,14.7065933 46.638992,15.7011626 45.4697781,16.1003051 L26.626699,23.5314613 C24.9394788,24.1976546 22.8903012,24.1976546 21.085649,23.5359653 L1.08817543,15.9847742 C-0.018940111,15.5585409 -0.479869792,14.5649365 -0.479869792,13.6736715 C-0.479869792,13.6886716 -0.527484589,13.1943799 -0.549942983,12.9240859 C-0.593261569,12.4027328 -0.620069563,11.9162227 -0.624962213,11.4514957 C-0.642569261,9.77909515 -0.445050033,8.79504243 0.454446044,8.44874152 L0.569205992,8.41381134 L19.8742766,4.02725087 Z"></path>
                </g>
                <g id="Shape">
                    <use fill="#07EBF5" fill-rule="evenodd" xlink:href="#path-3"></use>
                    <path stroke="#2B2B2B" stroke-width="1.66666667" d="M47.1464377,9.85505607 C47.1464377,10.7700854 46.638992,11.7646546 45.4697781,12.1637972 L26.626699,19.5949534 C24.9394788,20.2611466 22.8903012,20.2611466 21.085649,19.5994574 L1.08817543,12.0482662 C-0.018940111,11.622033 -0.479869792,10.6284286 -0.479869792,9.73716357 C-0.479869792,8.88825088 -0.00677604218,7.96550353 1.08023466,7.54705729 L19.8167377,0.112671161 C20.7895555,-0.261858202 21.683589,-0.41484706 22.7588563,-0.41484706 C23.7851617,-0.41484706 24.7740323,-0.245629463 25.5810154,0.110755296 L45.5488658,7.65111288 C46.5720654,8.00135714 47.1464377,8.78754118 47.1464377,9.85505607 Z"></path>
                </g>
                <ellipse id="Oval" fill="#FFDC64" cx="35.9894488" cy="32.5050017" rx="1.14895399" ry="1.17953321"></ellipse>
                <path d="M36.1293595,39.9259148 C36.5890004,39.9259148 37.0485425,39.4540407 37.0485425,38.9822679 L37.0485425,38.7463816 L36.1293595,35.2076806 L35.6697187,35.2076806 L34.7505358,38.7462802 L34.7505358,38.9821666 C34.7505358,39.4540407 35.2101766,39.9258134 35.6697187,39.9258134 L36.1293595,39.9258134 L36.1293595,39.9259148 Z" id="Shape" fill="#FFDC64"></path>
                <path d="M38.7916365,37.8886801 L38.013868,34.5426388 C38.5972153,34.0505938 38.8888889,33.2633049 38.8888889,32.3775732 C38.8888889,31.0982393 38.1111204,30.0157065 36.9444259,29.6220198 L36.9443423,16.5684654 L36.9443423,15.8796193 C36.9443423,15.0923304 37.2602234,15.2429635 36.5796238,14.8493614 L26.7406545,10.2550095 C26.7406545,10.1565667 26.8379069,10.0582084 26.8379069,9.9597656 C26.8379069,8.87723279 25.2823699,7.99150106 23.4351593,7.99150106 C21.5879486,7.99150106 19.9351593,8.87723279 19.9351593,9.9597656 C19.9351593,11.0422984 21.4906963,11.9280301 23.3379069,11.9280301 C23.9212541,11.9280301 24.5046014,11.8295873 24.9906963,11.7312291 L35.218508,16.4240237 C35.607434,16.6208248 34.9998793,16.076505 34.9998793,16.4701917 L34.9999629,29.7206317 C33.8332683,30.1143185 33.0554999,31.1968513 33.0554999,32.4761852 C33.0554999,33.3619169 33.4444259,34.050763 33.9305207,34.6412508 L33.1527522,37.9872921 C33.0554999,38.1840932 33.0554999,38.3809788 33.0554999,38.5777799 C33.0554999,40.0539994 34.2221944,41.3333333 35.7777314,41.3333333 L36.1666574,41.3333333 C37.6250255,41.3333333 38.8888889,40.1523577 38.8888889,38.5777799 C38.8888053,38.3807251 38.8888053,38.183924 38.7916365,37.8886801 Z M35.9721526,31.4919261 C36.5554999,31.4919261 36.9443423,31.8856128 36.9443423,32.476016 C36.9443423,33.0665039 36.5554163,33.460106 35.9721526,33.460106 C35.3888053,33.460106 34.9999629,33.0664193 34.9999629,32.476016 C34.9999629,31.8855282 35.3888889,31.4919261 35.9721526,31.4919261 Z M36.1666574,39.3648996 L35.7777314,39.3648996 C35.3888053,39.3648996 34.9999629,38.9712129 34.9999629,38.5776107 L34.9999629,38.3808097 L35.7777314,35.4284551 L36.1666574,35.4284551 L36.9444259,38.3808097 L36.9444259,38.5776107 C36.9444259,38.9712129 36.6527522,39.3648996 36.1666574,39.3648996 Z" id="Shape" fill="#2B2B2B"></path>
            </g>
            <rect id="Rectangle" x="0" y="0" width="64" height="64"></rect>
        </g>
    </g>
</svg>