<?xml version="1.0" encoding="UTF-8"?>
<svg width="64px" height="64px" viewBox="0 0 64 64" version="1.1" xmlns="http://www.w3.org/2000/svg" xmlns:xlink="http://www.w3.org/1999/xlink">
    <!-- Generator: Sketch 46.2 (44496) - http://www.bohemiancoding.com/sketch -->
    <title>earphone</title>
    <desc>Created with Sketch.</desc>
    <defs>
        <rect id="path-1" x="9.17905405" y="23.8532432" width="5.00675676" height="19.6054054" rx="2.34375"></rect>
        <rect id="path-2" x="37.5506757" y="23.8532432" width="5.00675676" height="19.6054054" rx="2.34375"></rect>
    </defs>
    <g id="Sticker-size-64*64" stroke="none" stroke-width="1" fill="none" fill-rule="evenodd">
        <g id="earphone">
            <rect id="Rectangle" x="0" y="0" width="64" height="64"></rect>
            <g id="Group" transform="translate(6.666667, 9.333333)">
                <g id="Rectangle-19">
                    <use fill="#ED6969" fill-rule="evenodd" xlink:href="#path-1"></use>
                    <rect stroke="#2B2B2B" stroke-width="1.5625" x="9.96030405" y="24.6344932" width="3.44425676" height="18.0429054" rx="1.72212838"></rect>
                </g>
                <path d="M9.17905405,41.007973 L9.17905405,26.3039189 C5.03132095,26.3039189 1.66891892,29.5955335 1.66891892,33.6559459 C1.66891892,37.7163584 5.03132095,41.007973 9.17905405,41.007973 Z M10.847973,24.6701351 L10.847973,42.6417568 L9.17905405,42.6417568 C4.10960248,42.6417568 0,38.6186722 0,33.6559459 C0,28.6932197 4.10960248,24.6701351 9.17905405,24.6701351 L10.847973,24.6701351 Z" id="Oval-6" fill="#2B2B2B" fill-rule="nonzero"></path>
                <path d="M9.17905405,41.007973 C9.17905405,38.7128578 9.17905405,30.5239952 9.17905405,26.3039189 C5.03132095,26.3039189 1.66891892,29.5955335 1.66891892,33.6559459 C1.66891892,37.7163584 5.03132095,41.007973 9.17905405,41.007973 Z" id="Oval-6" fill="#BDCFD1"></path>
                <g id="Rectangle-19">
                    <use fill="#ED6969" fill-rule="evenodd" xlink:href="#path-2"></use>
                    <rect stroke="#2B2B2B" stroke-width="1.5625" x="38.3319257" y="24.6344932" width="3.44425676" height="18.0429054" rx="1.72212838"></rect>
                </g>
                <path d="M50.0675676,41.007973 L50.0675676,26.3039189 C45.9198345,26.3039189 42.5574324,29.5955335 42.5574324,33.6559459 C42.5574324,37.7163584 45.9198345,41.007973 50.0675676,41.007973 Z M51.7364865,24.6701351 L51.7364865,42.6417568 L50.0675676,42.6417568 C44.998116,42.6417568 40.8885135,38.6186722 40.8885135,33.6559459 C40.8885135,28.6932197 44.998116,24.6701351 50.0675676,24.6701351 L51.7364865,24.6701351 Z" id="Oval-6" fill="#2B2B2B" fill-rule="nonzero" transform="translate(46.312500, 33.655946) scale(-1, 1) translate(-46.312500, -33.655946) "></path>
                <path d="M50.0675676,41.007973 C50.0675676,38.7128578 50.0675676,30.5239952 50.0675676,26.3039189 C45.9198345,26.3039189 42.5574324,29.5955335 42.5574324,33.6559459 C42.5574324,37.7163584 45.9198345,41.007973 50.0675676,41.007973 Z" id="Oval-6" fill="#BDCFD1" transform="translate(46.312500, 33.655946) scale(-1, 1) translate(-46.312500, -33.655946) "></path>
                <polyline id="Path-5" stroke="#F5E0C7" stroke-width="1.5625" stroke-linecap="round" points="17.6905405 34.4728378 22.6972973 34.4728378 25.3675676 30.0616216 28.3716216 37.4136486 29.372973 34.4728378 34.0459459 34.4728378"></polyline>
                <path d="M0,27.1208108 C0,13.1349459 11.581607,1.79716216 25.8682432,1.79716216 C40.1548795,1.79716216 51.7364865,13.1349459 51.7364865,27.1208108 L50.0675676,27.1208108 C50.0675676,14.0372597 39.233161,3.43094595 25.8682432,3.43094595 C12.5033255,3.43094595 1.66891892,14.0372597 1.66891892,27.1208108 L0,27.1208108 Z M1.66891892,27.1208108 L0,27.1208108 C0,13.1349459 11.581607,1.79716216 25.8682432,1.79716216 C40.1548795,1.79716216 51.7364865,13.1349459 51.7364865,27.1208108 L50.0675676,27.1208108 C50.0675676,14.0372597 39.233161,3.43094595 25.8682432,3.43094595 C12.5033255,3.43094595 1.66891892,14.0372597 1.66891892,27.1208108 Z" id="Oval-7" fill="#2B2B2B" fill-rule="nonzero"></path>
                <path d="M41.9800996,5.29749176 L41.9824745,5.29459834 C37.5038363,1.9716078 31.9212382,0 25.8682432,0 C19.7678147,0 14.1451842,2.00262945 9.64892659,5.37296777 L9.65687133,5.38226768 C9.15800893,5.83025551 8.84527027,6.47369895 8.84527027,7.18864865 C8.84527027,8.54211945 9.96607095,9.63932432 11.3486486,9.63932432 C11.9409553,9.63932432 12.4852173,9.43795101 12.9138922,9.10132483 C16.5290896,6.46302853 21.0123698,4.90135135 25.8682432,4.90135135 C30.7241167,4.90135135 35.2073969,6.46302853 38.8225943,9.10132483 C39.2512692,9.43795101 39.7955311,9.63932432 40.3878378,9.63932432 C41.7704155,9.63932432 42.8912162,8.54211945 42.8912162,7.18864865 C42.8912162,6.4272669 42.5365372,5.74698088 41.9800996,5.29749176 L41.9800996,5.29749176 Z" id="Combined-Shape" fill="#E9F4F5"></path>
                <path d="M10.4077703,7.18864865 C10.4077703,7.67164583 10.8216623,8.07682432 11.3486486,8.07682432 C11.5734864,8.07682432 11.7814135,8.00394672 11.9928059,7.83918127 C15.9743283,4.93354861 20.8006783,3.33885135 25.8682432,3.33885135 C30.9358082,3.33885135 35.7621582,4.93354861 39.7876041,7.87243818 C39.955073,8.00394672 40.1630001,8.07682432 40.3878378,8.07682432 C40.9148242,8.07682432 41.3287162,7.67164583 41.3287162,7.18864865 C41.3287162,6.92637802 41.2090269,6.68323111 41.0482243,6.55169053 C36.7158809,3.33273976 31.4326425,1.5625 25.8682432,1.5625 C20.2965655,1.5625 15.0056445,3.33752391 10.6668506,6.56293369 C10.4990302,6.73993989 10.4077703,6.95982471 10.4077703,7.18864865 Z M25.8682432,0 C31.9212382,0 37.5038363,1.9716078 41.9800996,5.29749176 C42.5365372,5.74698088 42.8912162,6.4272669 42.8912162,7.18864865 C42.8912162,8.54211945 41.7704155,9.63932432 40.3878378,9.63932432 C39.7955311,9.63932432 39.2512692,9.43795101 38.8225943,9.10132483 C35.2073969,6.46302853 30.7241167,4.90135135 25.8682432,4.90135135 C21.0123698,4.90135135 16.5290896,6.46302853 12.9138922,9.10132483 C12.4852173,9.43795101 11.9409553,9.63932432 11.3486486,9.63932432 C9.96607095,9.63932432 8.84527027,8.54211945 8.84527027,7.18864865 C8.84527027,6.47369895 9.15800893,5.83025551 9.64892659,5.37296777 C14.1451842,2.00262945 19.7678147,0 25.8682432,0 Z" id="Combined-Shape" fill="#2B2B2B" fill-rule="nonzero"></path>
                <rect id="Rectangle" fill="#2B2B2B" x="0" y="26.3039189" width="1.66891892" height="7.35202703"></rect>
                <rect id="Rectangle" fill="#2B2B2B" x="50.0675676" y="26.3039189" width="1.66891892" height="7.35202703"></rect>
            </g>
        </g>
    </g>
</svg>