<?xml version="1.0" encoding="UTF-8"?>
<svg width="64px" height="64px" viewBox="0 0 64 64" version="1.1" xmlns="http://www.w3.org/2000/svg" xmlns:xlink="http://www.w3.org/1999/xlink">
    <!-- Generator: Sketch 46.2 (44496) - http://www.bohemiancoding.com/sketch -->
    <title>motel</title>
    <desc>Created with Sketch.</desc>
    <defs>
        <rect id="path-1" x="5.46875" y="9.84375" width="37.5" height="38.28125"></rect>
        <path d="M14.53125,14.0625 L14.53125,14.0625 L14.53125,14.0625 C16.4297288,14.0625 17.96875,15.6015212 17.96875,17.5 L17.96875,23.4375 L11.09375,23.4375 L11.09375,17.5 L11.09375,17.5 C11.09375,15.6015212 12.6327712,14.0625 14.53125,14.0625 Z" id="path-2"></path>
        <path d="M14.53125,25 L14.53125,25 L14.53125,25 C16.4297288,25 17.96875,26.5390212 17.96875,28.4375 L17.96875,34.375 L11.09375,34.375 L11.09375,28.4375 L11.09375,28.4375 C11.09375,26.5390212 12.6327712,25 14.53125,25 Z" id="path-3"></path>
        <path d="M24.21875,14.0625 L24.21875,14.0625 L24.21875,14.0625 C26.1172288,14.0625 27.65625,15.6015212 27.65625,17.5 L27.65625,23.4375 L20.78125,23.4375 L20.78125,17.5 L20.78125,17.5 C20.78125,15.6015212 22.3202712,14.0625 24.21875,14.0625 Z" id="path-4"></path>
        <path d="M24.21875,25 L24.21875,25 L24.21875,25 C26.1172288,25 27.65625,26.5390212 27.65625,28.4375 L27.65625,34.375 L20.78125,34.375 L20.78125,28.4375 L20.78125,28.4375 C20.78125,26.5390212 22.3202712,25 24.21875,25 Z" id="path-5"></path>
        <path d="M33.75,14.0625 L33.90625,14.0625 L33.90625,14.0625 C35.8047288,14.0625 37.34375,15.6015212 37.34375,17.5 L37.34375,23.4375 L30.3125,23.4375 L30.3125,17.5 L30.3125,17.5 C30.3125,15.6015212 31.8515212,14.0625 33.75,14.0625 Z" id="path-6"></path>
        <path d="M33.75,25 L33.90625,25 L33.90625,25 C35.8047288,25 37.34375,26.5390212 37.34375,28.4375 L37.34375,34.375 L30.3125,34.375 L30.3125,28.4375 L30.3125,28.4375 C30.3125,26.5390212 31.8515212,25 33.75,25 Z" id="path-7"></path>
        <rect id="path-8" x="15.625" y="37.0635986" width="17.1875" height="11.0614014"></rect>
    </defs>
    <g id="Sticker-size-64*64" stroke="none" stroke-width="1" fill="none" fill-rule="evenodd">
        <g id="motel">
            <rect id="Rectangle" x="0" y="0" width="64" height="64"></rect>
            <g id="Group" transform="translate(8.000000, 6.666667)">
                <g id="Rectangle-32">
                    <use fill="#FFFAF1" fill-rule="evenodd" xlink:href="#path-1"></use>
                    <rect stroke="#2B2B2B" stroke-width="1.5625" x="6.25" y="10.625" width="35.9375" height="36.71875"></rect>
                </g>
                <rect id="Rectangle-33" fill="#2B2B2B" x="0" y="46.5625" width="48.4375" height="1.5625" rx="0.78125"></rect>
                <g id="Rectangle-35">
                    <use fill="#FFC55D" fill-rule="evenodd" xlink:href="#path-2"></use>
                    <path stroke="#2B2B2B" stroke-width="1.5625" d="M11.875,22.65625 L17.1875,22.65625 L17.1875,17.5 C17.1875,16.0329936 15.9982564,14.84375 14.53125,14.84375 C13.0642436,14.84375 11.875,16.0329936 11.875,17.5 L11.875,22.65625 Z"></path>
                </g>
                <g id="Rectangle-35-Copy-3">
                    <use fill="#FFC55D" fill-rule="evenodd" xlink:href="#path-3"></use>
                    <path stroke="#2B2B2B" stroke-width="1.5625" d="M11.875,33.59375 L17.1875,33.59375 L17.1875,28.4375 C17.1875,26.9704936 15.9982564,25.78125 14.53125,25.78125 C13.0642436,25.78125 11.875,26.9704936 11.875,28.4375 L11.875,33.59375 Z"></path>
                </g>
                <g id="Rectangle-35-Copy">
                    <use fill="#FFC55D" fill-rule="evenodd" xlink:href="#path-4"></use>
                    <path stroke="#2B2B2B" stroke-width="1.5625" d="M21.5625,22.65625 L26.875,22.65625 L26.875,17.5 C26.875,16.0329936 25.6857564,14.84375 24.21875,14.84375 C22.7517436,14.84375 21.5625,16.0329936 21.5625,17.5 L21.5625,22.65625 Z"></path>
                </g>
                <g id="Rectangle-35-Copy-4">
                    <use fill="#FFC55D" fill-rule="evenodd" xlink:href="#path-5"></use>
                    <path stroke="#2B2B2B" stroke-width="1.5625" d="M21.5625,33.59375 L26.875,33.59375 L26.875,28.4375 C26.875,26.9704936 25.6857564,25.78125 24.21875,25.78125 C22.7517436,25.78125 21.5625,26.9704936 21.5625,28.4375 L21.5625,33.59375 Z"></path>
                </g>
                <g id="Rectangle-35-Copy-2">
                    <use fill="#FFC55D" fill-rule="evenodd" xlink:href="#path-6"></use>
                    <path stroke="#2B2B2B" stroke-width="1.5625" d="M31.09375,22.65625 L36.5625,22.65625 L36.5625,17.5 C36.5625,16.0329936 35.3732564,14.84375 33.90625,14.84375 L33.75,14.84375 C32.2829936,14.84375 31.09375,16.0329936 31.09375,17.5 L31.09375,22.65625 Z"></path>
                </g>
                <g id="Rectangle-35-Copy-5">
                    <use fill="#FFC55D" fill-rule="evenodd" xlink:href="#path-7"></use>
                    <path stroke="#2B2B2B" stroke-width="1.5625" d="M31.09375,33.59375 L36.5625,33.59375 L36.5625,28.4375 C36.5625,26.9704936 35.3732564,25.78125 33.90625,25.78125 L33.75,25.78125 C32.2829936,25.78125 31.09375,26.9704936 31.09375,28.4375 L31.09375,33.59375 Z"></path>
                </g>
                <g id="Rectangle-35">
                    <use fill="#ED6969" fill-rule="evenodd" xlink:href="#path-8"></use>
                    <rect stroke="#2B2B2B" stroke-width="1.5625" x="16.40625" y="37.8448486" width="15.625" height="9.49890137"></rect>
                </g>
                <rect id="Rectangle" fill="#2B2B2B" x="23.4375" y="37.0635986" width="1.5625" height="11.0614014"></rect>
                <g id="Group-2" transform="translate(14.843750, 0.000000)">
                    <rect id="Rectangle-34" fill="#2B2B2B" x="0" y="0.46875" width="18.75" height="6.25"></rect>
                    <rect id="Rectangle-36" fill="#2B2B2B" x="3.75" y="6.71875" width="1.5625" height="3.125"></rect>
                    <rect id="Rectangle-36" fill="#2B2B2B" x="13.4375" y="6.71875" width="1.5625" height="3.125"></rect>
                    <path d="M4.69482422,5.33333333 L3.72558594,5.33333333 L3.72558594,3.87825521 L2.60498047,3.87825521 L2.60498047,5.33333333 L1.63574219,5.33333333 L1.63574219,1.7639974 L2.60498047,1.7639974 L2.60498047,3.08723958 L3.72558594,3.08723958 L3.72558594,1.7639974 L4.69482422,1.7639974 L4.69482422,5.33333333 Z M8.80615234,3.54378255 C8.80615234,4.14437149 8.65885564,4.6009099 8.36425781,4.91341146 C8.06965999,5.22591302 7.63834919,5.38216146 7.0703125,5.38216146 C6.51041387,5.38216146 6.08113756,5.22509923 5.7824707,4.91097005 C5.48380385,4.59684088 5.33447266,4.13948868 5.33447266,3.53889974 C5.33447266,2.94482125 5.48299005,2.49113112 5.7800293,2.17781576 C6.07706854,1.86450039 6.50878623,1.70784505 7.07519531,1.70784505 C7.64323201,1.70784505 8.073729,1.8632797 8.36669922,2.17415365 C8.65966943,2.4850276 8.80615234,2.941566 8.80615234,3.54378255 Z M6.35009766,3.54378255 C6.35009766,4.23389017 6.59016687,4.5789388 7.0703125,4.5789388 C7.31445435,4.5789388 7.4955235,4.49511803 7.61352539,4.32747396 C7.73152728,4.15982989 7.79052734,3.89860203 7.79052734,3.54378255 C7.79052734,3.18733546 7.73071349,2.92407312 7.61108398,2.75398763 C7.49145448,2.58390214 7.31282671,2.49886068 7.07519531,2.49886068 C6.59179446,2.49886068 6.35009766,2.84716449 6.35009766,3.54378255 Z M10.8764648,5.33333333 L9.91210937,5.33333333 L9.91210937,2.55257161 L9.04052734,2.55257161 L9.04052734,1.7639974 L11.7456055,1.7639974 L11.7456055,2.55257161 L10.8764648,2.55257161 L10.8764648,5.33333333 Z M14.375,5.33333333 L12.2558594,5.33333333 L12.2558594,1.7639974 L14.375,1.7639974 L14.375,2.53792318 L13.2202148,2.53792318 L13.2202148,3.09944661 L14.2895508,3.09944661 L14.2895508,3.8733724 L13.2202148,3.8733724 L13.2202148,4.54720052 L14.375,4.54720052 L14.375,5.33333333 Z M15,5.33333333 L15,1.7639974 L15.9643555,1.7639974 L15.9643555,4.55452474 L17.3388672,4.55452474 L17.3388672,5.33333333 L15,5.33333333 Z" id="HOTEL" fill="#FFEECF"></path>
                </g>
            </g>
        </g>
    </g>
</svg>