<?xml version="1.0" encoding="UTF-8"?>
<svg width="64px" height="64px" viewBox="0 0 64 64" version="1.1" xmlns="http://www.w3.org/2000/svg" xmlns:xlink="http://www.w3.org/1999/xlink">
    <!-- Generator: Sketch 46.2 (44496) - http://www.bohemiancoding.com/sketch -->
    <title>paperboat</title>
    <desc>Created with Sketch.</desc>
    <defs>
        <path d="M55.2596829,1.68931915 C54.4009295,0.615765957 53.0969472,-1.77635684e-15 51.6822088,-1.77635684e-15 C50.2667356,-1.77635684e-15 48.9630682,0.615966565 48.1058896,1.68931915 C47.5762551,2.35152584 46.7729323,2.73117629 45.9016861,2.73117629 C45.5248004,2.73117629 45.152849,2.65675076 44.8106074,2.51742857 L43.4563387,1.41368389 C42.6044092,0.511851064 41.4097132,0.000100303951 40.1221081,0.000100303951 C38.7072648,0.000100303951 37.4032825,0.615866261 36.5444241,1.68972036 C36.0157344,2.35132523 35.2127266,2.73077508 34.3415854,2.73077508 C33.4704441,2.73077508 32.6674363,2.35132523 32.1387466,1.68972036 C32.1298231,1.67858663 32.1207946,1.6678541 32.1114512,1.65722188 C31.2524879,0.603629179 29.9608935,0.000100303951 28.5611676,0.000100303951 C27.1470591,0.000100303951 25.8434967,0.615866261 24.9848483,1.68941945 C24.4552138,2.35162614 23.651891,2.7312766 22.7806448,2.7312766 C21.9092936,2.7312766 21.1063907,2.35172644 20.578016,1.68992097 C19.7203124,0.616066869 18.4166451,0.000100303951 17.0012768,0.000100303951 C15.5864334,0.000100303951 14.2824511,0.615866261 13.4243277,1.68881763 C13.2740984,1.87638602 13.1021377,2.04218845 12.9128551,2.18211246 C12.4345567,2.53628571 11.8336394,2.7313769 11.220754,2.7313769 C10.3495078,2.7313769 9.54608005,2.35172644 9.01655048,1.68951976 C8.15800711,0.616066869 6.85444474,0.000401215805 5.44012628,0.000401215805 C4.02591281,0.000401215805 2.72235044,0.616066869 1.86380706,1.68951976 C1.57405655,2.05191793 1.64659916,2.56998784 2.0257944,2.84682675 C2.4051996,3.12376596 2.947432,3.05435562 3.23718251,2.69205775 C3.76587222,2.0308541 4.56888008,1.65170517 5.4400213,1.65170517 C6.31137249,1.65170517 7.11427536,2.03095441 7.64307005,2.69225836 C8.5023483,3.76661398 9.8063306,4.38268085 11.2206491,4.38268085 C12.2146193,4.38268085 13.1914775,4.06471733 13.9706544,3.4878693 C14.277517,3.26108207 14.5554045,2.99357143 14.7968633,2.69205775 C15.3258679,2.0306535 16.1292957,1.65130395 17.0010668,1.65130395 C17.8729429,1.65130395 18.6757408,2.03045289 19.2036957,2.69145593 C20.0618191,3.76611246 21.3655915,4.38248024 22.7804348,4.38248024 C24.1945433,4.38248024 25.4985256,3.76631307 26.3579088,2.69205775 C26.8869135,2.0306535 27.6899214,1.65130395 28.5609576,1.65130395 C29.4319938,1.65130395 30.2350017,2.0306535 30.7640063,2.69205775 C30.7726149,2.70299088 30.7816433,2.7136231 30.7908818,2.72395441 C31.6495301,3.77824924 32.9411245,4.38197872 34.3413754,4.38197872 C35.7557988,4.38197872 37.0594662,3.76591185 37.9176946,2.69205775 C38.4466993,2.0306535 39.250127,1.65130395 40.1218982,1.65130395 C40.9929344,1.65130395 41.7959423,2.0306535 42.3249469,2.69205775 C42.5652509,2.99236778 42.8425085,3.2594772 43.1472715,3.48445897 C43.9274982,4.06361398 44.9055112,4.38258055 45.9013711,4.38258055 C47.3154796,4.38258055 48.6194619,3.76641337 49.4792651,2.69155623 C50.0071149,2.03045289 50.8100178,1.65140426 51.6818939,1.65140426 C52.553665,1.65140426 53.3570928,2.0307538 53.8860974,2.69215805 C54.175848,3.05435562 54.7179754,3.12376596 55.0973806,2.84682675 C55.4769957,2.56978723 55.5495384,2.05161702 55.2596829,1.68931915 Z" id="path-1"></path>
        <filter x="-2.8%" y="-34.2%" width="103.7%" height="145.6%" filterUnits="objectBoundingBox" id="filter-2">
            <feOffset dx="-1" dy="-1" in="SourceAlpha" result="shadowOffsetOuter1"></feOffset>
            <feColorMatrix values="0 0 0 0 1   0 0 0 0 1   0 0 0 0 1  0 0 0 1 0" type="matrix" in="shadowOffsetOuter1"></feColorMatrix>
        </filter>
    </defs>
    <g id="Sticker-size-64*64" stroke="none" stroke-width="1" fill="none" fill-rule="evenodd">
        <g id="paperboat">
            <rect id="Rectangle" x="0" y="0" width="64" height="64"></rect>
            <polygon id="Path-63" fill="#E9F4F5" points="14.6666667 42.4441664 32.6666667 29.3333333 50.6666667 42.6666667"></polygon>
            <path d="M32.6666667,14.6666667 L46.6666667,32 C40.4038756,31.0515191 35.7372089,30.5772786 32.6666667,30.5772786 C29.5961244,30.5772786 24.9294577,31.0515191 18.6666667,32 L32.6666667,14.6666667 Z" id="Triangle-2" stroke="#2B2B2B" stroke-width="1.66666667" fill="#E9F4F5"></path>
            <g id="Group" transform="translate(5.333333, 21.333333)" stroke="#2B2B2B" stroke-width="1.66666667">
                <path d="M30.7473386,1.13946289 L54.482685,8.68616473 L37.4307179,21.6289931 L28.7386495,3.44661107 L28.7386495,3.44661107 C28.341649,2.61615095 28.6930373,1.62109746 29.5234975,1.22409689 C29.9058476,1.04131481 30.3434681,1.01105143 30.7473386,1.13946289 Z" id="Path-62" fill="#E9F4F5" transform="translate(41.528981, 11.345052) scale(-1, 1) translate(-41.528981, -11.345052) "></path>
                <path d="M2.50417005,1.16667644 L26.2395165,8.71337827 L9.18754932,21.6562066 L0.495480989,3.47382461 L0.495480989,3.47382461 C0.0984804164,2.64336449 0.449868803,1.648311 1.28032892,1.25131043 C1.66267906,1.06852835 2.10029951,1.03826497 2.50417005,1.16667644 Z" id="Path-62" fill="#E9F4F5"></path>
                <path d="M8.89190735,22.0794596 L45.9389599,22.0794596" id="Path-2"></path>
            </g>
            <g id="paper-boat" transform="translate(4.000000, 40.000000)" fill-rule="nonzero">
                <path d="M55.4946255,2.54646201 C54.6358722,1.47290881 53.0969472,0.857142857 51.6822088,0.857142857 C50.2667356,0.857142857 48.9630682,1.47310942 48.1058896,2.54646201 C47.5762551,3.20866869 46.7729323,3.58831915 45.9016861,3.58831915 C45.5248004,3.58831915 45.152849,3.51389362 44.8106074,3.37457143 L43.4563387,2.27082675 C42.6044092,1.36899392 41.4097132,0.857243161 40.1221081,0.857243161 C38.7072648,0.857243161 37.4032825,1.47300912 36.5444241,2.54686322 C36.0157344,3.20846809 35.2127266,3.58791793 34.3415854,3.58791793 C33.4704441,3.58791793 32.6674363,3.20846809 32.1387466,2.54686322 C31.2524879,1.46077204 29.9608935,0.857243161 28.5611676,0.857243161 C27.1470591,0.857243161 25.8434967,1.47300912 24.9848483,2.54656231 C24.4552138,3.208769 23.651891,3.58841945 22.7806448,3.58841945 C21.9092936,3.58841945 21.1063907,3.2088693 20.578016,2.54706383 C19.7203124,1.47320973 18.4166451,0.857243161 17.0012768,0.857243161 C15.5864334,0.857243161 14.2824511,1.47300912 13.4243277,2.54596049 C13.2740984,2.73352888 13.1021377,2.89933131 12.9128551,3.03925532 C12.4345567,3.39342857 11.8336394,3.58851976 11.220754,3.58851976 C10.3495078,3.58851976 9.54608005,3.2088693 9.01655048,2.54666261 C8.15800711,1.47320973 6.85444474,0.857544073 5.44012628,0.857544073 C4.02591281,0.857544073 2.72235044,1.47320973 1.86380706,2.54666261 C1.57405655,2.90906079 1.47116747,4.72077288 1.42032399,5.63567243 C1.36948051,6.55057199 1.13057347,7.97861067 1.42032399,7.6163128 C1.9490137,6.95510915 4.56888008,6.54406356 5.4400213,6.54406356 C6.31137249,6.54406356 7.11427536,6.9233128 7.64307005,7.58461675 C8.5023483,8.65897237 9.8063306,9.27503924 11.2206491,9.27503924 C12.2146193,9.27503924 13.1914775,8.95707571 13.9706544,8.38022769 C14.277517,8.15344046 14.5554045,7.88592982 14.7968633,7.58441614 C15.3258679,6.92301188 16.1292957,6.54366234 17.0010668,6.54366234 C17.8729429,6.54366234 18.6757408,6.92281128 19.2036957,7.58381432 C20.0618191,8.65847085 21.3655915,9.27483863 22.7804348,9.27483863 C24.1945433,9.27483863 25.4985256,8.65867146 26.3579088,7.58441614 C26.8869135,6.92301188 27.6899214,6.54366234 28.5609576,6.54366234 C29.4319938,6.54366234 30.2350017,6.92301188 30.7640063,7.58441614 C31.6495301,8.67060763 32.9411245,9.27433711 34.3413754,9.27433711 C35.7557988,9.27433711 37.0594662,8.65827024 37.9176946,7.58441614 C38.4466993,6.92301188 39.250127,6.54366234 40.1218982,6.54366234 C40.9929344,6.54366234 41.7959423,6.92301188 42.3249469,7.58441614 C42.5652509,7.88472617 42.8425085,8.15183559 43.1472715,8.37681736 C43.9274982,8.95597237 44.9055112,9.27493894 45.9013711,9.27493894 C47.3154796,9.27493894 48.6194619,8.65877176 49.4792651,7.58391462 C50.0071149,6.92281128 50.8100178,6.54376264 51.6818939,6.54376264 C52.553665,6.54376264 55.0394217,6.92241006 55.5684264,7.58381432 C55.8581769,7.94601188 56.0368188,7.59835379 56.1106196,6.98918806 C56.1844205,6.38002232 55.784481,2.90875988 55.4946255,2.54646201 Z" id="Shape-Copy" fill="#94E8F4"></path>
                <path d="M55.3645521,9.29038906 C54.5056938,8.21683587 53.2018164,7.60106991 51.787078,7.60106991 C50.3716048,7.60106991 49.0679374,8.21703647 48.2107588,9.29038906 C47.6811243,9.95259574 46.8778015,10.3322462 46.0065553,10.3322462 C45.3928301,10.3322462 44.7913878,10.1366535 44.3129845,9.78157751 C43.9360989,9.50182979 43.3933416,9.56682675 43.1004416,9.92701824 C42.8076466,10.2871094 42.8758849,10.8057812 43.2526656,11.0855289 C44.0327874,11.6645836 45.0109053,11.9834498 46.0066603,11.9834498 C47.4207687,11.9834498 48.724751,11.3672827 49.5845542,10.2924255 C50.1124041,9.63132219 50.9153069,9.25227356 51.787183,9.25227356 C52.6589541,9.25227356 53.4623819,9.6316231 53.9913866,10.2930274 C54.2811371,10.6552249 54.8234745,10.724535 55.2026697,10.447696 C55.581865,10.1708571 55.6544076,9.65268693 55.3645521,9.29038906 Z" id="Shape" fill="#2B2B2B"></path>
                <path d="M41.944589,7.92424924 C41.3986822,7.70979939 40.8208609,7.60106991 40.2271873,7.60106991 C38.8124489,7.60106991 37.5083616,8.21683587 36.6495033,9.29068997 C36.1208136,9.95229483 35.3178058,10.3317447 34.4466645,10.3317447 C33.5755233,10.3317447 32.7725154,9.95229483 32.2438257,9.29068997 C32.2350072,9.27955623 32.2258738,9.26882371 32.2164254,9.25809119 C31.3574621,8.20449848 30.0659727,7.6009696 28.6662467,7.6009696 C27.2521382,7.6009696 25.9485759,8.21673556 25.0899275,9.29028875 C24.560293,9.95249544 23.7569702,10.3321459 22.885724,10.3321459 C22.0143728,10.3321459 21.2114699,9.95259574 20.6829902,9.29089058 C19.8253916,8.21693617 18.5217243,7.6009696 17.106356,7.6009696 C15.6916176,7.6009696 14.3875303,8.21673556 13.5294069,9.28978723 C13.3790726,9.47735562 13.2072169,9.64315805 13.0179342,9.78308207 C12.5396359,10.1372553 11.9387185,10.3322462 11.3258332,10.3322462 C10.454587,10.3322462 9.65115923,9.95259574 9.12162966,9.29048936 C8.26308629,8.21703647 6.95952392,7.60137082 5.54520546,7.60137082 C4.13099199,7.60137082 2.82742962,8.21703647 1.96888624,9.29048936 C1.67913573,9.65288754 1.75167834,10.1709574 2.13087358,10.4477964 C2.51027878,10.7247356 3.05251118,10.6553252 3.34226169,10.2930274 C3.8709514,9.63182371 4.67395926,9.25257447 5.54510048,9.25257447 C6.41645167,9.25257447 7.21935454,9.63182371 7.74814923,10.2931277 C8.60742748,11.3674833 9.91140978,11.9835502 11.3257282,11.9835502 C12.3198035,11.9835502 13.2966616,11.6655866 14.0757336,11.0887386 C14.3825962,10.8619514 14.6603787,10.5944407 14.9019425,10.2929271 C15.4309471,9.6315228 16.2343749,9.25217325 17.106146,9.25217325 C17.9779171,9.25217325 18.78082,9.63132219 19.3087749,10.2923252 C20.1668983,11.3669818 21.4706706,11.9833495 22.885514,11.9833495 C24.2996225,11.9833495 25.6036048,11.3671824 26.462988,10.2929271 C26.9919927,9.6315228 27.7950005,9.25217325 28.6660368,9.25217325 C29.537073,9.25217325 30.3400809,9.6315228 30.8690855,10.2929271 C30.8776941,10.3038602 30.8867225,10.3144924 30.8959609,10.3248237 C31.7546093,11.3791185 33.0462037,11.982848 34.4464546,11.982848 C35.860878,11.982848 37.1645454,11.3667812 38.0227738,10.2929271 C38.5517784,9.6315228 39.3552062,9.25217325 40.2269773,9.25217325 C40.5942046,9.25217325 40.9509337,9.31917629 41.2872963,9.4512766 C41.7285359,9.62450152 42.2336046,9.42329179 42.4150137,9.00161398 C42.5966326,8.58003647 42.3860386,8.09757447 41.944589,7.92424924 Z" id="Shape" fill="#2B2B2B"></path>
                <g id="Shape">
                    <use fill="black" fill-opacity="1" filter="url(#filter-2)" xlink:href="#path-1"></use>
                    <use fill="#2B2B2B" fill-rule="evenodd" xlink:href="#path-1"></use>
                </g>
            </g>
            <path d="M32.7128906,15.2067057 L32.7128906,29.8733724" id="Path-64" stroke="#2B2B2B" stroke-width="1.66666667"></path>
        </g>
    </g>
</svg>