<?xml version="1.0" encoding="UTF-8"?>
<svg width="64px" height="64px" viewBox="0 0 64 64" version="1.1" xmlns="http://www.w3.org/2000/svg" xmlns:xlink="http://www.w3.org/1999/xlink">
    <!-- Generator: Sketch 46.2 (44496) - http://www.bohemiancoding.com/sketch -->
    <title>lock</title>
    <desc>Created with Sketch.</desc>
    <defs>
        <path d="M40.6666667,27.0666669 L40.6666667,15.5998136 C40.6666667,10.8870522 37.0849044,7.06666692 32.6666198,7.06666692 C28.2483352,7.06666692 24.6666667,10.8871522 24.6666667,15.5998136 L24.6666667,27.0666669 L27.977522,27.0666669 L27.977522,15.4106035 C27.977522,12.6482157 30.0769334,10.4088794 32.6667135,10.4088794 C35.2563999,10.4088794 37.355905,12.6482157 37.355905,15.4106035 L37.355905,27.0666669 L40.6666667,27.0666669 Z" id="path-1"></path>
    </defs>
    <g id="Sticker-size-64*64" stroke="none" stroke-width="1" fill="none" fill-rule="evenodd">
        <g id="lock">
            <rect id="Rectangle" x="0" y="0" width="64" height="64"></rect>
            <path d="M35.9176479,56 L29.4158777,56 C22.7428869,56 17.3333333,50.5233556 17.3333333,43.7676045 L17.3333333,30.4416126 C17.3333333,29.0931098 18.4131482,28 19.7450353,28 L45.588298,28 C46.9202812,28 48,29.0932071 48,30.4416126 L48,43.7676045 C48.0000961,50.523453 42.5906387,56 35.9176479,56 Z" id="Shape" stroke="#2B2B2B" stroke-width="1.66666667" fill="#BDCFD1" fill-rule="nonzero"></path>
            <path d="M36,39.2606996 C36,37.4598031 34.5076791,36 32.6666667,36 C30.8256543,36 29.3333333,37.4598031 29.3333333,39.2606996 C29.3333333,40.3584325 29.888612,41.3288278 30.7385192,41.9197215 L30.7385192,44.7805337 C30.7385192,45.8178478 31.6060949,46.6666667 32.6666667,46.6666667 L32.6666667,46.6666667 C33.7270874,46.6666667 34.5948142,45.8179955 34.5948142,44.7805337 L34.5948142,41.9197215 C35.4450233,41.3288278 36,40.3584325 36,39.2606996 Z" id="Shape" stroke="#2B2B2B" stroke-width="1.66666667" fill="#FFF9ED" fill-rule="nonzero"></path>
            <g id="Shape" fill-rule="nonzero">
                <use fill="#FFC55D" fill-rule="evenodd" xlink:href="#path-1"></use>
                <path stroke="#2B2B2B" stroke-width="1.66666667" d="M41.5,27.9000003 L36.5225717,27.9000003 L36.5225717,15.4106035 C36.5225717,13.0969007 34.7837498,11.2422127 32.6667135,11.2422127 C30.5496186,11.2422127 28.8108554,13.0968638 28.8108554,15.4106035 L28.8108554,27.9000003 L23.8333333,27.9000003 L23.8333333,15.5998136 C23.8333333,10.4384709 27.7756808,6.23333359 32.6666198,6.23333359 C37.5576042,6.23333359 41.5,10.4384204 41.5,15.5998136 L41.5,27.9000003 Z"></path>
            </g>
        </g>
    </g>
</svg>