<?xml version="1.0" encoding="UTF-8"?>
<svg width="64px" height="64px" viewBox="0 0 64 64" version="1.1" xmlns="http://www.w3.org/2000/svg" xmlns:xlink="http://www.w3.org/1999/xlink">
    <!-- Generator: Sketch 46.2 (44496) - http://www.bohemiancoding.com/sketch -->
    <title>trend</title>
    <desc>Created with Sketch.</desc>
    <defs>
        <rect id="path-1" x="17.3333333" y="32" width="8" height="18.6666667" rx="1.66666667"></rect>
        <rect id="path-2" x="30.6666667" y="25.3333333" width="8" height="25.3333333" rx="1.66666667"></rect>
        <path d="M51.3905192,20.4588259 L51.3905192,49 C51.3905192,49.9204746 50.6443272,50.6666667 49.7238526,50.6666667 L44.8880109,50.6666667 C43.9675363,50.6666667 43.2213442,49.9204746 43.2213442,49 L43.2213442,20.4588259 L41.6267157,20.4588259 L41.6267157,20.4588259 C40.7062411,20.4588259 39.960049,19.7126338 39.960049,18.7921592 C39.960049,18.3483583 40.1370516,17.9228849 40.4518282,17.6100352 L47.4379628,10.6666667 L54.2313305,17.6281379 L54.2313305,17.6281379 C54.8742017,18.2869171 54.8613057,19.3421133 54.2025265,19.9849845 C53.8912178,20.2887757 53.473479,20.4588259 53.0385052,20.4588259 L51.3905192,20.4588259 Z" id="path-3"></path>
    </defs>
    <g id="Sticker-size-64*64" stroke="none" stroke-width="1" fill="none" fill-rule="evenodd">
        <g id="trend">
            <rect id="Rectangle" x="0" y="0" width="64" height="64"></rect>
            <rect id="Rectangle-82" fill="#2B2B2B" x="12" y="53.3333333" width="44" height="1.66666667" rx="0.833333333"></rect>
            <g id="Rectangle-83">
                <use fill="#FFDC64" fill-rule="evenodd" xlink:href="#path-1"></use>
                <rect stroke="#2B2B2B" stroke-width="1.66666667" x="18.1666667" y="32.8333333" width="6.33333333" height="17" rx="1.66666667"></rect>
            </g>
            <g id="Rectangle-83-Copy">
                <use fill="#ED6969" fill-rule="evenodd" xlink:href="#path-2"></use>
                <rect stroke="#2B2B2B" stroke-width="1.66666667" x="31.5" y="26.1666667" width="6.33333333" height="23.6666667" rx="1.66666667"></rect>
            </g>
            <g id="Combined-Shape">
                <use fill="#8497DD" fill-rule="evenodd" xlink:href="#path-3"></use>
                <path stroke="#2B2B2B" stroke-width="1.66666667" d="M47.4289111,11.8505726 L41.0392719,18.2010972 C40.8818836,18.3575221 40.7933824,18.5702588 40.7933824,18.7921592 C40.7933824,19.2523965 41.1664784,19.6254925 41.6267157,19.6254925 L44.0546776,19.6254925 L44.0546776,49 C44.0546776,49.4602373 44.4277736,49.8333333 44.8880109,49.8333333 L49.7238526,49.8333333 C50.1840899,49.8333333 50.5571859,49.4602373 50.5571859,49 L50.5571859,19.6254925 L53.0385052,19.6254925 C53.2559921,19.6254925 53.4648615,19.5404675 53.6205158,19.3885719 C53.9499054,19.0671362 53.9563534,18.5395382 53.6349178,18.2101486 L47.4289111,11.8505726 Z"></path>
            </g>
        </g>
    </g>
</svg>