<?xml version="1.0" encoding="UTF-8"?>
<svg width="64px" height="64px" viewBox="0 0 64 64" version="1.1" xmlns="http://www.w3.org/2000/svg" xmlns:xlink="http://www.w3.org/1999/xlink">
    <!-- Generator: Sketch 46.2 (44496) - http://www.bohemiancoding.com/sketch -->
    <title>stopwatch</title>
    <desc>Created with Sketch.</desc>
    <defs>
        <rect id="path-1" x="0" y="0" width="13.5964912" height="5.17473118"></rect>
        <rect id="path-2" x="2.37938596" y="3.44982079" width="8.66776316" height="6.89964158"></rect>
        <rect id="path-3" x="0" y="0" width="13.5964912" height="5.17473118"></rect>
        <rect id="path-4" x="2.37938596" y="3.44982079" width="8.66776316" height="6.89964158"></rect>
        <ellipse id="path-5" cx="27.1217105" cy="28.2885305" rx="19.5449561" ry="19.8364695"></ellipse>
        <path d="M30.5208333,33.1182796 C31.4189277,33.1182796 34.0899123,32.5263839 34.0899123,29.1509857 C34.0899123,25.7755874 31.6255482,11.3844086 30.5208333,11.3844086 C29.4161184,11.3844086 26.9517544,25.7755874 26.9517544,29.1509857 C26.9517544,32.5263839 29.622739,33.1182796 30.5208333,33.1182796 Z" id="path-6"></path>
    </defs>
    <g id="Sticker-size-64*64" stroke="none" stroke-width="1" fill="none" fill-rule="evenodd">
        <g id="stopwatch">
            <rect id="Rectangle" x="0" y="0" width="64" height="64"></rect>
            <g id="Group-3" transform="translate(6.666667, 8.000000)">
                <g id="Group-2" transform="translate(20.323465, 0.000000)">
                    <g id="Rectangle-46">
                        <use fill="#BDCFD1" fill-rule="evenodd" xlink:href="#path-1"></use>
                        <rect stroke="#2B2B2B" stroke-width="1.5625" x="0.78125" y="0.78125" width="12.0339912" height="3.61223118"></rect>
                    </g>
                    <g id="Rectangle-46-Copy">
                        <use fill="#FFFFFF" fill-rule="evenodd" xlink:href="#path-2"></use>
                        <rect stroke="#2B2B2B" stroke-width="1.5625" x="3.16063596" y="4.23107079" width="7.10526316" height="5.33714158"></rect>
                    </g>
                </g>
                <g id="Group-2" transform="translate(10.685337, 13.311930) rotate(-45.000000) translate(-10.685337, -13.311930) translate(3.393670, 7.478596)">
                    <g id="Rectangle-46">
                        <use fill="#BDCFD1" fill-rule="evenodd" xlink:href="#path-3"></use>
                        <rect stroke="#2B2B2B" stroke-width="1.5625" x="0.78125" y="0.78125" width="12.0339912" height="3.61223118"></rect>
                    </g>
                    <g id="Rectangle-46-Copy">
                        <use fill="#FFFFFF" fill-rule="evenodd" xlink:href="#path-4"></use>
                        <rect stroke="#2B2B2B" stroke-width="1.5625" x="3.16063596" y="4.23107079" width="7.10526316" height="5.33714158"></rect>
                    </g>
                </g>
                <g id="Oval-23">
                    <use fill="#FFFFFF" fill-rule="evenodd" xlink:href="#path-5"></use>
                    <ellipse stroke="#2B2B2B" stroke-width="1.5625" cx="27.1217105" cy="28.2885305" rx="18.7637061" ry="19.0552195"></ellipse>
                </g>
                <path d="M27.1217105,44.6751792 C18.204613,44.6751792 10.9758772,37.3386267 10.9758772,28.2885305 C10.9758772,19.2384343 18.204613,11.9018817 27.1217105,11.9018817 C36.038808,11.9018817 43.2675439,19.2384343 43.2675439,28.2885305 C43.2675439,37.3386267 36.038808,44.6751792 27.1217105,44.6751792 Z M27.1217105,41.2253584 C34.1615244,41.2253584 39.8684211,35.4333433 39.8684211,28.2885305 C39.8684211,21.1437177 34.1615244,15.3517025 27.1217105,15.3517025 C20.0818967,15.3517025 14.375,21.1437177 14.375,28.2885305 C14.375,35.4333433 20.0818967,41.2253584 27.1217105,41.2253584 Z" id="Combined-Shape" fill="#E9F4F5"></path>
                <g id="Group" transform="translate(9.517544, 11.901882)" fill="#2B2B2B">
                    <path d="M17.535636,0 L17.6726974,0 L17.6726974,1.11022302e-16 C18.1041698,3.17620973e-17 18.4539474,0.349777539 18.4539474,0.78125 L18.4539474,2.66857079 L18.4539474,2.66857079 C18.4539474,3.10004325 18.1041698,3.44982079 17.6726974,3.44982079 L17.535636,3.44982079 C17.1041635,3.44982079 16.754386,3.10004325 16.754386,2.66857079 L16.754386,0.78125 L16.754386,0.78125 C16.754386,0.349777539 17.1041635,3.0130481e-16 17.535636,2.22044605e-16 L17.535636,0 Z M17.535636,29.3234767 L17.6726974,29.3234767 L17.6726974,29.3234767 C18.1041698,29.3234767 18.4539474,29.6732542 18.4539474,30.1047267 L18.4539474,31.9920475 C18.4539474,32.42352 18.1041698,32.7732975 17.6726974,32.7732975 L17.535636,32.7732975 L17.535636,32.7732975 C17.1041635,32.7732975 16.754386,32.42352 16.754386,31.9920475 L16.754386,30.1047267 L16.754386,30.1047267 C16.754386,29.6732542 17.1041635,29.3234767 17.535636,29.3234767 L17.535636,29.3234767 Z" id="Combined-Shape"></path>
                    <path d="M17.535636,0 L17.6726974,0 L17.6726974,1.11022302e-16 C18.1041698,3.17620973e-17 18.4539474,0.349777539 18.4539474,0.78125 L18.4539474,2.66857079 L18.4539474,2.66857079 C18.4539474,3.10004325 18.1041698,3.44982079 17.6726974,3.44982079 L17.535636,3.44982079 C17.1041635,3.44982079 16.754386,3.10004325 16.754386,2.66857079 L16.754386,0.78125 L16.754386,0.78125 C16.754386,0.349777539 17.1041635,3.0130481e-16 17.535636,2.22044605e-16 L17.535636,0 Z M17.535636,29.3234767 L17.6726974,29.3234767 L17.6726974,29.3234767 C18.1041698,29.3234767 18.4539474,29.6732542 18.4539474,30.1047267 L18.4539474,31.9920475 C18.4539474,32.42352 18.1041698,32.7732975 17.6726974,32.7732975 L17.535636,32.7732975 L17.535636,32.7732975 C17.1041635,32.7732975 16.754386,32.42352 16.754386,31.9920475 L16.754386,30.1047267 L16.754386,30.1047267 C16.754386,29.6732542 17.1041635,29.3234767 17.535636,29.3234767 L17.535636,29.3234767 Z" id="Combined-Shape" transform="translate(17.604167, 16.386649) rotate(30.000000) translate(-17.604167, -16.386649) "></path>
                    <path d="M17.535636,-4.54747351e-13 L17.6726974,-4.54747351e-13 L17.6726974,-4.54636329e-13 C18.1041698,-4.54715589e-13 18.4539474,0.349777539 18.4539474,0.78125 L18.4539474,2.66857079 L18.4539474,2.66857079 C18.4539474,3.10004325 18.1041698,3.44982079 17.6726974,3.44982079 L17.535636,3.44982079 C17.1041635,3.44982079 16.754386,3.10004325 16.754386,2.66857079 L16.754386,0.78125 L16.754386,0.78125 C16.754386,0.349777539 17.1041635,-4.54446046e-13 17.535636,-4.54525306e-13 L17.535636,-4.54747351e-13 Z M17.535636,29.3234767 L17.6726974,29.3234767 L17.6726974,29.3234767 C18.1041698,29.3234767 18.4539474,29.6732542 18.4539474,30.1047267 L18.4539474,31.9920475 C18.4539474,32.42352 18.1041698,32.7732975 17.6726974,32.7732975 L17.535636,32.7732975 L17.535636,32.7732975 C17.1041635,32.7732975 16.754386,32.42352 16.754386,31.9920475 L16.754386,30.1047267 L16.754386,30.1047267 C16.754386,29.6732542 17.1041635,29.3234767 17.535636,29.3234767 L17.535636,29.3234767 Z" id="Combined-Shape" transform="translate(17.604167, 16.386649) rotate(60.000000) translate(-17.604167, -16.386649) "></path>
                    <path d="M17.535636,0 L17.6726974,0 L17.6726974,1.11022302e-16 C18.1041698,3.17620973e-17 18.4539474,0.349777539 18.4539474,0.78125 L18.4539474,2.66857079 L18.4539474,2.66857079 C18.4539474,3.10004325 18.1041698,3.44982079 17.6726974,3.44982079 L17.535636,3.44982079 C17.1041635,3.44982079 16.754386,3.10004325 16.754386,2.66857079 L16.754386,0.78125 L16.754386,0.78125 C16.754386,0.349777539 17.1041635,3.0130481e-16 17.535636,2.22044605e-16 L17.535636,0 Z M17.535636,29.3234767 L17.6726974,29.3234767 L17.6726974,29.3234767 C18.1041698,29.3234767 18.4539474,29.6732542 18.4539474,30.1047267 L18.4539474,31.9920475 C18.4539474,32.42352 18.1041698,32.7732975 17.6726974,32.7732975 L17.535636,32.7732975 L17.535636,32.7732975 C17.1041635,32.7732975 16.754386,32.42352 16.754386,31.9920475 L16.754386,30.1047267 L16.754386,30.1047267 C16.754386,29.6732542 17.1041635,29.3234767 17.535636,29.3234767 L17.535636,29.3234767 Z" id="Combined-Shape" transform="translate(17.604167, 16.386649) rotate(90.000000) translate(-17.604167, -16.386649) "></path>
                    <path d="M17.535636,0 L17.6726974,0 L17.6726974,1.11022302e-16 C18.1041698,3.17620973e-17 18.4539474,0.349777539 18.4539474,0.78125 L18.4539474,2.66857079 L18.4539474,2.66857079 C18.4539474,3.10004325 18.1041698,3.44982079 17.6726974,3.44982079 L17.535636,3.44982079 C17.1041635,3.44982079 16.754386,3.10004325 16.754386,2.66857079 L16.754386,0.78125 L16.754386,0.78125 C16.754386,0.349777539 17.1041635,3.0130481e-16 17.535636,2.22044605e-16 L17.535636,0 Z M17.535636,29.3234767 L17.6726974,29.3234767 L17.6726974,29.3234767 C18.1041698,29.3234767 18.4539474,29.6732542 18.4539474,30.1047267 L18.4539474,31.9920475 C18.4539474,32.42352 18.1041698,32.7732975 17.6726974,32.7732975 L17.535636,32.7732975 L17.535636,32.7732975 C17.1041635,32.7732975 16.754386,32.42352 16.754386,31.9920475 L16.754386,30.1047267 L16.754386,30.1047267 C16.754386,29.6732542 17.1041635,29.3234767 17.535636,29.3234767 L17.535636,29.3234767 Z" id="Combined-Shape" transform="translate(17.604167, 16.386649) rotate(120.000000) translate(-17.604167, -16.386649) "></path>
                    <path d="M17.535636,0 L17.6726974,0 C18.1041698,-7.92602052e-17 18.4539474,0.349777539 18.4539474,0.78125 L18.4539474,2.66857079 C18.4539474,3.10004325 18.1041698,3.44982079 17.6726974,3.44982079 L17.535636,3.44982079 C17.1041635,3.44982079 16.754386,3.10004325 16.754386,2.66857079 L16.754386,0.78125 L16.754386,0.78125 C16.754386,0.349777539 17.1041635,3.0130481e-16 17.535636,2.22044605e-16 L17.535636,0 Z M17.535636,29.3234767 L17.6726974,29.3234767 C18.1041698,29.3234767 18.4539474,29.6732542 18.4539474,30.1047267 L18.4539474,31.9920475 C18.4539474,32.42352 18.1041698,32.7732975 17.6726974,32.7732975 L17.535636,32.7732975 C17.1041635,32.7732975 16.754386,32.42352 16.754386,31.9920475 L16.754386,30.1047267 C16.754386,29.6732542 17.1041635,29.3234767 17.535636,29.3234767 L17.535636,29.3234767 Z" id="Combined-Shape" transform="translate(17.604167, 16.386649) rotate(150.000000) translate(-17.604167, -16.386649) "></path>
                </g>
                <g id="Oval-24" transform="translate(30.520833, 22.251344) rotate(30.000000) translate(-30.520833, -22.251344) ">
                    <use fill="#ED6969" fill-rule="evenodd" xlink:href="#path-6"></use>
                    <path stroke="#2B2B2B" stroke-width="1.5625" d="M30.5208333,12.9865922 C30.434999,13.2483542 30.3444284,13.5517581 30.2502806,13.8933531 C29.8875336,15.2095026 29.483362,17.0487497 29.0898779,19.1459873 C28.3234983,23.2307281 27.7330044,27.5681659 27.7330044,29.1509857 C27.7330044,31.3526481 29.0803059,32.3370296 30.5208333,32.3370296 C31.9613607,32.3370296 33.3086623,31.3526481 33.3086623,29.1509857 C33.3086623,27.5681659 32.7181684,23.2307281 31.9517887,19.1459873 C31.5583047,17.0487497 31.1541331,15.2095026 30.7913861,13.8933531 C30.6972383,13.5517581 30.6066676,13.2483542 30.5208333,12.9865922 Z"></path>
                </g>
            </g>
        </g>
    </g>
</svg>