<?xml version="1.0" encoding="UTF-8"?>
<svg width="64px" height="64px" viewBox="0 0 64 64" version="1.1" xmlns="http://www.w3.org/2000/svg" xmlns:xlink="http://www.w3.org/1999/xlink">
    <!-- Generator: Sketch 46.2 (44496) - http://www.bohemiancoding.com/sketch -->
    <title>todolist</title>
    <desc>Created with Sketch.</desc>
    <defs>
        <path d="M16.6666667,6.66666667 L38.7878788,6.66666667 L38.7878788,15.1555556 L38.7878788,15.1555556 C38.7878788,16.9965047 40.280263,18.4888889 42.1212121,18.4888889 L50.6666667,18.4888889 L50.6666667,54 L50.6666667,54 C50.6666667,55.8409492 49.1742825,57.3333333 47.3333333,57.3333333 L16.6666667,57.3333333 L16.6666667,57.3333333 C14.8257175,57.3333333 13.3333333,55.8409492 13.3333333,54 L13.3333333,10 L13.3333333,10 C13.3333333,8.15905083 14.8257175,6.66666667 16.6666667,6.66666667 Z" id="path-1"></path>
        <rect id="path-2" x="20" y="20" width="6.66666667" height="6.66666667"></rect>
        <rect id="path-3" x="20" y="30.6666667" width="6.66666667" height="6.66666667"></rect>
        <rect id="path-4" x="20" y="40" width="6.66666667" height="6.66666667"></rect>
    </defs>
    <g id="Sticker-size-64*64" stroke="none" stroke-width="1" fill="none" fill-rule="evenodd">
        <g id="todolist">
            <rect id="Rectangle" x="0" y="0" width="64" height="64"></rect>
            <polygon id="Rectangle-71" fill="#FFC55D" points="38.6666667 6.66666667 50.6666667 18.6666667 38.6666667 18.6666667"></polygon>
            <g id="Rectangle-70">
                <use fill="#FFF9ED" fill-rule="evenodd" xlink:href="#path-1"></use>
                <path stroke="#2B2B2B" stroke-width="1.66666667" d="M49.8333333,19.3222222 L42.1212121,19.3222222 C39.8200257,19.3222222 37.9545455,17.456742 37.9545455,15.1555556 L37.9545455,7.5 L16.6666667,7.5 C15.2859548,7.5 14.1666667,8.61928813 14.1666667,10 L14.1666667,54 C14.1666667,55.3807119 15.2859548,56.5 16.6666667,56.5 L47.3333333,56.5 C48.7140452,56.5 49.8333333,55.3807119 49.8333333,54 L49.8333333,19.3222222 Z"></path>
            </g>
            <g id="Rectangle">
                <use fill="#FFC55D" fill-rule="evenodd" xlink:href="#path-2"></use>
                <rect stroke="#2B2B2B" stroke-width="1.66666667" x="20.8333333" y="20.8333333" width="5" height="5"></rect>
            </g>
            <g id="Rectangle-Copy">
                <use fill="#FFC55D" fill-rule="evenodd" xlink:href="#path-3"></use>
                <rect stroke="#2B2B2B" stroke-width="1.66666667" x="20.8333333" y="31.5" width="5" height="5"></rect>
            </g>
            <g id="Rectangle-Copy-2">
                <use fill="#FFC55D" fill-rule="evenodd" xlink:href="#path-4"></use>
                <rect stroke="#2B2B2B" stroke-width="1.66666667" x="20.8333333" y="40.8333333" width="5" height="5"></rect>
            </g>
            <rect id="Rectangle-2-Copy" fill="#2B2B2B" x="30.6666667" y="22.6666667" width="8" height="1.66666667" rx="0.833333333"></rect>
            <rect id="Rectangle-2-Copy-2" fill="#2B2B2B" x="30.6666667" y="32" width="13.3333333" height="1.66666667" rx="0.833333333"></rect>
            <path d="M38.6666667,8 L50.6666667,20" id="Path-40" stroke="#2B2B2B" stroke-width="1.66666667"></path>
            <polyline id="Path-41" stroke="#FFFFFF" stroke-width="10" stroke-linecap="round" points="32 40.8478985 40.1291764 48 54.6666667 34.6666667"></polyline>
            <path d="M33.4421506,38.5414246 C32.379414,37.6527507 30.7998573,37.7967049 29.914112,38.8629555 C29.0283667,39.929206 29.1718466,41.5139854 30.2345833,42.4026594 L40.1172447,50.6666667 L56.471264,36.4104771 C57.5155977,35.5001065 57.6266283,33.9127064 56.7192578,32.8649197 C55.8118874,31.817133 54.2297186,31.7057353 53.185385,32.6161059 L40.0497322,44.0667684 L33.4421506,38.5414246 Z" id="Path-41" stroke="#2B2B2B" stroke-width="1.66666667" fill="#8BCB76" fill-rule="nonzero"></path>
        </g>
    </g>
</svg>