<?xml version="1.0" encoding="UTF-8"?>
<svg width="64px" height="64px" viewBox="0 0 64 64" version="1.1" xmlns="http://www.w3.org/2000/svg" xmlns:xlink="http://www.w3.org/1999/xlink">
    <!-- Generator: Sketch 47 (45396) - http://www.bohemiancoding.com/sketch -->
    <title>apple</title>
    <desc>Created with Sketch.</desc>
    <defs>
        <path d="M18.9404737,11.1440407 L20.0086805,10.7028862 C30.7535842,6.64977929 38.0245718,11.888489 38.0245718,22.8162535 C38.0245718,31.0327561 33.9941108,39.0102999 28.0067667,42.4016752 C26.6243815,43.1828862 24.9457708,43.1461234 23.572362,42.3373401 C22.2528124,41.556129 20.9063332,41.1241653 19.0302389,41.1241653 C17.127215,41.1241653 15.7807359,41.5745105 14.4432332,42.3649123 C13.1236836,43.1553141 11.4989321,43.2012677 10.1344999,42.4935823 C4.1022732,39.3779287 0.0359061112,32.3010753 0.0359061112,22.8162535 C0.0359061112,13.1843803 5.98734404,7.77104697 14.524022,9.56323713 C16.0590082,9.88491228 17.5401353,10.4363554 18.9404737,11.1440407 Z" id="path-1"></path>
    </defs>
    <g id="Sticker-size-64*64" stroke="none" stroke-width="1" fill="none" fill-rule="evenodd">
        <g id="apple">
            <g id="Group-2" transform="translate(13.000000, 7.000000)">
                <g id="Group" transform="translate(0.419355, 3.368421)">
                    <g id="Shape">
                        <use fill="#ED6969" fill-rule="evenodd" xlink:href="#path-1"></use>
                        <path stroke="#2B2B2B" stroke-width="1.667" d="M18.971423,10.2296142 L19.7145072,9.92302449 C30.8858846,5.70904656 38.8580718,11.179631 38.8580718,22.8162535 C38.8580718,31.35184 34.6582019,39.5920646 28.4168419,43.1273201 C26.78097,44.0517811 24.7850649,44.0187726 23.1477411,43.0545705 C21.8662804,42.2959091 20.6555719,41.9576653 19.0302389,41.9576653 C17.3964292,41.9576653 16.1877405,42.3021515 14.8715362,43.0799499 C13.3052496,44.0181456 11.3732167,44.0750058 9.75200327,43.2341352 C3.20409979,39.8521338 -0.797593889,32.2939031 -0.797593889,22.8162535 C-0.797593889,12.6881877 5.60672196,6.83946905 14.6949785,8.74745768 C16.1337869,9.04897759 17.5639888,9.54952312 18.971423,10.2296142 Z"></path>
                    </g>
                    <path d="M18.5004132,10.0618105 C20.4842258,11.0635989 24.8378418,13.1039384 25.6816354,11.9826708" id="Shape" stroke="#2B2B2B" stroke-width="1.57555178" stroke-linecap="round"></path>
                    <path d="M19.5565146,9.640625 C19.5565146,3.23807566 16.4801537,-2.54728618 10.4896043,2.10649671" id="Path-66" stroke="#2B2B2B" stroke-width="1.667" stroke-linecap="round"></path>
                </g>
                <path d="M30.0344389,9.68080448 C29.7453695,9.71147643 29.4519294,9.72767607 29.1548161,9.72767607 C24.6091218,9.72767607 20.9244517,6.04013293 20.9244517,1.49120756 C20.9244517,0.865117005 20.9947545,0.255459514 21.1269444,-0.330715496 C21.4160603,-0.361434129 21.7093609,-0.377587089 22.0066137,-0.377587089 C26.5520755,-0.377587089 30.2368387,3.30995606 30.2368387,7.85897479 C30.2368387,8.48506535 30.1666753,9.09472284 30.0344389,9.68080448 L30.0344389,9.68080448 Z" id="Shape" fill="#8BCB76" fill-rule="nonzero" transform="translate(25.580645, 4.675044) rotate(-270.000000) translate(-25.580645, -4.675044) "></path>
            </g>
        </g>
    </g>
</svg>