<?xml version="1.0" encoding="UTF-8"?>
<svg width="64px" height="64px" viewBox="0 0 64 64" version="1.1" xmlns="http://www.w3.org/2000/svg" xmlns:xlink="http://www.w3.org/1999/xlink">
    <!-- Generator: Sketch 46.2 (44496) - http://www.bohemiancoding.com/sketch -->
    <title>chat</title>
    <desc>Created with Sketch.</desc>
    <defs>
        <path d="M13.0702419,0 C5.90016129,0 0.0669354839,5.83322581 0.0669354839,13.0033065 C0.0669354839,15.9933065 1.09822581,18.8907258 2.97822581,21.2030645 C2.44193548,22.5543548 1.54370968,23.7228226 0.365241935,24.5973387 C0.18483871,24.7312097 0.0934677419,24.9541129 0.128145161,25.176129 C0.162741935,25.3982258 0.317580645,25.5827419 0.53016129,25.6553226 C1.47233871,25.9772581 2.45403226,26.1405645 3.44806452,26.1405645 C5.02645161,26.1405645 6.56887097,25.7298387 7.92943548,24.95 C9.55508065,25.6512903 11.2829839,26.0067742 13.0703226,26.0067742 C20.2404032,26.0067742 26.073629,20.1734677 26.073629,13.0033871 C26.073629,5.83330645 20.2403226,0 13.0702419,0 L13.0702419,0 Z" id="path-1"></path>
        <path d="M19.6053629,0 C8.85024194,0 0.100403226,8.74983871 0.100403226,19.5049597 C0.100403226,23.9899597 1.64733871,28.3360887 4.46733871,31.8045968 C3.66290323,33.8315323 2.31556452,35.5842339 0.547862903,36.8960081 C0.277258065,37.0968145 0.140201613,37.4311694 0.192217742,37.7641935 C0.244112903,38.0973387 0.476370968,38.3741129 0.795241935,38.4829839 C2.20850806,38.9658871 3.68104839,39.2108468 5.17209677,39.2108468 C7.53967742,39.2108468 9.85330645,38.5947581 11.8941532,37.425 C14.332621,38.4769355 16.9244758,39.0101613 19.6054839,39.0101613 C30.3606048,39.0101613 39.1104435,30.2602016 39.1104435,19.5050806 C39.1104435,8.74995968 30.3604839,0 19.6053629,0 L19.6053629,0 Z" id="path-2"></path>
    </defs>
    <g id="Sticker-size-64*64" stroke="none" stroke-width="1" fill="none" fill-rule="evenodd">
        <g id="chat">
            <g id="chat-2-copy" transform="translate(45.333333, 26.666667) scale(-1, 1) translate(-45.333333, -26.666667) translate(32.000000, 13.333333)">
                <path d="M1.88271818,13.009844 C1.88271818,15.7956459 3.00381131,18.5786268 4.73720974,20.4998779 C4.71506095,22.0161106 4.02779205,23.3507348 3.02813501,24.3895605 C2.94050429,24.4806247 3.06426151,24.5505797 3.19752215,24.5550274 C4.35892795,24.59379 7.35145216,23.8251671 8.39492947,23.1758415 C9.81762919,23.8312687 11.4011476,24.1974405 13.0702419,24.1974405 C19.2489545,24.1974405 24.2577657,19.1885566 24.2577657,13.009844 C24.2578385,6.83105859 19.2489545,1.82232021 13.0702419,1.82232021 C6.89152933,1.82232021 1.88271818,6.83105859 1.88271818,13.009844 Z" id="Shape" fill="#FFC55D"></path>
                <g id="Shape">
                    <path stroke="#FFFFFF" stroke-width="3.33333333" d="M2.94113942,24.4564758 C3.10951846,24.4680806 3.2785541,24.4738978 3.44806452,24.4738978 C4.73456838,24.4738978 5.99140979,24.1397946 7.10063656,23.5040159 L7.82402371,23.08939 L8.58961244,23.4196588 C10.0068167,24.0310294 11.5100781,24.3401075 13.0703226,24.3401075 C19.3199101,24.3401075 24.4069624,19.2530117 24.4069624,13.0033871 C24.4069624,6.75378103 19.319848,1.66666667 13.0702419,1.66666667 C6.82063587,1.66666667 1.73360215,6.75370039 1.73360215,13.0033065 C1.73360215,15.6076331 2.63129715,18.1343742 4.27141384,20.1516643 L4.88776008,20.9097501 L4.52735183,21.8178704 C4.14394654,22.7839365 3.60802061,23.672817 2.94113942,24.4564758 Z"></path>
                    <use stroke="#2B2B2B" stroke-width="1.66666667" xlink:href="#path-1"></use>
                </g>
                <path d="M13.0702419,11.7395968 C12.2240323,11.7395968 11.5379839,12.4255645 11.5379839,13.2718548 C11.5379839,14.1180645 12.2240323,14.8041129 13.0702419,14.8041129 C13.9164516,14.8041129 14.6025,14.1180645 14.6025,13.2718548 C14.6025,12.4255645 13.9164516,11.7395968 13.0702419,11.7395968 L13.0702419,11.7395968 Z" id="Path" fill="#2B2B2B"></path>
                <path d="M7.1025,11.7395968 C6.25629032,11.7395968 5.57024194,12.4255645 5.57024194,13.2718548 C5.57024194,14.1180645 6.25629032,14.8041129 7.1025,14.8041129 C7.94870968,14.8041129 8.63475806,14.1180645 8.63475806,13.2718548 C8.63475806,12.4255645 7.94870968,11.7395968 7.1025,11.7395968 L7.1025,11.7395968 Z" id="Path" fill="#2B2B2B"></path>
                <path d="M19.0379839,11.7395968 C18.1917742,11.7395968 17.5057258,12.4255645 17.5057258,13.2718548 C17.5057258,14.1180645 18.1917742,14.8041129 19.0379839,14.8041129 C19.8841935,14.8041129 20.5702419,14.1180645 20.5702419,13.2718548 C20.5702419,12.4255645 19.8841935,11.7395968 19.0379839,11.7395968 L19.0379839,11.7395968 Z" id="Path" fill="#2B2B2B"></path>
            </g>
            <g id="chat-2" transform="translate(6.666667, 10.666667)">
                <path d="M2.82407728,19.5147659 C2.82407728,23.6934688 4.50571696,27.8679403 7.10581462,30.7498169 C7.07259142,33.0241659 6.04168808,35.0261023 4.54220251,36.5843407 C4.41075643,36.7209371 4.59639226,36.8258695 4.79628323,36.832541 C6.53839193,36.890685 11.0271782,35.7377506 12.5923942,34.7637623 C14.7264438,35.746903 17.1017214,36.2961607 19.6053629,36.2961607 C28.8734318,36.2961607 36.3866485,28.7828348 36.3866485,19.5147659 C36.3867577,10.2465879 28.8734318,2.73348032 19.6053629,2.73348032 C10.337294,2.73348032 2.82407728,10.2465879 2.82407728,19.5147659 Z" id="Shape" fill="#FFC55D"></path>
                <g id="Shape">
                    <path stroke="#FFFFFF" stroke-width="3.33333333" d="M2.68838249,37.2812491 C3.50345077,37.4560515 4.33429154,37.5441801 5.17209677,37.5441801 C7.24712832,37.5441801 9.27526936,37.005044 11.0653543,35.9790159 L11.7887415,35.56439 L12.5543302,35.8946588 C14.7845986,36.8567788 17.1518353,37.3434946 19.6054839,37.3434946 C29.440104,37.3434946 37.4437769,29.3397532 37.4437769,19.5050806 C37.4437769,9.67043426 29.4400093,1.66666667 19.6053629,1.66666667 C9.77071652,1.66666667 1.76706989,9.67031329 1.76706989,19.5049597 C1.76706989,23.6029482 3.17956569,27.5786986 5.76052674,30.7531965 L6.37687299,31.5112823 L6.01646474,32.4194027 C5.2800784,34.2748748 4.14548548,35.9283957 2.68838249,37.2812491 Z"></path>
                    <use stroke="#2B2B2B" stroke-width="1.66666667" xlink:href="#path-2"></use>
                </g>
                <path d="M19.6053629,17.6093952 C18.3360484,17.6093952 17.3069758,18.6383468 17.3069758,19.9077823 C17.3069758,21.1770968 18.3360484,22.2061694 19.6053629,22.2061694 C20.8746774,22.2061694 21.90375,21.1770968 21.90375,19.9077823 C21.90375,18.6383468 20.8746774,17.6093952 19.6053629,17.6093952 L19.6053629,17.6093952 Z" id="Path" fill="#2B2B2B"></path>
                <path d="M10.65375,17.6093952 C9.38443548,17.6093952 8.3553629,18.6383468 8.3553629,19.9077823 C8.3553629,21.1770968 9.38443548,22.2061694 10.65375,22.2061694 C11.9230645,22.2061694 12.9521371,21.1770968 12.9521371,19.9077823 C12.9521371,18.6383468 11.9230645,17.6093952 10.65375,17.6093952 L10.65375,17.6093952 Z" id="Path" fill="#2B2B2B"></path>
                <path d="M28.5569758,17.6093952 C27.2876613,17.6093952 26.2585887,18.6383468 26.2585887,19.9077823 C26.2585887,21.1770968 27.2876613,22.2061694 28.5569758,22.2061694 C29.8262903,22.2061694 30.8553629,21.1770968 30.8553629,19.9077823 C30.8553629,18.6383468 29.8262903,17.6093952 28.5569758,17.6093952 L28.5569758,17.6093952 Z" id="Path" fill="#2B2B2B"></path>
            </g>
            <rect id="Rectangle" x="0" y="0" width="64" height="64"></rect>
        </g>
    </g>
</svg>