<?xml version="1.0" encoding="UTF-8"?>
<svg width="64px" height="64px" viewBox="0 0 64 64" version="1.1" xmlns="http://www.w3.org/2000/svg" xmlns:xlink="http://www.w3.org/1999/xlink">
    <!-- Generator: Sketch 46.2 (44496) - http://www.bohemiancoding.com/sketch -->
    <title>shopping</title>
    <desc>Created with Sketch.</desc>
    <defs>
        <path d="M9.11946615,13.3333333 L55.2919099,13.3333333 C57.1557366,13.3333333 58.6666667,14.8257175 58.6666667,16.6666667 L49.6620674,38.6298884 C49.0268443,39.4908186 48.0132713,40 46.9347327,40 L12.7731469,40" id="path-1"></path>
        <circle id="path-2" cx="21.3333333" cy="52" r="5.33333333"></circle>
        <circle id="path-3" cx="41.3333333" cy="52" r="5.33333333"></circle>
    </defs>
    <g id="Sticker-size-64*64" stroke="none" stroke-width="1" fill="none" fill-rule="evenodd">
        <g id="shopping">
            <rect id="Rectangle" x="0" y="0" width="64" height="64"></rect>
            <g id="Rectangle-109">
                <use fill="#FFF9ED" fill-rule="evenodd" xlink:href="#path-1"></use>
                <path stroke="#2B2B2B" stroke-width="1.66666667" d="M10.0747625,14.1666667 L13.5000882,39.1666667 L46.9347327,39.1666667 C47.7168444,39.1666667 48.4527532,38.8126284 48.9330475,38.2112612 L57.828659,16.5138727 C57.7484319,15.2063386 56.6454625,14.1666667 55.2919099,14.1666667 L10.0747625,14.1666667 Z"></path>
            </g>
            <path d="M10.6666667,24.6666667 L54.6666667,24.6666667" id="Path-52" stroke="#2B2B2B" stroke-width="1.66666667"></path>
            <path d="M12,32.6666667 L51.0934245,32.6666667" id="Path-52-Copy" stroke="#2B2B2B" stroke-width="1.66666667"></path>
            <path d="M2.66666667,9.11828035 C6.38228999,7.22638335 8.44248261,7.73500756 8.84724452,10.644153 C9.23333012,13.4190662 10.8026052,24.4720865 13.5550696,43.8032137 L13.5550721,43.8032134 C13.7889894,45.4460628 15.1957,46.6666667 16.855119,46.6666667 L46.6666667,46.6666667" id="Path-53" stroke="#2B2B2B" stroke-width="1.66666667" stroke-linecap="round"></path>
            <g id="Oval-47">
                <use fill="#BDCFD1" fill-rule="evenodd" xlink:href="#path-2"></use>
                <circle stroke="#2B2B2B" stroke-width="1.66666667" cx="21.3333333" cy="52" r="4.5"></circle>
            </g>
            <g id="Oval-47-Copy">
                <use fill="#BDCFD1" fill-rule="evenodd" xlink:href="#path-3"></use>
                <circle stroke="#2B2B2B" stroke-width="1.66666667" cx="41.3333333" cy="52" r="4.5"></circle>
            </g>
            <path d="M17.3333333,14.6666667 L22.6666667,38.6666667" id="Path-54" stroke="#2B2B2B" stroke-width="1.66666667"></path>
            <path d="M32.1698894,14.6666667 L33.163444,38.6666667" id="Path-55" stroke="#2B2B2B" stroke-width="1.66666667"></path>
            <path d="M45.3333333,14.6666667 L41.3333333,38.6666667" id="Path-55-Copy" stroke="#2B2B2B" stroke-width="1.66666667"></path>
        </g>
    </g>
</svg>