<?xml version="1.0" encoding="UTF-8"?>
<svg width="64px" height="64px" viewBox="0 0 64 64" version="1.1" xmlns="http://www.w3.org/2000/svg" xmlns:xlink="http://www.w3.org/1999/xlink">
    <!-- Generator: Sketch 46.2 (44496) - http://www.bohemiancoding.com/sketch -->
    <title>tellurium</title>
    <desc>Created with Sketch.</desc>
    <defs>
        <rect id="path-1" x="23.5714286" y="39.568103" width="6.28571429" height="10.1485636"></rect>
        <ellipse id="path-2" cx="17.2857143" cy="17.4166667" rx="17.2857143" ry="17.4166667"></ellipse>
    </defs>
    <g id="Sticker-size-64*64" stroke="none" stroke-width="1" fill="none" fill-rule="evenodd">
        <g id="tellurium">
            <g id="Group-2" transform="translate(4.000000, 9.333333)">
                <g id="Rectangle-20">
                    <use fill="#F5E0C7" fill-rule="evenodd" xlink:href="#path-1"></use>
                    <rect stroke="#2B2B2B" stroke-width="1.5625" x="24.3526786" y="40.349353" width="4.72321429" height="8.58606364"></rect>
                </g>
                <path d="M24.2729217,47.099156 C35.6285621,46.6848922 44.7104166,37.2764579 44.7104166,25.7279671 C44.7104166,14.1794764 35.6285621,4.77104209 24.2729217,4.35677832 L24.2729166,47.0991562 Z" id="Oval-8" stroke="#2B2B2B" stroke-width="1.5625" transform="translate(34.491667, 25.727967) rotate(45.000000) translate(-34.491667, -25.727967) "></path>
                <path d="M19.6383929,48.1333333 L33.7901786,48.1333333 C34.221651,48.1333333 34.5714286,48.4831109 34.5714286,48.9145833 L34.5714286,48.9354167 C34.5714286,49.3668891 34.221651,49.7166667 33.7901786,49.7166667 L19.6383929,49.7166667 C19.2069204,49.7166667 18.8571429,49.3668891 18.8571429,48.9354167 L18.8571429,48.9145833 C18.8571429,48.4831109 19.2069204,48.1333333 19.6383929,48.1333333 Z M9.03393249,34.5916539 L15.010702,28.6148844 C15.3157991,28.3097873 15.8104593,28.3097873 16.1155564,28.6148844 L16.1302878,28.6296158 C16.4353849,28.9347129 16.4353849,29.429373 16.1302878,29.7344701 L10.1535182,35.7112397 C9.84842112,36.0163368 9.35376098,36.0163368 9.04866388,35.7112397 L9.03393249,35.6965083 L9.03393249,35.6965083 C8.72883539,35.3914112 8.72883539,34.896751 9.03393249,34.5916539 L9.03393249,34.5916539 Z M37.9585223,5.4509137 L43.1498264,0.259609591 C43.4549235,-0.0454875117 43.9495836,-0.0454875117 44.2546807,0.259609591 L44.2694121,0.274340982 L44.2694121,0.274340982 C44.5745092,0.579438085 44.5745092,1.07409823 44.2694121,1.37919533 L39.078108,6.57049944 L39.078108,6.57049944 C38.7730109,6.87559654 38.2783508,6.87559654 37.9732537,6.57049944 L37.9585223,6.55576805 C37.6534252,6.25067095 37.6534252,5.75601081 37.9585223,5.4509137 Z" id="Combined-Shape" fill="#2B2B2B"></path>
                <g id="Group" transform="translate(9.428571, 0.633333)">
                    <g id="Oval-8">
                        <use fill="#BDF3FB" fill-rule="evenodd" xlink:href="#path-2"></use>
                        <ellipse stroke="#2B2B2B" stroke-width="1.5625" cx="17.2857143" cy="17.4166667" rx="16.5044643" ry="16.6354167"></ellipse>
                    </g>
                    <path d="M27.1337268,4.45890027 C29.0713368,4.46300178 29.4790614,6.22934409 29.4790614,6.22934409 C29.4790614,6.22934409 33.8380959,12.3087516 33.0557406,13.3057865 C32.6796541,13.7850716 32.6004168,14.7782188 31.0437358,15.0191978 C29.3621244,15.2795163 28.1771272,16.1975434 26.5770629,15.6208786 C24.4980371,14.8715956 23.6909376,13.1422575 21.5463874,12.5811285 C19.4018373,12.0199995 19.3862863,11.3092006 20.1763927,9.46800308 C20.966499,7.62680556 22.4072587,7.18981244 23.6843138,6.05152281 C24.9613689,4.91323318 25.1961168,4.45479877 27.1337268,4.45890027 Z M14.0203962,15.4659505 C17.0073382,13.8043783 19.8584817,16.089878 23.7077009,16.3324544 C27.5569201,16.5750309 31.2597656,20.8638184 31.2597656,21.8837077 C31.2597656,22.903597 27.5156529,25.6267932 27.5156529,27.5175293 C27.5156529,29.4082654 25.4622372,32.1276944 25.1103237,32.4673014 C24.9350532,32.6364426 22.2320908,34.2681921 21.3985139,33.1968099 C20.5584089,32.1170372 19.9043203,28.4972337 19.2825335,27.5175293 C18.0437915,25.5657335 15.1651604,24.5240795 14.0203962,23.8752441 C12.875632,23.2264088 11.0334542,17.1275228 14.0203962,15.4659505 Z M10.7652065,6.12366536 C9.04246652,8.10097656 8.31261161,7.94264323 8.99366629,9.5386556 C9.67472098,11.134668 8.29112723,12.6777995 6.31517857,13.0012695 C4.33922991,13.3247396 0.991657366,14.6912923 0.991657366,14.6912923 L1.70892857,11.1315755 C1.70892857,11.1315755 2.64683024,9.56624558 4.65750558,6.92120768 C6.70023188,4.23400685 8.98844866,2.47705078 10.7652065,2.1285319 C12.9288876,1.7041163 12.4879464,4.14635417 10.7652065,6.12366536 Z M6.37739468,22.9487467 C6.02689245,25.5309408 7.07511161,26.394043 7.75616629,27.9900553 C8.43722098,29.5860677 12.6785179,33.3575848 11.3379185,32.7601562 C9.99731915,32.1627277 4.90027902,28.8094745 4.90027902,28.8094745 L2.79787946,26.0454445 C2.79787946,26.0454445 0.461914063,24.7773112 1.29949777,21.9378255 C2.13708147,19.0983398 6.72789691,20.3665527 6.37739468,22.9487467 Z" id="Combined-Shape" fill="#8BCB76"></path>
                    <ellipse id="Oval-8" stroke="#2B2B2B" stroke-width="1.5625" cx="17.2857143" cy="17.4166667" rx="16.5044643" ry="16.6354167"></ellipse>
                </g>
                <path d="M2.7731723,7.41129122 L4.79619512,7.41129122 L3.50643722,6.32905584 L3.50643722,6.32905584 C3.17591014,6.05171069 3.13279767,5.55893288 3.41014282,5.2284058 L3.42353423,5.21244654 L3.42353423,5.21244654 C3.70087938,4.88191946 4.19365719,4.83880699 4.52418427,5.11615214 L4.52418427,5.11615214 L7.25942452,7.41129122 L8.75306094,7.41129122 C9.1845334,7.41129122 9.53431094,7.76106876 9.53431094,8.19254122 L9.53431094,8.21337455 C9.53431094,8.64484701 9.1845334,8.99462455 8.75306094,8.99462455 L6.69497489,8.99462455 L6.6900843,9.00045293 L6.68313831,8.99462455 L2.45841808,8.99462455 C2.21262798,8.99462455 1.99334837,8.88111967 1.85013596,8.70366664 L0.698784813,7.73756832 C0.368257732,7.46022317 0.32514526,6.96744536 0.602490412,6.63691828 L0.615881821,6.62095902 C0.893226972,6.29043194 1.38600478,6.24731946 1.71653186,6.52466462 L1.71653186,6.52466462 L2.7731723,7.41129122 Z" id="Combined-Shape" fill="#F1C38C" transform="translate(4.977003, 6.966905) scale(-1, 1) rotate(-32.000000) translate(-4.977003, -6.966905) "></path>
                <path d="M10.4751674,15.2943197 C19.7650112,21.1260579 32.4908203,22.4156087 42.9297712,19.920931" id="Path-9" stroke="#2B2B2B" stroke-width="1.5625" stroke-linecap="round" stroke-dasharray="1.5625,3.125" transform="translate(26.702469, 18.211397) rotate(11.000000) translate(-26.702469, -18.211397) "></path>
            </g>
            <rect id="Rectangle" x="0" y="0" width="64" height="64"></rect>
        </g>
    </g>
</svg>