<?xml version="1.0" encoding="UTF-8"?>
<svg width="64px" height="64px" viewBox="0 0 64 64" version="1.1" xmlns="http://www.w3.org/2000/svg" xmlns:xlink="http://www.w3.org/1999/xlink">
    <!-- Generator: Sketch 46.2 (44496) - http://www.bohemiancoding.com/sketch -->
    <title>filesearch</title>
    <desc>Created with Sketch.</desc>
    <defs>
        <path d="M19.3333333,9.33333333 L41.4545455,9.33333333 L41.4545455,17.8222222 L41.4545455,17.8222222 C41.4545455,19.6631714 42.9469296,21.1555556 44.7878788,21.1555556 L53.3333333,21.1555556 L53.3333333,56.6666667 L53.3333333,56.6666667 C53.3333333,58.5076158 51.8409492,60 50,60 L19.3333333,60 L19.3333333,60 C17.4923842,60 16,58.5076158 16,56.6666667 L16,12.6666667 L16,12.6666667 C16,10.8257175 17.4923842,9.33333333 19.3333333,9.33333333 Z" id="path-1"></path>
        <circle id="path-2" cx="10.7142857" cy="10.7142857" r="10.7142857"></circle>
    </defs>
    <g id="Sticker-size-64*64" stroke="none" stroke-width="1" fill="none" fill-rule="evenodd">
        <g id="filesearch">
            <rect id="Rectangle" x="0" y="0" width="64" height="64"></rect>
            <polygon id="Rectangle-71" fill="#94E8F4" points="40 9.33333333 52 21.3333333 40 21.3333333"></polygon>
            <g id="Rectangle-70">
                <use fill="#F0ECFF" fill-rule="evenodd" xlink:href="#path-1"></use>
                <path stroke="#2B2B2B" stroke-width="1.66666667" d="M52.5,21.9888889 L44.7878788,21.9888889 C42.4866923,21.9888889 40.6212121,20.1234087 40.6212121,17.8222222 L40.6212121,10.1666667 L19.3333333,10.1666667 C17.9526215,10.1666667 16.8333333,11.2859548 16.8333333,12.6666667 L16.8333333,56.6666667 C16.8333333,58.0473785 17.9526215,59.1666667 19.3333333,59.1666667 L50,59.1666667 C51.3807119,59.1666667 52.5,58.0473785 52.5,56.6666667 L52.5,21.9888889 Z"></path>
            </g>
            <rect id="Rectangle-2-Copy" fill="#2B2B2B" x="22.6666667" y="22.6666667" width="10.6666667" height="1.66666667" rx="0.833333333"></rect>
            <rect id="Rectangle-2-Copy-2" fill="#2B2B2B" x="22.6666667" y="30.6666667" width="24" height="1.66666667" rx="0.833333333"></rect>
            <rect id="Rectangle-2-Copy-3" fill="#2B2B2B" x="22.6666667" y="38.6666667" width="24" height="1.66666667" rx="0.833333333"></rect>
            <rect id="Rectangle-2-Copy-4" fill="#2B2B2B" x="22.6666667" y="46.6666667" width="24" height="1.66666667" rx="0.833333333"></rect>
            <path d="M40.7610677,9.94954427 L52.734375,21.8053385" id="Path-40" stroke="#2B2B2B" stroke-width="1.66666667"></path>
            <g id="Group-2" transform="translate(32.000000, 29.333333)">
                <circle id="Oval-35" stroke="#FFFFFF" stroke-width="1.66666667" cx="10.7142857" cy="10.7142857" r="11.547619"></circle>
                <g id="Oval-35">
                    <use fill="#FFFFFF" fill-rule="evenodd" xlink:href="#path-2"></use>
                    <circle stroke="#2B2B2B" stroke-width="1.66666667" cx="10.7142857" cy="10.7142857" r="9.88095238"></circle>
                </g>
                <path d="M7.20626151,8.59760589 C7.3351756,8.42572044 7.48342458,8.30755097 7.65101289,8.24309392 C7.81860121,8.17863688 7.97544433,8.16574566 8.12154696,8.20441989 C8.26764959,8.24309412 8.39226468,8.33118409 8.49539595,8.46869245 C8.59852722,8.60620081 8.65438915,8.7909749 8.66298343,9.02302026 C8.6715777,9.15193435 8.6178643,9.38397622 8.50184162,9.71915285 C8.38581894,10.0543295 8.24616411,10.4926308 8.08287293,11.03407 C8.07427866,11.0684471 8.0592389,11.1114178 8.03775322,11.1629834 C8.01626754,11.2145491 7.98618804,11.3004905 7.94751381,11.4208103 C7.90883959,11.5411301 7.85297765,11.7087159 7.77992634,11.9235727 C7.70687502,12.1384296 7.60589383,12.4263334 7.47697974,12.7872928 C7.41681983,12.9677725 7.34162108,13.1826261 7.25138122,13.43186 C7.16114135,13.6810939 7.04726895,13.9023931 6.90976059,14.0957643 C6.77225223,14.2891354 6.6089635,14.4223446 6.4198895,14.4953959 C6.23081551,14.5684473 6.0030707,14.5147339 5.73664825,14.3342541 C5.65070552,14.2740942 5.55616994,14.1516277 5.45303867,13.9668508 C5.3499074,13.782074 5.25107475,13.5822601 5.15653775,13.3674033 C5.06200076,13.1525465 4.97820785,12.9484356 4.90515654,12.7550645 C4.83210522,12.5616933 4.7826889,12.4349297 4.75690608,12.3747698 C4.69674617,12.2372614 4.62799302,12.0847154 4.55064457,11.9171271 C4.47329611,11.7495388 4.40024589,11.5798044 4.33149171,11.407919 L4.25414365,11.6012891 L3.91896869,12.4521179 C3.80724315,12.7357289 3.69551928,13.0150385 3.58379374,13.2900552 C3.52363383,13.4361579 3.4677719,13.5951495 3.41620626,13.767035 C3.36464063,13.9389204 3.29159041,14.089318 3.19705341,14.218232 C3.11970495,14.3299576 3.02302084,14.4094534 2.90699816,14.4567219 C2.79097548,14.5039904 2.672806,14.5233272 2.55248619,14.514733 C2.43216637,14.5061387 2.31829397,14.4739107 2.21086556,14.4180479 C2.10343715,14.3621851 2.01105011,14.2826893 1.93370166,14.179558 C1.81338184,14.0076726 1.71884626,13.8100073 1.65009208,13.5865562 C1.5813379,13.3631051 1.51258475,13.1568456 1.44383057,12.9677716 C1.34929357,12.7013492 1.26335214,12.4284851 1.18600368,12.1491713 C1.10865523,11.8698574 1.02701087,11.6012904 0.94106814,11.3434622 C0.898096777,11.2059539 0.842234843,11.0254769 0.773480663,10.8020258 C0.704726483,10.5785747 0.638121869,10.3486814 0.573664825,10.1123389 C0.509207781,9.87599636 0.457642919,9.64610302 0.418968692,9.42265193 C0.380294466,9.19920085 0.365254715,9.01442676 0.373848987,8.86832413 C0.38244326,8.72222149 0.431859586,8.5911608 0.522099448,8.47513812 C0.612339309,8.35911544 0.721914641,8.27317401 0.850828729,8.21731123 C0.979742818,8.16144846 1.11510058,8.14211164 1.25690608,8.15930018 C1.39871157,8.17648873 1.52547519,8.24094481 1.63720074,8.35267035 C1.80049192,8.5245558 1.89932457,8.70718135 1.93370166,8.90055249 C1.96807875,9.09392362 2.00675239,9.3023316 2.04972376,9.52578269 C2.11847794,9.86955359 2.19797377,10.2090223 2.28821363,10.5441989 C2.37845349,10.8793755 2.47513761,11.2145471 2.57826888,11.5497238 C2.61264597,11.4723753 2.65131961,11.3778397 2.69429098,11.2661142 C2.73726234,11.1543886 2.80601549,10.9868028 2.90055249,10.7633517 C2.97790094,10.5742778 3.0530997,10.3895037 3.12615101,10.2090239 C3.19920233,10.0285442 3.27010401,9.8480672 3.3388582,9.66758748 C3.39042383,9.53867339 3.44198869,9.41190977 3.49355433,9.28729282 C3.54511996,9.16267587 3.59668483,9.04020932 3.64825046,8.9198895 C3.70841037,8.79097541 3.79650034,8.68569715 3.91252302,8.60405157 C4.0285457,8.52240598 4.15530932,8.47084111 4.29281768,8.44935543 C4.43032604,8.42786975 4.56353527,8.44076097 4.69244936,8.48802947 C4.82136344,8.53529797 4.92449317,8.62338794 5.00184162,8.75230203 C5.11356716,8.92418748 5.1995086,9.11540717 5.25966851,9.32596685 C5.31982842,9.53652653 5.38428449,9.73634037 5.45303867,9.92541436 C5.57335849,10.2348082 5.69152797,10.5463459 5.80755064,10.8600368 C5.92357332,11.1737278 6.04603987,11.4809684 6.17495396,11.781768 C6.36402796,11.2661116 6.53161376,10.7483144 6.67771639,10.228361 C6.82381902,9.70840747 6.98281068,9.19061031 7.15469613,8.67495396 L7.20626151,8.59760589 Z M15.8692449,8.59760589 C15.998159,8.42572044 16.146408,8.30755097 16.3139963,8.24309392 C16.4815846,8.17863688 16.6384278,8.16574566 16.7845304,8.20441989 C16.930633,8.24309412 17.0552481,8.33118409 17.1583794,8.46869245 C17.2615106,8.60620081 17.3173726,8.7909749 17.3259669,9.02302026 C17.3345611,9.15193435 17.2808477,9.38397622 17.164825,9.71915285 C17.0488024,10.0543295 16.9091475,10.4926308 16.7458564,11.03407 C16.7372621,11.0684471 16.7222223,11.1114178 16.7007366,11.1629834 C16.679251,11.2145491 16.6491715,11.3004905 16.6104972,11.4208103 C16.571823,11.5411301 16.5159611,11.7087159 16.4429098,11.9235727 C16.3698584,12.1384296 16.2688773,12.4263334 16.1399632,12.7872928 C16.0798033,12.9677725 16.0046045,13.1826261 15.9143646,13.43186 C15.8241248,13.6810939 15.7102524,13.9023931 15.572744,14.0957643 C15.4352357,14.2891354 15.2719469,14.4223446 15.0828729,14.4953959 C14.8937989,14.5684473 14.6660541,14.5147339 14.3996317,14.3342541 C14.313689,14.2740942 14.2191534,14.1516277 14.1160221,13.9668508 C14.0128908,13.782074 13.9140582,13.5822601 13.8195212,13.3674033 C13.7249842,13.1525465 13.6411913,12.9484356 13.56814,12.7550645 C13.4950886,12.5616933 13.4456723,12.4349297 13.4198895,12.3747698 C13.3597296,12.2372614 13.2909764,12.0847154 13.213628,11.9171271 C13.1362795,11.7495388 13.0632293,11.5798044 12.9944751,11.407919 L12.9171271,11.6012891 L12.5819521,12.4521179 C12.4702266,12.7357289 12.3585027,13.0150385 12.2467772,13.2900552 C12.1866173,13.4361579 12.1307553,13.5951495 12.0791897,13.767035 C12.0276241,13.9389204 11.9545738,14.089318 11.8600368,14.218232 C11.7826884,14.3299576 11.6860043,14.4094534 11.5699816,14.4567219 C11.4539589,14.5039904 11.3357894,14.5233272 11.2154696,14.514733 C11.0951498,14.5061387 10.9812774,14.4739107 10.873849,14.4180479 C10.7664206,14.3621851 10.6740335,14.2826893 10.5966851,14.179558 C10.4763653,14.0076726 10.3818297,13.8100073 10.3130755,13.5865562 C10.2443213,13.3631051 10.1755682,13.1568456 10.106814,12.9677716 C10.012277,12.7013492 9.92633556,12.4284851 9.84898711,12.1491713 C9.77163866,11.8698574 9.68999429,11.6012904 9.60405157,11.3434622 C9.5610802,11.2059539 9.50521827,11.0254769 9.43646409,10.8020258 C9.36770991,10.5785747 9.30110529,10.3486814 9.23664825,10.1123389 C9.17219121,9.87599636 9.12062634,9.64610302 9.08195212,9.42265193 C9.04327789,9.19920085 9.02823814,9.01442676 9.03683241,8.86832413 C9.04542669,8.72222149 9.09484301,8.5911608 9.18508287,8.47513812 C9.27532273,8.35911544 9.38489807,8.27317401 9.51381215,8.21731123 C9.64272624,8.16144846 9.77808401,8.14211164 9.9198895,8.15930018 C10.061695,8.17648873 10.1884586,8.24094481 10.3001842,8.35267035 C10.4634753,8.5245558 10.562308,8.70718135 10.5966851,8.90055249 C10.6310622,9.09392362 10.6697358,9.3023316 10.7127072,9.52578269 C10.7814614,9.86955359 10.8609572,10.2090223 10.9511971,10.5441989 C11.0414369,10.8793755 11.138121,11.2145471 11.2412523,11.5497238 C11.2756294,11.4723753 11.314303,11.3778397 11.3572744,11.2661142 C11.4002458,11.1543886 11.4689989,10.9868028 11.5635359,10.7633517 C11.6408844,10.5742778 11.7160831,10.3895037 11.7891344,10.2090239 C11.8621858,10.0285442 11.9330874,9.8480672 12.0018416,9.66758748 C12.0534073,9.53867339 12.1049721,9.41190977 12.1565378,9.28729282 C12.2081034,9.16267587 12.2596683,9.04020932 12.3112339,8.9198895 C12.3713938,8.79097541 12.4594838,8.68569715 12.5755064,8.60405157 C12.6915291,8.52240598 12.8182927,8.47084111 12.9558011,8.44935543 C13.0933095,8.42786975 13.2265187,8.44076097 13.3554328,8.48802947 C13.4843469,8.53529797 13.5874766,8.62338794 13.664825,8.75230203 C13.7765506,8.92418748 13.862492,9.11540717 13.9226519,9.32596685 C13.9828118,9.53652653 14.0472679,9.73634037 14.1160221,9.92541436 C14.2363419,10.2348082 14.3545114,10.5463459 14.4705341,10.8600368 C14.5865567,11.1737278 14.7090233,11.4809684 14.8379374,11.781768 C15.0270114,11.2661116 15.1945972,10.7483144 15.3406998,10.228361 C15.4868024,9.70840747 15.6457941,9.19061031 15.8176796,8.67495396 L15.8692449,8.59760589 Z" id="ww" fill="#2B2B2B"></path>
                <path d="M27.7288037,29.53078 L29.1009521,28.1532506 C29.5009717,27.7516623 29.4907764,27.0974859 29.0784521,26.7086623 L18.9100028,17.1548992 L16.7842801,19.288958 L26.2897998,29.5082506 C26.6771631,29.9221329 27.3287842,29.9323094 27.7288037,29.53078 Z" id="Shape" stroke="#2B2B2B" stroke-width="1.66666667" fill="#FFC55D" fill-rule="nonzero"></path>
            </g>
        </g>
    </g>
</svg>