<?xml version="1.0" encoding="UTF-8"?>
<svg width="64px" height="64px" viewBox="0 0 64 64" version="1.1" xmlns="http://www.w3.org/2000/svg" xmlns:xlink="http://www.w3.org/1999/xlink">
    <!-- Generator: Sketch 47 (45396) - http://www.bohemiancoding.com/sketch -->
    <title>worried</title>
    <desc>Created with Sketch.</desc>
    <defs></defs>
    <g id="Sticker-size-64*64" stroke="none" stroke-width="1" fill="none" fill-rule="evenodd">
        <g id="worried">
            <circle id="Oval-17" fill="#FBDC67" cx="32" cy="32" r="25"></circle>
            <path d="M7.32825656,36.0615544 C9.26843591,47.937035 19.5758335,57 32,57 C45.8071187,57 57,45.8071187 57,32 C57,29.1793298 56.5328672,26.4677644 55.6717434,23.9384456 C55.8877077,25.2603228 56,26.6170477 56,28 C56,41.8071187 44.8071187,53 31,53 C20.0135514,53 10.6823147,45.9131959 7.32825656,36.0615544 Z" id="Combined-Shape" fill="#F2CC5B"></path>
            <path d="M32.0299997,45.6032715 C37.8286133,45.5568848 40.3361816,47.8725586 41.1376953,46.9916992 C41.939209,46.1108398 38.6574167,40.8483887 32.0299997,40.8483887 C25.4025827,40.8483887 22.0856934,45.6962891 22.7822266,46.6813965 C23.4787598,47.6665039 26.2313862,45.6496582 32.0299997,45.6032715 Z" id="Oval-3-Copy" fill="#4C4023"></path>
            <path d="M42,32.5 C46.64653,32.5 49,33.752955 49,32.9587402 C49,32.1645254 46.5387276,29 41.8921976,29 C37.2456676,29 35,32.1328567 35,32.9587402 C35,33.7846238 37.35347,32.5 42,32.5 Z" id="Oval-3-Copy-3" fill="#4C4023"></path>
            <path d="M22,32.5 C26.64653,32.5 29,33.752955 29,32.9587402 C29,32.1645254 26.5387276,29 21.8921976,29 C17.2456676,29 15,32.1328567 15,32.9587402 C15,33.7846238 17.35347,32.5 22,32.5 Z" id="Oval-3-Copy-4" fill="#4C4023"></path>
            <path d="M13.0558822,29.6290154 C11.4826202,29.5585476 10.0312169,28.8797596 8.96855458,27.7176247 C8.71705068,27.4425667 8.46418414,27.025989 8.21326423,26.5027363 C8.17841965,26.4110503 8.13812452,26.3218949 8.09023756,26.2376061 C7.93411826,25.8895496 7.77897228,25.5025606 7.62557827,25.0805324 C7.61292521,25.0384853 7.59696288,24.9974115 7.58138989,24.9567271 C6.62209329,22.2684385 5.73852038,18.2922631 5.14226927,14.7953467 C10.1906455,16.1293685 16.2208992,18.1760496 17.6705505,19.7615753 C19.8640071,22.1605955 19.6967921,25.8971414 17.2975772,28.090598 C16.135637,29.1530657 14.6299229,29.6998726 13.0558822,29.6290154 Z" id="Path" fill="#69CDFF" transform="translate(12.177269, 22.215239) rotate(41.000000) translate(-12.177269, -22.215239) "></path>
        </g>
    </g>
</svg>