<?xml version="1.0" encoding="UTF-8"?>
<svg width="64px" height="64px" viewBox="0 0 64 64" version="1.1" xmlns="http://www.w3.org/2000/svg" xmlns:xlink="http://www.w3.org/1999/xlink">
    <!-- Generator: Sketch 46.2 (44496) - http://www.bohemiancoding.com/sketch -->
    <title>storage</title>
    <desc>Created with Sketch.</desc>
    <defs>
        <path d="M14,10.6666667 L46.2051282,10.6666667 L54.6666667,19.1282051 L54.6666667,51.3333333 L54.6666667,51.3333333 C54.6666667,53.1742825 53.1742825,54.6666667 51.3333333,54.6666667 L14,54.6666667 L14,54.6666667 C12.1590508,54.6666667 10.6666667,53.1742825 10.6666667,51.3333333 L10.6666667,14 L10.6666667,14 C10.6666667,12.1590508 12.1590508,10.6666667 14,10.6666667 Z" id="path-1"></path>
        <rect id="path-2" x="18.6666667" y="33.3333333" width="26.6666667" height="21.3333333"></rect>
        <rect id="path-3" x="18.6666667" y="10.6666667" width="26.6666667" height="14.6666667"></rect>
    </defs>
    <g id="Sticker-size-64*64" stroke="none" stroke-width="1" fill="none" fill-rule="evenodd">
        <g id="storage">
            <rect id="Rectangle" x="0" y="0" width="64" height="64"></rect>
            <g id="Rectangle-104">
                <use fill="#07EBF5" fill-rule="evenodd" xlink:href="#path-1"></use>
                <path stroke="#2B2B2B" stroke-width="1.66666667" d="M53.8333333,19.4733831 L45.8599502,11.5 L14,11.5 C12.6192881,11.5 11.5,12.6192881 11.5,14 L11.5,51.3333333 C11.5,52.7140452 12.6192881,53.8333333 14,53.8333333 L51.3333333,53.8333333 C52.7140452,53.8333333 53.8333333,52.7140452 53.8333333,51.3333333 L53.8333333,19.4733831 Z"></path>
            </g>
            <g id="Rectangle">
                <use fill="#F0ECFF" fill-rule="evenodd" xlink:href="#path-2"></use>
                <rect stroke="#2B2B2B" stroke-width="1.66666667" x="19.5" y="34.1666667" width="25" height="19.6666667"></rect>
            </g>
            <g id="Rectangle-105">
                <use fill="#FFDC64" fill-rule="evenodd" xlink:href="#path-3"></use>
                <rect stroke="#2B2B2B" stroke-width="1.66666667" x="19.5" y="11.5" width="25" height="13"></rect>
            </g>
            <rect id="Rectangle-106" fill="#2B2B2B" x="33.3333333" y="13.3333333" width="1.66666667" height="8" rx="0.833333333"></rect>
            <rect id="Rectangle-106" fill="#2B2B2B" x="38.6666667" y="13.3333333" width="1.66666667" height="8" rx="0.833333333"></rect>
            <rect id="Rectangle-107" fill="#2B2B2B" x="24" y="48" width="17.3333333" height="1.66666667" rx="0.833333333"></rect>
            <rect id="Rectangle-107" fill="#2B2B2B" x="24" y="44" width="17.3333333" height="1.66666667" rx="0.833333333"></rect>
            <rect id="Rectangle-107" fill="#2B2B2B" x="24" y="38.6666667" width="17.3333333" height="1.66666667" rx="0.833333333"></rect>
        </g>
    </g>
</svg>