<?xml version="1.0" encoding="UTF-8"?>
<svg width="64px" height="64px" viewBox="0 0 64 64" version="1.1" xmlns="http://www.w3.org/2000/svg" xmlns:xlink="http://www.w3.org/1999/xlink">
    <!-- Generator: Sketch 46.2 (44496) - http://www.bohemiancoding.com/sketch -->
    <title>news</title>
    <desc>Created with Sketch.</desc>
    <defs>
        <path d="M0,3.33333333 L35,3.33333333 L35,24.6785482 L38.3333333,46.6666667 L6.66666667,46.6666667 L6.66666667,46.6666667 C2.98476833,46.6666667 -4.37275919e-16,43.6818983 -8.8817842e-16,40 L0,3.33333333 Z" id="path-1"></path>
        <path d="M33.3333333,18.3333333 L41.8949382,18.3333333 L45,32.5 L45,40.8333333 L45,40.8333333 C45,44.0549944 42.3883277,46.6666667 39.1666667,46.6666667 L39.1666667,46.6666667 L39.1666667,46.6666667 C35.9450056,46.6666667 33.3333333,44.0549944 33.3333333,40.8333333 L33.3333333,18.3333333 Z" id="path-2"></path>
        <polygon id="path-3" points="33.3333333 18.3333333 41.8206787 18.3333333 39.1666667 23.474528 39.1666667 32.5 33.3333333 32.5"></polygon>
        <rect id="path-4" x="0" y="1.66666667" width="35" height="15"></rect>
    </defs>
    <g id="Sticker-size-64*64" stroke="none" stroke-width="1" fill="none" fill-rule="evenodd">
        <g id="news">
            <g id="Group" transform="translate(9.333333, 6.666667)">
                <g id="Rectangle-86">
                    <use fill="#FFFFFF" fill-rule="evenodd" xlink:href="#path-1"></use>
                    <path stroke="#2B2B2B" stroke-width="1.66666667" d="M0.833333333,4.16666667 L0.833333333,40 C0.833333333,43.221661 3.44500563,45.8333333 6.66666667,45.8333333 L37.3641478,45.8333333 L34.1760804,24.8034519 L34.1666667,24.6785482 L34.1666667,4.16666667 L0.833333333,4.16666667 Z"></path>
                </g>
                <g id="Rectangle-87">
                    <use fill="#E9F4F5" fill-rule="evenodd" xlink:href="#path-2"></use>
                    <path stroke="#2B2B2B" stroke-width="1.66666667" d="M34.1666667,19.1666667 L34.1666667,40.8333333 C34.1666667,43.5947571 36.4052429,45.8333333 39.1666667,45.8333333 C41.9280904,45.8333333 44.1666667,43.5947571 44.1666667,40.8333333 L44.1666667,32.5902541 L41.2244735,19.1666667 L34.1666667,19.1666667 Z"></path>
                </g>
                <g id="Rectangle-3">
                    <use fill="#FFFFFF" fill-rule="evenodd" xlink:href="#path-3"></use>
                    <path stroke="#2B2B2B" stroke-width="1.66666667" d="M34.1666667,19.1666667 L34.1666667,31.6666667 L38.3333333,31.6666667 L38.3333333,23.2721234 L40.4526718,19.1666667 L34.1666667,19.1666667 Z"></path>
                </g>
                <path d="M45,18.3333333 L45,28.75 C45,30.8210678 43.3210678,32.5 41.25,32.5 C39.1789322,32.5 37.5,30.8210678 37.5,28.75 L37.5,18.3333333" id="Rectangle" fill="#E9F4F5" transform="translate(41.250000, 25.416667) scale(1, -1) translate(-41.250000, -25.416667) "></path>
                <path d="M39.1666667,18.3333333 L39.1666667,28.75 C39.1666667,29.9005932 40.0994068,30.8333333 41.25,30.8333333 C42.4005932,30.8333333 43.3333333,29.9005932 43.3333333,28.75 L43.3333333,18.3333333 L45,18.3333333 L45,28.75 C45,30.8210678 43.3210678,32.5 41.25,32.5 C39.1789322,32.5 37.5,30.8210678 37.5,28.75 L37.5,18.3333333 L39.1666667,18.3333333 Z M39.1666667,18.3333333 L39.1666667,28.75 C39.1666667,29.9005932 40.0994068,30.8333333 41.25,30.8333333 C42.4005932,30.8333333 43.3333333,29.9005932 43.3333333,28.75 L43.3333333,18.3333333 L45,18.3333333 L45,28.75 C45,30.8210678 43.3210678,32.5 41.25,32.5 C39.1789322,32.5 37.5,30.8210678 37.5,28.75 L37.5,18.3333333 L38.3333333,18.3333333 L39.1666667,18.3333333 Z" id="Rectangle" fill="#2B2B2B" fill-rule="nonzero" transform="translate(41.250000, 25.416667) scale(1, -1) translate(-41.250000, -25.416667) "></path>
                <rect id="Rectangle-2" fill="#2B2B2B" x="33.3333333" y="30.8333333" width="5" height="1.66666667"></rect>
                <g id="Rectangle-88">
                    <use fill="#ED6969" fill-rule="evenodd" xlink:href="#path-4"></use>
                    <rect stroke="#2B2B2B" stroke-width="1.66666667" x="0.833333333" y="2.5" width="33.3333333" height="13.3333333"></rect>
                </g>
                <text id="News" font-family="ChalkboardSE-Bold, Chalkboard SE" font-size="10" font-weight="bold" fill="#FFFFFF">
                    <tspan x="5" y="11.8333333">News</tspan>
                </text>
                <rect id="Rectangle-89" fill="#BDCFD1" x="5" y="20" width="6.66666667" height="6.66666667" rx="1.66666667"></rect>
                <rect id="Rectangle-89-Copy" fill="#BDCFD1" x="15" y="21.6666667" width="13.3333333" height="3.33333333" rx="1.66666667"></rect>
                <rect id="Rectangle-89-Copy-2" fill="#BDCFD1" x="5" y="30" width="23.3333333" height="3.33333333" rx="1.66666667"></rect>
                <rect id="Rectangle-89-Copy-3" fill="#BDCFD1" x="5" y="36.6666667" width="23.3333333" height="3.33333333" rx="1.66666667"></rect>
            </g>
            <rect id="Rectangle" x="0" y="0" width="64" height="64"></rect>
        </g>
    </g>
</svg>