<?xml version="1.0" encoding="UTF-8"?>
<svg width="64px" height="64px" viewBox="0 0 64 64" version="1.1" xmlns="http://www.w3.org/2000/svg" xmlns:xlink="http://www.w3.org/1999/xlink">
    <!-- Generator: Sketch 46.2 (44496) - http://www.bohemiancoding.com/sketch -->
    <title>moon</title>
    <desc>Created with Sketch.</desc>
    <defs>
        <path d="M0.543449179,15.9646739 C5.50890723,15.9646739 25.5911612,15.9646739 29.0675871,15.9646739 C30.6589487,12.0803304 28.0957119,8.73278027 24.101331,8.68478261 C24.0949719,-0.578462277 10.7533642,-3.85513243 7.54714376,6.00271739 C2.51713983,5.9706008 -1.41360484,9.20083237 0.543449179,15.9646739 Z" id="path-1"></path>
        <path d="M29.507224,38.6235537 C34.4879159,38.6235537 54.6531503,38.6235537 58.2054391,38.6235537 C59.741878,34.7098097 57.1680499,31.336922 53.1507787,31.336922 C53.1507787,21.9552028 39.7540432,18.6537316 36.5663758,28.5538356 C31.4837865,28.5538356 27.5367999,31.8085168 29.507224,38.6235537 Z" id="path-2"></path>
    </defs>
    <g id="Sticker-size-64*64" stroke="none" stroke-width="1" fill="none" fill-rule="evenodd">
        <g id="moon">
            <g id="Group-3" transform="translate(2.666667, 13.333333)">
                <g id="Group" transform="translate(0.000000, 18.282609)">
                    <g id="Group-2" transform="translate(15.542857, 8.000000) scale(-1, 1) translate(-15.542857, -8.000000) translate(0.209524, 0.000000)">
                        <g id="Path-26" transform="translate(14.788473, 7.983583) scale(-1, 1) translate(-14.788473, -7.983583) ">
                            <use fill="#FFFFFF" fill-rule="evenodd" xlink:href="#path-1"></use>
                            <path stroke="#2B2B2B" stroke-width="1.5625" d="M1.143118,15.1834239 C4.238964,15.1834239 4.57099745,15.1834239 10.3426447,15.1834239 L23.4939228,15.1834239 C26.7546941,15.1834239 27.0944294,15.1834239 28.5198627,15.1834239 C29.4801801,12.1127449 27.4674313,9.50653707 24.0919439,9.46597621 L23.3206107,9.45670764 L23.3200811,8.68531893 C23.3141035,-0.0223126616 11.1188698,-2.45302812 8.29008551,6.24435579 L8.1133982,6.78759885 L7.54215558,6.78395147 C2.56706784,6.75218551 -0.163912631,9.84460935 1.143118,15.1834239 Z"></path>
                        </g>
                        <path d="M3.08692104,12.9217582 C6.44716636,12.9217582 24.15814,12.9217582 26.5107213,12.9217582 C26.5107213,11.9561741 23.3205985,11.2514755 20.903683,12.1034705 C23.1882394,1.25763736 10.5577288,-0.0880392323 9.934375,9.33885392 C6.7426409,8.73550813 3.08692104,9.1199102 3.08692104,12.9217582 Z" id="Path-26" fill="#E9F4F5" transform="translate(14.798821, 7.981343) scale(-1, 1) translate(-14.798821, -7.981343) "></path>
                    </g>
                </g>
                <polygon id="Path-23" fill="#FFFFFF" points="16.9457217 29.6328974 20.5787295 30.1171132 27.1833333 26.9055282 33.2250465 29.0837296 30.1300688 33.0833581 24.8725353 33.8261506 19.4996001 31.9794816"></polygon>
                <path d="M20.0195785,31.3461532 C22.7911703,33.4356377 26.2370443,34.673913 29.9712781,34.673913 C39.1273703,34.673913 46.5498496,27.2294304 46.5498496,18.0461957 C46.5498496,8.86296091 39.1273703,1.41847826 29.9712781,1.41847826 C25.9960703,1.41847826 22.3476394,2.82172454 19.4915447,5.1612779 C19.9090326,5.12101965 20.3322483,5.10042339 20.7602603,5.10042339 C27.9920846,5.10042339 33.8546365,10.9803544 33.8546365,18.2336169 C33.8546365,25.4868795 27.9920846,31.3668105 20.7602603,31.3668105 C20.5116878,31.3668105 20.2647331,31.3598637 20.0195785,31.3461532 L20.0195785,31.3461532 Z" id="Combined-Shape" fill="#FFC55D"></path>
                <path d="M27.2619048,33.0978261 C35.9406651,33.0978261 42.9761905,26.0414444 42.9761905,17.3369565 C42.9761905,8.63246862 35.9406651,1.57608696 27.2619048,1.57608696 C24.2878053,1.57608696 21.451383,2.40921667 19.0182072,3.91498016 C26.2017184,4.1627498 31.9493722,10.0815139 31.9493722,17.346694 C31.9493722,24.6018149 26.2176235,30.5142456 19.0480373,30.777346 C21.4746788,32.2715874 24.3000692,33.0978261 27.2619048,33.0978261 Z M18.5493075,29.2103952 C25.0820828,29.2103952 30.3779436,23.8988352 30.3779436,17.346694 C30.3779436,10.7945527 25.0820828,5.48299273 18.5493075,5.48299273 C16.8518075,5.48299273 15.2378223,5.8416224 13.7785635,6.48745923 C16.9466972,2.5319273 21.8094933,0 27.2619048,0 C36.8085412,0 44.547619,7.76201983 44.547619,17.3369565 C44.547619,26.9118932 36.8085412,34.673913 27.2619048,34.673913 C21.8233621,34.673913 16.9714393,32.1548499 13.8027719,28.2166103 C15.2556646,28.8557186 16.8611889,29.2103952 18.5493075,29.2103952 Z" id="Combined-Shape" fill="#2B2B2B" fill-rule="nonzero"></path>
                <g id="Path-26">
                    <use fill="#FFFFFF" fill-rule="evenodd" xlink:href="#path-2"></use>
                    <path stroke="#2B2B2B" stroke-width="1.5625" d="M30.1068706,37.8423037 C34.3424216,37.8423037 34.6747253,37.8423037 42.3548449,37.8423037 L43.5681227,37.8423037 L52.5873159,37.8423037 C55.8641467,37.8423037 56.2066636,37.8423037 57.6489876,37.8423037 C58.5699443,34.7344141 56.5283436,32.118172 53.1507787,32.118172 L52.3695287,32.118172 L52.3695287,31.336922 C52.3695287,22.5270466 40.1276016,20.0425942 37.3100278,28.7932791 L37.1355752,29.3350856 L36.5663758,29.3350856 C31.5307897,29.3350856 28.7862749,32.4548625 30.1068706,37.8423037 Z"></path>
                </g>
            </g>
            <rect id="Rectangle" x="0" y="0" width="64" height="64"></rect>
        </g>
    </g>
</svg>