<?xml version="1.0" encoding="UTF-8"?>
<svg width="64px" height="64px" viewBox="0 0 64 64" version="1.1" xmlns="http://www.w3.org/2000/svg" xmlns:xlink="http://www.w3.org/1999/xlink">
    <!-- Generator: Sketch 47 (45396) - http://www.bohemiancoding.com/sketch -->
    <title>smile</title>
    <desc>Created with Sketch.</desc>
    <defs></defs>
    <g id="Sticker-size-64*64" stroke="none" stroke-width="1" fill="none" fill-rule="evenodd">
        <g id="smile">
            <circle id="Oval-17" fill="#FBDC67" cx="32" cy="32" r="25"></circle>
            <path d="M7.32825656,36.0615544 C9.26843591,47.937035 19.5758335,57 32,57 C45.8071187,57 57,45.8071187 57,32 C57,29.1793298 56.5328672,26.4677644 55.6717434,23.9384456 C55.8877077,25.2603228 56,26.6170477 56,28 C56,41.8071187 44.8071187,53 31,53 C20.0135514,53 10.6823147,45.9131959 7.32825656,36.0615544 Z" id="Combined-Shape" fill="#F2CC5B"></path>
            <g id="Group-44-Copy-2" transform="translate(17.000000, 21.000000)" fill="#4C4023">
                <g id="Group-34">
                    <path d="M27.2559198,17.1779555 C24.9092494,21.7191951 20.170094,24.8235294 14.7058824,24.8235294 C9.25796521,24.8235294 4.53078635,21.737682 2.17690227,17.2185435 C1.9950893,16.9410471 1.88936121,16.6092134 1.88936121,16.2526855 C1.88936121,15.2780654 2.67944695,14.4879797 3.6540671,14.4879797 C4.33828431,14.4879797 4.93155323,14.8773756 5.22435321,15.4466469 L5.23340511,15.442121 C6.97175711,18.9120614 10.5606402,21.2941176 14.7058824,21.2941176 C18.8511245,21.2941176 22.4400076,18.9120614 24.1783596,15.442121 L24.1836322,15.4447573 C24.4767723,14.8765141 25.0694851,14.4879797 25.7529449,14.4879797 C26.7275651,14.4879797 27.5176508,15.2780654 27.5176508,16.2526855 C27.5176508,16.5919923 27.4218899,16.908933 27.2559198,17.1779555 Z" id="Combined-Shape"></path>
                    <circle id="Oval-3" cx="4.11764706" cy="3.64705882" r="3.52941176"></circle>
                    <circle id="Oval-3-Copy" cx="25.2941176" cy="3.64705882" r="3.52941176"></circle>
                </g>
            </g>
        </g>
    </g>
</svg>