<?xml version="1.0" encoding="UTF-8"?>
<svg width="64px" height="64px" viewBox="0 0 64 64" version="1.1" xmlns="http://www.w3.org/2000/svg" xmlns:xlink="http://www.w3.org/1999/xlink">
    <!-- Generator: Sketch 46.2 (44496) - http://www.bohemiancoding.com/sketch -->
    <title>snow</title>
    <desc>Created with Sketch.</desc>
    <defs>
        <ellipse id="path-1" cx="18.1513173" cy="19.1504986" rx="5.28030303" ry="5.3125"></ellipse>
    </defs>
    <g id="Sticker-size-64*64" stroke="none" stroke-width="1" fill="none" fill-rule="evenodd">
        <g id="snow">
            <rect id="Rectangle" x="0" y="0" width="64" height="64"></rect>
            <ellipse id="Oval-20" fill="#E9F4F5" transform="translate(30.284091, 34.385417) rotate(-360.000000) translate(-30.284091, -34.385417) " cx="30.2840909" cy="34.3854167" rx="19.2575758" ry="19.375"></ellipse>
            <g id="Group-4" transform="translate(5.333333, 6.666667)">
                <g id="Group-5-Copy" transform="translate(37.375000, 29.125000)">
                    <g id="Group-2">
                        <g id="Group">
                            <rect id="Rectangle-43" fill="#2B2B2B" x="1.5530303" y="0" width="1.5530303" height="18.75" rx="0.776515152"></rect>
                            <polyline id="Rectangle-44" stroke="#2B2B2B" stroke-width="1.5625" stroke-linecap="round" transform="translate(2.329545, 2.343750) rotate(45.000000) translate(-2.329545, -2.343750) " points="3.88257576 0.78125 3.88257576 3.90625 0.776515152 3.90625"></polyline>
                            <polyline id="Rectangle-44-Copy" stroke="#2B2B2B" stroke-width="1.5625" stroke-linecap="round" transform="translate(2.329545, 16.093750) scale(1, -1) rotate(45.000000) translate(-2.329545, -16.093750) " points="3.88257576 14.53125 3.88257576 17.65625 0.776515152 17.65625"></polyline>
                        </g>
                    </g>
                </g>
                <g id="Group-5-Copy" transform="translate(39.331840, 39.104456) rotate(60.000000) translate(-39.331840, -39.104456) translate(36.665174, 29.104456)">
                    <g id="Group-2">
                        <g id="Group">
                            <rect id="Rectangle-43" fill="#2B2B2B" x="1.5530303" y="0" width="1.5530303" height="18.75" rx="0.776515152"></rect>
                            <polyline id="Rectangle-44" stroke="#2B2B2B" stroke-width="1.5625" stroke-linecap="round" transform="translate(2.329545, 2.343750) rotate(45.000000) translate(-2.329545, -2.343750) " points="3.88257576 0.78125 3.88257576 3.90625 0.776515152 3.90625"></polyline>
                            <polyline id="Rectangle-44-Copy" stroke="#2B2B2B" stroke-width="1.5625" stroke-linecap="round" transform="translate(2.329545, 16.093750) scale(1, -1) rotate(45.000000) translate(-2.329545, -16.093750) " points="3.88257576 14.53125 3.88257576 17.65625 0.776515152 17.65625"></polyline>
                        </g>
                    </g>
                </g>
                <g id="Group-5-Copy" transform="translate(38.994719, 38.479456) rotate(120.000000) translate(-38.994719, -38.479456) translate(36.328052, 28.479456)">
                    <g id="Group-2">
                        <g id="Group">
                            <rect id="Rectangle-43" fill="#2B2B2B" x="1.5530303" y="0" width="1.5530303" height="18.75" rx="0.776515152"></rect>
                            <polyline id="Rectangle-44" stroke="#2B2B2B" stroke-width="1.5625" stroke-linecap="round" transform="translate(2.329545, 2.343750) rotate(45.000000) translate(-2.329545, -2.343750) " points="3.88257576 0.78125 3.88257576 3.90625 0.776515152 3.90625"></polyline>
                            <polyline id="Rectangle-44-Copy" stroke="#2B2B2B" stroke-width="1.5625" stroke-linecap="round" transform="translate(2.329545, 16.093750) scale(1, -1) rotate(45.000000) translate(-2.329545, -16.093750) " points="3.88257576 14.53125 3.88257576 17.65625 0.776515152 17.65625"></polyline>
                        </g>
                    </g>
                </g>
                <g id="Group-3" transform="translate(18.001102, 19.355903) rotate(180.000000) translate(-18.001102, -19.355903) translate(15.334435, 0.689237)">
                    <g id="Group-7" transform="translate(0.000000, 21.958333)">
                        <polygon id="Rectangle" fill="#2B2B2B" points="1.70833333 -3.41060513e-13 3.26136364 -3.41060513e-13 3.26136364 9.21875 1.70833333 9.21875"></polygon>
                        <polyline id="Rectangle-44" stroke="#2B2B2B" stroke-width="1.5625" stroke-linecap="round" transform="translate(2.534367, 11.728955) scale(1, -1) rotate(45.000000) translate(-2.534367, -11.728955) " points="4.32035152 9.93208015 4.32035152 13.5258301 0.748381827 13.5258301"></polyline>
                        <polyline id="Rectangle-44" stroke="#2B2B2B" stroke-width="1.5625" stroke-linecap="round" transform="translate(2.534367, 8.135205) scale(1, -1) rotate(45.000000) translate(-2.534367, -8.135205) " points="4.32035152 6.33833015 4.32035152 9.93208015 0.748381827 9.93208015"></polyline>
                    </g>
                    <g id="Group-7" transform="translate(2.666667, 8.375000) scale(1, -1) translate(-2.666667, -8.375000) translate(0.000000, 1.041667)">
                        <polygon id="Rectangle" fill="#2B2B2B" points="1.70833333 -3.41060513e-13 3.26136364 -3.41060513e-13 3.26136364 9.21875 1.70833333 9.21875"></polygon>
                        <polyline id="Rectangle-44" stroke="#2B2B2B" stroke-width="1.5625" stroke-linecap="round" transform="translate(2.534367, 11.728955) scale(1, -1) rotate(45.000000) translate(-2.534367, -11.728955) " points="4.32035152 9.93208015 4.32035152 13.5258301 0.748381827 13.5258301"></polyline>
                        <polyline id="Rectangle-44" stroke="#2B2B2B" stroke-width="1.5625" stroke-linecap="round" transform="translate(2.534367, 8.135205) scale(1, -1) rotate(45.000000) translate(-2.534367, -8.135205) " points="4.32035152 6.33833015 4.32035152 9.93208015 0.748381827 9.93208015"></polyline>
                    </g>
                </g>
                <g id="Group-3" transform="translate(18.197523, 19.362781) rotate(120.000000) translate(-18.197523, -19.362781) translate(15.530856, 0.696114)">
                    <g id="Group-7" transform="translate(0.000000, 21.958333)">
                        <polygon id="Rectangle" fill="#2B2B2B" points="1.70833333 -3.41060513e-13 3.26136364 -3.41060513e-13 3.26136364 9.21875 1.70833333 9.21875"></polygon>
                        <polyline id="Rectangle-44" stroke="#2B2B2B" stroke-width="1.5625" stroke-linecap="round" transform="translate(2.534367, 11.728955) scale(1, -1) rotate(45.000000) translate(-2.534367, -11.728955) " points="4.32035152 9.93208015 4.32035152 13.5258301 0.748381827 13.5258301"></polyline>
                        <polyline id="Rectangle-44" stroke="#2B2B2B" stroke-width="1.5625" stroke-linecap="round" transform="translate(2.534367, 8.135205) scale(1, -1) rotate(45.000000) translate(-2.534367, -8.135205) " points="4.32035152 6.33833015 4.32035152 9.93208015 0.748381827 9.93208015"></polyline>
                    </g>
                    <g id="Group-7" transform="translate(2.666667, 8.375000) scale(1, -1) translate(-2.666667, -8.375000) translate(0.000000, 1.041667)">
                        <polygon id="Rectangle" fill="#2B2B2B" points="1.70833333 -3.41060513e-13 3.26136364 -3.41060513e-13 3.26136364 9.21875 1.70833333 9.21875"></polygon>
                        <polyline id="Rectangle-44" stroke="#2B2B2B" stroke-width="1.5625" stroke-linecap="round" transform="translate(2.534367, 11.728955) scale(1, -1) rotate(45.000000) translate(-2.534367, -11.728955) " points="4.32035152 9.93208015 4.32035152 13.5258301 0.748381827 13.5258301"></polyline>
                        <polyline id="Rectangle-44" stroke="#2B2B2B" stroke-width="1.5625" stroke-linecap="round" transform="translate(2.534367, 8.135205) scale(1, -1) rotate(45.000000) translate(-2.534367, -8.135205) " points="4.32035152 6.33833015 4.32035152 9.93208015 0.748381827 9.93208015"></polyline>
                    </g>
                </g>
                <g id="Group-3" transform="translate(17.908847, 19.182359) rotate(240.000000) translate(-17.908847, -19.182359) translate(15.242181, 0.515692)">
                    <g id="Group-7" transform="translate(0.000000, 21.958333)">
                        <polygon id="Rectangle" fill="#2B2B2B" points="1.70833333 -3.41060513e-13 3.26136364 -3.41060513e-13 3.26136364 9.21875 1.70833333 9.21875"></polygon>
                        <polyline id="Rectangle-44" stroke="#2B2B2B" stroke-width="1.5625" stroke-linecap="round" transform="translate(2.534367, 11.728955) scale(1, -1) rotate(45.000000) translate(-2.534367, -11.728955) " points="4.32035152 9.93208015 4.32035152 13.5258301 0.748381827 13.5258301"></polyline>
                        <polyline id="Rectangle-44" stroke="#2B2B2B" stroke-width="1.5625" stroke-linecap="round" transform="translate(2.534367, 8.135205) scale(1, -1) rotate(45.000000) translate(-2.534367, -8.135205) " points="4.32035152 6.33833015 4.32035152 9.93208015 0.748381827 9.93208015"></polyline>
                    </g>
                    <g id="Group-7" transform="translate(2.666667, 8.375000) scale(1, -1) translate(-2.666667, -8.375000) translate(0.000000, 1.041667)">
                        <polygon id="Rectangle" fill="#2B2B2B" points="1.70833333 -3.41060513e-13 3.26136364 -3.41060513e-13 3.26136364 9.21875 1.70833333 9.21875"></polygon>
                        <polyline id="Rectangle-44" stroke="#2B2B2B" stroke-width="1.5625" stroke-linecap="round" transform="translate(2.534367, 11.728955) scale(1, -1) rotate(45.000000) translate(-2.534367, -11.728955) " points="4.32035152 9.93208015 4.32035152 13.5258301 0.748381827 13.5258301"></polyline>
                        <polyline id="Rectangle-44" stroke="#2B2B2B" stroke-width="1.5625" stroke-linecap="round" transform="translate(2.534367, 8.135205) scale(1, -1) rotate(45.000000) translate(-2.534367, -8.135205) " points="4.32035152 6.33833015 4.32035152 9.93208015 0.748381827 9.93208015"></polyline>
                    </g>
                </g>
                <g id="Oval-19" transform="translate(18.151317, 19.150499) rotate(60.000000) translate(-18.151317, -19.150499) ">
                    <use fill="#FFC55D" fill-rule="evenodd" xlink:href="#path-1"></use>
                    <ellipse stroke="#2B2B2B" stroke-width="1.5625" cx="18.1513173" cy="19.1504986" rx="4.49905303" ry="4.53125"></ellipse>
                </g>
            </g>
        </g>
    </g>
</svg>