<?xml version="1.0" encoding="UTF-8"?>
<svg width="64px" height="64px" viewBox="0 0 64 64" version="1.1" xmlns="http://www.w3.org/2000/svg" xmlns:xlink="http://www.w3.org/1999/xlink">
    <!-- Generator: Sketch 47 (45396) - http://www.bohemiancoding.com/sketch -->
    <title>book</title>
    <desc>Created with Sketch.</desc>
    <defs>
        <path d="M11.2389047,34.8588562 L7.49218169,35.8121309 L6.40625,35.8753586 L6.40625,7.96875 L22.2262765,3.88190982 L22.2262765,3.88190982 C23.4795499,3.55814752 24.75799,4.31166518 25.0817523,5.56493862 C25.1312185,5.75642073 25.15625,5.95339383 25.15625,6.15116214 L25.15625,28.2187353 L25.15625,28.2187353 C25.15625,29.2081293 24.5349539,30.0909578 23.6036293,30.4249263" id="path-1"></path>
        <path d="M5.04266019,5.32152895 L24.8581872,0.137234081 L24.8581872,0.137234081 C25.3908521,-0.00212591582 25.9555768,0.0504928057 26.4533259,0.285862536 L40.012846,6.69772862 L40.012846,6.69772862 C41.1830291,7.25107103 41.6830773,8.64826453 41.1297349,9.81844765 C40.8333896,10.4451451 40.2748132,10.908502 39.6041545,11.083965 L19.7886275,16.2682599 L19.7886275,16.2682599 C19.2559626,16.4076199 18.6912379,16.3550012 18.1934888,16.1196314 L4.63396874,9.70776535 L4.63396874,9.70776535 C3.46378562,9.15442294 2.96373741,7.75722944 3.51707982,6.58704632 C3.81342515,5.96034883 4.37200155,5.49699197 5.04266019,5.32152895 Z" id="path-2"></path>
    </defs>
    <g id="Sticker-size-64*64" stroke="none" stroke-width="1" fill="none" fill-rule="evenodd">
        <g id="book">
            <rect id="Rectangle" x="0" y="0" width="64" height="64"></rect>
            <g id="Group-4" transform="translate(7.666667, 8.000000)">
                <g id="Group-3" transform="translate(0.135417, 0.229167)">
                    <polygon id="Path-3" fill="#2B2B2B" fill-rule="nonzero" points="52.6454264 38.1742757 51.6363886 37.3553372 50.7467494 38.5630384 51.9138637 39.4227796"></polygon>
                    <g id="Group">
                        <path d="M1.09222412,6.59240723 C1.09222412,7.03023275 1.1130778,15.2605184 1.15478516,31.2832642 L3.07495117,34.1671753 L6.9317627,34.8822021 L6.97143555,8.90411377 L3.73046875,8.23425293 C1.971639,6.70186361 1.09222412,6.15458171 1.09222412,6.59240723 Z" id="Path-2" fill="#FFFFFF"></path>
                        <polygon id="Rectangle-6" fill="#D2D9F3" points="2.02033997 5.97396851 17.4250031 1.9934082 23.3443385 4.30056871 5.15014648 8.7121582"></polygon>
                        <g id="Rectangle-6">
                            <use fill="#8497DD" fill-rule="evenodd" xlink:href="#path-1"></use>
                            <path stroke="#2B2B2B" stroke-width="1.5625" d="M11.0102147,34.1109013 L23.3399195,29.6895293 C23.9608026,29.4668836 24.375,28.8783313 24.375,28.2187353 L24.375,6.15116214 C24.375,6.0193166 24.3583123,5.8880012 24.3253349,5.76034646 C24.1094933,4.92483083 23.2572,4.42248572 22.4216843,4.63832726 L7.1875,8.57382488 L7.1875,35.0472977 L7.37206661,35.0365514 L11.0102147,34.1109013 Z"></path>
                        </g>
                        <path d="M1.71875,6.05389976 L1.71875,31.3135912 L1.70772552,31.0543823 L0.15625,31.3301468 L0.931987762,31.3301468 L0.15625,31.3301468 L0.15625,4.84375 L16.2422423,0.688201979 C17.381751,0.39382892 18.5441417,1.07894666 18.8385148,2.21845527 C18.8834907,2.39255575 18.90625,2.57164878 18.90625,2.75146484 L18.90625,4.79397229 C18.90625,5.25626707 18.7695342,5.70823735 18.5133016,6.09302471 L17.2127672,5.22698977 C17.2981781,5.09872731 17.34375,4.94807055 17.34375,4.79397229 L17.34375,2.75146484 C17.34375,2.70349432 17.3376784,2.65571669 17.3256799,2.60927095 C17.2471484,2.30527796 16.937051,2.12250533 16.633058,2.20103685 L1.71875,6.05389976 Z M1.71875,6.05389976 L1.70772552,31.3301468 L1.70772552,29.7676468 L0.15625,29.7676468 L0.15625,31.3301468 L0.931987762,31.3301468 L0.15625,31.3301468 L0.15625,4.84375 L16.2422423,0.688201979 C17.381751,0.39382892 18.5441417,1.07894666 18.8385148,2.21845527 C18.8834907,2.39255575 18.90625,2.57164878 18.90625,2.75146484 L18.90625,4.79397229 C18.90625,5.25626707 18.7695342,5.70823735 18.5133016,6.09302471 L17.2127672,5.22698977 C17.2981781,5.09872731 17.34375,4.94807055 17.34375,4.79397229 L17.34375,2.75146484 C17.34375,2.70349432 17.3376784,2.65571669 17.3256799,2.60927095 C17.2471484,2.30527796 16.937051,2.12250533 16.633058,2.20103685 L1.71875,6.05389976 Z" id="Rectangle-6" fill="#2B2B2B" fill-rule="nonzero"></path>
                        <path d="M1.69082543,4.56414958 C1.01950723,4.69634899 0.415032961,4.81476035 0.150596803,4.86490247 C0.782350308,7.52270442 3.302158,9.43832397 6.173172,9.43832397 C6.79676424,9.43832397 7.51341523,9.45408039 7.96731197,9.17698961 C7.85401329,8.76515312 7.59955531,8.2672474 7.27560501,7.74545214 C6.92205615,7.83067486 6.55288664,7.87582397 6.173172,7.87582397 C4.06310104,7.87582397 2.2786656,6.48161259 1.69082543,4.56414958 Z" id="Combined-Shape" fill="#2B2B2B"></path>
                        <path d="M1.69082543,31.015625 C1.01950723,31.1478244 0.415032961,31.2662358 0.150596803,31.3163779 C0.782350308,33.9741798 3.302158,35.8897994 6.173172,35.8897994 C6.79676424,35.8897994 7.51341523,35.9055558 7.96731197,35.628465 C7.85401329,35.2166285 7.59955531,34.7187228 7.27560501,34.1969276 C6.92205615,34.2821503 6.55288664,34.3272994 6.173172,34.3272994 C4.06310104,34.3272994 2.2786656,32.933088 1.69082543,31.015625 Z" id="Combined-Shape" fill="#2B2B2B"></path>
                        <polygon id="Rectangle-6" fill="#D2D9F3" points="8.49777222 4.30056871 17.4250031 1.9934082 22.224884 3.87359619 10.4457092 6.92428589"></polygon>
                        <polygon id="Rectangle-7" fill="#FFFFFF" points="11.875 12.5 20.625 10 20.625 15.9375 11.875 18.4375"></polygon>
                        <polygon id="Rectangle-7" fill="#FFFFFF" points="11.875 20.3125 20.625 17.8125 20.625 19.375 11.875 21.875"></polygon>
                    </g>
                    <g id="Group-2" transform="translate(10.687500, 23.885417)">
                        <path d="M2.13659668,14.1054586 C3.29029904,14.3425952 13.5212199,22.5101725 19.7806803,22.1415202 C26.0401408,21.7728678 41.1200358,16.1666667 41.1200358,16.1666667 L41.1200358,8.92740885 L19.0222778,15.5297139 C19.0222778,15.5297139 4.72049967,8.24222819 3.79007975,7.78446452 C2.85965983,7.32670085 1.44742839,9.23331706 1.44742839,9.23331706 C1.44742839,9.23331706 -0.34742495,13.5948828 2.13659668,14.1054586 Z" id="Rectangle-8" fill="#FFEECF"></path>
                        <g id="Rectangle-8">
                            <use fill="#FFC55D" fill-rule="evenodd" xlink:href="#path-2"></use>
                            <path stroke="#2B2B2B" stroke-width="1.5625" d="M5.2404014,6.07733976 C4.79329563,6.1943151 4.42091136,6.50321968 4.22334781,6.92101801 C3.85445287,7.70114009 4.18781834,8.63260242 4.96794042,9.00149736 L18.5274605,15.4133634 C18.8592932,15.5702766 19.2357764,15.6053557 19.5908863,15.5124491 L39.4064133,10.3281542 C39.8535191,10.2111789 40.2259034,9.90227429 40.4234669,9.48447597 C40.7923618,8.70435388 40.4589964,7.77289155 39.6788743,7.40399661 L26.1193542,0.992130528 C25.7875215,0.835217374 25.4110384,0.800138226 25.0559284,0.893044891 L5.2404014,6.07733976 Z"></path>
                        </g>
                        <path d="M0.947105176,13.0449932 L0.97484995,12.9890179 L1.59314066,13.0043373 L18.8592434,21.5624705 C19.0307445,21.6474769 19.2274854,21.6665639 19.4121283,21.6161091 L40.869455,15.7527699 C40.9215234,15.7385419 40.9647725,15.7022674 40.987847,15.6534706 C41.0314918,15.5611726 41.1884691,15.2549282 41.0961711,15.2112834 L41.5676959,13.9947883 C42.440116,14.4073281 42.8129227,15.4489939 42.400383,16.321414 C42.1822784,16.7826514 41.773479,17.1255249 41.2813174,17.2600109 L19.8239907,23.1233502 C19.2700618,23.2747145 18.6798392,23.2174535 18.165336,22.9624343 L2.69498698,15.3498942 L0.725158691,12.9828313 L0.947105176,13.0449932 Z M0.97484995,12.9890179 L1.59314066,13.0043373 L18.8592434,21.5624705 C19.0307445,21.6474769 19.2274854,21.6665639 19.4121283,21.6161091 L40.869455,15.7527699 C40.9215234,15.7385419 40.9647725,15.7022674 40.987847,15.6534706 C41.0314918,15.5611726 41.1884691,15.2549282 41.0961711,15.2112834 L41.5676959,13.9947883 C42.440116,14.4073281 42.8129227,15.4489939 42.400383,16.321414 C42.1822784,16.7826514 41.773479,17.1255249 41.2813174,17.2600109 L19.8239907,23.1233502 C19.2700618,23.2747145 18.6798392,23.2174535 18.165336,22.9624343 L2.63108317,15.2826335 L0.725158691,12.9828313 L0.947105176,13.0449932 L0.97484995,12.9890179 Z" id="Rectangle-8" fill="#2B2B2B" fill-rule="nonzero"></path>
                        <polygon id="Rectangle-7-Copy" fill="#FFFFFF" points="25.2060547 4.23958333 33.1741943 7.92061361 26.0306396 9.79897054 18.0625 6.11794027"></polygon>
                        <polygon id="Rectangle-7-Copy" fill="#FFFFFF" points="16.0455933 6.89583333 24.0137329 10.5768636 21.9681396 11.0874227 14 7.40639242"></polygon>
                    </g>
                    <path d="M12.4023438,36.9440079 C12.1023814,36.8271255 11.8219121,36.4333979 11.560936,35.762825 C11.1694717,34.7569656 11.0418701,37.8614044 12.2566223,37.6504898 C13.0664571,37.5098801 13.1150309,37.2743861 12.4023438,36.9440079 Z" id="Path-29" fill="#2B2B2B"></path>
                </g>
            </g>
            <path d="M21.5723877,46.7281494 C19.0350761,45.6481082 18.1192627,39.458252 22.8184814,39.3536377" id="Path-56" stroke="#2B2B2B" stroke-width="1.6"></path>
        </g>
    </g>
</svg>