<?xml version="1.0" encoding="UTF-8" standalone="no"?>
<svg width="16px" height="16px" viewBox="0 0 16 16" version="1.1" xmlns="http://www.w3.org/2000/svg" xmlns:xlink="http://www.w3.org/1999/xlink">
    <!-- Generator: Sketch 44.1 (41455) - http://www.bohemiancoding.com/sketch -->
    <title>ic_Strike</title>
    <desc>Created with Sketch.</desc>
    <defs></defs>
    <g id="Page-1" stroke="none" stroke-width="1" fill="none" fill-rule="evenodd">
        <g id="图标-copy" transform="translate(-419.000000, -1104.000000)">
            <g id="Group-23" transform="translate(419.000000, 1104.000000)">
                <rect id="ic_Strike" x="0" y="0" width="16" height="16"></rect>
                <g id="Group-16" transform="translate(4.000000, 4.000000)" fill="#434B54">
                    <path d="M3.66166884,4.73130377 C3.70313109,4.74280044 3.74526862,4.75404975 3.78808594,4.76505625 L4.87207031,5.05095963 C6.03808594,5.34877565 6.56542969,5.81336863 6.56542969,6.54599603 C6.56542969,7.39774983 5.72753906,8.02316347 4.59082031,8.02316347 C3.38964844,8.02316347 2.54589844,7.45135672 2.41699219,6.55195235 L1.35058594,6.55195235 C1.46191406,8.03507611 2.69824219,9 4.49121094,9 C6.42480469,9 7.64941406,7.99338187 7.64941406,6.41495698 C7.64941406,5.68278436 7.41302265,5.14285381 6.87284879,4.73130377 L9,4.73130377 L9,3.71475844 L4.08695516,3.71475844 C3.08423781,3.4199665 2.68066406,3.04077133 2.68066406,2.41230973 C2.68066406,1.54268696 3.42480469,0.970880212 4.54980469,0.970880212 C5.60449219,0.970880212 6.31933594,1.4950364 6.46582031,2.37657181 L7.52636719,2.37657181 C7.43847656,0.988749173 6.21972656,0 4.58496094,0 C2.79785156,0 1.59667969,0.988749173 1.59667969,2.44804765 C1.59667969,2.95446154 1.71056747,3.37174116 1.95297291,3.71475844 L0,3.71475844 L0,4.73130377 L3.66166884,4.73130377 L3.66166884,4.73130377 Z" id="Combined-Shape"></path>
                </g>
            </g>
        </g>
    </g>
</svg>