<svg xmlns="http://www.w3.org/2000/svg" width="29" height="29" viewBox="0 0 29 29">
    <g fill="none" fill-rule="nonzero">
        <path fill="#FFBE27" d="M28.351 13.632c-.38-6.784-5.753-12.43-12.507-13.14-1.933-.213-3.658-.229-4.31.766-.599.803-.468 2.157.777 2.83a5.67 5.67 0 0 1 3.33 5.569c-.203 2.839-2.595 5.136-5.446 5.23a5.606 5.606 0 0 1-5.003-2.699c-.338-.552-.865-.9-1.454-.963-2.772-.1-3.752 2.047-3.392 4.173.48 7.173 6.493 12.914 13.69 13.07 8.698-.051 14.696-6.699 14.315-14.836z"/>
        <path fill="#FAFBCD" d="M20.621 11.024a1.905 1.905 0 0 0 1.916-1.894 1.905 1.905 0 0 0-1.916-1.893 1.905 1.905 0 0 0-1.916 1.893c0 1.046.858 1.894 1.916 1.894z"/>
        <path fill="#8A86F7" d="M21.527 19.363c1.087 0 1.97-.872 1.97-1.946a1.959 1.959 0 0 0-1.97-1.947c-1.088 0-1.97.872-1.97 1.947 0 1.074.882 1.946 1.97 1.946z"/>
        <path fill="#FAFBCD" d="M17.14 22.366a1.97 1.97 0 0 0-1.982-1.958 1.97 1.97 0 0 0-1.981 1.958 1.97 1.97 0 0 0 1.981 1.958 1.97 1.97 0 0 0 1.982-1.958z"/>
        <path fill="#8A86F7" d="M9.508 19.265a1.924 1.924 0 0 0-1.935-1.912 1.924 1.924 0 0 0-1.934 1.912c0 1.055.867 1.911 1.934 1.911a1.918 1.918 0 0 0 1.935-1.911z"/>
    </g>
</svg>
