<svg xmlns="http://www.w3.org/2000/svg" xmlns:xlink="http://www.w3.org/1999/xlink" width="228" height="142" viewBox="0 0 228 142">
    <defs>
        <path id="b" d="M25.808 0h32.544c.954 0 1.728.774 1.728 1.728v9.544c0 .954-.774 1.728-1.728 1.728H25.808a1.728 1.728 0 0 1-1.728-1.728V1.728C24.08.774 24.854 0 25.808 0z"/>
        <path id="c" d="M25.728 47h32.544c.954 0 1.728.774 1.728 1.728v9.544c0 .954-.774 1.728-1.728 1.728H25.728A1.728 1.728 0 0 1 24 58.272v-9.544c0-.954.774-1.728 1.728-1.728z"/>
        <rect id="a" width="46" height="21" x="110" y="62" rx="4"/>
        <mask id="d" width="46" height="21" x="0" y="0" fill="#fff">
            <use xlink:href="#a"/>
        </mask>
        <path id="e" d="M116.808 19h32.544c.954 0 1.728.774 1.728 1.728v9.544c0 .954-.774 1.728-1.728 1.728h-32.544a1.728 1.728 0 0 1-1.728-1.728v-9.544c0-.954.774-1.728 1.728-1.728z"/>
        <path id="f" d="M116.808 66h32.544c.954 0 1.728.774 1.728 1.728v9.544c0 .954-.774 1.728-1.728 1.728h-32.544a1.728 1.728 0 0 1-1.728-1.728v-9.544c0-.954.774-1.728 1.728-1.728z"/>
        <path id="g" d="M88.88 61h54.24a2.88 2.88 0 0 1 2.88 2.88v16.24a2.88 2.88 0 0 1-2.88 2.88H88.88A2.88 2.88 0 0 1 86 80.12V63.88A2.88 2.88 0 0 1 88.88 61z"/>
    </defs>
    <g fill="none" fill-rule="evenodd">
        <g transform="translate(135 42)">
            <use fill="#FDEADD" xlink:href="#b"/>
            <path stroke="#FCA07E" d="M25.808-.5h32.544c1.23 0 2.228.998 2.228 2.228v9.544c0 1.23-.998 2.228-2.228 2.228H25.808a2.228 2.228 0 0 1-2.228-2.228V1.728c0-1.23.998-2.228 2.228-2.228z"/>
        </g>
        <g transform="translate(135 42)">
            <use fill="#FDEADD" xlink:href="#c"/>
            <path stroke="#FCA07E" d="M25.728 46.5h32.544c1.23 0 2.228.998 2.228 2.228v9.544c0 1.23-.998 2.228-2.228 2.228H25.728a2.228 2.228 0 0 1-2.228-2.228v-9.544c0-1.23.998-2.228 2.228-2.228z"/>
        </g>
        <path stroke="#07284F" d="M159 49.114c-13.255 0-24 10.297-24 23s10.745 23 24 23"/>
        <g transform="matrix(-1 0 0 1 188 23)">
            <path stroke="#FBB475" d="M133.963 12.963C126.358 7.41 97.928-.077 70.525.348 44.745.746 16.864 8.76 8.995 12.963"/>
            <use stroke="#FBB475" stroke-dasharray="3" stroke-width="2" mask="url(#d)" xlink:href="#a"/>
            <path fill="#FBB475" d="M11 61h8a1 1 0 0 0 1-1v-7a1 1 0 0 0-1-1H1a1 1 0 0 0-1 1v7a1 1 0 0 0 1 1h8l1 2 1-2zM8.933 10.465l2.516 3.488-4.7 1z"/>
            <use fill="#FDEADD" xlink:href="#e"/>
            <path stroke="#FCA07E" d="M116.808 18.5h32.544c1.23 0 2.228.998 2.228 2.228v9.544c0 1.23-.998 2.228-2.228 2.228h-32.544a2.228 2.228 0 0 1-2.228-2.228v-9.544c0-1.23.998-2.228 2.228-2.228z"/>
            <use fill="#FDEADD" xlink:href="#f"/>
            <path stroke="#FCA07E" d="M116.808 65.5h32.544c1.23 0 2.228.998 2.228 2.228v9.544c0 1.23-.998 2.228-2.228 2.228h-32.544a2.228 2.228 0 0 1-2.228-2.228v-9.544c0-1.23.998-2.228 2.228-2.228z"/>
            <path stroke="#07284F" d="M115 26.114c-13.255 0-24 10.297-24 23s10.745 23 24 23"/>
        </g>
        <g>
            <use fill="#8794A3" xlink:href="#g"/>
            <path stroke="#07284F" d="M88.88 60.5h54.24a3.38 3.38 0 0 1 3.38 3.38v16.24a3.38 3.38 0 0 1-3.38 3.38H88.88a3.38 3.38 0 0 1-3.38-3.38V63.88a3.38 3.38 0 0 1 3.38-3.38z"/>
        </g>
    </g>
</svg>
