<?xml version="1.0" encoding="UTF-8"?>
<svg width="26px" height="8px" viewBox="0 0 26 8" version="1.1" xmlns="http://www.w3.org/2000/svg" xmlns:xlink="http://www.w3.org/1999/xlink">
    <!-- Generator: Sketch 48.1 (47250) - http://www.bohemiancoding.com/sketch -->
    <title>Timeline_Horizontal</title>
    <desc>Created with Sketch.</desc>
    <defs>
        <linearGradient x1="50%" y1="0%" x2="50%" y2="100%" id="linearGradient-1">
            <stop stop-color="#FFFFFF" offset="0%"></stop>
            <stop stop-color="#F5F2F6" offset="100%"></stop>
        </linearGradient>
        <rect id="path-2" x="10" y="0.916666667" width="14" height="6" rx="0.5"></rect>
    </defs>
    <g id="Artboard-3" stroke="none" stroke-width="1" fill="none" fill-rule="evenodd" transform="translate(-276.000000, -101.000000)">
        <g id="Timeline_Horizontal" transform="translate(274.000000, 91.000000)">
            <rect id="Rectangle-2" x="0" y="0" width="28" height="28"></rect>
            <g id="Group-50-Copy" transform="translate(15.000000, 13.583333) scale(-1, 1) translate(-15.000000, -13.583333) translate(3.000000, 10.083333)">
                <path d="M5.5,8.41666667 L5.5,-1.58333333 L5.5,8.41666667 Z" id="Rectangle-33" stroke="#434B54" stroke-width="0.5" stroke-linecap="round" transform="translate(6.000000, 3.416667) scale(1, -1) rotate(-270.000000) translate(-6.000000, -3.416667) "></path>
                <circle id="Oval-5" stroke="#919191" stroke-width="0.5" fill="url(#linearGradient-1)" transform="translate(1.500000, 3.916667) rotate(-270.000000) translate(-1.500000, -3.916667) " cx="1.5" cy="3.91666667" r="1.5"></circle>
                <circle id="Oval-5" stroke="#919191" stroke-width="0.5" fill="url(#linearGradient-1)" transform="translate(6.500000, 3.916667) scale(1, -1) rotate(-270.000000) translate(-6.500000, -3.916667) " cx="6.5" cy="3.91666667" r="1.5"></circle>
                <g id="Rectangle-89">
                    <use fill="#FF9971" fill-rule="evenodd" xlink:href="#path-2"></use>
                    <rect stroke="#E3701C" stroke-width="0.5" x="9.75" y="0.666666667" width="14.5" height="6.5" rx="0.5"></rect>
                </g>
            </g>
        </g>
    </g>
</svg>