<?xml version="1.0" encoding="UTF-8"?>
<svg width="16px" height="20px" viewBox="0 0 16 20" version="1.1" xmlns="http://www.w3.org/2000/svg" xmlns:xlink="http://www.w3.org/1999/xlink">
    <!-- Generator: Sketch 48.1 (47250) - http://www.bohemiancoding.com/sketch -->
    <title>Timeline_Vertical</title>
    <desc>Created with Sketch.</desc>
    <defs>
        <linearGradient x1="50%" y1="0%" x2="50%" y2="100%" id="linearGradient-1">
            <stop stop-color="#FFFFFF" offset="0%"></stop>
            <stop stop-color="#F5F2F6" offset="100%"></stop>
        </linearGradient>
        <rect id="path-2" x="0" y="1.43884904e-13" width="14" height="6" rx="0.5"></rect>
    </defs>
    <g id="Artboard-3" stroke="none" stroke-width="1" fill="none" fill-rule="evenodd" transform="translate(-389.000000, -94.000000)">
        <g id="Timeline_Vertical" transform="translate(383.000000, 90.000000)">
            <rect id="Rectangle-2" x="0" y="0" width="28" height="28"></rect>
            <g id="Group-50" transform="translate(7.000000, 5.302632)">
                <path d="M7.30999994,16.2670459 L4.65084664,16.2670459 C3.18682447,16.2670459 2,15.3199694 2,14.155812 L2,4.26265998 L2,3.69736842" id="Rectangle-33" stroke="#333333" stroke-width="0.5" stroke-linecap="round" transform="translate(4.655000, 9.982207) scale(-1, 1) translate(-4.655000, -9.982207) "></path>
                <path d="M12.6175613,11.4458417 L9.95715599,11.4458417 C8.49244453,11.4458417 7.30506128,10.6340618 7.30506128,9.63621264 L7.30506128,4.74405948" id="Rectangle-33" stroke="#333333" stroke-width="0.5" stroke-linecap="round"></path>
                <circle id="Oval-5" stroke="#919191" stroke-width="0.5" fill="url(#linearGradient-1)" cx="12.5" cy="11.1973684" r="1.5"></circle>
                <circle id="Oval-5-Copy-3" stroke="#919191" stroke-width="0.5" fill="url(#linearGradient-1)" cx="1.5" cy="16.1973684" r="1.5"></circle>
                <g id="Rectangle-89">
                    <use fill="#FF9971" fill-rule="evenodd" xlink:href="#path-2"></use>
                    <rect stroke="#E3701C" stroke-width="0.5" x="-0.25" y="-0.25" width="14.5" height="6.5" rx="0.5"></rect>
                </g>
            </g>
        </g>
    </g>
</svg>