<?xml version="1.0" standalone="no"?><!DOCTYPE svg PUBLIC "-//W3C//DTD SVG 1.1//EN" "http://www.w3.org/Graphics/SVG/1.1/DTD/svg11.dtd" [<!ENTITY nbsp "&#160;">]><svg id="SvgjsSvg7525" xmlns="http://www.w3.org/2000/svg" version="1.1" width="228" height="140" xmlns:xlink="http://www.w3.org/1999/xlink" style="display: block; background-color: rgb(255, 255, 255);" viewBox="0 0 723.7109696608322 444.38392873910755"><defs><style type="text/css"><![CDATA[

]]></style></defs><g id="SvgjsG7527" data-name="container" transform="scale(1) translate(132.4336433997521 209.69196436955377)"><g id="SvgjsG7531" data-name="sheet"><g id="SvgjsG7532" data-name="matrix-container"></g><g id="SvgjsG7533" data-name="boundary-container"><g id="SvgjsG7665" data-name="boundary-group" class="boundary"><path id="SvgjsPath7666" data-name="boundary-path" stroke="#44b92d" fill="#dee3ec" stroke-width="2" fill-opacity="0.2" stroke-dasharray="9, 3" d="M 380.11377563476555 140.3L 445.3737030029296 140.3Q 465.3737030029296 140.3 465.3737030029296 160.3L 465.3737030029296 167.9Q 465.3737030029296 187.9 445.3737030029296 187.9L 380.11377563476555 187.9Q 360.11377563476555 187.9 360.11377563476555 167.9L 360.11377563476555 160.3Q 360.11377563476555 140.3 380.11377563476555 140.3z"></path><g id="SvgjsG7668" data-name="boundary-title-group" transform="translate(355.11377563476555 135.3)" style="display: none;"><rect id="SvgjsRect7670" data-name="boundary-title-bg" stroke="#44b92d" fill="#dee3ec" stroke-width="2"></rect><text id="SvgjsText7669" font-family="Helvetica, Arial, sans-serif" data-name="boundary-title" style="user-select: none; cursor: default;"></text></g></g></g><g id="SvgjsG7534" data-name="connection-container"><path id="SvgjsPath7548" data-name="connection" stroke-linecap="round"></path><path id="SvgjsPath7558" data-name="connection" stroke-linecap="round" stroke="#8793a5" stroke-width="2" d="M 100.69193420410156 0L 121.69193420410156 0" fill="none" marker-end="none"></path><path id="SvgjsPath7568" data-name="connection" stroke-linecap="round" stroke="#8793a5" stroke-width="2" d="M 180.49688262939452 -19.1L 180.49688262939452 -32.1L 180.49688262939452 -141.1Q 180.49688262939452 -149.1 188.49688262939452 -149.1L 201.49688262939452 -149.1" marker-end="none" fill="none"></path><path id="SvgjsPath7581" data-name="connection" stroke-linecap="round" stroke="#8793a5" stroke-width="2" d="M 180.49688262939452 -19.1L 180.49688262939452 -32.1L 180.49688262939452 -93.50000000000001Q 180.49688262939452 -101.50000000000001 188.49688262939452 -101.50000000000001L 201.49688262939452 -101.50000000000001" marker-end="none" fill="none"></path><path id="SvgjsPath7594" data-name="connection" stroke-linecap="round" stroke="#8793a5" stroke-width="2" d="M 180.49688262939452 -19.1L 180.49688262939452 -32.1L 180.49688262939452 -45.90000000000002Q 180.49688262939452 -53.90000000000002 188.49688262939452 -53.90000000000002L 201.49688262939452 -53.90000000000002" marker-end="none" fill="none"></path><path id="SvgjsPath7607" data-name="connection" stroke-linecap="round" d="M 293.6898193359375 -143.20000000000002  313.6898193359375 -105.60000000000002  293.6898193359375 -68.00000000000003" stroke="#44b92d" stroke-width="2" fill="none" transform="translate(2.0669906616210483 -19.69999999999999)"></path><path id="SvgjsPath7608" data-name="connection-select-box" opacity="0" class="connection" d="M 293.6898193359375 -143.20000000000002  313.6898193359375 -105.60000000000002  293.6898193359375 -68.00000000000003" stroke="#44b92d" stroke-width="7" fill="none" transform="translate(2.0669906616210483 -19.69999999999999)"></path><path id="SvgjsPath7624" data-name="connection" stroke-linecap="round" stroke="#8793a5" stroke-width="2" d="M 241.30183105468748 0L 281.30183105468745 0" fill="none" marker-end="none"></path><path id="SvgjsPath7634" data-name="connection" stroke-linecap="round" stroke="#8793a5" stroke-width="2" d="M 340.1137756347656 19.1L 340.1137756347656 32.1L 340.1137756347656 98.5Q 340.1137756347656 106.5 348.1137756347656 106.5L 361.11377563476555 106.5" marker-end="none" fill="none"></path><path id="SvgjsPath7644" data-name="connection" stroke-linecap="round" d="M 410 85 L 402 92 L 394 85" stroke-width="0" fill="#44b92d" marker-end="none"></path><path id="SvgjsPath7660" data-name="connection" stroke-linecap="round" stroke="#8793a5" stroke-width="2" d="M 340.1137756347656 19.1L 340.1137756347656 32.1L 340.1137756347656 156.10000000000002Q 340.1137756347656 164.10000000000002 348.1137756347656 164.10000000000002L 371.11377563476555 164.10000000000002" marker-end="none" fill="none"></path><path id="SvgjsPath7694" data-name="connection" stroke-linecap="round" stroke="#8793a5" stroke-width="2" d="M 400.9257202148437 0L 440.9257202148437 0" fill="none" marker-end="none"></path></g><g id="SvgjsG7535" data-name="branch-container"><g id="SvgjsG7547" data-name="branch" class="branch"><g id="SvgjsG7540" data-name="topic"><g id="SvgjsG7541" data-name="topic-shape-group"><path id="SvgjsPath7544" data-name="topic-shape-fill" fill="#44b92d" stroke="none" opacity="1" d="M -70.09193420410156 -30.6
        C -110.89193420410157 -30.6 -110.89193420410157 30.6 -70.09193420410156 30.6
        L 70.09193420410156 30.6
        C 110.89193420410157 30.6 110.89193420410157 -30.6 70.09193420410156 -30.6
        L -70.09193420410156 -30.6"></path><path id="SvgjsPath7545" data-name="topic-shape" fill="none" stroke-width="0" d="M -70.09193420410156 -30.6
        C -110.89193420410157 -30.6 -110.89193420410157 30.6 -70.09193420410156 30.6
        L 70.09193420410156 30.6
        C 110.89193420410157 30.6 110.89193420410157 -30.6 70.09193420410156 -30.6
        L -70.09193420410156 -30.6"></path><g id="SvgjsG7542" data-name="inner-element-group"><g id="SvgjsG7700" data-name="topic-title-text-group"><text id="SvgjsText7699" font-family="'Nunito Sans','Nunito Sans','Microsoft YaHei','Microsoft JhengHei',sans-serif" font-size="24" font-weight="normal" fill="#ffffff" font-style="normal" text-decoration="none" text-anchor="middle" transform="translate(0 -15.600000000000001)" style="user-select: none; cursor: default;"><tspan id="SvgjsTspan7738" font-family="'Nunito Sans','Nunito Sans','Microsoft YaHei','Microsoft JhengHei',sans-serif" font-size="24" font-weight="normal" fill="#ffffff" font-style="normal" text-decoration="none" dy="24" x="0" style="white-space: pre;">Central Topic</tspan></text></g></g></g></g></g><g id="SvgjsG7557" data-name="branch" class="branch" transform="translate(180.49688262939452 0)"><g id="SvgjsG7550" data-name="topic"><g id="SvgjsG7551" data-name="topic-shape-group"><path id="SvgjsPath7554" data-name="topic-shape-fill" fill="#8793a5" stroke="none" opacity="1" d="M -40.70494842529297 -19.1
        C -66.17161509195964 -19.1 -66.17161509195964 19.1 -40.70494842529297 19.1
        L 40.704948425292955 19.1
        C 66.17161509195962 19.1 66.17161509195962 -19.1 40.704948425292955 -19.1
        L -40.70494842529297 -19.1"></path><path id="SvgjsPath7555" data-name="topic-shape" fill="none" stroke-width="0" d="M -40.70494842529297 -19.1
        C -66.17161509195964 -19.1 -66.17161509195964 19.1 -40.70494842529297 19.1
        L 40.704948425292955 19.1
        C 66.17161509195962 19.1 66.17161509195962 -19.1 40.704948425292955 -19.1
        L -40.70494842529297 -19.1"></path><g id="SvgjsG7552" data-name="inner-element-group"><g id="SvgjsG7614" data-name="topic-title-text-group"><text id="SvgjsText7613" font-family="'Nunito Sans','Microsoft YaHei','Microsoft JhengHei',sans-serif" font-size="14" font-weight="700" fill="#ffffff" font-style="normal" text-decoration="none" text-anchor="start" transform="translate(-40.70494842529297 -9.1)" style="user-select: none; cursor: default;"><tspan id="SvgjsTspan7739" font-family="'Nunito Sans','Microsoft YaHei','Microsoft JhengHei',sans-serif" font-size="14" font-weight="700" fill="#ffffff" font-style="normal" text-decoration="none" dy="14" x="0" style="white-space: pre;">Main Topic 1</tspan></text></g></g></g><g id="SvgjsG7702" data-name="collapse-extended" class="collapseextend" transform="translate(-6 -38.1)" style="cursor: pointer; display: none;"><line id="SvgjsLine7703" stroke-width="0" x1="6" y1="12" x2="6" y2="19" stroke="#8793a5"></line><g id="SvgjsG7704"><ellipse id="SvgjsEllipse7705" rx="6" ry="6" cx="6" cy="6" fill="#ffffff"></ellipse><ellipse id="SvgjsEllipse7706" rx="6" ry="6" cx="6" cy="6" fill="none" stroke="#8793a5"></ellipse><path id="SvgjsPath7707" d="M 2, 6 L 10, 6" stroke="#8793a5"></path></g><g id="SvgjsG7708"><ellipse id="SvgjsEllipse7709" rx="8" ry="8" cx="8" cy="8" fill="#ffffff"></ellipse><ellipse id="SvgjsEllipse7710" rx="8" ry="8" cx="8" cy="8" fill="none" stroke="#8793a5" stroke-width="1"></ellipse><text id="SvgjsText7711" font-family="Helvetica, Arial, sans-serif" fill="#8793a5" style="user-select: none; cursor: default;"></text></g><ellipse id="SvgjsEllipse7712" rx="8" ry="8" cx="8" cy="8" fill="none" style="pointer-events: visible;"></ellipse></g></g></g><g id="SvgjsG7567" data-name="branch" class="branch" transform="translate(243.12684631347653 -149.1)"><g id="SvgjsG7560" data-name="topic"><g id="SvgjsG7561" data-name="topic-shape-group"><path id="SvgjsPath7564" data-name="topic-shape-fill" opacity="0" d="M -28.829963684082028 -13.8
        C -47.22996368408203 -13.8 -47.22996368408203 13.8 -28.829963684082028 13.8
        L 28.829963684082028 13.8
        C 47.22996368408203 13.8 47.22996368408203 -13.8 28.829963684082028 -13.8
        L -28.829963684082028 -13.8"></path><path id="SvgjsPath7565" data-name="topic-shape" fill="none" stroke-width="0" d="M -28.829963684082028 -13.8
        C -47.22996368408203 -13.8 -47.22996368408203 13.8 -28.829963684082028 13.8
        L 28.829963684082028 13.8
        C 47.22996368408203 13.8 47.22996368408203 -13.8 28.829963684082028 -13.8
        L -28.829963684082028 -13.8"></path><g id="SvgjsG7562" data-name="inner-element-group"><g id="SvgjsG7571" data-name="topic-title-text-group"><text id="SvgjsText7570" font-family="'Nunito Sans','Microsoft YaHei','Microsoft JhengHei',sans-serif" font-size="12" font-weight="normal" fill="#434b54" font-style="normal" text-decoration="none" text-anchor="start" transform="translate(-28.82996368408203 -7.800000000000001)" style="user-select: none; cursor: default;"><tspan id="SvgjsTspan7740" font-family="'Nunito Sans','Microsoft YaHei','Microsoft JhengHei',sans-serif" font-size="12" font-weight="normal" fill="#434b54" font-style="normal" text-decoration="none" dy="12" x="0" style="white-space: pre;">Subtopic 1</tspan></text></g></g></g></g></g><g id="SvgjsG7580" data-name="branch" class="branch" transform="translate(243.12684631347653 -101.50000000000001)"><g id="SvgjsG7573" data-name="topic"><g id="SvgjsG7574" data-name="topic-shape-group"><path id="SvgjsPath7577" data-name="topic-shape-fill" opacity="0" d="M -28.829963684082028 -13.8
        C -47.22996368408203 -13.8 -47.22996368408203 13.8 -28.829963684082028 13.8
        L 28.829963684082028 13.8
        C 47.22996368408203 13.8 47.22996368408203 -13.8 28.829963684082028 -13.8
        L -28.829963684082028 -13.8"></path><path id="SvgjsPath7578" data-name="topic-shape" fill="none" stroke-width="0" d="M -28.829963684082028 -13.8
        C -47.22996368408203 -13.8 -47.22996368408203 13.8 -28.829963684082028 13.8
        L 28.829963684082028 13.8
        C 47.22996368408203 13.8 47.22996368408203 -13.8 28.829963684082028 -13.8
        L -28.829963684082028 -13.8"></path><g id="SvgjsG7575" data-name="inner-element-group"><g id="SvgjsG7584" data-name="topic-title-text-group"><text id="SvgjsText7583" font-family="'Nunito Sans','Microsoft YaHei','Microsoft JhengHei',sans-serif" font-size="12" font-weight="normal" fill="#434b54" font-style="normal" text-decoration="none" text-anchor="start" transform="translate(-28.82996368408203 -7.800000000000001)" style="user-select: none; cursor: default;"><tspan id="SvgjsTspan7741" font-family="'Nunito Sans','Microsoft YaHei','Microsoft JhengHei',sans-serif" font-size="12" font-weight="normal" fill="#434b54" font-style="normal" text-decoration="none" dy="12" x="0" style="white-space: pre;">Subtopic 2</tspan></text></g></g></g></g></g><g id="SvgjsG7593" data-name="branch" class="branch" transform="translate(243.12684631347653 -53.90000000000002)"><g id="SvgjsG7586" data-name="topic"><g id="SvgjsG7587" data-name="topic-shape-group"><path id="SvgjsPath7590" data-name="topic-shape-fill" opacity="0" d="M -28.829963684082028 -13.8
        C -47.22996368408203 -13.8 -47.22996368408203 13.8 -28.829963684082028 13.8
        L 28.829963684082028 13.8
        C 47.22996368408203 13.8 47.22996368408203 -13.8 28.829963684082028 -13.8
        L -28.829963684082028 -13.8"></path><path id="SvgjsPath7591" data-name="topic-shape" fill="none" stroke-width="0" d="M -28.829963684082028 -13.8
        C -47.22996368408203 -13.8 -47.22996368408203 13.8 -28.829963684082028 13.8
        L 28.829963684082028 13.8
        C 47.22996368408203 13.8 47.22996368408203 -13.8 28.829963684082028 -13.8
        L -28.829963684082028 -13.8"></path><g id="SvgjsG7588" data-name="inner-element-group"><g id="SvgjsG7597" data-name="topic-title-text-group"><text id="SvgjsText7596" font-family="'Nunito Sans','Microsoft YaHei','Microsoft JhengHei',sans-serif" font-size="12" font-weight="normal" fill="#434b54" font-style="normal" text-decoration="none" text-anchor="start" transform="translate(-28.82996368408203 -7.800000000000001)" style="user-select: none; cursor: default;"><tspan id="SvgjsTspan7742" font-family="'Nunito Sans','Microsoft YaHei','Microsoft JhengHei',sans-serif" font-size="12" font-weight="normal" fill="#434b54" font-style="normal" text-decoration="none" dy="12" x="0" style="white-space: pre;">Subtopic 3</tspan></text></g></g></g></g></g><g id="SvgjsG7606" data-name="branch" class="branch" transform="translate(362.9197814941406 -125.30000000000001)"><g id="SvgjsG7599" data-name="topic"><g id="SvgjsG7600" data-name="topic-shape-group"><path id="SvgjsPath7603" data-name="topic-shape-fill" fill="#333333" stroke="none" opacity="0" d="M -31.16297149658203 -16.1L 31.16297149658203 -16.1Q 36.16297149658203 -16.1  36.16297149658203 -11.100000000000001L 36.16297149658203 11.100000000000001Q 36.16297149658203 16.1  31.16297149658203 16.1L -31.16297149658203 16.1Q -36.16297149658203 16.1  -36.16297149658203 11.100000000000001L -36.16297149658203 -11.100000000000001Q -36.16297149658203 -16.1  -31.16297149658203 -16.1"></path><path id="SvgjsPath7604" data-name="topic-shape" fill="none" stroke="#44b92d" stroke-width="2" d="M -31.16297149658203 -16.1L 31.16297149658203 -16.1Q 36.16297149658203 -16.1  36.16297149658203 -11.100000000000001L 36.16297149658203 11.100000000000001Q 36.16297149658203 16.1  31.16297149658203 16.1L -31.16297149658203 16.1Q -36.16297149658203 16.1  -36.16297149658203 11.100000000000001L -36.16297149658203 -11.100000000000001Q -36.16297149658203 -16.1  -31.16297149658203 -16.1"></path><g id="SvgjsG7601" data-name="inner-element-group"><g id="SvgjsG7611" data-name="topic-title-text-group"><text id="SvgjsText7610" font-family="'Nunito Sans','Microsoft YaHei','Microsoft JhengHei',sans-serif" font-size="14" font-weight="normal" fill="#434b54" font-style="italic" text-decoration="none" text-anchor="middle" transform="translate(0 -9.1)" style="user-select: none; cursor: default;"><tspan id="SvgjsTspan7743" font-family="'Nunito Sans','Microsoft YaHei','Microsoft JhengHei',sans-serif" font-size="14" font-weight="normal" fill="#434b54" font-style="italic" text-decoration="none" dy="14" x="0" style="white-space: pre;">Summary</tspan></text></g></g></g></g></g><g id="SvgjsG7623" data-name="branch" class="branch" transform="translate(340.1137756347656 0)"><g id="SvgjsG7616" data-name="topic"><g id="SvgjsG7617" data-name="topic-shape-group"><path id="SvgjsPath7620" data-name="topic-shape-fill" fill="#8793a5" stroke="none" opacity="1" d="M -40.711944580078125 -19.1
        C -66.1786112467448 -19.1 -66.1786112467448 19.1 -40.711944580078125 19.1
        L 40.71194458007811 19.1
        C 66.17861124674478 19.1 66.17861124674478 -19.1 40.71194458007811 -19.1
        L -40.711944580078125 -19.1"></path><path id="SvgjsPath7621" data-name="topic-shape" fill="none" stroke-width="0" d="M -40.711944580078125 -19.1
        C -66.1786112467448 -19.1 -66.1786112467448 19.1 -40.711944580078125 19.1
        L 40.71194458007811 19.1
        C 66.17861124674478 19.1 66.17861124674478 -19.1 40.71194458007811 -19.1
        L -40.711944580078125 -19.1"></path><g id="SvgjsG7618" data-name="inner-element-group"><g id="SvgjsG7684" data-name="topic-title-text-group"><text id="SvgjsText7683" font-family="'Nunito Sans','Microsoft YaHei','Microsoft JhengHei',sans-serif" font-size="14" font-weight="700" fill="#ffffff" font-style="normal" text-decoration="none" text-anchor="start" transform="translate(-40.711944580078125 -9.1)" style="user-select: none; cursor: default;"><tspan id="SvgjsTspan7744" font-family="'Nunito Sans','Microsoft YaHei','Microsoft JhengHei',sans-serif" font-size="14" font-weight="700" fill="#ffffff" font-style="normal" text-decoration="none" dy="14" x="0" style="white-space: pre;">Main Topic 2</tspan></text></g></g></g><g id="SvgjsG7725" data-name="collapse-extended" class="collapseextend" transform="translate(-6 26.1)" style="cursor: pointer; display: none;"><line id="SvgjsLine7726" stroke-width="0" x1="6" y1="0" x2="6" y2="-7" stroke="#8793a5"></line><g id="SvgjsG7727"><ellipse id="SvgjsEllipse7728" rx="6" ry="6" cx="6" cy="6" fill="#ffffff"></ellipse><ellipse id="SvgjsEllipse7729" rx="6" ry="6" cx="6" cy="6" fill="none" stroke="#8793a5"></ellipse><path id="SvgjsPath7730" d="M 2, 6 L 10, 6" stroke="#8793a5"></path></g><g id="SvgjsG7731"><ellipse id="SvgjsEllipse7732" rx="8" ry="8" cx="8" cy="8" fill="#ffffff"></ellipse><ellipse id="SvgjsEllipse7733" rx="8" ry="8" cx="8" cy="8" fill="none" stroke="#8793a5" stroke-width="1"></ellipse><text id="SvgjsText7734" font-family="Helvetica, Arial, sans-serif" fill="#8793a5" style="user-select: none; cursor: default;"></text></g><ellipse id="SvgjsEllipse7735" rx="8" ry="8" cx="8" cy="8" fill="none" style="pointer-events: visible;"></ellipse></g></g></g><g id="SvgjsG7633" data-name="branch" class="branch" transform="translate(402.7437393188476 106.5)"><g id="SvgjsG7626" data-name="topic"><g id="SvgjsG7627" data-name="topic-shape-group"><path id="SvgjsPath7630" data-name="topic-shape-fill" opacity="0" d="M -28.829963684082028 -13.8
        C -47.22996368408203 -13.8 -47.22996368408203 13.8 -28.829963684082028 13.8
        L 28.829963684082028 13.8
        C 47.22996368408203 13.8 47.22996368408203 -13.8 28.829963684082028 -13.8
        L -28.829963684082028 -13.8"></path><path id="SvgjsPath7631" data-name="topic-shape" fill="none" stroke-width="0" d="M -28.829963684082028 -13.8
        C -47.22996368408203 -13.8 -47.22996368408203 13.8 -28.829963684082028 13.8
        L 28.829963684082028 13.8
        C 47.22996368408203 13.8 47.22996368408203 -13.8 28.829963684082028 -13.8
        L -28.829963684082028 -13.8"></path><g id="SvgjsG7628" data-name="inner-element-group"><g id="SvgjsG7650" data-name="topic-title-text-group"><text id="SvgjsText7649" font-family="'Nunito Sans','Microsoft YaHei','Microsoft JhengHei',sans-serif" font-size="12" font-weight="normal" fill="#434b54" font-style="normal" text-decoration="none" text-anchor="start" transform="translate(-28.82996368408203 -7.800000000000001)" style="user-select: none; cursor: default;"><tspan id="SvgjsTspan7745" font-family="'Nunito Sans','Microsoft YaHei','Microsoft JhengHei',sans-serif" font-size="12" font-weight="normal" fill="#434b54" font-style="normal" text-decoration="none" dy="12" x="0" style="white-space: pre;">Subtopic 1</tspan></text></g></g></g></g></g><g id="SvgjsG7643" data-name="branch" class="branch" transform="translate(402.7437393188476 72.89999999999999)"><g id="SvgjsG7636" data-name="topic"><g id="SvgjsG7637" data-name="topic-shape-group"><path id="SvgjsPath7640" data-name="topic-shape-fill" fill="#44b92d" stroke="none" opacity="1" d="M -20.433975219726562 -13.8L 20.433975219726562 -13.8Q 25.433975219726562 -13.8  25.433975219726562 -8.8L 25.433975219726562 8.8Q 25.433975219726562 13.8  20.433975219726562 13.8L -20.433975219726562 13.8Q -25.433975219726562 13.8  -25.433975219726562 8.8L -25.433975219726562 -8.8Q -25.433975219726562 -13.8  -20.433975219726562 -13.8"></path><path id="SvgjsPath7641" data-name="topic-shape" fill="none" stroke-width="0" d="M -20.433975219726562 -13.8L 20.433975219726562 -13.8Q 25.433975219726562 -13.8  25.433975219726562 -8.8L 25.433975219726562 8.8Q 25.433975219726562 13.8  20.433975219726562 13.8L -20.433975219726562 13.8Q -25.433975219726562 13.8  -25.433975219726562 8.8L -25.433975219726562 -8.8Q -25.433975219726562 -13.8  -20.433975219726562 -13.8" clip-path="url(&quot;#SvgjsClipPath7756&quot;)"></path><g id="SvgjsG7638" data-name="inner-element-group"><g id="SvgjsG7647" data-name="topic-title-text-group"><text id="SvgjsText7646" font-family="'Nunito Sans','Microsoft YaHei','Microsoft JhengHei',sans-serif" font-size="12" font-weight="700" fill="#ffffff" font-style="italic" text-decoration="none" text-anchor="middle" transform="translate(0 -7.800000000000001)" style="user-select: none; cursor: default;"><tspan id="SvgjsTspan7748" font-family="'Nunito Sans','Microsoft YaHei','Microsoft JhengHei',sans-serif" font-size="12" font-weight="700" fill="#ffffff" font-style="italic" text-decoration="none" dy="12" x="0" style="white-space: pre;">Callout</tspan></text></g></g></g></g></g><g id="SvgjsG7659" data-name="branch" class="branch" transform="translate(412.7437393188476 164.10000000000002)"><g id="SvgjsG7652" data-name="topic"><g id="SvgjsG7653" data-name="topic-shape-group"><path id="SvgjsPath7656" data-name="topic-shape-fill" opacity="0" d="M -28.829963684082028 -13.8
        C -47.22996368408203 -13.8 -47.22996368408203 13.8 -28.829963684082028 13.8
        L 28.829963684082028 13.8
        C 47.22996368408203 13.8 47.22996368408203 -13.8 28.829963684082028 -13.8
        L -28.829963684082028 -13.8"></path><path id="SvgjsPath7657" data-name="topic-shape" fill="none" stroke-width="0" d="M -28.829963684082028 -13.8
        C -47.22996368408203 -13.8 -47.22996368408203 13.8 -28.829963684082028 13.8
        L 28.829963684082028 13.8
        C 47.22996368408203 13.8 47.22996368408203 -13.8 28.829963684082028 -13.8
        L -28.829963684082028 -13.8"></path><g id="SvgjsG7654" data-name="inner-element-group"><g id="SvgjsG7663" data-name="topic-title-text-group"><text id="SvgjsText7662" font-family="'Nunito Sans','Microsoft YaHei','Microsoft JhengHei',sans-serif" font-size="12" font-weight="normal" fill="#434b54" font-style="normal" text-decoration="none" text-anchor="start" transform="translate(-28.82996368408203 -7.800000000000001)" style="user-select: none; cursor: default;"><tspan id="SvgjsTspan7749" font-family="'Nunito Sans','Microsoft YaHei','Microsoft JhengHei',sans-serif" font-size="12" font-weight="normal" fill="#434b54" font-style="normal" text-decoration="none" dy="12" x="0" style="white-space: pre;">Subtopic 2</tspan></text></g></g></g></g></g><g id="SvgjsG7693" data-name="branch" class="branch" transform="translate(499.7306686401367 0)"><g id="SvgjsG7686" data-name="topic"><g id="SvgjsG7687" data-name="topic-shape-group"><path id="SvgjsPath7690" data-name="topic-shape-fill" fill="#8793a5" stroke="none" opacity="1" d="M -40.70494842529297 -19.1
        C -66.17161509195964 -19.1 -66.17161509195964 19.1 -40.70494842529297 19.1
        L 40.704948425292955 19.1
        C 66.17161509195962 19.1 66.17161509195962 -19.1 40.704948425292955 -19.1
        L -40.70494842529297 -19.1"></path><path id="SvgjsPath7691" data-name="topic-shape" fill="none" stroke-width="0" d="M -40.70494842529297 -19.1
        C -66.17161509195964 -19.1 -66.17161509195964 19.1 -40.70494842529297 19.1
        L 40.704948425292955 19.1
        C 66.17161509195962 19.1 66.17161509195962 -19.1 40.704948425292955 -19.1
        L -40.70494842529297 -19.1"></path><g id="SvgjsG7688" data-name="inner-element-group"><g id="SvgjsG7697" data-name="topic-title-text-group"><text id="SvgjsText7696" font-family="'Nunito Sans','Microsoft YaHei','Microsoft JhengHei',sans-serif" font-size="14" font-weight="700" fill="#ffffff" font-style="normal" text-decoration="none" text-anchor="start" transform="translate(-40.70494842529297 -9.1)" style="user-select: none; cursor: default;"><tspan id="SvgjsTspan7750" font-family="'Nunito Sans','Microsoft YaHei','Microsoft JhengHei',sans-serif" font-size="14" font-weight="700" fill="#ffffff" font-style="normal" text-decoration="none" dy="14" x="0" style="white-space: pre;">Main Topic 3</tspan></text></g></g></g></g></g></g><g id="SvgjsG7536" data-name="relationship-container"></g><g id="SvgjsG7539" data-name="cloneG" opacity="0.5"></g></g></g><defs id="SvgjsDefs7526"><clipPath id="SvgjsClipPath7756"><path id="SvgjsPath7755" d="M -8.743739318847588 12.100000000000009 L7.256260681152412 12.100000000000009 L7.256260681152412 12.100000000000009 L-8.743739318847588 12.100000000000009 M -10000 -10000 L10000 -10000 L10000 10000 L-10000 10000" fill="black" clip-rule="evenodd"></path></clipPath></defs></svg>