<svg xmlns="http://www.w3.org/2000/svg" width="475" height="165" viewBox="0 0 475 165">
    <g fill="none" fill-rule="evenodd">
        <path fill="#F3F6F8" d="M240.71 140.37c142.724 23.229 181.557 26.59 215.027-4.65 14.794-13.808 45.87-88.995-35.525-88.995-46.235 0-36.345-34.706-92.775-43.94C261.787-7.96 214.06 16.83 188.761 20.2c-18.895 2.517-72.878-7.73-95.613 0C45.573 36.377 4.653 51.748.778 96.14c-2.062 23.642 19.508 42.595 44.795 54.219 61.15 28.11 121.802-21.925 195.136-9.99z" opacity=".679"/>
        <g transform="translate(139.986 7.42)">
            <rect width="4.563" height="27.362" x="25.118" y="105.159" fill="#525D69" rx="2.28" transform="rotate(15 27.399 118.84)"/>
            <rect width="4.563" height="27.362" x="148.306" y="105.159" fill="#525D69" rx="2.28" transform="scale(-1 1) rotate(15 0 -1024.985)"/>
            <rect width="11.406" height="9.121" x="83.266" fill="#525D69" rx="3.42"/>
            <rect width="36.5" height="5.7" x="70.719" y="5.7" fill="#525D69" rx="2.85"/>
            <rect width="177.939" height="5.7" x="3.422" y="107.167" fill="#525D69" rx="2.85"/>
            <path fill="#F0F3F6" d="M8.999 8.477l165.66.003a4.56 4.56 0 0 1 4.559 4.442l2.4 92.726a4.56 4.56 0 0 1-4.56 4.678l-171.922-.003a4.56 4.56 0 0 1-4.556-4.75l3.862-92.725A4.56 4.56 0 0 1 9 8.478z"/>
            <rect width="177.512" height="97.462" x=".427" y="10.575" fill="#FFF" rx="4.56"/>
            <path stroke="#F0F3F6" stroke-width="1.14" d="M110.802 59.081l6.996-11.831c1.297-2.2 2.677-3.884 4.14-5.055 1.462-1.17 3.708-1.756 6.736-1.756h9.872"/>
            <path fill="#F0F0F0" d="M44.242 37.631c-3.561-.726-6.912-1.09-10.05-1.09-3.138 0-6.488.364-10.05 1.09a.956.956 0 0 0-.765.937v5.789c0 .456.322.848.769.937 3.318.662 6.666.992 10.046.992 3.38 0 6.729-.33 10.046-.992a.956.956 0 0 0 .77-.937v-5.79a.956.956 0 0 0-.766-.936z"/>
            <path fill="#F0F3F6" d="M154.245 37.631c-3.562-.726-6.912-1.09-10.05-1.09-3.139 0-6.489.364-10.05 1.09a.956.956 0 0 0-.765.937v5.789c0 .456.321.848.768.937 3.318.662 6.667.992 10.047.992 3.38 0 6.728-.33 10.046-.992a.956.956 0 0 0 .769-.937v-5.79a.956.956 0 0 0-.765-.936z"/>
            <path stroke="#F0F3F6" stroke-width="1.14" d="M110.802 59.439h23.075"/>
            <path fill="#F0F0F0" d="M43.975 56.146c-3.561-.726-6.912-1.09-10.05-1.09-3.138 0-6.488.364-10.05 1.09a.956.956 0 0 0-.765.937v5.789c0 .456.322.848.769.937 3.318.662 6.666.992 10.046.992 3.38 0 6.729-.33 10.046-.992a.956.956 0 0 0 .77-.937v-5.79a.956.956 0 0 0-.766-.936z"/>
            <path fill="#F0F3F6" d="M153.978 56.146c-3.562-.726-6.912-1.09-10.05-1.09-3.139 0-6.489.364-10.05 1.09a.956.956 0 0 0-.765.937v5.789c0 .456.321.848.768.937 3.318.662 6.667.992 10.047.992 3.38 0 6.728-.33 10.046-.992a.956.956 0 0 0 .769-.937v-5.79a.956.956 0 0 0-.765-.936z"/>
            <path stroke="#F0F3F6" stroke-width="1.14" d="M110.321 58.954l6.996 11.832c1.297 2.199 2.677 3.884 4.14 5.054 1.463 1.17 3.708 1.756 6.737 1.756h9.871M67.666 58.545L60.67 46.713c-1.297-2.199-2.677-3.884-4.14-5.054-1.462-1.171-3.708-1.756-6.736-1.756h-9.872M67.56 59.284H44.485M67.666 59.284L60.67 71.115c-1.297 2.2-2.677 3.884-4.14 5.055-1.462 1.17-3.708 1.756-6.736 1.756h-9.872"/>
            <path fill="#F0F0F0" d="M43.709 74.413c-3.562-.727-6.913-1.09-10.05-1.09-3.14 0-6.49.363-10.051 1.09a.956.956 0 0 0-.765.936v5.79c0 .455.322.847.769.937 3.318.66 6.666.992 10.046.992 3.38 0 6.729-.331 10.046-.992a.956.956 0 0 0 .77-.938V75.35a.956.956 0 0 0-.765-.936z"/>
            <path fill="#F0F3F6" d="M153.978 74.413c-3.562-.727-6.912-1.09-10.05-1.09-3.139 0-6.489.363-10.05 1.09a.956.956 0 0 0-.765.936v5.79c0 .455.321.847.768.937 3.318.66 6.667.992 10.047.992 3.38 0 6.728-.331 10.046-.992a.956.956 0 0 0 .769-.938V75.35a.956.956 0 0 0-.765-.936z"/>
            <path fill="#FE9687" d="M67.272 52.699c-.235-1.09 2.875-1.635 9.328-1.635 9.966 0 18.99.388 24.082.647 2.999.153 5.918.454 8.759.901.645.102 1.12.658 1.12 1.312v11.284c0 .031.002.062.004.093.037.538-3.682.91-11.16 1.118-11.357.316-21.165.136-24.984 0-2.166-.076-4.208-.363-6.125-.86a1.327 1.327 0 0 1-.995-1.284V52.978c0-.094-.01-.187-.03-.279z"/>
        </g>
        <path fill="#8B572A" d="M357.51 30.057c.289-.432.312-.689.072-.768-.872-.29-1.716.2-2.257 1.948-.77 2.488 1.426 9.162.118 13.737-1.31 4.575-9.233 10.318-4.148 18.02 3.39 5.134 7.681 7.458 12.876 6.97 1.13-11.523 1.406-19.3.827-23.328-.07-.487.174-1.058-.007-2.45-.32-2.456-2.813-7.165-7.481-14.129z"/>
        <path fill="#FACCCF" d="M363.225 44.006c1.51.723 1.992 1.452 1.446 2.186s-1.728 1.117-3.548 1.149l9.923 8.345 5.047-11.178c-2.615-.065-4.442-.454-5.483-1.166-1.04-.712-1.971-2.21-2.792-4.496l-4.593 5.16z"/>
        <path fill="#FACCCF" d="M361.339 44.495c-3.176-.512-4.922-6.792-5.01-7.468-.205-1.582 0-3.798 0-4.867 0-4.786 3.012-6.472 6.73-6.472 3.719 0 6.77 3.03 6.77 7.816 0 3.661-5.314 11.504-8.49 10.991zM361.824 47.16c-1.242.059-2.378.365-3.407.917-1.028.552-2.958 3.169-5.788 7.851-3.291 5.29-5.308 7.935-6.051 7.935-.743 0-4.194-3.618-10.354-10.855l-2.607 2.92c7.437 9.42 11.64 14.129 12.607 14.129.967 0 3.894-2.146 8.782-6.436l2.076-4.374 4.742-12.088z"/>
        <path fill="#FACCCF" d="M336.31 53.12l-2.688 2.884-1.453-1.262c-1.187-.08-1.87-.31-2.045-.69-.216-.467-.845-.806-.845-1.306 0-.26-.306-1.127.27-1.737.28-.294 1.343-.662 1.356-1.08.013-.47-2.564-3.285-2.636-3.428-.303-.603-.063-.835.72-.694 1.132.946 2.642 2.27 4.532 3.973.559.503 1.488 1.616 2.79 3.34z"/>
        <path fill="#F5B1B2" d="M346.3 70.092c.498.075 2.37-1.157 5.612-3.697l5.379-4.827c.6-3.773.67-5.742.205-5.908-.696-.248-1.187 1.397-1.692 2.916-.506 1.518-.902 2.9-3.628 5.515-1.59 1.525-3.468 4.698-5.196 4.383-1.925-.352-2.66-.273-2.576-.078.2.469 1.149 1.584 1.896 1.696z"/>
        <path fill="#FACCCF" d="M367.735 118.708l-14.073 22.279c-1.078 1.312-.902 2.348.527 3.107 1.43.758 2.797.32 4.103-1.317l18.086-22.278-8.643-1.791zM344.922 108.447c-1.283 0-2.562.88-3.838 2.638-1.275 1.758-4.461 8.32-9.558 19.687-.062.527.218 1.1.84 1.718.622.618 1.517.618 2.684 0 7.541-10.886 11.8-16.636 12.78-17.251 2.608-1.64 4.52-3.306 5.736-5l-8.644-1.792z"/>
        <path fill="#39454F" d="M335.26 132.249c-.287 0-1.256 1.012-2.592.395s-.903-2.12-1.134-2.12c-.23 0-2.366 2.342-3.182 4.11-.816 1.766-4.112 6.461-2.968 8.608 1.144 2.146 8.116-3.973 8.652-5.647.535-1.674 1.51-5.346 1.223-5.346z"/>
        <path fill="#525D69" d="M380.966 76.98c4.182 13.737 5.747 24.116 4.696 31.136-1.577 10.53-2.273 14.18-13.664 12.106-13.848-2.52-5.267-9.694-25.818-8.656-7.97.402-9.613-.864-10.061-3.45-.868-5.008 6.801-14.057 12.678-18.22 6.191-4.388 10.694-10.075 13.507-17.062l18.662 4.145z"/>
        <path fill="#36414C" d="M381.278 78.367c.224.524-3.94.07-7.398.311-2.305.162-5.217-1.113-8.735-3.825-2.057-.795-2.976-1.24-2.757-1.331.218-.092 1.593.16 4.125.755l5.028 2.864 5.169.847c2.896-.097 4.418.03 4.568.379z"/>
        <path fill="#FFBE27" d="M372.068 43.954l3.856.427c-2.388 1.847-3.189 3.715-2.4 5.606.266.635 1.493.575 2.4 1.407.69.632 1.876 1.85 3.557 3.653 0 4.097-.166 8.202-.496 12.316-.495 6.17 3.476 9.099 2.113 10.431-1.363 1.333-10.354-.18-13.606-2.434-2.167-1.503-3.995-2.047-5.484-1.632-.942-.832-1.414-2.332-1.414-4.5 0-3.253-3.715-6.075-3.715-10.926 0-2.946 1.663-3.687 2.308-5.964.332-1.176.966-2.87 1.9-5.08l2.317-.267c-.058 1.266.989 1.762 3.141 1.487 2.153-.275 3.994-1.783 5.523-4.524z"/>
        <path fill="#FACCCF" d="M376.044 44.454c2.44.805 4.145 2.131 5.117 3.977 1.458 2.768 14.558 11.637 13.33 14.113-.819 1.652-9.25 3.488-25.292 5.51-1.934.632-3.176.923-3.727.872-1.128-.104-1.84-.827-2.291-1.048-.802-.392-2.07-2.305-.467-3.177 1.15-.626 1.932.254 2.758.254 1.045 0 .8-.254 1.11-.827.404-.745-2.108-2.436-.895-2.998.733-.34.707.146 2.571 2.065.128.132.768.443 1.919.933 9.554-1.367 14.71-2.545 15.466-3.534.591-.773-1.615-1.856-5.039-4.507-1.34-1.038-3.7-3.053-7.08-6.044l2.52-5.59z"/>
        <path fill="#8B572A" d="M356.622 30.627c-1.143-1.29-.635-2.874 1.802-4.276 2.436-1.402 4.542-1.926 7.461-.993 2.92.933 4.272 2.701 5.978 6.691 1.705 3.99 5.078 1.31 6.911 4.705 1.833 3.395 1.541 5.263-.105 6.545-1.647 1.281-5.892 1.726-7.992.15-2.101-1.576-6.797-5.057-6.194-9.253.603-4.196-6.718-2.278-7.86-3.569z"/>
        <path fill="#F5B1B2" d="M363.182 43.961c1.419-.662 2.315-1.316 2.69-1.962.375-.645.498-1.464.37-2.455-.2.821-.508 1.515-.923 2.081-.416.567-1.128 1.346-2.137 2.336zM346.6 63.891c.382.475.62.88.713 1.217.093.336.08.741-.038 1.216.581-.705.745-1.276.491-1.714-.254-.438-.642-.678-1.166-.719z"/>
        <path fill="#39454F" d="M354.456 143.308c-1.806-1.903-.184-2.712-1.205-2.712-.68 0-2.054 1.368-4.12 4.105-.522.876-.08 1.635 1.323 2.278 2.105.964 4.417 3.423 5.307 4.764.593.895 1.835 2.163 3.726 3.804 1.603 1.076 2.465.749 2.587-.982.181-2.595-1.617-3.575-2.061-6.527-.296-1.967-1.071-3.544-2.326-4.73-.95 1.27-2.027 1.27-3.231 0z"/>
        <path fill="#F1A03C" d="M373.516 50.143c-.073.432.467 1.2 1.62 2.304.61.585 1.653 2.058 2.43 2.55.46.29 1.098.379 1.917.264a428.435 428.435 0 0 1-3.333-2.814 226.529 226.529 0 0 1-2.634-2.304zM367.973 68.548l1.423-.571c6.032-.789 9.195-1.183 9.489-1.183.44 0-.455 1.133-2.588.868s-4.203.958-6.242 1.17c-2.039.212-4.494.67-3.905.206.392-.31 1-.473 1.823-.49z"/>
        <g>
            <path fill="#FACCCF" d="M87.37 118.21l-6.392.672c-.643-.6-1.004-1.19-1.086-1.77-.081-.579.039-1.255.361-2.029l5.919-2.005 1.198 5.132z"/>
            <path fill="#39454F" d="M82.122 114.361c0-.35-1.078-.018-2.232.235-.77.168-1.66.57-2.67 1.209-1.006.06-1.798.305-2.377.736-.867.646-1.051 2.352-.54 4.175.34 1.215.787 2.11 1.343 2.684.397 3.034.75 5.037 1.06 6.009.465 1.459 1.868 2.733 2.748 3.324.88.59 1.885.99 3.056.148 1.17-.842-.914-7.173.48-10.252.93-2.053.973-3.401.129-4.045-1.165.31-1.981.283-2.449-.079-.7-.543-.633-1.633-.633-2.51 0-.877 2.085-1.284 2.085-1.634z"/>
            <path fill="#FACCCF" d="M89.425 140.286l-2.398 8.397c-1.223.474-2.125.657-2.707.548-.583-.11-1.417-.581-2.503-1.416l2.283-8.077 5.325.548z"/>
            <path fill="#525D69" d="M90.109 141.627l4.651-11.352 5.064-13.825c12.664-5.655 19.388-9.067 20.174-10.237.786-1.17-.6-9.043-4.156-23.62l-2.827-11.52-16.413 8.714c-4.898-.042-7.905-.194-9.021-.455-1.116-.261-2.017-.668-2.703-1.22.08 2.337.198 4.215.352 5.634.154 1.42.501 3.358 1.042 5.813l4.995 24.831-4.38 11.946-3.751 13.078c.55 1.162 1.514 2.043 2.893 2.642 1.38.598 2.74.455 4.08-.429zm13.363-53.875c.286-.69 4.658 13.312 4.39 13.897-.124.269-6.734 5.097-6.936 4.916-.376-.335 2.26-18.122 2.546-18.813z"/>
            <path fill="#525D69" d="M85.954 112.664c.086 1.543.201 2.633.345 3.272.143.64.448 1.689.913 3.15l4.16-1.364-.16-7.213-5.258 2.155z"/>
            <path stroke="#36414C" stroke-linecap="round" stroke-width=".6" d="M84.2 139.284l7.9-22.872-.118-5.98-4.184-20.862v-9.928"/>
            <path fill="#39454F" d="M88.025 146.44c-.445-.42-.262 1.337-1.473 1.48-1.21.141-3.193-.404-3.724-.942-.532-.537.073-2.607-.288-2.607-.24 0-1.333 2.087-3.277 6.263-.676 3.145-.676 5.898 0 8.258 1.013 3.54 2.253 5.756 4.007 5.347 1.17-.273 2.264-2.594 3.282-6.964l.358-7.04c1.04-2.25 1.412-3.514 1.115-3.794z"/>
            <path fill="#36414C" d="M100.995 106.702c.295 1.987.347 3.559.154 4.716-.193 1.157-.61 2.76-1.253 4.812l1.676-.786.61-4.154-.49-4.66-.697.072z"/>
            <path fill="#F5B1B2" d="M94.346 31.038l-.928 2.38c2.698 3.87 4.8 6.29 6.306 7.26 1.507.971 2.862.704 4.067-.801v-3.75l-9.445-5.089z"/>
            <path fill="#FFF" d="M105.162 36.366h-2.09c-.04 1.771-.507 2.894-1.402 3.37-.895.474-1.992.225-3.29-.75l8.474 20.153-1.692-22.773z"/>
            <path fill="#FACCCF" d="M140.511 41.449l2.912-4.67c.465-1.28.92-1.786 1.363-1.52.157.095.254 1.323.173 1.65-.146.591-.517 1.19-.106 1.696.057.071-.09.1.32.33.186.104 1.573-.856 3.038-1.719.567-.333 1.312-.995 1.678-1.013.393-.02.828.327.604.774-.224.447-3.282 2.495-3.036 2.438.245-.056 3.15-2.291 3.93-2.643.78-.353.748.514.743.65-.013.309-.43.505-.893.877-.591.475-2.703 1.67-2.456 1.846.052.037.414-.4 1.105-.875.999-.69 2.06-1.39 2.297-1.344.237.046.401.635.241.796-.363.367-1.198 1.032-1.89 1.496-.584.392-1.063.595-1.11.81-.032.143 2.272-2.108 2.918-1.588.647.52-2.155 2.344-2.168 2.568-.073 1.287-1.364 1.98-2.437 2.592-1.907 1.086-3.292 1.3-4.154.643l-3.072-3.794z"/>
            <path fill="#525D69" d="M110.966 74.86c0 .294-7.557 3.002-8.212 3.002-.437 0-2.535-.66-6.293-1.98l-11.458.181c1.078-.113 1.514-4.103 1.308-11.97-.308-11.802-5.81-23.116-4.586-25.704.816-1.725 4.634-3.466 11.456-5.224 1.215.594 3.247 2.727 6.095 6.4 2.849 3.673 5.152 9.426 6.91 17.257l-3.303-18.494-.469-6.047c5.74.708 9.307 1.646 10.698 2.811 1.391 1.166 4.674 6.352 9.847 15.558l17.23-9.282c1.287.767 2.129 1.398 2.524 1.893.396.495.843 1.478 1.343 2.95-12.519 9.191-19.913 13.907-22.184 14.145-2.252.237-5.86-3.591-10.826-11.484-.178 4.807.012 8.994.572 12.562.84 5.35 4.751 9.72 4.333 10.89-.419 1.17-1.355 1.315-2.277 1.539-.922.223-2.708.704-2.708.997z"/>
            <path fill="#36414C" d="M105.876 32.873l1.531 2.298-2.208 2.645 2.607-2.472zM115.262 73.41c-2.369 2.249-5.321 3.56-8.858 3.93-5.746.604-6.572 3.483-8.952 3.733-3.447.362-7.609.035-12.486-.98l.981-4.521 29.315-2.162z"/>
            <path fill="#525D69" d="M104.701 76.445c-4.836.508-4.385 3.35-9.71 3.783-5.326.433-10.841.065-11.295-.796-.454-.86 1.33-2.565 2.003-4.588.449-1.348.733-2.676.85-3.982a3.29 3.29 0 0 0 1.157 1.163c.456.282 19.816-1.577 27.276 1.281.764.293-5.445 2.631-10.281 3.14z"/>
            <path fill="#FACCCF" d="M100.707 36.242c-2.777-1.357-5.086-3.108-6.925-5.253-.387-.451-.514-1.318-.742-2.096-.533-1.82-.877-3.995-1.076-5.25-.89-5.622 1.533-9.46 5.849-10.143 4.316-.684 8.537 3.32 9.427 8.941.681 4.3-2.465 10.772-4.275 13.22-.37.5-1.123.694-2.258.58z"/>
            <path fill="#8B572A" d="M95.504 19.397c1.668.6 3.389.902 5.163.906 1.774.004 3.632-.29 5.573-.883 1.113-1.126 1.277-2.265.491-3.416-1.178-1.726-8.016-4.192-9.877-4.047-1.241.097-2.425.758-3.553 1.984l-1.321 3.263 3.524 2.193z"/>
            <path fill="#8B572A" d="M97.74 20.482c.32.317.389.749.205 1.296-.184.548-.75 1.029-1.7 1.444l-1.18 2.884-2.907-.07-1.579-4.9c-.452-1.54-.356-2.623.288-3.246.645-.623 1.299-.727 1.962-.31l4.91 2.902z"/>
            <path fill="#FACCCF" d="M94.64 25.837l-1.054-.838c-.866-.101-1.365-.013-1.497.264-.133.276.034.964.5 2.063l1.248 1.07 1.819-.169-.796-1.145-.22-1.245z"/>
            <g transform="rotate(-6 561.501 -487.55)">
                <path fill="#D1D1D1" d="M9.232.623l23.716 6.323a2.28 2.28 0 0 1 1.575 2.926l-6.169 18.429a2.28 2.28 0 0 1-2.966 1.41l-23.03-8.675a2.28 2.28 0 0 1-1.354-2.87L6.487 2.09A2.28 2.28 0 0 1 9.232.623z"/>
                <ellipse cx="17.888" cy="13.886" fill="#FFF" rx="2.083" ry="2.083"/>
            </g>
            <path fill="#FACCCF" d="M66.959 74.85c-.664 2.409-.969 3.875-.914 4.397.083.784 3.027 3.006 3.785 3.274.757.269 3.713-1.11 3.646-1.749-.067-.638-2.421-.456-1.893-1.664.529-1.208 1.573-.126 2.484.089.91.215 2.043-.215 1.492-1-.551-.785-2.096-.502-2.895-1.294a22.59 22.59 0 0 1-1.482-1.616l-4.223-.438z"/>
            <path fill="#36414C" d="M106.012 55.724L93.208 41.132c.423-2.148.599-3.182.526-3.103-.072.08-.505 1.395-1.298 3.947l13.576 13.748zM90.473 33.98l-.266.197.149 2.216 3.182 1.516-2.87-1.687z"/>
            <path stroke="#36414C" stroke-linecap="round" stroke-width=".6" d="M105.955 56.906l1.141 5.86.517 8.738"/>
            <path fill="#36414C" d="M106.67 57.826l1.56-16.235-2.58-4.115 3.05 3.11z"/>
            <path fill="#525D69" d="M82.381 37.617c-8.994 5.99-14.11 10.147-15.347 12.47-1.237 2.32-1.48 10.651-.726 24.99l6.015.358c-.205-11.35.575-18.228 2.338-20.636 1.764-2.409 5.521-5.02 11.272-7.836l-3.552-9.346z"/>
        </g>
    </g>
</svg>
