<?xml version="1.0" encoding="UTF-8"?>
<svg width="18px" height="16px" viewBox="0 0 18 16" version="1.1" xmlns="http://www.w3.org/2000/svg" xmlns:xlink="http://www.w3.org/1999/xlink">
    <!-- Generator: Sketch 46.2 (44496) - http://www.bohemiancoding.com/sketch -->
    <title>Group 6 Copy 3</title>
    <desc>Created with Sketch.</desc>
    <defs></defs>
    <g id="Page-4" stroke="none" stroke-width="1" fill="none" fill-rule="evenodd">
        <g id="Zen-mode-Copy" transform="translate(-1246.000000, -52.000000)">
            <g id="Group-6-Copy-3" transform="translate(1239.000000, 44.000000)">
                <g id="Group-3" transform="translate(7.000000, 8.000000)">
                    <rect id="Rectangle" stroke="#434B54" x="0.5" y="0.5" width="17" height="15" rx="1"></rect>
                    <path d="M4.5,3 L7.50952148,3 C7.78040529,3 8,3.23193359 8,3.5 C8,3.77614237 7.78494263,4 7.50952148,4 L5,4 L5,6.50952148 C5,6.78040529 4.76806641,7 4.5,7 C4.22385763,7 4,6.78494263 4,6.50952148 L4,3 L4.5,3 Z" id="Combined-Shape" fill="#434B54"></path>
                    <path d="M10.5,3 L13.5095215,3 C13.7804053,3 14,3.23193359 14,3.5 C14,3.77614237 13.7849426,4 13.5095215,4 L11,4 L11,6.50952148 C11,6.78040529 10.7680664,7 10.5,7 C10.2238576,7 10,6.78494263 10,6.50952148 L10,3 L10.5,3 Z" id="Combined-Shape" fill="#434B54" transform="translate(12.000000, 5.000000) scale(-1, 1) translate(-12.000000, -5.000000) "></path>
                    <path d="M4.5,9 L7.50952148,9 C7.78040529,9 8,9.23193359 8,9.5 C8,9.77614237 7.78494263,10 7.50952148,10 L5,10 L5,12.5095215 C5,12.7804053 4.76806641,13 4.5,13 C4.22385763,13 4,12.7849426 4,12.5095215 L4,9 L4.5,9 Z" id="Combined-Shape" fill="#434B54" transform="translate(6.000000, 11.000000) scale(1, -1) translate(-6.000000, -11.000000) "></path>
                    <path d="M10.5,9 L13.5095215,9 C13.7804053,9 14,9.23193359 14,9.5 C14,9.77614237 13.7849426,10 13.5095215,10 L11,10 L11,12.5095215 C11,12.7804053 10.7680664,13 10.5,13 C10.2238576,13 10,12.7849426 10,12.5095215 L10,9 L10.5,9 Z" id="Combined-Shape" fill="#434B54" transform="translate(12.000000, 11.000000) scale(-1, -1) translate(-12.000000, -11.000000) "></path>
                </g>
            </g>
        </g>
    </g>
</svg>