<?xml version="1.0" encoding="UTF-8"?>
<svg width="19px" height="14px" viewBox="0 0 19 14" version="1.1" xmlns="http://www.w3.org/2000/svg" xmlns:xlink="http://www.w3.org/1999/xlink">
    <!-- Generator: Sketch 46.1 (44463) - http://www.bohemiancoding.com/sketch -->
    <title>sign_out_selected</title>
    <desc>Created with Sketch.</desc>
    <defs></defs>
    <g id="Zen-Mode" stroke="none" stroke-width="1" fill="none" fill-rule="evenodd">
        <g id="Zen-mode" transform="translate(-1170.000000, -247.000000)">
            <g id="sign_out_selected" transform="translate(1168.000000, 242.000000)">
                <rect id="Rectangle-10" x="0" y="0" width="24" height="24"></rect>
                <g id="presentation" transform="translate(2.000000, 5.000000)">
                    <rect id="Rectangle-8" stroke="#2B2F33" x="1.18808004" y="0.5" width="17" height="13" rx="1"></rect>
                    <path d="M5.18808004,2 L8.19760153,2 C8.46848533,2 8.68808004,2.23193359 8.68808004,2.5 C8.68808004,2.77614237 8.47302267,3 8.19760153,3 L5.68808004,3 L5.68808004,5.50952148 C5.68808004,5.78040529 5.45614645,6 5.18808004,6 C4.91193767,6 4.68808004,5.78494263 4.68808004,5.50952148 L4.68808004,2 L5.18808004,2 Z" id="Combined-Shape" fill="#2B2F33"></path>
                    <path d="M11.18808,2 L14.1976015,2 C14.4684853,2 14.68808,2.23193359 14.68808,2.5 C14.68808,2.77614237 14.4730227,3 14.1976015,3 L11.68808,3 L11.68808,5.50952148 C11.68808,5.78040529 11.4561464,6 11.18808,6 C10.9119377,6 10.68808,5.78494263 10.68808,5.50952148 L10.68808,2 L11.18808,2 Z" id="Combined-Shape" fill="#2B2F33" transform="translate(12.688080, 4.000000) scale(-1, 1) translate(-12.688080, -4.000000) "></path>
                    <path d="M5.18808004,8 L8.19760153,8 C8.46848533,8 8.68808004,8.23193359 8.68808004,8.5 C8.68808004,8.77614237 8.47302267,9 8.19760153,9 L5.68808004,9 L5.68808004,11.5095215 C5.68808004,11.7804053 5.45614645,12 5.18808004,12 C4.91193767,12 4.68808004,11.7849426 4.68808004,11.5095215 L4.68808004,8 L5.18808004,8 Z" id="Combined-Shape" fill="#2B2F33" transform="translate(6.688080, 10.000000) scale(1, -1) translate(-6.688080, -10.000000) "></path>
                    <path d="M11.18808,8 L14.1976015,8 C14.4684853,8 14.68808,8.23193359 14.68808,8.5 C14.68808,8.77614237 14.4730227,9 14.1976015,9 L11.68808,9 L11.68808,11.5095215 C11.68808,11.7804053 11.4561464,12 11.18808,12 C10.9119377,12 10.68808,11.7849426 10.68808,11.5095215 L10.68808,8 L11.18808,8 Z" id="Combined-Shape" fill="#2B2F33" transform="translate(12.688080, 10.000000) scale(-1, -1) translate(-12.688080, -10.000000) "></path>
                </g>
            </g>
        </g>
    </g>
</svg>