<?xml version="1.0" encoding="UTF-8"?>
<svg width="20px" height="20px" viewBox="0 0 20 20" version="1.1" xmlns="http://www.w3.org/2000/svg" xmlns:xlink="http://www.w3.org/1999/xlink">
    <!-- Generator: Sketch 46.2 (44496) - http://www.bohemiancoding.com/sketch -->
    <title>Group 6</title>
    <desc>Created with Sketch.</desc>
    <defs></defs>
    <g id="Page-4" stroke="none" stroke-width="1" fill="none" fill-rule="evenodd">
        <g id="Zen-mode-Copy" transform="translate(-1153.000000, -50.000000)">
            <g id="Group-6" transform="translate(1147.000000, 44.000000)">
                <path d="M16,6 C16.2761424,6 16.5,6.22385763 16.5,6.5 L16.5,8.5 C16.5,8.77614237 16.2761424,9 16,9 C15.7238576,9 15.5,8.77614237 15.5,8.5 L15.5,6.5 C15.5,6.22385763 15.7238576,6 16,6 Z M26,16 C26,16.2761424 25.7761424,16.5 25.5,16.5 L23.5,16.5 C23.2238576,16.5 23,16.2761424 23,16 C23,15.7238576 23.2238576,15.5 23.5,15.5 L25.5,15.5 C25.7761424,15.5 26,15.7238576 26,16 Z M21.3535534,20.3535534 C21.5488155,20.1582912 21.865398,20.1582912 22.0606602,20.3535534 L23.4748737,21.767767 C23.6701359,21.9630291 23.6701359,22.2796116 23.4748737,22.4748737 C23.2796116,22.6701359 22.9630291,22.6701359 22.767767,22.4748737 L21.3535534,21.0606602 C21.1582912,20.865398 21.1582912,20.5488155 21.3535534,20.3535534 Z M21.4393398,11.5606602 C21.2440777,11.365398 21.2440777,11.0488155 21.4393398,10.8535534 L22.8535534,9.43933983 C23.0488155,9.24407768 23.365398,9.24407768 23.5606602,9.43933983 C23.7559223,9.63460197 23.7559223,9.95118446 23.5606602,10.1464466 L22.1464466,11.5606602 C21.9511845,11.7559223 21.634602,11.7559223 21.4393398,11.5606602 Z M10.4748737,20.3535534 C10.6701359,20.5488155 10.6701359,20.865398 10.4748737,21.0606602 L9.06066017,22.4748737 C8.86539803,22.6701359 8.54881554,22.6701359 8.35355339,22.4748737 C8.15829124,22.2796116 8.15829124,21.9630291 8.35355339,21.767767 L9.76776695,20.3535534 C9.9630291,20.1582912 10.2796116,20.1582912 10.4748737,20.3535534 Z M10.5606602,11.5606602 C10.365398,11.7559223 10.0488155,11.7559223 9.85355339,11.5606602 L8.43933983,10.1464466 C8.24407768,9.95118446 8.24407768,9.63460197 8.43933983,9.43933983 C8.63460197,9.24407768 8.95118446,9.24407768 9.14644661,9.43933983 L10.5606602,10.8535534 C10.7559223,11.0488155 10.7559223,11.365398 10.5606602,11.5606602 Z M9,16 C9,16.2761424 8.77614237,16.5 8.5,16.5 L6.5,16.5 C6.22385763,16.5 6,16.2761424 6,16 C6,15.7238576 6.22385763,15.5 6.5,15.5 L8.5,15.5 C8.77614237,15.5 9,15.7238576 9,16 Z M16,23 C16.2761424,23 16.5,23.2238576 16.5,23.5 L16.5,25.5 C16.5,25.7761424 16.2761424,26 16,26 C15.7238576,26 15.5,25.7761424 15.5,25.5 L15.5,23.5 C15.5,23.2238576 15.7238576,23 16,23 Z" id="Combined-Shape" fill="#434B54"></path>
                <circle id="Path" stroke="#434B54" cx="16" cy="16" r="4.5"></circle>
            </g>
        </g>
    </g>
</svg>